%TF.GenerationSoftware,KiCad,Pcbnew,(6.0.1)*%
%TF.CreationDate,2022-03-29T14:07:41-05:00*%
%TF.ProjectId,light_board,6c696768-745f-4626-9f61-72642e6b6963,rev?*%
%TF.SameCoordinates,Original*%
%TF.FileFunction,Paste,Top*%
%TF.FilePolarity,Positive*%
%FSLAX46Y46*%
G04 Gerber Fmt 4.6, Leading zero omitted, Abs format (unit mm)*
G04 Created by KiCad (PCBNEW (6.0.1)) date 2022-03-29 14:07:41*
%MOMM*%
%LPD*%
G01*
G04 APERTURE LIST*
G04 Aperture macros list*
%AMRoundRect*
0 Rectangle with rounded corners*
0 $1 Rounding radius*
0 $2 $3 $4 $5 $6 $7 $8 $9 X,Y pos of 4 corners*
0 Add a 4 corners polygon primitive as box body*
4,1,4,$2,$3,$4,$5,$6,$7,$8,$9,$2,$3,0*
0 Add four circle primitives for the rounded corners*
1,1,$1+$1,$2,$3*
1,1,$1+$1,$4,$5*
1,1,$1+$1,$6,$7*
1,1,$1+$1,$8,$9*
0 Add four rect primitives between the rounded corners*
20,1,$1+$1,$2,$3,$4,$5,0*
20,1,$1+$1,$4,$5,$6,$7,0*
20,1,$1+$1,$6,$7,$8,$9,0*
20,1,$1+$1,$8,$9,$2,$3,0*%
G04 Aperture macros list end*
%ADD10R,0.900000X1.200000*%
%ADD11RoundRect,0.150000X-0.825000X-0.150000X0.825000X-0.150000X0.825000X0.150000X-0.825000X0.150000X0*%
%ADD12R,2.750000X3.050000*%
%ADD13R,1.200000X2.200000*%
%ADD14R,2.000000X0.800000*%
%ADD15RoundRect,0.200000X0.200000X0.275000X-0.200000X0.275000X-0.200000X-0.275000X0.200000X-0.275000X0*%
%ADD16RoundRect,0.200000X-0.200000X-0.275000X0.200000X-0.275000X0.200000X0.275000X-0.200000X0.275000X0*%
G04 APERTURE END LIST*
D10*
%TO.C,D3*%
X157150000Y-111000000D03*
X153850000Y-111000000D03*
%TD*%
D11*
%TO.C,Q6*%
X130995000Y-109205000D03*
X130995000Y-110475000D03*
X130995000Y-111745000D03*
X130995000Y-113015000D03*
X135945000Y-113015000D03*
X135945000Y-111745000D03*
X135945000Y-110475000D03*
X135945000Y-109205000D03*
%TD*%
D12*
%TO.C,Q4*%
X135000000Y-98650000D03*
X135000000Y-102000000D03*
X131950000Y-98650000D03*
X131950000Y-102000000D03*
D13*
X135755000Y-94025000D03*
X131195000Y-94025000D03*
%TD*%
D12*
%TO.C,Q1*%
X98950000Y-98650000D03*
X102000000Y-102000000D03*
X98950000Y-102000000D03*
X102000000Y-98650000D03*
D13*
X102755000Y-94025000D03*
X98195000Y-94025000D03*
%TD*%
D14*
%TO.C,K1*%
X152500000Y-106600000D03*
X152500000Y-101200000D03*
X158500000Y-101200000D03*
X158500000Y-106600000D03*
%TD*%
D15*
%TO.C,R2*%
X127825000Y-110400000D03*
X126175000Y-110400000D03*
%TD*%
D16*
%TO.C,R8*%
X139275000Y-110500000D03*
X140925000Y-110500000D03*
%TD*%
D15*
%TO.C,R3*%
X105325000Y-113100000D03*
X103675000Y-113100000D03*
%TD*%
D11*
%TO.C,Q5*%
X108655000Y-109205000D03*
X108655000Y-110475000D03*
X108655000Y-111745000D03*
X108655000Y-113015000D03*
X113605000Y-113015000D03*
X113605000Y-111745000D03*
X113605000Y-110475000D03*
X113605000Y-109205000D03*
%TD*%
D16*
%TO.C,R7*%
X117175000Y-110500000D03*
X118825000Y-110500000D03*
%TD*%
D12*
%TO.C,Q2*%
X115950000Y-98650000D03*
X115950000Y-102000000D03*
X119000000Y-98650000D03*
X119000000Y-102000000D03*
D13*
X119755000Y-94025000D03*
X115195000Y-94025000D03*
%TD*%
D15*
%TO.C,R1*%
X105325000Y-110500000D03*
X103675000Y-110500000D03*
%TD*%
D16*
%TO.C,R5*%
X117075000Y-114200000D03*
X118725000Y-114200000D03*
%TD*%
M02*
