%TF.GenerationSoftware,KiCad,Pcbnew,(6.0.1)*%
%TF.CreationDate,2022-03-07T20:23:26-06:00*%
%TF.ProjectId,light_board,6c696768-745f-4626-9f61-72642e6b6963,rev?*%
%TF.SameCoordinates,Original*%
%TF.FileFunction,Copper,L1,Top*%
%TF.FilePolarity,Positive*%
%FSLAX46Y46*%
G04 Gerber Fmt 4.6, Leading zero omitted, Abs format (unit mm)*
G04 Created by KiCad (PCBNEW (6.0.1)) date 2022-03-07 20:23:26*
%MOMM*%
%LPD*%
G01*
G04 APERTURE LIST*
G04 Aperture macros list*
%AMRoundRect*
0 Rectangle with rounded corners*
0 $1 Rounding radius*
0 $2 $3 $4 $5 $6 $7 $8 $9 X,Y pos of 4 corners*
0 Add a 4 corners polygon primitive as box body*
4,1,4,$2,$3,$4,$5,$6,$7,$8,$9,$2,$3,0*
0 Add four circle primitives for the rounded corners*
1,1,$1+$1,$2,$3*
1,1,$1+$1,$4,$5*
1,1,$1+$1,$6,$7*
1,1,$1+$1,$8,$9*
0 Add four rect primitives between the rounded corners*
20,1,$1+$1,$2,$3,$4,$5,0*
20,1,$1+$1,$4,$5,$6,$7,0*
20,1,$1+$1,$6,$7,$8,$9,0*
20,1,$1+$1,$8,$9,$2,$3,0*%
G04 Aperture macros list end*
%TA.AperFunction,SMDPad,CuDef*%
%ADD10RoundRect,0.250000X-0.625000X0.312500X-0.625000X-0.312500X0.625000X-0.312500X0.625000X0.312500X0*%
%TD*%
%TA.AperFunction,SMDPad,CuDef*%
%ADD11R,0.600000X0.700000*%
%TD*%
%TA.AperFunction,SMDPad,CuDef*%
%ADD12RoundRect,0.150000X-0.825000X-0.150000X0.825000X-0.150000X0.825000X0.150000X-0.825000X0.150000X0*%
%TD*%
%TA.AperFunction,ComponentPad*%
%ADD13R,1.700000X1.700000*%
%TD*%
%TA.AperFunction,ComponentPad*%
%ADD14R,1.980000X3.960000*%
%TD*%
%TA.AperFunction,ComponentPad*%
%ADD15O,1.980000X3.960000*%
%TD*%
%TA.AperFunction,SMDPad,CuDef*%
%ADD16R,1.200000X2.200000*%
%TD*%
%TA.AperFunction,SMDPad,CuDef*%
%ADD17R,5.800000X6.400000*%
%TD*%
%TA.AperFunction,SMDPad,CuDef*%
%ADD18RoundRect,0.250000X0.625000X-0.312500X0.625000X0.312500X-0.625000X0.312500X-0.625000X-0.312500X0*%
%TD*%
%TA.AperFunction,SMDPad,CuDef*%
%ADD19R,2.000000X0.800000*%
%TD*%
%TA.AperFunction,SMDPad,CuDef*%
%ADD20RoundRect,0.250000X0.262500X0.450000X-0.262500X0.450000X-0.262500X-0.450000X0.262500X-0.450000X0*%
%TD*%
%TA.AperFunction,SMDPad,CuDef*%
%ADD21RoundRect,0.250000X-0.262500X-0.450000X0.262500X-0.450000X0.262500X0.450000X-0.262500X0.450000X0*%
%TD*%
%TA.AperFunction,ViaPad*%
%ADD22C,0.800000*%
%TD*%
%TA.AperFunction,Conductor*%
%ADD23C,0.300000*%
%TD*%
%TA.AperFunction,Conductor*%
%ADD24C,0.800000*%
%TD*%
%TA.AperFunction,Conductor*%
%ADD25C,1.000000*%
%TD*%
%TA.AperFunction,Conductor*%
%ADD26C,0.400000*%
%TD*%
G04 APERTURE END LIST*
D10*
%TO.P,R9,1*%
%TO.N,+24V*%
X102500000Y-112437500D03*
%TO.P,R9,2*%
%TO.N,12V*%
X102500000Y-115362500D03*
%TD*%
D11*
%TO.P,D3,1,K*%
%TO.N,Net-(D3-Pad1)*%
X154800000Y-109900000D03*
%TO.P,D3,2,A*%
%TO.N,GND1*%
X156200000Y-109900000D03*
%TD*%
D12*
%TO.P,Q6,1,ANODE_1*%
%TO.N,MCU_L3*%
X140025000Y-112995000D03*
%TO.P,Q6,2,CATHODE_1*%
%TO.N,Net-(Q6-Pad2)*%
X140025000Y-114265000D03*
%TO.P,Q6,3,ANODE_2*%
%TO.N,unconnected-(Q6-Pad3)*%
X140025000Y-115535000D03*
%TO.P,Q6,4,CATHODE_2*%
%TO.N,unconnected-(Q6-Pad4)*%
X140025000Y-116805000D03*
%TO.P,Q6,5,EMITTER_2*%
%TO.N,unconnected-(Q6-Pad5)*%
X144975000Y-116805000D03*
%TO.P,Q6,6,COLLECTOR_2*%
%TO.N,12V*%
X144975000Y-115535000D03*
%TO.P,Q6,7,EMITTER_1*%
%TO.N,L3*%
X144975000Y-114265000D03*
%TO.P,Q6,8,COLLECTOR_1*%
%TO.N,12V*%
X144975000Y-112995000D03*
%TD*%
D13*
%TO.P,J6,1,Pin_1*%
%TO.N,MCU_Bike*%
X163500000Y-116900000D03*
%TD*%
%TO.P,J5,1,Pin_1*%
%TO.N,MCU_L3*%
X132500000Y-121900000D03*
%TD*%
D14*
%TO.P,J9,1,Pin_1*%
%TO.N,Net-(J9-Pad1)*%
X116735000Y-88900000D03*
D15*
%TO.P,J9,2,Pin_2*%
%TO.N,GND*%
X121735000Y-88900000D03*
%TD*%
D16*
%TO.P,Q3,1,G*%
%TO.N,MCU_Bike*%
X147780000Y-99700000D03*
D17*
%TO.P,Q3,2,D*%
%TO.N,+5V*%
X145500000Y-106000000D03*
D16*
%TO.P,Q3,3,S*%
%TO.N,Net-(D3-Pad1)*%
X143220000Y-99700000D03*
%TD*%
%TO.P,Q4,1,G*%
%TO.N,L3*%
X136780000Y-99700000D03*
D17*
%TO.P,Q4,2,D*%
%TO.N,+24V*%
X134500000Y-106000000D03*
D16*
%TO.P,Q4,3,S*%
%TO.N,Net-(J10-Pad1)*%
X132220000Y-99700000D03*
%TD*%
%TO.P,Q1,1,G*%
%TO.N,L1*%
X103780000Y-99700000D03*
D17*
%TO.P,Q1,2,D*%
%TO.N,+24V*%
X101500000Y-106000000D03*
D16*
%TO.P,Q1,3,S*%
%TO.N,Net-(J8-Pad1)*%
X99220000Y-99700000D03*
%TD*%
D13*
%TO.P,J17,1,Pin_1*%
%TO.N,GND1*%
X163500000Y-104900000D03*
%TD*%
D14*
%TO.P,J8,1,Pin_1*%
%TO.N,Net-(J8-Pad1)*%
X99735000Y-88900000D03*
D15*
%TO.P,J8,2,Pin_2*%
%TO.N,GND*%
X104735000Y-88900000D03*
%TD*%
D13*
%TO.P,J3,1,Pin_1*%
%TO.N,MCU_L1*%
X122500000Y-121900000D03*
%TD*%
D14*
%TO.P,J11,1,Pin_1*%
%TO.N,Net-(J11-Pad1)*%
X148735000Y-88900000D03*
D15*
%TO.P,J11,2,Pin_2*%
%TO.N,Earth*%
X153735000Y-88900000D03*
%TD*%
D18*
%TO.P,R10,1*%
%TO.N,12V*%
X106500000Y-115362500D03*
%TO.P,R10,2*%
%TO.N,GND*%
X106500000Y-112437500D03*
%TD*%
D19*
%TO.P,K1,1*%
%TO.N,Net-(D3-Pad1)*%
X152500000Y-106600000D03*
%TO.P,K1,3*%
%TO.N,VAC*%
X152500000Y-101200000D03*
%TO.P,K1,5*%
%TO.N,Net-(J11-Pad1)*%
X158500000Y-101200000D03*
%TO.P,K1,6*%
%TO.N,GND1*%
X158500000Y-106600000D03*
%TD*%
D13*
%TO.P,J12,1,Pin_1*%
%TO.N,VAC*%
X163500000Y-98900000D03*
%TD*%
D20*
%TO.P,R2,1*%
%TO.N,Net-(Q6-Pad2)*%
X137152500Y-114270000D03*
%TO.P,R2,2*%
%TO.N,GND1*%
X135327500Y-114270000D03*
%TD*%
D21*
%TO.P,R8,1*%
%TO.N,L3*%
X148117500Y-114260000D03*
%TO.P,R8,2*%
%TO.N,GND*%
X149942500Y-114260000D03*
%TD*%
D13*
%TO.P,J14,1,Pin_1*%
%TO.N,GND*%
X92460000Y-101720000D03*
%TD*%
D14*
%TO.P,J10,1,Pin_1*%
%TO.N,Net-(J10-Pad1)*%
X132735000Y-88900000D03*
D15*
%TO.P,J10,2,Pin_2*%
%TO.N,GND*%
X137735000Y-88900000D03*
%TD*%
D20*
%TO.P,R3,1*%
%TO.N,Net-(Q5-Pad4)*%
X113822500Y-116830000D03*
%TO.P,R3,2*%
%TO.N,GND1*%
X111997500Y-116830000D03*
%TD*%
D12*
%TO.P,Q5,1,ANODE_1*%
%TO.N,MCU_L1*%
X117025000Y-112995000D03*
%TO.P,Q5,2,CATHODE_1*%
%TO.N,Net-(Q5-Pad2)*%
X117025000Y-114265000D03*
%TO.P,Q5,3,ANODE_2*%
%TO.N,MCU_L2*%
X117025000Y-115535000D03*
%TO.P,Q5,4,CATHODE_2*%
%TO.N,Net-(Q5-Pad4)*%
X117025000Y-116805000D03*
%TO.P,Q5,5,EMITTER_2*%
%TO.N,L2*%
X121975000Y-116805000D03*
%TO.P,Q5,6,COLLECTOR_2*%
%TO.N,12V*%
X121975000Y-115535000D03*
%TO.P,Q5,7,EMITTER_1*%
%TO.N,L1*%
X121975000Y-114265000D03*
%TO.P,Q5,8,COLLECTOR_1*%
%TO.N,12V*%
X121975000Y-112995000D03*
%TD*%
D21*
%TO.P,R7,1*%
%TO.N,L1*%
X125457500Y-114290000D03*
%TO.P,R7,2*%
%TO.N,GND*%
X127282500Y-114290000D03*
%TD*%
D13*
%TO.P,J7,1,Pin_1*%
%TO.N,+5V*%
X163500000Y-110900000D03*
%TD*%
%TO.P,J2,1,Pin_1*%
%TO.N,GND*%
X92460000Y-96720000D03*
%TD*%
D16*
%TO.P,Q2,1,G*%
%TO.N,L2*%
X120780000Y-99700000D03*
D17*
%TO.P,Q2,2,D*%
%TO.N,+24V*%
X118500000Y-106000000D03*
D16*
%TO.P,Q2,3,S*%
%TO.N,Net-(J9-Pad1)*%
X116220000Y-99700000D03*
%TD*%
D13*
%TO.P,J4,1,Pin_1*%
%TO.N,MCU_L2*%
X127500000Y-121900000D03*
%TD*%
%TO.P,J13,1,Pin_1*%
%TO.N,Earth*%
X163500000Y-92900000D03*
%TD*%
%TO.P,J1,1,Pin_1*%
%TO.N,+24V*%
X92460000Y-106720000D03*
%TD*%
D20*
%TO.P,R1,1*%
%TO.N,Net-(Q5-Pad2)*%
X113712500Y-114240000D03*
%TO.P,R1,2*%
%TO.N,GND1*%
X111887500Y-114240000D03*
%TD*%
D21*
%TO.P,R5,1*%
%TO.N,L2*%
X125457500Y-116790000D03*
%TO.P,R5,2*%
%TO.N,GND*%
X127282500Y-116790000D03*
%TD*%
D22*
%TO.N,GND*%
X106520000Y-113750000D03*
X128540000Y-114300000D03*
X151220000Y-114250000D03*
X128550000Y-116780000D03*
%TO.N,L1*%
X125100000Y-112700000D03*
X107100000Y-101200000D03*
X123700000Y-111500000D03*
X110000000Y-110600000D03*
%TO.N,L2*%
X128100000Y-101200000D03*
X129700000Y-112200000D03*
%TO.N,MCU_L1*%
X119260000Y-117480000D03*
X119290000Y-115320000D03*
%TO.N,GND1*%
X141800000Y-119400000D03*
X119600000Y-119000000D03*
X153500000Y-115700000D03*
X126400000Y-119300000D03*
X139000000Y-119300000D03*
X156200000Y-111400000D03*
%TO.N,MCU_Bike*%
X150700000Y-107600000D03*
X150800000Y-111700000D03*
%TD*%
D23*
%TO.N,Net-(D3-Pad1)*%
X150700000Y-102193572D02*
X152500000Y-103993572D01*
X152500000Y-103993572D02*
X152500000Y-106600000D01*
X152500000Y-107600000D02*
X154800000Y-109900000D01*
X150700000Y-99000000D02*
X150700000Y-102193572D01*
X143220000Y-99700000D02*
X145420000Y-97500000D01*
X145420000Y-97500000D02*
X149200000Y-97500000D01*
X149200000Y-97500000D02*
X150700000Y-99000000D01*
X152500000Y-106600000D02*
X152500000Y-107600000D01*
%TO.N,GND*%
X151210000Y-114260000D02*
X151220000Y-114250000D01*
X149942500Y-114260000D02*
X151210000Y-114260000D01*
X127282500Y-116790000D02*
X128540000Y-116790000D01*
X106500000Y-112437500D02*
X106500000Y-113730000D01*
X128530000Y-114290000D02*
X128540000Y-114300000D01*
X128540000Y-116790000D02*
X128550000Y-116780000D01*
X127282500Y-114290000D02*
X128530000Y-114290000D01*
X106500000Y-113730000D02*
X106520000Y-113750000D01*
D24*
%TO.N,+24V*%
X101500000Y-111437500D02*
X102500000Y-112437500D01*
X101500000Y-106000000D02*
X101500000Y-111437500D01*
D23*
%TO.N,L1*%
X117400000Y-110500000D02*
X110100000Y-110500000D01*
X121975000Y-114265000D02*
X125432500Y-114265000D01*
X122700000Y-110500000D02*
X117400000Y-110500000D01*
X107100000Y-101200000D02*
X105600000Y-99700000D01*
X123700000Y-111500000D02*
X122700000Y-110500000D01*
X125457500Y-113057500D02*
X125100000Y-112700000D01*
X110100000Y-110500000D02*
X110000000Y-110600000D01*
X125432500Y-114265000D02*
X125457500Y-114290000D01*
X105600000Y-99700000D02*
X103780000Y-99700000D01*
X125457500Y-114290000D02*
X125457500Y-113057500D01*
%TO.N,L2*%
X128700000Y-118400000D02*
X126900000Y-118400000D01*
X125457500Y-116957500D02*
X125457500Y-116790000D01*
X126900000Y-118400000D02*
X125457500Y-116957500D01*
X129700000Y-117400000D02*
X128700000Y-118400000D01*
X129700000Y-112200000D02*
X129700000Y-117400000D01*
X120780000Y-99700000D02*
X126600000Y-99700000D01*
X121990000Y-116790000D02*
X125457500Y-116790000D01*
X126600000Y-99700000D02*
X128100000Y-101200000D01*
X121975000Y-116805000D02*
X121990000Y-116790000D01*
%TO.N,L3*%
X148117500Y-114260000D02*
X148117500Y-114017500D01*
X141300000Y-110300000D02*
X139800000Y-108800000D01*
X148117500Y-114017500D02*
X144400000Y-110300000D01*
X144400000Y-110300000D02*
X141300000Y-110300000D01*
X144975000Y-114265000D02*
X148112500Y-114265000D01*
X137300000Y-99700000D02*
X136780000Y-99700000D01*
X139800000Y-102200000D02*
X137300000Y-99700000D01*
X139800000Y-108800000D02*
X139800000Y-102200000D01*
X148112500Y-114265000D02*
X148117500Y-114260000D01*
%TO.N,MCU_L1*%
X119290000Y-115320000D02*
X119340000Y-115270000D01*
X122500000Y-120720000D02*
X119260000Y-117480000D01*
X119340000Y-115270000D02*
X119340000Y-113610000D01*
X118725000Y-112995000D02*
X117025000Y-112995000D01*
X119340000Y-113610000D02*
X118725000Y-112995000D01*
X122500000Y-121900000D02*
X122500000Y-120720000D01*
D24*
%TO.N,+5V*%
X153400000Y-112400000D02*
X159300000Y-112400000D01*
X145500000Y-106000000D02*
X147000000Y-106000000D01*
X159300000Y-112400000D02*
X160800000Y-110900000D01*
X160800000Y-110900000D02*
X163500000Y-110900000D01*
X147000000Y-106000000D02*
X153400000Y-112400000D01*
D25*
%TO.N,Net-(J8-Pad1)*%
X99735000Y-88900000D02*
X99735000Y-99185000D01*
X99735000Y-99185000D02*
X99220000Y-99700000D01*
%TO.N,Net-(J9-Pad1)*%
X116735000Y-88900000D02*
X116735000Y-99185000D01*
X116735000Y-99185000D02*
X116220000Y-99700000D01*
%TO.N,Net-(J10-Pad1)*%
X132735000Y-88900000D02*
X132735000Y-99185000D01*
X132735000Y-99185000D02*
X132220000Y-99700000D01*
%TO.N,Net-(J11-Pad1)*%
X148735000Y-93535000D02*
X156400000Y-101200000D01*
X148735000Y-88900000D02*
X148735000Y-93535000D01*
X156400000Y-101200000D02*
X158500000Y-101200000D01*
D26*
%TO.N,GND1*%
X113500000Y-119000000D02*
X119600000Y-119000000D01*
X111997500Y-116830000D02*
X111997500Y-117497500D01*
X111887500Y-114240000D02*
X111887500Y-116720000D01*
X111887500Y-116720000D02*
X111997500Y-116830000D01*
X141800000Y-119400000D02*
X149800000Y-119400000D01*
X126400000Y-119300000D02*
X130297500Y-119300000D01*
X112700000Y-118200000D02*
X113500000Y-119000000D01*
X156200000Y-111400000D02*
X156200000Y-109900000D01*
X149800000Y-119400000D02*
X153500000Y-115700000D01*
X130297500Y-119300000D02*
X139000000Y-119300000D01*
X130297500Y-119300000D02*
X135327500Y-114270000D01*
X111997500Y-117497500D02*
X112700000Y-118200000D01*
X156200000Y-108900000D02*
X158500000Y-106600000D01*
X158500000Y-106600000D02*
X161800000Y-106600000D01*
X156200000Y-109900000D02*
X156200000Y-108900000D01*
X161800000Y-106600000D02*
X163500000Y-104900000D01*
D25*
%TO.N,VAC*%
X163500000Y-99500000D02*
X163500000Y-98900000D01*
X152500000Y-101200000D02*
X155000000Y-103700000D01*
X155000000Y-103700000D02*
X159300000Y-103700000D01*
X159300000Y-103700000D02*
X163500000Y-99500000D01*
D23*
%TO.N,MCU_L2*%
X118385000Y-115535000D02*
X117025000Y-115535000D01*
X121610000Y-118760000D02*
X118385000Y-115535000D01*
X124360000Y-118760000D02*
X121610000Y-118760000D01*
X127500000Y-121900000D02*
X124360000Y-118760000D01*
%TO.N,MCU_L3*%
X141295000Y-112995000D02*
X140025000Y-112995000D01*
X132500000Y-121900000D02*
X137700000Y-121900000D01*
X137700000Y-121900000D02*
X142200000Y-117400000D01*
X142200000Y-117400000D02*
X142200000Y-113900000D01*
X142200000Y-113900000D02*
X141295000Y-112995000D01*
%TO.N,MCU_Bike*%
X147780000Y-100780000D02*
X147780000Y-99700000D01*
X156000000Y-116900000D02*
X150800000Y-111700000D01*
X150700000Y-103700000D02*
X147780000Y-100780000D01*
X163500000Y-116900000D02*
X156000000Y-116900000D01*
X150700000Y-107600000D02*
X150700000Y-103700000D01*
%TO.N,Net-(Q5-Pad2)*%
X113712500Y-114240000D02*
X117000000Y-114240000D01*
X117000000Y-114240000D02*
X117025000Y-114265000D01*
%TO.N,Net-(Q5-Pad4)*%
X113822500Y-116830000D02*
X117000000Y-116830000D01*
X117000000Y-116830000D02*
X117025000Y-116805000D01*
%TO.N,12V*%
X143190000Y-111210000D02*
X144975000Y-112995000D01*
X143010000Y-114670000D02*
X143875000Y-115535000D01*
X121975000Y-112995000D02*
X123465000Y-112995000D01*
X102500000Y-115362500D02*
X106500000Y-115362500D01*
X120220000Y-113720000D02*
X120945000Y-112995000D01*
X120945000Y-112995000D02*
X121975000Y-112995000D01*
X143675000Y-112995000D02*
X143010000Y-113660000D01*
X106917500Y-115362500D02*
X110780000Y-111500000D01*
X110780000Y-111500000D02*
X120480000Y-111500000D01*
X106500000Y-115362500D02*
X106917500Y-115362500D01*
X144975000Y-112995000D02*
X143675000Y-112995000D01*
X121195000Y-115535000D02*
X120220000Y-114560000D01*
X143875000Y-115535000D02*
X144975000Y-115535000D01*
X120480000Y-111500000D02*
X121975000Y-112995000D01*
X125250000Y-111210000D02*
X143190000Y-111210000D01*
X120220000Y-114560000D02*
X120220000Y-113720000D01*
X123465000Y-112995000D02*
X125250000Y-111210000D01*
X121975000Y-115535000D02*
X121195000Y-115535000D01*
X143010000Y-113660000D02*
X143010000Y-114670000D01*
%TO.N,Net-(Q6-Pad2)*%
X137152500Y-114270000D02*
X140020000Y-114270000D01*
X140020000Y-114270000D02*
X140025000Y-114265000D01*
%TD*%
%TA.AperFunction,Conductor*%
%TO.N,Earth*%
G36*
X168842121Y-85920002D02*
G01*
X168888614Y-85973658D01*
X168900000Y-86026000D01*
X168900000Y-95474000D01*
X168879998Y-95542121D01*
X168826342Y-95588614D01*
X168774000Y-95600000D01*
X157926000Y-95600000D01*
X157857879Y-95579998D01*
X157811386Y-95526342D01*
X157800000Y-95474000D01*
X157800000Y-92800000D01*
X151626000Y-92800000D01*
X151557879Y-92779998D01*
X151511386Y-92726342D01*
X151500000Y-92674000D01*
X151500000Y-86026000D01*
X151520002Y-85957879D01*
X151573658Y-85911386D01*
X151626000Y-85900000D01*
X168774000Y-85900000D01*
X168842121Y-85920002D01*
G37*
%TD.AperFunction*%
%TD*%
%TA.AperFunction,Conductor*%
%TO.N,+24V*%
G36*
X106550956Y-101924064D02*
G01*
X106619216Y-101973658D01*
X106643248Y-101991118D01*
X106649276Y-101993802D01*
X106649278Y-101993803D01*
X106811681Y-102066109D01*
X106817712Y-102068794D01*
X106911113Y-102088647D01*
X106998056Y-102107128D01*
X106998061Y-102107128D01*
X107004513Y-102108500D01*
X107195487Y-102108500D01*
X107201939Y-102107128D01*
X107201944Y-102107128D01*
X107288888Y-102088647D01*
X107382288Y-102068794D01*
X107388319Y-102066109D01*
X107550722Y-101993803D01*
X107550724Y-101993802D01*
X107556752Y-101991118D01*
X107580784Y-101973658D01*
X107649044Y-101924064D01*
X107723105Y-101900000D01*
X127476895Y-101900000D01*
X127550956Y-101924064D01*
X127619216Y-101973658D01*
X127643248Y-101991118D01*
X127649276Y-101993802D01*
X127649278Y-101993803D01*
X127811681Y-102066109D01*
X127817712Y-102068794D01*
X127911113Y-102088647D01*
X127998056Y-102107128D01*
X127998061Y-102107128D01*
X128004513Y-102108500D01*
X128195487Y-102108500D01*
X128201939Y-102107128D01*
X128201944Y-102107128D01*
X128288888Y-102088647D01*
X128382288Y-102068794D01*
X128388319Y-102066109D01*
X128550722Y-101993803D01*
X128550724Y-101993802D01*
X128556752Y-101991118D01*
X128580784Y-101973658D01*
X128649044Y-101924064D01*
X128723105Y-101900000D01*
X137974000Y-101900000D01*
X138042121Y-101920002D01*
X138088614Y-101973658D01*
X138100000Y-102026000D01*
X138100000Y-109874000D01*
X138079998Y-109942121D01*
X138026342Y-109988614D01*
X137974000Y-110000000D01*
X123179391Y-110000000D01*
X123111270Y-109979998D01*
X123102371Y-109973054D01*
X123102326Y-109973115D01*
X123095914Y-109968456D01*
X123090133Y-109963028D01*
X123081551Y-109958310D01*
X123071342Y-109952697D01*
X123054818Y-109941843D01*
X123044132Y-109933555D01*
X123037868Y-109928696D01*
X123030596Y-109925549D01*
X123030594Y-109925548D01*
X122995465Y-109910346D01*
X122984805Y-109905124D01*
X122951284Y-109886695D01*
X122951282Y-109886694D01*
X122944337Y-109882876D01*
X122923559Y-109877541D01*
X122904869Y-109871142D01*
X122885176Y-109862620D01*
X122839552Y-109855394D01*
X122827929Y-109852987D01*
X122799928Y-109845798D01*
X122783188Y-109841500D01*
X122761741Y-109841500D01*
X122742031Y-109839949D01*
X122728677Y-109837834D01*
X122720848Y-109836594D01*
X122674859Y-109840941D01*
X122663004Y-109841500D01*
X110542587Y-109841500D01*
X110468528Y-109817437D01*
X110462098Y-109812765D01*
X110462091Y-109812761D01*
X110456752Y-109808882D01*
X110450724Y-109806198D01*
X110450722Y-109806197D01*
X110288319Y-109733891D01*
X110288318Y-109733891D01*
X110282288Y-109731206D01*
X110188887Y-109711353D01*
X110101944Y-109692872D01*
X110101939Y-109692872D01*
X110095487Y-109691500D01*
X109904513Y-109691500D01*
X109898061Y-109692872D01*
X109898056Y-109692872D01*
X109811113Y-109711353D01*
X109717712Y-109731206D01*
X109711682Y-109733891D01*
X109711681Y-109733891D01*
X109549278Y-109806197D01*
X109549276Y-109806198D01*
X109543248Y-109808882D01*
X109537907Y-109812762D01*
X109537906Y-109812763D01*
X109531473Y-109817437D01*
X109388747Y-109921134D01*
X109355272Y-109958312D01*
X109294829Y-109995550D01*
X109261638Y-110000000D01*
X90626000Y-110000000D01*
X90557879Y-109979998D01*
X90511386Y-109926342D01*
X90500000Y-109874000D01*
X90500000Y-104226000D01*
X90520002Y-104157879D01*
X90573658Y-104111386D01*
X90626000Y-104100000D01*
X95500000Y-104100000D01*
X95500000Y-102026000D01*
X95520002Y-101957879D01*
X95573658Y-101911386D01*
X95626000Y-101900000D01*
X106476895Y-101900000D01*
X106550956Y-101924064D01*
G37*
%TD.AperFunction*%
%TD*%
M02*
