%TF.GenerationSoftware,KiCad,Pcbnew,(6.0.1)*%
%TF.CreationDate,2022-03-29T14:07:41-05:00*%
%TF.ProjectId,light_board,6c696768-745f-4626-9f61-72642e6b6963,rev?*%
%TF.SameCoordinates,Original*%
%TF.FileFunction,Legend,Top*%
%TF.FilePolarity,Positive*%
%FSLAX46Y46*%
G04 Gerber Fmt 4.6, Leading zero omitted, Abs format (unit mm)*
G04 Created by KiCad (PCBNEW (6.0.1)) date 2022-03-29 14:07:41*
%MOMM*%
%LPD*%
G01*
G04 APERTURE LIST*
%ADD10C,0.150000*%
%ADD11C,0.200000*%
%ADD12C,0.120000*%
G04 APERTURE END LIST*
D10*
X123833333Y-122652380D02*
X123357142Y-122652380D01*
X123357142Y-121652380D01*
X124690476Y-122652380D02*
X124119047Y-122652380D01*
X124404761Y-122652380D02*
X124404761Y-121652380D01*
X124309523Y-121795238D01*
X124214285Y-121890476D01*
X124119047Y-121938095D01*
X109433333Y-95452380D02*
X108957142Y-95452380D01*
X108957142Y-94452380D01*
X110290476Y-95452380D02*
X109719047Y-95452380D01*
X110004761Y-95452380D02*
X110004761Y-94452380D01*
X109909523Y-94595238D01*
X109814285Y-94690476D01*
X109719047Y-94738095D01*
X142133333Y-95352380D02*
X141657142Y-95352380D01*
X141657142Y-94352380D01*
X142371428Y-94352380D02*
X142990476Y-94352380D01*
X142657142Y-94733333D01*
X142800000Y-94733333D01*
X142895238Y-94780952D01*
X142942857Y-94828571D01*
X142990476Y-94923809D01*
X142990476Y-95161904D01*
X142942857Y-95257142D01*
X142895238Y-95304761D01*
X142800000Y-95352380D01*
X142514285Y-95352380D01*
X142419047Y-95304761D01*
X142371428Y-95257142D01*
X165838095Y-88052380D02*
X166171428Y-89052380D01*
X166504761Y-88052380D01*
X166790476Y-88766666D02*
X167266666Y-88766666D01*
X166695238Y-89052380D02*
X167028571Y-88052380D01*
X167361904Y-89052380D01*
X168266666Y-88957142D02*
X168219047Y-89004761D01*
X168076190Y-89052380D01*
X167980952Y-89052380D01*
X167838095Y-89004761D01*
X167742857Y-88909523D01*
X167695238Y-88814285D01*
X167647619Y-88623809D01*
X167647619Y-88480952D01*
X167695238Y-88290476D01*
X167742857Y-88195238D01*
X167838095Y-88100000D01*
X167980952Y-88052380D01*
X168076190Y-88052380D01*
X168219047Y-88100000D01*
X168266666Y-88147619D01*
X92438095Y-100900000D02*
X92342857Y-100852380D01*
X92200000Y-100852380D01*
X92057142Y-100900000D01*
X91961904Y-100995238D01*
X91914285Y-101090476D01*
X91866666Y-101280952D01*
X91866666Y-101423809D01*
X91914285Y-101614285D01*
X91961904Y-101709523D01*
X92057142Y-101804761D01*
X92200000Y-101852380D01*
X92295238Y-101852380D01*
X92438095Y-101804761D01*
X92485714Y-101757142D01*
X92485714Y-101423809D01*
X92295238Y-101423809D01*
X92914285Y-101852380D02*
X92914285Y-100852380D01*
X93485714Y-101852380D01*
X93485714Y-100852380D01*
X93961904Y-101852380D02*
X93961904Y-100852380D01*
X94200000Y-100852380D01*
X94342857Y-100900000D01*
X94438095Y-100995238D01*
X94485714Y-101090476D01*
X94533333Y-101280952D01*
X94533333Y-101423809D01*
X94485714Y-101614285D01*
X94438095Y-101709523D01*
X94342857Y-101804761D01*
X94200000Y-101852380D01*
X93961904Y-101852380D01*
X133733333Y-122652380D02*
X133257142Y-122652380D01*
X133257142Y-121652380D01*
X133971428Y-121652380D02*
X134590476Y-121652380D01*
X134257142Y-122033333D01*
X134400000Y-122033333D01*
X134495238Y-122080952D01*
X134542857Y-122128571D01*
X134590476Y-122223809D01*
X134590476Y-122461904D01*
X134542857Y-122557142D01*
X134495238Y-122604761D01*
X134400000Y-122652380D01*
X134114285Y-122652380D01*
X134019047Y-122604761D01*
X133971428Y-122557142D01*
X151138095Y-121600000D02*
X151042857Y-121552380D01*
X150900000Y-121552380D01*
X150757142Y-121600000D01*
X150661904Y-121695238D01*
X150614285Y-121790476D01*
X150566666Y-121980952D01*
X150566666Y-122123809D01*
X150614285Y-122314285D01*
X150661904Y-122409523D01*
X150757142Y-122504761D01*
X150900000Y-122552380D01*
X150995238Y-122552380D01*
X151138095Y-122504761D01*
X151185714Y-122457142D01*
X151185714Y-122123809D01*
X150995238Y-122123809D01*
X151614285Y-122552380D02*
X151614285Y-121552380D01*
X152185714Y-122552380D01*
X152185714Y-121552380D01*
X152661904Y-122552380D02*
X152661904Y-121552380D01*
X152900000Y-121552380D01*
X153042857Y-121600000D01*
X153138095Y-121695238D01*
X153185714Y-121790476D01*
X153233333Y-121980952D01*
X153233333Y-122123809D01*
X153185714Y-122314285D01*
X153138095Y-122409523D01*
X153042857Y-122504761D01*
X152900000Y-122552380D01*
X152661904Y-122552380D01*
D11*
X99450000Y-118263571D02*
X100307142Y-118263571D01*
X99878571Y-119763571D02*
X99878571Y-118263571D01*
X101378571Y-119692142D02*
X101235714Y-119763571D01*
X100950000Y-119763571D01*
X100807142Y-119692142D01*
X100735714Y-119549285D01*
X100735714Y-118977857D01*
X100807142Y-118835000D01*
X100950000Y-118763571D01*
X101235714Y-118763571D01*
X101378571Y-118835000D01*
X101450000Y-118977857D01*
X101450000Y-119120714D01*
X100735714Y-119263571D01*
X102735714Y-119763571D02*
X102735714Y-118977857D01*
X102664285Y-118835000D01*
X102521428Y-118763571D01*
X102235714Y-118763571D01*
X102092857Y-118835000D01*
X102735714Y-119692142D02*
X102592857Y-119763571D01*
X102235714Y-119763571D01*
X102092857Y-119692142D01*
X102021428Y-119549285D01*
X102021428Y-119406428D01*
X102092857Y-119263571D01*
X102235714Y-119192142D01*
X102592857Y-119192142D01*
X102735714Y-119120714D01*
X103450000Y-119763571D02*
X103450000Y-118763571D01*
X103450000Y-118906428D02*
X103521428Y-118835000D01*
X103664285Y-118763571D01*
X103878571Y-118763571D01*
X104021428Y-118835000D01*
X104092857Y-118977857D01*
X104092857Y-119763571D01*
X104092857Y-118977857D02*
X104164285Y-118835000D01*
X104307142Y-118763571D01*
X104521428Y-118763571D01*
X104664285Y-118835000D01*
X104735714Y-118977857D01*
X104735714Y-119763571D01*
X106521428Y-118406428D02*
X106592857Y-118335000D01*
X106735714Y-118263571D01*
X107092857Y-118263571D01*
X107235714Y-118335000D01*
X107307142Y-118406428D01*
X107378571Y-118549285D01*
X107378571Y-118692142D01*
X107307142Y-118906428D01*
X106450000Y-119763571D01*
X107378571Y-119763571D01*
X108307142Y-118263571D02*
X108450000Y-118263571D01*
X108592857Y-118335000D01*
X108664285Y-118406428D01*
X108735714Y-118549285D01*
X108807142Y-118835000D01*
X108807142Y-119192142D01*
X108735714Y-119477857D01*
X108664285Y-119620714D01*
X108592857Y-119692142D01*
X108450000Y-119763571D01*
X108307142Y-119763571D01*
X108164285Y-119692142D01*
X108092857Y-119620714D01*
X108021428Y-119477857D01*
X107950000Y-119192142D01*
X107950000Y-118835000D01*
X108021428Y-118549285D01*
X108092857Y-118406428D01*
X108164285Y-118335000D01*
X108307142Y-118263571D01*
X96842857Y-122178571D02*
X96128571Y-122178571D01*
X96128571Y-120678571D01*
X97342857Y-122178571D02*
X97342857Y-121178571D01*
X97342857Y-120678571D02*
X97271428Y-120750000D01*
X97342857Y-120821428D01*
X97414285Y-120750000D01*
X97342857Y-120678571D01*
X97342857Y-120821428D01*
X98700000Y-121178571D02*
X98700000Y-122392857D01*
X98628571Y-122535714D01*
X98557142Y-122607142D01*
X98414285Y-122678571D01*
X98200000Y-122678571D01*
X98057142Y-122607142D01*
X98700000Y-122107142D02*
X98557142Y-122178571D01*
X98271428Y-122178571D01*
X98128571Y-122107142D01*
X98057142Y-122035714D01*
X97985714Y-121892857D01*
X97985714Y-121464285D01*
X98057142Y-121321428D01*
X98128571Y-121250000D01*
X98271428Y-121178571D01*
X98557142Y-121178571D01*
X98700000Y-121250000D01*
X99414285Y-122178571D02*
X99414285Y-120678571D01*
X100057142Y-122178571D02*
X100057142Y-121392857D01*
X99985714Y-121250000D01*
X99842857Y-121178571D01*
X99628571Y-121178571D01*
X99485714Y-121250000D01*
X99414285Y-121321428D01*
X100557142Y-121178571D02*
X101128571Y-121178571D01*
X100771428Y-120678571D02*
X100771428Y-121964285D01*
X100842857Y-122107142D01*
X100985714Y-122178571D01*
X101128571Y-122178571D01*
X103271428Y-121392857D02*
X103485714Y-121464285D01*
X103557142Y-121535714D01*
X103628571Y-121678571D01*
X103628571Y-121892857D01*
X103557142Y-122035714D01*
X103485714Y-122107142D01*
X103342857Y-122178571D01*
X102771428Y-122178571D01*
X102771428Y-120678571D01*
X103271428Y-120678571D01*
X103414285Y-120750000D01*
X103485714Y-120821428D01*
X103557142Y-120964285D01*
X103557142Y-121107142D01*
X103485714Y-121250000D01*
X103414285Y-121321428D01*
X103271428Y-121392857D01*
X102771428Y-121392857D01*
X104485714Y-122178571D02*
X104342857Y-122107142D01*
X104271428Y-122035714D01*
X104200000Y-121892857D01*
X104200000Y-121464285D01*
X104271428Y-121321428D01*
X104342857Y-121250000D01*
X104485714Y-121178571D01*
X104700000Y-121178571D01*
X104842857Y-121250000D01*
X104914285Y-121321428D01*
X104985714Y-121464285D01*
X104985714Y-121892857D01*
X104914285Y-122035714D01*
X104842857Y-122107142D01*
X104700000Y-122178571D01*
X104485714Y-122178571D01*
X106271428Y-122178571D02*
X106271428Y-121392857D01*
X106200000Y-121250000D01*
X106057142Y-121178571D01*
X105771428Y-121178571D01*
X105628571Y-121250000D01*
X106271428Y-122107142D02*
X106128571Y-122178571D01*
X105771428Y-122178571D01*
X105628571Y-122107142D01*
X105557142Y-121964285D01*
X105557142Y-121821428D01*
X105628571Y-121678571D01*
X105771428Y-121607142D01*
X106128571Y-121607142D01*
X106271428Y-121535714D01*
X106985714Y-122178571D02*
X106985714Y-121178571D01*
X106985714Y-121464285D02*
X107057142Y-121321428D01*
X107128571Y-121250000D01*
X107271428Y-121178571D01*
X107414285Y-121178571D01*
X108557142Y-122178571D02*
X108557142Y-120678571D01*
X108557142Y-122107142D02*
X108414285Y-122178571D01*
X108128571Y-122178571D01*
X107985714Y-122107142D01*
X107914285Y-122035714D01*
X107842857Y-121892857D01*
X107842857Y-121464285D01*
X107914285Y-121321428D01*
X107985714Y-121250000D01*
X108128571Y-121178571D01*
X108414285Y-121178571D01*
X108557142Y-121250000D01*
X110271428Y-121178571D02*
X110628571Y-122178571D01*
X110985714Y-121178571D01*
X111485714Y-120821428D02*
X111557142Y-120750000D01*
X111700000Y-120678571D01*
X112057142Y-120678571D01*
X112200000Y-120750000D01*
X112271428Y-120821428D01*
X112342857Y-120964285D01*
X112342857Y-121107142D01*
X112271428Y-121321428D01*
X111414285Y-122178571D01*
X112342857Y-122178571D01*
X99271428Y-123093571D02*
X100200000Y-123093571D01*
X99700000Y-123665000D01*
X99914285Y-123665000D01*
X100057142Y-123736428D01*
X100128571Y-123807857D01*
X100200000Y-123950714D01*
X100200000Y-124307857D01*
X100128571Y-124450714D01*
X100057142Y-124522142D01*
X99914285Y-124593571D01*
X99485714Y-124593571D01*
X99342857Y-124522142D01*
X99271428Y-124450714D01*
X101914285Y-123022142D02*
X100628571Y-124950714D01*
X102342857Y-123236428D02*
X102414285Y-123165000D01*
X102557142Y-123093571D01*
X102914285Y-123093571D01*
X103057142Y-123165000D01*
X103128571Y-123236428D01*
X103200000Y-123379285D01*
X103200000Y-123522142D01*
X103128571Y-123736428D01*
X102271428Y-124593571D01*
X103200000Y-124593571D01*
X104057142Y-123736428D02*
X103914285Y-123665000D01*
X103842857Y-123593571D01*
X103771428Y-123450714D01*
X103771428Y-123379285D01*
X103842857Y-123236428D01*
X103914285Y-123165000D01*
X104057142Y-123093571D01*
X104342857Y-123093571D01*
X104485714Y-123165000D01*
X104557142Y-123236428D01*
X104628571Y-123379285D01*
X104628571Y-123450714D01*
X104557142Y-123593571D01*
X104485714Y-123665000D01*
X104342857Y-123736428D01*
X104057142Y-123736428D01*
X103914285Y-123807857D01*
X103842857Y-123879285D01*
X103771428Y-124022142D01*
X103771428Y-124307857D01*
X103842857Y-124450714D01*
X103914285Y-124522142D01*
X104057142Y-124593571D01*
X104342857Y-124593571D01*
X104485714Y-124522142D01*
X104557142Y-124450714D01*
X104628571Y-124307857D01*
X104628571Y-124022142D01*
X104557142Y-123879285D01*
X104485714Y-123807857D01*
X104342857Y-123736428D01*
X106342857Y-123022142D02*
X105057142Y-124950714D01*
X106771428Y-123236428D02*
X106842857Y-123165000D01*
X106985714Y-123093571D01*
X107342857Y-123093571D01*
X107485714Y-123165000D01*
X107557142Y-123236428D01*
X107628571Y-123379285D01*
X107628571Y-123522142D01*
X107557142Y-123736428D01*
X106700000Y-124593571D01*
X107628571Y-124593571D01*
X108200000Y-123236428D02*
X108271428Y-123165000D01*
X108414285Y-123093571D01*
X108771428Y-123093571D01*
X108914285Y-123165000D01*
X108985714Y-123236428D01*
X109057142Y-123379285D01*
X109057142Y-123522142D01*
X108985714Y-123736428D01*
X108128571Y-124593571D01*
X109057142Y-124593571D01*
D10*
X128833333Y-122652380D02*
X128357142Y-122652380D01*
X128357142Y-121652380D01*
X129119047Y-121747619D02*
X129166666Y-121700000D01*
X129261904Y-121652380D01*
X129500000Y-121652380D01*
X129595238Y-121700000D01*
X129642857Y-121747619D01*
X129690476Y-121842857D01*
X129690476Y-121938095D01*
X129642857Y-122080952D01*
X129071428Y-122652380D01*
X129690476Y-122652380D01*
X156438095Y-118200000D02*
X156342857Y-118152380D01*
X156200000Y-118152380D01*
X156057142Y-118200000D01*
X155961904Y-118295238D01*
X155914285Y-118390476D01*
X155866666Y-118580952D01*
X155866666Y-118723809D01*
X155914285Y-118914285D01*
X155961904Y-119009523D01*
X156057142Y-119104761D01*
X156200000Y-119152380D01*
X156295238Y-119152380D01*
X156438095Y-119104761D01*
X156485714Y-119057142D01*
X156485714Y-118723809D01*
X156295238Y-118723809D01*
X156914285Y-119152380D02*
X156914285Y-118152380D01*
X157485714Y-119152380D01*
X157485714Y-118152380D01*
X157961904Y-119152380D02*
X157961904Y-118152380D01*
X158200000Y-118152380D01*
X158342857Y-118200000D01*
X158438095Y-118295238D01*
X158485714Y-118390476D01*
X158533333Y-118580952D01*
X158533333Y-118723809D01*
X158485714Y-118914285D01*
X158438095Y-119009523D01*
X158342857Y-119104761D01*
X158200000Y-119152380D01*
X157961904Y-119152380D01*
X91914286Y-95071428D02*
X92676191Y-95071428D01*
X92295238Y-95452380D02*
X92295238Y-94690476D01*
X93104762Y-94547619D02*
X93152381Y-94500000D01*
X93247619Y-94452380D01*
X93485714Y-94452380D01*
X93580952Y-94500000D01*
X93628571Y-94547619D01*
X93676191Y-94642857D01*
X93676191Y-94738095D01*
X93628571Y-94880952D01*
X93057143Y-95452380D01*
X93676191Y-95452380D01*
X94533333Y-94785714D02*
X94533333Y-95452380D01*
X94295238Y-94404761D02*
X94057143Y-95119047D01*
X94676191Y-95119047D01*
X94914286Y-94452380D02*
X95247619Y-95452380D01*
X95580952Y-94452380D01*
X145314285Y-122271428D02*
X146076190Y-122271428D01*
X145695238Y-122652380D02*
X145695238Y-121890476D01*
X147028571Y-121652380D02*
X146552380Y-121652380D01*
X146504761Y-122128571D01*
X146552380Y-122080952D01*
X146647619Y-122033333D01*
X146885714Y-122033333D01*
X146980952Y-122080952D01*
X147028571Y-122128571D01*
X147076190Y-122223809D01*
X147076190Y-122461904D01*
X147028571Y-122557142D01*
X146980952Y-122604761D01*
X146885714Y-122652380D01*
X146647619Y-122652380D01*
X146552380Y-122604761D01*
X146504761Y-122557142D01*
X147361904Y-121652380D02*
X147695238Y-122652380D01*
X148028571Y-121652380D01*
X126333333Y-95452380D02*
X125857142Y-95452380D01*
X125857142Y-94452380D01*
X126619047Y-94547619D02*
X126666666Y-94500000D01*
X126761904Y-94452380D01*
X127000000Y-94452380D01*
X127095238Y-94500000D01*
X127142857Y-94547619D01*
X127190476Y-94642857D01*
X127190476Y-94738095D01*
X127142857Y-94880952D01*
X126571428Y-95452380D01*
X127190476Y-95452380D01*
X162938095Y-107752380D02*
X162938095Y-106752380D01*
X163271428Y-107466666D01*
X163604761Y-106752380D01*
X163604761Y-107752380D01*
X164652380Y-107657142D02*
X164604761Y-107704761D01*
X164461904Y-107752380D01*
X164366666Y-107752380D01*
X164223809Y-107704761D01*
X164128571Y-107609523D01*
X164080952Y-107514285D01*
X164033333Y-107323809D01*
X164033333Y-107180952D01*
X164080952Y-106990476D01*
X164128571Y-106895238D01*
X164223809Y-106800000D01*
X164366666Y-106752380D01*
X164461904Y-106752380D01*
X164604761Y-106800000D01*
X164652380Y-106847619D01*
X165080952Y-106752380D02*
X165080952Y-107561904D01*
X165128571Y-107657142D01*
X165176190Y-107704761D01*
X165271428Y-107752380D01*
X165461904Y-107752380D01*
X165557142Y-107704761D01*
X165604761Y-107657142D01*
X165652380Y-107561904D01*
X165652380Y-106752380D01*
X165890476Y-107847619D02*
X166652380Y-107847619D01*
X167414285Y-106800000D02*
X167319047Y-106752380D01*
X167176190Y-106752380D01*
X167033333Y-106800000D01*
X166938095Y-106895238D01*
X166890476Y-106990476D01*
X166842857Y-107180952D01*
X166842857Y-107323809D01*
X166890476Y-107514285D01*
X166938095Y-107609523D01*
X167033333Y-107704761D01*
X167176190Y-107752380D01*
X167271428Y-107752380D01*
X167414285Y-107704761D01*
X167461904Y-107657142D01*
X167461904Y-107323809D01*
X167271428Y-107323809D01*
X167890476Y-107752380D02*
X167890476Y-106752380D01*
X168461904Y-107752380D01*
X168461904Y-106752380D01*
X168938095Y-107752380D02*
X168938095Y-106752380D01*
X169176190Y-106752380D01*
X169319047Y-106800000D01*
X169414285Y-106895238D01*
X169461904Y-106990476D01*
X169509523Y-107180952D01*
X169509523Y-107323809D01*
X169461904Y-107514285D01*
X169414285Y-107609523D01*
X169319047Y-107704761D01*
X169176190Y-107752380D01*
X168938095Y-107752380D01*
X165880952Y-113428571D02*
X166023809Y-113476190D01*
X166071428Y-113523809D01*
X166119047Y-113619047D01*
X166119047Y-113761904D01*
X166071428Y-113857142D01*
X166023809Y-113904761D01*
X165928571Y-113952380D01*
X165547619Y-113952380D01*
X165547619Y-112952380D01*
X165880952Y-112952380D01*
X165976190Y-113000000D01*
X166023809Y-113047619D01*
X166071428Y-113142857D01*
X166071428Y-113238095D01*
X166023809Y-113333333D01*
X165976190Y-113380952D01*
X165880952Y-113428571D01*
X165547619Y-113428571D01*
X166547619Y-113952380D02*
X166547619Y-112952380D01*
X167023809Y-113952380D02*
X167023809Y-112952380D01*
X167595238Y-113952380D02*
X167166666Y-113380952D01*
X167595238Y-112952380D02*
X167023809Y-113523809D01*
X168023809Y-113428571D02*
X168357142Y-113428571D01*
X168500000Y-113952380D02*
X168023809Y-113952380D01*
X168023809Y-112952380D01*
X168500000Y-112952380D01*
X164123809Y-96652380D02*
X164123809Y-95652380D01*
X164695238Y-96652380D01*
X164695238Y-95652380D01*
X165171428Y-96128571D02*
X165504761Y-96128571D01*
X165647619Y-96652380D02*
X165171428Y-96652380D01*
X165171428Y-95652380D01*
X165647619Y-95652380D01*
X166076190Y-95652380D02*
X166076190Y-96461904D01*
X166123809Y-96557142D01*
X166171428Y-96604761D01*
X166266666Y-96652380D01*
X166457142Y-96652380D01*
X166552380Y-96604761D01*
X166600000Y-96557142D01*
X166647619Y-96461904D01*
X166647619Y-95652380D01*
X166980952Y-95652380D02*
X167552380Y-95652380D01*
X167266666Y-96652380D02*
X167266666Y-95652380D01*
X168457142Y-96652380D02*
X168123809Y-96176190D01*
X167885714Y-96652380D02*
X167885714Y-95652380D01*
X168266666Y-95652380D01*
X168361904Y-95700000D01*
X168409523Y-95747619D01*
X168457142Y-95842857D01*
X168457142Y-95985714D01*
X168409523Y-96080952D01*
X168361904Y-96128571D01*
X168266666Y-96176190D01*
X167885714Y-96176190D01*
X168838095Y-96366666D02*
X169314285Y-96366666D01*
X168742857Y-96652380D02*
X169076190Y-95652380D01*
X169409523Y-96652380D01*
X170219047Y-96652380D02*
X169742857Y-96652380D01*
X169742857Y-95652380D01*
%TO.C,D3*%
X154761904Y-113452380D02*
X154761904Y-112452380D01*
X155000000Y-112452380D01*
X155142857Y-112500000D01*
X155238095Y-112595238D01*
X155285714Y-112690476D01*
X155333333Y-112880952D01*
X155333333Y-113023809D01*
X155285714Y-113214285D01*
X155238095Y-113309523D01*
X155142857Y-113404761D01*
X155000000Y-113452380D01*
X154761904Y-113452380D01*
X155666666Y-112452380D02*
X156285714Y-112452380D01*
X155952380Y-112833333D01*
X156095238Y-112833333D01*
X156190476Y-112880952D01*
X156238095Y-112928571D01*
X156285714Y-113023809D01*
X156285714Y-113261904D01*
X156238095Y-113357142D01*
X156190476Y-113404761D01*
X156095238Y-113452380D01*
X155809523Y-113452380D01*
X155714285Y-113404761D01*
X155666666Y-113357142D01*
%TO.C,R2*%
X126833333Y-112282380D02*
X126500000Y-111806190D01*
X126261904Y-112282380D02*
X126261904Y-111282380D01*
X126642857Y-111282380D01*
X126738095Y-111330000D01*
X126785714Y-111377619D01*
X126833333Y-111472857D01*
X126833333Y-111615714D01*
X126785714Y-111710952D01*
X126738095Y-111758571D01*
X126642857Y-111806190D01*
X126261904Y-111806190D01*
X127214285Y-111377619D02*
X127261904Y-111330000D01*
X127357142Y-111282380D01*
X127595238Y-111282380D01*
X127690476Y-111330000D01*
X127738095Y-111377619D01*
X127785714Y-111472857D01*
X127785714Y-111568095D01*
X127738095Y-111710952D01*
X127166666Y-112282380D01*
X127785714Y-112282380D01*
%TO.C,R8*%
X140033333Y-112552380D02*
X139700000Y-112076190D01*
X139461904Y-112552380D02*
X139461904Y-111552380D01*
X139842857Y-111552380D01*
X139938095Y-111600000D01*
X139985714Y-111647619D01*
X140033333Y-111742857D01*
X140033333Y-111885714D01*
X139985714Y-111980952D01*
X139938095Y-112028571D01*
X139842857Y-112076190D01*
X139461904Y-112076190D01*
X140604761Y-111980952D02*
X140509523Y-111933333D01*
X140461904Y-111885714D01*
X140414285Y-111790476D01*
X140414285Y-111742857D01*
X140461904Y-111647619D01*
X140509523Y-111600000D01*
X140604761Y-111552380D01*
X140795238Y-111552380D01*
X140890476Y-111600000D01*
X140938095Y-111647619D01*
X140985714Y-111742857D01*
X140985714Y-111790476D01*
X140938095Y-111885714D01*
X140890476Y-111933333D01*
X140795238Y-111980952D01*
X140604761Y-111980952D01*
X140509523Y-112028571D01*
X140461904Y-112076190D01*
X140414285Y-112171428D01*
X140414285Y-112361904D01*
X140461904Y-112457142D01*
X140509523Y-112504761D01*
X140604761Y-112552380D01*
X140795238Y-112552380D01*
X140890476Y-112504761D01*
X140938095Y-112457142D01*
X140985714Y-112361904D01*
X140985714Y-112171428D01*
X140938095Y-112076190D01*
X140890476Y-112028571D01*
X140795238Y-111980952D01*
%TO.C,R3*%
X101733333Y-113552380D02*
X101400000Y-113076190D01*
X101161904Y-113552380D02*
X101161904Y-112552380D01*
X101542857Y-112552380D01*
X101638095Y-112600000D01*
X101685714Y-112647619D01*
X101733333Y-112742857D01*
X101733333Y-112885714D01*
X101685714Y-112980952D01*
X101638095Y-113028571D01*
X101542857Y-113076190D01*
X101161904Y-113076190D01*
X102066666Y-112552380D02*
X102685714Y-112552380D01*
X102352380Y-112933333D01*
X102495238Y-112933333D01*
X102590476Y-112980952D01*
X102638095Y-113028571D01*
X102685714Y-113123809D01*
X102685714Y-113361904D01*
X102638095Y-113457142D01*
X102590476Y-113504761D01*
X102495238Y-113552380D01*
X102209523Y-113552380D01*
X102114285Y-113504761D01*
X102066666Y-113457142D01*
%TO.C,R7*%
X120333333Y-110952380D02*
X120000000Y-110476190D01*
X119761904Y-110952380D02*
X119761904Y-109952380D01*
X120142857Y-109952380D01*
X120238095Y-110000000D01*
X120285714Y-110047619D01*
X120333333Y-110142857D01*
X120333333Y-110285714D01*
X120285714Y-110380952D01*
X120238095Y-110428571D01*
X120142857Y-110476190D01*
X119761904Y-110476190D01*
X120666666Y-109952380D02*
X121333333Y-109952380D01*
X120904761Y-110952380D01*
%TO.C,R1*%
X101833333Y-110952380D02*
X101500000Y-110476190D01*
X101261904Y-110952380D02*
X101261904Y-109952380D01*
X101642857Y-109952380D01*
X101738095Y-110000000D01*
X101785714Y-110047619D01*
X101833333Y-110142857D01*
X101833333Y-110285714D01*
X101785714Y-110380952D01*
X101738095Y-110428571D01*
X101642857Y-110476190D01*
X101261904Y-110476190D01*
X102785714Y-110952380D02*
X102214285Y-110952380D01*
X102500000Y-110952380D02*
X102500000Y-109952380D01*
X102404761Y-110095238D01*
X102309523Y-110190476D01*
X102214285Y-110238095D01*
%TO.C,R5*%
X120333333Y-114652380D02*
X120000000Y-114176190D01*
X119761904Y-114652380D02*
X119761904Y-113652380D01*
X120142857Y-113652380D01*
X120238095Y-113700000D01*
X120285714Y-113747619D01*
X120333333Y-113842857D01*
X120333333Y-113985714D01*
X120285714Y-114080952D01*
X120238095Y-114128571D01*
X120142857Y-114176190D01*
X119761904Y-114176190D01*
X121238095Y-113652380D02*
X120761904Y-113652380D01*
X120714285Y-114128571D01*
X120761904Y-114080952D01*
X120857142Y-114033333D01*
X121095238Y-114033333D01*
X121190476Y-114080952D01*
X121238095Y-114128571D01*
X121285714Y-114223809D01*
X121285714Y-114461904D01*
X121238095Y-114557142D01*
X121190476Y-114604761D01*
X121095238Y-114652380D01*
X120857142Y-114652380D01*
X120761904Y-114604761D01*
X120714285Y-114557142D01*
D12*
%TO.C,D3*%
X157750000Y-112000000D02*
X153850000Y-112000000D01*
X157750000Y-112000000D02*
X157750000Y-110000000D01*
X157750000Y-110000000D02*
X153850000Y-110000000D01*
%TO.C,Q6*%
X133470000Y-108550000D02*
X130020000Y-108550000D01*
X133470000Y-113670000D02*
X135420000Y-113670000D01*
X133470000Y-108550000D02*
X135420000Y-108550000D01*
X133470000Y-113670000D02*
X131520000Y-113670000D01*
%TO.C,JP1*%
X106000000Y-93600000D02*
X108000000Y-93600000D01*
X108000000Y-93600000D02*
X108000000Y-96400000D01*
X106000000Y-96400000D02*
X106000000Y-93600000D01*
X108000000Y-96400000D02*
X106000000Y-96400000D01*
%TO.C,J16*%
X150670000Y-126330000D02*
X153330000Y-126330000D01*
X150670000Y-126270000D02*
X153330000Y-126270000D01*
X150670000Y-125000000D02*
X150670000Y-123670000D01*
X150670000Y-126270000D02*
X150670000Y-126330000D01*
X153330000Y-126270000D02*
X153330000Y-126330000D01*
X150670000Y-123670000D02*
X152000000Y-123670000D01*
%TO.C,J6*%
X165670000Y-117330000D02*
X168330000Y-117330000D01*
X165670000Y-117270000D02*
X168330000Y-117270000D01*
X165670000Y-117270000D02*
X165670000Y-117330000D01*
X165670000Y-116000000D02*
X165670000Y-114670000D01*
X165670000Y-114670000D02*
X167000000Y-114670000D01*
X168330000Y-117270000D02*
X168330000Y-117330000D01*
%TO.C,J5*%
X135330000Y-126270000D02*
X135330000Y-126330000D01*
X132670000Y-126270000D02*
X135330000Y-126270000D01*
X132670000Y-125000000D02*
X132670000Y-123670000D01*
X132670000Y-123670000D02*
X134000000Y-123670000D01*
X132670000Y-126270000D02*
X132670000Y-126330000D01*
X132670000Y-126330000D02*
X135330000Y-126330000D01*
%TO.C,J9*%
X124435000Y-83500000D02*
X124935000Y-83800000D01*
X124935000Y-88650000D02*
X124435000Y-88900000D01*
X114085000Y-78700000D02*
X114085000Y-91300000D01*
X124935000Y-88700000D02*
X124935000Y-88650000D01*
X124435000Y-91300000D02*
X124435000Y-90350000D01*
X124935000Y-78700000D02*
X114085000Y-78700000D01*
X114085000Y-91300000D02*
X124435000Y-91300000D01*
X124435000Y-88900000D02*
X124435000Y-83500000D01*
X124935000Y-90600000D02*
X124935000Y-88700000D01*
X124435000Y-90350000D02*
X124935000Y-90600000D01*
X124935000Y-83800000D02*
X124935000Y-78700000D01*
%TO.C,Q4*%
X130025000Y-97255000D02*
X130025000Y-95755000D01*
X130295000Y-95755000D02*
X130295000Y-94655000D01*
X136925000Y-95755000D02*
X136655000Y-95755000D01*
X136925000Y-97255000D02*
X136925000Y-95755000D01*
X130025000Y-95755000D02*
X130295000Y-95755000D01*
X136655000Y-95755000D02*
X136655000Y-92925000D01*
%TO.C,Q1*%
X103925000Y-97255000D02*
X103925000Y-95755000D01*
X103655000Y-95755000D02*
X103655000Y-92925000D01*
X97295000Y-95755000D02*
X97295000Y-94655000D01*
X97025000Y-95755000D02*
X97295000Y-95755000D01*
X103925000Y-95755000D02*
X103655000Y-95755000D01*
X97025000Y-97255000D02*
X97025000Y-95755000D01*
%TO.C,J17*%
X165670000Y-109800000D02*
X165670000Y-108470000D01*
X165670000Y-111130000D02*
X168330000Y-111130000D01*
X165670000Y-108470000D02*
X167000000Y-108470000D01*
X165670000Y-111070000D02*
X168330000Y-111070000D01*
X165670000Y-111070000D02*
X165670000Y-111130000D01*
X168330000Y-111070000D02*
X168330000Y-111130000D01*
%TO.C,J8*%
X107935000Y-78700000D02*
X97085000Y-78700000D01*
X107935000Y-90600000D02*
X107935000Y-88700000D01*
X97085000Y-78700000D02*
X97085000Y-91300000D01*
X107435000Y-83500000D02*
X107935000Y-83800000D01*
X97085000Y-91300000D02*
X107435000Y-91300000D01*
X107435000Y-90350000D02*
X107935000Y-90600000D01*
X107435000Y-88900000D02*
X107435000Y-83500000D01*
X107935000Y-88700000D02*
X107935000Y-88650000D01*
X107935000Y-88650000D02*
X107435000Y-88900000D01*
X107435000Y-91300000D02*
X107435000Y-90350000D01*
X107935000Y-83800000D02*
X107935000Y-78700000D01*
%TO.C,J3*%
X122670000Y-126270000D02*
X125330000Y-126270000D01*
X122670000Y-123670000D02*
X124000000Y-123670000D01*
X122670000Y-126270000D02*
X122670000Y-126330000D01*
X125330000Y-126270000D02*
X125330000Y-126330000D01*
X122670000Y-126330000D02*
X125330000Y-126330000D01*
X122670000Y-125000000D02*
X122670000Y-123670000D01*
%TO.C,J11*%
X146085000Y-91300000D02*
X156435000Y-91300000D01*
X156935000Y-88650000D02*
X156435000Y-88900000D01*
X156435000Y-90350000D02*
X156935000Y-90600000D01*
X146085000Y-78700000D02*
X146085000Y-91300000D01*
X156435000Y-83500000D02*
X156935000Y-83800000D01*
X156935000Y-90600000D02*
X156935000Y-88700000D01*
X156435000Y-91300000D02*
X156435000Y-90350000D01*
X156435000Y-88900000D02*
X156435000Y-83500000D01*
X156935000Y-78700000D02*
X146085000Y-78700000D01*
X156935000Y-88700000D02*
X156935000Y-88650000D01*
X156935000Y-83800000D02*
X156935000Y-78700000D01*
%TO.C,JP2*%
X123000000Y-93600000D02*
X125000000Y-93600000D01*
X123000000Y-96400000D02*
X123000000Y-93600000D01*
X125000000Y-93600000D02*
X125000000Y-96400000D01*
X125000000Y-96400000D02*
X123000000Y-96400000D01*
%TO.C,K1*%
X152500000Y-107800000D02*
X158500000Y-107800000D01*
X158500000Y-107800000D02*
X158500000Y-97800000D01*
X158500000Y-97800000D02*
X152500000Y-97800000D01*
X152500000Y-97800000D02*
X152500000Y-107800000D01*
%TO.C,J15*%
X145670000Y-126330000D02*
X148330000Y-126330000D01*
X145670000Y-126270000D02*
X148330000Y-126270000D01*
X145670000Y-123670000D02*
X147000000Y-123670000D01*
X145670000Y-125000000D02*
X145670000Y-123670000D01*
X148330000Y-126270000D02*
X148330000Y-126330000D01*
X145670000Y-126270000D02*
X145670000Y-126330000D01*
%TO.C,R2*%
X127237258Y-109877500D02*
X126762742Y-109877500D01*
X127237258Y-110922500D02*
X126762742Y-110922500D01*
%TO.C,R8*%
X139862742Y-109977500D02*
X140337258Y-109977500D01*
X139862742Y-111022500D02*
X140337258Y-111022500D01*
%TO.C,JP4*%
X153000000Y-120400000D02*
X153000000Y-117600000D01*
X153000000Y-117600000D02*
X155000000Y-117600000D01*
X155000000Y-120400000D02*
X153000000Y-120400000D01*
X155000000Y-117600000D02*
X155000000Y-120400000D01*
%TO.C,J10*%
X140435000Y-83500000D02*
X140935000Y-83800000D01*
X140435000Y-91300000D02*
X140435000Y-90350000D01*
X130085000Y-91300000D02*
X140435000Y-91300000D01*
X130085000Y-78700000D02*
X130085000Y-91300000D01*
X140935000Y-88650000D02*
X140435000Y-88900000D01*
X140935000Y-90600000D02*
X140935000Y-88700000D01*
X140435000Y-88900000D02*
X140435000Y-83500000D01*
X140935000Y-88700000D02*
X140935000Y-88650000D01*
X140935000Y-78700000D02*
X130085000Y-78700000D01*
X140435000Y-90350000D02*
X140935000Y-90600000D01*
X140935000Y-83800000D02*
X140935000Y-78700000D01*
%TO.C,R3*%
X104737258Y-113622500D02*
X104262742Y-113622500D01*
X104737258Y-112577500D02*
X104262742Y-112577500D01*
%TO.C,Q5*%
X111130000Y-108550000D02*
X107680000Y-108550000D01*
X111130000Y-113670000D02*
X109180000Y-113670000D01*
X111130000Y-108550000D02*
X113080000Y-108550000D01*
X111130000Y-113670000D02*
X113080000Y-113670000D01*
%TO.C,R7*%
X117762742Y-109977500D02*
X118237258Y-109977500D01*
X117762742Y-111022500D02*
X118237258Y-111022500D01*
%TO.C,Q2*%
X120925000Y-97255000D02*
X120925000Y-95755000D01*
X120655000Y-95755000D02*
X120655000Y-92925000D01*
X114025000Y-95755000D02*
X114295000Y-95755000D01*
X120925000Y-95755000D02*
X120655000Y-95755000D01*
X114295000Y-95755000D02*
X114295000Y-94655000D01*
X114025000Y-97255000D02*
X114025000Y-95755000D01*
%TO.C,J4*%
X127670000Y-123670000D02*
X129000000Y-123670000D01*
X127670000Y-126270000D02*
X130330000Y-126270000D01*
X127670000Y-126330000D02*
X130330000Y-126330000D01*
X130330000Y-126270000D02*
X130330000Y-126330000D01*
X127670000Y-126270000D02*
X127670000Y-126330000D01*
X127670000Y-125000000D02*
X127670000Y-123670000D01*
%TO.C,JP3*%
X141000000Y-93600000D02*
X141000000Y-96400000D01*
X139000000Y-96400000D02*
X139000000Y-93600000D01*
X139000000Y-93600000D02*
X141000000Y-93600000D01*
X141000000Y-96400000D02*
X139000000Y-96400000D01*
%TO.C,R1*%
X104737258Y-109977500D02*
X104262742Y-109977500D01*
X104737258Y-111022500D02*
X104262742Y-111022500D01*
%TO.C,R5*%
X117662742Y-113677500D02*
X118137258Y-113677500D01*
X117662742Y-114722500D02*
X118137258Y-114722500D01*
%TD*%
M02*
