%TF.GenerationSoftware,KiCad,Pcbnew,(6.0.1)*%
%TF.CreationDate,2022-03-07T20:23:26-06:00*%
%TF.ProjectId,light_board,6c696768-745f-4626-9f61-72642e6b6963,rev?*%
%TF.SameCoordinates,Original*%
%TF.FileFunction,Legend,Top*%
%TF.FilePolarity,Positive*%
%FSLAX46Y46*%
G04 Gerber Fmt 4.6, Leading zero omitted, Abs format (unit mm)*
G04 Created by KiCad (PCBNEW (6.0.1)) date 2022-03-07 20:23:26*
%MOMM*%
%LPD*%
G01*
G04 APERTURE LIST*
%ADD10C,0.200000*%
%ADD11C,0.150000*%
%ADD12C,0.120000*%
G04 APERTURE END LIST*
D10*
X99450000Y-118263571D02*
X100307142Y-118263571D01*
X99878571Y-119763571D02*
X99878571Y-118263571D01*
X101378571Y-119692142D02*
X101235714Y-119763571D01*
X100950000Y-119763571D01*
X100807142Y-119692142D01*
X100735714Y-119549285D01*
X100735714Y-118977857D01*
X100807142Y-118835000D01*
X100950000Y-118763571D01*
X101235714Y-118763571D01*
X101378571Y-118835000D01*
X101450000Y-118977857D01*
X101450000Y-119120714D01*
X100735714Y-119263571D01*
X102735714Y-119763571D02*
X102735714Y-118977857D01*
X102664285Y-118835000D01*
X102521428Y-118763571D01*
X102235714Y-118763571D01*
X102092857Y-118835000D01*
X102735714Y-119692142D02*
X102592857Y-119763571D01*
X102235714Y-119763571D01*
X102092857Y-119692142D01*
X102021428Y-119549285D01*
X102021428Y-119406428D01*
X102092857Y-119263571D01*
X102235714Y-119192142D01*
X102592857Y-119192142D01*
X102735714Y-119120714D01*
X103450000Y-119763571D02*
X103450000Y-118763571D01*
X103450000Y-118906428D02*
X103521428Y-118835000D01*
X103664285Y-118763571D01*
X103878571Y-118763571D01*
X104021428Y-118835000D01*
X104092857Y-118977857D01*
X104092857Y-119763571D01*
X104092857Y-118977857D02*
X104164285Y-118835000D01*
X104307142Y-118763571D01*
X104521428Y-118763571D01*
X104664285Y-118835000D01*
X104735714Y-118977857D01*
X104735714Y-119763571D01*
X106521428Y-118406428D02*
X106592857Y-118335000D01*
X106735714Y-118263571D01*
X107092857Y-118263571D01*
X107235714Y-118335000D01*
X107307142Y-118406428D01*
X107378571Y-118549285D01*
X107378571Y-118692142D01*
X107307142Y-118906428D01*
X106450000Y-119763571D01*
X107378571Y-119763571D01*
X108307142Y-118263571D02*
X108450000Y-118263571D01*
X108592857Y-118335000D01*
X108664285Y-118406428D01*
X108735714Y-118549285D01*
X108807142Y-118835000D01*
X108807142Y-119192142D01*
X108735714Y-119477857D01*
X108664285Y-119620714D01*
X108592857Y-119692142D01*
X108450000Y-119763571D01*
X108307142Y-119763571D01*
X108164285Y-119692142D01*
X108092857Y-119620714D01*
X108021428Y-119477857D01*
X107950000Y-119192142D01*
X107950000Y-118835000D01*
X108021428Y-118549285D01*
X108092857Y-118406428D01*
X108164285Y-118335000D01*
X108307142Y-118263571D01*
X96842857Y-122178571D02*
X96128571Y-122178571D01*
X96128571Y-120678571D01*
X97342857Y-122178571D02*
X97342857Y-121178571D01*
X97342857Y-120678571D02*
X97271428Y-120750000D01*
X97342857Y-120821428D01*
X97414285Y-120750000D01*
X97342857Y-120678571D01*
X97342857Y-120821428D01*
X98700000Y-121178571D02*
X98700000Y-122392857D01*
X98628571Y-122535714D01*
X98557142Y-122607142D01*
X98414285Y-122678571D01*
X98200000Y-122678571D01*
X98057142Y-122607142D01*
X98700000Y-122107142D02*
X98557142Y-122178571D01*
X98271428Y-122178571D01*
X98128571Y-122107142D01*
X98057142Y-122035714D01*
X97985714Y-121892857D01*
X97985714Y-121464285D01*
X98057142Y-121321428D01*
X98128571Y-121250000D01*
X98271428Y-121178571D01*
X98557142Y-121178571D01*
X98700000Y-121250000D01*
X99414285Y-122178571D02*
X99414285Y-120678571D01*
X100057142Y-122178571D02*
X100057142Y-121392857D01*
X99985714Y-121250000D01*
X99842857Y-121178571D01*
X99628571Y-121178571D01*
X99485714Y-121250000D01*
X99414285Y-121321428D01*
X100557142Y-121178571D02*
X101128571Y-121178571D01*
X100771428Y-120678571D02*
X100771428Y-121964285D01*
X100842857Y-122107142D01*
X100985714Y-122178571D01*
X101128571Y-122178571D01*
X103271428Y-121392857D02*
X103485714Y-121464285D01*
X103557142Y-121535714D01*
X103628571Y-121678571D01*
X103628571Y-121892857D01*
X103557142Y-122035714D01*
X103485714Y-122107142D01*
X103342857Y-122178571D01*
X102771428Y-122178571D01*
X102771428Y-120678571D01*
X103271428Y-120678571D01*
X103414285Y-120750000D01*
X103485714Y-120821428D01*
X103557142Y-120964285D01*
X103557142Y-121107142D01*
X103485714Y-121250000D01*
X103414285Y-121321428D01*
X103271428Y-121392857D01*
X102771428Y-121392857D01*
X104485714Y-122178571D02*
X104342857Y-122107142D01*
X104271428Y-122035714D01*
X104200000Y-121892857D01*
X104200000Y-121464285D01*
X104271428Y-121321428D01*
X104342857Y-121250000D01*
X104485714Y-121178571D01*
X104700000Y-121178571D01*
X104842857Y-121250000D01*
X104914285Y-121321428D01*
X104985714Y-121464285D01*
X104985714Y-121892857D01*
X104914285Y-122035714D01*
X104842857Y-122107142D01*
X104700000Y-122178571D01*
X104485714Y-122178571D01*
X106271428Y-122178571D02*
X106271428Y-121392857D01*
X106200000Y-121250000D01*
X106057142Y-121178571D01*
X105771428Y-121178571D01*
X105628571Y-121250000D01*
X106271428Y-122107142D02*
X106128571Y-122178571D01*
X105771428Y-122178571D01*
X105628571Y-122107142D01*
X105557142Y-121964285D01*
X105557142Y-121821428D01*
X105628571Y-121678571D01*
X105771428Y-121607142D01*
X106128571Y-121607142D01*
X106271428Y-121535714D01*
X106985714Y-122178571D02*
X106985714Y-121178571D01*
X106985714Y-121464285D02*
X107057142Y-121321428D01*
X107128571Y-121250000D01*
X107271428Y-121178571D01*
X107414285Y-121178571D01*
X108557142Y-122178571D02*
X108557142Y-120678571D01*
X108557142Y-122107142D02*
X108414285Y-122178571D01*
X108128571Y-122178571D01*
X107985714Y-122107142D01*
X107914285Y-122035714D01*
X107842857Y-121892857D01*
X107842857Y-121464285D01*
X107914285Y-121321428D01*
X107985714Y-121250000D01*
X108128571Y-121178571D01*
X108414285Y-121178571D01*
X108557142Y-121250000D01*
X110271428Y-121178571D02*
X110628571Y-122178571D01*
X110985714Y-121178571D01*
X112342857Y-122178571D02*
X111485714Y-122178571D01*
X111914285Y-122178571D02*
X111914285Y-120678571D01*
X111771428Y-120892857D01*
X111628571Y-121035714D01*
X111485714Y-121107142D01*
X99985714Y-123093571D02*
X100914285Y-123093571D01*
X100414285Y-123665000D01*
X100628571Y-123665000D01*
X100771428Y-123736428D01*
X100842857Y-123807857D01*
X100914285Y-123950714D01*
X100914285Y-124307857D01*
X100842857Y-124450714D01*
X100771428Y-124522142D01*
X100628571Y-124593571D01*
X100200000Y-124593571D01*
X100057142Y-124522142D01*
X99985714Y-124450714D01*
X102628571Y-123022142D02*
X101342857Y-124950714D01*
X103771428Y-123093571D02*
X103485714Y-123093571D01*
X103342857Y-123165000D01*
X103271428Y-123236428D01*
X103128571Y-123450714D01*
X103057142Y-123736428D01*
X103057142Y-124307857D01*
X103128571Y-124450714D01*
X103200000Y-124522142D01*
X103342857Y-124593571D01*
X103628571Y-124593571D01*
X103771428Y-124522142D01*
X103842857Y-124450714D01*
X103914285Y-124307857D01*
X103914285Y-123950714D01*
X103842857Y-123807857D01*
X103771428Y-123736428D01*
X103628571Y-123665000D01*
X103342857Y-123665000D01*
X103200000Y-123736428D01*
X103128571Y-123807857D01*
X103057142Y-123950714D01*
X105628571Y-123022142D02*
X104342857Y-124950714D01*
X106057142Y-123236428D02*
X106128571Y-123165000D01*
X106271428Y-123093571D01*
X106628571Y-123093571D01*
X106771428Y-123165000D01*
X106842857Y-123236428D01*
X106914285Y-123379285D01*
X106914285Y-123522142D01*
X106842857Y-123736428D01*
X105985714Y-124593571D01*
X106914285Y-124593571D01*
X107485714Y-123236428D02*
X107557142Y-123165000D01*
X107700000Y-123093571D01*
X108057142Y-123093571D01*
X108200000Y-123165000D01*
X108271428Y-123236428D01*
X108342857Y-123379285D01*
X108342857Y-123522142D01*
X108271428Y-123736428D01*
X107414285Y-124593571D01*
X108342857Y-124593571D01*
D11*
%TO.C,R9*%
X104772380Y-114066666D02*
X104296190Y-114400000D01*
X104772380Y-114638095D02*
X103772380Y-114638095D01*
X103772380Y-114257142D01*
X103820000Y-114161904D01*
X103867619Y-114114285D01*
X103962857Y-114066666D01*
X104105714Y-114066666D01*
X104200952Y-114114285D01*
X104248571Y-114161904D01*
X104296190Y-114257142D01*
X104296190Y-114638095D01*
X104772380Y-113590476D02*
X104772380Y-113400000D01*
X104724761Y-113304761D01*
X104677142Y-113257142D01*
X104534285Y-113161904D01*
X104343809Y-113114285D01*
X103962857Y-113114285D01*
X103867619Y-113161904D01*
X103820000Y-113209523D01*
X103772380Y-113304761D01*
X103772380Y-113495238D01*
X103820000Y-113590476D01*
X103867619Y-113638095D01*
X103962857Y-113685714D01*
X104200952Y-113685714D01*
X104296190Y-113638095D01*
X104343809Y-113590476D01*
X104391428Y-113495238D01*
X104391428Y-113304761D01*
X104343809Y-113209523D01*
X104296190Y-113161904D01*
X104200952Y-113114285D01*
%TO.C,D3*%
X154761904Y-109052380D02*
X154761904Y-108052380D01*
X155000000Y-108052380D01*
X155142857Y-108100000D01*
X155238095Y-108195238D01*
X155285714Y-108290476D01*
X155333333Y-108480952D01*
X155333333Y-108623809D01*
X155285714Y-108814285D01*
X155238095Y-108909523D01*
X155142857Y-109004761D01*
X155000000Y-109052380D01*
X154761904Y-109052380D01*
X155666666Y-108052380D02*
X156285714Y-108052380D01*
X155952380Y-108433333D01*
X156095238Y-108433333D01*
X156190476Y-108480952D01*
X156238095Y-108528571D01*
X156285714Y-108623809D01*
X156285714Y-108861904D01*
X156238095Y-108957142D01*
X156190476Y-109004761D01*
X156095238Y-109052380D01*
X155809523Y-109052380D01*
X155714285Y-109004761D01*
X155666666Y-108957142D01*
%TO.C,Q6*%
X142404761Y-112047619D02*
X142309523Y-112000000D01*
X142214285Y-111904761D01*
X142071428Y-111761904D01*
X141976190Y-111714285D01*
X141880952Y-111714285D01*
X141928571Y-111952380D02*
X141833333Y-111904761D01*
X141738095Y-111809523D01*
X141690476Y-111619047D01*
X141690476Y-111285714D01*
X141738095Y-111095238D01*
X141833333Y-111000000D01*
X141928571Y-110952380D01*
X142119047Y-110952380D01*
X142214285Y-111000000D01*
X142309523Y-111095238D01*
X142357142Y-111285714D01*
X142357142Y-111619047D01*
X142309523Y-111809523D01*
X142214285Y-111904761D01*
X142119047Y-111952380D01*
X141928571Y-111952380D01*
X143214285Y-110952380D02*
X143023809Y-110952380D01*
X142928571Y-111000000D01*
X142880952Y-111047619D01*
X142785714Y-111190476D01*
X142738095Y-111380952D01*
X142738095Y-111761904D01*
X142785714Y-111857142D01*
X142833333Y-111904761D01*
X142928571Y-111952380D01*
X143119047Y-111952380D01*
X143214285Y-111904761D01*
X143261904Y-111857142D01*
X143309523Y-111761904D01*
X143309523Y-111523809D01*
X143261904Y-111428571D01*
X143214285Y-111380952D01*
X143119047Y-111333333D01*
X142928571Y-111333333D01*
X142833333Y-111380952D01*
X142785714Y-111428571D01*
X142738095Y-111523809D01*
%TO.C,J6*%
X163166666Y-114022380D02*
X163166666Y-114736666D01*
X163119047Y-114879523D01*
X163023809Y-114974761D01*
X162880952Y-115022380D01*
X162785714Y-115022380D01*
X164071428Y-114022380D02*
X163880952Y-114022380D01*
X163785714Y-114070000D01*
X163738095Y-114117619D01*
X163642857Y-114260476D01*
X163595238Y-114450952D01*
X163595238Y-114831904D01*
X163642857Y-114927142D01*
X163690476Y-114974761D01*
X163785714Y-115022380D01*
X163976190Y-115022380D01*
X164071428Y-114974761D01*
X164119047Y-114927142D01*
X164166666Y-114831904D01*
X164166666Y-114593809D01*
X164119047Y-114498571D01*
X164071428Y-114450952D01*
X163976190Y-114403333D01*
X163785714Y-114403333D01*
X163690476Y-114450952D01*
X163642857Y-114498571D01*
X163595238Y-114593809D01*
%TO.C,J5*%
X132166666Y-119022380D02*
X132166666Y-119736666D01*
X132119047Y-119879523D01*
X132023809Y-119974761D01*
X131880952Y-120022380D01*
X131785714Y-120022380D01*
X133119047Y-119022380D02*
X132642857Y-119022380D01*
X132595238Y-119498571D01*
X132642857Y-119450952D01*
X132738095Y-119403333D01*
X132976190Y-119403333D01*
X133071428Y-119450952D01*
X133119047Y-119498571D01*
X133166666Y-119593809D01*
X133166666Y-119831904D01*
X133119047Y-119927142D01*
X133071428Y-119974761D01*
X132976190Y-120022380D01*
X132738095Y-120022380D01*
X132642857Y-119974761D01*
X132595238Y-119927142D01*
%TO.C,J9*%
X114481666Y-81362380D02*
X114481666Y-82076666D01*
X114434047Y-82219523D01*
X114338809Y-82314761D01*
X114195952Y-82362380D01*
X114100714Y-82362380D01*
X115005476Y-82362380D02*
X115195952Y-82362380D01*
X115291190Y-82314761D01*
X115338809Y-82267142D01*
X115434047Y-82124285D01*
X115481666Y-81933809D01*
X115481666Y-81552857D01*
X115434047Y-81457619D01*
X115386428Y-81410000D01*
X115291190Y-81362380D01*
X115100714Y-81362380D01*
X115005476Y-81410000D01*
X114957857Y-81457619D01*
X114910238Y-81552857D01*
X114910238Y-81790952D01*
X114957857Y-81886190D01*
X115005476Y-81933809D01*
X115100714Y-81981428D01*
X115291190Y-81981428D01*
X115386428Y-81933809D01*
X115434047Y-81886190D01*
X115481666Y-81790952D01*
%TO.C,Q3*%
X150547619Y-103995238D02*
X150500000Y-104090476D01*
X150404761Y-104185714D01*
X150261904Y-104328571D01*
X150214285Y-104423809D01*
X150214285Y-104519047D01*
X150452380Y-104471428D02*
X150404761Y-104566666D01*
X150309523Y-104661904D01*
X150119047Y-104709523D01*
X149785714Y-104709523D01*
X149595238Y-104661904D01*
X149500000Y-104566666D01*
X149452380Y-104471428D01*
X149452380Y-104280952D01*
X149500000Y-104185714D01*
X149595238Y-104090476D01*
X149785714Y-104042857D01*
X150119047Y-104042857D01*
X150309523Y-104090476D01*
X150404761Y-104185714D01*
X150452380Y-104280952D01*
X150452380Y-104471428D01*
X149452380Y-103709523D02*
X149452380Y-103090476D01*
X149833333Y-103423809D01*
X149833333Y-103280952D01*
X149880952Y-103185714D01*
X149928571Y-103138095D01*
X150023809Y-103090476D01*
X150261904Y-103090476D01*
X150357142Y-103138095D01*
X150404761Y-103185714D01*
X150452380Y-103280952D01*
X150452380Y-103566666D01*
X150404761Y-103661904D01*
X150357142Y-103709523D01*
%TO.C,Q4*%
X139547619Y-103995238D02*
X139500000Y-104090476D01*
X139404761Y-104185714D01*
X139261904Y-104328571D01*
X139214285Y-104423809D01*
X139214285Y-104519047D01*
X139452380Y-104471428D02*
X139404761Y-104566666D01*
X139309523Y-104661904D01*
X139119047Y-104709523D01*
X138785714Y-104709523D01*
X138595238Y-104661904D01*
X138500000Y-104566666D01*
X138452380Y-104471428D01*
X138452380Y-104280952D01*
X138500000Y-104185714D01*
X138595238Y-104090476D01*
X138785714Y-104042857D01*
X139119047Y-104042857D01*
X139309523Y-104090476D01*
X139404761Y-104185714D01*
X139452380Y-104280952D01*
X139452380Y-104471428D01*
X138785714Y-103185714D02*
X139452380Y-103185714D01*
X138404761Y-103423809D02*
X139119047Y-103661904D01*
X139119047Y-103042857D01*
%TO.C,Q1*%
X106547619Y-103995238D02*
X106500000Y-104090476D01*
X106404761Y-104185714D01*
X106261904Y-104328571D01*
X106214285Y-104423809D01*
X106214285Y-104519047D01*
X106452380Y-104471428D02*
X106404761Y-104566666D01*
X106309523Y-104661904D01*
X106119047Y-104709523D01*
X105785714Y-104709523D01*
X105595238Y-104661904D01*
X105500000Y-104566666D01*
X105452380Y-104471428D01*
X105452380Y-104280952D01*
X105500000Y-104185714D01*
X105595238Y-104090476D01*
X105785714Y-104042857D01*
X106119047Y-104042857D01*
X106309523Y-104090476D01*
X106404761Y-104185714D01*
X106452380Y-104280952D01*
X106452380Y-104471428D01*
X106452380Y-103090476D02*
X106452380Y-103661904D01*
X106452380Y-103376190D02*
X105452380Y-103376190D01*
X105595238Y-103471428D01*
X105690476Y-103566666D01*
X105738095Y-103661904D01*
%TO.C,J17*%
X162690476Y-102022380D02*
X162690476Y-102736666D01*
X162642857Y-102879523D01*
X162547619Y-102974761D01*
X162404761Y-103022380D01*
X162309523Y-103022380D01*
X163690476Y-103022380D02*
X163119047Y-103022380D01*
X163404761Y-103022380D02*
X163404761Y-102022380D01*
X163309523Y-102165238D01*
X163214285Y-102260476D01*
X163119047Y-102308095D01*
X164023809Y-102022380D02*
X164690476Y-102022380D01*
X164261904Y-103022380D01*
%TO.C,J8*%
X97481666Y-81362380D02*
X97481666Y-82076666D01*
X97434047Y-82219523D01*
X97338809Y-82314761D01*
X97195952Y-82362380D01*
X97100714Y-82362380D01*
X98100714Y-81790952D02*
X98005476Y-81743333D01*
X97957857Y-81695714D01*
X97910238Y-81600476D01*
X97910238Y-81552857D01*
X97957857Y-81457619D01*
X98005476Y-81410000D01*
X98100714Y-81362380D01*
X98291190Y-81362380D01*
X98386428Y-81410000D01*
X98434047Y-81457619D01*
X98481666Y-81552857D01*
X98481666Y-81600476D01*
X98434047Y-81695714D01*
X98386428Y-81743333D01*
X98291190Y-81790952D01*
X98100714Y-81790952D01*
X98005476Y-81838571D01*
X97957857Y-81886190D01*
X97910238Y-81981428D01*
X97910238Y-82171904D01*
X97957857Y-82267142D01*
X98005476Y-82314761D01*
X98100714Y-82362380D01*
X98291190Y-82362380D01*
X98386428Y-82314761D01*
X98434047Y-82267142D01*
X98481666Y-82171904D01*
X98481666Y-81981428D01*
X98434047Y-81886190D01*
X98386428Y-81838571D01*
X98291190Y-81790952D01*
%TO.C,J3*%
X122166666Y-119022380D02*
X122166666Y-119736666D01*
X122119047Y-119879523D01*
X122023809Y-119974761D01*
X121880952Y-120022380D01*
X121785714Y-120022380D01*
X122547619Y-119022380D02*
X123166666Y-119022380D01*
X122833333Y-119403333D01*
X122976190Y-119403333D01*
X123071428Y-119450952D01*
X123119047Y-119498571D01*
X123166666Y-119593809D01*
X123166666Y-119831904D01*
X123119047Y-119927142D01*
X123071428Y-119974761D01*
X122976190Y-120022380D01*
X122690476Y-120022380D01*
X122595238Y-119974761D01*
X122547619Y-119927142D01*
%TO.C,J11*%
X146005476Y-81362380D02*
X146005476Y-82076666D01*
X145957857Y-82219523D01*
X145862619Y-82314761D01*
X145719761Y-82362380D01*
X145624523Y-82362380D01*
X147005476Y-82362380D02*
X146434047Y-82362380D01*
X146719761Y-82362380D02*
X146719761Y-81362380D01*
X146624523Y-81505238D01*
X146529285Y-81600476D01*
X146434047Y-81648095D01*
X147957857Y-82362380D02*
X147386428Y-82362380D01*
X147672142Y-82362380D02*
X147672142Y-81362380D01*
X147576904Y-81505238D01*
X147481666Y-81600476D01*
X147386428Y-81648095D01*
%TO.C,R10*%
X108952380Y-114542857D02*
X108476190Y-114876190D01*
X108952380Y-115114285D02*
X107952380Y-115114285D01*
X107952380Y-114733333D01*
X108000000Y-114638095D01*
X108047619Y-114590476D01*
X108142857Y-114542857D01*
X108285714Y-114542857D01*
X108380952Y-114590476D01*
X108428571Y-114638095D01*
X108476190Y-114733333D01*
X108476190Y-115114285D01*
X108952380Y-113590476D02*
X108952380Y-114161904D01*
X108952380Y-113876190D02*
X107952380Y-113876190D01*
X108095238Y-113971428D01*
X108190476Y-114066666D01*
X108238095Y-114161904D01*
X107952380Y-112971428D02*
X107952380Y-112876190D01*
X108000000Y-112780952D01*
X108047619Y-112733333D01*
X108142857Y-112685714D01*
X108333333Y-112638095D01*
X108571428Y-112638095D01*
X108761904Y-112685714D01*
X108857142Y-112733333D01*
X108904761Y-112780952D01*
X108952380Y-112876190D01*
X108952380Y-112971428D01*
X108904761Y-113066666D01*
X108857142Y-113114285D01*
X108761904Y-113161904D01*
X108571428Y-113209523D01*
X108333333Y-113209523D01*
X108142857Y-113161904D01*
X108047619Y-113114285D01*
X108000000Y-113066666D01*
X107952380Y-112971428D01*
%TO.C,H1*%
X89738095Y-118852380D02*
X89738095Y-117852380D01*
X89738095Y-118328571D02*
X90309523Y-118328571D01*
X90309523Y-118852380D02*
X90309523Y-117852380D01*
X91309523Y-118852380D02*
X90738095Y-118852380D01*
X91023809Y-118852380D02*
X91023809Y-117852380D01*
X90928571Y-117995238D01*
X90833333Y-118090476D01*
X90738095Y-118138095D01*
%TO.C,K1*%
X155452380Y-104638095D02*
X154452380Y-104638095D01*
X155452380Y-104066666D02*
X154880952Y-104495238D01*
X154452380Y-104066666D02*
X155023809Y-104638095D01*
X155452380Y-103114285D02*
X155452380Y-103685714D01*
X155452380Y-103400000D02*
X154452380Y-103400000D01*
X154595238Y-103495238D01*
X154690476Y-103590476D01*
X154738095Y-103685714D01*
%TO.C,J12*%
X162690476Y-96022380D02*
X162690476Y-96736666D01*
X162642857Y-96879523D01*
X162547619Y-96974761D01*
X162404761Y-97022380D01*
X162309523Y-97022380D01*
X163690476Y-97022380D02*
X163119047Y-97022380D01*
X163404761Y-97022380D02*
X163404761Y-96022380D01*
X163309523Y-96165238D01*
X163214285Y-96260476D01*
X163119047Y-96308095D01*
X164071428Y-96117619D02*
X164119047Y-96070000D01*
X164214285Y-96022380D01*
X164452380Y-96022380D01*
X164547619Y-96070000D01*
X164595238Y-96117619D01*
X164642857Y-96212857D01*
X164642857Y-96308095D01*
X164595238Y-96450952D01*
X164023809Y-97022380D01*
X164642857Y-97022380D01*
%TO.C,R2*%
X136073333Y-116372380D02*
X135740000Y-115896190D01*
X135501904Y-116372380D02*
X135501904Y-115372380D01*
X135882857Y-115372380D01*
X135978095Y-115420000D01*
X136025714Y-115467619D01*
X136073333Y-115562857D01*
X136073333Y-115705714D01*
X136025714Y-115800952D01*
X135978095Y-115848571D01*
X135882857Y-115896190D01*
X135501904Y-115896190D01*
X136454285Y-115467619D02*
X136501904Y-115420000D01*
X136597142Y-115372380D01*
X136835238Y-115372380D01*
X136930476Y-115420000D01*
X136978095Y-115467619D01*
X137025714Y-115562857D01*
X137025714Y-115658095D01*
X136978095Y-115800952D01*
X136406666Y-116372380D01*
X137025714Y-116372380D01*
%TO.C,R8*%
X148863333Y-113062380D02*
X148530000Y-112586190D01*
X148291904Y-113062380D02*
X148291904Y-112062380D01*
X148672857Y-112062380D01*
X148768095Y-112110000D01*
X148815714Y-112157619D01*
X148863333Y-112252857D01*
X148863333Y-112395714D01*
X148815714Y-112490952D01*
X148768095Y-112538571D01*
X148672857Y-112586190D01*
X148291904Y-112586190D01*
X149434761Y-112490952D02*
X149339523Y-112443333D01*
X149291904Y-112395714D01*
X149244285Y-112300476D01*
X149244285Y-112252857D01*
X149291904Y-112157619D01*
X149339523Y-112110000D01*
X149434761Y-112062380D01*
X149625238Y-112062380D01*
X149720476Y-112110000D01*
X149768095Y-112157619D01*
X149815714Y-112252857D01*
X149815714Y-112300476D01*
X149768095Y-112395714D01*
X149720476Y-112443333D01*
X149625238Y-112490952D01*
X149434761Y-112490952D01*
X149339523Y-112538571D01*
X149291904Y-112586190D01*
X149244285Y-112681428D01*
X149244285Y-112871904D01*
X149291904Y-112967142D01*
X149339523Y-113014761D01*
X149434761Y-113062380D01*
X149625238Y-113062380D01*
X149720476Y-113014761D01*
X149768095Y-112967142D01*
X149815714Y-112871904D01*
X149815714Y-112681428D01*
X149768095Y-112586190D01*
X149720476Y-112538571D01*
X149625238Y-112490952D01*
%TO.C,J14*%
X91650476Y-98842380D02*
X91650476Y-99556666D01*
X91602857Y-99699523D01*
X91507619Y-99794761D01*
X91364761Y-99842380D01*
X91269523Y-99842380D01*
X92650476Y-99842380D02*
X92079047Y-99842380D01*
X92364761Y-99842380D02*
X92364761Y-98842380D01*
X92269523Y-98985238D01*
X92174285Y-99080476D01*
X92079047Y-99128095D01*
X93507619Y-99175714D02*
X93507619Y-99842380D01*
X93269523Y-98794761D02*
X93031428Y-99509047D01*
X93650476Y-99509047D01*
%TO.C,J10*%
X130005476Y-81362380D02*
X130005476Y-82076666D01*
X129957857Y-82219523D01*
X129862619Y-82314761D01*
X129719761Y-82362380D01*
X129624523Y-82362380D01*
X131005476Y-82362380D02*
X130434047Y-82362380D01*
X130719761Y-82362380D02*
X130719761Y-81362380D01*
X130624523Y-81505238D01*
X130529285Y-81600476D01*
X130434047Y-81648095D01*
X131624523Y-81362380D02*
X131719761Y-81362380D01*
X131815000Y-81410000D01*
X131862619Y-81457619D01*
X131910238Y-81552857D01*
X131957857Y-81743333D01*
X131957857Y-81981428D01*
X131910238Y-82171904D01*
X131862619Y-82267142D01*
X131815000Y-82314761D01*
X131719761Y-82362380D01*
X131624523Y-82362380D01*
X131529285Y-82314761D01*
X131481666Y-82267142D01*
X131434047Y-82171904D01*
X131386428Y-81981428D01*
X131386428Y-81743333D01*
X131434047Y-81552857D01*
X131481666Y-81457619D01*
X131529285Y-81410000D01*
X131624523Y-81362380D01*
%TO.C,R3*%
X112743333Y-119282380D02*
X112410000Y-118806190D01*
X112171904Y-119282380D02*
X112171904Y-118282380D01*
X112552857Y-118282380D01*
X112648095Y-118330000D01*
X112695714Y-118377619D01*
X112743333Y-118472857D01*
X112743333Y-118615714D01*
X112695714Y-118710952D01*
X112648095Y-118758571D01*
X112552857Y-118806190D01*
X112171904Y-118806190D01*
X113076666Y-118282380D02*
X113695714Y-118282380D01*
X113362380Y-118663333D01*
X113505238Y-118663333D01*
X113600476Y-118710952D01*
X113648095Y-118758571D01*
X113695714Y-118853809D01*
X113695714Y-119091904D01*
X113648095Y-119187142D01*
X113600476Y-119234761D01*
X113505238Y-119282380D01*
X113219523Y-119282380D01*
X113124285Y-119234761D01*
X113076666Y-119187142D01*
%TO.C,Q5*%
X119404761Y-112047619D02*
X119309523Y-112000000D01*
X119214285Y-111904761D01*
X119071428Y-111761904D01*
X118976190Y-111714285D01*
X118880952Y-111714285D01*
X118928571Y-111952380D02*
X118833333Y-111904761D01*
X118738095Y-111809523D01*
X118690476Y-111619047D01*
X118690476Y-111285714D01*
X118738095Y-111095238D01*
X118833333Y-111000000D01*
X118928571Y-110952380D01*
X119119047Y-110952380D01*
X119214285Y-111000000D01*
X119309523Y-111095238D01*
X119357142Y-111285714D01*
X119357142Y-111619047D01*
X119309523Y-111809523D01*
X119214285Y-111904761D01*
X119119047Y-111952380D01*
X118928571Y-111952380D01*
X120261904Y-110952380D02*
X119785714Y-110952380D01*
X119738095Y-111428571D01*
X119785714Y-111380952D01*
X119880952Y-111333333D01*
X120119047Y-111333333D01*
X120214285Y-111380952D01*
X120261904Y-111428571D01*
X120309523Y-111523809D01*
X120309523Y-111761904D01*
X120261904Y-111857142D01*
X120214285Y-111904761D01*
X120119047Y-111952380D01*
X119880952Y-111952380D01*
X119785714Y-111904761D01*
X119738095Y-111857142D01*
%TO.C,R7*%
X129833333Y-114852380D02*
X129500000Y-114376190D01*
X129261904Y-114852380D02*
X129261904Y-113852380D01*
X129642857Y-113852380D01*
X129738095Y-113900000D01*
X129785714Y-113947619D01*
X129833333Y-114042857D01*
X129833333Y-114185714D01*
X129785714Y-114280952D01*
X129738095Y-114328571D01*
X129642857Y-114376190D01*
X129261904Y-114376190D01*
X130166666Y-113852380D02*
X130833333Y-113852380D01*
X130404761Y-114852380D01*
%TO.C,J7*%
X163166666Y-108022380D02*
X163166666Y-108736666D01*
X163119047Y-108879523D01*
X163023809Y-108974761D01*
X162880952Y-109022380D01*
X162785714Y-109022380D01*
X163547619Y-108022380D02*
X164214285Y-108022380D01*
X163785714Y-109022380D01*
%TO.C,J2*%
X92126666Y-93842380D02*
X92126666Y-94556666D01*
X92079047Y-94699523D01*
X91983809Y-94794761D01*
X91840952Y-94842380D01*
X91745714Y-94842380D01*
X92555238Y-93937619D02*
X92602857Y-93890000D01*
X92698095Y-93842380D01*
X92936190Y-93842380D01*
X93031428Y-93890000D01*
X93079047Y-93937619D01*
X93126666Y-94032857D01*
X93126666Y-94128095D01*
X93079047Y-94270952D01*
X92507619Y-94842380D01*
X93126666Y-94842380D01*
%TO.C,Q2*%
X123547619Y-103995238D02*
X123500000Y-104090476D01*
X123404761Y-104185714D01*
X123261904Y-104328571D01*
X123214285Y-104423809D01*
X123214285Y-104519047D01*
X123452380Y-104471428D02*
X123404761Y-104566666D01*
X123309523Y-104661904D01*
X123119047Y-104709523D01*
X122785714Y-104709523D01*
X122595238Y-104661904D01*
X122500000Y-104566666D01*
X122452380Y-104471428D01*
X122452380Y-104280952D01*
X122500000Y-104185714D01*
X122595238Y-104090476D01*
X122785714Y-104042857D01*
X123119047Y-104042857D01*
X123309523Y-104090476D01*
X123404761Y-104185714D01*
X123452380Y-104280952D01*
X123452380Y-104471428D01*
X122547619Y-103661904D02*
X122500000Y-103614285D01*
X122452380Y-103519047D01*
X122452380Y-103280952D01*
X122500000Y-103185714D01*
X122547619Y-103138095D01*
X122642857Y-103090476D01*
X122738095Y-103090476D01*
X122880952Y-103138095D01*
X123452380Y-103709523D01*
X123452380Y-103090476D01*
%TO.C,J4*%
X127166666Y-119022380D02*
X127166666Y-119736666D01*
X127119047Y-119879523D01*
X127023809Y-119974761D01*
X126880952Y-120022380D01*
X126785714Y-120022380D01*
X128071428Y-119355714D02*
X128071428Y-120022380D01*
X127833333Y-118974761D02*
X127595238Y-119689047D01*
X128214285Y-119689047D01*
%TO.C,J13*%
X162690476Y-90022380D02*
X162690476Y-90736666D01*
X162642857Y-90879523D01*
X162547619Y-90974761D01*
X162404761Y-91022380D01*
X162309523Y-91022380D01*
X163690476Y-91022380D02*
X163119047Y-91022380D01*
X163404761Y-91022380D02*
X163404761Y-90022380D01*
X163309523Y-90165238D01*
X163214285Y-90260476D01*
X163119047Y-90308095D01*
X164023809Y-90022380D02*
X164642857Y-90022380D01*
X164309523Y-90403333D01*
X164452380Y-90403333D01*
X164547619Y-90450952D01*
X164595238Y-90498571D01*
X164642857Y-90593809D01*
X164642857Y-90831904D01*
X164595238Y-90927142D01*
X164547619Y-90974761D01*
X164452380Y-91022380D01*
X164166666Y-91022380D01*
X164071428Y-90974761D01*
X164023809Y-90927142D01*
%TO.C,J1*%
X92126666Y-103842380D02*
X92126666Y-104556666D01*
X92079047Y-104699523D01*
X91983809Y-104794761D01*
X91840952Y-104842380D01*
X91745714Y-104842380D01*
X93126666Y-104842380D02*
X92555238Y-104842380D01*
X92840952Y-104842380D02*
X92840952Y-103842380D01*
X92745714Y-103985238D01*
X92650476Y-104080476D01*
X92555238Y-104128095D01*
%TO.C,R1*%
X112733333Y-112892380D02*
X112400000Y-112416190D01*
X112161904Y-112892380D02*
X112161904Y-111892380D01*
X112542857Y-111892380D01*
X112638095Y-111940000D01*
X112685714Y-111987619D01*
X112733333Y-112082857D01*
X112733333Y-112225714D01*
X112685714Y-112320952D01*
X112638095Y-112368571D01*
X112542857Y-112416190D01*
X112161904Y-112416190D01*
X113685714Y-112892380D02*
X113114285Y-112892380D01*
X113400000Y-112892380D02*
X113400000Y-111892380D01*
X113304761Y-112035238D01*
X113209523Y-112130476D01*
X113114285Y-112178095D01*
%TO.C,R5*%
X129833333Y-117352380D02*
X129500000Y-116876190D01*
X129261904Y-117352380D02*
X129261904Y-116352380D01*
X129642857Y-116352380D01*
X129738095Y-116400000D01*
X129785714Y-116447619D01*
X129833333Y-116542857D01*
X129833333Y-116685714D01*
X129785714Y-116780952D01*
X129738095Y-116828571D01*
X129642857Y-116876190D01*
X129261904Y-116876190D01*
X130738095Y-116352380D02*
X130261904Y-116352380D01*
X130214285Y-116828571D01*
X130261904Y-116780952D01*
X130357142Y-116733333D01*
X130595238Y-116733333D01*
X130690476Y-116780952D01*
X130738095Y-116828571D01*
X130785714Y-116923809D01*
X130785714Y-117161904D01*
X130738095Y-117257142D01*
X130690476Y-117304761D01*
X130595238Y-117352380D01*
X130357142Y-117352380D01*
X130261904Y-117304761D01*
X130214285Y-117257142D01*
D12*
%TO.C,R9*%
X101590000Y-113172936D02*
X101590000Y-114627064D01*
X103410000Y-113172936D02*
X103410000Y-114627064D01*
%TO.C,D3*%
X156200000Y-110500000D02*
X154350000Y-110500000D01*
X154350000Y-109300000D02*
X154350000Y-110500000D01*
X156200000Y-109300000D02*
X154350000Y-109300000D01*
%TO.C,Q6*%
X142500000Y-112340000D02*
X139050000Y-112340000D01*
X142500000Y-117460000D02*
X144450000Y-117460000D01*
X142500000Y-117460000D02*
X140550000Y-117460000D01*
X142500000Y-112340000D02*
X144450000Y-112340000D01*
%TO.C,J6*%
X162170000Y-115570000D02*
X163500000Y-115570000D01*
X162170000Y-118170000D02*
X164830000Y-118170000D01*
X162170000Y-118230000D02*
X164830000Y-118230000D01*
X164830000Y-118170000D02*
X164830000Y-118230000D01*
X162170000Y-116900000D02*
X162170000Y-115570000D01*
X162170000Y-118170000D02*
X162170000Y-118230000D01*
%TO.C,J5*%
X131170000Y-123230000D02*
X133830000Y-123230000D01*
X131170000Y-123170000D02*
X131170000Y-123230000D01*
X131170000Y-123170000D02*
X133830000Y-123170000D01*
X131170000Y-120570000D02*
X132500000Y-120570000D01*
X133830000Y-123170000D02*
X133830000Y-123230000D01*
X131170000Y-121900000D02*
X131170000Y-120570000D01*
%TO.C,J9*%
X124935000Y-94500000D02*
X124935000Y-92600000D01*
X114085000Y-82600000D02*
X114085000Y-95200000D01*
X114085000Y-95200000D02*
X124435000Y-95200000D01*
X124435000Y-94250000D02*
X124935000Y-94500000D01*
X124935000Y-82600000D02*
X114085000Y-82600000D01*
X124435000Y-95200000D02*
X124435000Y-94250000D01*
X124435000Y-92800000D02*
X124435000Y-87400000D01*
X124935000Y-92600000D02*
X124935000Y-92550000D01*
X124935000Y-92550000D02*
X124435000Y-92800000D01*
X124935000Y-87700000D02*
X124935000Y-82600000D01*
X124435000Y-87400000D02*
X124935000Y-87700000D01*
%TO.C,Q3*%
X148680000Y-101430000D02*
X148680000Y-98600000D01*
X142320000Y-101430000D02*
X142320000Y-100330000D01*
X148950000Y-102930000D02*
X148950000Y-101430000D01*
X142050000Y-101430000D02*
X142320000Y-101430000D01*
X148950000Y-101430000D02*
X148680000Y-101430000D01*
X142050000Y-102930000D02*
X142050000Y-101430000D01*
%TO.C,Q4*%
X137950000Y-101430000D02*
X137680000Y-101430000D01*
X131050000Y-101430000D02*
X131320000Y-101430000D01*
X137680000Y-101430000D02*
X137680000Y-98600000D01*
X131320000Y-101430000D02*
X131320000Y-100330000D01*
X131050000Y-102930000D02*
X131050000Y-101430000D01*
X137950000Y-102930000D02*
X137950000Y-101430000D01*
%TO.C,Q1*%
X104680000Y-101430000D02*
X104680000Y-98600000D01*
X98050000Y-102930000D02*
X98050000Y-101430000D01*
X104950000Y-102930000D02*
X104950000Y-101430000D01*
X104950000Y-101430000D02*
X104680000Y-101430000D01*
X98320000Y-101430000D02*
X98320000Y-100330000D01*
X98050000Y-101430000D02*
X98320000Y-101430000D01*
%TO.C,J17*%
X162170000Y-103570000D02*
X163500000Y-103570000D01*
X162170000Y-106170000D02*
X164830000Y-106170000D01*
X164830000Y-106170000D02*
X164830000Y-106230000D01*
X162170000Y-106230000D02*
X164830000Y-106230000D01*
X162170000Y-106170000D02*
X162170000Y-106230000D01*
X162170000Y-104900000D02*
X162170000Y-103570000D01*
%TO.C,J8*%
X107935000Y-87700000D02*
X107935000Y-82600000D01*
X107435000Y-94250000D02*
X107935000Y-94500000D01*
X107935000Y-94500000D02*
X107935000Y-92600000D01*
X97085000Y-95200000D02*
X107435000Y-95200000D01*
X107435000Y-92800000D02*
X107435000Y-87400000D01*
X107935000Y-92600000D02*
X107935000Y-92550000D01*
X107935000Y-92550000D02*
X107435000Y-92800000D01*
X107435000Y-87400000D02*
X107935000Y-87700000D01*
X107935000Y-82600000D02*
X97085000Y-82600000D01*
X97085000Y-82600000D02*
X97085000Y-95200000D01*
X107435000Y-95200000D02*
X107435000Y-94250000D01*
%TO.C,J3*%
X121170000Y-121900000D02*
X121170000Y-120570000D01*
X121170000Y-123170000D02*
X123830000Y-123170000D01*
X121170000Y-123170000D02*
X121170000Y-123230000D01*
X123830000Y-123170000D02*
X123830000Y-123230000D01*
X121170000Y-120570000D02*
X122500000Y-120570000D01*
X121170000Y-123230000D02*
X123830000Y-123230000D01*
%TO.C,J11*%
X156435000Y-95200000D02*
X156435000Y-94250000D01*
X156935000Y-82600000D02*
X146085000Y-82600000D01*
X156935000Y-92600000D02*
X156935000Y-92550000D01*
X156935000Y-94500000D02*
X156935000Y-92600000D01*
X156935000Y-92550000D02*
X156435000Y-92800000D01*
X156435000Y-94250000D02*
X156935000Y-94500000D01*
X156435000Y-87400000D02*
X156935000Y-87700000D01*
X146085000Y-82600000D02*
X146085000Y-95200000D01*
X156435000Y-92800000D02*
X156435000Y-87400000D01*
X146085000Y-95200000D02*
X156435000Y-95200000D01*
X156935000Y-87700000D02*
X156935000Y-82600000D01*
%TO.C,R10*%
X107410000Y-114627064D02*
X107410000Y-113172936D01*
X105590000Y-114627064D02*
X105590000Y-113172936D01*
%TO.C,K1*%
X152500000Y-107800000D02*
X158500000Y-107800000D01*
X158500000Y-107800000D02*
X158500000Y-97800000D01*
X158500000Y-97800000D02*
X152500000Y-97800000D01*
X152500000Y-97800000D02*
X152500000Y-107800000D01*
%TO.C,J12*%
X162170000Y-100170000D02*
X164830000Y-100170000D01*
X162170000Y-100230000D02*
X164830000Y-100230000D01*
X162170000Y-100170000D02*
X162170000Y-100230000D01*
X162170000Y-98900000D02*
X162170000Y-97570000D01*
X164830000Y-100170000D02*
X164830000Y-100230000D01*
X162170000Y-97570000D02*
X163500000Y-97570000D01*
%TO.C,R2*%
X136467064Y-115005000D02*
X136012936Y-115005000D01*
X136467064Y-113535000D02*
X136012936Y-113535000D01*
%TO.C,R8*%
X148802936Y-114995000D02*
X149257064Y-114995000D01*
X148802936Y-113525000D02*
X149257064Y-113525000D01*
%TO.C,J14*%
X91130000Y-102990000D02*
X93790000Y-102990000D01*
X91130000Y-103050000D02*
X93790000Y-103050000D01*
X91130000Y-101720000D02*
X91130000Y-100390000D01*
X91130000Y-102990000D02*
X91130000Y-103050000D01*
X93790000Y-102990000D02*
X93790000Y-103050000D01*
X91130000Y-100390000D02*
X92460000Y-100390000D01*
%TO.C,J10*%
X140435000Y-94250000D02*
X140935000Y-94500000D01*
X140935000Y-82600000D02*
X130085000Y-82600000D01*
X140935000Y-92600000D02*
X140935000Y-92550000D01*
X130085000Y-82600000D02*
X130085000Y-95200000D01*
X140435000Y-92800000D02*
X140435000Y-87400000D01*
X140935000Y-87700000D02*
X140935000Y-82600000D01*
X140935000Y-94500000D02*
X140935000Y-92600000D01*
X130085000Y-95200000D02*
X140435000Y-95200000D01*
X140435000Y-95200000D02*
X140435000Y-94250000D01*
X140935000Y-92550000D02*
X140435000Y-92800000D01*
X140435000Y-87400000D02*
X140935000Y-87700000D01*
%TO.C,R3*%
X113137064Y-117565000D02*
X112682936Y-117565000D01*
X113137064Y-116095000D02*
X112682936Y-116095000D01*
%TO.C,Q5*%
X119500000Y-117460000D02*
X117550000Y-117460000D01*
X119500000Y-117460000D02*
X121450000Y-117460000D01*
X119500000Y-112340000D02*
X116050000Y-112340000D01*
X119500000Y-112340000D02*
X121450000Y-112340000D01*
%TO.C,R7*%
X126142936Y-115025000D02*
X126597064Y-115025000D01*
X126142936Y-113555000D02*
X126597064Y-113555000D01*
%TO.C,J7*%
X162170000Y-112230000D02*
X164830000Y-112230000D01*
X162170000Y-109570000D02*
X163500000Y-109570000D01*
X164830000Y-112170000D02*
X164830000Y-112230000D01*
X162170000Y-112170000D02*
X164830000Y-112170000D01*
X162170000Y-110900000D02*
X162170000Y-109570000D01*
X162170000Y-112170000D02*
X162170000Y-112230000D01*
%TO.C,J2*%
X91130000Y-98050000D02*
X93790000Y-98050000D01*
X91130000Y-97990000D02*
X93790000Y-97990000D01*
X91130000Y-97990000D02*
X91130000Y-98050000D01*
X91130000Y-96720000D02*
X91130000Y-95390000D01*
X93790000Y-97990000D02*
X93790000Y-98050000D01*
X91130000Y-95390000D02*
X92460000Y-95390000D01*
%TO.C,Q2*%
X115050000Y-101430000D02*
X115320000Y-101430000D01*
X115050000Y-102930000D02*
X115050000Y-101430000D01*
X121950000Y-102930000D02*
X121950000Y-101430000D01*
X121680000Y-101430000D02*
X121680000Y-98600000D01*
X115320000Y-101430000D02*
X115320000Y-100330000D01*
X121950000Y-101430000D02*
X121680000Y-101430000D01*
%TO.C,J4*%
X128830000Y-123170000D02*
X128830000Y-123230000D01*
X126170000Y-120570000D02*
X127500000Y-120570000D01*
X126170000Y-121900000D02*
X126170000Y-120570000D01*
X126170000Y-123230000D02*
X128830000Y-123230000D01*
X126170000Y-123170000D02*
X126170000Y-123230000D01*
X126170000Y-123170000D02*
X128830000Y-123170000D01*
%TO.C,J13*%
X162170000Y-94170000D02*
X162170000Y-94230000D01*
X164830000Y-94170000D02*
X164830000Y-94230000D01*
X162170000Y-91570000D02*
X163500000Y-91570000D01*
X162170000Y-92900000D02*
X162170000Y-91570000D01*
X162170000Y-94230000D02*
X164830000Y-94230000D01*
X162170000Y-94170000D02*
X164830000Y-94170000D01*
%TO.C,J1*%
X91130000Y-107990000D02*
X93790000Y-107990000D01*
X91130000Y-105390000D02*
X92460000Y-105390000D01*
X91130000Y-108050000D02*
X93790000Y-108050000D01*
X91130000Y-106720000D02*
X91130000Y-105390000D01*
X91130000Y-107990000D02*
X91130000Y-108050000D01*
X93790000Y-107990000D02*
X93790000Y-108050000D01*
%TO.C,R1*%
X113027064Y-114975000D02*
X112572936Y-114975000D01*
X113027064Y-113505000D02*
X112572936Y-113505000D01*
%TO.C,R5*%
X126142936Y-116055000D02*
X126597064Y-116055000D01*
X126142936Y-117525000D02*
X126597064Y-117525000D01*
%TD*%
M02*
