%FSLAX45Y45*%
G04 Gerber Fmt 4.5, Leading zero omitted, Abs format (unit mm)*
G04 Created by KiCad (PCBNEW (6.0.1)) date 2022-03-29 14:07:43*
%MOMM*%
%LPD*%
G01*
G04 APERTURE LIST*
%TA.AperFunction,Profile*%
%ADD10C,0.200000*%
%TD*%
%ADD11C,0.200000*%
%ADD12C,0.350000*%
G04 APERTURE END LIST*
D10*
X8550000Y-7790000D02*
X17050000Y-7790000D01*
X17050000Y-7790000D02*
X17050000Y-12790000D01*
X17050000Y-12790000D02*
X8550000Y-12790000D01*
X8550000Y-12790000D02*
X8550000Y-7790000D01*
D11*
D12*
X8875000Y-8115000D02*
X9225000Y-8465000D01*
X9225000Y-8115000D02*
X8875000Y-8465000D01*
X8875000Y-12115000D02*
X9225000Y-12465000D01*
X9225000Y-12115000D02*
X8875000Y-12465000D01*
X16375000Y-8115000D02*
X16725000Y-8465000D01*
X16725000Y-8115000D02*
X16375000Y-8465000D01*
X16375000Y-12135000D02*
X16725000Y-12485000D01*
X16725000Y-12135000D02*
X16375000Y-12485000D01*
D11*
X8797619Y-13110476D02*
X8797619Y-12910476D01*
X8845238Y-12910476D01*
X8873810Y-12920000D01*
X8892857Y-12939048D01*
X8902381Y-12958095D01*
X8911905Y-12996190D01*
X8911905Y-13024762D01*
X8902381Y-13062857D01*
X8892857Y-13081905D01*
X8873810Y-13100952D01*
X8845238Y-13110476D01*
X8797619Y-13110476D01*
X8997619Y-13110476D02*
X8997619Y-12977143D01*
X8997619Y-13015238D02*
X9007143Y-12996190D01*
X9016667Y-12986667D01*
X9035714Y-12977143D01*
X9054762Y-12977143D01*
X9121429Y-13110476D02*
X9121429Y-12977143D01*
X9121429Y-12910476D02*
X9111905Y-12920000D01*
X9121429Y-12929524D01*
X9130952Y-12920000D01*
X9121429Y-12910476D01*
X9121429Y-12929524D01*
X9245238Y-13110476D02*
X9226190Y-13100952D01*
X9216667Y-13081905D01*
X9216667Y-12910476D01*
X9350000Y-13110476D02*
X9330952Y-13100952D01*
X9321429Y-13081905D01*
X9321429Y-12910476D01*
X9578571Y-13110476D02*
X9578571Y-12910476D01*
X9645238Y-13053333D01*
X9711905Y-12910476D01*
X9711905Y-13110476D01*
X9892857Y-13110476D02*
X9892857Y-13005714D01*
X9883333Y-12986667D01*
X9864286Y-12977143D01*
X9826190Y-12977143D01*
X9807143Y-12986667D01*
X9892857Y-13100952D02*
X9873810Y-13110476D01*
X9826190Y-13110476D01*
X9807143Y-13100952D01*
X9797619Y-13081905D01*
X9797619Y-13062857D01*
X9807143Y-13043809D01*
X9826190Y-13034286D01*
X9873810Y-13034286D01*
X9892857Y-13024762D01*
X9988095Y-12977143D02*
X9988095Y-13177143D01*
X9988095Y-12986667D02*
X10007143Y-12977143D01*
X10045238Y-12977143D01*
X10064286Y-12986667D01*
X10073810Y-12996190D01*
X10083333Y-13015238D01*
X10083333Y-13072381D01*
X10073810Y-13091428D01*
X10064286Y-13100952D01*
X10045238Y-13110476D01*
X10007143Y-13110476D01*
X9988095Y-13100952D01*
X10169048Y-13091428D02*
X10178571Y-13100952D01*
X10169048Y-13110476D01*
X10159524Y-13100952D01*
X10169048Y-13091428D01*
X10169048Y-13110476D01*
X10169048Y-12986667D02*
X10178571Y-12996190D01*
X10169048Y-13005714D01*
X10159524Y-12996190D01*
X10169048Y-12986667D01*
X10169048Y-13005714D01*
X8340000Y-13340000D02*
X8540000Y-13540000D01*
X8540000Y-13340000D02*
X8340000Y-13540000D01*
X8778571Y-13330476D02*
X8902381Y-13330476D01*
X8835714Y-13406667D01*
X8864286Y-13406667D01*
X8883333Y-13416190D01*
X8892857Y-13425714D01*
X8902381Y-13444762D01*
X8902381Y-13492381D01*
X8892857Y-13511428D01*
X8883333Y-13520952D01*
X8864286Y-13530476D01*
X8807143Y-13530476D01*
X8788095Y-13520952D01*
X8778571Y-13511428D01*
X8988095Y-13511428D02*
X8997619Y-13520952D01*
X8988095Y-13530476D01*
X8978571Y-13520952D01*
X8988095Y-13511428D01*
X8988095Y-13530476D01*
X9178571Y-13330476D02*
X9083333Y-13330476D01*
X9073810Y-13425714D01*
X9083333Y-13416190D01*
X9102381Y-13406667D01*
X9150000Y-13406667D01*
X9169048Y-13416190D01*
X9178571Y-13425714D01*
X9188095Y-13444762D01*
X9188095Y-13492381D01*
X9178571Y-13511428D01*
X9169048Y-13520952D01*
X9150000Y-13530476D01*
X9102381Y-13530476D01*
X9083333Y-13520952D01*
X9073810Y-13511428D01*
X9311905Y-13330476D02*
X9330952Y-13330476D01*
X9350000Y-13340000D01*
X9359524Y-13349524D01*
X9369048Y-13368571D01*
X9378571Y-13406667D01*
X9378571Y-13454286D01*
X9369048Y-13492381D01*
X9359524Y-13511428D01*
X9350000Y-13520952D01*
X9330952Y-13530476D01*
X9311905Y-13530476D01*
X9292857Y-13520952D01*
X9283333Y-13511428D01*
X9273810Y-13492381D01*
X9264286Y-13454286D01*
X9264286Y-13406667D01*
X9273810Y-13368571D01*
X9283333Y-13349524D01*
X9292857Y-13340000D01*
X9311905Y-13330476D01*
X9502381Y-13330476D02*
X9521429Y-13330476D01*
X9540476Y-13340000D01*
X9550000Y-13349524D01*
X9559524Y-13368571D01*
X9569048Y-13406667D01*
X9569048Y-13454286D01*
X9559524Y-13492381D01*
X9550000Y-13511428D01*
X9540476Y-13520952D01*
X9521429Y-13530476D01*
X9502381Y-13530476D01*
X9483333Y-13520952D01*
X9473810Y-13511428D01*
X9464286Y-13492381D01*
X9454762Y-13454286D01*
X9454762Y-13406667D01*
X9464286Y-13368571D01*
X9473810Y-13349524D01*
X9483333Y-13340000D01*
X9502381Y-13330476D01*
X9654762Y-13530476D02*
X9654762Y-13397143D01*
X9654762Y-13416190D02*
X9664286Y-13406667D01*
X9683333Y-13397143D01*
X9711905Y-13397143D01*
X9730952Y-13406667D01*
X9740476Y-13425714D01*
X9740476Y-13530476D01*
X9740476Y-13425714D02*
X9750000Y-13406667D01*
X9769048Y-13397143D01*
X9797619Y-13397143D01*
X9816667Y-13406667D01*
X9826190Y-13425714D01*
X9826190Y-13530476D01*
X9921429Y-13530476D02*
X9921429Y-13397143D01*
X9921429Y-13416190D02*
X9930952Y-13406667D01*
X9950000Y-13397143D01*
X9978571Y-13397143D01*
X9997619Y-13406667D01*
X10007143Y-13425714D01*
X10007143Y-13530476D01*
X10007143Y-13425714D02*
X10016667Y-13406667D01*
X10035714Y-13397143D01*
X10064286Y-13397143D01*
X10083333Y-13406667D01*
X10092857Y-13425714D01*
X10092857Y-13530476D01*
X10483333Y-13320952D02*
X10311905Y-13578095D01*
X10740476Y-13330476D02*
X10759524Y-13330476D01*
X10778571Y-13340000D01*
X10788095Y-13349524D01*
X10797619Y-13368571D01*
X10807143Y-13406667D01*
X10807143Y-13454286D01*
X10797619Y-13492381D01*
X10788095Y-13511428D01*
X10778571Y-13520952D01*
X10759524Y-13530476D01*
X10740476Y-13530476D01*
X10721429Y-13520952D01*
X10711905Y-13511428D01*
X10702381Y-13492381D01*
X10692857Y-13454286D01*
X10692857Y-13406667D01*
X10702381Y-13368571D01*
X10711905Y-13349524D01*
X10721429Y-13340000D01*
X10740476Y-13330476D01*
X10892857Y-13511428D02*
X10902381Y-13520952D01*
X10892857Y-13530476D01*
X10883333Y-13520952D01*
X10892857Y-13511428D01*
X10892857Y-13530476D01*
X11092857Y-13530476D02*
X10978571Y-13530476D01*
X11035714Y-13530476D02*
X11035714Y-13330476D01*
X11016667Y-13359048D01*
X10997619Y-13378095D01*
X10978571Y-13387619D01*
X11159524Y-13330476D02*
X11283333Y-13330476D01*
X11216667Y-13406667D01*
X11245238Y-13406667D01*
X11264286Y-13416190D01*
X11273809Y-13425714D01*
X11283333Y-13444762D01*
X11283333Y-13492381D01*
X11273809Y-13511428D01*
X11264286Y-13520952D01*
X11245238Y-13530476D01*
X11188095Y-13530476D01*
X11169048Y-13520952D01*
X11159524Y-13511428D01*
X11350000Y-13330476D02*
X11483333Y-13330476D01*
X11397619Y-13530476D01*
X11588095Y-13416190D02*
X11569048Y-13406667D01*
X11559524Y-13397143D01*
X11550000Y-13378095D01*
X11550000Y-13368571D01*
X11559524Y-13349524D01*
X11569048Y-13340000D01*
X11588095Y-13330476D01*
X11626190Y-13330476D01*
X11645238Y-13340000D01*
X11654762Y-13349524D01*
X11664286Y-13368571D01*
X11664286Y-13378095D01*
X11654762Y-13397143D01*
X11645238Y-13406667D01*
X11626190Y-13416190D01*
X11588095Y-13416190D01*
X11569048Y-13425714D01*
X11559524Y-13435238D01*
X11550000Y-13454286D01*
X11550000Y-13492381D01*
X11559524Y-13511428D01*
X11569048Y-13520952D01*
X11588095Y-13530476D01*
X11626190Y-13530476D01*
X11645238Y-13520952D01*
X11654762Y-13511428D01*
X11664286Y-13492381D01*
X11664286Y-13454286D01*
X11654762Y-13435238D01*
X11645238Y-13425714D01*
X11626190Y-13416190D01*
X11740476Y-13330476D02*
X11740476Y-13368571D01*
X11816667Y-13330476D02*
X11816667Y-13368571D01*
X12111905Y-13606667D02*
X12102381Y-13597143D01*
X12083333Y-13568571D01*
X12073809Y-13549524D01*
X12064286Y-13520952D01*
X12054762Y-13473333D01*
X12054762Y-13435238D01*
X12064286Y-13387619D01*
X12073809Y-13359048D01*
X12083333Y-13340000D01*
X12102381Y-13311428D01*
X12111905Y-13301905D01*
X12273809Y-13397143D02*
X12273809Y-13530476D01*
X12226190Y-13320952D02*
X12178571Y-13463809D01*
X12302381Y-13463809D01*
X12530952Y-13530476D02*
X12530952Y-13330476D01*
X12616667Y-13530476D02*
X12616667Y-13425714D01*
X12607143Y-13406667D01*
X12588095Y-13397143D01*
X12559524Y-13397143D01*
X12540476Y-13406667D01*
X12530952Y-13416190D01*
X12740476Y-13530476D02*
X12721428Y-13520952D01*
X12711905Y-13511428D01*
X12702381Y-13492381D01*
X12702381Y-13435238D01*
X12711905Y-13416190D01*
X12721428Y-13406667D01*
X12740476Y-13397143D01*
X12769048Y-13397143D01*
X12788095Y-13406667D01*
X12797619Y-13416190D01*
X12807143Y-13435238D01*
X12807143Y-13492381D01*
X12797619Y-13511428D01*
X12788095Y-13520952D01*
X12769048Y-13530476D01*
X12740476Y-13530476D01*
X12921428Y-13530476D02*
X12902381Y-13520952D01*
X12892857Y-13501905D01*
X12892857Y-13330476D01*
X13073809Y-13520952D02*
X13054762Y-13530476D01*
X13016667Y-13530476D01*
X12997619Y-13520952D01*
X12988095Y-13501905D01*
X12988095Y-13425714D01*
X12997619Y-13406667D01*
X13016667Y-13397143D01*
X13054762Y-13397143D01*
X13073809Y-13406667D01*
X13083333Y-13425714D01*
X13083333Y-13444762D01*
X12988095Y-13463809D01*
X13159524Y-13520952D02*
X13178571Y-13530476D01*
X13216667Y-13530476D01*
X13235714Y-13520952D01*
X13245238Y-13501905D01*
X13245238Y-13492381D01*
X13235714Y-13473333D01*
X13216667Y-13463809D01*
X13188095Y-13463809D01*
X13169048Y-13454286D01*
X13159524Y-13435238D01*
X13159524Y-13425714D01*
X13169048Y-13406667D01*
X13188095Y-13397143D01*
X13216667Y-13397143D01*
X13235714Y-13406667D01*
X13311905Y-13606667D02*
X13321428Y-13597143D01*
X13340476Y-13568571D01*
X13350000Y-13549524D01*
X13359524Y-13520952D01*
X13369048Y-13473333D01*
X13369048Y-13435238D01*
X13359524Y-13387619D01*
X13350000Y-13359048D01*
X13340476Y-13340000D01*
X13321428Y-13311428D01*
X13311905Y-13301905D01*
X13673809Y-13606667D02*
X13664286Y-13597143D01*
X13645238Y-13568571D01*
X13635714Y-13549524D01*
X13626190Y-13520952D01*
X13616667Y-13473333D01*
X13616667Y-13435238D01*
X13626190Y-13387619D01*
X13635714Y-13359048D01*
X13645238Y-13340000D01*
X13664286Y-13311428D01*
X13673809Y-13301905D01*
X13750000Y-13397143D02*
X13750000Y-13530476D01*
X13750000Y-13416190D02*
X13759524Y-13406667D01*
X13778571Y-13397143D01*
X13807143Y-13397143D01*
X13826190Y-13406667D01*
X13835714Y-13425714D01*
X13835714Y-13530476D01*
X13959524Y-13530476D02*
X13940476Y-13520952D01*
X13930952Y-13511428D01*
X13921428Y-13492381D01*
X13921428Y-13435238D01*
X13930952Y-13416190D01*
X13940476Y-13406667D01*
X13959524Y-13397143D01*
X13988095Y-13397143D01*
X14007143Y-13406667D01*
X14016667Y-13416190D01*
X14026190Y-13435238D01*
X14026190Y-13492381D01*
X14016667Y-13511428D01*
X14007143Y-13520952D01*
X13988095Y-13530476D01*
X13959524Y-13530476D01*
X14083333Y-13397143D02*
X14159524Y-13397143D01*
X14111905Y-13330476D02*
X14111905Y-13501905D01*
X14121428Y-13520952D01*
X14140476Y-13530476D01*
X14159524Y-13530476D01*
X14378571Y-13397143D02*
X14378571Y-13597143D01*
X14378571Y-13406667D02*
X14397619Y-13397143D01*
X14435714Y-13397143D01*
X14454762Y-13406667D01*
X14464286Y-13416190D01*
X14473809Y-13435238D01*
X14473809Y-13492381D01*
X14464286Y-13511428D01*
X14454762Y-13520952D01*
X14435714Y-13530476D01*
X14397619Y-13530476D01*
X14378571Y-13520952D01*
X14588095Y-13530476D02*
X14569048Y-13520952D01*
X14559524Y-13501905D01*
X14559524Y-13330476D01*
X14750000Y-13530476D02*
X14750000Y-13425714D01*
X14740476Y-13406667D01*
X14721428Y-13397143D01*
X14683333Y-13397143D01*
X14664286Y-13406667D01*
X14750000Y-13520952D02*
X14730952Y-13530476D01*
X14683333Y-13530476D01*
X14664286Y-13520952D01*
X14654762Y-13501905D01*
X14654762Y-13482857D01*
X14664286Y-13463809D01*
X14683333Y-13454286D01*
X14730952Y-13454286D01*
X14750000Y-13444762D01*
X14816667Y-13397143D02*
X14892857Y-13397143D01*
X14845238Y-13330476D02*
X14845238Y-13501905D01*
X14854762Y-13520952D01*
X14873809Y-13530476D01*
X14892857Y-13530476D01*
X15035714Y-13520952D02*
X15016667Y-13530476D01*
X14978571Y-13530476D01*
X14959524Y-13520952D01*
X14950000Y-13501905D01*
X14950000Y-13425714D01*
X14959524Y-13406667D01*
X14978571Y-13397143D01*
X15016667Y-13397143D01*
X15035714Y-13406667D01*
X15045238Y-13425714D01*
X15045238Y-13444762D01*
X14950000Y-13463809D01*
X15216667Y-13530476D02*
X15216667Y-13330476D01*
X15216667Y-13520952D02*
X15197619Y-13530476D01*
X15159524Y-13530476D01*
X15140476Y-13520952D01*
X15130952Y-13511428D01*
X15121428Y-13492381D01*
X15121428Y-13435238D01*
X15130952Y-13416190D01*
X15140476Y-13406667D01*
X15159524Y-13397143D01*
X15197619Y-13397143D01*
X15216667Y-13406667D01*
X15292857Y-13606667D02*
X15302381Y-13597143D01*
X15321428Y-13568571D01*
X15330952Y-13549524D01*
X15340476Y-13520952D01*
X15350000Y-13473333D01*
X15350000Y-13435238D01*
X15340476Y-13387619D01*
X15330952Y-13359048D01*
X15321428Y-13340000D01*
X15302381Y-13311428D01*
X15292857Y-13301905D01*
M02*
