M48
; DRILL file {KiCad (6.0.1)} date Tue Mar 29 14:07:42 2022
; FORMAT={-:-/ absolute / metric / decimal}
; #@! TF.CreationDate,2022-03-29T14:07:42-05:00
; #@! TF.GenerationSoftware,Kicad,Pcbnew,(6.0.1)
; #@! TF.FileFunction,Plated,1,2,PTH
FMAT,2
METRIC
; #@! TA.AperFunction,Plated,PTH,ViaDrill
T1C0.400
; #@! TA.AperFunction,Plated,PTH,ComponentDrill
T2C1.000
; #@! TA.AperFunction,Plated,PTH,ComponentDrill
T3C1.320
; #@! TA.AperFunction,Plated,PTH,ComponentDrill
T4C2.200
%
G90
G05
T1
X96.7Y-94.0
X109.4Y-115.5
X113.5Y-94.0
X114.6Y-115.6
X117.8Y-112.6
X118.6Y-108.3
X119.0Y-113.2
X119.3Y-109.5
X122.7Y-110.9
X122.7Y-112.7
X123.5Y-114.8
X124.7Y-113.3
X129.6Y-94.1
X132.9Y-109.0
X138.649Y-104.7
X142.0Y-110.5
X154.0Y-121.0
T2
X124.0Y-125.0
X129.0Y-125.0
X134.0Y-125.0
X147.0Y-125.0
X152.0Y-125.0
X167.0Y-109.8
X167.0Y-116.0
T3
X99.735Y-85.0
X104.735Y-85.0
X116.735Y-85.0
X121.735Y-85.0
X132.735Y-85.0
X137.735Y-85.0
X148.735Y-85.0
X153.735Y-85.0
T4
X89.0Y-94.9
X89.0Y-101.32
X167.0Y-92.0
X167.1Y-99.5
T0
M30
