%FSLAX45Y45*%
G04 Gerber Fmt 4.5, Leading zero omitted, Abs format (unit mm)*
G04 Created by KiCad (PCBNEW (6.0.1)) date 2022-03-29 14:07:43*
%MOMM*%
%LPD*%
G01*
G04 APERTURE LIST*
%TA.AperFunction,Profile*%
%ADD10C,0.200000*%
%TD*%
%ADD11C,0.200000*%
%ADD12C,0.040000*%
%ADD13C,0.100000*%
%ADD14C,0.132000*%
%ADD15C,0.220000*%
G04 APERTURE END LIST*
D10*
X8550000Y-7790000D02*
X17050000Y-7790000D01*
X17050000Y-7790000D02*
X17050000Y-12790000D01*
X17050000Y-12790000D02*
X8550000Y-12790000D01*
X8550000Y-12790000D02*
X8550000Y-7790000D01*
D11*
D12*
X9650000Y-9380000D02*
X9690000Y-9420000D01*
X9690000Y-9380000D02*
X9650000Y-9420000D01*
X10920000Y-11530000D02*
X10960000Y-11570000D01*
X10960000Y-11530000D02*
X10920000Y-11570000D01*
X11330000Y-9380000D02*
X11370000Y-9420000D01*
X11370000Y-9380000D02*
X11330000Y-9420000D01*
X11440000Y-11540000D02*
X11480000Y-11580000D01*
X11480000Y-11540000D02*
X11440000Y-11580000D01*
X11760000Y-11240000D02*
X11800000Y-11280000D01*
X11800000Y-11240000D02*
X11760000Y-11280000D01*
X11840000Y-10810000D02*
X11880000Y-10850000D01*
X11880000Y-10810000D02*
X11840000Y-10850000D01*
X11880000Y-11300000D02*
X11920000Y-11340000D01*
X11920000Y-11300000D02*
X11880000Y-11340000D01*
X11910000Y-10930000D02*
X11950000Y-10970000D01*
X11950000Y-10930000D02*
X11910000Y-10970000D01*
X12250000Y-11070000D02*
X12290000Y-11110000D01*
X12290000Y-11070000D02*
X12250000Y-11110000D01*
X12250000Y-11250000D02*
X12290000Y-11290000D01*
X12290000Y-11250000D02*
X12250000Y-11290000D01*
X12330000Y-11460000D02*
X12370000Y-11500000D01*
X12370000Y-11460000D02*
X12330000Y-11500000D01*
X12450000Y-11310000D02*
X12490000Y-11350000D01*
X12490000Y-11310000D02*
X12450000Y-11350000D01*
X12940000Y-9390000D02*
X12980000Y-9430000D01*
X12980000Y-9390000D02*
X12940000Y-9430000D01*
X13270000Y-10880000D02*
X13310000Y-10920000D01*
X13310000Y-10880000D02*
X13270000Y-10920000D01*
X13844950Y-10450000D02*
X13884950Y-10490000D01*
X13884950Y-10450000D02*
X13844950Y-10490000D01*
X14180000Y-11030000D02*
X14220000Y-11070000D01*
X14220000Y-11030000D02*
X14180000Y-11070000D01*
X15380000Y-12080000D02*
X15420000Y-12120000D01*
X15420000Y-12080000D02*
X15380000Y-12120000D01*
D13*
X12450000Y-12500000D02*
G75*
G03*
X12450000Y-12500000I-50000J0D01*
G01*
X12950000Y-12500000D02*
G75*
G03*
X12950000Y-12500000I-50000J0D01*
G01*
X13450000Y-12500000D02*
G75*
G03*
X13450000Y-12500000I-50000J0D01*
G01*
X14750000Y-12500000D02*
G75*
G03*
X14750000Y-12500000I-50000J0D01*
G01*
X15250000Y-12500000D02*
G75*
G03*
X15250000Y-12500000I-50000J0D01*
G01*
X16750000Y-10980000D02*
G75*
G03*
X16750000Y-10980000I-50000J0D01*
G01*
X16750000Y-11600000D02*
G75*
G03*
X16750000Y-11600000I-50000J0D01*
G01*
D14*
X9973500Y-8434000D02*
X9973500Y-8566000D01*
X9907500Y-8500000D02*
X10039500Y-8500000D01*
X10473500Y-8434000D02*
X10473500Y-8566000D01*
X10407500Y-8500000D02*
X10539500Y-8500000D01*
X11673500Y-8434000D02*
X11673500Y-8566000D01*
X11607500Y-8500000D02*
X11739500Y-8500000D01*
X12173500Y-8434000D02*
X12173500Y-8566000D01*
X12107500Y-8500000D02*
X12239500Y-8500000D01*
X13273500Y-8434000D02*
X13273500Y-8566000D01*
X13207500Y-8500000D02*
X13339500Y-8500000D01*
X13773500Y-8434000D02*
X13773500Y-8566000D01*
X13707500Y-8500000D02*
X13839500Y-8500000D01*
X14873500Y-8434000D02*
X14873500Y-8566000D01*
X14807500Y-8500000D02*
X14939500Y-8500000D01*
X15373500Y-8434000D02*
X15373500Y-8566000D01*
X15307500Y-8500000D02*
X15439500Y-8500000D01*
D15*
X8977783Y-9567783D02*
X8977783Y-9412218D01*
X8822218Y-9412218D01*
X8822218Y-9567783D01*
X8977783Y-9567783D01*
X8977783Y-10209783D02*
X8977783Y-10054218D01*
X8822218Y-10054218D01*
X8822218Y-10209783D01*
X8977783Y-10209783D01*
X16777783Y-9277783D02*
X16777783Y-9122218D01*
X16622217Y-9122218D01*
X16622217Y-9277783D01*
X16777783Y-9277783D01*
X16787783Y-10027783D02*
X16787783Y-9872218D01*
X16632217Y-9872218D01*
X16632217Y-10027783D01*
X16787783Y-10027783D01*
D11*
X8797619Y-13110476D02*
X8797619Y-12910476D01*
X8845238Y-12910476D01*
X8873810Y-12920000D01*
X8892857Y-12939048D01*
X8902381Y-12958095D01*
X8911905Y-12996190D01*
X8911905Y-13024762D01*
X8902381Y-13062857D01*
X8892857Y-13081905D01*
X8873810Y-13100952D01*
X8845238Y-13110476D01*
X8797619Y-13110476D01*
X8997619Y-13110476D02*
X8997619Y-12977143D01*
X8997619Y-13015238D02*
X9007143Y-12996190D01*
X9016667Y-12986667D01*
X9035714Y-12977143D01*
X9054762Y-12977143D01*
X9121429Y-13110476D02*
X9121429Y-12977143D01*
X9121429Y-12910476D02*
X9111905Y-12920000D01*
X9121429Y-12929524D01*
X9130952Y-12920000D01*
X9121429Y-12910476D01*
X9121429Y-12929524D01*
X9245238Y-13110476D02*
X9226190Y-13100952D01*
X9216667Y-13081905D01*
X9216667Y-12910476D01*
X9350000Y-13110476D02*
X9330952Y-13100952D01*
X9321429Y-13081905D01*
X9321429Y-12910476D01*
X9578571Y-13110476D02*
X9578571Y-12910476D01*
X9645238Y-13053333D01*
X9711905Y-12910476D01*
X9711905Y-13110476D01*
X9892857Y-13110476D02*
X9892857Y-13005714D01*
X9883333Y-12986667D01*
X9864286Y-12977143D01*
X9826190Y-12977143D01*
X9807143Y-12986667D01*
X9892857Y-13100952D02*
X9873810Y-13110476D01*
X9826190Y-13110476D01*
X9807143Y-13100952D01*
X9797619Y-13081905D01*
X9797619Y-13062857D01*
X9807143Y-13043809D01*
X9826190Y-13034286D01*
X9873810Y-13034286D01*
X9892857Y-13024762D01*
X9988095Y-12977143D02*
X9988095Y-13177143D01*
X9988095Y-12986667D02*
X10007143Y-12977143D01*
X10045238Y-12977143D01*
X10064286Y-12986667D01*
X10073810Y-12996190D01*
X10083333Y-13015238D01*
X10083333Y-13072381D01*
X10073810Y-13091428D01*
X10064286Y-13100952D01*
X10045238Y-13110476D01*
X10007143Y-13110476D01*
X9988095Y-13100952D01*
X10169048Y-13091428D02*
X10178571Y-13100952D01*
X10169048Y-13110476D01*
X10159524Y-13100952D01*
X10169048Y-13091428D01*
X10169048Y-13110476D01*
X10169048Y-12986667D02*
X10178571Y-12996190D01*
X10169048Y-13005714D01*
X10159524Y-12996190D01*
X10169048Y-12986667D01*
X10169048Y-13005714D01*
D12*
X8500000Y-13420000D02*
X8540000Y-13460000D01*
X8540000Y-13420000D02*
X8500000Y-13460000D01*
D11*
X8835714Y-13330476D02*
X8854762Y-13330476D01*
X8873810Y-13340000D01*
X8883333Y-13349524D01*
X8892857Y-13368571D01*
X8902381Y-13406667D01*
X8902381Y-13454286D01*
X8892857Y-13492381D01*
X8883333Y-13511428D01*
X8873810Y-13520952D01*
X8854762Y-13530476D01*
X8835714Y-13530476D01*
X8816667Y-13520952D01*
X8807143Y-13511428D01*
X8797619Y-13492381D01*
X8788095Y-13454286D01*
X8788095Y-13406667D01*
X8797619Y-13368571D01*
X8807143Y-13349524D01*
X8816667Y-13340000D01*
X8835714Y-13330476D01*
X8988095Y-13511428D02*
X8997619Y-13520952D01*
X8988095Y-13530476D01*
X8978571Y-13520952D01*
X8988095Y-13511428D01*
X8988095Y-13530476D01*
X9169048Y-13397143D02*
X9169048Y-13530476D01*
X9121429Y-13320952D02*
X9073810Y-13463809D01*
X9197619Y-13463809D01*
X9311905Y-13330476D02*
X9330952Y-13330476D01*
X9350000Y-13340000D01*
X9359524Y-13349524D01*
X9369048Y-13368571D01*
X9378571Y-13406667D01*
X9378571Y-13454286D01*
X9369048Y-13492381D01*
X9359524Y-13511428D01*
X9350000Y-13520952D01*
X9330952Y-13530476D01*
X9311905Y-13530476D01*
X9292857Y-13520952D01*
X9283333Y-13511428D01*
X9273810Y-13492381D01*
X9264286Y-13454286D01*
X9264286Y-13406667D01*
X9273810Y-13368571D01*
X9283333Y-13349524D01*
X9292857Y-13340000D01*
X9311905Y-13330476D01*
X9502381Y-13330476D02*
X9521429Y-13330476D01*
X9540476Y-13340000D01*
X9550000Y-13349524D01*
X9559524Y-13368571D01*
X9569048Y-13406667D01*
X9569048Y-13454286D01*
X9559524Y-13492381D01*
X9550000Y-13511428D01*
X9540476Y-13520952D01*
X9521429Y-13530476D01*
X9502381Y-13530476D01*
X9483333Y-13520952D01*
X9473810Y-13511428D01*
X9464286Y-13492381D01*
X9454762Y-13454286D01*
X9454762Y-13406667D01*
X9464286Y-13368571D01*
X9473810Y-13349524D01*
X9483333Y-13340000D01*
X9502381Y-13330476D01*
X9654762Y-13530476D02*
X9654762Y-13397143D01*
X9654762Y-13416190D02*
X9664286Y-13406667D01*
X9683333Y-13397143D01*
X9711905Y-13397143D01*
X9730952Y-13406667D01*
X9740476Y-13425714D01*
X9740476Y-13530476D01*
X9740476Y-13425714D02*
X9750000Y-13406667D01*
X9769048Y-13397143D01*
X9797619Y-13397143D01*
X9816667Y-13406667D01*
X9826190Y-13425714D01*
X9826190Y-13530476D01*
X9921429Y-13530476D02*
X9921429Y-13397143D01*
X9921429Y-13416190D02*
X9930952Y-13406667D01*
X9950000Y-13397143D01*
X9978571Y-13397143D01*
X9997619Y-13406667D01*
X10007143Y-13425714D01*
X10007143Y-13530476D01*
X10007143Y-13425714D02*
X10016667Y-13406667D01*
X10035714Y-13397143D01*
X10064286Y-13397143D01*
X10083333Y-13406667D01*
X10092857Y-13425714D01*
X10092857Y-13530476D01*
X10483333Y-13320952D02*
X10311905Y-13578095D01*
X10740476Y-13330476D02*
X10759524Y-13330476D01*
X10778571Y-13340000D01*
X10788095Y-13349524D01*
X10797619Y-13368571D01*
X10807143Y-13406667D01*
X10807143Y-13454286D01*
X10797619Y-13492381D01*
X10788095Y-13511428D01*
X10778571Y-13520952D01*
X10759524Y-13530476D01*
X10740476Y-13530476D01*
X10721429Y-13520952D01*
X10711905Y-13511428D01*
X10702381Y-13492381D01*
X10692857Y-13454286D01*
X10692857Y-13406667D01*
X10702381Y-13368571D01*
X10711905Y-13349524D01*
X10721429Y-13340000D01*
X10740476Y-13330476D01*
X10892857Y-13511428D02*
X10902381Y-13520952D01*
X10892857Y-13530476D01*
X10883333Y-13520952D01*
X10892857Y-13511428D01*
X10892857Y-13530476D01*
X11026190Y-13330476D02*
X11045238Y-13330476D01*
X11064286Y-13340000D01*
X11073810Y-13349524D01*
X11083333Y-13368571D01*
X11092857Y-13406667D01*
X11092857Y-13454286D01*
X11083333Y-13492381D01*
X11073810Y-13511428D01*
X11064286Y-13520952D01*
X11045238Y-13530476D01*
X11026190Y-13530476D01*
X11007143Y-13520952D01*
X10997619Y-13511428D01*
X10988095Y-13492381D01*
X10978571Y-13454286D01*
X10978571Y-13406667D01*
X10988095Y-13368571D01*
X10997619Y-13349524D01*
X11007143Y-13340000D01*
X11026190Y-13330476D01*
X11283333Y-13530476D02*
X11169048Y-13530476D01*
X11226190Y-13530476D02*
X11226190Y-13330476D01*
X11207143Y-13359048D01*
X11188095Y-13378095D01*
X11169048Y-13387619D01*
X11464286Y-13330476D02*
X11369048Y-13330476D01*
X11359524Y-13425714D01*
X11369048Y-13416190D01*
X11388095Y-13406667D01*
X11435714Y-13406667D01*
X11454762Y-13416190D01*
X11464286Y-13425714D01*
X11473809Y-13444762D01*
X11473809Y-13492381D01*
X11464286Y-13511428D01*
X11454762Y-13520952D01*
X11435714Y-13530476D01*
X11388095Y-13530476D01*
X11369048Y-13520952D01*
X11359524Y-13511428D01*
X11540476Y-13330476D02*
X11673809Y-13330476D01*
X11588095Y-13530476D01*
X11740476Y-13330476D02*
X11740476Y-13368571D01*
X11816667Y-13330476D02*
X11816667Y-13368571D01*
X12111905Y-13606667D02*
X12102381Y-13597143D01*
X12083333Y-13568571D01*
X12073809Y-13549524D01*
X12064286Y-13520952D01*
X12054762Y-13473333D01*
X12054762Y-13435238D01*
X12064286Y-13387619D01*
X12073809Y-13359048D01*
X12083333Y-13340000D01*
X12102381Y-13311428D01*
X12111905Y-13301905D01*
X12292857Y-13530476D02*
X12178571Y-13530476D01*
X12235714Y-13530476D02*
X12235714Y-13330476D01*
X12216667Y-13359048D01*
X12197619Y-13378095D01*
X12178571Y-13387619D01*
X12359524Y-13330476D02*
X12492857Y-13330476D01*
X12407143Y-13530476D01*
X12721428Y-13530476D02*
X12721428Y-13330476D01*
X12807143Y-13530476D02*
X12807143Y-13425714D01*
X12797619Y-13406667D01*
X12778571Y-13397143D01*
X12750000Y-13397143D01*
X12730952Y-13406667D01*
X12721428Y-13416190D01*
X12930952Y-13530476D02*
X12911905Y-13520952D01*
X12902381Y-13511428D01*
X12892857Y-13492381D01*
X12892857Y-13435238D01*
X12902381Y-13416190D01*
X12911905Y-13406667D01*
X12930952Y-13397143D01*
X12959524Y-13397143D01*
X12978571Y-13406667D01*
X12988095Y-13416190D01*
X12997619Y-13435238D01*
X12997619Y-13492381D01*
X12988095Y-13511428D01*
X12978571Y-13520952D01*
X12959524Y-13530476D01*
X12930952Y-13530476D01*
X13111905Y-13530476D02*
X13092857Y-13520952D01*
X13083333Y-13501905D01*
X13083333Y-13330476D01*
X13264286Y-13520952D02*
X13245238Y-13530476D01*
X13207143Y-13530476D01*
X13188095Y-13520952D01*
X13178571Y-13501905D01*
X13178571Y-13425714D01*
X13188095Y-13406667D01*
X13207143Y-13397143D01*
X13245238Y-13397143D01*
X13264286Y-13406667D01*
X13273809Y-13425714D01*
X13273809Y-13444762D01*
X13178571Y-13463809D01*
X13350000Y-13520952D02*
X13369048Y-13530476D01*
X13407143Y-13530476D01*
X13426190Y-13520952D01*
X13435714Y-13501905D01*
X13435714Y-13492381D01*
X13426190Y-13473333D01*
X13407143Y-13463809D01*
X13378571Y-13463809D01*
X13359524Y-13454286D01*
X13350000Y-13435238D01*
X13350000Y-13425714D01*
X13359524Y-13406667D01*
X13378571Y-13397143D01*
X13407143Y-13397143D01*
X13426190Y-13406667D01*
X13502381Y-13606667D02*
X13511905Y-13597143D01*
X13530952Y-13568571D01*
X13540476Y-13549524D01*
X13550000Y-13520952D01*
X13559524Y-13473333D01*
X13559524Y-13435238D01*
X13550000Y-13387619D01*
X13540476Y-13359048D01*
X13530952Y-13340000D01*
X13511905Y-13311428D01*
X13502381Y-13301905D01*
D13*
X8540000Y-13704000D02*
G75*
G03*
X8540000Y-13704000I-50000J0D01*
G01*
D11*
X8902381Y-13794476D02*
X8788095Y-13794476D01*
X8845238Y-13794476D02*
X8845238Y-13594476D01*
X8826190Y-13623048D01*
X8807143Y-13642095D01*
X8788095Y-13651619D01*
X8988095Y-13775428D02*
X8997619Y-13784952D01*
X8988095Y-13794476D01*
X8978571Y-13784952D01*
X8988095Y-13775428D01*
X8988095Y-13794476D01*
X9121429Y-13594476D02*
X9140476Y-13594476D01*
X9159524Y-13604000D01*
X9169048Y-13613524D01*
X9178571Y-13632571D01*
X9188095Y-13670667D01*
X9188095Y-13718286D01*
X9178571Y-13756381D01*
X9169048Y-13775428D01*
X9159524Y-13784952D01*
X9140476Y-13794476D01*
X9121429Y-13794476D01*
X9102381Y-13784952D01*
X9092857Y-13775428D01*
X9083333Y-13756381D01*
X9073810Y-13718286D01*
X9073810Y-13670667D01*
X9083333Y-13632571D01*
X9092857Y-13613524D01*
X9102381Y-13604000D01*
X9121429Y-13594476D01*
X9311905Y-13594476D02*
X9330952Y-13594476D01*
X9350000Y-13604000D01*
X9359524Y-13613524D01*
X9369048Y-13632571D01*
X9378571Y-13670667D01*
X9378571Y-13718286D01*
X9369048Y-13756381D01*
X9359524Y-13775428D01*
X9350000Y-13784952D01*
X9330952Y-13794476D01*
X9311905Y-13794476D01*
X9292857Y-13784952D01*
X9283333Y-13775428D01*
X9273810Y-13756381D01*
X9264286Y-13718286D01*
X9264286Y-13670667D01*
X9273810Y-13632571D01*
X9283333Y-13613524D01*
X9292857Y-13604000D01*
X9311905Y-13594476D01*
X9502381Y-13594476D02*
X9521429Y-13594476D01*
X9540476Y-13604000D01*
X9550000Y-13613524D01*
X9559524Y-13632571D01*
X9569048Y-13670667D01*
X9569048Y-13718286D01*
X9559524Y-13756381D01*
X9550000Y-13775428D01*
X9540476Y-13784952D01*
X9521429Y-13794476D01*
X9502381Y-13794476D01*
X9483333Y-13784952D01*
X9473810Y-13775428D01*
X9464286Y-13756381D01*
X9454762Y-13718286D01*
X9454762Y-13670667D01*
X9464286Y-13632571D01*
X9473810Y-13613524D01*
X9483333Y-13604000D01*
X9502381Y-13594476D01*
X9654762Y-13794476D02*
X9654762Y-13661143D01*
X9654762Y-13680190D02*
X9664286Y-13670667D01*
X9683333Y-13661143D01*
X9711905Y-13661143D01*
X9730952Y-13670667D01*
X9740476Y-13689714D01*
X9740476Y-13794476D01*
X9740476Y-13689714D02*
X9750000Y-13670667D01*
X9769048Y-13661143D01*
X9797619Y-13661143D01*
X9816667Y-13670667D01*
X9826190Y-13689714D01*
X9826190Y-13794476D01*
X9921429Y-13794476D02*
X9921429Y-13661143D01*
X9921429Y-13680190D02*
X9930952Y-13670667D01*
X9950000Y-13661143D01*
X9978571Y-13661143D01*
X9997619Y-13670667D01*
X10007143Y-13689714D01*
X10007143Y-13794476D01*
X10007143Y-13689714D02*
X10016667Y-13670667D01*
X10035714Y-13661143D01*
X10064286Y-13661143D01*
X10083333Y-13670667D01*
X10092857Y-13689714D01*
X10092857Y-13794476D01*
X10483333Y-13584952D02*
X10311905Y-13842095D01*
X10740476Y-13594476D02*
X10759524Y-13594476D01*
X10778571Y-13604000D01*
X10788095Y-13613524D01*
X10797619Y-13632571D01*
X10807143Y-13670667D01*
X10807143Y-13718286D01*
X10797619Y-13756381D01*
X10788095Y-13775428D01*
X10778571Y-13784952D01*
X10759524Y-13794476D01*
X10740476Y-13794476D01*
X10721429Y-13784952D01*
X10711905Y-13775428D01*
X10702381Y-13756381D01*
X10692857Y-13718286D01*
X10692857Y-13670667D01*
X10702381Y-13632571D01*
X10711905Y-13613524D01*
X10721429Y-13604000D01*
X10740476Y-13594476D01*
X10892857Y-13775428D02*
X10902381Y-13784952D01*
X10892857Y-13794476D01*
X10883333Y-13784952D01*
X10892857Y-13775428D01*
X10892857Y-13794476D01*
X11026190Y-13594476D02*
X11045238Y-13594476D01*
X11064286Y-13604000D01*
X11073810Y-13613524D01*
X11083333Y-13632571D01*
X11092857Y-13670667D01*
X11092857Y-13718286D01*
X11083333Y-13756381D01*
X11073810Y-13775428D01*
X11064286Y-13784952D01*
X11045238Y-13794476D01*
X11026190Y-13794476D01*
X11007143Y-13784952D01*
X10997619Y-13775428D01*
X10988095Y-13756381D01*
X10978571Y-13718286D01*
X10978571Y-13670667D01*
X10988095Y-13632571D01*
X10997619Y-13613524D01*
X11007143Y-13604000D01*
X11026190Y-13594476D01*
X11159524Y-13594476D02*
X11283333Y-13594476D01*
X11216667Y-13670667D01*
X11245238Y-13670667D01*
X11264286Y-13680190D01*
X11273809Y-13689714D01*
X11283333Y-13708762D01*
X11283333Y-13756381D01*
X11273809Y-13775428D01*
X11264286Y-13784952D01*
X11245238Y-13794476D01*
X11188095Y-13794476D01*
X11169048Y-13784952D01*
X11159524Y-13775428D01*
X11378571Y-13794476D02*
X11416667Y-13794476D01*
X11435714Y-13784952D01*
X11445238Y-13775428D01*
X11464286Y-13746857D01*
X11473809Y-13708762D01*
X11473809Y-13632571D01*
X11464286Y-13613524D01*
X11454762Y-13604000D01*
X11435714Y-13594476D01*
X11397619Y-13594476D01*
X11378571Y-13604000D01*
X11369048Y-13613524D01*
X11359524Y-13632571D01*
X11359524Y-13680190D01*
X11369048Y-13699238D01*
X11378571Y-13708762D01*
X11397619Y-13718286D01*
X11435714Y-13718286D01*
X11454762Y-13708762D01*
X11464286Y-13699238D01*
X11473809Y-13680190D01*
X11645238Y-13661143D02*
X11645238Y-13794476D01*
X11597619Y-13584952D02*
X11550000Y-13727809D01*
X11673809Y-13727809D01*
X11740476Y-13594476D02*
X11740476Y-13632571D01*
X11816667Y-13594476D02*
X11816667Y-13632571D01*
X12111905Y-13870667D02*
X12102381Y-13861143D01*
X12083333Y-13832571D01*
X12073809Y-13813524D01*
X12064286Y-13784952D01*
X12054762Y-13737333D01*
X12054762Y-13699238D01*
X12064286Y-13651619D01*
X12073809Y-13623048D01*
X12083333Y-13604000D01*
X12102381Y-13575428D01*
X12111905Y-13565905D01*
X12169048Y-13594476D02*
X12302381Y-13594476D01*
X12216667Y-13794476D01*
X12530952Y-13794476D02*
X12530952Y-13594476D01*
X12616667Y-13794476D02*
X12616667Y-13689714D01*
X12607143Y-13670667D01*
X12588095Y-13661143D01*
X12559524Y-13661143D01*
X12540476Y-13670667D01*
X12530952Y-13680190D01*
X12740476Y-13794476D02*
X12721428Y-13784952D01*
X12711905Y-13775428D01*
X12702381Y-13756381D01*
X12702381Y-13699238D01*
X12711905Y-13680190D01*
X12721428Y-13670667D01*
X12740476Y-13661143D01*
X12769048Y-13661143D01*
X12788095Y-13670667D01*
X12797619Y-13680190D01*
X12807143Y-13699238D01*
X12807143Y-13756381D01*
X12797619Y-13775428D01*
X12788095Y-13784952D01*
X12769048Y-13794476D01*
X12740476Y-13794476D01*
X12921428Y-13794476D02*
X12902381Y-13784952D01*
X12892857Y-13765905D01*
X12892857Y-13594476D01*
X13073809Y-13784952D02*
X13054762Y-13794476D01*
X13016667Y-13794476D01*
X12997619Y-13784952D01*
X12988095Y-13765905D01*
X12988095Y-13689714D01*
X12997619Y-13670667D01*
X13016667Y-13661143D01*
X13054762Y-13661143D01*
X13073809Y-13670667D01*
X13083333Y-13689714D01*
X13083333Y-13708762D01*
X12988095Y-13727809D01*
X13159524Y-13784952D02*
X13178571Y-13794476D01*
X13216667Y-13794476D01*
X13235714Y-13784952D01*
X13245238Y-13765905D01*
X13245238Y-13756381D01*
X13235714Y-13737333D01*
X13216667Y-13727809D01*
X13188095Y-13727809D01*
X13169048Y-13718286D01*
X13159524Y-13699238D01*
X13159524Y-13689714D01*
X13169048Y-13670667D01*
X13188095Y-13661143D01*
X13216667Y-13661143D01*
X13235714Y-13670667D01*
X13311905Y-13870667D02*
X13321428Y-13861143D01*
X13340476Y-13832571D01*
X13350000Y-13813524D01*
X13359524Y-13784952D01*
X13369048Y-13737333D01*
X13369048Y-13699238D01*
X13359524Y-13651619D01*
X13350000Y-13623048D01*
X13340476Y-13604000D01*
X13321428Y-13575428D01*
X13311905Y-13565905D01*
D14*
X8474000Y-13902000D02*
X8474000Y-14034000D01*
X8408000Y-13968000D02*
X8540000Y-13968000D01*
D11*
X8902381Y-14058476D02*
X8788095Y-14058476D01*
X8845238Y-14058476D02*
X8845238Y-13858476D01*
X8826190Y-13887048D01*
X8807143Y-13906095D01*
X8788095Y-13915619D01*
X8988095Y-14039428D02*
X8997619Y-14048952D01*
X8988095Y-14058476D01*
X8978571Y-14048952D01*
X8988095Y-14039428D01*
X8988095Y-14058476D01*
X9064286Y-13858476D02*
X9188095Y-13858476D01*
X9121429Y-13934667D01*
X9150000Y-13934667D01*
X9169048Y-13944190D01*
X9178571Y-13953714D01*
X9188095Y-13972762D01*
X9188095Y-14020381D01*
X9178571Y-14039428D01*
X9169048Y-14048952D01*
X9150000Y-14058476D01*
X9092857Y-14058476D01*
X9073810Y-14048952D01*
X9064286Y-14039428D01*
X9264286Y-13877524D02*
X9273810Y-13868000D01*
X9292857Y-13858476D01*
X9340476Y-13858476D01*
X9359524Y-13868000D01*
X9369048Y-13877524D01*
X9378571Y-13896571D01*
X9378571Y-13915619D01*
X9369048Y-13944190D01*
X9254762Y-14058476D01*
X9378571Y-14058476D01*
X9502381Y-13858476D02*
X9521429Y-13858476D01*
X9540476Y-13868000D01*
X9550000Y-13877524D01*
X9559524Y-13896571D01*
X9569048Y-13934667D01*
X9569048Y-13982286D01*
X9559524Y-14020381D01*
X9550000Y-14039428D01*
X9540476Y-14048952D01*
X9521429Y-14058476D01*
X9502381Y-14058476D01*
X9483333Y-14048952D01*
X9473810Y-14039428D01*
X9464286Y-14020381D01*
X9454762Y-13982286D01*
X9454762Y-13934667D01*
X9464286Y-13896571D01*
X9473810Y-13877524D01*
X9483333Y-13868000D01*
X9502381Y-13858476D01*
X9654762Y-14058476D02*
X9654762Y-13925143D01*
X9654762Y-13944190D02*
X9664286Y-13934667D01*
X9683333Y-13925143D01*
X9711905Y-13925143D01*
X9730952Y-13934667D01*
X9740476Y-13953714D01*
X9740476Y-14058476D01*
X9740476Y-13953714D02*
X9750000Y-13934667D01*
X9769048Y-13925143D01*
X9797619Y-13925143D01*
X9816667Y-13934667D01*
X9826190Y-13953714D01*
X9826190Y-14058476D01*
X9921429Y-14058476D02*
X9921429Y-13925143D01*
X9921429Y-13944190D02*
X9930952Y-13934667D01*
X9950000Y-13925143D01*
X9978571Y-13925143D01*
X9997619Y-13934667D01*
X10007143Y-13953714D01*
X10007143Y-14058476D01*
X10007143Y-13953714D02*
X10016667Y-13934667D01*
X10035714Y-13925143D01*
X10064286Y-13925143D01*
X10083333Y-13934667D01*
X10092857Y-13953714D01*
X10092857Y-14058476D01*
X10483333Y-13848952D02*
X10311905Y-14106095D01*
X10740476Y-13858476D02*
X10759524Y-13858476D01*
X10778571Y-13868000D01*
X10788095Y-13877524D01*
X10797619Y-13896571D01*
X10807143Y-13934667D01*
X10807143Y-13982286D01*
X10797619Y-14020381D01*
X10788095Y-14039428D01*
X10778571Y-14048952D01*
X10759524Y-14058476D01*
X10740476Y-14058476D01*
X10721429Y-14048952D01*
X10711905Y-14039428D01*
X10702381Y-14020381D01*
X10692857Y-13982286D01*
X10692857Y-13934667D01*
X10702381Y-13896571D01*
X10711905Y-13877524D01*
X10721429Y-13868000D01*
X10740476Y-13858476D01*
X10892857Y-14039428D02*
X10902381Y-14048952D01*
X10892857Y-14058476D01*
X10883333Y-14048952D01*
X10892857Y-14039428D01*
X10892857Y-14058476D01*
X11026190Y-13858476D02*
X11045238Y-13858476D01*
X11064286Y-13868000D01*
X11073810Y-13877524D01*
X11083333Y-13896571D01*
X11092857Y-13934667D01*
X11092857Y-13982286D01*
X11083333Y-14020381D01*
X11073810Y-14039428D01*
X11064286Y-14048952D01*
X11045238Y-14058476D01*
X11026190Y-14058476D01*
X11007143Y-14048952D01*
X10997619Y-14039428D01*
X10988095Y-14020381D01*
X10978571Y-13982286D01*
X10978571Y-13934667D01*
X10988095Y-13896571D01*
X10997619Y-13877524D01*
X11007143Y-13868000D01*
X11026190Y-13858476D01*
X11273809Y-13858476D02*
X11178571Y-13858476D01*
X11169048Y-13953714D01*
X11178571Y-13944190D01*
X11197619Y-13934667D01*
X11245238Y-13934667D01*
X11264286Y-13944190D01*
X11273809Y-13953714D01*
X11283333Y-13972762D01*
X11283333Y-14020381D01*
X11273809Y-14039428D01*
X11264286Y-14048952D01*
X11245238Y-14058476D01*
X11197619Y-14058476D01*
X11178571Y-14048952D01*
X11169048Y-14039428D01*
X11359524Y-13877524D02*
X11369048Y-13868000D01*
X11388095Y-13858476D01*
X11435714Y-13858476D01*
X11454762Y-13868000D01*
X11464286Y-13877524D01*
X11473809Y-13896571D01*
X11473809Y-13915619D01*
X11464286Y-13944190D01*
X11350000Y-14058476D01*
X11473809Y-14058476D01*
X11597619Y-13858476D02*
X11616667Y-13858476D01*
X11635714Y-13868000D01*
X11645238Y-13877524D01*
X11654762Y-13896571D01*
X11664286Y-13934667D01*
X11664286Y-13982286D01*
X11654762Y-14020381D01*
X11645238Y-14039428D01*
X11635714Y-14048952D01*
X11616667Y-14058476D01*
X11597619Y-14058476D01*
X11578571Y-14048952D01*
X11569048Y-14039428D01*
X11559524Y-14020381D01*
X11550000Y-13982286D01*
X11550000Y-13934667D01*
X11559524Y-13896571D01*
X11569048Y-13877524D01*
X11578571Y-13868000D01*
X11597619Y-13858476D01*
X11740476Y-13858476D02*
X11740476Y-13896571D01*
X11816667Y-13858476D02*
X11816667Y-13896571D01*
X12111905Y-14134667D02*
X12102381Y-14125143D01*
X12083333Y-14096571D01*
X12073809Y-14077524D01*
X12064286Y-14048952D01*
X12054762Y-14001333D01*
X12054762Y-13963238D01*
X12064286Y-13915619D01*
X12073809Y-13887048D01*
X12083333Y-13868000D01*
X12102381Y-13839428D01*
X12111905Y-13829905D01*
X12216667Y-13944190D02*
X12197619Y-13934667D01*
X12188095Y-13925143D01*
X12178571Y-13906095D01*
X12178571Y-13896571D01*
X12188095Y-13877524D01*
X12197619Y-13868000D01*
X12216667Y-13858476D01*
X12254762Y-13858476D01*
X12273809Y-13868000D01*
X12283333Y-13877524D01*
X12292857Y-13896571D01*
X12292857Y-13906095D01*
X12283333Y-13925143D01*
X12273809Y-13934667D01*
X12254762Y-13944190D01*
X12216667Y-13944190D01*
X12197619Y-13953714D01*
X12188095Y-13963238D01*
X12178571Y-13982286D01*
X12178571Y-14020381D01*
X12188095Y-14039428D01*
X12197619Y-14048952D01*
X12216667Y-14058476D01*
X12254762Y-14058476D01*
X12273809Y-14048952D01*
X12283333Y-14039428D01*
X12292857Y-14020381D01*
X12292857Y-13982286D01*
X12283333Y-13963238D01*
X12273809Y-13953714D01*
X12254762Y-13944190D01*
X12530952Y-14058476D02*
X12530952Y-13858476D01*
X12616667Y-14058476D02*
X12616667Y-13953714D01*
X12607143Y-13934667D01*
X12588095Y-13925143D01*
X12559524Y-13925143D01*
X12540476Y-13934667D01*
X12530952Y-13944190D01*
X12740476Y-14058476D02*
X12721428Y-14048952D01*
X12711905Y-14039428D01*
X12702381Y-14020381D01*
X12702381Y-13963238D01*
X12711905Y-13944190D01*
X12721428Y-13934667D01*
X12740476Y-13925143D01*
X12769048Y-13925143D01*
X12788095Y-13934667D01*
X12797619Y-13944190D01*
X12807143Y-13963238D01*
X12807143Y-14020381D01*
X12797619Y-14039428D01*
X12788095Y-14048952D01*
X12769048Y-14058476D01*
X12740476Y-14058476D01*
X12921428Y-14058476D02*
X12902381Y-14048952D01*
X12892857Y-14029905D01*
X12892857Y-13858476D01*
X13073809Y-14048952D02*
X13054762Y-14058476D01*
X13016667Y-14058476D01*
X12997619Y-14048952D01*
X12988095Y-14029905D01*
X12988095Y-13953714D01*
X12997619Y-13934667D01*
X13016667Y-13925143D01*
X13054762Y-13925143D01*
X13073809Y-13934667D01*
X13083333Y-13953714D01*
X13083333Y-13972762D01*
X12988095Y-13991809D01*
X13159524Y-14048952D02*
X13178571Y-14058476D01*
X13216667Y-14058476D01*
X13235714Y-14048952D01*
X13245238Y-14029905D01*
X13245238Y-14020381D01*
X13235714Y-14001333D01*
X13216667Y-13991809D01*
X13188095Y-13991809D01*
X13169048Y-13982286D01*
X13159524Y-13963238D01*
X13159524Y-13953714D01*
X13169048Y-13934667D01*
X13188095Y-13925143D01*
X13216667Y-13925143D01*
X13235714Y-13934667D01*
X13311905Y-14134667D02*
X13321428Y-14125143D01*
X13340476Y-14096571D01*
X13350000Y-14077524D01*
X13359524Y-14048952D01*
X13369048Y-14001333D01*
X13369048Y-13963238D01*
X13359524Y-13915619D01*
X13350000Y-13887048D01*
X13340476Y-13868000D01*
X13321428Y-13839428D01*
X13311905Y-13829905D01*
X8510711Y-14302711D02*
X8510711Y-14161289D01*
X8369289Y-14161289D01*
X8369289Y-14302711D01*
X8510711Y-14302711D01*
X8788095Y-14141524D02*
X8797619Y-14132000D01*
X8816667Y-14122476D01*
X8864286Y-14122476D01*
X8883333Y-14132000D01*
X8892857Y-14141524D01*
X8902381Y-14160571D01*
X8902381Y-14179619D01*
X8892857Y-14208190D01*
X8778571Y-14322476D01*
X8902381Y-14322476D01*
X8988095Y-14303428D02*
X8997619Y-14312952D01*
X8988095Y-14322476D01*
X8978571Y-14312952D01*
X8988095Y-14303428D01*
X8988095Y-14322476D01*
X9073810Y-14141524D02*
X9083333Y-14132000D01*
X9102381Y-14122476D01*
X9150000Y-14122476D01*
X9169048Y-14132000D01*
X9178571Y-14141524D01*
X9188095Y-14160571D01*
X9188095Y-14179619D01*
X9178571Y-14208190D01*
X9064286Y-14322476D01*
X9188095Y-14322476D01*
X9311905Y-14122476D02*
X9330952Y-14122476D01*
X9350000Y-14132000D01*
X9359524Y-14141524D01*
X9369048Y-14160571D01*
X9378571Y-14198667D01*
X9378571Y-14246286D01*
X9369048Y-14284381D01*
X9359524Y-14303428D01*
X9350000Y-14312952D01*
X9330952Y-14322476D01*
X9311905Y-14322476D01*
X9292857Y-14312952D01*
X9283333Y-14303428D01*
X9273810Y-14284381D01*
X9264286Y-14246286D01*
X9264286Y-14198667D01*
X9273810Y-14160571D01*
X9283333Y-14141524D01*
X9292857Y-14132000D01*
X9311905Y-14122476D01*
X9502381Y-14122476D02*
X9521429Y-14122476D01*
X9540476Y-14132000D01*
X9550000Y-14141524D01*
X9559524Y-14160571D01*
X9569048Y-14198667D01*
X9569048Y-14246286D01*
X9559524Y-14284381D01*
X9550000Y-14303428D01*
X9540476Y-14312952D01*
X9521429Y-14322476D01*
X9502381Y-14322476D01*
X9483333Y-14312952D01*
X9473810Y-14303428D01*
X9464286Y-14284381D01*
X9454762Y-14246286D01*
X9454762Y-14198667D01*
X9464286Y-14160571D01*
X9473810Y-14141524D01*
X9483333Y-14132000D01*
X9502381Y-14122476D01*
X9654762Y-14322476D02*
X9654762Y-14189143D01*
X9654762Y-14208190D02*
X9664286Y-14198667D01*
X9683333Y-14189143D01*
X9711905Y-14189143D01*
X9730952Y-14198667D01*
X9740476Y-14217714D01*
X9740476Y-14322476D01*
X9740476Y-14217714D02*
X9750000Y-14198667D01*
X9769048Y-14189143D01*
X9797619Y-14189143D01*
X9816667Y-14198667D01*
X9826190Y-14217714D01*
X9826190Y-14322476D01*
X9921429Y-14322476D02*
X9921429Y-14189143D01*
X9921429Y-14208190D02*
X9930952Y-14198667D01*
X9950000Y-14189143D01*
X9978571Y-14189143D01*
X9997619Y-14198667D01*
X10007143Y-14217714D01*
X10007143Y-14322476D01*
X10007143Y-14217714D02*
X10016667Y-14198667D01*
X10035714Y-14189143D01*
X10064286Y-14189143D01*
X10083333Y-14198667D01*
X10092857Y-14217714D01*
X10092857Y-14322476D01*
X10483333Y-14112952D02*
X10311905Y-14370095D01*
X10740476Y-14122476D02*
X10759524Y-14122476D01*
X10778571Y-14132000D01*
X10788095Y-14141524D01*
X10797619Y-14160571D01*
X10807143Y-14198667D01*
X10807143Y-14246286D01*
X10797619Y-14284381D01*
X10788095Y-14303428D01*
X10778571Y-14312952D01*
X10759524Y-14322476D01*
X10740476Y-14322476D01*
X10721429Y-14312952D01*
X10711905Y-14303428D01*
X10702381Y-14284381D01*
X10692857Y-14246286D01*
X10692857Y-14198667D01*
X10702381Y-14160571D01*
X10711905Y-14141524D01*
X10721429Y-14132000D01*
X10740476Y-14122476D01*
X10892857Y-14303428D02*
X10902381Y-14312952D01*
X10892857Y-14322476D01*
X10883333Y-14312952D01*
X10892857Y-14303428D01*
X10892857Y-14322476D01*
X11026190Y-14122476D02*
X11045238Y-14122476D01*
X11064286Y-14132000D01*
X11073810Y-14141524D01*
X11083333Y-14160571D01*
X11092857Y-14198667D01*
X11092857Y-14246286D01*
X11083333Y-14284381D01*
X11073810Y-14303428D01*
X11064286Y-14312952D01*
X11045238Y-14322476D01*
X11026190Y-14322476D01*
X11007143Y-14312952D01*
X10997619Y-14303428D01*
X10988095Y-14284381D01*
X10978571Y-14246286D01*
X10978571Y-14198667D01*
X10988095Y-14160571D01*
X10997619Y-14141524D01*
X11007143Y-14132000D01*
X11026190Y-14122476D01*
X11207143Y-14208190D02*
X11188095Y-14198667D01*
X11178571Y-14189143D01*
X11169048Y-14170095D01*
X11169048Y-14160571D01*
X11178571Y-14141524D01*
X11188095Y-14132000D01*
X11207143Y-14122476D01*
X11245238Y-14122476D01*
X11264286Y-14132000D01*
X11273809Y-14141524D01*
X11283333Y-14160571D01*
X11283333Y-14170095D01*
X11273809Y-14189143D01*
X11264286Y-14198667D01*
X11245238Y-14208190D01*
X11207143Y-14208190D01*
X11188095Y-14217714D01*
X11178571Y-14227238D01*
X11169048Y-14246286D01*
X11169048Y-14284381D01*
X11178571Y-14303428D01*
X11188095Y-14312952D01*
X11207143Y-14322476D01*
X11245238Y-14322476D01*
X11264286Y-14312952D01*
X11273809Y-14303428D01*
X11283333Y-14284381D01*
X11283333Y-14246286D01*
X11273809Y-14227238D01*
X11264286Y-14217714D01*
X11245238Y-14208190D01*
X11454762Y-14122476D02*
X11416667Y-14122476D01*
X11397619Y-14132000D01*
X11388095Y-14141524D01*
X11369048Y-14170095D01*
X11359524Y-14208190D01*
X11359524Y-14284381D01*
X11369048Y-14303428D01*
X11378571Y-14312952D01*
X11397619Y-14322476D01*
X11435714Y-14322476D01*
X11454762Y-14312952D01*
X11464286Y-14303428D01*
X11473809Y-14284381D01*
X11473809Y-14236762D01*
X11464286Y-14217714D01*
X11454762Y-14208190D01*
X11435714Y-14198667D01*
X11397619Y-14198667D01*
X11378571Y-14208190D01*
X11369048Y-14217714D01*
X11359524Y-14236762D01*
X11645238Y-14122476D02*
X11607143Y-14122476D01*
X11588095Y-14132000D01*
X11578571Y-14141524D01*
X11559524Y-14170095D01*
X11550000Y-14208190D01*
X11550000Y-14284381D01*
X11559524Y-14303428D01*
X11569048Y-14312952D01*
X11588095Y-14322476D01*
X11626190Y-14322476D01*
X11645238Y-14312952D01*
X11654762Y-14303428D01*
X11664286Y-14284381D01*
X11664286Y-14236762D01*
X11654762Y-14217714D01*
X11645238Y-14208190D01*
X11626190Y-14198667D01*
X11588095Y-14198667D01*
X11569048Y-14208190D01*
X11559524Y-14217714D01*
X11550000Y-14236762D01*
X11740476Y-14122476D02*
X11740476Y-14160571D01*
X11816667Y-14122476D02*
X11816667Y-14160571D01*
X12111905Y-14398667D02*
X12102381Y-14389143D01*
X12083333Y-14360571D01*
X12073809Y-14341524D01*
X12064286Y-14312952D01*
X12054762Y-14265333D01*
X12054762Y-14227238D01*
X12064286Y-14179619D01*
X12073809Y-14151048D01*
X12083333Y-14132000D01*
X12102381Y-14103428D01*
X12111905Y-14093905D01*
X12273809Y-14189143D02*
X12273809Y-14322476D01*
X12226190Y-14112952D02*
X12178571Y-14255809D01*
X12302381Y-14255809D01*
X12530952Y-14322476D02*
X12530952Y-14122476D01*
X12616667Y-14322476D02*
X12616667Y-14217714D01*
X12607143Y-14198667D01*
X12588095Y-14189143D01*
X12559524Y-14189143D01*
X12540476Y-14198667D01*
X12530952Y-14208190D01*
X12740476Y-14322476D02*
X12721428Y-14312952D01*
X12711905Y-14303428D01*
X12702381Y-14284381D01*
X12702381Y-14227238D01*
X12711905Y-14208190D01*
X12721428Y-14198667D01*
X12740476Y-14189143D01*
X12769048Y-14189143D01*
X12788095Y-14198667D01*
X12797619Y-14208190D01*
X12807143Y-14227238D01*
X12807143Y-14284381D01*
X12797619Y-14303428D01*
X12788095Y-14312952D01*
X12769048Y-14322476D01*
X12740476Y-14322476D01*
X12921428Y-14322476D02*
X12902381Y-14312952D01*
X12892857Y-14293905D01*
X12892857Y-14122476D01*
X13073809Y-14312952D02*
X13054762Y-14322476D01*
X13016667Y-14322476D01*
X12997619Y-14312952D01*
X12988095Y-14293905D01*
X12988095Y-14217714D01*
X12997619Y-14198667D01*
X13016667Y-14189143D01*
X13054762Y-14189143D01*
X13073809Y-14198667D01*
X13083333Y-14217714D01*
X13083333Y-14236762D01*
X12988095Y-14255809D01*
X13159524Y-14312952D02*
X13178571Y-14322476D01*
X13216667Y-14322476D01*
X13235714Y-14312952D01*
X13245238Y-14293905D01*
X13245238Y-14284381D01*
X13235714Y-14265333D01*
X13216667Y-14255809D01*
X13188095Y-14255809D01*
X13169048Y-14246286D01*
X13159524Y-14227238D01*
X13159524Y-14217714D01*
X13169048Y-14198667D01*
X13188095Y-14189143D01*
X13216667Y-14189143D01*
X13235714Y-14198667D01*
X13311905Y-14398667D02*
X13321428Y-14389143D01*
X13340476Y-14360571D01*
X13350000Y-14341524D01*
X13359524Y-14312952D01*
X13369048Y-14265333D01*
X13369048Y-14227238D01*
X13359524Y-14179619D01*
X13350000Y-14151048D01*
X13340476Y-14132000D01*
X13321428Y-14103428D01*
X13311905Y-14093905D01*
M02*
