%TF.GenerationSoftware,KiCad,Pcbnew,(6.0.1)*%
%TF.CreationDate,2022-03-29T14:07:41-05:00*%
%TF.ProjectId,light_board,6c696768-745f-4626-9f61-72642e6b6963,rev?*%
%TF.SameCoordinates,Original*%
%TF.FileFunction,Soldermask,Top*%
%TF.FilePolarity,Negative*%
%FSLAX46Y46*%
G04 Gerber Fmt 4.6, Leading zero omitted, Abs format (unit mm)*
G04 Created by KiCad (PCBNEW (6.0.1)) date 2022-03-29 14:07:41*
%MOMM*%
%LPD*%
G01*
G04 APERTURE LIST*
G04 Aperture macros list*
%AMRoundRect*
0 Rectangle with rounded corners*
0 $1 Rounding radius*
0 $2 $3 $4 $5 $6 $7 $8 $9 X,Y pos of 4 corners*
0 Add a 4 corners polygon primitive as box body*
4,1,4,$2,$3,$4,$5,$6,$7,$8,$9,$2,$3,0*
0 Add four circle primitives for the rounded corners*
1,1,$1+$1,$2,$3*
1,1,$1+$1,$4,$5*
1,1,$1+$1,$6,$7*
1,1,$1+$1,$8,$9*
0 Add four rect primitives between the rounded corners*
20,1,$1+$1,$2,$3,$4,$5,0*
20,1,$1+$1,$4,$5,$6,$7,0*
20,1,$1+$1,$6,$7,$8,$9,0*
20,1,$1+$1,$8,$9,$2,$3,0*%
%AMFreePoly0*
4,1,6,1.000000,0.000000,0.500000,-0.750000,-0.500000,-0.750000,-0.500000,0.750000,0.500000,0.750000,1.000000,0.000000,1.000000,0.000000,$1*%
%AMFreePoly1*
4,1,6,0.500000,-0.750000,-0.650000,-0.750000,-0.150000,0.000000,-0.650000,0.750000,0.500000,0.750000,0.500000,-0.750000,0.500000,-0.750000,$1*%
G04 Aperture macros list end*
%ADD10R,0.900000X1.200000*%
%ADD11RoundRect,0.150000X-0.825000X-0.150000X0.825000X-0.150000X0.825000X0.150000X-0.825000X0.150000X0*%
%ADD12FreePoly0,90.000000*%
%ADD13FreePoly1,90.000000*%
%ADD14R,1.700000X1.700000*%
%ADD15R,1.980000X3.960000*%
%ADD16O,1.980000X3.960000*%
%ADD17C,3.500000*%
%ADD18R,1.200000X2.200000*%
%ADD19R,5.800000X6.400000*%
%ADD20R,2.000000X0.800000*%
%ADD21C,4.400000*%
%ADD22RoundRect,0.200000X0.200000X0.275000X-0.200000X0.275000X-0.200000X-0.275000X0.200000X-0.275000X0*%
%ADD23RoundRect,0.200000X-0.200000X-0.275000X0.200000X-0.275000X0.200000X0.275000X-0.200000X0.275000X0*%
%ADD24FreePoly0,270.000000*%
%ADD25FreePoly1,270.000000*%
G04 APERTURE END LIST*
D10*
%TO.C,D3*%
X157150000Y-111000000D03*
X153850000Y-111000000D03*
%TD*%
D11*
%TO.C,Q6*%
X130995000Y-109205000D03*
X130995000Y-110475000D03*
X130995000Y-111745000D03*
X130995000Y-113015000D03*
X135945000Y-113015000D03*
X135945000Y-111745000D03*
X135945000Y-110475000D03*
X135945000Y-109205000D03*
%TD*%
D12*
%TO.C,JP1*%
X107000000Y-95725000D03*
D13*
X107000000Y-94275000D03*
%TD*%
D14*
%TO.C,J16*%
X152000000Y-125000000D03*
%TD*%
%TO.C,J6*%
X167000000Y-116000000D03*
%TD*%
%TO.C,J5*%
X134000000Y-125000000D03*
%TD*%
D15*
%TO.C,J9*%
X116735000Y-85000000D03*
D16*
X121735000Y-85000000D03*
%TD*%
D17*
%TO.C,H3*%
X90500000Y-82900000D03*
%TD*%
D18*
%TO.C,Q4*%
X135755000Y-94025000D03*
D19*
X133475000Y-100325000D03*
D18*
X131195000Y-94025000D03*
%TD*%
%TO.C,Q1*%
X102755000Y-94025000D03*
D19*
X100475000Y-100325000D03*
D18*
X98195000Y-94025000D03*
%TD*%
D14*
%TO.C,J17*%
X167000000Y-109800000D03*
%TD*%
D15*
%TO.C,J8*%
X99735000Y-85000000D03*
D16*
X104735000Y-85000000D03*
%TD*%
D14*
%TO.C,J3*%
X124000000Y-125000000D03*
%TD*%
D15*
%TO.C,J11*%
X148735000Y-85000000D03*
D16*
X153735000Y-85000000D03*
%TD*%
D12*
%TO.C,JP2*%
X124000000Y-95725000D03*
D13*
X124000000Y-94275000D03*
%TD*%
D17*
%TO.C,H1*%
X90500000Y-122900000D03*
%TD*%
D20*
%TO.C,K1*%
X152500000Y-106600000D03*
X152500000Y-101200000D03*
X158500000Y-101200000D03*
X158500000Y-106600000D03*
%TD*%
D21*
%TO.C,J12*%
X167000000Y-92000000D03*
%TD*%
D14*
%TO.C,J15*%
X147000000Y-125000000D03*
%TD*%
D22*
%TO.C,R2*%
X127825000Y-110400000D03*
X126175000Y-110400000D03*
%TD*%
D23*
%TO.C,R8*%
X139275000Y-110500000D03*
X140925000Y-110500000D03*
%TD*%
D24*
%TO.C,JP4*%
X154000000Y-118275000D03*
D25*
X154000000Y-119725000D03*
%TD*%
D15*
%TO.C,J10*%
X132735000Y-85000000D03*
D16*
X137735000Y-85000000D03*
%TD*%
D22*
%TO.C,R3*%
X105325000Y-113100000D03*
X103675000Y-113100000D03*
%TD*%
D17*
%TO.C,H4*%
X165500000Y-123100000D03*
%TD*%
D11*
%TO.C,Q5*%
X108655000Y-109205000D03*
X108655000Y-110475000D03*
X108655000Y-111745000D03*
X108655000Y-113015000D03*
X113605000Y-113015000D03*
X113605000Y-111745000D03*
X113605000Y-110475000D03*
X113605000Y-109205000D03*
%TD*%
D23*
%TO.C,R7*%
X117175000Y-110500000D03*
X118825000Y-110500000D03*
%TD*%
D21*
%TO.C,J2*%
X89000000Y-101320000D03*
%TD*%
D17*
%TO.C,H2*%
X165500000Y-82900000D03*
%TD*%
D18*
%TO.C,Q2*%
X119755000Y-94025000D03*
D19*
X117475000Y-100325000D03*
D18*
X115195000Y-94025000D03*
%TD*%
D14*
%TO.C,J4*%
X129000000Y-125000000D03*
%TD*%
D21*
%TO.C,J13*%
X167100000Y-99500000D03*
%TD*%
%TO.C,J1*%
X89000000Y-94900000D03*
%TD*%
D12*
%TO.C,JP3*%
X140000000Y-95725000D03*
D13*
X140000000Y-94275000D03*
%TD*%
D22*
%TO.C,R1*%
X105325000Y-110500000D03*
X103675000Y-110500000D03*
%TD*%
D23*
%TO.C,R5*%
X117075000Y-114200000D03*
X118725000Y-114200000D03*
%TD*%
M02*
