M48
; DRILL file {KiCad (6.0.1)} date Mon Mar  7 20:23:28 2022
; FORMAT={-:-/ absolute / metric / decimal}
; #@! TF.CreationDate,2022-03-07T20:23:28-06:00
; #@! TF.GenerationSoftware,Kicad,Pcbnew,(6.0.1)
; #@! TF.FileFunction,Plated,1,2,PTH
FMAT,2
METRIC
; #@! TA.AperFunction,Plated,PTH,ViaDrill
T1C0.400
; #@! TA.AperFunction,Plated,PTH,ComponentDrill
T2C1.000
; #@! TA.AperFunction,Plated,PTH,ComponentDrill
T3C1.320
%
G90
G05
T1
X106.52Y-113.75
X107.1Y-101.2
X110.0Y-110.6
X119.26Y-117.48
X119.29Y-115.32
X119.6Y-119.0
X123.7Y-111.5
X125.1Y-112.7
X126.4Y-119.3
X128.1Y-101.2
X128.54Y-114.3
X128.55Y-116.78
X129.7Y-112.2
X139.0Y-119.3
X141.8Y-119.4
X150.7Y-107.6
X150.8Y-111.7
X151.22Y-114.25
X153.5Y-115.7
X156.2Y-111.4
T2
X92.46Y-96.72
X92.46Y-101.72
X92.46Y-106.72
X122.5Y-121.9
X127.5Y-121.9
X132.5Y-121.9
X163.5Y-92.9
X163.5Y-98.9
X163.5Y-104.9
X163.5Y-110.9
X163.5Y-116.9
T3
X99.735Y-88.9
X104.735Y-88.9
X116.735Y-88.9
X121.735Y-88.9
X132.735Y-88.9
X137.735Y-88.9
X148.735Y-88.9
X153.735Y-88.9
T0
M30
