%TF.GenerationSoftware,KiCad,Pcbnew,(6.0.1)*%
%TF.CreationDate,2022-03-07T20:23:26-06:00*%
%TF.ProjectId,light_board,6c696768-745f-4626-9f61-72642e6b6963,rev?*%
%TF.SameCoordinates,Original*%
%TF.FileFunction,Soldermask,Top*%
%TF.FilePolarity,Negative*%
%FSLAX46Y46*%
G04 Gerber Fmt 4.6, Leading zero omitted, Abs format (unit mm)*
G04 Created by KiCad (PCBNEW (6.0.1)) date 2022-03-07 20:23:26*
%MOMM*%
%LPD*%
G01*
G04 APERTURE LIST*
G04 Aperture macros list*
%AMRoundRect*
0 Rectangle with rounded corners*
0 $1 Rounding radius*
0 $2 $3 $4 $5 $6 $7 $8 $9 X,Y pos of 4 corners*
0 Add a 4 corners polygon primitive as box body*
4,1,4,$2,$3,$4,$5,$6,$7,$8,$9,$2,$3,0*
0 Add four circle primitives for the rounded corners*
1,1,$1+$1,$2,$3*
1,1,$1+$1,$4,$5*
1,1,$1+$1,$6,$7*
1,1,$1+$1,$8,$9*
0 Add four rect primitives between the rounded corners*
20,1,$1+$1,$2,$3,$4,$5,0*
20,1,$1+$1,$4,$5,$6,$7,0*
20,1,$1+$1,$6,$7,$8,$9,0*
20,1,$1+$1,$8,$9,$2,$3,0*%
G04 Aperture macros list end*
%ADD10RoundRect,0.250000X-0.625000X0.312500X-0.625000X-0.312500X0.625000X-0.312500X0.625000X0.312500X0*%
%ADD11R,0.600000X0.700000*%
%ADD12RoundRect,0.150000X-0.825000X-0.150000X0.825000X-0.150000X0.825000X0.150000X-0.825000X0.150000X0*%
%ADD13R,1.700000X1.700000*%
%ADD14R,1.980000X3.960000*%
%ADD15O,1.980000X3.960000*%
%ADD16R,1.200000X2.200000*%
%ADD17R,5.800000X6.400000*%
%ADD18C,3.500000*%
%ADD19RoundRect,0.250000X0.625000X-0.312500X0.625000X0.312500X-0.625000X0.312500X-0.625000X-0.312500X0*%
%ADD20R,2.000000X0.800000*%
%ADD21RoundRect,0.250000X0.262500X0.450000X-0.262500X0.450000X-0.262500X-0.450000X0.262500X-0.450000X0*%
%ADD22RoundRect,0.250000X-0.262500X-0.450000X0.262500X-0.450000X0.262500X0.450000X-0.262500X0.450000X0*%
G04 APERTURE END LIST*
D10*
%TO.C,R9*%
X102500000Y-112437500D03*
X102500000Y-115362500D03*
%TD*%
D11*
%TO.C,D3*%
X154800000Y-109900000D03*
X156200000Y-109900000D03*
%TD*%
D12*
%TO.C,Q6*%
X140025000Y-112995000D03*
X140025000Y-114265000D03*
X140025000Y-115535000D03*
X140025000Y-116805000D03*
X144975000Y-116805000D03*
X144975000Y-115535000D03*
X144975000Y-114265000D03*
X144975000Y-112995000D03*
%TD*%
D13*
%TO.C,J6*%
X163500000Y-116900000D03*
%TD*%
%TO.C,J5*%
X132500000Y-121900000D03*
%TD*%
D14*
%TO.C,J9*%
X116735000Y-88900000D03*
D15*
X121735000Y-88900000D03*
%TD*%
D16*
%TO.C,Q3*%
X147780000Y-99700000D03*
D17*
X145500000Y-106000000D03*
D16*
X143220000Y-99700000D03*
%TD*%
D18*
%TO.C,H3*%
X90500000Y-82900000D03*
%TD*%
D16*
%TO.C,Q4*%
X136780000Y-99700000D03*
D17*
X134500000Y-106000000D03*
D16*
X132220000Y-99700000D03*
%TD*%
%TO.C,Q1*%
X103780000Y-99700000D03*
D17*
X101500000Y-106000000D03*
D16*
X99220000Y-99700000D03*
%TD*%
D13*
%TO.C,J17*%
X163500000Y-104900000D03*
%TD*%
D14*
%TO.C,J8*%
X99735000Y-88900000D03*
D15*
X104735000Y-88900000D03*
%TD*%
D13*
%TO.C,J3*%
X122500000Y-121900000D03*
%TD*%
D14*
%TO.C,J11*%
X148735000Y-88900000D03*
D15*
X153735000Y-88900000D03*
%TD*%
D19*
%TO.C,R10*%
X106500000Y-115362500D03*
X106500000Y-112437500D03*
%TD*%
D18*
%TO.C,H1*%
X90500000Y-122900000D03*
%TD*%
D20*
%TO.C,K1*%
X152500000Y-106600000D03*
X152500000Y-101200000D03*
X158500000Y-101200000D03*
X158500000Y-106600000D03*
%TD*%
D13*
%TO.C,J12*%
X163500000Y-98900000D03*
%TD*%
D21*
%TO.C,R2*%
X137152500Y-114270000D03*
X135327500Y-114270000D03*
%TD*%
D22*
%TO.C,R8*%
X148117500Y-114260000D03*
X149942500Y-114260000D03*
%TD*%
D13*
%TO.C,J14*%
X92460000Y-101720000D03*
%TD*%
D14*
%TO.C,J10*%
X132735000Y-88900000D03*
D15*
X137735000Y-88900000D03*
%TD*%
D21*
%TO.C,R3*%
X113822500Y-116830000D03*
X111997500Y-116830000D03*
%TD*%
D18*
%TO.C,H4*%
X165500000Y-123100000D03*
%TD*%
D12*
%TO.C,Q5*%
X117025000Y-112995000D03*
X117025000Y-114265000D03*
X117025000Y-115535000D03*
X117025000Y-116805000D03*
X121975000Y-116805000D03*
X121975000Y-115535000D03*
X121975000Y-114265000D03*
X121975000Y-112995000D03*
%TD*%
D22*
%TO.C,R7*%
X125457500Y-114290000D03*
X127282500Y-114290000D03*
%TD*%
D13*
%TO.C,J7*%
X163500000Y-110900000D03*
%TD*%
%TO.C,J2*%
X92460000Y-96720000D03*
%TD*%
D18*
%TO.C,H2*%
X165500000Y-82900000D03*
%TD*%
D16*
%TO.C,Q2*%
X120780000Y-99700000D03*
D17*
X118500000Y-106000000D03*
D16*
X116220000Y-99700000D03*
%TD*%
D13*
%TO.C,J4*%
X127500000Y-121900000D03*
%TD*%
%TO.C,J13*%
X163500000Y-92900000D03*
%TD*%
%TO.C,J1*%
X92460000Y-106720000D03*
%TD*%
D21*
%TO.C,R1*%
X113712500Y-114240000D03*
X111887500Y-114240000D03*
%TD*%
D22*
%TO.C,R5*%
X125457500Y-116790000D03*
X127282500Y-116790000D03*
%TD*%
M02*
