%TF.GenerationSoftware,KiCad,Pcbnew,(6.0.1)*%
%TF.CreationDate,2022-03-07T20:23:26-06:00*%
%TF.ProjectId,light_board,6c696768-745f-4626-9f61-72642e6b6963,rev?*%
%TF.SameCoordinates,Original*%
%TF.FileFunction,Copper,L2,Bot*%
%TF.FilePolarity,Positive*%
%FSLAX46Y46*%
G04 Gerber Fmt 4.6, Leading zero omitted, Abs format (unit mm)*
G04 Created by KiCad (PCBNEW (6.0.1)) date 2022-03-07 20:23:26*
%MOMM*%
%LPD*%
G01*
G04 APERTURE LIST*
%TA.AperFunction,ComponentPad*%
%ADD10R,1.700000X1.700000*%
%TD*%
%TA.AperFunction,ComponentPad*%
%ADD11R,1.980000X3.960000*%
%TD*%
%TA.AperFunction,ComponentPad*%
%ADD12O,1.980000X3.960000*%
%TD*%
%TA.AperFunction,ViaPad*%
%ADD13C,0.800000*%
%TD*%
%TA.AperFunction,Conductor*%
%ADD14C,0.300000*%
%TD*%
%TA.AperFunction,Conductor*%
%ADD15C,0.400000*%
%TD*%
G04 APERTURE END LIST*
D10*
%TO.P,J6,1,Pin_1*%
%TO.N,MCU_Bike*%
X163500000Y-116900000D03*
%TD*%
%TO.P,J5,1,Pin_1*%
%TO.N,MCU_L3*%
X132500000Y-121900000D03*
%TD*%
D11*
%TO.P,J9,1,Pin_1*%
%TO.N,Net-(J9-Pad1)*%
X116735000Y-88900000D03*
D12*
%TO.P,J9,2,Pin_2*%
%TO.N,GND*%
X121735000Y-88900000D03*
%TD*%
D10*
%TO.P,J17,1,Pin_1*%
%TO.N,GND1*%
X163500000Y-104900000D03*
%TD*%
D11*
%TO.P,J8,1,Pin_1*%
%TO.N,Net-(J8-Pad1)*%
X99735000Y-88900000D03*
D12*
%TO.P,J8,2,Pin_2*%
%TO.N,GND*%
X104735000Y-88900000D03*
%TD*%
D10*
%TO.P,J3,1,Pin_1*%
%TO.N,MCU_L1*%
X122500000Y-121900000D03*
%TD*%
D11*
%TO.P,J11,1,Pin_1*%
%TO.N,Net-(J11-Pad1)*%
X148735000Y-88900000D03*
D12*
%TO.P,J11,2,Pin_2*%
%TO.N,Earth*%
X153735000Y-88900000D03*
%TD*%
D10*
%TO.P,J12,1,Pin_1*%
%TO.N,VAC*%
X163500000Y-98900000D03*
%TD*%
%TO.P,J14,1,Pin_1*%
%TO.N,GND*%
X92460000Y-101720000D03*
%TD*%
D11*
%TO.P,J10,1,Pin_1*%
%TO.N,Net-(J10-Pad1)*%
X132735000Y-88900000D03*
D12*
%TO.P,J10,2,Pin_2*%
%TO.N,GND*%
X137735000Y-88900000D03*
%TD*%
D10*
%TO.P,J7,1,Pin_1*%
%TO.N,+5V*%
X163500000Y-110900000D03*
%TD*%
%TO.P,J2,1,Pin_1*%
%TO.N,GND*%
X92460000Y-96720000D03*
%TD*%
%TO.P,J4,1,Pin_1*%
%TO.N,MCU_L2*%
X127500000Y-121900000D03*
%TD*%
%TO.P,J13,1,Pin_1*%
%TO.N,Earth*%
X163500000Y-92900000D03*
%TD*%
%TO.P,J1,1,Pin_1*%
%TO.N,+24V*%
X92460000Y-106720000D03*
%TD*%
D13*
%TO.N,GND*%
X106520000Y-113750000D03*
X128540000Y-114300000D03*
X151220000Y-114250000D03*
X128550000Y-116780000D03*
%TO.N,L1*%
X125100000Y-112700000D03*
X107100000Y-101200000D03*
X123700000Y-111500000D03*
X110000000Y-110600000D03*
%TO.N,L2*%
X128100000Y-101200000D03*
X129700000Y-112200000D03*
%TO.N,MCU_L1*%
X119260000Y-117480000D03*
X119290000Y-115320000D03*
%TO.N,GND1*%
X141800000Y-119400000D03*
X119600000Y-119000000D03*
X153500000Y-115700000D03*
X126400000Y-119300000D03*
X139000000Y-119300000D03*
X156200000Y-111400000D03*
%TO.N,MCU_Bike*%
X150700000Y-107600000D03*
X150800000Y-111700000D03*
%TD*%
D14*
%TO.N,L1*%
X107100000Y-107700000D02*
X107100000Y-101200000D01*
X124900000Y-112700000D02*
X123700000Y-111500000D01*
X110000000Y-110600000D02*
X107100000Y-107700000D01*
X125100000Y-112700000D02*
X124900000Y-112700000D01*
%TO.N,L2*%
X128100000Y-101200000D02*
X128100000Y-110600000D01*
X128100000Y-110600000D02*
X129700000Y-112200000D01*
%TO.N,MCU_L1*%
X119260000Y-115350000D02*
X119260000Y-117480000D01*
X119290000Y-115320000D02*
X119260000Y-115350000D01*
D15*
%TO.N,GND1*%
X153500000Y-115700000D02*
X156200000Y-113000000D01*
X139000000Y-119300000D02*
X141700000Y-119300000D01*
X141700000Y-119300000D02*
X141800000Y-119400000D01*
X156200000Y-113000000D02*
X156200000Y-111400000D01*
X126100000Y-119000000D02*
X126400000Y-119300000D01*
X119600000Y-119000000D02*
X126100000Y-119000000D01*
D14*
%TO.N,MCU_Bike*%
X150800000Y-111700000D02*
X150800000Y-107700000D01*
X150800000Y-107700000D02*
X150700000Y-107600000D01*
%TD*%
%TA.AperFunction,Conductor*%
%TO.N,GND*%
G36*
X144442121Y-78428002D02*
G01*
X144488614Y-78481658D01*
X144500000Y-78534000D01*
X144500000Y-105500000D01*
X162015500Y-105500000D01*
X162083621Y-105520002D01*
X162130114Y-105573658D01*
X162141500Y-105626000D01*
X162141500Y-105798134D01*
X162148255Y-105860316D01*
X162199385Y-105996705D01*
X162286739Y-106113261D01*
X162403295Y-106200615D01*
X162539684Y-106251745D01*
X162601866Y-106258500D01*
X164398134Y-106258500D01*
X164460316Y-106251745D01*
X164596705Y-106200615D01*
X164713261Y-106113261D01*
X164800615Y-105996705D01*
X164851745Y-105860316D01*
X164858500Y-105798134D01*
X164858500Y-105626000D01*
X164878502Y-105557879D01*
X164932158Y-105511386D01*
X164984500Y-105500000D01*
X169866000Y-105500000D01*
X169934121Y-105520002D01*
X169980614Y-105573658D01*
X169992000Y-105626000D01*
X169992000Y-127266000D01*
X169971998Y-127334121D01*
X169918342Y-127380614D01*
X169866000Y-127392000D01*
X86134000Y-127392000D01*
X86065879Y-127371998D01*
X86019386Y-127318342D01*
X86008000Y-127266000D01*
X86008000Y-122947404D01*
X88236941Y-122947404D01*
X88263091Y-123246292D01*
X88264001Y-123250364D01*
X88264002Y-123250369D01*
X88327628Y-123535016D01*
X88328540Y-123539095D01*
X88432140Y-123820671D01*
X88434084Y-123824359D01*
X88434088Y-123824367D01*
X88539536Y-124024367D01*
X88572069Y-124086071D01*
X88745871Y-124330633D01*
X88950490Y-124550061D01*
X89182333Y-124740498D01*
X89437325Y-124898600D01*
X89710988Y-125021589D01*
X89806264Y-125049992D01*
X89994514Y-125106112D01*
X89994516Y-125106112D01*
X89998513Y-125107304D01*
X90002633Y-125107957D01*
X90002635Y-125107957D01*
X90121509Y-125126785D01*
X90294848Y-125154239D01*
X90337577Y-125156179D01*
X90387262Y-125158436D01*
X90387281Y-125158436D01*
X90388681Y-125158500D01*
X90576107Y-125158500D01*
X90799370Y-125143671D01*
X90803464Y-125142846D01*
X90803468Y-125142845D01*
X90944513Y-125114405D01*
X91093480Y-125084368D01*
X91377163Y-124986688D01*
X91380896Y-124984819D01*
X91380900Y-124984817D01*
X91641691Y-124854222D01*
X91641693Y-124854221D01*
X91645435Y-124852347D01*
X91893584Y-124683706D01*
X92117248Y-124483726D01*
X92144084Y-124452416D01*
X92309779Y-124259097D01*
X92309782Y-124259093D01*
X92312499Y-124255923D01*
X92314773Y-124252421D01*
X92314777Y-124252416D01*
X92473628Y-124007807D01*
X92473631Y-124007802D01*
X92475907Y-124004297D01*
X92604600Y-123733270D01*
X92630825Y-123651591D01*
X92695038Y-123451591D01*
X92695038Y-123451590D01*
X92696318Y-123447604D01*
X92749448Y-123152316D01*
X92749672Y-123147404D01*
X92762870Y-122856766D01*
X92762870Y-122856760D01*
X92763059Y-122852596D01*
X92762630Y-122847684D01*
X92758295Y-122798134D01*
X121141500Y-122798134D01*
X121148255Y-122860316D01*
X121199385Y-122996705D01*
X121286739Y-123113261D01*
X121403295Y-123200615D01*
X121539684Y-123251745D01*
X121601866Y-123258500D01*
X123398134Y-123258500D01*
X123460316Y-123251745D01*
X123596705Y-123200615D01*
X123713261Y-123113261D01*
X123800615Y-122996705D01*
X123851745Y-122860316D01*
X123858500Y-122798134D01*
X126141500Y-122798134D01*
X126148255Y-122860316D01*
X126199385Y-122996705D01*
X126286739Y-123113261D01*
X126403295Y-123200615D01*
X126539684Y-123251745D01*
X126601866Y-123258500D01*
X128398134Y-123258500D01*
X128460316Y-123251745D01*
X128596705Y-123200615D01*
X128713261Y-123113261D01*
X128800615Y-122996705D01*
X128851745Y-122860316D01*
X128858500Y-122798134D01*
X131141500Y-122798134D01*
X131148255Y-122860316D01*
X131199385Y-122996705D01*
X131286739Y-123113261D01*
X131403295Y-123200615D01*
X131539684Y-123251745D01*
X131601866Y-123258500D01*
X133398134Y-123258500D01*
X133460316Y-123251745D01*
X133596705Y-123200615D01*
X133667704Y-123147404D01*
X163236941Y-123147404D01*
X163237304Y-123151552D01*
X163237304Y-123151556D01*
X163246661Y-123258500D01*
X163263091Y-123446292D01*
X163264001Y-123450364D01*
X163264002Y-123450369D01*
X163326347Y-123729284D01*
X163328540Y-123739095D01*
X163432140Y-124020671D01*
X163434084Y-124024359D01*
X163434088Y-124024367D01*
X163530805Y-124207807D01*
X163572069Y-124286071D01*
X163745871Y-124530633D01*
X163950490Y-124750061D01*
X164182333Y-124940498D01*
X164437325Y-125098600D01*
X164710988Y-125221589D01*
X164885368Y-125273574D01*
X164994514Y-125306112D01*
X164994516Y-125306112D01*
X164998513Y-125307304D01*
X165002633Y-125307957D01*
X165002635Y-125307957D01*
X165121509Y-125326785D01*
X165294848Y-125354239D01*
X165337577Y-125356179D01*
X165387262Y-125358436D01*
X165387281Y-125358436D01*
X165388681Y-125358500D01*
X165576107Y-125358500D01*
X165799370Y-125343671D01*
X165803464Y-125342846D01*
X165803468Y-125342845D01*
X165944513Y-125314405D01*
X166093480Y-125284368D01*
X166377163Y-125186688D01*
X166380896Y-125184819D01*
X166380900Y-125184817D01*
X166641691Y-125054222D01*
X166641693Y-125054221D01*
X166645435Y-125052347D01*
X166893584Y-124883706D01*
X167117248Y-124683726D01*
X167119966Y-124680555D01*
X167309779Y-124459097D01*
X167309782Y-124459093D01*
X167312499Y-124455923D01*
X167314773Y-124452421D01*
X167314777Y-124452416D01*
X167473628Y-124207807D01*
X167473631Y-124207802D01*
X167475907Y-124204297D01*
X167604600Y-123933270D01*
X167642011Y-123816751D01*
X167695038Y-123651591D01*
X167695038Y-123651590D01*
X167696318Y-123647604D01*
X167732539Y-123446292D01*
X167748709Y-123356425D01*
X167748710Y-123356420D01*
X167749448Y-123352316D01*
X167753709Y-123258500D01*
X167762870Y-123056766D01*
X167762870Y-123056760D01*
X167763059Y-123052596D01*
X167757434Y-122988297D01*
X167737273Y-122757870D01*
X167736909Y-122753708D01*
X167712292Y-122643575D01*
X167672372Y-122464984D01*
X167672371Y-122464981D01*
X167671460Y-122460905D01*
X167567860Y-122179329D01*
X167565916Y-122175641D01*
X167565912Y-122175633D01*
X167429884Y-121917633D01*
X167429883Y-121917632D01*
X167427931Y-121913929D01*
X167254129Y-121669367D01*
X167049510Y-121449939D01*
X166817667Y-121259502D01*
X166562675Y-121101400D01*
X166289012Y-120978411D01*
X166075650Y-120914805D01*
X166005486Y-120893888D01*
X166005484Y-120893888D01*
X166001487Y-120892696D01*
X165997367Y-120892043D01*
X165997365Y-120892043D01*
X165878491Y-120873215D01*
X165705152Y-120845761D01*
X165662423Y-120843821D01*
X165612738Y-120841564D01*
X165612719Y-120841564D01*
X165611319Y-120841500D01*
X165423893Y-120841500D01*
X165200630Y-120856329D01*
X165196536Y-120857154D01*
X165196532Y-120857155D01*
X165055487Y-120885595D01*
X164906520Y-120915632D01*
X164622837Y-121013312D01*
X164619104Y-121015181D01*
X164619100Y-121015183D01*
X164358309Y-121145778D01*
X164354565Y-121147653D01*
X164106416Y-121316294D01*
X163882752Y-121516274D01*
X163880035Y-121519444D01*
X163880034Y-121519445D01*
X163754155Y-121666311D01*
X163687501Y-121744077D01*
X163685227Y-121747579D01*
X163685223Y-121747584D01*
X163526372Y-121992193D01*
X163524093Y-121995703D01*
X163395400Y-122266730D01*
X163394121Y-122270713D01*
X163394120Y-122270716D01*
X163367895Y-122352396D01*
X163303682Y-122552396D01*
X163250552Y-122847684D01*
X163250363Y-122851851D01*
X163250362Y-122851858D01*
X163238247Y-123118642D01*
X163236941Y-123147404D01*
X133667704Y-123147404D01*
X133713261Y-123113261D01*
X133800615Y-122996705D01*
X133851745Y-122860316D01*
X133858500Y-122798134D01*
X133858500Y-121001866D01*
X133851745Y-120939684D01*
X133800615Y-120803295D01*
X133713261Y-120686739D01*
X133596705Y-120599385D01*
X133460316Y-120548255D01*
X133398134Y-120541500D01*
X131601866Y-120541500D01*
X131539684Y-120548255D01*
X131403295Y-120599385D01*
X131286739Y-120686739D01*
X131199385Y-120803295D01*
X131148255Y-120939684D01*
X131141500Y-121001866D01*
X131141500Y-122798134D01*
X128858500Y-122798134D01*
X128858500Y-121001866D01*
X128851745Y-120939684D01*
X128800615Y-120803295D01*
X128713261Y-120686739D01*
X128596705Y-120599385D01*
X128460316Y-120548255D01*
X128398134Y-120541500D01*
X126601866Y-120541500D01*
X126539684Y-120548255D01*
X126403295Y-120599385D01*
X126286739Y-120686739D01*
X126199385Y-120803295D01*
X126148255Y-120939684D01*
X126141500Y-121001866D01*
X126141500Y-122798134D01*
X123858500Y-122798134D01*
X123858500Y-121001866D01*
X123851745Y-120939684D01*
X123800615Y-120803295D01*
X123713261Y-120686739D01*
X123596705Y-120599385D01*
X123460316Y-120548255D01*
X123398134Y-120541500D01*
X121601866Y-120541500D01*
X121539684Y-120548255D01*
X121403295Y-120599385D01*
X121286739Y-120686739D01*
X121199385Y-120803295D01*
X121148255Y-120939684D01*
X121141500Y-121001866D01*
X121141500Y-122798134D01*
X92758295Y-122798134D01*
X92737273Y-122557870D01*
X92736909Y-122553708D01*
X92692832Y-122356515D01*
X92672372Y-122264984D01*
X92672371Y-122264981D01*
X92671460Y-122260905D01*
X92567860Y-121979329D01*
X92565916Y-121975641D01*
X92565912Y-121975633D01*
X92429884Y-121717633D01*
X92429883Y-121717632D01*
X92427931Y-121713929D01*
X92254129Y-121469367D01*
X92049510Y-121249939D01*
X91817667Y-121059502D01*
X91562675Y-120901400D01*
X91289012Y-120778411D01*
X91075650Y-120714805D01*
X91005486Y-120693888D01*
X91005484Y-120693888D01*
X91001487Y-120692696D01*
X90997367Y-120692043D01*
X90997365Y-120692043D01*
X90878491Y-120673215D01*
X90705152Y-120645761D01*
X90662423Y-120643821D01*
X90612738Y-120641564D01*
X90612719Y-120641564D01*
X90611319Y-120641500D01*
X90423893Y-120641500D01*
X90200630Y-120656329D01*
X90196536Y-120657154D01*
X90196532Y-120657155D01*
X90076500Y-120681358D01*
X89906520Y-120715632D01*
X89622837Y-120813312D01*
X89619104Y-120815181D01*
X89619100Y-120815183D01*
X89358309Y-120945778D01*
X89354565Y-120947653D01*
X89106416Y-121116294D01*
X88882752Y-121316274D01*
X88880035Y-121319444D01*
X88880034Y-121319445D01*
X88754155Y-121466311D01*
X88687501Y-121544077D01*
X88685227Y-121547579D01*
X88685223Y-121547584D01*
X88526372Y-121792193D01*
X88524093Y-121795703D01*
X88395400Y-122066730D01*
X88394121Y-122070713D01*
X88394120Y-122070716D01*
X88329907Y-122270716D01*
X88303682Y-122352396D01*
X88302941Y-122356515D01*
X88266956Y-122556515D01*
X88250552Y-122647684D01*
X88250363Y-122651851D01*
X88250362Y-122651858D01*
X88237130Y-122943234D01*
X88236941Y-122947404D01*
X86008000Y-122947404D01*
X86008000Y-117480000D01*
X118346496Y-117480000D01*
X118366458Y-117669928D01*
X118425473Y-117851556D01*
X118428776Y-117857278D01*
X118428777Y-117857279D01*
X118434802Y-117867715D01*
X118520960Y-118016944D01*
X118525378Y-118021851D01*
X118525379Y-118021852D01*
X118601219Y-118106081D01*
X118648747Y-118158866D01*
X118708442Y-118202237D01*
X118777758Y-118252598D01*
X118803248Y-118271118D01*
X118809277Y-118273802D01*
X118809280Y-118273804D01*
X118810718Y-118274444D01*
X118811416Y-118275037D01*
X118815001Y-118277107D01*
X118814622Y-118277763D01*
X118864815Y-118320423D01*
X118885466Y-118388350D01*
X118866115Y-118456658D01*
X118864282Y-118459366D01*
X118860960Y-118463056D01*
X118765473Y-118628444D01*
X118706458Y-118810072D01*
X118686496Y-119000000D01*
X118706458Y-119189928D01*
X118765473Y-119371556D01*
X118860960Y-119536944D01*
X118865378Y-119541851D01*
X118865379Y-119541852D01*
X118908667Y-119589928D01*
X118988747Y-119678866D01*
X119143248Y-119791118D01*
X119149276Y-119793802D01*
X119149278Y-119793803D01*
X119233332Y-119831226D01*
X119317712Y-119868794D01*
X119411113Y-119888647D01*
X119498056Y-119907128D01*
X119498061Y-119907128D01*
X119504513Y-119908500D01*
X119695487Y-119908500D01*
X119701939Y-119907128D01*
X119701944Y-119907128D01*
X119788887Y-119888647D01*
X119882288Y-119868794D01*
X119966668Y-119831226D01*
X120050722Y-119793803D01*
X120050724Y-119793802D01*
X120056752Y-119791118D01*
X120137344Y-119732564D01*
X120204211Y-119708706D01*
X120211405Y-119708500D01*
X125514057Y-119708500D01*
X125582178Y-119728502D01*
X125623176Y-119771500D01*
X125660960Y-119836944D01*
X125788747Y-119978866D01*
X125829535Y-120008500D01*
X125931724Y-120082745D01*
X125943248Y-120091118D01*
X125949276Y-120093802D01*
X125949278Y-120093803D01*
X126111681Y-120166109D01*
X126117712Y-120168794D01*
X126204479Y-120187237D01*
X126298056Y-120207128D01*
X126298061Y-120207128D01*
X126304513Y-120208500D01*
X126495487Y-120208500D01*
X126501939Y-120207128D01*
X126501944Y-120207128D01*
X126595521Y-120187237D01*
X126682288Y-120168794D01*
X126688319Y-120166109D01*
X126850722Y-120093803D01*
X126850724Y-120093802D01*
X126856752Y-120091118D01*
X126868277Y-120082745D01*
X126970465Y-120008500D01*
X127011253Y-119978866D01*
X127139040Y-119836944D01*
X127234527Y-119671556D01*
X127293542Y-119489928D01*
X127313504Y-119300000D01*
X138086496Y-119300000D01*
X138106458Y-119489928D01*
X138165473Y-119671556D01*
X138260960Y-119836944D01*
X138388747Y-119978866D01*
X138429535Y-120008500D01*
X138531724Y-120082745D01*
X138543248Y-120091118D01*
X138549276Y-120093802D01*
X138549278Y-120093803D01*
X138711681Y-120166109D01*
X138717712Y-120168794D01*
X138804479Y-120187237D01*
X138898056Y-120207128D01*
X138898061Y-120207128D01*
X138904513Y-120208500D01*
X139095487Y-120208500D01*
X139101939Y-120207128D01*
X139101944Y-120207128D01*
X139195521Y-120187237D01*
X139282288Y-120168794D01*
X139288319Y-120166109D01*
X139450722Y-120093803D01*
X139450724Y-120093802D01*
X139456752Y-120091118D01*
X139468277Y-120082745D01*
X139537344Y-120032564D01*
X139604211Y-120008706D01*
X139611405Y-120008500D01*
X141069290Y-120008500D01*
X141137411Y-120028502D01*
X141162926Y-120050189D01*
X141188747Y-120078866D01*
X141343248Y-120191118D01*
X141349276Y-120193802D01*
X141349278Y-120193803D01*
X141511681Y-120266109D01*
X141517712Y-120268794D01*
X141611112Y-120288647D01*
X141698056Y-120307128D01*
X141698061Y-120307128D01*
X141704513Y-120308500D01*
X141895487Y-120308500D01*
X141901939Y-120307128D01*
X141901944Y-120307128D01*
X141988888Y-120288647D01*
X142082288Y-120268794D01*
X142088319Y-120266109D01*
X142250722Y-120193803D01*
X142250724Y-120193802D01*
X142256752Y-120191118D01*
X142411253Y-120078866D01*
X142437074Y-120050189D01*
X142534621Y-119941852D01*
X142534622Y-119941851D01*
X142539040Y-119936944D01*
X142634527Y-119771556D01*
X142693542Y-119589928D01*
X142703393Y-119496206D01*
X142712814Y-119406565D01*
X142713504Y-119400000D01*
X142693542Y-119210072D01*
X142634527Y-119028444D01*
X142539040Y-118863056D01*
X142497243Y-118816635D01*
X142415675Y-118726045D01*
X142415674Y-118726044D01*
X142411253Y-118721134D01*
X142275800Y-118622721D01*
X142262094Y-118612763D01*
X142262093Y-118612762D01*
X142256752Y-118608882D01*
X142250724Y-118606198D01*
X142250722Y-118606197D01*
X142088319Y-118533891D01*
X142088318Y-118533891D01*
X142082288Y-118531206D01*
X141988888Y-118511353D01*
X141901944Y-118492872D01*
X141901939Y-118492872D01*
X141895487Y-118491500D01*
X141704513Y-118491500D01*
X141698061Y-118492872D01*
X141698056Y-118492872D01*
X141611112Y-118511353D01*
X141517712Y-118531206D01*
X141511682Y-118533891D01*
X141511681Y-118533891D01*
X141406755Y-118580607D01*
X141355506Y-118591500D01*
X139611405Y-118591500D01*
X139543284Y-118571498D01*
X139537344Y-118567436D01*
X139462094Y-118512763D01*
X139462093Y-118512762D01*
X139456752Y-118508882D01*
X139450724Y-118506198D01*
X139450722Y-118506197D01*
X139288319Y-118433891D01*
X139288318Y-118433891D01*
X139282288Y-118431206D01*
X139188887Y-118411353D01*
X139101944Y-118392872D01*
X139101939Y-118392872D01*
X139095487Y-118391500D01*
X138904513Y-118391500D01*
X138898061Y-118392872D01*
X138898056Y-118392872D01*
X138811113Y-118411353D01*
X138717712Y-118431206D01*
X138711682Y-118433891D01*
X138711681Y-118433891D01*
X138549278Y-118506197D01*
X138549276Y-118506198D01*
X138543248Y-118508882D01*
X138388747Y-118621134D01*
X138260960Y-118763056D01*
X138165473Y-118928444D01*
X138106458Y-119110072D01*
X138105768Y-119116633D01*
X138105768Y-119116635D01*
X138095948Y-119210072D01*
X138086496Y-119300000D01*
X127313504Y-119300000D01*
X127304052Y-119210072D01*
X127294232Y-119116635D01*
X127294232Y-119116633D01*
X127293542Y-119110072D01*
X127234527Y-118928444D01*
X127139040Y-118763056D01*
X127011253Y-118621134D01*
X126856752Y-118508882D01*
X126850724Y-118506198D01*
X126850722Y-118506197D01*
X126688319Y-118433891D01*
X126688318Y-118433891D01*
X126682288Y-118431206D01*
X126495487Y-118391500D01*
X126492506Y-118391500D01*
X126448015Y-118377812D01*
X126443475Y-118375378D01*
X126437261Y-118371010D01*
X126430185Y-118368251D01*
X126430181Y-118368249D01*
X126377725Y-118347798D01*
X126371656Y-118345247D01*
X126313427Y-118318955D01*
X126305960Y-118317571D01*
X126303405Y-118316770D01*
X126287152Y-118312141D01*
X126284572Y-118311478D01*
X126277491Y-118308718D01*
X126269960Y-118307727D01*
X126269958Y-118307726D01*
X126240339Y-118303827D01*
X126214139Y-118300378D01*
X126207641Y-118299348D01*
X126144814Y-118287704D01*
X126137234Y-118288141D01*
X126137233Y-118288141D01*
X126082608Y-118291291D01*
X126075354Y-118291500D01*
X120211405Y-118291500D01*
X120143284Y-118271498D01*
X120137344Y-118267436D01*
X120062094Y-118212763D01*
X120062093Y-118212762D01*
X120056752Y-118208882D01*
X120050723Y-118206198D01*
X120050720Y-118206196D01*
X120049282Y-118205556D01*
X120048584Y-118204963D01*
X120044999Y-118202893D01*
X120045378Y-118202237D01*
X119995185Y-118159577D01*
X119974534Y-118091650D01*
X119993885Y-118023342D01*
X119995718Y-118020634D01*
X119999040Y-118016944D01*
X120085198Y-117867715D01*
X120091223Y-117857279D01*
X120091224Y-117857278D01*
X120094527Y-117851556D01*
X120111885Y-117798134D01*
X162141500Y-117798134D01*
X162148255Y-117860316D01*
X162199385Y-117996705D01*
X162286739Y-118113261D01*
X162403295Y-118200615D01*
X162539684Y-118251745D01*
X162601866Y-118258500D01*
X164398134Y-118258500D01*
X164460316Y-118251745D01*
X164596705Y-118200615D01*
X164713261Y-118113261D01*
X164800615Y-117996705D01*
X164851745Y-117860316D01*
X164858500Y-117798134D01*
X164858500Y-116001866D01*
X164851745Y-115939684D01*
X164800615Y-115803295D01*
X164713261Y-115686739D01*
X164596705Y-115599385D01*
X164460316Y-115548255D01*
X164398134Y-115541500D01*
X162601866Y-115541500D01*
X162539684Y-115548255D01*
X162403295Y-115599385D01*
X162286739Y-115686739D01*
X162199385Y-115803295D01*
X162148255Y-115939684D01*
X162141500Y-116001866D01*
X162141500Y-117798134D01*
X120111885Y-117798134D01*
X120153542Y-117669928D01*
X120173504Y-117480000D01*
X120153542Y-117290072D01*
X120094527Y-117108444D01*
X119999040Y-116943056D01*
X119950864Y-116889551D01*
X119920146Y-116825544D01*
X119918500Y-116805241D01*
X119918500Y-116028077D01*
X119938502Y-115959956D01*
X119950858Y-115943774D01*
X120029040Y-115856944D01*
X120119652Y-115700000D01*
X152586496Y-115700000D01*
X152587186Y-115706565D01*
X152603507Y-115861847D01*
X152606458Y-115889928D01*
X152665473Y-116071556D01*
X152760960Y-116236944D01*
X152888747Y-116378866D01*
X153043248Y-116491118D01*
X153049276Y-116493802D01*
X153049278Y-116493803D01*
X153211681Y-116566109D01*
X153217712Y-116568794D01*
X153311113Y-116588647D01*
X153398056Y-116607128D01*
X153398061Y-116607128D01*
X153404513Y-116608500D01*
X153595487Y-116608500D01*
X153601939Y-116607128D01*
X153601944Y-116607128D01*
X153688887Y-116588647D01*
X153782288Y-116568794D01*
X153788319Y-116566109D01*
X153950722Y-116493803D01*
X153950724Y-116493802D01*
X153956752Y-116491118D01*
X154111253Y-116378866D01*
X154239040Y-116236944D01*
X154334527Y-116071556D01*
X154359766Y-115993880D01*
X154391502Y-115896207D01*
X154391502Y-115896205D01*
X154393542Y-115889928D01*
X154398450Y-115843230D01*
X154425463Y-115777573D01*
X154434665Y-115767305D01*
X156680520Y-113521450D01*
X156686785Y-113515596D01*
X156687651Y-113514840D01*
X156730385Y-113477561D01*
X156767114Y-113425300D01*
X156771046Y-113420005D01*
X156805791Y-113375694D01*
X156810477Y-113369718D01*
X156813602Y-113362796D01*
X156814964Y-113360548D01*
X156823368Y-113345815D01*
X156824622Y-113343476D01*
X156828990Y-113337261D01*
X156831749Y-113330185D01*
X156831751Y-113330181D01*
X156852202Y-113277726D01*
X156854758Y-113271646D01*
X156877918Y-113220351D01*
X156881045Y-113213426D01*
X156882429Y-113205955D01*
X156883230Y-113203401D01*
X156887867Y-113187122D01*
X156888523Y-113184567D01*
X156891282Y-113177491D01*
X156899621Y-113114149D01*
X156900653Y-113107633D01*
X156910912Y-113052280D01*
X156912296Y-113044813D01*
X156908709Y-112982602D01*
X156908500Y-112975349D01*
X156908500Y-112018744D01*
X156928502Y-111950623D01*
X156932564Y-111944683D01*
X156934621Y-111941852D01*
X156939040Y-111936944D01*
X156976792Y-111871556D01*
X157019182Y-111798134D01*
X162141500Y-111798134D01*
X162148255Y-111860316D01*
X162199385Y-111996705D01*
X162286739Y-112113261D01*
X162403295Y-112200615D01*
X162539684Y-112251745D01*
X162601866Y-112258500D01*
X164398134Y-112258500D01*
X164460316Y-112251745D01*
X164596705Y-112200615D01*
X164713261Y-112113261D01*
X164800615Y-111996705D01*
X164851745Y-111860316D01*
X164858500Y-111798134D01*
X164858500Y-110001866D01*
X164851745Y-109939684D01*
X164800615Y-109803295D01*
X164713261Y-109686739D01*
X164596705Y-109599385D01*
X164460316Y-109548255D01*
X164398134Y-109541500D01*
X162601866Y-109541500D01*
X162539684Y-109548255D01*
X162403295Y-109599385D01*
X162286739Y-109686739D01*
X162199385Y-109803295D01*
X162148255Y-109939684D01*
X162141500Y-110001866D01*
X162141500Y-111798134D01*
X157019182Y-111798134D01*
X157031223Y-111777279D01*
X157031224Y-111777278D01*
X157034527Y-111771556D01*
X157093542Y-111589928D01*
X157100773Y-111521134D01*
X157112814Y-111406565D01*
X157113504Y-111400000D01*
X157104052Y-111310072D01*
X157094232Y-111216635D01*
X157094232Y-111216633D01*
X157093542Y-111210072D01*
X157034527Y-111028444D01*
X157025275Y-111012418D01*
X156996127Y-110961934D01*
X156939040Y-110863056D01*
X156932682Y-110855994D01*
X156815675Y-110726045D01*
X156815674Y-110726044D01*
X156811253Y-110721134D01*
X156685590Y-110629834D01*
X156662094Y-110612763D01*
X156662093Y-110612762D01*
X156656752Y-110608882D01*
X156650724Y-110606198D01*
X156650722Y-110606197D01*
X156488319Y-110533891D01*
X156488318Y-110533891D01*
X156482288Y-110531206D01*
X156388887Y-110511353D01*
X156301944Y-110492872D01*
X156301939Y-110492872D01*
X156295487Y-110491500D01*
X156104513Y-110491500D01*
X156098061Y-110492872D01*
X156098056Y-110492872D01*
X156011112Y-110511353D01*
X155917712Y-110531206D01*
X155911682Y-110533891D01*
X155911681Y-110533891D01*
X155749278Y-110606197D01*
X155749276Y-110606198D01*
X155743248Y-110608882D01*
X155737907Y-110612762D01*
X155737906Y-110612763D01*
X155714410Y-110629834D01*
X155588747Y-110721134D01*
X155584326Y-110726044D01*
X155584325Y-110726045D01*
X155467319Y-110855994D01*
X155460960Y-110863056D01*
X155403873Y-110961934D01*
X155374726Y-111012418D01*
X155365473Y-111028444D01*
X155306458Y-111210072D01*
X155305768Y-111216633D01*
X155305768Y-111216635D01*
X155295948Y-111310072D01*
X155286496Y-111400000D01*
X155287186Y-111406565D01*
X155299228Y-111521134D01*
X155306458Y-111589928D01*
X155365473Y-111771556D01*
X155368776Y-111777278D01*
X155368777Y-111777279D01*
X155423208Y-111871556D01*
X155460960Y-111936944D01*
X155465379Y-111941852D01*
X155467436Y-111944683D01*
X155491295Y-112011551D01*
X155491500Y-112018744D01*
X155491500Y-112654339D01*
X155471498Y-112722460D01*
X155454595Y-112743434D01*
X153433467Y-114764563D01*
X153370569Y-114798715D01*
X153217712Y-114831206D01*
X153211682Y-114833891D01*
X153211681Y-114833891D01*
X153049278Y-114906197D01*
X153049276Y-114906198D01*
X153043248Y-114908882D01*
X152888747Y-115021134D01*
X152884326Y-115026044D01*
X152884325Y-115026045D01*
X152784750Y-115136635D01*
X152760960Y-115163056D01*
X152665473Y-115328444D01*
X152606458Y-115510072D01*
X152605768Y-115516633D01*
X152605768Y-115516635D01*
X152602445Y-115548255D01*
X152586496Y-115700000D01*
X120119652Y-115700000D01*
X120124527Y-115691556D01*
X120183542Y-115509928D01*
X120203504Y-115320000D01*
X120183542Y-115130072D01*
X120124527Y-114948444D01*
X120029040Y-114783056D01*
X119901253Y-114641134D01*
X119746752Y-114528882D01*
X119740724Y-114526198D01*
X119740722Y-114526197D01*
X119578319Y-114453891D01*
X119578318Y-114453891D01*
X119572288Y-114451206D01*
X119478887Y-114431353D01*
X119391944Y-114412872D01*
X119391939Y-114412872D01*
X119385487Y-114411500D01*
X119194513Y-114411500D01*
X119188061Y-114412872D01*
X119188056Y-114412872D01*
X119101113Y-114431353D01*
X119007712Y-114451206D01*
X119001682Y-114453891D01*
X119001681Y-114453891D01*
X118839278Y-114526197D01*
X118839276Y-114526198D01*
X118833248Y-114528882D01*
X118678747Y-114641134D01*
X118550960Y-114783056D01*
X118455473Y-114948444D01*
X118396458Y-115130072D01*
X118376496Y-115320000D01*
X118396458Y-115509928D01*
X118455473Y-115691556D01*
X118550960Y-115856944D01*
X118555375Y-115861847D01*
X118555379Y-115861852D01*
X118569135Y-115877129D01*
X118599853Y-115941137D01*
X118601500Y-115961441D01*
X118601500Y-116805241D01*
X118581498Y-116873362D01*
X118569136Y-116889551D01*
X118520960Y-116943056D01*
X118425473Y-117108444D01*
X118366458Y-117290072D01*
X118346496Y-117480000D01*
X86008000Y-117480000D01*
X86008000Y-107618134D01*
X91101500Y-107618134D01*
X91108255Y-107680316D01*
X91159385Y-107816705D01*
X91246739Y-107933261D01*
X91363295Y-108020615D01*
X91499684Y-108071745D01*
X91561866Y-108078500D01*
X93358134Y-108078500D01*
X93420316Y-108071745D01*
X93556705Y-108020615D01*
X93673261Y-107933261D01*
X93760615Y-107816705D01*
X93811745Y-107680316D01*
X93818500Y-107618134D01*
X93818500Y-105821866D01*
X93811745Y-105759684D01*
X93760615Y-105623295D01*
X93673261Y-105506739D01*
X93556705Y-105419385D01*
X93420316Y-105368255D01*
X93358134Y-105361500D01*
X91561866Y-105361500D01*
X91499684Y-105368255D01*
X91363295Y-105419385D01*
X91246739Y-105506739D01*
X91159385Y-105623295D01*
X91108255Y-105759684D01*
X91101500Y-105821866D01*
X91101500Y-107618134D01*
X86008000Y-107618134D01*
X86008000Y-101200000D01*
X106186496Y-101200000D01*
X106206458Y-101389928D01*
X106265473Y-101571556D01*
X106360960Y-101736944D01*
X106365378Y-101741851D01*
X106365379Y-101741852D01*
X106409136Y-101790449D01*
X106439854Y-101854456D01*
X106441500Y-101874759D01*
X106441500Y-107617944D01*
X106440941Y-107629800D01*
X106439212Y-107637537D01*
X106439461Y-107645459D01*
X106441438Y-107708369D01*
X106441500Y-107712327D01*
X106441500Y-107741432D01*
X106442056Y-107745832D01*
X106442988Y-107757664D01*
X106444438Y-107803831D01*
X106446650Y-107811444D01*
X106446650Y-107811445D01*
X106450419Y-107824416D01*
X106454430Y-107843782D01*
X106457118Y-107865064D01*
X106460034Y-107872429D01*
X106460035Y-107872433D01*
X106474126Y-107908021D01*
X106477965Y-107919231D01*
X106490855Y-107963600D01*
X106501775Y-107982065D01*
X106510466Y-107999805D01*
X106518365Y-108019756D01*
X106545516Y-108057126D01*
X106552033Y-108067048D01*
X106571507Y-108099977D01*
X106571510Y-108099981D01*
X106575547Y-108106807D01*
X106590711Y-108121971D01*
X106603551Y-108137004D01*
X106616159Y-108154357D01*
X106651752Y-108183802D01*
X106660532Y-108191792D01*
X109057030Y-110588289D01*
X109091055Y-110650601D01*
X109093245Y-110664212D01*
X109106458Y-110789928D01*
X109108498Y-110796205D01*
X109108498Y-110796207D01*
X109118193Y-110826045D01*
X109165473Y-110971556D01*
X109260960Y-111136944D01*
X109388747Y-111278866D01*
X109543248Y-111391118D01*
X109549276Y-111393802D01*
X109549278Y-111393803D01*
X109711681Y-111466109D01*
X109717712Y-111468794D01*
X109811113Y-111488647D01*
X109898056Y-111507128D01*
X109898061Y-111507128D01*
X109904513Y-111508500D01*
X110095487Y-111508500D01*
X110101939Y-111507128D01*
X110101944Y-111507128D01*
X110135477Y-111500000D01*
X122786496Y-111500000D01*
X122787186Y-111506565D01*
X122804235Y-111668774D01*
X122806458Y-111689928D01*
X122865473Y-111871556D01*
X122960960Y-112036944D01*
X123088747Y-112178866D01*
X123243248Y-112291118D01*
X123249276Y-112293802D01*
X123249278Y-112293803D01*
X123341200Y-112334729D01*
X123417712Y-112368794D01*
X123486263Y-112383365D01*
X123598056Y-112407128D01*
X123598061Y-112407128D01*
X123604513Y-112408500D01*
X123625050Y-112408500D01*
X123693171Y-112428502D01*
X123714145Y-112445405D01*
X124208068Y-112939328D01*
X124238806Y-112989486D01*
X124265473Y-113071556D01*
X124360960Y-113236944D01*
X124365378Y-113241851D01*
X124365379Y-113241852D01*
X124472253Y-113360548D01*
X124488747Y-113378866D01*
X124643248Y-113491118D01*
X124649276Y-113493802D01*
X124649278Y-113493803D01*
X124711375Y-113521450D01*
X124817712Y-113568794D01*
X124911113Y-113588647D01*
X124998056Y-113607128D01*
X124998061Y-113607128D01*
X125004513Y-113608500D01*
X125195487Y-113608500D01*
X125201939Y-113607128D01*
X125201944Y-113607128D01*
X125288887Y-113588647D01*
X125382288Y-113568794D01*
X125488625Y-113521450D01*
X125550722Y-113493803D01*
X125550724Y-113493802D01*
X125556752Y-113491118D01*
X125711253Y-113378866D01*
X125727747Y-113360548D01*
X125834621Y-113241852D01*
X125834622Y-113241851D01*
X125839040Y-113236944D01*
X125913698Y-113107633D01*
X125931223Y-113077279D01*
X125931224Y-113077277D01*
X125934527Y-113071556D01*
X125993542Y-112889928D01*
X126013504Y-112700000D01*
X125993542Y-112510072D01*
X125934527Y-112328444D01*
X125839040Y-112163056D01*
X125799050Y-112118642D01*
X125715675Y-112026045D01*
X125715674Y-112026044D01*
X125711253Y-112021134D01*
X125595376Y-111936944D01*
X125562094Y-111912763D01*
X125562093Y-111912762D01*
X125556752Y-111908882D01*
X125550724Y-111906198D01*
X125550722Y-111906197D01*
X125388319Y-111833891D01*
X125388318Y-111833891D01*
X125382288Y-111831206D01*
X125262909Y-111805831D01*
X125201944Y-111792872D01*
X125201939Y-111792872D01*
X125195487Y-111791500D01*
X125004513Y-111791500D01*
X124998056Y-111792872D01*
X124991485Y-111793563D01*
X124991179Y-111790652D01*
X124933093Y-111786158D01*
X124888715Y-111757455D01*
X124642970Y-111511710D01*
X124608944Y-111449398D01*
X124606755Y-111435786D01*
X124602343Y-111393803D01*
X124596134Y-111334729D01*
X124594232Y-111316636D01*
X124594232Y-111316635D01*
X124593542Y-111310072D01*
X124587954Y-111292872D01*
X124544178Y-111158148D01*
X124534527Y-111128444D01*
X124439040Y-110963056D01*
X124393418Y-110912387D01*
X124315675Y-110826045D01*
X124315674Y-110826044D01*
X124311253Y-110821134D01*
X124178133Y-110724416D01*
X124162094Y-110712763D01*
X124162093Y-110712762D01*
X124156752Y-110708882D01*
X124150724Y-110706198D01*
X124150722Y-110706197D01*
X123988319Y-110633891D01*
X123988318Y-110633891D01*
X123982288Y-110631206D01*
X123884131Y-110610342D01*
X123801944Y-110592872D01*
X123801939Y-110592872D01*
X123795487Y-110591500D01*
X123604513Y-110591500D01*
X123598061Y-110592872D01*
X123598056Y-110592872D01*
X123515869Y-110610342D01*
X123417712Y-110631206D01*
X123411682Y-110633891D01*
X123411681Y-110633891D01*
X123249278Y-110706197D01*
X123249276Y-110706198D01*
X123243248Y-110708882D01*
X123237907Y-110712762D01*
X123237906Y-110712763D01*
X123221867Y-110724416D01*
X123088747Y-110821134D01*
X123084326Y-110826044D01*
X123084325Y-110826045D01*
X123006583Y-110912387D01*
X122960960Y-110963056D01*
X122865473Y-111128444D01*
X122806458Y-111310072D01*
X122805768Y-111316633D01*
X122805768Y-111316635D01*
X122803866Y-111334729D01*
X122786496Y-111500000D01*
X110135477Y-111500000D01*
X110188887Y-111488647D01*
X110282288Y-111468794D01*
X110288319Y-111466109D01*
X110450722Y-111393803D01*
X110450724Y-111393802D01*
X110456752Y-111391118D01*
X110611253Y-111278866D01*
X110739040Y-111136944D01*
X110834527Y-110971556D01*
X110893542Y-110789928D01*
X110896982Y-110757204D01*
X110912814Y-110606565D01*
X110913504Y-110600000D01*
X110893542Y-110410072D01*
X110834527Y-110228444D01*
X110739040Y-110063056D01*
X110627956Y-109939684D01*
X110615675Y-109926045D01*
X110615674Y-109926044D01*
X110611253Y-109921134D01*
X110456752Y-109808882D01*
X110450724Y-109806198D01*
X110450722Y-109806197D01*
X110288319Y-109733891D01*
X110288318Y-109733891D01*
X110282288Y-109731206D01*
X110188887Y-109711353D01*
X110101944Y-109692872D01*
X110101939Y-109692872D01*
X110095487Y-109691500D01*
X110074949Y-109691500D01*
X110006828Y-109671498D01*
X109985854Y-109654595D01*
X107795405Y-107464145D01*
X107761379Y-107401833D01*
X107758500Y-107375050D01*
X107758500Y-101874759D01*
X107778502Y-101806638D01*
X107790864Y-101790449D01*
X107834621Y-101741852D01*
X107834622Y-101741851D01*
X107839040Y-101736944D01*
X107934527Y-101571556D01*
X107993542Y-101389928D01*
X108013504Y-101200000D01*
X127186496Y-101200000D01*
X127206458Y-101389928D01*
X127265473Y-101571556D01*
X127360960Y-101736944D01*
X127365378Y-101741851D01*
X127365379Y-101741852D01*
X127409136Y-101790449D01*
X127439854Y-101854456D01*
X127441500Y-101874759D01*
X127441500Y-110517944D01*
X127440941Y-110529800D01*
X127439212Y-110537537D01*
X127439461Y-110545459D01*
X127441438Y-110608369D01*
X127441500Y-110612327D01*
X127441500Y-110641432D01*
X127442056Y-110645832D01*
X127442988Y-110657664D01*
X127444438Y-110703831D01*
X127446650Y-110711444D01*
X127446650Y-110711445D01*
X127450419Y-110724416D01*
X127454430Y-110743782D01*
X127457118Y-110765064D01*
X127460034Y-110772429D01*
X127460035Y-110772433D01*
X127474126Y-110808021D01*
X127477965Y-110819231D01*
X127490855Y-110863600D01*
X127501775Y-110882065D01*
X127510466Y-110899805D01*
X127518365Y-110919756D01*
X127545516Y-110957126D01*
X127552033Y-110967048D01*
X127571507Y-110999977D01*
X127571510Y-110999981D01*
X127575547Y-111006807D01*
X127590711Y-111021971D01*
X127603551Y-111037004D01*
X127616159Y-111054357D01*
X127651752Y-111083802D01*
X127660532Y-111091792D01*
X128757030Y-112188290D01*
X128791056Y-112250602D01*
X128793245Y-112264214D01*
X128803955Y-112366109D01*
X128806458Y-112389928D01*
X128808498Y-112396205D01*
X128808498Y-112396207D01*
X128824484Y-112445405D01*
X128865473Y-112571556D01*
X128868776Y-112577278D01*
X128868777Y-112577279D01*
X128886803Y-112608500D01*
X128960960Y-112736944D01*
X128965378Y-112741851D01*
X128965379Y-112741852D01*
X129084325Y-112873955D01*
X129088747Y-112878866D01*
X129187843Y-112950864D01*
X129201408Y-112960719D01*
X129243248Y-112991118D01*
X129249276Y-112993802D01*
X129249278Y-112993803D01*
X129409799Y-113065271D01*
X129417712Y-113068794D01*
X129511112Y-113088647D01*
X129598056Y-113107128D01*
X129598061Y-113107128D01*
X129604513Y-113108500D01*
X129795487Y-113108500D01*
X129801939Y-113107128D01*
X129801944Y-113107128D01*
X129888888Y-113088647D01*
X129982288Y-113068794D01*
X129990201Y-113065271D01*
X130150722Y-112993803D01*
X130150724Y-112993802D01*
X130156752Y-112991118D01*
X130198593Y-112960719D01*
X130212157Y-112950864D01*
X130311253Y-112878866D01*
X130315675Y-112873955D01*
X130434621Y-112741852D01*
X130434622Y-112741851D01*
X130439040Y-112736944D01*
X130513197Y-112608500D01*
X130531223Y-112577279D01*
X130531224Y-112577278D01*
X130534527Y-112571556D01*
X130593542Y-112389928D01*
X130596046Y-112366109D01*
X130612814Y-112206565D01*
X130613504Y-112200000D01*
X130604953Y-112118642D01*
X130594232Y-112016635D01*
X130594232Y-112016633D01*
X130593542Y-112010072D01*
X130534527Y-111828444D01*
X130517028Y-111798134D01*
X130464160Y-111706565D01*
X130439040Y-111663056D01*
X130311253Y-111521134D01*
X130156752Y-111408882D01*
X130150724Y-111406198D01*
X130150722Y-111406197D01*
X129988319Y-111333891D01*
X129988318Y-111333891D01*
X129982288Y-111331206D01*
X129882861Y-111310072D01*
X129801944Y-111292872D01*
X129801939Y-111292872D01*
X129795487Y-111291500D01*
X129774950Y-111291500D01*
X129706829Y-111271498D01*
X129685855Y-111254595D01*
X128795405Y-110364145D01*
X128761379Y-110301833D01*
X128758500Y-110275050D01*
X128758500Y-107600000D01*
X149786496Y-107600000D01*
X149787186Y-107606565D01*
X149803068Y-107757670D01*
X149806458Y-107789928D01*
X149865473Y-107971556D01*
X149868776Y-107977278D01*
X149868777Y-107977279D01*
X149889047Y-108012387D01*
X149960960Y-108136944D01*
X149965378Y-108141851D01*
X149965379Y-108141852D01*
X149976639Y-108154357D01*
X150088747Y-108278866D01*
X150094091Y-108282749D01*
X150098998Y-108287167D01*
X150097112Y-108289262D01*
X150132900Y-108335641D01*
X150141500Y-108381393D01*
X150141500Y-111025241D01*
X150121498Y-111093362D01*
X150109136Y-111109551D01*
X150060960Y-111163056D01*
X150057659Y-111168774D01*
X149986011Y-111292872D01*
X149965473Y-111328444D01*
X149906458Y-111510072D01*
X149886496Y-111700000D01*
X149887186Y-111706565D01*
X149905129Y-111877279D01*
X149906458Y-111889928D01*
X149965473Y-112071556D01*
X150060960Y-112236944D01*
X150065378Y-112241851D01*
X150065379Y-112241852D01*
X150179678Y-112368794D01*
X150188747Y-112378866D01*
X150343248Y-112491118D01*
X150349276Y-112493802D01*
X150349278Y-112493803D01*
X150400560Y-112516635D01*
X150517712Y-112568794D01*
X150611113Y-112588647D01*
X150698056Y-112607128D01*
X150698061Y-112607128D01*
X150704513Y-112608500D01*
X150895487Y-112608500D01*
X150901939Y-112607128D01*
X150901944Y-112607128D01*
X150988887Y-112588647D01*
X151082288Y-112568794D01*
X151199440Y-112516635D01*
X151250722Y-112493803D01*
X151250724Y-112493802D01*
X151256752Y-112491118D01*
X151411253Y-112378866D01*
X151420322Y-112368794D01*
X151534621Y-112241852D01*
X151534622Y-112241851D01*
X151539040Y-112236944D01*
X151634527Y-112071556D01*
X151693542Y-111889928D01*
X151694872Y-111877279D01*
X151712814Y-111706565D01*
X151713504Y-111700000D01*
X151693542Y-111510072D01*
X151634527Y-111328444D01*
X151613990Y-111292872D01*
X151542341Y-111168774D01*
X151539040Y-111163056D01*
X151490864Y-111109551D01*
X151460146Y-111045544D01*
X151458500Y-111025241D01*
X151458500Y-108136999D01*
X151475381Y-108073999D01*
X151476683Y-108071745D01*
X151510953Y-108012387D01*
X151531223Y-107977279D01*
X151531224Y-107977278D01*
X151534527Y-107971556D01*
X151593542Y-107789928D01*
X151596933Y-107757670D01*
X151612814Y-107606565D01*
X151613504Y-107600000D01*
X151599225Y-107464145D01*
X151594232Y-107416635D01*
X151594232Y-107416633D01*
X151593542Y-107410072D01*
X151534527Y-107228444D01*
X151439040Y-107063056D01*
X151311253Y-106921134D01*
X151156752Y-106808882D01*
X151150724Y-106806198D01*
X151150722Y-106806197D01*
X150988319Y-106733891D01*
X150988318Y-106733891D01*
X150982288Y-106731206D01*
X150888888Y-106711353D01*
X150801944Y-106692872D01*
X150801939Y-106692872D01*
X150795487Y-106691500D01*
X150604513Y-106691500D01*
X150598061Y-106692872D01*
X150598056Y-106692872D01*
X150511113Y-106711353D01*
X150417712Y-106731206D01*
X150411682Y-106733891D01*
X150411681Y-106733891D01*
X150249278Y-106806197D01*
X150249276Y-106806198D01*
X150243248Y-106808882D01*
X150088747Y-106921134D01*
X149960960Y-107063056D01*
X149865473Y-107228444D01*
X149806458Y-107410072D01*
X149805768Y-107416633D01*
X149805768Y-107416635D01*
X149800775Y-107464145D01*
X149786496Y-107600000D01*
X128758500Y-107600000D01*
X128758500Y-101874759D01*
X128778502Y-101806638D01*
X128790864Y-101790449D01*
X128834621Y-101741852D01*
X128834622Y-101741851D01*
X128839040Y-101736944D01*
X128934527Y-101571556D01*
X128993542Y-101389928D01*
X129013504Y-101200000D01*
X128993542Y-101010072D01*
X128934527Y-100828444D01*
X128839040Y-100663056D01*
X128711253Y-100521134D01*
X128556752Y-100408882D01*
X128550724Y-100406198D01*
X128550722Y-100406197D01*
X128388319Y-100333891D01*
X128388318Y-100333891D01*
X128382288Y-100331206D01*
X128288888Y-100311353D01*
X128201944Y-100292872D01*
X128201939Y-100292872D01*
X128195487Y-100291500D01*
X128004513Y-100291500D01*
X127998061Y-100292872D01*
X127998056Y-100292872D01*
X127911113Y-100311353D01*
X127817712Y-100331206D01*
X127811682Y-100333891D01*
X127811681Y-100333891D01*
X127649278Y-100406197D01*
X127649276Y-100406198D01*
X127643248Y-100408882D01*
X127488747Y-100521134D01*
X127360960Y-100663056D01*
X127265473Y-100828444D01*
X127206458Y-101010072D01*
X127186496Y-101200000D01*
X108013504Y-101200000D01*
X107993542Y-101010072D01*
X107934527Y-100828444D01*
X107839040Y-100663056D01*
X107711253Y-100521134D01*
X107556752Y-100408882D01*
X107550724Y-100406198D01*
X107550722Y-100406197D01*
X107388319Y-100333891D01*
X107388318Y-100333891D01*
X107382288Y-100331206D01*
X107288888Y-100311353D01*
X107201944Y-100292872D01*
X107201939Y-100292872D01*
X107195487Y-100291500D01*
X107004513Y-100291500D01*
X106998061Y-100292872D01*
X106998056Y-100292872D01*
X106911113Y-100311353D01*
X106817712Y-100331206D01*
X106811682Y-100333891D01*
X106811681Y-100333891D01*
X106649278Y-100406197D01*
X106649276Y-100406198D01*
X106643248Y-100408882D01*
X106488747Y-100521134D01*
X106360960Y-100663056D01*
X106265473Y-100828444D01*
X106206458Y-101010072D01*
X106186496Y-101200000D01*
X86008000Y-101200000D01*
X86008000Y-90928134D01*
X98236500Y-90928134D01*
X98243255Y-90990316D01*
X98294385Y-91126705D01*
X98381739Y-91243261D01*
X98498295Y-91330615D01*
X98634684Y-91381745D01*
X98696866Y-91388500D01*
X100773134Y-91388500D01*
X100835316Y-91381745D01*
X100971705Y-91330615D01*
X101088261Y-91243261D01*
X101175615Y-91126705D01*
X101226745Y-90990316D01*
X101233500Y-90928134D01*
X115236500Y-90928134D01*
X115243255Y-90990316D01*
X115294385Y-91126705D01*
X115381739Y-91243261D01*
X115498295Y-91330615D01*
X115634684Y-91381745D01*
X115696866Y-91388500D01*
X117773134Y-91388500D01*
X117835316Y-91381745D01*
X117971705Y-91330615D01*
X118088261Y-91243261D01*
X118175615Y-91126705D01*
X118226745Y-90990316D01*
X118233500Y-90928134D01*
X131236500Y-90928134D01*
X131243255Y-90990316D01*
X131294385Y-91126705D01*
X131381739Y-91243261D01*
X131498295Y-91330615D01*
X131634684Y-91381745D01*
X131696866Y-91388500D01*
X133773134Y-91388500D01*
X133835316Y-91381745D01*
X133971705Y-91330615D01*
X134088261Y-91243261D01*
X134175615Y-91126705D01*
X134226745Y-90990316D01*
X134233500Y-90928134D01*
X134233500Y-86871866D01*
X134226745Y-86809684D01*
X134175615Y-86673295D01*
X134088261Y-86556739D01*
X133971705Y-86469385D01*
X133835316Y-86418255D01*
X133773134Y-86411500D01*
X131696866Y-86411500D01*
X131634684Y-86418255D01*
X131498295Y-86469385D01*
X131381739Y-86556739D01*
X131294385Y-86673295D01*
X131243255Y-86809684D01*
X131236500Y-86871866D01*
X131236500Y-90928134D01*
X118233500Y-90928134D01*
X118233500Y-86871866D01*
X118226745Y-86809684D01*
X118175615Y-86673295D01*
X118088261Y-86556739D01*
X117971705Y-86469385D01*
X117835316Y-86418255D01*
X117773134Y-86411500D01*
X115696866Y-86411500D01*
X115634684Y-86418255D01*
X115498295Y-86469385D01*
X115381739Y-86556739D01*
X115294385Y-86673295D01*
X115243255Y-86809684D01*
X115236500Y-86871866D01*
X115236500Y-90928134D01*
X101233500Y-90928134D01*
X101233500Y-86871866D01*
X101226745Y-86809684D01*
X101175615Y-86673295D01*
X101088261Y-86556739D01*
X100971705Y-86469385D01*
X100835316Y-86418255D01*
X100773134Y-86411500D01*
X98696866Y-86411500D01*
X98634684Y-86418255D01*
X98498295Y-86469385D01*
X98381739Y-86556739D01*
X98294385Y-86673295D01*
X98243255Y-86809684D01*
X98236500Y-86871866D01*
X98236500Y-90928134D01*
X86008000Y-90928134D01*
X86008000Y-82947404D01*
X88236941Y-82947404D01*
X88263091Y-83246292D01*
X88264001Y-83250364D01*
X88264002Y-83250369D01*
X88327628Y-83535016D01*
X88328540Y-83539095D01*
X88432140Y-83820671D01*
X88434084Y-83824359D01*
X88434088Y-83824367D01*
X88530805Y-84007807D01*
X88572069Y-84086071D01*
X88745871Y-84330633D01*
X88950490Y-84550061D01*
X89182333Y-84740498D01*
X89437325Y-84898600D01*
X89710988Y-85021589D01*
X89885368Y-85073574D01*
X89994514Y-85106112D01*
X89994516Y-85106112D01*
X89998513Y-85107304D01*
X90002633Y-85107957D01*
X90002635Y-85107957D01*
X90121509Y-85126785D01*
X90294848Y-85154239D01*
X90337577Y-85156179D01*
X90387262Y-85158436D01*
X90387281Y-85158436D01*
X90388681Y-85158500D01*
X90576107Y-85158500D01*
X90799370Y-85143671D01*
X90803464Y-85142846D01*
X90803468Y-85142845D01*
X90944513Y-85114405D01*
X91093480Y-85084368D01*
X91377163Y-84986688D01*
X91380896Y-84984819D01*
X91380900Y-84984817D01*
X91641691Y-84854222D01*
X91641693Y-84854221D01*
X91645435Y-84852347D01*
X91893584Y-84683706D01*
X92117248Y-84483726D01*
X92119966Y-84480555D01*
X92309779Y-84259097D01*
X92309782Y-84259093D01*
X92312499Y-84255923D01*
X92314773Y-84252421D01*
X92314777Y-84252416D01*
X92473628Y-84007807D01*
X92473631Y-84007802D01*
X92475907Y-84004297D01*
X92604600Y-83733270D01*
X92696318Y-83447604D01*
X92749448Y-83152316D01*
X92763059Y-82852596D01*
X92736909Y-82553708D01*
X92692832Y-82356515D01*
X92672372Y-82264984D01*
X92672371Y-82264981D01*
X92671460Y-82260905D01*
X92567860Y-81979329D01*
X92565916Y-81975641D01*
X92565912Y-81975633D01*
X92429884Y-81717633D01*
X92429883Y-81717632D01*
X92427931Y-81713929D01*
X92254129Y-81469367D01*
X92049510Y-81249939D01*
X91817667Y-81059502D01*
X91562675Y-80901400D01*
X91289012Y-80778411D01*
X91075650Y-80714805D01*
X91005486Y-80693888D01*
X91005484Y-80693888D01*
X91001487Y-80692696D01*
X90997367Y-80692043D01*
X90997365Y-80692043D01*
X90878491Y-80673215D01*
X90705152Y-80645761D01*
X90662423Y-80643821D01*
X90612738Y-80641564D01*
X90612719Y-80641564D01*
X90611319Y-80641500D01*
X90423893Y-80641500D01*
X90200630Y-80656329D01*
X90196536Y-80657154D01*
X90196532Y-80657155D01*
X90055487Y-80685595D01*
X89906520Y-80715632D01*
X89622837Y-80813312D01*
X89619104Y-80815181D01*
X89619100Y-80815183D01*
X89358309Y-80945778D01*
X89354565Y-80947653D01*
X89106416Y-81116294D01*
X88882752Y-81316274D01*
X88880035Y-81319444D01*
X88880034Y-81319445D01*
X88754155Y-81466311D01*
X88687501Y-81544077D01*
X88685227Y-81547579D01*
X88685223Y-81547584D01*
X88574792Y-81717633D01*
X88524093Y-81795703D01*
X88395400Y-82066730D01*
X88303682Y-82352396D01*
X88250552Y-82647684D01*
X88236941Y-82947404D01*
X86008000Y-82947404D01*
X86008000Y-78534000D01*
X86028002Y-78465879D01*
X86081658Y-78419386D01*
X86134000Y-78408000D01*
X144374000Y-78408000D01*
X144442121Y-78428002D01*
G37*
%TD.AperFunction*%
%TD*%
M02*
