%TF.GenerationSoftware,KiCad,Pcbnew,(6.0.1)*%
%TF.CreationDate,2022-03-29T14:07:41-05:00*%
%TF.ProjectId,light_board,6c696768-745f-4626-9f61-72642e6b6963,rev?*%
%TF.SameCoordinates,Original*%
%TF.FileFunction,Copper,L1,Top*%
%TF.FilePolarity,Positive*%
%FSLAX46Y46*%
G04 Gerber Fmt 4.6, Leading zero omitted, Abs format (unit mm)*
G04 Created by KiCad (PCBNEW (6.0.1)) date 2022-03-29 14:07:41*
%MOMM*%
%LPD*%
G01*
G04 APERTURE LIST*
G04 Aperture macros list*
%AMRoundRect*
0 Rectangle with rounded corners*
0 $1 Rounding radius*
0 $2 $3 $4 $5 $6 $7 $8 $9 X,Y pos of 4 corners*
0 Add a 4 corners polygon primitive as box body*
4,1,4,$2,$3,$4,$5,$6,$7,$8,$9,$2,$3,0*
0 Add four circle primitives for the rounded corners*
1,1,$1+$1,$2,$3*
1,1,$1+$1,$4,$5*
1,1,$1+$1,$6,$7*
1,1,$1+$1,$8,$9*
0 Add four rect primitives between the rounded corners*
20,1,$1+$1,$2,$3,$4,$5,0*
20,1,$1+$1,$4,$5,$6,$7,0*
20,1,$1+$1,$6,$7,$8,$9,0*
20,1,$1+$1,$8,$9,$2,$3,0*%
%AMFreePoly0*
4,1,6,1.000000,0.000000,0.500000,-0.750000,-0.500000,-0.750000,-0.500000,0.750000,0.500000,0.750000,1.000000,0.000000,1.000000,0.000000,$1*%
%AMFreePoly1*
4,1,6,0.500000,-0.750000,-0.650000,-0.750000,-0.150000,0.000000,-0.650000,0.750000,0.500000,0.750000,0.500000,-0.750000,0.500000,-0.750000,$1*%
G04 Aperture macros list end*
%TA.AperFunction,SMDPad,CuDef*%
%ADD10R,0.900000X1.200000*%
%TD*%
%TA.AperFunction,SMDPad,CuDef*%
%ADD11RoundRect,0.150000X-0.825000X-0.150000X0.825000X-0.150000X0.825000X0.150000X-0.825000X0.150000X0*%
%TD*%
%TA.AperFunction,SMDPad,CuDef*%
%ADD12FreePoly0,90.000000*%
%TD*%
%TA.AperFunction,SMDPad,CuDef*%
%ADD13FreePoly1,90.000000*%
%TD*%
%TA.AperFunction,ComponentPad*%
%ADD14R,1.700000X1.700000*%
%TD*%
%TA.AperFunction,ComponentPad*%
%ADD15R,1.980000X3.960000*%
%TD*%
%TA.AperFunction,ComponentPad*%
%ADD16O,1.980000X3.960000*%
%TD*%
%TA.AperFunction,SMDPad,CuDef*%
%ADD17R,1.200000X2.200000*%
%TD*%
%TA.AperFunction,SMDPad,CuDef*%
%ADD18R,5.800000X6.400000*%
%TD*%
%TA.AperFunction,SMDPad,CuDef*%
%ADD19R,2.000000X0.800000*%
%TD*%
%TA.AperFunction,ComponentPad*%
%ADD20C,4.400000*%
%TD*%
%TA.AperFunction,SMDPad,CuDef*%
%ADD21RoundRect,0.200000X0.200000X0.275000X-0.200000X0.275000X-0.200000X-0.275000X0.200000X-0.275000X0*%
%TD*%
%TA.AperFunction,SMDPad,CuDef*%
%ADD22RoundRect,0.200000X-0.200000X-0.275000X0.200000X-0.275000X0.200000X0.275000X-0.200000X0.275000X0*%
%TD*%
%TA.AperFunction,SMDPad,CuDef*%
%ADD23FreePoly0,270.000000*%
%TD*%
%TA.AperFunction,SMDPad,CuDef*%
%ADD24FreePoly1,270.000000*%
%TD*%
%TA.AperFunction,ViaPad*%
%ADD25C,0.800000*%
%TD*%
%TA.AperFunction,Conductor*%
%ADD26C,0.250000*%
%TD*%
%TA.AperFunction,Conductor*%
%ADD27C,0.800000*%
%TD*%
%TA.AperFunction,Conductor*%
%ADD28C,0.300000*%
%TD*%
%TA.AperFunction,Conductor*%
%ADD29C,1.000000*%
%TD*%
G04 APERTURE END LIST*
D10*
%TO.P,D3,1,K*%
%TO.N,MCU_Bike*%
X157150000Y-111000000D03*
%TO.P,D3,2,A*%
%TO.N,GND1*%
X153850000Y-111000000D03*
%TD*%
D11*
%TO.P,Q6,1,ANODE_1*%
%TO.N,MCU_L3*%
X130995000Y-109205000D03*
%TO.P,Q6,2,CATHODE_1*%
%TO.N,Net-(Q6-Pad2)*%
X130995000Y-110475000D03*
%TO.P,Q6,3,ANODE_2*%
%TO.N,unconnected-(Q6-Pad3)*%
X130995000Y-111745000D03*
%TO.P,Q6,4,CATHODE_2*%
%TO.N,unconnected-(Q6-Pad4)*%
X130995000Y-113015000D03*
%TO.P,Q6,5,EMITTER_2*%
%TO.N,unconnected-(Q6-Pad5)*%
X135945000Y-113015000D03*
%TO.P,Q6,6,COLLECTOR_2*%
%TO.N,+5V*%
X135945000Y-111745000D03*
%TO.P,Q6,7,EMITTER_1*%
%TO.N,L3*%
X135945000Y-110475000D03*
%TO.P,Q6,8,COLLECTOR_1*%
%TO.N,+5V*%
X135945000Y-109205000D03*
%TD*%
D12*
%TO.P,JP1,1,A*%
%TO.N,MCU_L1*%
X107000000Y-95725000D03*
D13*
%TO.P,JP1,2,B*%
%TO.N,L1*%
X107000000Y-94275000D03*
%TD*%
D14*
%TO.P,J16,1,Pin_1*%
%TO.N,GND*%
X152000000Y-125000000D03*
%TD*%
%TO.P,J6,1,Pin_1*%
%TO.N,MCU_Bike*%
X167000000Y-116000000D03*
%TD*%
%TO.P,J5,1,Pin_1*%
%TO.N,MCU_L3*%
X134000000Y-125000000D03*
%TD*%
D15*
%TO.P,J9,1,Pin_1*%
%TO.N,+24V*%
X116735000Y-85000000D03*
D16*
%TO.P,J9,2,Pin_2*%
%TO.N,Net-(J9-Pad2)*%
X121735000Y-85000000D03*
%TD*%
D17*
%TO.P,Q4,1,G*%
%TO.N,L3*%
X135755000Y-94025000D03*
D18*
%TO.P,Q4,2,D*%
%TO.N,Net-(J10-Pad2)*%
X133475000Y-100325000D03*
D17*
%TO.P,Q4,3,S*%
%TO.N,GND*%
X131195000Y-94025000D03*
%TD*%
%TO.P,Q1,1,G*%
%TO.N,L1*%
X102755000Y-94025000D03*
D18*
%TO.P,Q1,2,D*%
%TO.N,Net-(J8-Pad2)*%
X100475000Y-100325000D03*
D17*
%TO.P,Q1,3,S*%
%TO.N,GND*%
X98195000Y-94025000D03*
%TD*%
D14*
%TO.P,J17,1,Pin_1*%
%TO.N,GND1*%
X167000000Y-109800000D03*
%TD*%
D15*
%TO.P,J8,1,Pin_1*%
%TO.N,+24V*%
X99735000Y-85000000D03*
D16*
%TO.P,J8,2,Pin_2*%
%TO.N,Net-(J8-Pad2)*%
X104735000Y-85000000D03*
%TD*%
D14*
%TO.P,J3,1,Pin_1*%
%TO.N,MCU_L1*%
X124000000Y-125000000D03*
%TD*%
D15*
%TO.P,J11,1,Pin_1*%
%TO.N,Net-(J11-Pad1)*%
X148735000Y-85000000D03*
D16*
%TO.P,J11,2,Pin_2*%
%TO.N,VAC*%
X153735000Y-85000000D03*
%TD*%
D12*
%TO.P,JP2,1,A*%
%TO.N,MCU_L2*%
X124000000Y-95725000D03*
D13*
%TO.P,JP2,2,B*%
%TO.N,L2*%
X124000000Y-94275000D03*
%TD*%
D19*
%TO.P,K1,1*%
%TO.N,GND1*%
X152500000Y-106600000D03*
%TO.P,K1,3*%
%TO.N,Earth*%
X152500000Y-101200000D03*
%TO.P,K1,5*%
%TO.N,Net-(J11-Pad1)*%
X158500000Y-101200000D03*
%TO.P,K1,6*%
%TO.N,MCU_Bike*%
X158500000Y-106600000D03*
%TD*%
D20*
%TO.P,J12,1,Pin_1*%
%TO.N,VAC*%
X167000000Y-92000000D03*
%TD*%
D14*
%TO.P,J15,1,Pin_1*%
%TO.N,+5V*%
X147000000Y-125000000D03*
%TD*%
D21*
%TO.P,R2,1*%
%TO.N,Net-(Q6-Pad2)*%
X127825000Y-110400000D03*
%TO.P,R2,2*%
%TO.N,GND1*%
X126175000Y-110400000D03*
%TD*%
D22*
%TO.P,R8,1*%
%TO.N,L3*%
X139275000Y-110500000D03*
%TO.P,R8,2*%
%TO.N,GND*%
X140925000Y-110500000D03*
%TD*%
D23*
%TO.P,JP4,1,A*%
%TO.N,GND1*%
X154000000Y-118275000D03*
D24*
%TO.P,JP4,2,B*%
%TO.N,GND*%
X154000000Y-119725000D03*
%TD*%
D15*
%TO.P,J10,1,Pin_1*%
%TO.N,+24V*%
X132735000Y-85000000D03*
D16*
%TO.P,J10,2,Pin_2*%
%TO.N,Net-(J10-Pad2)*%
X137735000Y-85000000D03*
%TD*%
D21*
%TO.P,R3,1*%
%TO.N,Net-(Q5-Pad4)*%
X105325000Y-113100000D03*
%TO.P,R3,2*%
%TO.N,GND1*%
X103675000Y-113100000D03*
%TD*%
D11*
%TO.P,Q5,1,ANODE_1*%
%TO.N,MCU_L1*%
X108655000Y-109205000D03*
%TO.P,Q5,2,CATHODE_1*%
%TO.N,Net-(Q5-Pad2)*%
X108655000Y-110475000D03*
%TO.P,Q5,3,ANODE_2*%
%TO.N,MCU_L2*%
X108655000Y-111745000D03*
%TO.P,Q5,4,CATHODE_2*%
%TO.N,Net-(Q5-Pad4)*%
X108655000Y-113015000D03*
%TO.P,Q5,5,EMITTER_2*%
%TO.N,L2*%
X113605000Y-113015000D03*
%TO.P,Q5,6,COLLECTOR_2*%
%TO.N,+5V*%
X113605000Y-111745000D03*
%TO.P,Q5,7,EMITTER_1*%
%TO.N,L1*%
X113605000Y-110475000D03*
%TO.P,Q5,8,COLLECTOR_1*%
%TO.N,+5V*%
X113605000Y-109205000D03*
%TD*%
D22*
%TO.P,R7,1*%
%TO.N,L1*%
X117175000Y-110500000D03*
%TO.P,R7,2*%
%TO.N,GND*%
X118825000Y-110500000D03*
%TD*%
D20*
%TO.P,J2,1,Pin_1*%
%TO.N,GND*%
X89000000Y-101320000D03*
%TD*%
D17*
%TO.P,Q2,1,G*%
%TO.N,L2*%
X119755000Y-94025000D03*
D18*
%TO.P,Q2,2,D*%
%TO.N,Net-(J9-Pad2)*%
X117475000Y-100325000D03*
D17*
%TO.P,Q2,3,S*%
%TO.N,GND*%
X115195000Y-94025000D03*
%TD*%
D14*
%TO.P,J4,1,Pin_1*%
%TO.N,MCU_L2*%
X129000000Y-125000000D03*
%TD*%
D20*
%TO.P,J13,1,Pin_1*%
%TO.N,Earth*%
X167100000Y-99500000D03*
%TD*%
%TO.P,J1,1,Pin_1*%
%TO.N,+24V*%
X89000000Y-94900000D03*
%TD*%
D12*
%TO.P,JP3,1,A*%
%TO.N,MCU_L3*%
X140000000Y-95725000D03*
D13*
%TO.P,JP3,2,B*%
%TO.N,L3*%
X140000000Y-94275000D03*
%TD*%
D21*
%TO.P,R1,1*%
%TO.N,Net-(Q5-Pad2)*%
X105325000Y-110500000D03*
%TO.P,R1,2*%
%TO.N,GND1*%
X103675000Y-110500000D03*
%TD*%
D22*
%TO.P,R5,1*%
%TO.N,L2*%
X117075000Y-114200000D03*
%TO.P,R5,2*%
%TO.N,GND*%
X118725000Y-114200000D03*
%TD*%
D25*
%TO.N,GND*%
X142000000Y-110500000D03*
X154000000Y-121000000D03*
X113500000Y-94000000D03*
X129600000Y-94100000D03*
X119300000Y-109500000D03*
X119000000Y-113200000D03*
X96700000Y-94000000D03*
%TO.N,L2*%
X117800000Y-112600000D03*
X118600000Y-108300000D03*
%TO.N,GND1*%
X109400000Y-115500000D03*
X114600000Y-115600000D03*
X123500000Y-114800000D03*
X124700000Y-113300000D03*
%TO.N,MCU_L2*%
X122700000Y-112700000D03*
X122700000Y-110900000D03*
%TO.N,MCU_L3*%
X132900000Y-109000000D03*
X138649500Y-104700000D03*
%TD*%
D26*
%TO.N,GND*%
X118725000Y-114200000D02*
X118725000Y-113475000D01*
D27*
X113525000Y-94025000D02*
X113500000Y-94000000D01*
D26*
X118725000Y-113475000D02*
X119000000Y-113200000D01*
X118825000Y-109975000D02*
X118825000Y-110500000D01*
D27*
X96725000Y-94025000D02*
X96700000Y-94000000D01*
D28*
X154000000Y-119725000D02*
X154000000Y-121000000D01*
X140925000Y-110500000D02*
X142000000Y-110500000D01*
D27*
X98195000Y-94025000D02*
X96725000Y-94025000D01*
X115195000Y-94025000D02*
X113525000Y-94025000D01*
X129675000Y-94025000D02*
X129600000Y-94100000D01*
D26*
X119300000Y-109500000D02*
X118825000Y-109975000D01*
D27*
X131195000Y-94025000D02*
X129675000Y-94025000D01*
D29*
%TO.N,+24V*%
X99735000Y-85000000D02*
X99735000Y-84765000D01*
X120635000Y-81100000D02*
X128835000Y-81100000D01*
X103700000Y-80800000D02*
X112535000Y-80800000D01*
X112535000Y-80800000D02*
X116735000Y-85000000D01*
X89835000Y-94900000D02*
X99735000Y-85000000D01*
X128835000Y-81100000D02*
X132735000Y-85000000D01*
X116735000Y-85000000D02*
X120635000Y-81100000D01*
X89000000Y-94900000D02*
X89835000Y-94900000D01*
X99735000Y-84765000D02*
X103700000Y-80800000D01*
D28*
%TO.N,L1*%
X110500000Y-96500000D02*
X110500000Y-103825000D01*
X117150000Y-110475000D02*
X117175000Y-110500000D01*
X113605000Y-110475000D02*
X117150000Y-110475000D01*
X107000000Y-94275000D02*
X108275000Y-94275000D01*
X110500000Y-103825000D02*
X117175000Y-110500000D01*
X108275000Y-94275000D02*
X110500000Y-96500000D01*
X102755000Y-94025000D02*
X106750000Y-94025000D01*
X106750000Y-94025000D02*
X107000000Y-94275000D01*
%TO.N,L2*%
X117075000Y-114200000D02*
X117075000Y-113325000D01*
X119755000Y-94025000D02*
X123750000Y-94025000D01*
X113605000Y-113015000D02*
X115890000Y-113015000D01*
X123750000Y-94025000D02*
X124000000Y-94275000D01*
X121900000Y-96170000D02*
X119755000Y-94025000D01*
X119300000Y-108300000D02*
X121900000Y-105700000D01*
X121900000Y-105700000D02*
X121900000Y-96170000D01*
X117075000Y-113325000D02*
X117800000Y-112600000D01*
X118600000Y-108300000D02*
X119300000Y-108300000D01*
X115890000Y-113015000D02*
X117075000Y-114200000D01*
%TO.N,L3*%
X135945000Y-110475000D02*
X139250000Y-110475000D01*
X139250000Y-110475000D02*
X139275000Y-110500000D01*
X137900000Y-109125000D02*
X137900000Y-96170000D01*
X139275000Y-110500000D02*
X137900000Y-109125000D01*
X139750000Y-94025000D02*
X140000000Y-94275000D01*
X137900000Y-96170000D02*
X135755000Y-94025000D01*
X135755000Y-94025000D02*
X139750000Y-94025000D01*
%TO.N,MCU_L1*%
X111100000Y-109900000D02*
X110405000Y-109205000D01*
X107000000Y-107550000D02*
X108655000Y-109205000D01*
X122600000Y-125000000D02*
X111100000Y-113500000D01*
X111100000Y-113500000D02*
X111100000Y-109900000D01*
X110405000Y-109205000D02*
X108655000Y-109205000D01*
X107000000Y-95725000D02*
X107000000Y-107550000D01*
X124000000Y-125000000D02*
X122600000Y-125000000D01*
D29*
%TO.N,Net-(J8-Pad2)*%
X100475000Y-100325000D02*
X100475000Y-89260000D01*
X100475000Y-89260000D02*
X104735000Y-85000000D01*
%TO.N,Net-(J9-Pad2)*%
X117475000Y-89260000D02*
X121735000Y-85000000D01*
X117475000Y-100325000D02*
X117475000Y-89260000D01*
%TO.N,Net-(J10-Pad2)*%
X133475000Y-89260000D02*
X137735000Y-85000000D01*
X133475000Y-100325000D02*
X133475000Y-89260000D01*
D28*
%TO.N,GND1*%
X124700000Y-113300000D02*
X126175000Y-111825000D01*
X103675000Y-110500000D02*
X103675000Y-113100000D01*
X126175000Y-113775000D02*
X131400000Y-119000000D01*
X153850000Y-118125000D02*
X153850000Y-111000000D01*
X126175000Y-111825000D02*
X126175000Y-110400000D01*
X114600000Y-115600000D02*
X122700000Y-115600000D01*
X156300000Y-125300000D02*
X156300000Y-119700000D01*
X156300000Y-119700000D02*
X154875000Y-118275000D01*
D26*
X152500000Y-106600000D02*
X154300000Y-104800000D01*
D28*
X131400000Y-125700000D02*
X132600000Y-126900000D01*
X132600000Y-126900000D02*
X154700000Y-126900000D01*
X126175000Y-110400000D02*
X126175000Y-113775000D01*
X154000000Y-118275000D02*
X153850000Y-118125000D01*
X131400000Y-119000000D02*
X131400000Y-125700000D01*
X106075000Y-115500000D02*
X109400000Y-115500000D01*
D26*
X162000000Y-104800000D02*
X167000000Y-109800000D01*
D28*
X152500000Y-106600000D02*
X152500000Y-109650000D01*
X154875000Y-118275000D02*
X154000000Y-118275000D01*
X152500000Y-109650000D02*
X153850000Y-111000000D01*
X103675000Y-113100000D02*
X106075000Y-115500000D01*
D26*
X154300000Y-104800000D02*
X162000000Y-104800000D01*
D28*
X122700000Y-115600000D02*
X123500000Y-114800000D01*
X154700000Y-126900000D02*
X156300000Y-125300000D01*
D27*
%TO.N,VAC*%
X160000000Y-85000000D02*
X167000000Y-92000000D01*
X153735000Y-85000000D02*
X160000000Y-85000000D01*
D28*
%TO.N,MCU_L2*%
X110400000Y-117100000D02*
X110400000Y-112600000D01*
X125200000Y-126900000D02*
X120200000Y-126900000D01*
X122700000Y-112700000D02*
X129000000Y-119000000D01*
X122700000Y-110000000D02*
X122700000Y-110900000D01*
X129000000Y-125000000D02*
X127100000Y-125000000D01*
X129000000Y-119000000D02*
X129000000Y-125000000D01*
X124000000Y-95725000D02*
X124000000Y-108700000D01*
X120200000Y-126900000D02*
X110400000Y-117100000D01*
X110400000Y-112600000D02*
X109545000Y-111745000D01*
X109545000Y-111745000D02*
X108655000Y-111745000D01*
X124000000Y-108700000D02*
X122800000Y-109900000D01*
X122800000Y-109900000D02*
X122700000Y-110000000D01*
X127100000Y-125000000D02*
X125200000Y-126900000D01*
%TO.N,MCU_L3*%
X140000000Y-95725000D02*
X140000000Y-103349500D01*
X140000000Y-103349500D02*
X138649500Y-104700000D01*
X134000000Y-125000000D02*
X133000000Y-124000000D01*
X133000000Y-110798573D02*
X131406427Y-109205000D01*
X133000000Y-124000000D02*
X133000000Y-110798573D01*
X131200000Y-109000000D02*
X130995000Y-109205000D01*
X131406427Y-109205000D02*
X130995000Y-109205000D01*
X132900000Y-109000000D02*
X131200000Y-109000000D01*
%TO.N,MCU_Bike*%
X167000000Y-116000000D02*
X162150000Y-116000000D01*
X157150000Y-111000000D02*
X157150000Y-107950000D01*
X162150000Y-116000000D02*
X157150000Y-111000000D01*
X157150000Y-107950000D02*
X158500000Y-106600000D01*
D27*
%TO.N,Earth*%
X155700000Y-98000000D02*
X165600000Y-98000000D01*
X152500000Y-101200000D02*
X155700000Y-98000000D01*
X165600000Y-98000000D02*
X167100000Y-99500000D01*
D28*
%TO.N,Net-(Q5-Pad2)*%
X105325000Y-110500000D02*
X108630000Y-110500000D01*
X108630000Y-110500000D02*
X108655000Y-110475000D01*
%TO.N,Net-(Q5-Pad4)*%
X105325000Y-113100000D02*
X108570000Y-113100000D01*
X108570000Y-113100000D02*
X108655000Y-113015000D01*
%TO.N,Net-(Q6-Pad2)*%
X130920000Y-110400000D02*
X130995000Y-110475000D01*
X127825000Y-110400000D02*
X130920000Y-110400000D01*
D27*
%TO.N,Net-(J11-Pad1)*%
X156800000Y-102900000D02*
X151200000Y-102900000D01*
X148735000Y-100435000D02*
X148735000Y-85000000D01*
X151200000Y-102900000D02*
X148735000Y-100435000D01*
X158500000Y-101200000D02*
X156800000Y-102900000D01*
D28*
%TO.N,+5V*%
X135945000Y-109205000D02*
X134795000Y-109205000D01*
X126800000Y-108100000D02*
X134840000Y-108100000D01*
X111900000Y-110900000D02*
X112745000Y-111745000D01*
X134645000Y-111745000D02*
X135945000Y-111745000D01*
X134795000Y-109205000D02*
X133900000Y-110100000D01*
X137645000Y-111745000D02*
X135945000Y-111745000D01*
X112745000Y-111745000D02*
X113605000Y-111745000D01*
X134840000Y-108100000D02*
X135945000Y-109205000D01*
X147000000Y-125000000D02*
X147000000Y-121100000D01*
X133900000Y-111000000D02*
X134645000Y-111745000D01*
X147000000Y-121100000D02*
X137645000Y-111745000D01*
X133900000Y-110100000D02*
X133900000Y-111000000D01*
X113605000Y-109205000D02*
X112695000Y-109205000D01*
X112695000Y-109205000D02*
X111900000Y-110000000D01*
X123155000Y-111745000D02*
X126800000Y-108100000D01*
X111900000Y-110000000D02*
X111900000Y-110900000D01*
X113605000Y-111745000D02*
X123155000Y-111745000D01*
%TD*%
M02*
