%TF.GenerationSoftware,KiCad,Pcbnew,(6.0.1)*%
%TF.CreationDate,2022-03-29T14:07:41-05:00*%
%TF.ProjectId,light_board,6c696768-745f-4626-9f61-72642e6b6963,rev?*%
%TF.SameCoordinates,Original*%
%TF.FileFunction,Copper,L2,Bot*%
%TF.FilePolarity,Positive*%
%FSLAX46Y46*%
G04 Gerber Fmt 4.6, Leading zero omitted, Abs format (unit mm)*
G04 Created by KiCad (PCBNEW (6.0.1)) date 2022-03-29 14:07:41*
%MOMM*%
%LPD*%
G01*
G04 APERTURE LIST*
%TA.AperFunction,ComponentPad*%
%ADD10R,1.700000X1.700000*%
%TD*%
%TA.AperFunction,ComponentPad*%
%ADD11R,1.980000X3.960000*%
%TD*%
%TA.AperFunction,ComponentPad*%
%ADD12O,1.980000X3.960000*%
%TD*%
%TA.AperFunction,ComponentPad*%
%ADD13C,4.400000*%
%TD*%
%TA.AperFunction,ViaPad*%
%ADD14C,0.800000*%
%TD*%
%TA.AperFunction,Conductor*%
%ADD15C,0.300000*%
%TD*%
G04 APERTURE END LIST*
D10*
%TO.P,J16,1,Pin_1*%
%TO.N,GND*%
X152000000Y-125000000D03*
%TD*%
%TO.P,J6,1,Pin_1*%
%TO.N,MCU_Bike*%
X167000000Y-116000000D03*
%TD*%
%TO.P,J5,1,Pin_1*%
%TO.N,MCU_L3*%
X134000000Y-125000000D03*
%TD*%
D11*
%TO.P,J9,1,Pin_1*%
%TO.N,+24V*%
X116735000Y-85000000D03*
D12*
%TO.P,J9,2,Pin_2*%
%TO.N,Net-(J9-Pad2)*%
X121735000Y-85000000D03*
%TD*%
D10*
%TO.P,J17,1,Pin_1*%
%TO.N,GND1*%
X167000000Y-109800000D03*
%TD*%
D11*
%TO.P,J8,1,Pin_1*%
%TO.N,+24V*%
X99735000Y-85000000D03*
D12*
%TO.P,J8,2,Pin_2*%
%TO.N,Net-(J8-Pad2)*%
X104735000Y-85000000D03*
%TD*%
D10*
%TO.P,J3,1,Pin_1*%
%TO.N,MCU_L1*%
X124000000Y-125000000D03*
%TD*%
D11*
%TO.P,J11,1,Pin_1*%
%TO.N,Net-(J11-Pad1)*%
X148735000Y-85000000D03*
D12*
%TO.P,J11,2,Pin_2*%
%TO.N,VAC*%
X153735000Y-85000000D03*
%TD*%
D13*
%TO.P,J12,1,Pin_1*%
%TO.N,VAC*%
X167000000Y-92000000D03*
%TD*%
D10*
%TO.P,J15,1,Pin_1*%
%TO.N,+5V*%
X147000000Y-125000000D03*
%TD*%
D11*
%TO.P,J10,1,Pin_1*%
%TO.N,+24V*%
X132735000Y-85000000D03*
D12*
%TO.P,J10,2,Pin_2*%
%TO.N,Net-(J10-Pad2)*%
X137735000Y-85000000D03*
%TD*%
D13*
%TO.P,J2,1,Pin_1*%
%TO.N,GND*%
X89000000Y-101320000D03*
%TD*%
D10*
%TO.P,J4,1,Pin_1*%
%TO.N,MCU_L2*%
X129000000Y-125000000D03*
%TD*%
D13*
%TO.P,J13,1,Pin_1*%
%TO.N,Earth*%
X167100000Y-99500000D03*
%TD*%
%TO.P,J1,1,Pin_1*%
%TO.N,+24V*%
X89000000Y-94900000D03*
%TD*%
D14*
%TO.N,GND*%
X142000000Y-110500000D03*
X154000000Y-121000000D03*
X113500000Y-94000000D03*
X129600000Y-94100000D03*
X119300000Y-109500000D03*
X119000000Y-113200000D03*
X96700000Y-94000000D03*
%TO.N,L2*%
X117800000Y-112600000D03*
X118600000Y-108300000D03*
%TO.N,GND1*%
X109400000Y-115500000D03*
X114600000Y-115600000D03*
X123500000Y-114800000D03*
X124700000Y-113300000D03*
%TO.N,MCU_L2*%
X122700000Y-112700000D03*
X122700000Y-110900000D03*
%TO.N,MCU_L3*%
X132900000Y-109000000D03*
X138649500Y-104700000D03*
%TD*%
D15*
%TO.N,L2*%
X118600000Y-108300000D02*
X117800000Y-109100000D01*
X117800000Y-109100000D02*
X117800000Y-112600000D01*
%TO.N,GND1*%
X109400000Y-115500000D02*
X114500000Y-115500000D01*
X114500000Y-115500000D02*
X114600000Y-115600000D01*
X123500000Y-114800000D02*
X123500000Y-114500000D01*
X123500000Y-114500000D02*
X124700000Y-113300000D01*
%TO.N,MCU_L2*%
X122700000Y-110900000D02*
X122700000Y-112700000D01*
%TO.N,MCU_L3*%
X137200000Y-104700000D02*
X132900000Y-109000000D01*
X138649500Y-104700000D02*
X137200000Y-104700000D01*
%TD*%
%TA.AperFunction,Conductor*%
%TO.N,GND*%
G36*
X144442121Y-78428002D02*
G01*
X144488614Y-78481658D01*
X144500000Y-78534000D01*
X144500000Y-108500000D01*
X165599856Y-108500000D01*
X165667977Y-108520002D01*
X165714470Y-108573658D01*
X165724574Y-108643932D01*
X165706734Y-108686956D01*
X165709079Y-108688240D01*
X165704771Y-108696108D01*
X165699385Y-108703295D01*
X165648255Y-108839684D01*
X165641500Y-108901866D01*
X165641500Y-110698134D01*
X165648255Y-110760316D01*
X165699385Y-110896705D01*
X165786739Y-111013261D01*
X165903295Y-111100615D01*
X166039684Y-111151745D01*
X166101866Y-111158500D01*
X167898134Y-111158500D01*
X167960316Y-111151745D01*
X168096705Y-111100615D01*
X168213261Y-111013261D01*
X168300615Y-110896705D01*
X168351745Y-110760316D01*
X168358500Y-110698134D01*
X168358500Y-108901866D01*
X168351745Y-108839684D01*
X168300615Y-108703295D01*
X168295229Y-108696108D01*
X168290921Y-108688240D01*
X168293762Y-108686685D01*
X168274472Y-108635079D01*
X168289513Y-108565694D01*
X168339679Y-108515456D01*
X168400144Y-108500000D01*
X169866000Y-108500000D01*
X169934121Y-108520002D01*
X169980614Y-108573658D01*
X169992000Y-108626000D01*
X169992000Y-127266000D01*
X169971998Y-127334121D01*
X169918342Y-127380614D01*
X169866000Y-127392000D01*
X86134000Y-127392000D01*
X86065879Y-127371998D01*
X86019386Y-127318342D01*
X86008000Y-127266000D01*
X86008000Y-125898134D01*
X122641500Y-125898134D01*
X122648255Y-125960316D01*
X122699385Y-126096705D01*
X122786739Y-126213261D01*
X122903295Y-126300615D01*
X123039684Y-126351745D01*
X123101866Y-126358500D01*
X124898134Y-126358500D01*
X124960316Y-126351745D01*
X125096705Y-126300615D01*
X125213261Y-126213261D01*
X125300615Y-126096705D01*
X125351745Y-125960316D01*
X125358500Y-125898134D01*
X127641500Y-125898134D01*
X127648255Y-125960316D01*
X127699385Y-126096705D01*
X127786739Y-126213261D01*
X127903295Y-126300615D01*
X128039684Y-126351745D01*
X128101866Y-126358500D01*
X129898134Y-126358500D01*
X129960316Y-126351745D01*
X130096705Y-126300615D01*
X130213261Y-126213261D01*
X130300615Y-126096705D01*
X130351745Y-125960316D01*
X130358500Y-125898134D01*
X132641500Y-125898134D01*
X132648255Y-125960316D01*
X132699385Y-126096705D01*
X132786739Y-126213261D01*
X132903295Y-126300615D01*
X133039684Y-126351745D01*
X133101866Y-126358500D01*
X134898134Y-126358500D01*
X134960316Y-126351745D01*
X135096705Y-126300615D01*
X135213261Y-126213261D01*
X135300615Y-126096705D01*
X135351745Y-125960316D01*
X135358500Y-125898134D01*
X145641500Y-125898134D01*
X145648255Y-125960316D01*
X145699385Y-126096705D01*
X145786739Y-126213261D01*
X145903295Y-126300615D01*
X146039684Y-126351745D01*
X146101866Y-126358500D01*
X147898134Y-126358500D01*
X147960316Y-126351745D01*
X148096705Y-126300615D01*
X148213261Y-126213261D01*
X148300615Y-126096705D01*
X148351745Y-125960316D01*
X148358500Y-125898134D01*
X148358500Y-125894669D01*
X150642001Y-125894669D01*
X150642371Y-125901490D01*
X150647895Y-125952352D01*
X150651521Y-125967604D01*
X150696676Y-126088054D01*
X150705214Y-126103649D01*
X150781715Y-126205724D01*
X150794276Y-126218285D01*
X150896351Y-126294786D01*
X150911946Y-126303324D01*
X151032394Y-126348478D01*
X151047649Y-126352105D01*
X151098514Y-126357631D01*
X151105328Y-126358000D01*
X151727885Y-126358000D01*
X151743124Y-126353525D01*
X151744329Y-126352135D01*
X151746000Y-126344452D01*
X151746000Y-126339884D01*
X152254000Y-126339884D01*
X152258475Y-126355123D01*
X152259865Y-126356328D01*
X152267548Y-126357999D01*
X152894669Y-126357999D01*
X152901490Y-126357629D01*
X152952352Y-126352105D01*
X152967604Y-126348479D01*
X153088054Y-126303324D01*
X153103649Y-126294786D01*
X153205724Y-126218285D01*
X153218285Y-126205724D01*
X153294786Y-126103649D01*
X153303324Y-126088054D01*
X153348478Y-125967606D01*
X153352105Y-125952351D01*
X153357631Y-125901486D01*
X153358000Y-125894672D01*
X153358000Y-125272115D01*
X153353525Y-125256876D01*
X153352135Y-125255671D01*
X153344452Y-125254000D01*
X152272115Y-125254000D01*
X152256876Y-125258475D01*
X152255671Y-125259865D01*
X152254000Y-125267548D01*
X152254000Y-126339884D01*
X151746000Y-126339884D01*
X151746000Y-125272115D01*
X151741525Y-125256876D01*
X151740135Y-125255671D01*
X151732452Y-125254000D01*
X150660116Y-125254000D01*
X150644877Y-125258475D01*
X150643672Y-125259865D01*
X150642001Y-125267548D01*
X150642001Y-125894669D01*
X148358500Y-125894669D01*
X148358500Y-124727885D01*
X150642000Y-124727885D01*
X150646475Y-124743124D01*
X150647865Y-124744329D01*
X150655548Y-124746000D01*
X151727885Y-124746000D01*
X151743124Y-124741525D01*
X151744329Y-124740135D01*
X151746000Y-124732452D01*
X151746000Y-124727885D01*
X152254000Y-124727885D01*
X152258475Y-124743124D01*
X152259865Y-124744329D01*
X152267548Y-124746000D01*
X153339884Y-124746000D01*
X153355123Y-124741525D01*
X153356328Y-124740135D01*
X153357999Y-124732452D01*
X153357999Y-124105331D01*
X153357629Y-124098510D01*
X153352105Y-124047648D01*
X153348479Y-124032396D01*
X153303324Y-123911946D01*
X153294786Y-123896351D01*
X153218285Y-123794276D01*
X153205724Y-123781715D01*
X153103649Y-123705214D01*
X153088054Y-123696676D01*
X152967606Y-123651522D01*
X152952351Y-123647895D01*
X152901486Y-123642369D01*
X152894672Y-123642000D01*
X152272115Y-123642000D01*
X152256876Y-123646475D01*
X152255671Y-123647865D01*
X152254000Y-123655548D01*
X152254000Y-124727885D01*
X151746000Y-124727885D01*
X151746000Y-123660116D01*
X151741525Y-123644877D01*
X151740135Y-123643672D01*
X151732452Y-123642001D01*
X151105331Y-123642001D01*
X151098510Y-123642371D01*
X151047648Y-123647895D01*
X151032396Y-123651521D01*
X150911946Y-123696676D01*
X150896351Y-123705214D01*
X150794276Y-123781715D01*
X150781715Y-123794276D01*
X150705214Y-123896351D01*
X150696676Y-123911946D01*
X150651522Y-124032394D01*
X150647895Y-124047649D01*
X150642369Y-124098514D01*
X150642000Y-124105328D01*
X150642000Y-124727885D01*
X148358500Y-124727885D01*
X148358500Y-124101866D01*
X148351745Y-124039684D01*
X148300615Y-123903295D01*
X148213261Y-123786739D01*
X148096705Y-123699385D01*
X147960316Y-123648255D01*
X147898134Y-123641500D01*
X146101866Y-123641500D01*
X146039684Y-123648255D01*
X145903295Y-123699385D01*
X145786739Y-123786739D01*
X145699385Y-123903295D01*
X145648255Y-124039684D01*
X145641500Y-124101866D01*
X145641500Y-125898134D01*
X135358500Y-125898134D01*
X135358500Y-124101866D01*
X135351745Y-124039684D01*
X135300615Y-123903295D01*
X135213261Y-123786739D01*
X135096705Y-123699385D01*
X134960316Y-123648255D01*
X134898134Y-123641500D01*
X133101866Y-123641500D01*
X133039684Y-123648255D01*
X132903295Y-123699385D01*
X132786739Y-123786739D01*
X132699385Y-123903295D01*
X132648255Y-124039684D01*
X132641500Y-124101866D01*
X132641500Y-125898134D01*
X130358500Y-125898134D01*
X130358500Y-124101866D01*
X130351745Y-124039684D01*
X130300615Y-123903295D01*
X130213261Y-123786739D01*
X130096705Y-123699385D01*
X129960316Y-123648255D01*
X129898134Y-123641500D01*
X128101866Y-123641500D01*
X128039684Y-123648255D01*
X127903295Y-123699385D01*
X127786739Y-123786739D01*
X127699385Y-123903295D01*
X127648255Y-124039684D01*
X127641500Y-124101866D01*
X127641500Y-125898134D01*
X125358500Y-125898134D01*
X125358500Y-124101866D01*
X125351745Y-124039684D01*
X125300615Y-123903295D01*
X125213261Y-123786739D01*
X125096705Y-123699385D01*
X124960316Y-123648255D01*
X124898134Y-123641500D01*
X123101866Y-123641500D01*
X123039684Y-123648255D01*
X122903295Y-123699385D01*
X122786739Y-123786739D01*
X122699385Y-123903295D01*
X122648255Y-124039684D01*
X122641500Y-124101866D01*
X122641500Y-125898134D01*
X86008000Y-125898134D01*
X86008000Y-122947404D01*
X88236941Y-122947404D01*
X88263091Y-123246292D01*
X88264001Y-123250364D01*
X88264002Y-123250369D01*
X88327628Y-123535016D01*
X88328540Y-123539095D01*
X88432140Y-123820671D01*
X88434084Y-123824359D01*
X88434088Y-123824367D01*
X88539536Y-124024367D01*
X88572069Y-124086071D01*
X88745871Y-124330633D01*
X88950490Y-124550061D01*
X89182333Y-124740498D01*
X89437325Y-124898600D01*
X89710988Y-125021589D01*
X89806264Y-125049992D01*
X89994514Y-125106112D01*
X89994516Y-125106112D01*
X89998513Y-125107304D01*
X90002633Y-125107957D01*
X90002635Y-125107957D01*
X90121509Y-125126785D01*
X90294848Y-125154239D01*
X90337577Y-125156179D01*
X90387262Y-125158436D01*
X90387281Y-125158436D01*
X90388681Y-125158500D01*
X90576107Y-125158500D01*
X90799370Y-125143671D01*
X90803464Y-125142846D01*
X90803468Y-125142845D01*
X90944513Y-125114405D01*
X91093480Y-125084368D01*
X91377163Y-124986688D01*
X91380896Y-124984819D01*
X91380900Y-124984817D01*
X91641691Y-124854222D01*
X91641693Y-124854221D01*
X91645435Y-124852347D01*
X91801921Y-124746000D01*
X91890125Y-124686057D01*
X91890128Y-124686055D01*
X91893584Y-124683706D01*
X92117248Y-124483726D01*
X92144084Y-124452416D01*
X92309779Y-124259097D01*
X92309782Y-124259093D01*
X92312499Y-124255923D01*
X92314773Y-124252421D01*
X92314777Y-124252416D01*
X92473628Y-124007807D01*
X92473631Y-124007802D01*
X92475907Y-124004297D01*
X92527164Y-123896351D01*
X92602804Y-123737052D01*
X92604600Y-123733270D01*
X92615480Y-123699385D01*
X92695038Y-123451591D01*
X92695038Y-123451590D01*
X92696318Y-123447604D01*
X92749448Y-123152316D01*
X92749672Y-123147404D01*
X163236941Y-123147404D01*
X163237304Y-123151552D01*
X163237304Y-123151556D01*
X163253992Y-123342290D01*
X163263091Y-123446292D01*
X163264001Y-123450364D01*
X163264002Y-123450369D01*
X163326347Y-123729284D01*
X163328540Y-123739095D01*
X163432140Y-124020671D01*
X163434084Y-124024359D01*
X163434088Y-124024367D01*
X163530805Y-124207807D01*
X163572069Y-124286071D01*
X163745871Y-124530633D01*
X163950490Y-124750061D01*
X164182333Y-124940498D01*
X164437325Y-125098600D01*
X164710988Y-125221589D01*
X164825314Y-125255671D01*
X164994514Y-125306112D01*
X164994516Y-125306112D01*
X164998513Y-125307304D01*
X165002633Y-125307957D01*
X165002635Y-125307957D01*
X165121509Y-125326785D01*
X165294848Y-125354239D01*
X165337577Y-125356179D01*
X165387262Y-125358436D01*
X165387281Y-125358436D01*
X165388681Y-125358500D01*
X165576107Y-125358500D01*
X165799370Y-125343671D01*
X165803464Y-125342846D01*
X165803468Y-125342845D01*
X165944513Y-125314405D01*
X166093480Y-125284368D01*
X166377163Y-125186688D01*
X166380896Y-125184819D01*
X166380900Y-125184817D01*
X166641691Y-125054222D01*
X166641693Y-125054221D01*
X166645435Y-125052347D01*
X166893584Y-124883706D01*
X167117248Y-124683726D01*
X167119966Y-124680555D01*
X167309779Y-124459097D01*
X167309782Y-124459093D01*
X167312499Y-124455923D01*
X167314773Y-124452421D01*
X167314777Y-124452416D01*
X167473628Y-124207807D01*
X167473631Y-124207802D01*
X167475907Y-124204297D01*
X167604600Y-123933270D01*
X167611447Y-123911946D01*
X167695038Y-123651591D01*
X167695038Y-123651590D01*
X167696318Y-123647604D01*
X167732539Y-123446292D01*
X167748709Y-123356425D01*
X167748710Y-123356420D01*
X167749448Y-123352316D01*
X167758531Y-123152316D01*
X167762870Y-123056766D01*
X167762870Y-123056760D01*
X167763059Y-123052596D01*
X167736909Y-122753708D01*
X167712292Y-122643575D01*
X167672372Y-122464984D01*
X167672371Y-122464981D01*
X167671460Y-122460905D01*
X167567860Y-122179329D01*
X167565916Y-122175641D01*
X167565912Y-122175633D01*
X167429884Y-121917633D01*
X167429883Y-121917632D01*
X167427931Y-121913929D01*
X167254129Y-121669367D01*
X167049510Y-121449939D01*
X166817667Y-121259502D01*
X166562675Y-121101400D01*
X166289012Y-120978411D01*
X166075650Y-120914805D01*
X166005486Y-120893888D01*
X166005484Y-120893888D01*
X166001487Y-120892696D01*
X165997367Y-120892043D01*
X165997365Y-120892043D01*
X165878491Y-120873215D01*
X165705152Y-120845761D01*
X165662423Y-120843821D01*
X165612738Y-120841564D01*
X165612719Y-120841564D01*
X165611319Y-120841500D01*
X165423893Y-120841500D01*
X165200630Y-120856329D01*
X165196536Y-120857154D01*
X165196532Y-120857155D01*
X165055487Y-120885595D01*
X164906520Y-120915632D01*
X164622837Y-121013312D01*
X164619104Y-121015181D01*
X164619100Y-121015183D01*
X164358309Y-121145778D01*
X164354565Y-121147653D01*
X164106416Y-121316294D01*
X163882752Y-121516274D01*
X163880035Y-121519444D01*
X163880034Y-121519445D01*
X163754155Y-121666311D01*
X163687501Y-121744077D01*
X163685227Y-121747579D01*
X163685223Y-121747584D01*
X163526372Y-121992193D01*
X163524093Y-121995703D01*
X163395400Y-122266730D01*
X163394121Y-122270713D01*
X163394120Y-122270716D01*
X163367895Y-122352396D01*
X163303682Y-122552396D01*
X163250552Y-122847684D01*
X163250363Y-122851851D01*
X163250362Y-122851858D01*
X163246023Y-122947404D01*
X163236941Y-123147404D01*
X92749672Y-123147404D01*
X92762870Y-122856766D01*
X92762870Y-122856760D01*
X92763059Y-122852596D01*
X92762630Y-122847684D01*
X92737273Y-122557870D01*
X92736909Y-122553708D01*
X92692832Y-122356515D01*
X92672372Y-122264984D01*
X92672371Y-122264981D01*
X92671460Y-122260905D01*
X92567860Y-121979329D01*
X92565916Y-121975641D01*
X92565912Y-121975633D01*
X92429884Y-121717633D01*
X92429883Y-121717632D01*
X92427931Y-121713929D01*
X92254129Y-121469367D01*
X92049510Y-121249939D01*
X91817667Y-121059502D01*
X91562675Y-120901400D01*
X91289012Y-120778411D01*
X91075650Y-120714805D01*
X91005486Y-120693888D01*
X91005484Y-120693888D01*
X91001487Y-120692696D01*
X90997367Y-120692043D01*
X90997365Y-120692043D01*
X90878491Y-120673215D01*
X90705152Y-120645761D01*
X90662423Y-120643821D01*
X90612738Y-120641564D01*
X90612719Y-120641564D01*
X90611319Y-120641500D01*
X90423893Y-120641500D01*
X90200630Y-120656329D01*
X90196536Y-120657154D01*
X90196532Y-120657155D01*
X90055487Y-120685595D01*
X89906520Y-120715632D01*
X89622837Y-120813312D01*
X89619104Y-120815181D01*
X89619100Y-120815183D01*
X89418509Y-120915632D01*
X89354565Y-120947653D01*
X89106416Y-121116294D01*
X88882752Y-121316274D01*
X88880035Y-121319444D01*
X88880034Y-121319445D01*
X88754155Y-121466311D01*
X88687501Y-121544077D01*
X88685227Y-121547579D01*
X88685223Y-121547584D01*
X88526372Y-121792193D01*
X88524093Y-121795703D01*
X88395400Y-122066730D01*
X88394121Y-122070713D01*
X88394120Y-122070716D01*
X88329907Y-122270716D01*
X88303682Y-122352396D01*
X88302941Y-122356515D01*
X88266956Y-122556515D01*
X88250552Y-122647684D01*
X88250363Y-122651851D01*
X88250362Y-122651858D01*
X88241435Y-122848444D01*
X88236941Y-122947404D01*
X86008000Y-122947404D01*
X86008000Y-116898134D01*
X165641500Y-116898134D01*
X165648255Y-116960316D01*
X165699385Y-117096705D01*
X165786739Y-117213261D01*
X165903295Y-117300615D01*
X166039684Y-117351745D01*
X166101866Y-117358500D01*
X167898134Y-117358500D01*
X167960316Y-117351745D01*
X168096705Y-117300615D01*
X168213261Y-117213261D01*
X168300615Y-117096705D01*
X168351745Y-116960316D01*
X168358500Y-116898134D01*
X168358500Y-115101866D01*
X168351745Y-115039684D01*
X168300615Y-114903295D01*
X168213261Y-114786739D01*
X168096705Y-114699385D01*
X167960316Y-114648255D01*
X167898134Y-114641500D01*
X166101866Y-114641500D01*
X166039684Y-114648255D01*
X165903295Y-114699385D01*
X165786739Y-114786739D01*
X165699385Y-114903295D01*
X165648255Y-115039684D01*
X165641500Y-115101866D01*
X165641500Y-116898134D01*
X86008000Y-116898134D01*
X86008000Y-115500000D01*
X108486496Y-115500000D01*
X108487186Y-115506565D01*
X108503955Y-115666109D01*
X108506458Y-115689928D01*
X108565473Y-115871556D01*
X108660960Y-116036944D01*
X108788747Y-116178866D01*
X108818097Y-116200190D01*
X108926385Y-116278866D01*
X108943248Y-116291118D01*
X108949276Y-116293802D01*
X108949278Y-116293803D01*
X109111681Y-116366109D01*
X109117712Y-116368794D01*
X109204479Y-116387237D01*
X109298056Y-116407128D01*
X109298061Y-116407128D01*
X109304513Y-116408500D01*
X109495487Y-116408500D01*
X109501939Y-116407128D01*
X109501944Y-116407128D01*
X109595521Y-116387237D01*
X109682288Y-116368794D01*
X109688319Y-116366109D01*
X109850722Y-116293803D01*
X109850724Y-116293802D01*
X109856752Y-116291118D01*
X109873616Y-116278866D01*
X109981903Y-116200190D01*
X110006163Y-116182564D01*
X110073031Y-116158706D01*
X110080224Y-116158500D01*
X113824271Y-116158500D01*
X113892392Y-116178502D01*
X113917906Y-116200189D01*
X113988747Y-116278866D01*
X114143248Y-116391118D01*
X114149276Y-116393802D01*
X114149278Y-116393803D01*
X114311681Y-116466109D01*
X114317712Y-116468794D01*
X114411112Y-116488647D01*
X114498056Y-116507128D01*
X114498061Y-116507128D01*
X114504513Y-116508500D01*
X114695487Y-116508500D01*
X114701939Y-116507128D01*
X114701944Y-116507128D01*
X114788888Y-116488647D01*
X114882288Y-116468794D01*
X114888319Y-116466109D01*
X115050722Y-116393803D01*
X115050724Y-116393802D01*
X115056752Y-116391118D01*
X115211253Y-116278866D01*
X115305715Y-116173955D01*
X115334621Y-116141852D01*
X115334622Y-116141851D01*
X115339040Y-116136944D01*
X115434527Y-115971556D01*
X115493542Y-115789928D01*
X115503393Y-115696206D01*
X115512814Y-115606565D01*
X115513504Y-115600000D01*
X115501181Y-115482749D01*
X115494232Y-115416635D01*
X115494232Y-115416633D01*
X115493542Y-115410072D01*
X115434527Y-115228444D01*
X115339040Y-115063056D01*
X115325070Y-115047540D01*
X115215675Y-114926045D01*
X115215674Y-114926044D01*
X115211253Y-114921134D01*
X115080375Y-114826045D01*
X115062094Y-114812763D01*
X115062093Y-114812762D01*
X115056752Y-114808882D01*
X115050724Y-114806198D01*
X115050722Y-114806197D01*
X115036803Y-114800000D01*
X122586496Y-114800000D01*
X122587186Y-114806565D01*
X122604235Y-114968774D01*
X122606458Y-114989928D01*
X122665473Y-115171556D01*
X122760960Y-115336944D01*
X122888747Y-115478866D01*
X123043248Y-115591118D01*
X123049276Y-115593802D01*
X123049278Y-115593803D01*
X123211681Y-115666109D01*
X123217712Y-115668794D01*
X123286263Y-115683365D01*
X123398056Y-115707128D01*
X123398061Y-115707128D01*
X123404513Y-115708500D01*
X123595487Y-115708500D01*
X123601939Y-115707128D01*
X123601944Y-115707128D01*
X123713737Y-115683365D01*
X123782288Y-115668794D01*
X123788319Y-115666109D01*
X123950722Y-115593803D01*
X123950724Y-115593802D01*
X123956752Y-115591118D01*
X124111253Y-115478866D01*
X124239040Y-115336944D01*
X124334527Y-115171556D01*
X124393542Y-114989928D01*
X124395766Y-114968774D01*
X124412814Y-114806565D01*
X124413504Y-114800000D01*
X124393542Y-114610072D01*
X124395111Y-114609907D01*
X124399901Y-114547113D01*
X124428651Y-114502609D01*
X124685854Y-114245405D01*
X124748167Y-114211380D01*
X124774950Y-114208500D01*
X124795487Y-114208500D01*
X124801939Y-114207128D01*
X124801944Y-114207128D01*
X124888887Y-114188647D01*
X124982288Y-114168794D01*
X124988319Y-114166109D01*
X125150722Y-114093803D01*
X125150724Y-114093802D01*
X125156752Y-114091118D01*
X125311253Y-113978866D01*
X125439040Y-113836944D01*
X125534527Y-113671556D01*
X125593542Y-113489928D01*
X125596046Y-113466109D01*
X125612814Y-113306565D01*
X125613504Y-113300000D01*
X125610767Y-113273955D01*
X125594232Y-113116635D01*
X125594232Y-113116633D01*
X125593542Y-113110072D01*
X125534527Y-112928444D01*
X125439040Y-112763056D01*
X125311253Y-112621134D01*
X125156752Y-112508882D01*
X125150724Y-112506198D01*
X125150722Y-112506197D01*
X124988319Y-112433891D01*
X124988318Y-112433891D01*
X124982288Y-112431206D01*
X124882861Y-112410072D01*
X124801944Y-112392872D01*
X124801939Y-112392872D01*
X124795487Y-112391500D01*
X124604513Y-112391500D01*
X124598061Y-112392872D01*
X124598056Y-112392872D01*
X124517139Y-112410072D01*
X124417712Y-112431206D01*
X124411682Y-112433891D01*
X124411681Y-112433891D01*
X124249278Y-112506197D01*
X124249276Y-112506198D01*
X124243248Y-112508882D01*
X124088747Y-112621134D01*
X123960960Y-112763056D01*
X123865473Y-112928444D01*
X123806458Y-113110072D01*
X123805768Y-113116635D01*
X123805768Y-113116636D01*
X123793245Y-113235785D01*
X123766232Y-113301441D01*
X123757031Y-113311709D01*
X123092391Y-113976350D01*
X123083613Y-113984337D01*
X123076920Y-113988584D01*
X123075314Y-113990295D01*
X123054998Y-114002890D01*
X123055000Y-114002894D01*
X123054869Y-114002970D01*
X123050644Y-114005589D01*
X123043248Y-114008882D01*
X122888747Y-114121134D01*
X122760960Y-114263056D01*
X122665473Y-114428444D01*
X122606458Y-114610072D01*
X122605768Y-114616633D01*
X122605768Y-114616635D01*
X122602445Y-114648255D01*
X122586496Y-114800000D01*
X115036803Y-114800000D01*
X114888319Y-114733891D01*
X114888318Y-114733891D01*
X114882288Y-114731206D01*
X114788887Y-114711353D01*
X114701944Y-114692872D01*
X114701939Y-114692872D01*
X114695487Y-114691500D01*
X114504513Y-114691500D01*
X114498061Y-114692872D01*
X114498056Y-114692872D01*
X114411113Y-114711353D01*
X114317712Y-114731206D01*
X114311682Y-114733891D01*
X114311681Y-114733891D01*
X114149278Y-114806197D01*
X114149276Y-114806198D01*
X114143248Y-114808882D01*
X114137909Y-114812761D01*
X114137902Y-114812765D01*
X114131472Y-114817437D01*
X114057413Y-114841500D01*
X110080224Y-114841500D01*
X110012103Y-114821498D01*
X110006166Y-114817438D01*
X109856752Y-114708882D01*
X109850724Y-114706198D01*
X109850722Y-114706197D01*
X109688319Y-114633891D01*
X109688318Y-114633891D01*
X109682288Y-114631206D01*
X109582085Y-114609907D01*
X109501944Y-114592872D01*
X109501939Y-114592872D01*
X109495487Y-114591500D01*
X109304513Y-114591500D01*
X109298061Y-114592872D01*
X109298056Y-114592872D01*
X109217915Y-114609907D01*
X109117712Y-114631206D01*
X109111682Y-114633891D01*
X109111681Y-114633891D01*
X108949278Y-114706197D01*
X108949276Y-114706198D01*
X108943248Y-114708882D01*
X108788747Y-114821134D01*
X108660960Y-114963056D01*
X108565473Y-115128444D01*
X108506458Y-115310072D01*
X108505768Y-115316633D01*
X108505768Y-115316635D01*
X108495948Y-115410072D01*
X108486496Y-115500000D01*
X86008000Y-115500000D01*
X86008000Y-112600000D01*
X116886496Y-112600000D01*
X116887186Y-112606565D01*
X116904235Y-112768774D01*
X116906458Y-112789928D01*
X116965473Y-112971556D01*
X117060960Y-113136944D01*
X117188747Y-113278866D01*
X117287843Y-113350864D01*
X117326385Y-113378866D01*
X117343248Y-113391118D01*
X117349276Y-113393802D01*
X117349278Y-113393803D01*
X117511681Y-113466109D01*
X117517712Y-113468794D01*
X117586263Y-113483365D01*
X117698056Y-113507128D01*
X117698061Y-113507128D01*
X117704513Y-113508500D01*
X117895487Y-113508500D01*
X117901939Y-113507128D01*
X117901944Y-113507128D01*
X118013737Y-113483365D01*
X118082288Y-113468794D01*
X118088319Y-113466109D01*
X118250722Y-113393803D01*
X118250724Y-113393802D01*
X118256752Y-113391118D01*
X118273616Y-113378866D01*
X118312157Y-113350864D01*
X118411253Y-113278866D01*
X118539040Y-113136944D01*
X118634527Y-112971556D01*
X118693542Y-112789928D01*
X118695766Y-112768774D01*
X118702994Y-112700000D01*
X121786496Y-112700000D01*
X121787186Y-112706565D01*
X121796608Y-112796206D01*
X121806458Y-112889928D01*
X121865473Y-113071556D01*
X121960960Y-113236944D01*
X121965378Y-113241851D01*
X121965379Y-113241852D01*
X122084325Y-113373955D01*
X122088747Y-113378866D01*
X122243248Y-113491118D01*
X122249276Y-113493802D01*
X122249278Y-113493803D01*
X122411681Y-113566109D01*
X122417712Y-113568794D01*
X122511113Y-113588647D01*
X122598056Y-113607128D01*
X122598061Y-113607128D01*
X122604513Y-113608500D01*
X122795487Y-113608500D01*
X122801939Y-113607128D01*
X122801944Y-113607128D01*
X122888887Y-113588647D01*
X122982288Y-113568794D01*
X122988319Y-113566109D01*
X123150722Y-113493803D01*
X123150724Y-113493802D01*
X123156752Y-113491118D01*
X123311253Y-113378866D01*
X123315675Y-113373955D01*
X123434621Y-113241852D01*
X123434622Y-113241851D01*
X123439040Y-113236944D01*
X123534527Y-113071556D01*
X123593542Y-112889928D01*
X123603393Y-112796206D01*
X123612814Y-112706565D01*
X123613504Y-112700000D01*
X123593542Y-112510072D01*
X123534527Y-112328444D01*
X123439040Y-112163056D01*
X123390864Y-112109551D01*
X123360146Y-112045544D01*
X123358500Y-112025241D01*
X123358500Y-111574759D01*
X123378502Y-111506638D01*
X123390864Y-111490449D01*
X123434621Y-111441852D01*
X123434622Y-111441851D01*
X123439040Y-111436944D01*
X123534527Y-111271556D01*
X123593542Y-111089928D01*
X123601035Y-111018642D01*
X123612814Y-110906565D01*
X123613504Y-110900000D01*
X123612274Y-110888297D01*
X123594232Y-110716635D01*
X123594232Y-110716633D01*
X123593542Y-110710072D01*
X123534527Y-110528444D01*
X123439040Y-110363056D01*
X123311253Y-110221134D01*
X123156752Y-110108882D01*
X123150724Y-110106198D01*
X123150722Y-110106197D01*
X122988319Y-110033891D01*
X122988318Y-110033891D01*
X122982288Y-110031206D01*
X122888888Y-110011353D01*
X122801944Y-109992872D01*
X122801939Y-109992872D01*
X122795487Y-109991500D01*
X122604513Y-109991500D01*
X122598061Y-109992872D01*
X122598056Y-109992872D01*
X122511112Y-110011353D01*
X122417712Y-110031206D01*
X122411682Y-110033891D01*
X122411681Y-110033891D01*
X122249278Y-110106197D01*
X122249276Y-110106198D01*
X122243248Y-110108882D01*
X122088747Y-110221134D01*
X121960960Y-110363056D01*
X121865473Y-110528444D01*
X121806458Y-110710072D01*
X121805768Y-110716633D01*
X121805768Y-110716635D01*
X121787726Y-110888297D01*
X121786496Y-110900000D01*
X121787186Y-110906565D01*
X121798966Y-111018642D01*
X121806458Y-111089928D01*
X121865473Y-111271556D01*
X121960960Y-111436944D01*
X121965378Y-111441851D01*
X121965379Y-111441852D01*
X122009136Y-111490449D01*
X122039854Y-111554456D01*
X122041500Y-111574759D01*
X122041500Y-112025241D01*
X122021498Y-112093362D01*
X122009136Y-112109551D01*
X121960960Y-112163056D01*
X121865473Y-112328444D01*
X121806458Y-112510072D01*
X121786496Y-112700000D01*
X118702994Y-112700000D01*
X118712814Y-112606565D01*
X118713504Y-112600000D01*
X118703645Y-112506197D01*
X118694232Y-112416635D01*
X118694232Y-112416633D01*
X118693542Y-112410072D01*
X118634527Y-112228444D01*
X118539040Y-112063056D01*
X118490864Y-112009551D01*
X118460146Y-111945544D01*
X118458500Y-111925241D01*
X118458500Y-109424950D01*
X118478502Y-109356829D01*
X118495405Y-109335855D01*
X118585855Y-109245405D01*
X118648167Y-109211379D01*
X118674950Y-109208500D01*
X118695487Y-109208500D01*
X118701939Y-109207128D01*
X118701944Y-109207128D01*
X118813737Y-109183365D01*
X118882288Y-109168794D01*
X118953708Y-109136996D01*
X119050722Y-109093803D01*
X119050724Y-109093802D01*
X119056752Y-109091118D01*
X119083998Y-109071323D01*
X119159025Y-109016812D01*
X119182165Y-109000000D01*
X131986496Y-109000000D01*
X131987186Y-109006565D01*
X132003955Y-109166109D01*
X132006458Y-109189928D01*
X132065473Y-109371556D01*
X132160960Y-109536944D01*
X132288747Y-109678866D01*
X132443248Y-109791118D01*
X132449276Y-109793802D01*
X132449278Y-109793803D01*
X132611681Y-109866109D01*
X132617712Y-109868794D01*
X132711112Y-109888647D01*
X132798056Y-109907128D01*
X132798061Y-109907128D01*
X132804513Y-109908500D01*
X132995487Y-109908500D01*
X133001939Y-109907128D01*
X133001944Y-109907128D01*
X133088888Y-109888647D01*
X133182288Y-109868794D01*
X133188319Y-109866109D01*
X133350722Y-109793803D01*
X133350724Y-109793802D01*
X133356752Y-109791118D01*
X133511253Y-109678866D01*
X133639040Y-109536944D01*
X133734527Y-109371556D01*
X133787508Y-109208500D01*
X133791502Y-109196207D01*
X133791502Y-109196205D01*
X133793542Y-109189928D01*
X133796046Y-109166109D01*
X133806755Y-109064214D01*
X133833768Y-108998558D01*
X133842970Y-108988290D01*
X137435854Y-105395405D01*
X137498166Y-105361379D01*
X137524949Y-105358500D01*
X137969276Y-105358500D01*
X138037397Y-105378502D01*
X138043334Y-105382562D01*
X138192748Y-105491118D01*
X138198776Y-105493802D01*
X138198778Y-105493803D01*
X138361181Y-105566109D01*
X138367212Y-105568794D01*
X138460612Y-105588647D01*
X138547556Y-105607128D01*
X138547561Y-105607128D01*
X138554013Y-105608500D01*
X138744987Y-105608500D01*
X138751439Y-105607128D01*
X138751444Y-105607128D01*
X138838388Y-105588647D01*
X138931788Y-105568794D01*
X138937819Y-105566109D01*
X139100222Y-105493803D01*
X139100224Y-105493802D01*
X139106252Y-105491118D01*
X139260753Y-105378866D01*
X139388540Y-105236944D01*
X139484027Y-105071556D01*
X139543042Y-104889928D01*
X139563004Y-104700000D01*
X139543042Y-104510072D01*
X139484027Y-104328444D01*
X139388540Y-104163056D01*
X139341192Y-104110470D01*
X139265175Y-104026045D01*
X139265174Y-104026044D01*
X139260753Y-104021134D01*
X139106252Y-103908882D01*
X139100224Y-103906198D01*
X139100222Y-103906197D01*
X138937819Y-103833891D01*
X138937818Y-103833891D01*
X138931788Y-103831206D01*
X138838388Y-103811353D01*
X138751444Y-103792872D01*
X138751439Y-103792872D01*
X138744987Y-103791500D01*
X138554013Y-103791500D01*
X138547561Y-103792872D01*
X138547556Y-103792872D01*
X138460612Y-103811353D01*
X138367212Y-103831206D01*
X138361182Y-103833891D01*
X138361181Y-103833891D01*
X138198778Y-103906197D01*
X138198776Y-103906198D01*
X138192748Y-103908882D01*
X138043592Y-104017251D01*
X138043337Y-104017436D01*
X137976469Y-104041294D01*
X137969276Y-104041500D01*
X137282056Y-104041500D01*
X137270200Y-104040941D01*
X137270197Y-104040941D01*
X137262463Y-104039212D01*
X137207446Y-104040941D01*
X137191631Y-104041438D01*
X137187673Y-104041500D01*
X137158568Y-104041500D01*
X137154168Y-104042056D01*
X137142336Y-104042988D01*
X137096169Y-104044438D01*
X137075579Y-104050420D01*
X137056218Y-104054430D01*
X137049230Y-104055312D01*
X137042796Y-104056125D01*
X137042795Y-104056125D01*
X137034936Y-104057118D01*
X137027571Y-104060034D01*
X137027567Y-104060035D01*
X136991979Y-104074126D01*
X136980769Y-104077965D01*
X136936400Y-104090855D01*
X136917943Y-104101771D01*
X136900193Y-104110466D01*
X136880244Y-104118365D01*
X136873833Y-104123023D01*
X136873831Y-104123024D01*
X136842864Y-104145523D01*
X136832946Y-104152038D01*
X136793193Y-104175548D01*
X136778032Y-104190709D01*
X136763000Y-104203548D01*
X136745643Y-104216159D01*
X136716193Y-104251758D01*
X136708203Y-104260538D01*
X132914145Y-108054595D01*
X132851833Y-108088621D01*
X132825050Y-108091500D01*
X132804513Y-108091500D01*
X132798061Y-108092872D01*
X132798056Y-108092872D01*
X132717139Y-108110072D01*
X132617712Y-108131206D01*
X132611682Y-108133891D01*
X132611681Y-108133891D01*
X132449278Y-108206197D01*
X132449276Y-108206198D01*
X132443248Y-108208882D01*
X132288747Y-108321134D01*
X132160960Y-108463056D01*
X132065473Y-108628444D01*
X132006458Y-108810072D01*
X132005768Y-108816633D01*
X132005768Y-108816635D01*
X132003346Y-108839684D01*
X131986496Y-109000000D01*
X119182165Y-109000000D01*
X119211253Y-108978866D01*
X119217371Y-108972071D01*
X119334621Y-108841852D01*
X119334622Y-108841851D01*
X119339040Y-108836944D01*
X119415745Y-108704087D01*
X119431223Y-108677279D01*
X119431224Y-108677278D01*
X119434527Y-108671556D01*
X119493542Y-108489928D01*
X119495766Y-108468774D01*
X119512814Y-108306565D01*
X119513504Y-108300000D01*
X119503645Y-108206197D01*
X119494232Y-108116635D01*
X119494232Y-108116633D01*
X119493542Y-108110072D01*
X119434527Y-107928444D01*
X119339040Y-107763056D01*
X119211253Y-107621134D01*
X119056752Y-107508882D01*
X119050724Y-107506198D01*
X119050722Y-107506197D01*
X118888319Y-107433891D01*
X118888318Y-107433891D01*
X118882288Y-107431206D01*
X118788887Y-107411353D01*
X118701944Y-107392872D01*
X118701939Y-107392872D01*
X118695487Y-107391500D01*
X118504513Y-107391500D01*
X118498061Y-107392872D01*
X118498056Y-107392872D01*
X118411113Y-107411353D01*
X118317712Y-107431206D01*
X118311682Y-107433891D01*
X118311681Y-107433891D01*
X118149278Y-107506197D01*
X118149276Y-107506198D01*
X118143248Y-107508882D01*
X117988747Y-107621134D01*
X117860960Y-107763056D01*
X117765473Y-107928444D01*
X117763431Y-107934729D01*
X117712047Y-108092872D01*
X117706458Y-108110072D01*
X117705768Y-108116635D01*
X117705768Y-108116636D01*
X117693245Y-108235786D01*
X117666232Y-108301442D01*
X117657030Y-108311710D01*
X117392395Y-108576345D01*
X117383615Y-108584335D01*
X117383613Y-108584337D01*
X117376920Y-108588584D01*
X117371494Y-108594362D01*
X117371493Y-108594363D01*
X117328396Y-108640257D01*
X117325641Y-108643099D01*
X117305073Y-108663667D01*
X117302356Y-108667170D01*
X117294648Y-108676195D01*
X117263028Y-108709867D01*
X117259207Y-108716818D01*
X117259206Y-108716819D01*
X117252697Y-108728658D01*
X117241843Y-108745182D01*
X117234018Y-108755271D01*
X117228696Y-108762132D01*
X117225549Y-108769404D01*
X117225548Y-108769406D01*
X117210346Y-108804535D01*
X117205124Y-108815195D01*
X117195729Y-108832285D01*
X117182876Y-108855663D01*
X117177541Y-108876441D01*
X117171142Y-108895131D01*
X117162620Y-108914824D01*
X117161380Y-108922655D01*
X117155394Y-108960448D01*
X117152987Y-108972071D01*
X117150246Y-108982749D01*
X117141500Y-109016812D01*
X117141500Y-109038259D01*
X117139949Y-109057969D01*
X117136594Y-109079152D01*
X117137340Y-109087043D01*
X117140941Y-109125138D01*
X117141500Y-109136996D01*
X117141500Y-111925241D01*
X117121498Y-111993362D01*
X117109136Y-112009551D01*
X117060960Y-112063056D01*
X116965473Y-112228444D01*
X116906458Y-112410072D01*
X116905768Y-112416633D01*
X116905768Y-112416635D01*
X116896355Y-112506197D01*
X116886496Y-112600000D01*
X86008000Y-112600000D01*
X86008000Y-103406423D01*
X87278703Y-103406423D01*
X87286227Y-103416854D01*
X87425483Y-103529020D01*
X87431657Y-103533408D01*
X87702271Y-103702178D01*
X87708931Y-103705794D01*
X87997852Y-103840827D01*
X88004905Y-103843620D01*
X88307970Y-103942970D01*
X88315282Y-103944888D01*
X88628092Y-104007109D01*
X88635590Y-104008137D01*
X88953610Y-104032328D01*
X88961173Y-104032446D01*
X89279785Y-104018257D01*
X89287326Y-104017465D01*
X89601924Y-103965101D01*
X89609302Y-103963411D01*
X89915355Y-103873625D01*
X89922450Y-103871071D01*
X90215496Y-103745169D01*
X90222263Y-103741765D01*
X90498042Y-103581580D01*
X90504349Y-103577390D01*
X90714305Y-103418889D01*
X90722761Y-103407496D01*
X90716045Y-103395256D01*
X89012810Y-101692020D01*
X88998869Y-101684408D01*
X88997034Y-101684539D01*
X88990420Y-101688790D01*
X87285818Y-103393393D01*
X87278703Y-103406423D01*
X86008000Y-103406423D01*
X86008000Y-101295383D01*
X86287388Y-101295383D01*
X86303245Y-101613914D01*
X86304076Y-101621443D01*
X86358085Y-101935759D01*
X86359818Y-101943146D01*
X86451196Y-102248695D01*
X86453799Y-102255808D01*
X86581227Y-102548173D01*
X86584669Y-102554929D01*
X86746296Y-102829865D01*
X86750519Y-102836150D01*
X86901463Y-103033934D01*
X86912989Y-103042396D01*
X86925054Y-103035735D01*
X88627980Y-101332810D01*
X88634357Y-101321131D01*
X89364408Y-101321131D01*
X89364539Y-101322966D01*
X89368790Y-101329580D01*
X91073285Y-103034074D01*
X91086408Y-103041240D01*
X91096709Y-103033851D01*
X91200751Y-102906055D01*
X91205164Y-102899914D01*
X91375349Y-102630187D01*
X91379005Y-102623536D01*
X91515544Y-102335335D01*
X91518375Y-102328295D01*
X91619306Y-102025767D01*
X91621270Y-102018433D01*
X91685122Y-101705989D01*
X91686194Y-101698465D01*
X91712173Y-101379051D01*
X91712378Y-101374576D01*
X91712927Y-101322221D01*
X91712817Y-101317789D01*
X91693529Y-100997853D01*
X91692621Y-100990351D01*
X91635319Y-100676593D01*
X91633518Y-100669260D01*
X91538935Y-100364655D01*
X91536263Y-100357583D01*
X91405781Y-100066570D01*
X91402264Y-100059843D01*
X91237771Y-99786621D01*
X91233481Y-99780377D01*
X91097991Y-99606647D01*
X91086199Y-99598178D01*
X91074486Y-99604725D01*
X89372020Y-101307190D01*
X89364408Y-101321131D01*
X88634357Y-101321131D01*
X88635592Y-101318869D01*
X88635461Y-101317034D01*
X88631210Y-101310420D01*
X86926445Y-99605656D01*
X86913510Y-99598592D01*
X86902949Y-99606252D01*
X86782766Y-99757072D01*
X86778410Y-99763270D01*
X86611059Y-100034764D01*
X86607479Y-100041440D01*
X86473956Y-100331074D01*
X86471206Y-100338125D01*
X86373444Y-100641708D01*
X86371561Y-100649041D01*
X86310979Y-100962170D01*
X86309992Y-100969670D01*
X86287467Y-101287802D01*
X86287388Y-101295383D01*
X86008000Y-101295383D01*
X86008000Y-99233423D01*
X87277917Y-99233423D01*
X87284520Y-99245309D01*
X88987190Y-100947980D01*
X89001131Y-100955592D01*
X89002966Y-100955461D01*
X89009580Y-100951210D01*
X90714559Y-99246230D01*
X90721571Y-99233389D01*
X90713777Y-99222701D01*
X90551298Y-99094613D01*
X90545075Y-99090288D01*
X90272702Y-98924357D01*
X90266025Y-98920822D01*
X89975686Y-98788813D01*
X89968616Y-98786099D01*
X89664537Y-98689932D01*
X89657186Y-98688085D01*
X89343746Y-98629142D01*
X89336237Y-98628194D01*
X89017989Y-98607335D01*
X89010424Y-98607295D01*
X88691964Y-98624821D01*
X88684450Y-98625690D01*
X88370405Y-98681348D01*
X88363044Y-98683115D01*
X88057980Y-98776092D01*
X88050860Y-98778740D01*
X87759182Y-98907690D01*
X87752445Y-98911167D01*
X87478355Y-99074233D01*
X87472091Y-99078490D01*
X87286385Y-99221762D01*
X87277917Y-99233423D01*
X86008000Y-99233423D01*
X86008000Y-94871585D01*
X86286698Y-94871585D01*
X86302936Y-95197759D01*
X86303577Y-95201490D01*
X86303578Y-95201498D01*
X86318109Y-95286060D01*
X86358241Y-95519619D01*
X86451814Y-95832504D01*
X86582297Y-96131881D01*
X86584220Y-96135152D01*
X86584222Y-96135156D01*
X86626584Y-96207215D01*
X86747802Y-96413414D01*
X86750103Y-96416429D01*
X86943631Y-96670012D01*
X86943636Y-96670017D01*
X86945931Y-96673025D01*
X87173814Y-96906953D01*
X87246635Y-96965607D01*
X87425196Y-97109431D01*
X87425201Y-97109435D01*
X87428149Y-97111809D01*
X87705253Y-97284627D01*
X88001112Y-97422903D01*
X88311440Y-97524634D01*
X88631742Y-97588346D01*
X88635514Y-97588633D01*
X88635522Y-97588634D01*
X88953602Y-97612829D01*
X88953607Y-97612829D01*
X88957379Y-97613116D01*
X89283633Y-97598586D01*
X89343425Y-97588634D01*
X89602037Y-97545590D01*
X89602042Y-97545589D01*
X89605778Y-97544967D01*
X89919149Y-97453034D01*
X89922616Y-97451544D01*
X89922620Y-97451543D01*
X90215721Y-97325616D01*
X90215723Y-97325615D01*
X90219205Y-97324119D01*
X90501601Y-97160091D01*
X90762245Y-96963324D01*
X90997363Y-96736670D01*
X91203549Y-96483410D01*
X91377815Y-96207215D01*
X91517638Y-95912084D01*
X91544188Y-95832504D01*
X91619790Y-95605897D01*
X91619792Y-95605891D01*
X91620992Y-95602293D01*
X91686381Y-95282329D01*
X91692956Y-95201498D01*
X91712674Y-94959061D01*
X91712856Y-94956826D01*
X91713451Y-94900000D01*
X91711510Y-94867796D01*
X91694026Y-94577793D01*
X91694026Y-94577789D01*
X91693798Y-94574015D01*
X91689967Y-94553034D01*
X91635805Y-94256473D01*
X91635804Y-94256469D01*
X91635125Y-94252751D01*
X91627722Y-94228907D01*
X91539404Y-93944477D01*
X91538282Y-93940863D01*
X91404670Y-93642869D01*
X91236226Y-93363084D01*
X91233899Y-93360100D01*
X91233894Y-93360093D01*
X91037726Y-93108558D01*
X91037724Y-93108556D01*
X91035390Y-93105563D01*
X90805070Y-92874034D01*
X90548603Y-92671852D01*
X90269705Y-92501945D01*
X90266261Y-92500379D01*
X90266257Y-92500377D01*
X90155667Y-92450095D01*
X89972414Y-92366775D01*
X89661037Y-92268300D01*
X89443492Y-92227390D01*
X89343809Y-92208645D01*
X89343807Y-92208645D01*
X89340086Y-92207945D01*
X89014208Y-92186586D01*
X89010428Y-92186794D01*
X89010427Y-92186794D01*
X88912897Y-92192162D01*
X88688124Y-92204532D01*
X88684397Y-92205193D01*
X88684393Y-92205193D01*
X88527341Y-92233027D01*
X88366557Y-92261522D01*
X88362941Y-92262624D01*
X88362933Y-92262626D01*
X88057789Y-92355627D01*
X88054167Y-92356731D01*
X87755477Y-92488781D01*
X87730041Y-92503914D01*
X87478074Y-92653817D01*
X87478068Y-92653821D01*
X87474814Y-92655757D01*
X87216244Y-92855243D01*
X86983513Y-93084347D01*
X86981149Y-93087314D01*
X86981146Y-93087317D01*
X86805918Y-93307215D01*
X86779991Y-93339751D01*
X86608626Y-93617757D01*
X86471902Y-93914336D01*
X86470741Y-93917940D01*
X86470741Y-93917941D01*
X86462196Y-93944477D01*
X86371797Y-94225192D01*
X86371079Y-94228903D01*
X86371078Y-94228907D01*
X86310482Y-94542105D01*
X86310481Y-94542114D01*
X86309763Y-94545824D01*
X86309496Y-94549600D01*
X86309495Y-94549605D01*
X86308031Y-94570289D01*
X86286698Y-94871585D01*
X86008000Y-94871585D01*
X86008000Y-87028134D01*
X98236500Y-87028134D01*
X98243255Y-87090316D01*
X98294385Y-87226705D01*
X98381739Y-87343261D01*
X98498295Y-87430615D01*
X98634684Y-87481745D01*
X98696866Y-87488500D01*
X100773134Y-87488500D01*
X100835316Y-87481745D01*
X100971705Y-87430615D01*
X101088261Y-87343261D01*
X101175615Y-87226705D01*
X101226745Y-87090316D01*
X101233500Y-87028134D01*
X101233500Y-86052469D01*
X103236500Y-86052469D01*
X103236712Y-86055042D01*
X103236712Y-86055053D01*
X103251131Y-86230432D01*
X103251132Y-86230438D01*
X103251555Y-86235583D01*
X103311584Y-86474570D01*
X103313642Y-86479303D01*
X103313643Y-86479306D01*
X103328683Y-86513894D01*
X103409840Y-86700544D01*
X103412644Y-86704878D01*
X103412646Y-86704882D01*
X103540874Y-86903092D01*
X103540879Y-86903098D01*
X103543685Y-86907436D01*
X103709523Y-87089690D01*
X103713574Y-87092889D01*
X103713578Y-87092893D01*
X103744763Y-87117521D01*
X103902901Y-87242410D01*
X103985682Y-87288108D01*
X104085591Y-87343261D01*
X104118625Y-87361497D01*
X104350903Y-87443750D01*
X104355995Y-87444657D01*
X104588407Y-87486057D01*
X104588411Y-87486057D01*
X104593495Y-87486963D01*
X104672914Y-87487933D01*
X104834718Y-87489910D01*
X104834720Y-87489910D01*
X104839888Y-87489973D01*
X105083464Y-87452701D01*
X105317682Y-87376147D01*
X105322270Y-87373759D01*
X105322274Y-87373757D01*
X105531663Y-87264756D01*
X105531664Y-87264755D01*
X105536252Y-87262367D01*
X105540385Y-87259264D01*
X105540388Y-87259262D01*
X105729168Y-87117521D01*
X105729170Y-87117519D01*
X105733303Y-87114416D01*
X105815756Y-87028134D01*
X115236500Y-87028134D01*
X115243255Y-87090316D01*
X115294385Y-87226705D01*
X115381739Y-87343261D01*
X115498295Y-87430615D01*
X115634684Y-87481745D01*
X115696866Y-87488500D01*
X117773134Y-87488500D01*
X117835316Y-87481745D01*
X117971705Y-87430615D01*
X118088261Y-87343261D01*
X118175615Y-87226705D01*
X118226745Y-87090316D01*
X118233500Y-87028134D01*
X118233500Y-86052469D01*
X120236500Y-86052469D01*
X120236712Y-86055042D01*
X120236712Y-86055053D01*
X120251131Y-86230432D01*
X120251132Y-86230438D01*
X120251555Y-86235583D01*
X120311584Y-86474570D01*
X120313642Y-86479303D01*
X120313643Y-86479306D01*
X120328683Y-86513894D01*
X120409840Y-86700544D01*
X120412644Y-86704878D01*
X120412646Y-86704882D01*
X120540874Y-86903092D01*
X120540879Y-86903098D01*
X120543685Y-86907436D01*
X120709523Y-87089690D01*
X120713574Y-87092889D01*
X120713578Y-87092893D01*
X120744763Y-87117521D01*
X120902901Y-87242410D01*
X120985682Y-87288108D01*
X121085591Y-87343261D01*
X121118625Y-87361497D01*
X121350903Y-87443750D01*
X121355995Y-87444657D01*
X121588407Y-87486057D01*
X121588411Y-87486057D01*
X121593495Y-87486963D01*
X121672914Y-87487933D01*
X121834718Y-87489910D01*
X121834720Y-87489910D01*
X121839888Y-87489973D01*
X122083464Y-87452701D01*
X122317682Y-87376147D01*
X122322270Y-87373759D01*
X122322274Y-87373757D01*
X122531663Y-87264756D01*
X122531664Y-87264755D01*
X122536252Y-87262367D01*
X122540385Y-87259264D01*
X122540388Y-87259262D01*
X122729168Y-87117521D01*
X122729170Y-87117519D01*
X122733303Y-87114416D01*
X122815756Y-87028134D01*
X131236500Y-87028134D01*
X131243255Y-87090316D01*
X131294385Y-87226705D01*
X131381739Y-87343261D01*
X131498295Y-87430615D01*
X131634684Y-87481745D01*
X131696866Y-87488500D01*
X133773134Y-87488500D01*
X133835316Y-87481745D01*
X133971705Y-87430615D01*
X134088261Y-87343261D01*
X134175615Y-87226705D01*
X134226745Y-87090316D01*
X134233500Y-87028134D01*
X134233500Y-86052469D01*
X136236500Y-86052469D01*
X136236712Y-86055042D01*
X136236712Y-86055053D01*
X136251131Y-86230432D01*
X136251132Y-86230438D01*
X136251555Y-86235583D01*
X136311584Y-86474570D01*
X136313642Y-86479303D01*
X136313643Y-86479306D01*
X136328683Y-86513894D01*
X136409840Y-86700544D01*
X136412644Y-86704878D01*
X136412646Y-86704882D01*
X136540874Y-86903092D01*
X136540879Y-86903098D01*
X136543685Y-86907436D01*
X136709523Y-87089690D01*
X136713574Y-87092889D01*
X136713578Y-87092893D01*
X136744763Y-87117521D01*
X136902901Y-87242410D01*
X136985682Y-87288108D01*
X137085591Y-87343261D01*
X137118625Y-87361497D01*
X137350903Y-87443750D01*
X137355995Y-87444657D01*
X137588407Y-87486057D01*
X137588411Y-87486057D01*
X137593495Y-87486963D01*
X137672914Y-87487933D01*
X137834718Y-87489910D01*
X137834720Y-87489910D01*
X137839888Y-87489973D01*
X138083464Y-87452701D01*
X138317682Y-87376147D01*
X138322270Y-87373759D01*
X138322274Y-87373757D01*
X138531663Y-87264756D01*
X138531664Y-87264755D01*
X138536252Y-87262367D01*
X138540385Y-87259264D01*
X138540388Y-87259262D01*
X138729168Y-87117521D01*
X138729170Y-87117519D01*
X138733303Y-87114416D01*
X138903545Y-86936269D01*
X138926177Y-86903092D01*
X139039485Y-86736989D01*
X139039488Y-86736984D01*
X139042404Y-86732709D01*
X139044580Y-86728020D01*
X139044584Y-86728014D01*
X139143975Y-86513894D01*
X139143977Y-86513889D01*
X139146152Y-86509203D01*
X139155757Y-86474570D01*
X139210623Y-86276726D01*
X139210623Y-86276725D01*
X139212002Y-86271753D01*
X139233500Y-86070594D01*
X139233500Y-83947531D01*
X139222748Y-83816751D01*
X139218869Y-83769568D01*
X139218868Y-83769562D01*
X139218445Y-83764417D01*
X139188430Y-83644923D01*
X139159675Y-83530441D01*
X139159674Y-83530437D01*
X139158416Y-83525430D01*
X139156357Y-83520694D01*
X139062220Y-83304193D01*
X139062218Y-83304190D01*
X139060160Y-83299456D01*
X139042389Y-83271986D01*
X138929126Y-83096908D01*
X138929121Y-83096902D01*
X138926315Y-83092564D01*
X138760477Y-82910310D01*
X138756426Y-82907111D01*
X138756422Y-82907107D01*
X138619357Y-82798861D01*
X138567099Y-82757590D01*
X138397416Y-82663919D01*
X138355906Y-82641004D01*
X138355903Y-82641003D01*
X138351375Y-82638503D01*
X138119097Y-82556250D01*
X138064457Y-82546517D01*
X137881593Y-82513943D01*
X137881589Y-82513943D01*
X137876505Y-82513037D01*
X137797086Y-82512067D01*
X137635282Y-82510090D01*
X137635280Y-82510090D01*
X137630112Y-82510027D01*
X137386536Y-82547299D01*
X137152318Y-82623853D01*
X137147730Y-82626241D01*
X137147726Y-82626243D01*
X136938337Y-82735244D01*
X136933748Y-82737633D01*
X136929615Y-82740736D01*
X136929612Y-82740738D01*
X136740832Y-82882479D01*
X136736697Y-82885584D01*
X136566455Y-83063731D01*
X136563541Y-83068003D01*
X136563540Y-83068004D01*
X136430515Y-83263011D01*
X136430512Y-83263016D01*
X136427596Y-83267291D01*
X136425420Y-83271980D01*
X136425416Y-83271986D01*
X136326025Y-83486106D01*
X136323848Y-83490797D01*
X136322468Y-83495775D01*
X136322466Y-83495779D01*
X136312854Y-83530441D01*
X136257998Y-83728247D01*
X136236500Y-83929406D01*
X136236500Y-86052469D01*
X134233500Y-86052469D01*
X134233500Y-82971866D01*
X134226745Y-82909684D01*
X134175615Y-82773295D01*
X134088261Y-82656739D01*
X133971705Y-82569385D01*
X133835316Y-82518255D01*
X133773134Y-82511500D01*
X131696866Y-82511500D01*
X131634684Y-82518255D01*
X131498295Y-82569385D01*
X131381739Y-82656739D01*
X131294385Y-82773295D01*
X131243255Y-82909684D01*
X131236500Y-82971866D01*
X131236500Y-87028134D01*
X122815756Y-87028134D01*
X122903545Y-86936269D01*
X122926177Y-86903092D01*
X123039485Y-86736989D01*
X123039488Y-86736984D01*
X123042404Y-86732709D01*
X123044580Y-86728020D01*
X123044584Y-86728014D01*
X123143975Y-86513894D01*
X123143977Y-86513889D01*
X123146152Y-86509203D01*
X123155757Y-86474570D01*
X123210623Y-86276726D01*
X123210623Y-86276725D01*
X123212002Y-86271753D01*
X123233500Y-86070594D01*
X123233500Y-83947531D01*
X123222748Y-83816751D01*
X123218869Y-83769568D01*
X123218868Y-83769562D01*
X123218445Y-83764417D01*
X123188430Y-83644923D01*
X123159675Y-83530441D01*
X123159674Y-83530437D01*
X123158416Y-83525430D01*
X123156357Y-83520694D01*
X123062220Y-83304193D01*
X123062218Y-83304190D01*
X123060160Y-83299456D01*
X123042389Y-83271986D01*
X122929126Y-83096908D01*
X122929121Y-83096902D01*
X122926315Y-83092564D01*
X122760477Y-82910310D01*
X122756426Y-82907111D01*
X122756422Y-82907107D01*
X122619357Y-82798861D01*
X122567099Y-82757590D01*
X122397416Y-82663919D01*
X122355906Y-82641004D01*
X122355903Y-82641003D01*
X122351375Y-82638503D01*
X122119097Y-82556250D01*
X122064457Y-82546517D01*
X121881593Y-82513943D01*
X121881589Y-82513943D01*
X121876505Y-82513037D01*
X121797086Y-82512067D01*
X121635282Y-82510090D01*
X121635280Y-82510090D01*
X121630112Y-82510027D01*
X121386536Y-82547299D01*
X121152318Y-82623853D01*
X121147730Y-82626241D01*
X121147726Y-82626243D01*
X120938337Y-82735244D01*
X120933748Y-82737633D01*
X120929615Y-82740736D01*
X120929612Y-82740738D01*
X120740832Y-82882479D01*
X120736697Y-82885584D01*
X120566455Y-83063731D01*
X120563541Y-83068003D01*
X120563540Y-83068004D01*
X120430515Y-83263011D01*
X120430512Y-83263016D01*
X120427596Y-83267291D01*
X120425420Y-83271980D01*
X120425416Y-83271986D01*
X120326025Y-83486106D01*
X120323848Y-83490797D01*
X120322468Y-83495775D01*
X120322466Y-83495779D01*
X120312854Y-83530441D01*
X120257998Y-83728247D01*
X120236500Y-83929406D01*
X120236500Y-86052469D01*
X118233500Y-86052469D01*
X118233500Y-82971866D01*
X118226745Y-82909684D01*
X118175615Y-82773295D01*
X118088261Y-82656739D01*
X117971705Y-82569385D01*
X117835316Y-82518255D01*
X117773134Y-82511500D01*
X115696866Y-82511500D01*
X115634684Y-82518255D01*
X115498295Y-82569385D01*
X115381739Y-82656739D01*
X115294385Y-82773295D01*
X115243255Y-82909684D01*
X115236500Y-82971866D01*
X115236500Y-87028134D01*
X105815756Y-87028134D01*
X105903545Y-86936269D01*
X105926177Y-86903092D01*
X106039485Y-86736989D01*
X106039488Y-86736984D01*
X106042404Y-86732709D01*
X106044580Y-86728020D01*
X106044584Y-86728014D01*
X106143975Y-86513894D01*
X106143977Y-86513889D01*
X106146152Y-86509203D01*
X106155757Y-86474570D01*
X106210623Y-86276726D01*
X106210623Y-86276725D01*
X106212002Y-86271753D01*
X106233500Y-86070594D01*
X106233500Y-83947531D01*
X106222748Y-83816751D01*
X106218869Y-83769568D01*
X106218868Y-83769562D01*
X106218445Y-83764417D01*
X106188430Y-83644923D01*
X106159675Y-83530441D01*
X106159674Y-83530437D01*
X106158416Y-83525430D01*
X106156357Y-83520694D01*
X106062220Y-83304193D01*
X106062218Y-83304190D01*
X106060160Y-83299456D01*
X106042389Y-83271986D01*
X105929126Y-83096908D01*
X105929121Y-83096902D01*
X105926315Y-83092564D01*
X105760477Y-82910310D01*
X105756426Y-82907111D01*
X105756422Y-82907107D01*
X105619357Y-82798861D01*
X105567099Y-82757590D01*
X105397416Y-82663919D01*
X105355906Y-82641004D01*
X105355903Y-82641003D01*
X105351375Y-82638503D01*
X105119097Y-82556250D01*
X105064457Y-82546517D01*
X104881593Y-82513943D01*
X104881589Y-82513943D01*
X104876505Y-82513037D01*
X104797086Y-82512067D01*
X104635282Y-82510090D01*
X104635280Y-82510090D01*
X104630112Y-82510027D01*
X104386536Y-82547299D01*
X104152318Y-82623853D01*
X104147730Y-82626241D01*
X104147726Y-82626243D01*
X103938337Y-82735244D01*
X103933748Y-82737633D01*
X103929615Y-82740736D01*
X103929612Y-82740738D01*
X103740832Y-82882479D01*
X103736697Y-82885584D01*
X103566455Y-83063731D01*
X103563541Y-83068003D01*
X103563540Y-83068004D01*
X103430515Y-83263011D01*
X103430512Y-83263016D01*
X103427596Y-83267291D01*
X103425420Y-83271980D01*
X103425416Y-83271986D01*
X103326025Y-83486106D01*
X103323848Y-83490797D01*
X103322468Y-83495775D01*
X103322466Y-83495779D01*
X103312854Y-83530441D01*
X103257998Y-83728247D01*
X103236500Y-83929406D01*
X103236500Y-86052469D01*
X101233500Y-86052469D01*
X101233500Y-82971866D01*
X101226745Y-82909684D01*
X101175615Y-82773295D01*
X101088261Y-82656739D01*
X100971705Y-82569385D01*
X100835316Y-82518255D01*
X100773134Y-82511500D01*
X98696866Y-82511500D01*
X98634684Y-82518255D01*
X98498295Y-82569385D01*
X98381739Y-82656739D01*
X98294385Y-82773295D01*
X98243255Y-82909684D01*
X98236500Y-82971866D01*
X98236500Y-87028134D01*
X86008000Y-87028134D01*
X86008000Y-82947404D01*
X88236941Y-82947404D01*
X88237304Y-82951552D01*
X88237304Y-82951556D01*
X88247492Y-83068004D01*
X88263091Y-83246292D01*
X88264001Y-83250364D01*
X88264002Y-83250369D01*
X88327628Y-83535016D01*
X88328540Y-83539095D01*
X88432140Y-83820671D01*
X88434084Y-83824359D01*
X88434088Y-83824367D01*
X88530805Y-84007807D01*
X88572069Y-84086071D01*
X88745871Y-84330633D01*
X88950490Y-84550061D01*
X89182333Y-84740498D01*
X89437325Y-84898600D01*
X89710988Y-85021589D01*
X89885368Y-85073574D01*
X89994514Y-85106112D01*
X89994516Y-85106112D01*
X89998513Y-85107304D01*
X90002633Y-85107957D01*
X90002635Y-85107957D01*
X90121509Y-85126785D01*
X90294848Y-85154239D01*
X90337577Y-85156179D01*
X90387262Y-85158436D01*
X90387281Y-85158436D01*
X90388681Y-85158500D01*
X90576107Y-85158500D01*
X90799370Y-85143671D01*
X90803464Y-85142846D01*
X90803468Y-85142845D01*
X90944513Y-85114405D01*
X91093480Y-85084368D01*
X91377163Y-84986688D01*
X91380896Y-84984819D01*
X91380900Y-84984817D01*
X91641691Y-84854222D01*
X91641693Y-84854221D01*
X91645435Y-84852347D01*
X91893584Y-84683706D01*
X92117248Y-84483726D01*
X92119966Y-84480555D01*
X92309779Y-84259097D01*
X92309782Y-84259093D01*
X92312499Y-84255923D01*
X92314773Y-84252421D01*
X92314777Y-84252416D01*
X92473628Y-84007807D01*
X92473631Y-84007802D01*
X92475907Y-84004297D01*
X92502862Y-83947531D01*
X92602804Y-83737052D01*
X92604600Y-83733270D01*
X92607810Y-83723274D01*
X92695038Y-83451591D01*
X92695038Y-83451590D01*
X92696318Y-83447604D01*
X92749448Y-83152316D01*
X92751965Y-83096908D01*
X92762870Y-82856766D01*
X92762870Y-82856760D01*
X92763059Y-82852596D01*
X92753273Y-82740738D01*
X92738752Y-82574771D01*
X92736909Y-82553708D01*
X92735477Y-82547299D01*
X92672372Y-82264984D01*
X92672371Y-82264981D01*
X92671460Y-82260905D01*
X92567860Y-81979329D01*
X92565916Y-81975641D01*
X92565912Y-81975633D01*
X92429884Y-81717633D01*
X92429883Y-81717632D01*
X92427931Y-81713929D01*
X92254129Y-81469367D01*
X92049510Y-81249939D01*
X91817667Y-81059502D01*
X91562675Y-80901400D01*
X91289012Y-80778411D01*
X91075650Y-80714805D01*
X91005486Y-80693888D01*
X91005484Y-80693888D01*
X91001487Y-80692696D01*
X90997367Y-80692043D01*
X90997365Y-80692043D01*
X90878491Y-80673215D01*
X90705152Y-80645761D01*
X90662423Y-80643821D01*
X90612738Y-80641564D01*
X90612719Y-80641564D01*
X90611319Y-80641500D01*
X90423893Y-80641500D01*
X90200630Y-80656329D01*
X90196536Y-80657154D01*
X90196532Y-80657155D01*
X90055487Y-80685595D01*
X89906520Y-80715632D01*
X89622837Y-80813312D01*
X89619104Y-80815181D01*
X89619100Y-80815183D01*
X89358309Y-80945778D01*
X89354565Y-80947653D01*
X89106416Y-81116294D01*
X88882752Y-81316274D01*
X88880035Y-81319444D01*
X88880034Y-81319445D01*
X88754155Y-81466311D01*
X88687501Y-81544077D01*
X88685227Y-81547579D01*
X88685223Y-81547584D01*
X88574792Y-81717633D01*
X88524093Y-81795703D01*
X88395400Y-82066730D01*
X88303682Y-82352396D01*
X88302941Y-82356515D01*
X88252515Y-82636776D01*
X88250552Y-82647684D01*
X88250363Y-82651851D01*
X88250362Y-82651858D01*
X88238452Y-82914133D01*
X88236941Y-82947404D01*
X86008000Y-82947404D01*
X86008000Y-78534000D01*
X86028002Y-78465879D01*
X86081658Y-78419386D01*
X86134000Y-78408000D01*
X144374000Y-78408000D01*
X144442121Y-78428002D01*
G37*
%TD.AperFunction*%
%TD*%
M02*
