M48
; DRILL file {KiCad (6.0.1)} date Tue Mar 29 16:10:15 2022
; FORMAT={-:-/ absolute / inch / decimal}
; #@! TF.CreationDate,2022-03-29T16:10:15-05:00
; #@! TF.GenerationSoftware,Kicad,Pcbnew,(6.0.1)
; #@! TF.FileFunction,Plated,1,2,PTH
FMAT,2
INCH
; #@! TA.AperFunction,Plated,PTH,ViaDrill
T1C0.0157
; #@! TA.AperFunction,Plated,PTH,ComponentDrill
T2C0.0315
; #@! TA.AperFunction,Plated,PTH,ComponentDrill
T3C0.0394
; #@! TA.AperFunction,Plated,PTH,ComponentDrill
T4C0.0709
%
G90
G05
T1
X2.23Y-2.835
X2.42Y-2.605
X2.42Y-3.065
X2.735Y-2.84
X2.825Y-2.665
X3.025Y-2.615
X3.205Y-2.615
T2
X2.6249Y-3.3148
X2.7627Y-3.3148
X3.51Y-2.7049
X3.51Y-2.8427
T3
X2.375Y-3.255
X2.375Y-3.355
X3.065Y-3.2198
X3.065Y-3.415
X3.275Y-3.2198
X3.275Y-3.415
X3.48Y-3.255
X3.48Y-3.355
T4
X2.935Y-1.9191
X2.935Y-2.4506
T0
M30
