%TF.GenerationSoftware,KiCad,Pcbnew,(6.0.1)*%
%TF.CreationDate,2022-03-29T16:10:18-05:00*%
%TF.ProjectId,buck_board,6275636b-5f62-46f6-9172-642e6b696361,rev?*%
%TF.SameCoordinates,Original*%
%TF.FileFunction,Legend,Top*%
%TF.FilePolarity,Positive*%
%FSLAX46Y46*%
G04 Gerber Fmt 4.6, Leading zero omitted, Abs format (unit mm)*
G04 Created by KiCad (PCBNEW (6.0.1)) date 2022-03-29 16:10:18*
%MOMM*%
%LPD*%
G01*
G04 APERTURE LIST*
%ADD10C,0.300000*%
%ADD11C,0.150000*%
%ADD12C,0.254000*%
%ADD13C,0.120000*%
%ADD14C,0.100000*%
%ADD15C,0.200000*%
G04 APERTURE END LIST*
D10*
X61290000Y-52516571D02*
X62147142Y-52516571D01*
X61718571Y-54016571D02*
X61718571Y-52516571D01*
X63218571Y-53945142D02*
X63075714Y-54016571D01*
X62790000Y-54016571D01*
X62647142Y-53945142D01*
X62575714Y-53802285D01*
X62575714Y-53230857D01*
X62647142Y-53088000D01*
X62790000Y-53016571D01*
X63075714Y-53016571D01*
X63218571Y-53088000D01*
X63290000Y-53230857D01*
X63290000Y-53373714D01*
X62575714Y-53516571D01*
X64575714Y-54016571D02*
X64575714Y-53230857D01*
X64504285Y-53088000D01*
X64361428Y-53016571D01*
X64075714Y-53016571D01*
X63932857Y-53088000D01*
X64575714Y-53945142D02*
X64432857Y-54016571D01*
X64075714Y-54016571D01*
X63932857Y-53945142D01*
X63861428Y-53802285D01*
X63861428Y-53659428D01*
X63932857Y-53516571D01*
X64075714Y-53445142D01*
X64432857Y-53445142D01*
X64575714Y-53373714D01*
X65290000Y-54016571D02*
X65290000Y-53016571D01*
X65290000Y-53159428D02*
X65361428Y-53088000D01*
X65504285Y-53016571D01*
X65718571Y-53016571D01*
X65861428Y-53088000D01*
X65932857Y-53230857D01*
X65932857Y-54016571D01*
X65932857Y-53230857D02*
X66004285Y-53088000D01*
X66147142Y-53016571D01*
X66361428Y-53016571D01*
X66504285Y-53088000D01*
X66575714Y-53230857D01*
X66575714Y-54016571D01*
X68361428Y-52659428D02*
X68432857Y-52588000D01*
X68575714Y-52516571D01*
X68932857Y-52516571D01*
X69075714Y-52588000D01*
X69147142Y-52659428D01*
X69218571Y-52802285D01*
X69218571Y-52945142D01*
X69147142Y-53159428D01*
X68290000Y-54016571D01*
X69218571Y-54016571D01*
X70147142Y-52516571D02*
X70290000Y-52516571D01*
X70432857Y-52588000D01*
X70504285Y-52659428D01*
X70575714Y-52802285D01*
X70647142Y-53088000D01*
X70647142Y-53445142D01*
X70575714Y-53730857D01*
X70504285Y-53873714D01*
X70432857Y-53945142D01*
X70290000Y-54016571D01*
X70147142Y-54016571D01*
X70004285Y-53945142D01*
X69932857Y-53873714D01*
X69861428Y-53730857D01*
X69790000Y-53445142D01*
X69790000Y-53088000D01*
X69861428Y-52802285D01*
X69932857Y-52659428D01*
X70004285Y-52588000D01*
X70147142Y-52516571D01*
X60397142Y-55645857D02*
X60611428Y-55717285D01*
X60682857Y-55788714D01*
X60754285Y-55931571D01*
X60754285Y-56145857D01*
X60682857Y-56288714D01*
X60611428Y-56360142D01*
X60468571Y-56431571D01*
X59897142Y-56431571D01*
X59897142Y-54931571D01*
X60397142Y-54931571D01*
X60540000Y-55003000D01*
X60611428Y-55074428D01*
X60682857Y-55217285D01*
X60682857Y-55360142D01*
X60611428Y-55503000D01*
X60540000Y-55574428D01*
X60397142Y-55645857D01*
X59897142Y-55645857D01*
X62040000Y-55431571D02*
X62040000Y-56431571D01*
X61397142Y-55431571D02*
X61397142Y-56217285D01*
X61468571Y-56360142D01*
X61611428Y-56431571D01*
X61825714Y-56431571D01*
X61968571Y-56360142D01*
X62040000Y-56288714D01*
X63397142Y-56360142D02*
X63254285Y-56431571D01*
X62968571Y-56431571D01*
X62825714Y-56360142D01*
X62754285Y-56288714D01*
X62682857Y-56145857D01*
X62682857Y-55717285D01*
X62754285Y-55574428D01*
X62825714Y-55503000D01*
X62968571Y-55431571D01*
X63254285Y-55431571D01*
X63397142Y-55503000D01*
X64040000Y-56431571D02*
X64040000Y-54931571D01*
X64182857Y-55860142D02*
X64611428Y-56431571D01*
X64611428Y-55431571D02*
X64040000Y-56003000D01*
X66897142Y-55645857D02*
X67111428Y-55717285D01*
X67182857Y-55788714D01*
X67254285Y-55931571D01*
X67254285Y-56145857D01*
X67182857Y-56288714D01*
X67111428Y-56360142D01*
X66968571Y-56431571D01*
X66397142Y-56431571D01*
X66397142Y-54931571D01*
X66897142Y-54931571D01*
X67040000Y-55003000D01*
X67111428Y-55074428D01*
X67182857Y-55217285D01*
X67182857Y-55360142D01*
X67111428Y-55503000D01*
X67040000Y-55574428D01*
X66897142Y-55645857D01*
X66397142Y-55645857D01*
X68111428Y-56431571D02*
X67968571Y-56360142D01*
X67897142Y-56288714D01*
X67825714Y-56145857D01*
X67825714Y-55717285D01*
X67897142Y-55574428D01*
X67968571Y-55503000D01*
X68111428Y-55431571D01*
X68325714Y-55431571D01*
X68468571Y-55503000D01*
X68540000Y-55574428D01*
X68611428Y-55717285D01*
X68611428Y-56145857D01*
X68540000Y-56288714D01*
X68468571Y-56360142D01*
X68325714Y-56431571D01*
X68111428Y-56431571D01*
X69897142Y-56431571D02*
X69897142Y-55645857D01*
X69825714Y-55503000D01*
X69682857Y-55431571D01*
X69397142Y-55431571D01*
X69254285Y-55503000D01*
X69897142Y-56360142D02*
X69754285Y-56431571D01*
X69397142Y-56431571D01*
X69254285Y-56360142D01*
X69182857Y-56217285D01*
X69182857Y-56074428D01*
X69254285Y-55931571D01*
X69397142Y-55860142D01*
X69754285Y-55860142D01*
X69897142Y-55788714D01*
X70611428Y-56431571D02*
X70611428Y-55431571D01*
X70611428Y-55717285D02*
X70682857Y-55574428D01*
X70754285Y-55503000D01*
X70897142Y-55431571D01*
X71040000Y-55431571D01*
X72182857Y-56431571D02*
X72182857Y-54931571D01*
X72182857Y-56360142D02*
X72040000Y-56431571D01*
X71754285Y-56431571D01*
X71611428Y-56360142D01*
X71540000Y-56288714D01*
X71468571Y-56145857D01*
X71468571Y-55717285D01*
X71540000Y-55574428D01*
X71611428Y-55503000D01*
X71754285Y-55431571D01*
X72040000Y-55431571D01*
X72182857Y-55503000D01*
X61111428Y-57346571D02*
X62040000Y-57346571D01*
X61540000Y-57918000D01*
X61754285Y-57918000D01*
X61897142Y-57989428D01*
X61968571Y-58060857D01*
X62040000Y-58203714D01*
X62040000Y-58560857D01*
X61968571Y-58703714D01*
X61897142Y-58775142D01*
X61754285Y-58846571D01*
X61325714Y-58846571D01*
X61182857Y-58775142D01*
X61111428Y-58703714D01*
X63754285Y-57275142D02*
X62468571Y-59203714D01*
X64182857Y-57489428D02*
X64254285Y-57418000D01*
X64397142Y-57346571D01*
X64754285Y-57346571D01*
X64897142Y-57418000D01*
X64968571Y-57489428D01*
X65040000Y-57632285D01*
X65040000Y-57775142D01*
X64968571Y-57989428D01*
X64111428Y-58846571D01*
X65040000Y-58846571D01*
X65754285Y-58846571D02*
X66040000Y-58846571D01*
X66182857Y-58775142D01*
X66254285Y-58703714D01*
X66397142Y-58489428D01*
X66468571Y-58203714D01*
X66468571Y-57632285D01*
X66397142Y-57489428D01*
X66325714Y-57418000D01*
X66182857Y-57346571D01*
X65897142Y-57346571D01*
X65754285Y-57418000D01*
X65682857Y-57489428D01*
X65611428Y-57632285D01*
X65611428Y-57989428D01*
X65682857Y-58132285D01*
X65754285Y-58203714D01*
X65897142Y-58275142D01*
X66182857Y-58275142D01*
X66325714Y-58203714D01*
X66397142Y-58132285D01*
X66468571Y-57989428D01*
X68182857Y-57275142D02*
X66897142Y-59203714D01*
X68611428Y-57489428D02*
X68682857Y-57418000D01*
X68825714Y-57346571D01*
X69182857Y-57346571D01*
X69325714Y-57418000D01*
X69397142Y-57489428D01*
X69468571Y-57632285D01*
X69468571Y-57775142D01*
X69397142Y-57989428D01*
X68540000Y-58846571D01*
X69468571Y-58846571D01*
X70040000Y-57489428D02*
X70111428Y-57418000D01*
X70254285Y-57346571D01*
X70611428Y-57346571D01*
X70754285Y-57418000D01*
X70825714Y-57489428D01*
X70897142Y-57632285D01*
X70897142Y-57775142D01*
X70825714Y-57989428D01*
X69968571Y-58846571D01*
X70897142Y-58846571D01*
D11*
%TO.C,TP4*%
X77089095Y-84214000D02*
X76993857Y-84166380D01*
X76851000Y-84166380D01*
X76708142Y-84214000D01*
X76612904Y-84309238D01*
X76565285Y-84404476D01*
X76517666Y-84594952D01*
X76517666Y-84737809D01*
X76565285Y-84928285D01*
X76612904Y-85023523D01*
X76708142Y-85118761D01*
X76851000Y-85166380D01*
X76946238Y-85166380D01*
X77089095Y-85118761D01*
X77136714Y-85071142D01*
X77136714Y-84737809D01*
X76946238Y-84737809D01*
X77565285Y-85166380D02*
X77565285Y-84166380D01*
X78136714Y-85166380D01*
X78136714Y-84166380D01*
X78612904Y-85166380D02*
X78612904Y-84166380D01*
X78851000Y-84166380D01*
X78993857Y-84214000D01*
X79089095Y-84309238D01*
X79136714Y-84404476D01*
X79184333Y-84594952D01*
X79184333Y-84737809D01*
X79136714Y-84928285D01*
X79089095Y-85023523D01*
X78993857Y-85118761D01*
X78851000Y-85166380D01*
X78612904Y-85166380D01*
%TO.C,TP3*%
X82423095Y-84214000D02*
X82327857Y-84166380D01*
X82185000Y-84166380D01*
X82042142Y-84214000D01*
X81946904Y-84309238D01*
X81899285Y-84404476D01*
X81851666Y-84594952D01*
X81851666Y-84737809D01*
X81899285Y-84928285D01*
X81946904Y-85023523D01*
X82042142Y-85118761D01*
X82185000Y-85166380D01*
X82280238Y-85166380D01*
X82423095Y-85118761D01*
X82470714Y-85071142D01*
X82470714Y-84737809D01*
X82280238Y-84737809D01*
X82899285Y-85166380D02*
X82899285Y-84166380D01*
X83470714Y-85166380D01*
X83470714Y-84166380D01*
X83946904Y-85166380D02*
X83946904Y-84166380D01*
X84185000Y-84166380D01*
X84327857Y-84214000D01*
X84423095Y-84309238D01*
X84470714Y-84404476D01*
X84518333Y-84594952D01*
X84518333Y-84737809D01*
X84470714Y-84928285D01*
X84423095Y-85023523D01*
X84327857Y-85118761D01*
X84185000Y-85166380D01*
X83946904Y-85166380D01*
%TO.C,TP2*%
X82613571Y-79081380D02*
X82137380Y-79081380D01*
X82089761Y-79557571D01*
X82137380Y-79509952D01*
X82232619Y-79462333D01*
X82470714Y-79462333D01*
X82565952Y-79509952D01*
X82613571Y-79557571D01*
X82661190Y-79652809D01*
X82661190Y-79890904D01*
X82613571Y-79986142D01*
X82565952Y-80033761D01*
X82470714Y-80081380D01*
X82232619Y-80081380D01*
X82137380Y-80033761D01*
X82089761Y-79986142D01*
X83708809Y-79081380D02*
X84042142Y-80081380D01*
X84375476Y-79081380D01*
%TO.C,TP1*%
X76279571Y-79176619D02*
X76327190Y-79129000D01*
X76422428Y-79081380D01*
X76660523Y-79081380D01*
X76755761Y-79129000D01*
X76803380Y-79176619D01*
X76851000Y-79271857D01*
X76851000Y-79367095D01*
X76803380Y-79509952D01*
X76231952Y-80081380D01*
X76851000Y-80081380D01*
X77708142Y-79414714D02*
X77708142Y-80081380D01*
X77470047Y-79033761D02*
X77231952Y-79748047D01*
X77851000Y-79748047D01*
X78851000Y-79081380D02*
X79184333Y-80081380D01*
X79517666Y-79081380D01*
%TO.C,L1*%
X74382333Y-56205380D02*
X73906142Y-56205380D01*
X73906142Y-55205380D01*
X75239476Y-56205380D02*
X74668047Y-56205380D01*
X74953761Y-56205380D02*
X74953761Y-55205380D01*
X74858523Y-55348238D01*
X74763285Y-55443476D01*
X74668047Y-55491095D01*
%TO.C,J2*%
X91122571Y-84669380D02*
X90646380Y-84669380D01*
X90598761Y-85145571D01*
X90646380Y-85097952D01*
X90741619Y-85050333D01*
X90979714Y-85050333D01*
X91074952Y-85097952D01*
X91122571Y-85145571D01*
X91170190Y-85240809D01*
X91170190Y-85478904D01*
X91122571Y-85574142D01*
X91074952Y-85621761D01*
X90979714Y-85669380D01*
X90741619Y-85669380D01*
X90646380Y-85621761D01*
X90598761Y-85574142D01*
X92217809Y-84669380D02*
X92551142Y-85669380D01*
X92884476Y-84669380D01*
X90932095Y-82304000D02*
X90836857Y-82256380D01*
X90694000Y-82256380D01*
X90551142Y-82304000D01*
X90455904Y-82399238D01*
X90408285Y-82494476D01*
X90360666Y-82684952D01*
X90360666Y-82827809D01*
X90408285Y-83018285D01*
X90455904Y-83113523D01*
X90551142Y-83208761D01*
X90694000Y-83256380D01*
X90789238Y-83256380D01*
X90932095Y-83208761D01*
X90979714Y-83161142D01*
X90979714Y-82827809D01*
X90789238Y-82827809D01*
X91408285Y-83256380D02*
X91408285Y-82256380D01*
X91979714Y-83256380D01*
X91979714Y-82256380D01*
X92455904Y-83256380D02*
X92455904Y-82256380D01*
X92694000Y-82256380D01*
X92836857Y-82304000D01*
X92932095Y-82399238D01*
X92979714Y-82494476D01*
X93027333Y-82684952D01*
X93027333Y-82827809D01*
X92979714Y-83018285D01*
X92932095Y-83113523D01*
X92836857Y-83208761D01*
X92694000Y-83256380D01*
X92455904Y-83256380D01*
%TO.C,J1*%
X55197571Y-84764619D02*
X55245190Y-84717000D01*
X55340428Y-84669380D01*
X55578523Y-84669380D01*
X55673761Y-84717000D01*
X55721380Y-84764619D01*
X55769000Y-84859857D01*
X55769000Y-84955095D01*
X55721380Y-85097952D01*
X55149952Y-85669380D01*
X55769000Y-85669380D01*
X56626142Y-85002714D02*
X56626142Y-85669380D01*
X56388047Y-84621761D02*
X56149952Y-85336047D01*
X56769000Y-85336047D01*
X57769000Y-84669380D02*
X58102333Y-85669380D01*
X58435666Y-84669380D01*
X56007095Y-82177000D02*
X55911857Y-82129380D01*
X55769000Y-82129380D01*
X55626142Y-82177000D01*
X55530904Y-82272238D01*
X55483285Y-82367476D01*
X55435666Y-82557952D01*
X55435666Y-82700809D01*
X55483285Y-82891285D01*
X55530904Y-82986523D01*
X55626142Y-83081761D01*
X55769000Y-83129380D01*
X55864238Y-83129380D01*
X56007095Y-83081761D01*
X56054714Y-83034142D01*
X56054714Y-82700809D01*
X55864238Y-82700809D01*
X56483285Y-83129380D02*
X56483285Y-82129380D01*
X57054714Y-83129380D01*
X57054714Y-82129380D01*
X57530904Y-83129380D02*
X57530904Y-82129380D01*
X57769000Y-82129380D01*
X57911857Y-82177000D01*
X58007095Y-82272238D01*
X58054714Y-82367476D01*
X58102333Y-82557952D01*
X58102333Y-82700809D01*
X58054714Y-82891285D01*
X58007095Y-82986523D01*
X57911857Y-83081761D01*
X57769000Y-83129380D01*
X57530904Y-83129380D01*
D12*
%TO.C,IC1*%
X67630523Y-73375761D02*
X66360523Y-73375761D01*
X67509571Y-72045285D02*
X67570047Y-72105761D01*
X67630523Y-72287190D01*
X67630523Y-72408142D01*
X67570047Y-72589571D01*
X67449095Y-72710523D01*
X67328142Y-72771000D01*
X67086238Y-72831476D01*
X66904809Y-72831476D01*
X66662904Y-72771000D01*
X66541952Y-72710523D01*
X66421000Y-72589571D01*
X66360523Y-72408142D01*
X66360523Y-72287190D01*
X66421000Y-72105761D01*
X66481476Y-72045285D01*
X67630523Y-70835761D02*
X67630523Y-71561476D01*
X67630523Y-71198619D02*
X66360523Y-71198619D01*
X66541952Y-71319571D01*
X66662904Y-71440523D01*
X66723380Y-71561476D01*
D11*
%TO.C,D1*%
X82882904Y-72588380D02*
X82882904Y-71588380D01*
X83121000Y-71588380D01*
X83263857Y-71636000D01*
X83359095Y-71731238D01*
X83406714Y-71826476D01*
X83454333Y-72016952D01*
X83454333Y-72159809D01*
X83406714Y-72350285D01*
X83359095Y-72445523D01*
X83263857Y-72540761D01*
X83121000Y-72588380D01*
X82882904Y-72588380D01*
X84406714Y-72588380D02*
X83835285Y-72588380D01*
X84121000Y-72588380D02*
X84121000Y-71588380D01*
X84025761Y-71731238D01*
X83930523Y-71826476D01*
X83835285Y-71874095D01*
%TO.C,C2*%
X88860333Y-75922142D02*
X88812714Y-75969761D01*
X88669857Y-76017380D01*
X88574619Y-76017380D01*
X88431761Y-75969761D01*
X88336523Y-75874523D01*
X88288904Y-75779285D01*
X88241285Y-75588809D01*
X88241285Y-75445952D01*
X88288904Y-75255476D01*
X88336523Y-75160238D01*
X88431761Y-75065000D01*
X88574619Y-75017380D01*
X88669857Y-75017380D01*
X88812714Y-75065000D01*
X88860333Y-75112619D01*
X89241285Y-75112619D02*
X89288904Y-75065000D01*
X89384142Y-75017380D01*
X89622238Y-75017380D01*
X89717476Y-75065000D01*
X89765095Y-75112619D01*
X89812714Y-75207857D01*
X89812714Y-75303095D01*
X89765095Y-75445952D01*
X89193666Y-76017380D01*
X89812714Y-76017380D01*
%TO.C,C1*%
X64222333Y-88114142D02*
X64174714Y-88161761D01*
X64031857Y-88209380D01*
X63936619Y-88209380D01*
X63793761Y-88161761D01*
X63698523Y-88066523D01*
X63650904Y-87971285D01*
X63603285Y-87780809D01*
X63603285Y-87637952D01*
X63650904Y-87447476D01*
X63698523Y-87352238D01*
X63793761Y-87257000D01*
X63936619Y-87209380D01*
X64031857Y-87209380D01*
X64174714Y-87257000D01*
X64222333Y-87304619D01*
X65174714Y-88209380D02*
X64603285Y-88209380D01*
X64889000Y-88209380D02*
X64889000Y-87209380D01*
X64793761Y-87352238D01*
X64698523Y-87447476D01*
X64603285Y-87495095D01*
D13*
%TO.C,TP4*%
X79051000Y-86741000D02*
G75*
G03*
X79051000Y-86741000I-1200000J0D01*
G01*
%TO.C,TP3*%
X84385000Y-86741000D02*
G75*
G03*
X84385000Y-86741000I-1200000J0D01*
G01*
%TO.C,TP2*%
X84385000Y-81783000D02*
G75*
G03*
X84385000Y-81783000I-1200000J0D01*
G01*
%TO.C,TP1*%
X79051000Y-81783000D02*
G75*
G03*
X79051000Y-81783000I-1200000J0D01*
G01*
%TO.C,L1*%
X58529000Y-63564000D02*
X58529000Y-47424000D01*
X90569000Y-63564000D02*
X76157000Y-63564000D01*
X90569000Y-47424000D02*
X76157000Y-47424000D01*
X72941000Y-47424000D02*
X58529000Y-47424000D01*
X90569000Y-63564000D02*
X90569000Y-47424000D01*
X72941000Y-63564000D02*
X58529000Y-63564000D01*
%TO.C,J2*%
X87062000Y-83947000D02*
X87062000Y-81347000D01*
X89722000Y-86547000D02*
X88392000Y-86547000D01*
X89722000Y-83947000D02*
X87062000Y-83947000D01*
X89722000Y-83947000D02*
X89722000Y-81347000D01*
X89722000Y-81347000D02*
X87062000Y-81347000D01*
X89722000Y-85217000D02*
X89722000Y-86547000D01*
%TO.C,J1*%
X58995000Y-83947000D02*
X58995000Y-81347000D01*
X61655000Y-86547000D02*
X60325000Y-86547000D01*
X61655000Y-83947000D02*
X58995000Y-83947000D01*
X61655000Y-83947000D02*
X61655000Y-81347000D01*
X61655000Y-81347000D02*
X58995000Y-81347000D01*
X61655000Y-85217000D02*
X61655000Y-86547000D01*
D14*
%TO.C,IC1*%
X66675000Y-77146000D02*
X68402000Y-77146000D01*
X68402000Y-77146000D02*
X68402000Y-67126000D01*
X68402000Y-67126000D02*
X66675000Y-67126000D01*
D15*
X73755000Y-75436000D02*
X73755000Y-75436000D01*
X73755000Y-75636000D02*
X73755000Y-75636000D01*
X73755000Y-75636000D02*
G75*
G03*
X73755000Y-75436000I0J100000D01*
G01*
X73755000Y-75436000D02*
G75*
G03*
X73755000Y-75636000I0J-100000D01*
G01*
D13*
%TO.C,D1*%
X82571000Y-71166000D02*
X82571000Y-69666000D01*
X82301000Y-69666000D02*
X82301000Y-66836000D01*
X75941000Y-69666000D02*
X75941000Y-68566000D01*
X75671000Y-71166000D02*
X75671000Y-69666000D01*
X82571000Y-69666000D02*
X82301000Y-69666000D01*
X75671000Y-69666000D02*
X75941000Y-69666000D01*
%TO.C,C2*%
X92099000Y-73296349D02*
X86209000Y-73296349D01*
X93196000Y-71015349D02*
X85112000Y-71015349D01*
X88114000Y-71296349D02*
X85160000Y-71296349D01*
X93230000Y-70655349D02*
X85078000Y-70655349D01*
X93215000Y-70855349D02*
X85093000Y-70855349D01*
X88114000Y-71736349D02*
X85277000Y-71736349D01*
X91441000Y-73856349D02*
X86867000Y-73856349D01*
X93004000Y-71816349D02*
X90194000Y-71816349D01*
X93101000Y-71496349D02*
X90194000Y-71496349D01*
X90799000Y-74216349D02*
X87509000Y-74216349D01*
X91659000Y-73696349D02*
X86649000Y-73696349D01*
X93231000Y-70615349D02*
X85077000Y-70615349D01*
X88114000Y-72496349D02*
X85614000Y-72496349D01*
X88114000Y-71416349D02*
X85187000Y-71416349D01*
X88114000Y-72016349D02*
X85380000Y-72016349D01*
X92061000Y-73336349D02*
X86247000Y-73336349D01*
X92840000Y-72216349D02*
X90194000Y-72216349D01*
X92894000Y-72096349D02*
X90194000Y-72096349D01*
X91851000Y-73536349D02*
X86457000Y-73536349D01*
X93156000Y-71256349D02*
X90194000Y-71256349D01*
X88114000Y-71216349D02*
X85144000Y-71216349D01*
X92546000Y-72736349D02*
X90194000Y-72736349D01*
X92944000Y-71976349D02*
X90194000Y-71976349D01*
X88114000Y-71656349D02*
X85252000Y-71656349D01*
X93043000Y-71696349D02*
X90194000Y-71696349D01*
X93121000Y-71416349D02*
X90194000Y-71416349D01*
X88114000Y-72576349D02*
X85661000Y-72576349D01*
X91710000Y-73656349D02*
X86598000Y-73656349D01*
X90967000Y-74136349D02*
X87341000Y-74136349D01*
X93164000Y-71216349D02*
X90194000Y-71216349D01*
X93184000Y-71095349D02*
X85124000Y-71095349D01*
X93234000Y-70495349D02*
X85074000Y-70495349D01*
X92623000Y-72616349D02*
X90194000Y-72616349D01*
X93090000Y-71536349D02*
X90194000Y-71536349D01*
X88114000Y-71776349D02*
X85291000Y-71776349D01*
X91980000Y-73416349D02*
X86328000Y-73416349D01*
X91320000Y-73936349D02*
X86988000Y-73936349D01*
X92278000Y-73096349D02*
X90194000Y-73096349D01*
X88114000Y-72976349D02*
X85934000Y-72976349D01*
X93219000Y-70815349D02*
X85089000Y-70815349D01*
X90383000Y-74376349D02*
X87925000Y-74376349D01*
X88114000Y-72416349D02*
X85570000Y-72416349D01*
X93130000Y-71376349D02*
X90194000Y-71376349D01*
X91869000Y-66445651D02*
X91069000Y-66445651D01*
X93079000Y-71576349D02*
X90194000Y-71576349D01*
X88114000Y-71256349D02*
X85152000Y-71256349D01*
X93111000Y-71456349D02*
X90194000Y-71456349D01*
X88114000Y-72136349D02*
X85432000Y-72136349D01*
X88114000Y-72696349D02*
X85736000Y-72696349D01*
X93225000Y-70735349D02*
X85083000Y-70735349D01*
X92989000Y-71856349D02*
X90194000Y-71856349D01*
X92760000Y-72376349D02*
X90194000Y-72376349D01*
X88114000Y-72256349D02*
X85488000Y-72256349D01*
X88114000Y-73016349D02*
X85965000Y-73016349D01*
X88114000Y-71616349D02*
X85240000Y-71616349D01*
X93148000Y-71296349D02*
X90194000Y-71296349D01*
X88114000Y-72376349D02*
X85548000Y-72376349D01*
X91805000Y-73576349D02*
X86503000Y-73576349D01*
X88114000Y-72096349D02*
X85414000Y-72096349D01*
X88114000Y-71696349D02*
X85265000Y-71696349D01*
X88114000Y-72776349D02*
X85789000Y-72776349D01*
X88114000Y-71176349D02*
X85137000Y-71176349D01*
X88114000Y-72456349D02*
X85592000Y-72456349D01*
X88114000Y-73056349D02*
X85998000Y-73056349D01*
X88114000Y-73176349D02*
X86099000Y-73176349D01*
X91895000Y-73496349D02*
X86413000Y-73496349D01*
X92671000Y-72536349D02*
X90194000Y-72536349D01*
X88114000Y-71856349D02*
X85319000Y-71856349D01*
X92694000Y-72496349D02*
X90194000Y-72496349D01*
X88114000Y-73096349D02*
X86030000Y-73096349D01*
X92173000Y-73216349D02*
X90194000Y-73216349D01*
X93202000Y-70975349D02*
X85106000Y-70975349D01*
X88114000Y-72176349D02*
X85450000Y-72176349D01*
X88114000Y-71976349D02*
X85364000Y-71976349D01*
X92492000Y-72816349D02*
X90194000Y-72816349D01*
X93178000Y-71135349D02*
X85130000Y-71135349D01*
X88114000Y-71336349D02*
X85169000Y-71336349D01*
X92244000Y-73136349D02*
X90194000Y-73136349D01*
X91118000Y-74056349D02*
X87190000Y-74056349D01*
X91256000Y-73976349D02*
X87052000Y-73976349D01*
X89687000Y-74536349D02*
X88621000Y-74536349D01*
X91554000Y-73776349D02*
X86754000Y-73776349D01*
X88114000Y-72736349D02*
X85762000Y-72736349D01*
X92434000Y-72896349D02*
X90194000Y-72896349D01*
X93017000Y-71776349D02*
X90194000Y-71776349D01*
X91188000Y-74016349D02*
X87120000Y-74016349D01*
X88114000Y-72536349D02*
X85637000Y-72536349D01*
X92716000Y-72456349D02*
X90194000Y-72456349D01*
X93233000Y-70575349D02*
X85075000Y-70575349D01*
X88114000Y-71896349D02*
X85333000Y-71896349D01*
X92137000Y-73256349D02*
X86171000Y-73256349D01*
X88114000Y-73216349D02*
X86135000Y-73216349D01*
X88114000Y-73136349D02*
X86064000Y-73136349D01*
X88114000Y-72336349D02*
X85527000Y-72336349D01*
X93228000Y-70695349D02*
X85080000Y-70695349D01*
X91938000Y-73456349D02*
X86370000Y-73456349D01*
X92209000Y-73176349D02*
X90194000Y-73176349D01*
X92858000Y-72176349D02*
X90194000Y-72176349D01*
X92975000Y-71896349D02*
X90194000Y-71896349D01*
X88114000Y-72816349D02*
X85816000Y-72816349D01*
X88114000Y-71536349D02*
X85218000Y-71536349D01*
X93031000Y-71736349D02*
X90194000Y-71736349D01*
X92876000Y-72136349D02*
X90194000Y-72136349D01*
X88114000Y-72896349D02*
X85874000Y-72896349D01*
X92647000Y-72576349D02*
X90194000Y-72576349D01*
X88114000Y-71456349D02*
X85197000Y-71456349D01*
X91469000Y-66045651D02*
X91469000Y-66845651D01*
X89922000Y-74496349D02*
X88386000Y-74496349D01*
X88114000Y-71936349D02*
X85349000Y-71936349D01*
X93056000Y-71656349D02*
X90194000Y-71656349D01*
X88114000Y-71496349D02*
X85207000Y-71496349D01*
X92021000Y-73376349D02*
X86287000Y-73376349D01*
X93139000Y-71336349D02*
X90194000Y-71336349D01*
X91044000Y-74096349D02*
X87264000Y-74096349D01*
X88114000Y-72936349D02*
X85904000Y-72936349D01*
X92519000Y-72776349D02*
X90194000Y-72776349D01*
X92738000Y-72416349D02*
X90194000Y-72416349D01*
X88114000Y-71576349D02*
X85229000Y-71576349D01*
X88114000Y-72056349D02*
X85397000Y-72056349D01*
X91499000Y-73816349D02*
X86809000Y-73816349D01*
X88114000Y-72656349D02*
X85710000Y-72656349D01*
X92820000Y-72256349D02*
X90194000Y-72256349D01*
X92343000Y-73016349D02*
X90194000Y-73016349D01*
X92374000Y-72976349D02*
X90194000Y-72976349D01*
X92928000Y-72016349D02*
X90194000Y-72016349D01*
X92781000Y-72336349D02*
X90194000Y-72336349D01*
X90706000Y-74256349D02*
X87602000Y-74256349D01*
X93234000Y-70455349D02*
X85074000Y-70455349D01*
X88114000Y-72616349D02*
X85685000Y-72616349D01*
X92959000Y-71936349D02*
X90194000Y-71936349D01*
X88114000Y-71376349D02*
X85178000Y-71376349D01*
X93206000Y-70935349D02*
X85102000Y-70935349D01*
X93171000Y-71176349D02*
X90194000Y-71176349D01*
X92572000Y-72696349D02*
X90194000Y-72696349D01*
X92310000Y-73056349D02*
X90194000Y-73056349D01*
X91382000Y-73896349D02*
X86926000Y-73896349D01*
X92404000Y-72936349D02*
X90194000Y-72936349D01*
X90500000Y-74336349D02*
X87808000Y-74336349D01*
X88114000Y-71816349D02*
X85304000Y-71816349D01*
X93234000Y-70535349D02*
X85074000Y-70535349D01*
X91758000Y-73616349D02*
X86550000Y-73616349D01*
X93191000Y-71055349D02*
X85117000Y-71055349D01*
X92801000Y-72296349D02*
X90194000Y-72296349D01*
X92463000Y-72856349D02*
X90194000Y-72856349D01*
X90252000Y-74416349D02*
X88056000Y-74416349D01*
X90885000Y-74176349D02*
X87423000Y-74176349D01*
X93222000Y-70775349D02*
X85086000Y-70775349D01*
X90607000Y-74296349D02*
X87701000Y-74296349D01*
X88114000Y-72296349D02*
X85507000Y-72296349D01*
X92598000Y-72656349D02*
X90194000Y-72656349D01*
X92911000Y-72056349D02*
X90194000Y-72056349D01*
X88114000Y-72216349D02*
X85468000Y-72216349D01*
X93211000Y-70895349D02*
X85097000Y-70895349D01*
X90102000Y-74456349D02*
X88206000Y-74456349D01*
X91608000Y-73736349D02*
X86700000Y-73736349D01*
X93068000Y-71616349D02*
X90194000Y-71616349D01*
X88114000Y-72856349D02*
X85845000Y-72856349D01*
X93274000Y-70455349D02*
G75*
G03*
X93274000Y-70455349I-4120000J0D01*
G01*
%TO.C,C1*%
X71264349Y-81251000D02*
X71264349Y-87141000D01*
X68983349Y-80154000D02*
X68983349Y-88238000D01*
X69264349Y-85236000D02*
X69264349Y-88190000D01*
X68623349Y-80120000D02*
X68623349Y-88272000D01*
X68823349Y-80135000D02*
X68823349Y-88257000D01*
X69704349Y-85236000D02*
X69704349Y-88073000D01*
X71824349Y-81909000D02*
X71824349Y-86483000D01*
X69784349Y-80346000D02*
X69784349Y-83156000D01*
X69464349Y-80249000D02*
X69464349Y-83156000D01*
X72184349Y-82551000D02*
X72184349Y-85841000D01*
X71664349Y-81691000D02*
X71664349Y-86701000D01*
X68583349Y-80119000D02*
X68583349Y-88273000D01*
X70464349Y-85236000D02*
X70464349Y-87736000D01*
X69384349Y-85236000D02*
X69384349Y-88163000D01*
X69984349Y-85236000D02*
X69984349Y-87970000D01*
X71304349Y-81289000D02*
X71304349Y-87103000D01*
X70184349Y-80510000D02*
X70184349Y-83156000D01*
X70064349Y-80456000D02*
X70064349Y-83156000D01*
X71504349Y-81499000D02*
X71504349Y-86893000D01*
X69224349Y-80194000D02*
X69224349Y-83156000D01*
X69184349Y-85236000D02*
X69184349Y-88206000D01*
X70704349Y-80804000D02*
X70704349Y-83156000D01*
X69944349Y-80406000D02*
X69944349Y-83156000D01*
X69624349Y-85236000D02*
X69624349Y-88098000D01*
X69664349Y-80307000D02*
X69664349Y-83156000D01*
X69384349Y-80229000D02*
X69384349Y-83156000D01*
X70544349Y-85236000D02*
X70544349Y-87689000D01*
X71624349Y-81640000D02*
X71624349Y-86752000D01*
X72104349Y-82383000D02*
X72104349Y-86009000D01*
X69184349Y-80186000D02*
X69184349Y-83156000D01*
X69063349Y-80166000D02*
X69063349Y-88226000D01*
X68463349Y-80116000D02*
X68463349Y-88276000D01*
X70584349Y-80727000D02*
X70584349Y-83156000D01*
X69504349Y-80260000D02*
X69504349Y-83156000D01*
X69744349Y-85236000D02*
X69744349Y-88059000D01*
X71384349Y-81370000D02*
X71384349Y-87022000D01*
X71904349Y-82030000D02*
X71904349Y-86362000D01*
X71064349Y-81072000D02*
X71064349Y-83156000D01*
X70944349Y-85236000D02*
X70944349Y-87416000D01*
X68783349Y-80131000D02*
X68783349Y-88261000D01*
X72344349Y-82967000D02*
X72344349Y-85425000D01*
X70384349Y-85236000D02*
X70384349Y-87780000D01*
X69344349Y-80220000D02*
X69344349Y-83156000D01*
X64413651Y-81481000D02*
X64413651Y-82281000D01*
X69544349Y-80271000D02*
X69544349Y-83156000D01*
X69224349Y-85236000D02*
X69224349Y-88198000D01*
X69424349Y-80239000D02*
X69424349Y-83156000D01*
X70104349Y-85236000D02*
X70104349Y-87918000D01*
X70664349Y-85236000D02*
X70664349Y-87614000D01*
X68703349Y-80125000D02*
X68703349Y-88267000D01*
X69824349Y-80361000D02*
X69824349Y-83156000D01*
X70344349Y-80590000D02*
X70344349Y-83156000D01*
X70224349Y-85236000D02*
X70224349Y-87862000D01*
X70984349Y-85236000D02*
X70984349Y-87385000D01*
X69584349Y-85236000D02*
X69584349Y-88110000D01*
X69264349Y-80202000D02*
X69264349Y-83156000D01*
X70344349Y-85236000D02*
X70344349Y-87802000D01*
X71544349Y-81545000D02*
X71544349Y-86847000D01*
X70064349Y-85236000D02*
X70064349Y-87936000D01*
X69664349Y-85236000D02*
X69664349Y-88085000D01*
X70744349Y-85236000D02*
X70744349Y-87561000D01*
X69144349Y-85236000D02*
X69144349Y-88213000D01*
X70424349Y-85236000D02*
X70424349Y-87758000D01*
X71024349Y-85236000D02*
X71024349Y-87352000D01*
X71144349Y-85236000D02*
X71144349Y-87251000D01*
X71464349Y-81455000D02*
X71464349Y-86937000D01*
X70504349Y-80679000D02*
X70504349Y-83156000D01*
X69824349Y-85236000D02*
X69824349Y-88031000D01*
X70464349Y-80656000D02*
X70464349Y-83156000D01*
X71064349Y-85236000D02*
X71064349Y-87320000D01*
X71184349Y-81177000D02*
X71184349Y-83156000D01*
X68943349Y-80148000D02*
X68943349Y-88244000D01*
X70144349Y-85236000D02*
X70144349Y-87900000D01*
X69944349Y-85236000D02*
X69944349Y-87986000D01*
X70784349Y-80858000D02*
X70784349Y-83156000D01*
X69103349Y-80172000D02*
X69103349Y-88220000D01*
X69304349Y-85236000D02*
X69304349Y-88181000D01*
X71104349Y-81106000D02*
X71104349Y-83156000D01*
X72024349Y-82232000D02*
X72024349Y-86160000D01*
X71944349Y-82094000D02*
X71944349Y-86298000D01*
X72504349Y-83663000D02*
X72504349Y-84729000D01*
X71744349Y-81796000D02*
X71744349Y-86596000D01*
X70704349Y-85236000D02*
X70704349Y-87588000D01*
X70864349Y-80916000D02*
X70864349Y-83156000D01*
X69744349Y-80333000D02*
X69744349Y-83156000D01*
X71984349Y-82162000D02*
X71984349Y-86230000D01*
X70504349Y-85236000D02*
X70504349Y-87713000D01*
X70424349Y-80634000D02*
X70424349Y-83156000D01*
X68543349Y-80117000D02*
X68543349Y-88275000D01*
X69864349Y-85236000D02*
X69864349Y-88017000D01*
X71224349Y-81213000D02*
X71224349Y-87179000D01*
X71184349Y-85236000D02*
X71184349Y-87215000D01*
X71104349Y-85236000D02*
X71104349Y-87286000D01*
X70304349Y-85236000D02*
X70304349Y-87823000D01*
X68663349Y-80122000D02*
X68663349Y-88270000D01*
X71424349Y-81412000D02*
X71424349Y-86980000D01*
X71144349Y-81141000D02*
X71144349Y-83156000D01*
X70144349Y-80492000D02*
X70144349Y-83156000D01*
X69864349Y-80375000D02*
X69864349Y-83156000D01*
X70784349Y-85236000D02*
X70784349Y-87534000D01*
X69504349Y-85236000D02*
X69504349Y-88132000D01*
X69704349Y-80319000D02*
X69704349Y-83156000D01*
X70104349Y-80474000D02*
X70104349Y-83156000D01*
X70864349Y-85236000D02*
X70864349Y-87476000D01*
X70544349Y-80703000D02*
X70544349Y-83156000D01*
X69424349Y-85236000D02*
X69424349Y-88153000D01*
X64013651Y-81881000D02*
X64813651Y-81881000D01*
X72464349Y-83428000D02*
X72464349Y-84964000D01*
X69904349Y-85236000D02*
X69904349Y-88001000D01*
X69624349Y-80294000D02*
X69624349Y-83156000D01*
X69464349Y-85236000D02*
X69464349Y-88143000D01*
X71344349Y-81329000D02*
X71344349Y-87063000D01*
X69304349Y-80211000D02*
X69304349Y-83156000D01*
X72064349Y-82306000D02*
X72064349Y-86086000D01*
X70904349Y-85236000D02*
X70904349Y-87446000D01*
X70744349Y-80831000D02*
X70744349Y-83156000D01*
X70384349Y-80612000D02*
X70384349Y-83156000D01*
X69544349Y-85236000D02*
X69544349Y-88121000D01*
X70024349Y-85236000D02*
X70024349Y-87953000D01*
X71784349Y-81851000D02*
X71784349Y-86541000D01*
X70624349Y-85236000D02*
X70624349Y-87640000D01*
X70224349Y-80530000D02*
X70224349Y-83156000D01*
X70984349Y-81007000D02*
X70984349Y-83156000D01*
X70944349Y-80976000D02*
X70944349Y-83156000D01*
X69984349Y-80422000D02*
X69984349Y-83156000D01*
X70304349Y-80569000D02*
X70304349Y-83156000D01*
X72224349Y-82644000D02*
X72224349Y-85748000D01*
X68423349Y-80116000D02*
X68423349Y-88276000D01*
X70584349Y-85236000D02*
X70584349Y-87665000D01*
X69904349Y-80391000D02*
X69904349Y-83156000D01*
X69344349Y-85236000D02*
X69344349Y-88172000D01*
X68903349Y-80144000D02*
X68903349Y-88248000D01*
X69144349Y-80179000D02*
X69144349Y-83156000D01*
X70664349Y-80778000D02*
X70664349Y-83156000D01*
X71024349Y-81040000D02*
X71024349Y-83156000D01*
X71864349Y-81968000D02*
X71864349Y-86424000D01*
X70904349Y-80946000D02*
X70904349Y-83156000D01*
X72304349Y-82850000D02*
X72304349Y-85542000D01*
X69784349Y-85236000D02*
X69784349Y-88046000D01*
X68503349Y-80116000D02*
X68503349Y-88276000D01*
X71584349Y-81592000D02*
X71584349Y-86800000D01*
X69023349Y-80159000D02*
X69023349Y-88233000D01*
X70264349Y-80549000D02*
X70264349Y-83156000D01*
X70824349Y-80887000D02*
X70824349Y-83156000D01*
X72384349Y-83098000D02*
X72384349Y-85294000D01*
X72144349Y-82465000D02*
X72144349Y-85927000D01*
X68743349Y-80128000D02*
X68743349Y-88264000D01*
X72264349Y-82743000D02*
X72264349Y-85649000D01*
X70264349Y-85236000D02*
X70264349Y-87843000D01*
X70624349Y-80752000D02*
X70624349Y-83156000D01*
X70024349Y-80439000D02*
X70024349Y-83156000D01*
X70184349Y-85236000D02*
X70184349Y-87882000D01*
X68863349Y-80139000D02*
X68863349Y-88253000D01*
X72424349Y-83248000D02*
X72424349Y-85144000D01*
X71704349Y-81742000D02*
X71704349Y-86650000D01*
X69584349Y-80282000D02*
X69584349Y-83156000D01*
X70824349Y-85236000D02*
X70824349Y-87505000D01*
X72543349Y-84196000D02*
G75*
G03*
X72543349Y-84196000I-4120000J0D01*
G01*
%TD*%
M02*
