M48
; DRILL file {KiCad (6.0.1)} date Tue Mar  8 00:56:29 2022
; FORMAT={-:-/ absolute / inch / decimal}
; #@! TF.CreationDate,2022-03-08T00:56:29-06:00
; #@! TF.GenerationSoftware,Kicad,Pcbnew,(6.0.1)
; #@! TF.FileFunction,Plated,1,2,PTH
FMAT,2
INCH
; #@! TA.AperFunction,Plated,PTH,ViaDrill
T1C0.0157
; #@! TA.AperFunction,Plated,PTH,ComponentDrill
T2C0.0307
; #@! TA.AperFunction,Plated,PTH,ComponentDrill
T3C0.0315
; #@! TA.AperFunction,Plated,PTH,ComponentDrill
T4C0.0394
%
G90
G05
T1
X8.035Y-4.58
X8.22Y-4.33
X8.445Y-3.55
X8.5Y-4.34
X8.6352Y-3.5586
X8.8417Y-4.1036
X8.92Y-4.235
X8.99Y-4.335
X8.99Y-4.66
X9.0236Y-3.89
X9.545Y-4.315
X9.55Y-4.41
X9.57Y-4.25
T2
X7.78Y-3.9298
X7.78Y-4.0282
X7.78Y-4.1267
X7.78Y-4.3235
X7.78Y-4.4219
X7.78Y-4.5204
X7.78Y-4.6188
T3
X8.83Y-4.4348
X8.83Y-4.6269
X9.0854Y-3.6552
X9.0854Y-3.7552
X9.0854Y-3.8552
X9.0854Y-3.9552
X9.0854Y-4.0552
X9.0854Y-4.1552
X9.0854Y-4.2552
X9.0854Y-4.3552
X9.0854Y-4.4552
X9.0854Y-4.5552
X9.0854Y-4.6552
X9.0854Y-4.7552
X9.0854Y-4.8552
X9.0854Y-4.9552
X9.3854Y-3.6552
X9.3854Y-3.7552
X9.3854Y-3.8552
X9.3854Y-3.9552
X9.3854Y-4.0552
X9.3854Y-4.1552
X9.3854Y-4.2552
X9.3854Y-4.3552
X9.3854Y-4.4552
X9.3854Y-4.5552
X9.3854Y-4.6552
X9.3854Y-4.7552
X9.3854Y-4.8552
X9.3854Y-4.9552
T4
X7.585Y-3.6698
X7.6456Y-5.0848
X7.685Y-3.6698
X7.7456Y-5.0848
X7.8456Y-5.0848
X8.255Y-3.7398
X8.255Y-3.8398
X8.355Y-3.7398
X8.355Y-3.8398
X8.455Y-3.7398
X8.455Y-3.8398
X8.755Y-3.6648
X8.805Y-5.0996
X8.805Y-5.1996
X8.855Y-3.6648
X8.955Y-3.6648
X9.085Y-5.1998
X9.185Y-5.1998
X9.285Y-5.1998
X9.385Y-5.1998
X9.52Y-3.6646
X9.52Y-3.7646
X9.775Y-3.8042
X9.775Y-3.9042
X9.775Y-4.0042
X9.78Y-4.21
X9.78Y-4.31
X10.035Y-3.6594
X10.035Y-3.7594
X10.035Y-3.8594
X10.035Y-3.9594
T0
M30
