%TF.GenerationSoftware,KiCad,Pcbnew,(6.0.1)*%
%TF.CreationDate,2022-03-08T00:57:02-06:00*%
%TF.ProjectId,mcu_board,6d63755f-626f-4617-9264-2e6b69636164,rev?*%
%TF.SameCoordinates,Original*%
%TF.FileFunction,Copper,L2,Bot*%
%TF.FilePolarity,Positive*%
%FSLAX46Y46*%
G04 Gerber Fmt 4.6, Leading zero omitted, Abs format (unit mm)*
G04 Created by KiCad (PCBNEW (6.0.1)) date 2022-03-08 00:57:02*
%MOMM*%
%LPD*%
G01*
G04 APERTURE LIST*
G04 Aperture macros list*
%AMRoundRect*
0 Rectangle with rounded corners*
0 $1 Rounding radius*
0 $2 $3 $4 $5 $6 $7 $8 $9 X,Y pos of 4 corners*
0 Add a 4 corners polygon primitive as box body*
4,1,4,$2,$3,$4,$5,$6,$7,$8,$9,$2,$3,0*
0 Add four circle primitives for the rounded corners*
1,1,$1+$1,$2,$3*
1,1,$1+$1,$4,$5*
1,1,$1+$1,$6,$7*
1,1,$1+$1,$8,$9*
0 Add four rect primitives between the rounded corners*
20,1,$1+$1,$2,$3,$4,$5,0*
20,1,$1+$1,$4,$5,$6,$7,0*
20,1,$1+$1,$6,$7,$8,$9,0*
20,1,$1+$1,$8,$9,$2,$3,0*%
G04 Aperture macros list end*
%TA.AperFunction,ComponentPad*%
%ADD10R,1.700000X1.700000*%
%TD*%
%TA.AperFunction,ComponentPad*%
%ADD11O,1.700000X1.700000*%
%TD*%
%TA.AperFunction,ComponentPad*%
%ADD12C,1.500000*%
%TD*%
%TA.AperFunction,ComponentPad*%
%ADD13R,1.600000X1.600000*%
%TD*%
%TA.AperFunction,ComponentPad*%
%ADD14O,1.600000X1.600000*%
%TD*%
%TA.AperFunction,ComponentPad*%
%ADD15C,1.337000*%
%TD*%
%TA.AperFunction,ComponentPad*%
%ADD16RoundRect,0.250000X-0.600000X0.600000X-0.600000X-0.600000X0.600000X-0.600000X0.600000X0.600000X0*%
%TD*%
%TA.AperFunction,ComponentPad*%
%ADD17C,1.700000*%
%TD*%
%TA.AperFunction,ViaPad*%
%ADD18C,0.800000*%
%TD*%
%TA.AperFunction,Conductor*%
%ADD19C,0.254000*%
%TD*%
G04 APERTURE END LIST*
D10*
%TO.P,J1,1,Pin_1*%
%TO.N,Pedestrian*%
X223647000Y-129530000D03*
D11*
%TO.P,J1,2,Pin_2*%
%TO.N,Bike*%
X223647000Y-132070000D03*
%TD*%
D12*
%TO.P,Y1,2,2*%
%TO.N,MCU_XTAL2*%
X224282000Y-117524000D03*
%TO.P,Y1,1,1*%
%TO.N,MCU_XTAL1*%
X224282000Y-112644000D03*
%TD*%
D13*
%TO.P,U1,1,~{RESET}/PC6*%
%TO.N,MCU_N_RESET*%
X230769000Y-92842000D03*
D14*
%TO.P,U1,2,PD0*%
%TO.N,unconnected-(U1-Pad2)*%
X230769000Y-95382000D03*
%TO.P,U1,3,PD1*%
%TO.N,unconnected-(U1-Pad3)*%
X230769000Y-97922000D03*
%TO.P,U1,4,PD2*%
%TO.N,Solar*%
X230769000Y-100462000D03*
%TO.P,U1,5,PD3*%
%TO.N,Grid*%
X230769000Y-103002000D03*
%TO.P,U1,6,PD4*%
%TO.N,Resistor*%
X230769000Y-105542000D03*
%TO.P,U1,7,VCC*%
%TO.N,+5V*%
X230769000Y-108082000D03*
%TO.P,U1,8,GND*%
%TO.N,GND1*%
X230769000Y-110622000D03*
%TO.P,U1,9,XTAL1/PB6*%
%TO.N,MCU_XTAL1*%
X230769000Y-113162000D03*
%TO.P,U1,10,XTAL2/PB7*%
%TO.N,MCU_XTAL2*%
X230769000Y-115702000D03*
%TO.P,U1,11,PD5*%
%TO.N,Red*%
X230769000Y-118242000D03*
%TO.P,U1,12,PD6*%
%TO.N,Green*%
X230769000Y-120782000D03*
%TO.P,U1,13,PD7*%
%TO.N,Pedestrian*%
X230769000Y-123322000D03*
%TO.P,U1,14,PB0*%
%TO.N,Bike*%
X230769000Y-125862000D03*
%TO.P,U1,15,PB1*%
%TO.N,Yellow*%
X238389000Y-125862000D03*
%TO.P,U1,16,PB2*%
%TO.N,Walk_Light*%
X238389000Y-123322000D03*
%TO.P,U1,17,PB3*%
%TO.N,MCU_MOSI*%
X238389000Y-120782000D03*
%TO.P,U1,18,PB4*%
%TO.N,MCU_MISO*%
X238389000Y-118242000D03*
%TO.P,U1,19,PB5*%
%TO.N,MCU_SCK*%
X238389000Y-115702000D03*
%TO.P,U1,20,AVCC*%
%TO.N,+5V*%
X238389000Y-113162000D03*
%TO.P,U1,21,AREF*%
%TO.N,Net-(C1-Pad1)*%
X238389000Y-110622000D03*
%TO.P,U1,22,GND*%
%TO.N,GND1*%
X238389000Y-108082000D03*
%TO.P,U1,23,PC0*%
%TO.N,Photoresistor*%
X238389000Y-105542000D03*
%TO.P,U1,24,PC1*%
%TO.N,Vo*%
X238389000Y-103002000D03*
%TO.P,U1,25,PC2*%
%TO.N,unconnected-(U1-Pad25)*%
X238389000Y-100462000D03*
%TO.P,U1,26,PC3*%
%TO.N,unconnected-(U1-Pad26)*%
X238389000Y-97922000D03*
%TO.P,U1,27,PC4*%
%TO.N,SDA*%
X238389000Y-95382000D03*
%TO.P,U1,28,PC5*%
%TO.N,SCL*%
X238389000Y-92842000D03*
%TD*%
D15*
%TO.P,PS1,8,N.C._2*%
%TO.N,unconnected-(PS1-Pad8)*%
X197612000Y-117317000D03*
%TO.P,PS1,7,-VOUT*%
%TO.N,GND1*%
X197612000Y-114817000D03*
%TO.P,PS1,6,+VOUT*%
%TO.N,+5V*%
X197612000Y-112317000D03*
%TO.P,PS1,5,N.C._1*%
%TO.N,unconnected-(PS1-Pad5)*%
X197612000Y-109817000D03*
%TO.P,PS1,3,R.C.*%
%TO.N,unconnected-(PS1-Pad3)*%
X197612000Y-104817000D03*
%TO.P,PS1,2,+VIN*%
%TO.N,+24V*%
X197612000Y-102317000D03*
%TO.P,PS1,1,-VIN*%
%TO.N,GND*%
X197612000Y-99817000D03*
%TD*%
D10*
%TO.P,J10,1,Pin_1*%
%TO.N,Green*%
X230759000Y-132075000D03*
D11*
%TO.P,J10,2,Pin_2*%
%TO.N,Red*%
X233299000Y-132075000D03*
%TO.P,J10,3,Pin_3*%
%TO.N,Yellow*%
X235839000Y-132075000D03*
%TO.P,J10,4,Pin_4*%
%TO.N,Walk_Light*%
X238379000Y-132075000D03*
%TD*%
%TO.P,J9,3,Pin_3*%
%TO.N,Solar*%
X227457000Y-93086000D03*
%TO.P,J9,2,Pin_2*%
%TO.N,Grid*%
X224917000Y-93086000D03*
D10*
%TO.P,J9,1,Pin_1*%
%TO.N,Resistor*%
X222377000Y-93086000D03*
%TD*%
D16*
%TO.P,J8,1,MISO*%
%TO.N,MCU_MISO*%
X214757000Y-94991000D03*
D17*
%TO.P,J8,2,VCC*%
%TO.N,Net-(D1-Pad2)*%
X214757000Y-97531000D03*
%TO.P,J8,3,SCK*%
%TO.N,MCU_SCK*%
X212217000Y-94991000D03*
%TO.P,J8,4,MOSI*%
%TO.N,MCU_MOSI*%
X212217000Y-97531000D03*
%TO.P,J8,5,~{RST}*%
%TO.N,MCU_N_RESET*%
X209677000Y-94991000D03*
%TO.P,J8,6,GND*%
%TO.N,GND1*%
X209677000Y-97531000D03*
%TD*%
D10*
%TO.P,J7,1,Pin_1*%
%TO.N,+5V*%
X194198000Y-129154000D03*
D11*
%TO.P,J7,2,Pin_2*%
%TO.N,GND1*%
X196738000Y-129154000D03*
%TO.P,J7,3,Pin_3*%
X199278000Y-129154000D03*
%TD*%
%TO.P,J6,2,Pin_2*%
%TO.N,GND*%
X192659000Y-93213000D03*
D10*
%TO.P,J6,1,Pin_1*%
%TO.N,+24V*%
X195199000Y-93213000D03*
%TD*%
%TO.P,J5,1,Pin_1*%
%TO.N,+5V*%
X248412000Y-109474000D03*
D11*
%TO.P,J5,2,Pin_2*%
%TO.N,Photoresistor*%
X248412000Y-106934000D03*
%TD*%
%TO.P,J4,2,Pin_2*%
%TO.N,SDA*%
X241808000Y-95621000D03*
D10*
%TO.P,J4,1,Pin_1*%
%TO.N,SCL*%
X241808000Y-93081000D03*
%TD*%
%TO.P,J3,1,Pin_1*%
%TO.N,+5V*%
X248285000Y-101707000D03*
D11*
%TO.P,J3,2,Pin_2*%
%TO.N,Vo*%
X248285000Y-99167000D03*
%TO.P,J3,3,Pin_3*%
%TO.N,GND1*%
X248285000Y-96627000D03*
%TD*%
D10*
%TO.P,J2,1,Pin_1*%
%TO.N,+5V*%
X254889000Y-100569000D03*
D11*
%TO.P,J2,2,Pin_2*%
%TO.N,SDA*%
X254889000Y-98029000D03*
%TO.P,J2,3,Pin_3*%
%TO.N,GND1*%
X254889000Y-95489000D03*
%TO.P,J2,4,Pin_4*%
%TO.N,SCL*%
X254889000Y-92949000D03*
%TD*%
D18*
%TO.N,GND1*%
X215900000Y-110236000D03*
X242570000Y-112014000D03*
X242443000Y-109601000D03*
X243078000Y-107950000D03*
X228346000Y-118364000D03*
X228346000Y-110109000D03*
X226568000Y-107569000D03*
X208788000Y-109982000D03*
X204089000Y-116332000D03*
%TO.N,MCU_N_RESET*%
X219334714Y-90388500D03*
X214503000Y-90170000D03*
X229199500Y-98806000D03*
X224578609Y-104231500D03*
%TD*%
D19*
%TO.N,MCU_N_RESET*%
X219116214Y-90170000D02*
X219334714Y-90388500D01*
X214503000Y-90170000D02*
X219116214Y-90170000D01*
X229108000Y-98806000D02*
X229199500Y-98806000D01*
X229108000Y-99702109D02*
X229108000Y-98806000D01*
X224578609Y-104231500D02*
X229108000Y-99702109D01*
%TD*%
%TA.AperFunction,Conductor*%
%TO.N,GND1*%
G36*
X192413491Y-88025646D02*
G01*
X192430596Y-88034703D01*
X192430606Y-88034708D01*
X192434392Y-88036712D01*
X192704373Y-88135511D01*
X192985264Y-88196755D01*
X193013841Y-88199004D01*
X193208282Y-88214307D01*
X193208291Y-88214307D01*
X193210739Y-88214500D01*
X193366271Y-88214500D01*
X193368407Y-88214354D01*
X193368418Y-88214354D01*
X193576548Y-88200165D01*
X193576554Y-88200164D01*
X193580825Y-88199873D01*
X193585020Y-88199004D01*
X193585022Y-88199004D01*
X193721584Y-88170723D01*
X193862342Y-88141574D01*
X194133343Y-88045607D01*
X194137152Y-88043641D01*
X194137159Y-88043638D01*
X194173204Y-88025034D01*
X194230993Y-88011000D01*
X255854532Y-88011000D01*
X255913491Y-88025646D01*
X255930596Y-88034703D01*
X255930606Y-88034708D01*
X255934392Y-88036712D01*
X256204373Y-88135511D01*
X256485264Y-88196755D01*
X256513841Y-88199004D01*
X256708282Y-88214307D01*
X256708291Y-88214307D01*
X256710739Y-88214500D01*
X256866271Y-88214500D01*
X256868407Y-88214354D01*
X256868418Y-88214354D01*
X257076548Y-88200165D01*
X257076554Y-88200164D01*
X257080825Y-88199873D01*
X257085020Y-88199004D01*
X257085022Y-88199004D01*
X257221584Y-88170723D01*
X257362342Y-88141574D01*
X257633343Y-88045607D01*
X257637152Y-88043641D01*
X257637159Y-88043638D01*
X257673204Y-88025034D01*
X257730993Y-88011000D01*
X259589000Y-88011000D01*
X259657121Y-88031002D01*
X259703614Y-88084658D01*
X259715000Y-88137000D01*
X259715000Y-139828000D01*
X259694998Y-139896121D01*
X259641342Y-139942614D01*
X259589000Y-139954000D01*
X257733468Y-139954000D01*
X257674509Y-139939354D01*
X257657404Y-139930297D01*
X257657394Y-139930292D01*
X257653608Y-139928288D01*
X257383627Y-139829489D01*
X257102736Y-139768245D01*
X257071685Y-139765801D01*
X256879718Y-139750693D01*
X256879709Y-139750693D01*
X256877261Y-139750500D01*
X256721729Y-139750500D01*
X256719593Y-139750646D01*
X256719582Y-139750646D01*
X256511452Y-139764835D01*
X256511446Y-139764836D01*
X256507175Y-139765127D01*
X256502980Y-139765996D01*
X256502978Y-139765996D01*
X256366416Y-139794277D01*
X256225658Y-139823426D01*
X255954657Y-139919393D01*
X255950848Y-139921359D01*
X255950841Y-139921362D01*
X255914796Y-139939966D01*
X255857007Y-139954000D01*
X194233468Y-139954000D01*
X194174509Y-139939354D01*
X194157404Y-139930297D01*
X194157394Y-139930292D01*
X194153608Y-139928288D01*
X193883627Y-139829489D01*
X193602736Y-139768245D01*
X193571685Y-139765801D01*
X193379718Y-139750693D01*
X193379709Y-139750693D01*
X193377261Y-139750500D01*
X193221729Y-139750500D01*
X193219593Y-139750646D01*
X193219582Y-139750646D01*
X193011452Y-139764835D01*
X193011446Y-139764836D01*
X193007175Y-139765127D01*
X193002980Y-139765996D01*
X193002978Y-139765996D01*
X192866416Y-139794277D01*
X192725658Y-139823426D01*
X192454657Y-139919393D01*
X192450848Y-139921359D01*
X192450841Y-139921362D01*
X192414796Y-139939966D01*
X192357007Y-139954000D01*
X190372309Y-139954000D01*
X190304188Y-139933998D01*
X190257695Y-139880342D01*
X190246309Y-139827692D01*
X190265358Y-132036695D01*
X222284251Y-132036695D01*
X222284548Y-132041848D01*
X222284548Y-132041851D01*
X222290011Y-132136590D01*
X222297110Y-132259715D01*
X222298247Y-132264761D01*
X222298248Y-132264767D01*
X222318119Y-132352939D01*
X222346222Y-132477639D01*
X222430266Y-132684616D01*
X222546987Y-132875088D01*
X222693250Y-133043938D01*
X222865126Y-133186632D01*
X223058000Y-133299338D01*
X223062825Y-133301180D01*
X223062826Y-133301181D01*
X223075920Y-133306181D01*
X223266692Y-133379030D01*
X223271760Y-133380061D01*
X223271763Y-133380062D01*
X223379017Y-133401883D01*
X223485597Y-133423567D01*
X223490772Y-133423757D01*
X223490774Y-133423757D01*
X223703673Y-133431564D01*
X223703677Y-133431564D01*
X223708837Y-133431753D01*
X223713957Y-133431097D01*
X223713959Y-133431097D01*
X223925288Y-133404025D01*
X223925289Y-133404025D01*
X223930416Y-133403368D01*
X223991433Y-133385062D01*
X224139429Y-133340661D01*
X224139434Y-133340659D01*
X224144384Y-133339174D01*
X224344994Y-133240896D01*
X224526860Y-133111173D01*
X224665382Y-132973134D01*
X229400500Y-132973134D01*
X229407255Y-133035316D01*
X229458385Y-133171705D01*
X229545739Y-133288261D01*
X229662295Y-133375615D01*
X229798684Y-133426745D01*
X229860866Y-133433500D01*
X231657134Y-133433500D01*
X231719316Y-133426745D01*
X231855705Y-133375615D01*
X231972261Y-133288261D01*
X232059615Y-133171705D01*
X232081799Y-133112529D01*
X232103598Y-133054382D01*
X232146240Y-132997618D01*
X232212802Y-132972918D01*
X232282150Y-132988126D01*
X232316817Y-133016114D01*
X232345250Y-133048938D01*
X232420213Y-133111173D01*
X232507123Y-133183327D01*
X232517126Y-133191632D01*
X232710000Y-133304338D01*
X232918692Y-133384030D01*
X232923760Y-133385061D01*
X232923763Y-133385062D01*
X233016970Y-133404025D01*
X233137597Y-133428567D01*
X233142772Y-133428757D01*
X233142774Y-133428757D01*
X233355673Y-133436564D01*
X233355677Y-133436564D01*
X233360837Y-133436753D01*
X233365957Y-133436097D01*
X233365959Y-133436097D01*
X233577288Y-133409025D01*
X233577289Y-133409025D01*
X233582416Y-133408368D01*
X233599082Y-133403368D01*
X233791429Y-133345661D01*
X233791434Y-133345659D01*
X233796384Y-133344174D01*
X233996994Y-133245896D01*
X234178860Y-133116173D01*
X234337096Y-132958489D01*
X234394222Y-132878990D01*
X234467453Y-132777077D01*
X234468776Y-132778028D01*
X234515645Y-132734857D01*
X234585580Y-132722625D01*
X234651026Y-132750144D01*
X234678875Y-132781994D01*
X234738987Y-132880088D01*
X234885250Y-133048938D01*
X234960213Y-133111173D01*
X235047123Y-133183327D01*
X235057126Y-133191632D01*
X235250000Y-133304338D01*
X235458692Y-133384030D01*
X235463760Y-133385061D01*
X235463763Y-133385062D01*
X235556970Y-133404025D01*
X235677597Y-133428567D01*
X235682772Y-133428757D01*
X235682774Y-133428757D01*
X235895673Y-133436564D01*
X235895677Y-133436564D01*
X235900837Y-133436753D01*
X235905957Y-133436097D01*
X235905959Y-133436097D01*
X236117288Y-133409025D01*
X236117289Y-133409025D01*
X236122416Y-133408368D01*
X236139082Y-133403368D01*
X236331429Y-133345661D01*
X236331434Y-133345659D01*
X236336384Y-133344174D01*
X236536994Y-133245896D01*
X236718860Y-133116173D01*
X236877096Y-132958489D01*
X236934222Y-132878990D01*
X237007453Y-132777077D01*
X237008776Y-132778028D01*
X237055645Y-132734857D01*
X237125580Y-132722625D01*
X237191026Y-132750144D01*
X237218875Y-132781994D01*
X237278987Y-132880088D01*
X237425250Y-133048938D01*
X237500213Y-133111173D01*
X237587123Y-133183327D01*
X237597126Y-133191632D01*
X237790000Y-133304338D01*
X237998692Y-133384030D01*
X238003760Y-133385061D01*
X238003763Y-133385062D01*
X238096970Y-133404025D01*
X238217597Y-133428567D01*
X238222772Y-133428757D01*
X238222774Y-133428757D01*
X238435673Y-133436564D01*
X238435677Y-133436564D01*
X238440837Y-133436753D01*
X238445957Y-133436097D01*
X238445959Y-133436097D01*
X238657288Y-133409025D01*
X238657289Y-133409025D01*
X238662416Y-133408368D01*
X238679082Y-133403368D01*
X238871429Y-133345661D01*
X238871434Y-133345659D01*
X238876384Y-133344174D01*
X239076994Y-133245896D01*
X239258860Y-133116173D01*
X239417096Y-132958489D01*
X239474222Y-132878990D01*
X239544435Y-132781277D01*
X239547453Y-132777077D01*
X239568320Y-132734857D01*
X239644136Y-132581453D01*
X239644137Y-132581451D01*
X239646430Y-132576811D01*
X239711370Y-132363069D01*
X239740529Y-132141590D01*
X239742156Y-132075000D01*
X239723852Y-131852361D01*
X239669431Y-131635702D01*
X239580354Y-131430840D01*
X239459014Y-131243277D01*
X239308670Y-131078051D01*
X239304619Y-131074852D01*
X239304615Y-131074848D01*
X239137414Y-130942800D01*
X239137410Y-130942798D01*
X239133359Y-130939598D01*
X239124302Y-130934598D01*
X239081136Y-130910769D01*
X238937789Y-130831638D01*
X238932920Y-130829914D01*
X238932916Y-130829912D01*
X238732087Y-130758795D01*
X238732083Y-130758794D01*
X238727212Y-130757069D01*
X238722119Y-130756162D01*
X238722116Y-130756161D01*
X238512373Y-130718800D01*
X238512367Y-130718799D01*
X238507284Y-130717894D01*
X238433452Y-130716992D01*
X238289081Y-130715228D01*
X238289079Y-130715228D01*
X238283911Y-130715165D01*
X238063091Y-130748955D01*
X237850756Y-130818357D01*
X237652607Y-130921507D01*
X237648474Y-130924610D01*
X237648471Y-130924612D01*
X237531226Y-131012642D01*
X237473965Y-131055635D01*
X237470393Y-131059373D01*
X237362729Y-131172037D01*
X237319629Y-131217138D01*
X237212201Y-131374621D01*
X237157293Y-131419621D01*
X237086768Y-131427792D01*
X237023021Y-131396538D01*
X237002324Y-131372054D01*
X236921822Y-131247617D01*
X236921820Y-131247614D01*
X236919014Y-131243277D01*
X236768670Y-131078051D01*
X236764619Y-131074852D01*
X236764615Y-131074848D01*
X236597414Y-130942800D01*
X236597410Y-130942798D01*
X236593359Y-130939598D01*
X236584302Y-130934598D01*
X236541136Y-130910769D01*
X236397789Y-130831638D01*
X236392920Y-130829914D01*
X236392916Y-130829912D01*
X236192087Y-130758795D01*
X236192083Y-130758794D01*
X236187212Y-130757069D01*
X236182119Y-130756162D01*
X236182116Y-130756161D01*
X235972373Y-130718800D01*
X235972367Y-130718799D01*
X235967284Y-130717894D01*
X235893452Y-130716992D01*
X235749081Y-130715228D01*
X235749079Y-130715228D01*
X235743911Y-130715165D01*
X235523091Y-130748955D01*
X235310756Y-130818357D01*
X235112607Y-130921507D01*
X235108474Y-130924610D01*
X235108471Y-130924612D01*
X234991226Y-131012642D01*
X234933965Y-131055635D01*
X234930393Y-131059373D01*
X234822729Y-131172037D01*
X234779629Y-131217138D01*
X234672201Y-131374621D01*
X234617293Y-131419621D01*
X234546768Y-131427792D01*
X234483021Y-131396538D01*
X234462324Y-131372054D01*
X234381822Y-131247617D01*
X234381820Y-131247614D01*
X234379014Y-131243277D01*
X234228670Y-131078051D01*
X234224619Y-131074852D01*
X234224615Y-131074848D01*
X234057414Y-130942800D01*
X234057410Y-130942798D01*
X234053359Y-130939598D01*
X234044302Y-130934598D01*
X234001136Y-130910769D01*
X233857789Y-130831638D01*
X233852920Y-130829914D01*
X233852916Y-130829912D01*
X233652087Y-130758795D01*
X233652083Y-130758794D01*
X233647212Y-130757069D01*
X233642119Y-130756162D01*
X233642116Y-130756161D01*
X233432373Y-130718800D01*
X233432367Y-130718799D01*
X233427284Y-130717894D01*
X233353452Y-130716992D01*
X233209081Y-130715228D01*
X233209079Y-130715228D01*
X233203911Y-130715165D01*
X232983091Y-130748955D01*
X232770756Y-130818357D01*
X232572607Y-130921507D01*
X232568474Y-130924610D01*
X232568471Y-130924612D01*
X232451226Y-131012642D01*
X232393965Y-131055635D01*
X232337537Y-131114684D01*
X232313283Y-131140064D01*
X232251759Y-131175494D01*
X232180846Y-131172037D01*
X232123060Y-131130791D01*
X232104207Y-131097243D01*
X232062767Y-130986703D01*
X232059615Y-130978295D01*
X231972261Y-130861739D01*
X231855705Y-130774385D01*
X231719316Y-130723255D01*
X231657134Y-130716500D01*
X229860866Y-130716500D01*
X229798684Y-130723255D01*
X229662295Y-130774385D01*
X229545739Y-130861739D01*
X229458385Y-130978295D01*
X229407255Y-131114684D01*
X229400500Y-131176866D01*
X229400500Y-132973134D01*
X224665382Y-132973134D01*
X224685096Y-132953489D01*
X224744594Y-132870689D01*
X224812435Y-132776277D01*
X224815453Y-132772077D01*
X224914430Y-132571811D01*
X224979370Y-132358069D01*
X225008529Y-132136590D01*
X225010156Y-132070000D01*
X224991852Y-131847361D01*
X224937431Y-131630702D01*
X224848354Y-131425840D01*
X224808906Y-131364862D01*
X224729822Y-131242617D01*
X224729820Y-131242614D01*
X224727014Y-131238277D01*
X224707779Y-131217138D01*
X224579798Y-131076488D01*
X224548746Y-131012642D01*
X224557141Y-130942143D01*
X224602317Y-130887375D01*
X224628761Y-130873706D01*
X224735297Y-130833767D01*
X224743705Y-130830615D01*
X224860261Y-130743261D01*
X224947615Y-130626705D01*
X224998745Y-130490316D01*
X225005500Y-130428134D01*
X225005500Y-128631866D01*
X224998745Y-128569684D01*
X224947615Y-128433295D01*
X224860261Y-128316739D01*
X224743705Y-128229385D01*
X224607316Y-128178255D01*
X224545134Y-128171500D01*
X222748866Y-128171500D01*
X222686684Y-128178255D01*
X222550295Y-128229385D01*
X222433739Y-128316739D01*
X222346385Y-128433295D01*
X222295255Y-128569684D01*
X222288500Y-128631866D01*
X222288500Y-130428134D01*
X222295255Y-130490316D01*
X222346385Y-130626705D01*
X222433739Y-130743261D01*
X222550295Y-130830615D01*
X222558704Y-130833767D01*
X222558705Y-130833768D01*
X222667451Y-130874535D01*
X222724216Y-130917176D01*
X222748916Y-130983738D01*
X222733709Y-131053087D01*
X222714316Y-131079568D01*
X222587629Y-131212138D01*
X222461743Y-131396680D01*
X222367688Y-131599305D01*
X222307989Y-131814570D01*
X222284251Y-132036695D01*
X190265358Y-132036695D01*
X190270210Y-130052134D01*
X192839500Y-130052134D01*
X192846255Y-130114316D01*
X192897385Y-130250705D01*
X192984739Y-130367261D01*
X193101295Y-130454615D01*
X193237684Y-130505745D01*
X193299866Y-130512500D01*
X195096134Y-130512500D01*
X195158316Y-130505745D01*
X195294705Y-130454615D01*
X195411261Y-130367261D01*
X195498615Y-130250705D01*
X195542798Y-130132848D01*
X195585440Y-130076084D01*
X195652001Y-130051384D01*
X195721350Y-130066592D01*
X195756017Y-130094580D01*
X195781218Y-130123673D01*
X195788580Y-130130883D01*
X195952434Y-130266916D01*
X195960881Y-130272831D01*
X196144756Y-130380279D01*
X196154042Y-130384729D01*
X196353001Y-130460703D01*
X196362899Y-130463579D01*
X196466250Y-130484606D01*
X196480299Y-130483410D01*
X196484000Y-130473065D01*
X196484000Y-130472517D01*
X196992000Y-130472517D01*
X196996064Y-130486359D01*
X197009478Y-130488393D01*
X197016184Y-130487534D01*
X197026262Y-130485392D01*
X197230255Y-130424191D01*
X197239842Y-130420433D01*
X197431095Y-130326739D01*
X197439945Y-130321464D01*
X197613328Y-130197792D01*
X197621200Y-130191139D01*
X197772052Y-130040812D01*
X197778730Y-130032965D01*
X197906022Y-129855819D01*
X197907147Y-129856627D01*
X197954669Y-129812876D01*
X198024607Y-129800661D01*
X198090046Y-129828197D01*
X198117870Y-129860028D01*
X198175690Y-129954383D01*
X198181777Y-129962699D01*
X198321213Y-130123667D01*
X198328580Y-130130883D01*
X198492434Y-130266916D01*
X198500881Y-130272831D01*
X198684756Y-130380279D01*
X198694042Y-130384729D01*
X198893001Y-130460703D01*
X198902899Y-130463579D01*
X199006250Y-130484606D01*
X199020299Y-130483410D01*
X199024000Y-130473065D01*
X199024000Y-130472517D01*
X199532000Y-130472517D01*
X199536064Y-130486359D01*
X199549478Y-130488393D01*
X199556184Y-130487534D01*
X199566262Y-130485392D01*
X199770255Y-130424191D01*
X199779842Y-130420433D01*
X199971095Y-130326739D01*
X199979945Y-130321464D01*
X200153328Y-130197792D01*
X200161200Y-130191139D01*
X200312052Y-130040812D01*
X200318730Y-130032965D01*
X200443003Y-129860020D01*
X200448313Y-129851183D01*
X200542670Y-129660267D01*
X200546469Y-129650672D01*
X200608377Y-129446910D01*
X200610555Y-129436837D01*
X200611986Y-129425962D01*
X200609775Y-129411778D01*
X200596617Y-129408000D01*
X199550115Y-129408000D01*
X199534876Y-129412475D01*
X199533671Y-129413865D01*
X199532000Y-129421548D01*
X199532000Y-130472517D01*
X199024000Y-130472517D01*
X199024000Y-129426115D01*
X199019525Y-129410876D01*
X199018135Y-129409671D01*
X199010452Y-129408000D01*
X197010115Y-129408000D01*
X196994876Y-129412475D01*
X196993671Y-129413865D01*
X196992000Y-129421548D01*
X196992000Y-130472517D01*
X196484000Y-130472517D01*
X196484000Y-128881885D01*
X196992000Y-128881885D01*
X196996475Y-128897124D01*
X196997865Y-128898329D01*
X197005548Y-128900000D01*
X199005885Y-128900000D01*
X199021124Y-128895525D01*
X199022329Y-128894135D01*
X199024000Y-128886452D01*
X199024000Y-128881885D01*
X199532000Y-128881885D01*
X199536475Y-128897124D01*
X199537865Y-128898329D01*
X199545548Y-128900000D01*
X200596344Y-128900000D01*
X200609875Y-128896027D01*
X200611180Y-128886947D01*
X200569214Y-128719875D01*
X200565894Y-128710124D01*
X200480972Y-128514814D01*
X200476105Y-128505739D01*
X200360426Y-128326926D01*
X200354136Y-128318757D01*
X200210806Y-128161240D01*
X200203273Y-128154215D01*
X200036139Y-128022222D01*
X200027552Y-128016517D01*
X199841117Y-127913599D01*
X199831705Y-127909369D01*
X199630959Y-127838280D01*
X199620988Y-127835646D01*
X199549837Y-127822972D01*
X199536540Y-127824432D01*
X199532000Y-127838989D01*
X199532000Y-128881885D01*
X199024000Y-128881885D01*
X199024000Y-127837102D01*
X199020082Y-127823758D01*
X199005806Y-127821771D01*
X198967324Y-127827660D01*
X198957288Y-127830051D01*
X198754868Y-127896212D01*
X198745359Y-127900209D01*
X198556463Y-127998542D01*
X198547738Y-128004036D01*
X198377433Y-128131905D01*
X198369726Y-128138748D01*
X198222590Y-128292717D01*
X198216104Y-128300727D01*
X198111193Y-128454521D01*
X198056282Y-128499524D01*
X197985757Y-128507695D01*
X197922010Y-128476441D01*
X197901313Y-128451957D01*
X197820427Y-128326926D01*
X197814136Y-128318757D01*
X197670806Y-128161240D01*
X197663273Y-128154215D01*
X197496139Y-128022222D01*
X197487552Y-128016517D01*
X197301117Y-127913599D01*
X197291705Y-127909369D01*
X197090959Y-127838280D01*
X197080988Y-127835646D01*
X197009837Y-127822972D01*
X196996540Y-127824432D01*
X196992000Y-127838989D01*
X196992000Y-128881885D01*
X196484000Y-128881885D01*
X196484000Y-127837102D01*
X196480082Y-127823758D01*
X196465806Y-127821771D01*
X196427324Y-127827660D01*
X196417288Y-127830051D01*
X196214868Y-127896212D01*
X196205359Y-127900209D01*
X196016463Y-127998542D01*
X196007738Y-128004036D01*
X195837433Y-128131905D01*
X195829726Y-128138748D01*
X195752478Y-128219584D01*
X195690954Y-128255014D01*
X195620042Y-128251557D01*
X195562255Y-128210311D01*
X195543402Y-128176763D01*
X195501767Y-128065703D01*
X195498615Y-128057295D01*
X195411261Y-127940739D01*
X195294705Y-127853385D01*
X195158316Y-127802255D01*
X195096134Y-127795500D01*
X193299866Y-127795500D01*
X193237684Y-127802255D01*
X193101295Y-127853385D01*
X192984739Y-127940739D01*
X192897385Y-128057295D01*
X192846255Y-128193684D01*
X192839500Y-128255866D01*
X192839500Y-130052134D01*
X190270210Y-130052134D01*
X190280455Y-125862000D01*
X229455502Y-125862000D01*
X229475457Y-126090087D01*
X229534716Y-126311243D01*
X229537039Y-126316224D01*
X229537039Y-126316225D01*
X229629151Y-126513762D01*
X229629154Y-126513767D01*
X229631477Y-126518749D01*
X229762802Y-126706300D01*
X229924700Y-126868198D01*
X229929208Y-126871355D01*
X229929211Y-126871357D01*
X230007389Y-126926098D01*
X230112251Y-126999523D01*
X230117233Y-127001846D01*
X230117238Y-127001849D01*
X230314775Y-127093961D01*
X230319757Y-127096284D01*
X230325065Y-127097706D01*
X230325067Y-127097707D01*
X230535598Y-127154119D01*
X230535600Y-127154119D01*
X230540913Y-127155543D01*
X230769000Y-127175498D01*
X230997087Y-127155543D01*
X231002400Y-127154119D01*
X231002402Y-127154119D01*
X231212933Y-127097707D01*
X231212935Y-127097706D01*
X231218243Y-127096284D01*
X231223225Y-127093961D01*
X231420762Y-127001849D01*
X231420767Y-127001846D01*
X231425749Y-126999523D01*
X231530611Y-126926098D01*
X231608789Y-126871357D01*
X231608792Y-126871355D01*
X231613300Y-126868198D01*
X231775198Y-126706300D01*
X231906523Y-126518749D01*
X231908846Y-126513767D01*
X231908849Y-126513762D01*
X232000961Y-126316225D01*
X232000961Y-126316224D01*
X232003284Y-126311243D01*
X232062543Y-126090087D01*
X232082498Y-125862000D01*
X237075502Y-125862000D01*
X237095457Y-126090087D01*
X237154716Y-126311243D01*
X237157039Y-126316224D01*
X237157039Y-126316225D01*
X237249151Y-126513762D01*
X237249154Y-126513767D01*
X237251477Y-126518749D01*
X237382802Y-126706300D01*
X237544700Y-126868198D01*
X237549208Y-126871355D01*
X237549211Y-126871357D01*
X237627389Y-126926098D01*
X237732251Y-126999523D01*
X237737233Y-127001846D01*
X237737238Y-127001849D01*
X237934775Y-127093961D01*
X237939757Y-127096284D01*
X237945065Y-127097706D01*
X237945067Y-127097707D01*
X238155598Y-127154119D01*
X238155600Y-127154119D01*
X238160913Y-127155543D01*
X238389000Y-127175498D01*
X238617087Y-127155543D01*
X238622400Y-127154119D01*
X238622402Y-127154119D01*
X238832933Y-127097707D01*
X238832935Y-127097706D01*
X238838243Y-127096284D01*
X238843225Y-127093961D01*
X239040762Y-127001849D01*
X239040767Y-127001846D01*
X239045749Y-126999523D01*
X239150611Y-126926098D01*
X239228789Y-126871357D01*
X239228792Y-126871355D01*
X239233300Y-126868198D01*
X239395198Y-126706300D01*
X239526523Y-126518749D01*
X239528846Y-126513767D01*
X239528849Y-126513762D01*
X239620961Y-126316225D01*
X239620961Y-126316224D01*
X239623284Y-126311243D01*
X239682543Y-126090087D01*
X239702498Y-125862000D01*
X239682543Y-125633913D01*
X239623284Y-125412757D01*
X239620961Y-125407775D01*
X239528849Y-125210238D01*
X239528846Y-125210233D01*
X239526523Y-125205251D01*
X239395198Y-125017700D01*
X239233300Y-124855802D01*
X239228792Y-124852645D01*
X239228789Y-124852643D01*
X239150611Y-124797902D01*
X239045749Y-124724477D01*
X239040767Y-124722154D01*
X239040762Y-124722151D01*
X239006543Y-124706195D01*
X238953258Y-124659278D01*
X238933797Y-124591001D01*
X238954339Y-124523041D01*
X239006543Y-124477805D01*
X239040762Y-124461849D01*
X239040767Y-124461846D01*
X239045749Y-124459523D01*
X239150611Y-124386098D01*
X239228789Y-124331357D01*
X239228792Y-124331355D01*
X239233300Y-124328198D01*
X239395198Y-124166300D01*
X239526523Y-123978749D01*
X239528846Y-123973767D01*
X239528849Y-123973762D01*
X239620961Y-123776225D01*
X239620961Y-123776224D01*
X239623284Y-123771243D01*
X239682543Y-123550087D01*
X239702498Y-123322000D01*
X239682543Y-123093913D01*
X239623284Y-122872757D01*
X239620961Y-122867775D01*
X239528849Y-122670238D01*
X239528846Y-122670233D01*
X239526523Y-122665251D01*
X239395198Y-122477700D01*
X239233300Y-122315802D01*
X239228792Y-122312645D01*
X239228789Y-122312643D01*
X239150611Y-122257902D01*
X239045749Y-122184477D01*
X239040767Y-122182154D01*
X239040762Y-122182151D01*
X239006543Y-122166195D01*
X238953258Y-122119278D01*
X238933797Y-122051001D01*
X238954339Y-121983041D01*
X239006543Y-121937805D01*
X239040762Y-121921849D01*
X239040767Y-121921846D01*
X239045749Y-121919523D01*
X239150611Y-121846098D01*
X239228789Y-121791357D01*
X239228792Y-121791355D01*
X239233300Y-121788198D01*
X239395198Y-121626300D01*
X239526523Y-121438749D01*
X239528846Y-121433767D01*
X239528849Y-121433762D01*
X239620961Y-121236225D01*
X239620961Y-121236224D01*
X239623284Y-121231243D01*
X239682543Y-121010087D01*
X239702498Y-120782000D01*
X239682543Y-120553913D01*
X239623284Y-120332757D01*
X239620961Y-120327775D01*
X239528849Y-120130238D01*
X239528846Y-120130233D01*
X239526523Y-120125251D01*
X239395198Y-119937700D01*
X239233300Y-119775802D01*
X239228792Y-119772645D01*
X239228789Y-119772643D01*
X239150611Y-119717902D01*
X239045749Y-119644477D01*
X239040767Y-119642154D01*
X239040762Y-119642151D01*
X239006543Y-119626195D01*
X238953258Y-119579278D01*
X238933797Y-119511001D01*
X238954339Y-119443041D01*
X239006543Y-119397805D01*
X239040762Y-119381849D01*
X239040767Y-119381846D01*
X239045749Y-119379523D01*
X239150611Y-119306098D01*
X239228789Y-119251357D01*
X239228792Y-119251355D01*
X239233300Y-119248198D01*
X239395198Y-119086300D01*
X239526523Y-118898749D01*
X239528846Y-118893767D01*
X239528849Y-118893762D01*
X239620961Y-118696225D01*
X239620961Y-118696224D01*
X239623284Y-118691243D01*
X239643741Y-118614899D01*
X239681119Y-118475402D01*
X239681119Y-118475400D01*
X239682543Y-118470087D01*
X239702498Y-118242000D01*
X239682543Y-118013913D01*
X239667046Y-117956076D01*
X239624707Y-117798067D01*
X239624706Y-117798065D01*
X239623284Y-117792757D01*
X239597701Y-117737894D01*
X239528849Y-117590238D01*
X239528846Y-117590233D01*
X239526523Y-117585251D01*
X239395198Y-117397700D01*
X239233300Y-117235802D01*
X239228792Y-117232645D01*
X239228789Y-117232643D01*
X239150611Y-117177902D01*
X239045749Y-117104477D01*
X239040767Y-117102154D01*
X239040762Y-117102151D01*
X239006543Y-117086195D01*
X238953258Y-117039278D01*
X238933797Y-116971001D01*
X238954339Y-116903041D01*
X239006543Y-116857805D01*
X239040762Y-116841849D01*
X239040767Y-116841846D01*
X239045749Y-116839523D01*
X239150611Y-116766098D01*
X239228789Y-116711357D01*
X239228792Y-116711355D01*
X239233300Y-116708198D01*
X239395198Y-116546300D01*
X239406129Y-116530690D01*
X239474461Y-116433101D01*
X239526523Y-116358749D01*
X239528846Y-116353767D01*
X239528849Y-116353762D01*
X239620961Y-116156225D01*
X239620961Y-116156224D01*
X239623284Y-116151243D01*
X239633746Y-116112201D01*
X239681119Y-115935402D01*
X239681119Y-115935400D01*
X239682543Y-115930087D01*
X239702498Y-115702000D01*
X239682543Y-115473913D01*
X239674826Y-115445114D01*
X239624707Y-115258067D01*
X239624706Y-115258065D01*
X239623284Y-115252757D01*
X239590014Y-115181408D01*
X239528849Y-115050238D01*
X239528846Y-115050233D01*
X239526523Y-115045251D01*
X239412571Y-114882511D01*
X239398357Y-114862211D01*
X239398355Y-114862208D01*
X239395198Y-114857700D01*
X239233300Y-114695802D01*
X239228792Y-114692645D01*
X239228789Y-114692643D01*
X239090935Y-114596117D01*
X239045749Y-114564477D01*
X239040767Y-114562154D01*
X239040762Y-114562151D01*
X239006543Y-114546195D01*
X238953258Y-114499278D01*
X238933797Y-114431001D01*
X238954339Y-114363041D01*
X239006543Y-114317805D01*
X239040762Y-114301849D01*
X239040767Y-114301846D01*
X239045749Y-114299523D01*
X239206061Y-114187271D01*
X239228789Y-114171357D01*
X239228792Y-114171355D01*
X239233300Y-114168198D01*
X239395198Y-114006300D01*
X239526523Y-113818749D01*
X239528846Y-113813767D01*
X239528849Y-113813762D01*
X239620961Y-113616225D01*
X239620961Y-113616224D01*
X239623284Y-113611243D01*
X239630856Y-113582986D01*
X239681119Y-113395402D01*
X239681119Y-113395400D01*
X239682543Y-113390087D01*
X239702498Y-113162000D01*
X239682543Y-112933913D01*
X239623284Y-112712757D01*
X239620121Y-112705974D01*
X239528849Y-112510238D01*
X239528846Y-112510233D01*
X239526523Y-112505251D01*
X239453098Y-112400389D01*
X239398357Y-112322211D01*
X239398355Y-112322208D01*
X239395198Y-112317700D01*
X239233300Y-112155802D01*
X239228792Y-112152645D01*
X239228789Y-112152643D01*
X239104651Y-112065721D01*
X239045749Y-112024477D01*
X239040767Y-112022154D01*
X239040762Y-112022151D01*
X239006543Y-112006195D01*
X238953258Y-111959278D01*
X238933797Y-111891001D01*
X238954339Y-111823041D01*
X239006543Y-111777805D01*
X239040762Y-111761849D01*
X239040767Y-111761846D01*
X239045749Y-111759523D01*
X239175486Y-111668680D01*
X239228789Y-111631357D01*
X239228792Y-111631355D01*
X239233300Y-111628198D01*
X239395198Y-111466300D01*
X239402791Y-111455457D01*
X239466467Y-111364518D01*
X239526523Y-111278749D01*
X239528846Y-111273767D01*
X239528849Y-111273762D01*
X239620961Y-111076225D01*
X239620961Y-111076224D01*
X239623284Y-111071243D01*
X239643065Y-110997422D01*
X239681119Y-110855402D01*
X239681119Y-110855400D01*
X239682543Y-110850087D01*
X239702498Y-110622000D01*
X239682543Y-110393913D01*
X239623284Y-110172757D01*
X239586066Y-110092942D01*
X239528849Y-109970238D01*
X239528846Y-109970233D01*
X239526523Y-109965251D01*
X239405088Y-109791824D01*
X239398357Y-109782211D01*
X239398355Y-109782208D01*
X239395198Y-109777700D01*
X239233300Y-109615802D01*
X239228792Y-109612645D01*
X239228789Y-109612643D01*
X239150611Y-109557902D01*
X239045749Y-109484477D01*
X239040767Y-109482154D01*
X239040762Y-109482151D01*
X239005951Y-109465919D01*
X238952666Y-109419002D01*
X238933205Y-109350725D01*
X238953747Y-109282765D01*
X239005951Y-109237529D01*
X239040511Y-109221414D01*
X239050007Y-109215931D01*
X239228467Y-109090972D01*
X239236875Y-109083916D01*
X239390916Y-108929875D01*
X239397972Y-108921467D01*
X239522931Y-108743007D01*
X239528414Y-108733511D01*
X239620490Y-108536053D01*
X239624236Y-108525761D01*
X239670394Y-108353497D01*
X239670058Y-108339401D01*
X239662116Y-108336000D01*
X237121033Y-108336000D01*
X237107502Y-108339973D01*
X237106273Y-108348522D01*
X237153764Y-108525761D01*
X237157510Y-108536053D01*
X237249586Y-108733511D01*
X237255069Y-108743007D01*
X237380028Y-108921467D01*
X237387084Y-108929875D01*
X237541125Y-109083916D01*
X237549533Y-109090972D01*
X237727993Y-109215931D01*
X237737489Y-109221414D01*
X237772049Y-109237529D01*
X237825334Y-109284446D01*
X237844795Y-109352723D01*
X237824253Y-109420683D01*
X237772049Y-109465919D01*
X237737238Y-109482151D01*
X237737233Y-109482154D01*
X237732251Y-109484477D01*
X237627389Y-109557902D01*
X237549211Y-109612643D01*
X237549208Y-109612645D01*
X237544700Y-109615802D01*
X237382802Y-109777700D01*
X237379645Y-109782208D01*
X237379643Y-109782211D01*
X237372912Y-109791824D01*
X237251477Y-109965251D01*
X237249154Y-109970233D01*
X237249151Y-109970238D01*
X237191934Y-110092942D01*
X237154716Y-110172757D01*
X237095457Y-110393913D01*
X237075502Y-110622000D01*
X237095457Y-110850087D01*
X237096881Y-110855400D01*
X237096881Y-110855402D01*
X237134936Y-110997422D01*
X237154716Y-111071243D01*
X237157039Y-111076224D01*
X237157039Y-111076225D01*
X237249151Y-111273762D01*
X237249154Y-111273767D01*
X237251477Y-111278749D01*
X237311533Y-111364518D01*
X237375210Y-111455457D01*
X237382802Y-111466300D01*
X237544700Y-111628198D01*
X237549208Y-111631355D01*
X237549211Y-111631357D01*
X237602514Y-111668680D01*
X237732251Y-111759523D01*
X237737233Y-111761846D01*
X237737238Y-111761849D01*
X237771457Y-111777805D01*
X237824742Y-111824722D01*
X237844203Y-111892999D01*
X237823661Y-111960959D01*
X237771457Y-112006195D01*
X237737238Y-112022151D01*
X237737233Y-112022154D01*
X237732251Y-112024477D01*
X237673349Y-112065721D01*
X237549211Y-112152643D01*
X237549208Y-112152645D01*
X237544700Y-112155802D01*
X237382802Y-112317700D01*
X237379645Y-112322208D01*
X237379643Y-112322211D01*
X237324902Y-112400389D01*
X237251477Y-112505251D01*
X237249154Y-112510233D01*
X237249151Y-112510238D01*
X237157879Y-112705974D01*
X237154716Y-112712757D01*
X237095457Y-112933913D01*
X237075502Y-113162000D01*
X237095457Y-113390087D01*
X237096881Y-113395400D01*
X237096881Y-113395402D01*
X237147145Y-113582986D01*
X237154716Y-113611243D01*
X237157039Y-113616224D01*
X237157039Y-113616225D01*
X237249151Y-113813762D01*
X237249154Y-113813767D01*
X237251477Y-113818749D01*
X237382802Y-114006300D01*
X237544700Y-114168198D01*
X237549208Y-114171355D01*
X237549211Y-114171357D01*
X237571939Y-114187271D01*
X237732251Y-114299523D01*
X237737233Y-114301846D01*
X237737238Y-114301849D01*
X237771457Y-114317805D01*
X237824742Y-114364722D01*
X237844203Y-114432999D01*
X237823661Y-114500959D01*
X237771457Y-114546195D01*
X237737238Y-114562151D01*
X237737233Y-114562154D01*
X237732251Y-114564477D01*
X237687065Y-114596117D01*
X237549211Y-114692643D01*
X237549208Y-114692645D01*
X237544700Y-114695802D01*
X237382802Y-114857700D01*
X237379645Y-114862208D01*
X237379643Y-114862211D01*
X237365429Y-114882511D01*
X237251477Y-115045251D01*
X237249154Y-115050233D01*
X237249151Y-115050238D01*
X237187986Y-115181408D01*
X237154716Y-115252757D01*
X237153294Y-115258065D01*
X237153293Y-115258067D01*
X237103174Y-115445114D01*
X237095457Y-115473913D01*
X237075502Y-115702000D01*
X237095457Y-115930087D01*
X237096881Y-115935400D01*
X237096881Y-115935402D01*
X237144255Y-116112201D01*
X237154716Y-116151243D01*
X237157039Y-116156224D01*
X237157039Y-116156225D01*
X237249151Y-116353762D01*
X237249154Y-116353767D01*
X237251477Y-116358749D01*
X237303539Y-116433101D01*
X237371872Y-116530690D01*
X237382802Y-116546300D01*
X237544700Y-116708198D01*
X237549208Y-116711355D01*
X237549211Y-116711357D01*
X237627389Y-116766098D01*
X237732251Y-116839523D01*
X237737233Y-116841846D01*
X237737238Y-116841849D01*
X237771457Y-116857805D01*
X237824742Y-116904722D01*
X237844203Y-116972999D01*
X237823661Y-117040959D01*
X237771457Y-117086195D01*
X237737238Y-117102151D01*
X237737233Y-117102154D01*
X237732251Y-117104477D01*
X237627389Y-117177902D01*
X237549211Y-117232643D01*
X237549208Y-117232645D01*
X237544700Y-117235802D01*
X237382802Y-117397700D01*
X237251477Y-117585251D01*
X237249154Y-117590233D01*
X237249151Y-117590238D01*
X237180299Y-117737894D01*
X237154716Y-117792757D01*
X237153294Y-117798065D01*
X237153293Y-117798067D01*
X237110954Y-117956076D01*
X237095457Y-118013913D01*
X237075502Y-118242000D01*
X237095457Y-118470087D01*
X237096881Y-118475400D01*
X237096881Y-118475402D01*
X237134260Y-118614899D01*
X237154716Y-118691243D01*
X237157039Y-118696224D01*
X237157039Y-118696225D01*
X237249151Y-118893762D01*
X237249154Y-118893767D01*
X237251477Y-118898749D01*
X237382802Y-119086300D01*
X237544700Y-119248198D01*
X237549208Y-119251355D01*
X237549211Y-119251357D01*
X237627389Y-119306098D01*
X237732251Y-119379523D01*
X237737233Y-119381846D01*
X237737238Y-119381849D01*
X237771457Y-119397805D01*
X237824742Y-119444722D01*
X237844203Y-119512999D01*
X237823661Y-119580959D01*
X237771457Y-119626195D01*
X237737238Y-119642151D01*
X237737233Y-119642154D01*
X237732251Y-119644477D01*
X237627389Y-119717902D01*
X237549211Y-119772643D01*
X237549208Y-119772645D01*
X237544700Y-119775802D01*
X237382802Y-119937700D01*
X237251477Y-120125251D01*
X237249154Y-120130233D01*
X237249151Y-120130238D01*
X237157039Y-120327775D01*
X237154716Y-120332757D01*
X237095457Y-120553913D01*
X237075502Y-120782000D01*
X237095457Y-121010087D01*
X237154716Y-121231243D01*
X237157039Y-121236224D01*
X237157039Y-121236225D01*
X237249151Y-121433762D01*
X237249154Y-121433767D01*
X237251477Y-121438749D01*
X237382802Y-121626300D01*
X237544700Y-121788198D01*
X237549208Y-121791355D01*
X237549211Y-121791357D01*
X237627389Y-121846098D01*
X237732251Y-121919523D01*
X237737233Y-121921846D01*
X237737238Y-121921849D01*
X237771457Y-121937805D01*
X237824742Y-121984722D01*
X237844203Y-122052999D01*
X237823661Y-122120959D01*
X237771457Y-122166195D01*
X237737238Y-122182151D01*
X237737233Y-122182154D01*
X237732251Y-122184477D01*
X237627389Y-122257902D01*
X237549211Y-122312643D01*
X237549208Y-122312645D01*
X237544700Y-122315802D01*
X237382802Y-122477700D01*
X237251477Y-122665251D01*
X237249154Y-122670233D01*
X237249151Y-122670238D01*
X237157039Y-122867775D01*
X237154716Y-122872757D01*
X237095457Y-123093913D01*
X237075502Y-123322000D01*
X237095457Y-123550087D01*
X237154716Y-123771243D01*
X237157039Y-123776224D01*
X237157039Y-123776225D01*
X237249151Y-123973762D01*
X237249154Y-123973767D01*
X237251477Y-123978749D01*
X237382802Y-124166300D01*
X237544700Y-124328198D01*
X237549208Y-124331355D01*
X237549211Y-124331357D01*
X237627389Y-124386098D01*
X237732251Y-124459523D01*
X237737233Y-124461846D01*
X237737238Y-124461849D01*
X237771457Y-124477805D01*
X237824742Y-124524722D01*
X237844203Y-124592999D01*
X237823661Y-124660959D01*
X237771457Y-124706195D01*
X237737238Y-124722151D01*
X237737233Y-124722154D01*
X237732251Y-124724477D01*
X237627389Y-124797902D01*
X237549211Y-124852643D01*
X237549208Y-124852645D01*
X237544700Y-124855802D01*
X237382802Y-125017700D01*
X237251477Y-125205251D01*
X237249154Y-125210233D01*
X237249151Y-125210238D01*
X237157039Y-125407775D01*
X237154716Y-125412757D01*
X237095457Y-125633913D01*
X237075502Y-125862000D01*
X232082498Y-125862000D01*
X232062543Y-125633913D01*
X232003284Y-125412757D01*
X232000961Y-125407775D01*
X231908849Y-125210238D01*
X231908846Y-125210233D01*
X231906523Y-125205251D01*
X231775198Y-125017700D01*
X231613300Y-124855802D01*
X231608792Y-124852645D01*
X231608789Y-124852643D01*
X231530611Y-124797902D01*
X231425749Y-124724477D01*
X231420767Y-124722154D01*
X231420762Y-124722151D01*
X231386543Y-124706195D01*
X231333258Y-124659278D01*
X231313797Y-124591001D01*
X231334339Y-124523041D01*
X231386543Y-124477805D01*
X231420762Y-124461849D01*
X231420767Y-124461846D01*
X231425749Y-124459523D01*
X231530611Y-124386098D01*
X231608789Y-124331357D01*
X231608792Y-124331355D01*
X231613300Y-124328198D01*
X231775198Y-124166300D01*
X231906523Y-123978749D01*
X231908846Y-123973767D01*
X231908849Y-123973762D01*
X232000961Y-123776225D01*
X232000961Y-123776224D01*
X232003284Y-123771243D01*
X232062543Y-123550087D01*
X232082498Y-123322000D01*
X232062543Y-123093913D01*
X232003284Y-122872757D01*
X232000961Y-122867775D01*
X231908849Y-122670238D01*
X231908846Y-122670233D01*
X231906523Y-122665251D01*
X231775198Y-122477700D01*
X231613300Y-122315802D01*
X231608792Y-122312645D01*
X231608789Y-122312643D01*
X231530611Y-122257902D01*
X231425749Y-122184477D01*
X231420767Y-122182154D01*
X231420762Y-122182151D01*
X231386543Y-122166195D01*
X231333258Y-122119278D01*
X231313797Y-122051001D01*
X231334339Y-121983041D01*
X231386543Y-121937805D01*
X231420762Y-121921849D01*
X231420767Y-121921846D01*
X231425749Y-121919523D01*
X231530611Y-121846098D01*
X231608789Y-121791357D01*
X231608792Y-121791355D01*
X231613300Y-121788198D01*
X231775198Y-121626300D01*
X231906523Y-121438749D01*
X231908846Y-121433767D01*
X231908849Y-121433762D01*
X232000961Y-121236225D01*
X232000961Y-121236224D01*
X232003284Y-121231243D01*
X232062543Y-121010087D01*
X232082498Y-120782000D01*
X232062543Y-120553913D01*
X232003284Y-120332757D01*
X232000961Y-120327775D01*
X231908849Y-120130238D01*
X231908846Y-120130233D01*
X231906523Y-120125251D01*
X231775198Y-119937700D01*
X231613300Y-119775802D01*
X231608792Y-119772645D01*
X231608789Y-119772643D01*
X231530611Y-119717902D01*
X231425749Y-119644477D01*
X231420767Y-119642154D01*
X231420762Y-119642151D01*
X231386543Y-119626195D01*
X231333258Y-119579278D01*
X231313797Y-119511001D01*
X231334339Y-119443041D01*
X231386543Y-119397805D01*
X231420762Y-119381849D01*
X231420767Y-119381846D01*
X231425749Y-119379523D01*
X231530611Y-119306098D01*
X231608789Y-119251357D01*
X231608792Y-119251355D01*
X231613300Y-119248198D01*
X231775198Y-119086300D01*
X231906523Y-118898749D01*
X231908846Y-118893767D01*
X231908849Y-118893762D01*
X232000961Y-118696225D01*
X232000961Y-118696224D01*
X232003284Y-118691243D01*
X232023741Y-118614899D01*
X232061119Y-118475402D01*
X232061119Y-118475400D01*
X232062543Y-118470087D01*
X232082498Y-118242000D01*
X232062543Y-118013913D01*
X232047046Y-117956076D01*
X232004707Y-117798067D01*
X232004706Y-117798065D01*
X232003284Y-117792757D01*
X231977701Y-117737894D01*
X231908849Y-117590238D01*
X231908846Y-117590233D01*
X231906523Y-117585251D01*
X231775198Y-117397700D01*
X231613300Y-117235802D01*
X231608792Y-117232645D01*
X231608789Y-117232643D01*
X231530611Y-117177902D01*
X231425749Y-117104477D01*
X231420767Y-117102154D01*
X231420762Y-117102151D01*
X231386543Y-117086195D01*
X231333258Y-117039278D01*
X231313797Y-116971001D01*
X231334339Y-116903041D01*
X231386543Y-116857805D01*
X231420762Y-116841849D01*
X231420767Y-116841846D01*
X231425749Y-116839523D01*
X231530611Y-116766098D01*
X231608789Y-116711357D01*
X231608792Y-116711355D01*
X231613300Y-116708198D01*
X231775198Y-116546300D01*
X231786129Y-116530690D01*
X231854461Y-116433101D01*
X231906523Y-116358749D01*
X231908846Y-116353767D01*
X231908849Y-116353762D01*
X232000961Y-116156225D01*
X232000961Y-116156224D01*
X232003284Y-116151243D01*
X232013746Y-116112201D01*
X232061119Y-115935402D01*
X232061119Y-115935400D01*
X232062543Y-115930087D01*
X232082498Y-115702000D01*
X232062543Y-115473913D01*
X232054826Y-115445114D01*
X232004707Y-115258067D01*
X232004706Y-115258065D01*
X232003284Y-115252757D01*
X231970014Y-115181408D01*
X231908849Y-115050238D01*
X231908846Y-115050233D01*
X231906523Y-115045251D01*
X231792571Y-114882511D01*
X231778357Y-114862211D01*
X231778355Y-114862208D01*
X231775198Y-114857700D01*
X231613300Y-114695802D01*
X231608792Y-114692645D01*
X231608789Y-114692643D01*
X231470935Y-114596117D01*
X231425749Y-114564477D01*
X231420767Y-114562154D01*
X231420762Y-114562151D01*
X231386543Y-114546195D01*
X231333258Y-114499278D01*
X231313797Y-114431001D01*
X231334339Y-114363041D01*
X231386543Y-114317805D01*
X231420762Y-114301849D01*
X231420767Y-114301846D01*
X231425749Y-114299523D01*
X231586061Y-114187271D01*
X231608789Y-114171357D01*
X231608792Y-114171355D01*
X231613300Y-114168198D01*
X231775198Y-114006300D01*
X231906523Y-113818749D01*
X231908846Y-113813767D01*
X231908849Y-113813762D01*
X232000961Y-113616225D01*
X232000961Y-113616224D01*
X232003284Y-113611243D01*
X232010856Y-113582986D01*
X232061119Y-113395402D01*
X232061119Y-113395400D01*
X232062543Y-113390087D01*
X232082498Y-113162000D01*
X232062543Y-112933913D01*
X232003284Y-112712757D01*
X232000121Y-112705974D01*
X231908849Y-112510238D01*
X231908846Y-112510233D01*
X231906523Y-112505251D01*
X231833098Y-112400389D01*
X231778357Y-112322211D01*
X231778355Y-112322208D01*
X231775198Y-112317700D01*
X231613300Y-112155802D01*
X231608792Y-112152645D01*
X231608789Y-112152643D01*
X231484651Y-112065721D01*
X231425749Y-112024477D01*
X231420767Y-112022154D01*
X231420762Y-112022151D01*
X231385951Y-112005919D01*
X231332666Y-111959002D01*
X231313205Y-111890725D01*
X231333747Y-111822765D01*
X231385951Y-111777529D01*
X231420511Y-111761414D01*
X231430007Y-111755931D01*
X231608467Y-111630972D01*
X231616875Y-111623916D01*
X231770916Y-111469875D01*
X231777972Y-111461467D01*
X231902931Y-111283007D01*
X231908414Y-111273511D01*
X232000490Y-111076053D01*
X232004236Y-111065761D01*
X232050394Y-110893497D01*
X232050058Y-110879401D01*
X232042116Y-110876000D01*
X229501033Y-110876000D01*
X229487502Y-110879973D01*
X229486273Y-110888522D01*
X229533764Y-111065761D01*
X229537510Y-111076053D01*
X229629586Y-111273511D01*
X229635069Y-111283007D01*
X229760028Y-111461467D01*
X229767084Y-111469875D01*
X229921125Y-111623916D01*
X229929533Y-111630972D01*
X230107993Y-111755931D01*
X230117489Y-111761414D01*
X230152049Y-111777529D01*
X230205334Y-111824446D01*
X230224795Y-111892723D01*
X230204253Y-111960683D01*
X230152049Y-112005919D01*
X230117238Y-112022151D01*
X230117233Y-112022154D01*
X230112251Y-112024477D01*
X230053349Y-112065721D01*
X229929211Y-112152643D01*
X229929208Y-112152645D01*
X229924700Y-112155802D01*
X229762802Y-112317700D01*
X229759645Y-112322208D01*
X229759643Y-112322211D01*
X229704902Y-112400389D01*
X229631477Y-112505251D01*
X229629154Y-112510233D01*
X229629151Y-112510238D01*
X229537879Y-112705974D01*
X229534716Y-112712757D01*
X229475457Y-112933913D01*
X229455502Y-113162000D01*
X229475457Y-113390087D01*
X229476881Y-113395400D01*
X229476881Y-113395402D01*
X229527145Y-113582986D01*
X229534716Y-113611243D01*
X229537039Y-113616224D01*
X229537039Y-113616225D01*
X229629151Y-113813762D01*
X229629154Y-113813767D01*
X229631477Y-113818749D01*
X229762802Y-114006300D01*
X229924700Y-114168198D01*
X229929208Y-114171355D01*
X229929211Y-114171357D01*
X229951939Y-114187271D01*
X230112251Y-114299523D01*
X230117233Y-114301846D01*
X230117238Y-114301849D01*
X230151457Y-114317805D01*
X230204742Y-114364722D01*
X230224203Y-114432999D01*
X230203661Y-114500959D01*
X230151457Y-114546195D01*
X230117238Y-114562151D01*
X230117233Y-114562154D01*
X230112251Y-114564477D01*
X230067065Y-114596117D01*
X229929211Y-114692643D01*
X229929208Y-114692645D01*
X229924700Y-114695802D01*
X229762802Y-114857700D01*
X229759645Y-114862208D01*
X229759643Y-114862211D01*
X229745429Y-114882511D01*
X229631477Y-115045251D01*
X229629154Y-115050233D01*
X229629151Y-115050238D01*
X229567986Y-115181408D01*
X229534716Y-115252757D01*
X229533294Y-115258065D01*
X229533293Y-115258067D01*
X229483174Y-115445114D01*
X229475457Y-115473913D01*
X229455502Y-115702000D01*
X229475457Y-115930087D01*
X229476881Y-115935400D01*
X229476881Y-115935402D01*
X229524255Y-116112201D01*
X229534716Y-116151243D01*
X229537039Y-116156224D01*
X229537039Y-116156225D01*
X229629151Y-116353762D01*
X229629154Y-116353767D01*
X229631477Y-116358749D01*
X229683539Y-116433101D01*
X229751872Y-116530690D01*
X229762802Y-116546300D01*
X229924700Y-116708198D01*
X229929208Y-116711355D01*
X229929211Y-116711357D01*
X230007389Y-116766098D01*
X230112251Y-116839523D01*
X230117233Y-116841846D01*
X230117238Y-116841849D01*
X230151457Y-116857805D01*
X230204742Y-116904722D01*
X230224203Y-116972999D01*
X230203661Y-117040959D01*
X230151457Y-117086195D01*
X230117238Y-117102151D01*
X230117233Y-117102154D01*
X230112251Y-117104477D01*
X230007389Y-117177902D01*
X229929211Y-117232643D01*
X229929208Y-117232645D01*
X229924700Y-117235802D01*
X229762802Y-117397700D01*
X229631477Y-117585251D01*
X229629154Y-117590233D01*
X229629151Y-117590238D01*
X229560299Y-117737894D01*
X229534716Y-117792757D01*
X229533294Y-117798065D01*
X229533293Y-117798067D01*
X229490954Y-117956076D01*
X229475457Y-118013913D01*
X229455502Y-118242000D01*
X229475457Y-118470087D01*
X229476881Y-118475400D01*
X229476881Y-118475402D01*
X229514260Y-118614899D01*
X229534716Y-118691243D01*
X229537039Y-118696224D01*
X229537039Y-118696225D01*
X229629151Y-118893762D01*
X229629154Y-118893767D01*
X229631477Y-118898749D01*
X229762802Y-119086300D01*
X229924700Y-119248198D01*
X229929208Y-119251355D01*
X229929211Y-119251357D01*
X230007389Y-119306098D01*
X230112251Y-119379523D01*
X230117233Y-119381846D01*
X230117238Y-119381849D01*
X230151457Y-119397805D01*
X230204742Y-119444722D01*
X230224203Y-119512999D01*
X230203661Y-119580959D01*
X230151457Y-119626195D01*
X230117238Y-119642151D01*
X230117233Y-119642154D01*
X230112251Y-119644477D01*
X230007389Y-119717902D01*
X229929211Y-119772643D01*
X229929208Y-119772645D01*
X229924700Y-119775802D01*
X229762802Y-119937700D01*
X229631477Y-120125251D01*
X229629154Y-120130233D01*
X229629151Y-120130238D01*
X229537039Y-120327775D01*
X229534716Y-120332757D01*
X229475457Y-120553913D01*
X229455502Y-120782000D01*
X229475457Y-121010087D01*
X229534716Y-121231243D01*
X229537039Y-121236224D01*
X229537039Y-121236225D01*
X229629151Y-121433762D01*
X229629154Y-121433767D01*
X229631477Y-121438749D01*
X229762802Y-121626300D01*
X229924700Y-121788198D01*
X229929208Y-121791355D01*
X229929211Y-121791357D01*
X230007389Y-121846098D01*
X230112251Y-121919523D01*
X230117233Y-121921846D01*
X230117238Y-121921849D01*
X230151457Y-121937805D01*
X230204742Y-121984722D01*
X230224203Y-122052999D01*
X230203661Y-122120959D01*
X230151457Y-122166195D01*
X230117238Y-122182151D01*
X230117233Y-122182154D01*
X230112251Y-122184477D01*
X230007389Y-122257902D01*
X229929211Y-122312643D01*
X229929208Y-122312645D01*
X229924700Y-122315802D01*
X229762802Y-122477700D01*
X229631477Y-122665251D01*
X229629154Y-122670233D01*
X229629151Y-122670238D01*
X229537039Y-122867775D01*
X229534716Y-122872757D01*
X229475457Y-123093913D01*
X229455502Y-123322000D01*
X229475457Y-123550087D01*
X229534716Y-123771243D01*
X229537039Y-123776224D01*
X229537039Y-123776225D01*
X229629151Y-123973762D01*
X229629154Y-123973767D01*
X229631477Y-123978749D01*
X229762802Y-124166300D01*
X229924700Y-124328198D01*
X229929208Y-124331355D01*
X229929211Y-124331357D01*
X230007389Y-124386098D01*
X230112251Y-124459523D01*
X230117233Y-124461846D01*
X230117238Y-124461849D01*
X230151457Y-124477805D01*
X230204742Y-124524722D01*
X230224203Y-124592999D01*
X230203661Y-124660959D01*
X230151457Y-124706195D01*
X230117238Y-124722151D01*
X230117233Y-124722154D01*
X230112251Y-124724477D01*
X230007389Y-124797902D01*
X229929211Y-124852643D01*
X229929208Y-124852645D01*
X229924700Y-124855802D01*
X229762802Y-125017700D01*
X229631477Y-125205251D01*
X229629154Y-125210233D01*
X229629151Y-125210238D01*
X229537039Y-125407775D01*
X229534716Y-125412757D01*
X229475457Y-125633913D01*
X229455502Y-125862000D01*
X190280455Y-125862000D01*
X190301423Y-117286058D01*
X196430363Y-117286058D01*
X196444511Y-117501912D01*
X196497758Y-117711574D01*
X196588322Y-117908021D01*
X196591655Y-117912737D01*
X196667032Y-118019393D01*
X196713168Y-118084675D01*
X196868117Y-118235619D01*
X197047978Y-118355799D01*
X197053281Y-118358077D01*
X197053284Y-118358079D01*
X197131556Y-118391707D01*
X197246729Y-118441189D01*
X197457713Y-118488929D01*
X197463487Y-118489156D01*
X197463488Y-118489156D01*
X197503348Y-118490722D01*
X197673863Y-118497422D01*
X197780903Y-118481902D01*
X197882228Y-118467211D01*
X197882233Y-118467210D01*
X197887942Y-118466382D01*
X197893406Y-118464527D01*
X197893411Y-118464526D01*
X198087312Y-118398705D01*
X198092780Y-118396849D01*
X198281516Y-118291152D01*
X198447830Y-118152830D01*
X198586152Y-117986516D01*
X198691849Y-117797780D01*
X198761382Y-117592942D01*
X198762210Y-117587233D01*
X198762211Y-117587228D01*
X198771378Y-117524000D01*
X223018693Y-117524000D01*
X223037885Y-117743371D01*
X223094880Y-117956076D01*
X223121850Y-118013913D01*
X223185618Y-118150666D01*
X223185621Y-118150671D01*
X223187944Y-118155653D01*
X223314251Y-118336038D01*
X223469962Y-118491749D01*
X223474471Y-118494906D01*
X223474473Y-118494908D01*
X223549241Y-118547261D01*
X223650346Y-118618056D01*
X223849924Y-118711120D01*
X224062629Y-118768115D01*
X224282000Y-118787307D01*
X224501371Y-118768115D01*
X224714076Y-118711120D01*
X224913654Y-118618056D01*
X225014759Y-118547261D01*
X225089527Y-118494908D01*
X225089529Y-118494906D01*
X225094038Y-118491749D01*
X225249749Y-118336038D01*
X225376056Y-118155653D01*
X225378379Y-118150671D01*
X225378382Y-118150666D01*
X225442150Y-118013913D01*
X225469120Y-117956076D01*
X225526115Y-117743371D01*
X225545307Y-117524000D01*
X225526115Y-117304629D01*
X225469120Y-117091924D01*
X225379137Y-116898954D01*
X225378382Y-116897334D01*
X225378379Y-116897329D01*
X225376056Y-116892347D01*
X225356664Y-116864652D01*
X225252908Y-116716473D01*
X225252906Y-116716470D01*
X225249749Y-116711962D01*
X225094038Y-116556251D01*
X225085393Y-116550197D01*
X225013031Y-116499529D01*
X224913654Y-116429944D01*
X224714076Y-116336880D01*
X224501371Y-116279885D01*
X224282000Y-116260693D01*
X224062629Y-116279885D01*
X223849924Y-116336880D01*
X223790654Y-116364518D01*
X223655334Y-116427618D01*
X223655329Y-116427621D01*
X223650347Y-116429944D01*
X223645840Y-116433100D01*
X223645838Y-116433101D01*
X223474473Y-116553092D01*
X223474470Y-116553094D01*
X223469962Y-116556251D01*
X223314251Y-116711962D01*
X223311094Y-116716470D01*
X223311092Y-116716473D01*
X223207336Y-116864652D01*
X223187944Y-116892347D01*
X223185621Y-116897329D01*
X223185618Y-116897334D01*
X223184863Y-116898954D01*
X223094880Y-117091924D01*
X223037885Y-117304629D01*
X223018693Y-117524000D01*
X198771378Y-117524000D01*
X198780998Y-117457652D01*
X198792422Y-117378863D01*
X198794042Y-117317000D01*
X198781903Y-117184894D01*
X198774778Y-117107344D01*
X198774777Y-117107341D01*
X198774249Y-117101590D01*
X198747774Y-117007716D01*
X198717099Y-116898954D01*
X198715531Y-116893394D01*
X198619856Y-116699385D01*
X198490428Y-116526060D01*
X198331582Y-116379223D01*
X198326699Y-116376142D01*
X198326695Y-116376139D01*
X198153519Y-116266874D01*
X198153520Y-116266874D01*
X198148636Y-116263793D01*
X197947718Y-116183635D01*
X197948084Y-116182718D01*
X197892956Y-116147097D01*
X197863623Y-116082443D01*
X197873900Y-116012194D01*
X197920526Y-115958654D01*
X197947883Y-115945507D01*
X198087104Y-115898248D01*
X198097617Y-115893568D01*
X198230358Y-115819228D01*
X198240223Y-115809150D01*
X198237267Y-115801478D01*
X197624811Y-115189021D01*
X197610868Y-115181408D01*
X197609034Y-115181539D01*
X197602420Y-115185790D01*
X196991870Y-115796341D01*
X196985677Y-115807683D01*
X196995559Y-115820172D01*
X197043414Y-115852148D01*
X197053527Y-115857639D01*
X197241581Y-115938433D01*
X197252514Y-115941985D01*
X197262714Y-115944293D01*
X197324741Y-115978836D01*
X197358245Y-116041430D01*
X197352591Y-116112201D01*
X197309572Y-116168680D01*
X197278517Y-116185398D01*
X197103118Y-116250106D01*
X197098157Y-116253058D01*
X197098156Y-116253058D01*
X196922181Y-116357752D01*
X196922178Y-116357754D01*
X196917213Y-116360708D01*
X196754577Y-116503336D01*
X196751002Y-116507871D01*
X196751001Y-116507872D01*
X196715353Y-116553092D01*
X196620656Y-116673214D01*
X196519936Y-116864652D01*
X196455788Y-117071240D01*
X196455109Y-117076975D01*
X196455109Y-117076976D01*
X196443076Y-117178649D01*
X196430363Y-117286058D01*
X190301423Y-117286058D01*
X190307521Y-114791837D01*
X196431243Y-114791837D01*
X196444629Y-114996066D01*
X196446430Y-115007436D01*
X196496809Y-115205806D01*
X196500650Y-115216653D01*
X196586338Y-115402525D01*
X196592089Y-115412486D01*
X196608637Y-115435902D01*
X196619227Y-115444290D01*
X196632526Y-115437263D01*
X197239979Y-114829811D01*
X197246356Y-114818132D01*
X197976408Y-114818132D01*
X197976539Y-114819966D01*
X197980790Y-114826580D01*
X198592568Y-115438357D01*
X198604943Y-115445114D01*
X198611523Y-115440188D01*
X198688568Y-115302617D01*
X198693249Y-115292104D01*
X198759038Y-115098294D01*
X198761723Y-115087111D01*
X198791388Y-114882511D01*
X198792018Y-114875128D01*
X198793443Y-114820704D01*
X198793200Y-114813305D01*
X198774284Y-114607438D01*
X198772186Y-114596117D01*
X198716632Y-114399139D01*
X198712508Y-114388392D01*
X198621982Y-114204826D01*
X198616707Y-114196219D01*
X198605815Y-114188044D01*
X198593396Y-114194815D01*
X197984021Y-114804189D01*
X197976408Y-114818132D01*
X197246356Y-114818132D01*
X197247592Y-114815868D01*
X197247461Y-114814034D01*
X197243210Y-114807420D01*
X196629817Y-114194028D01*
X196617442Y-114187271D01*
X196611476Y-114191737D01*
X196523091Y-114359728D01*
X196518686Y-114370362D01*
X196457992Y-114565829D01*
X196455600Y-114577080D01*
X196431544Y-114780335D01*
X196431243Y-114791837D01*
X190307521Y-114791837D01*
X190313648Y-112286058D01*
X196430363Y-112286058D01*
X196444511Y-112501912D01*
X196497758Y-112711574D01*
X196588322Y-112908021D01*
X196713168Y-113084675D01*
X196868117Y-113235619D01*
X197047978Y-113355799D01*
X197053281Y-113358077D01*
X197053284Y-113358079D01*
X197127786Y-113390087D01*
X197246729Y-113441189D01*
X197262746Y-113444813D01*
X197324772Y-113479353D01*
X197358279Y-113541946D01*
X197352626Y-113612717D01*
X197309609Y-113669197D01*
X197278551Y-113685918D01*
X197108750Y-113748561D01*
X197098372Y-113753511D01*
X196994408Y-113815364D01*
X196984810Y-113825697D01*
X196988297Y-113834086D01*
X197599189Y-114444979D01*
X197613132Y-114452592D01*
X197614966Y-114452461D01*
X197621580Y-114448210D01*
X198231949Y-113837840D01*
X198238706Y-113825465D01*
X198232676Y-113817409D01*
X198153288Y-113767319D01*
X198143045Y-113762101D01*
X197952946Y-113686259D01*
X197952609Y-113686159D01*
X197952469Y-113686068D01*
X197947575Y-113684116D01*
X197947958Y-113683155D01*
X197892973Y-113647635D01*
X197863631Y-113582986D01*
X197873899Y-113512736D01*
X197920518Y-113459189D01*
X197947889Y-113446033D01*
X198087312Y-113398705D01*
X198092780Y-113396849D01*
X198281516Y-113291152D01*
X198447830Y-113152830D01*
X198586152Y-112986516D01*
X198691849Y-112797780D01*
X198742192Y-112649475D01*
X198744051Y-112644000D01*
X223018693Y-112644000D01*
X223037885Y-112863371D01*
X223094880Y-113076076D01*
X223130671Y-113152830D01*
X223185618Y-113270666D01*
X223185621Y-113270671D01*
X223187944Y-113275653D01*
X223191100Y-113280160D01*
X223191101Y-113280162D01*
X223303854Y-113441189D01*
X223314251Y-113456038D01*
X223469962Y-113611749D01*
X223650346Y-113738056D01*
X223849924Y-113831120D01*
X224062629Y-113888115D01*
X224282000Y-113907307D01*
X224501371Y-113888115D01*
X224714076Y-113831120D01*
X224913654Y-113738056D01*
X225094038Y-113611749D01*
X225249749Y-113456038D01*
X225260147Y-113441189D01*
X225372899Y-113280162D01*
X225372900Y-113280160D01*
X225376056Y-113275653D01*
X225378379Y-113270671D01*
X225378382Y-113270666D01*
X225433329Y-113152830D01*
X225469120Y-113076076D01*
X225526115Y-112863371D01*
X225545307Y-112644000D01*
X225526115Y-112424629D01*
X225469120Y-112211924D01*
X225400945Y-112065721D01*
X225378382Y-112017334D01*
X225378379Y-112017329D01*
X225376056Y-112012347D01*
X225372899Y-112007838D01*
X225252908Y-111836473D01*
X225252906Y-111836470D01*
X225249749Y-111831962D01*
X225094038Y-111676251D01*
X224913654Y-111549944D01*
X224714076Y-111456880D01*
X224501371Y-111399885D01*
X224282000Y-111380693D01*
X224062629Y-111399885D01*
X223849924Y-111456880D01*
X223821366Y-111470197D01*
X223655334Y-111547618D01*
X223655329Y-111547621D01*
X223650347Y-111549944D01*
X223645840Y-111553100D01*
X223645838Y-111553101D01*
X223474473Y-111673092D01*
X223474470Y-111673094D01*
X223469962Y-111676251D01*
X223314251Y-111831962D01*
X223311094Y-111836470D01*
X223311092Y-111836473D01*
X223191101Y-112007838D01*
X223187944Y-112012347D01*
X223185621Y-112017329D01*
X223185618Y-112017334D01*
X223163055Y-112065721D01*
X223094880Y-112211924D01*
X223037885Y-112424629D01*
X223018693Y-112644000D01*
X198744051Y-112644000D01*
X198759526Y-112598411D01*
X198759527Y-112598406D01*
X198761382Y-112592942D01*
X198762210Y-112587233D01*
X198762211Y-112587228D01*
X198791889Y-112382537D01*
X198792422Y-112378863D01*
X198794042Y-112317000D01*
X198774249Y-112101590D01*
X198715531Y-111893394D01*
X198619856Y-111699385D01*
X198490428Y-111526060D01*
X198331582Y-111379223D01*
X198326699Y-111376142D01*
X198326695Y-111376139D01*
X198153519Y-111266874D01*
X198153520Y-111266874D01*
X198148636Y-111263793D01*
X197947718Y-111183635D01*
X197948176Y-111182486D01*
X197893790Y-111147349D01*
X197864453Y-111082697D01*
X197874726Y-111012448D01*
X197921348Y-110958904D01*
X197948709Y-110945754D01*
X198092780Y-110896849D01*
X198281516Y-110791152D01*
X198447830Y-110652830D01*
X198586152Y-110486516D01*
X198691849Y-110297780D01*
X198734289Y-110172757D01*
X198759526Y-110098411D01*
X198759527Y-110098406D01*
X198761382Y-110092942D01*
X198762210Y-110087233D01*
X198762211Y-110087228D01*
X198791889Y-109882537D01*
X198792422Y-109878863D01*
X198794042Y-109817000D01*
X198781903Y-109684894D01*
X198774778Y-109607344D01*
X198774777Y-109607341D01*
X198774249Y-109601590D01*
X198715531Y-109393394D01*
X198683508Y-109328457D01*
X198622410Y-109204564D01*
X198619856Y-109199385D01*
X198490428Y-109026060D01*
X198331582Y-108879223D01*
X198326699Y-108876142D01*
X198326695Y-108876139D01*
X198153519Y-108766874D01*
X198153520Y-108766874D01*
X198148636Y-108763793D01*
X197947718Y-108683635D01*
X197735557Y-108641433D01*
X197729783Y-108641357D01*
X197729779Y-108641357D01*
X197619737Y-108639917D01*
X197519258Y-108638602D01*
X197513561Y-108639581D01*
X197513560Y-108639581D01*
X197311762Y-108674256D01*
X197306065Y-108675235D01*
X197103118Y-108750106D01*
X197098157Y-108753058D01*
X197098156Y-108753058D01*
X196922181Y-108857752D01*
X196922178Y-108857754D01*
X196917213Y-108860708D01*
X196754577Y-109003336D01*
X196620656Y-109173214D01*
X196519936Y-109364652D01*
X196455788Y-109571240D01*
X196430363Y-109786058D01*
X196444511Y-110001912D01*
X196497758Y-110211574D01*
X196588322Y-110408021D01*
X196591655Y-110412737D01*
X196708374Y-110577891D01*
X196713168Y-110584675D01*
X196868117Y-110735619D01*
X197047978Y-110855799D01*
X197053281Y-110858077D01*
X197053284Y-110858079D01*
X197124143Y-110888522D01*
X197246729Y-110941189D01*
X197261855Y-110944612D01*
X197323880Y-110979155D01*
X197357384Y-111041749D01*
X197351728Y-111112520D01*
X197308709Y-111168999D01*
X197277655Y-111185716D01*
X197103118Y-111250106D01*
X197098157Y-111253058D01*
X197098156Y-111253058D01*
X196922181Y-111357752D01*
X196922178Y-111357754D01*
X196917213Y-111360708D01*
X196754577Y-111503336D01*
X196751002Y-111507871D01*
X196751001Y-111507872D01*
X196656144Y-111628198D01*
X196620656Y-111673214D01*
X196519936Y-111864652D01*
X196455788Y-112071240D01*
X196430363Y-112286058D01*
X190313648Y-112286058D01*
X190331985Y-104786058D01*
X196430363Y-104786058D01*
X196444511Y-105001912D01*
X196497758Y-105211574D01*
X196588322Y-105408021D01*
X196591655Y-105412737D01*
X196706294Y-105574948D01*
X196713168Y-105584675D01*
X196868117Y-105735619D01*
X197047978Y-105855799D01*
X197053281Y-105858077D01*
X197053284Y-105858079D01*
X197131556Y-105891707D01*
X197246729Y-105941189D01*
X197457713Y-105988929D01*
X197463487Y-105989156D01*
X197463488Y-105989156D01*
X197503348Y-105990722D01*
X197673863Y-105997422D01*
X197780902Y-105981902D01*
X197882228Y-105967211D01*
X197882233Y-105967210D01*
X197887942Y-105966382D01*
X197893406Y-105964527D01*
X197893411Y-105964526D01*
X198087312Y-105898705D01*
X198092780Y-105896849D01*
X198281516Y-105791152D01*
X198447830Y-105652830D01*
X198586152Y-105486516D01*
X198691849Y-105297780D01*
X198758421Y-105101666D01*
X198759526Y-105098411D01*
X198759527Y-105098406D01*
X198761382Y-105092942D01*
X198762210Y-105087233D01*
X198762211Y-105087228D01*
X198788566Y-104905455D01*
X198792422Y-104878863D01*
X198794042Y-104817000D01*
X198774249Y-104601590D01*
X198715531Y-104393394D01*
X198635693Y-104231500D01*
X223665105Y-104231500D01*
X223665795Y-104238065D01*
X223682121Y-104393394D01*
X223685067Y-104421428D01*
X223744082Y-104603056D01*
X223839569Y-104768444D01*
X223843987Y-104773351D01*
X223843988Y-104773352D01*
X223940683Y-104880743D01*
X223967356Y-104910366D01*
X224121857Y-105022618D01*
X224127885Y-105025302D01*
X224127887Y-105025303D01*
X224279808Y-105092942D01*
X224296321Y-105100294D01*
X224389721Y-105120147D01*
X224476665Y-105138628D01*
X224476670Y-105138628D01*
X224483122Y-105140000D01*
X224674096Y-105140000D01*
X224680548Y-105138628D01*
X224680553Y-105138628D01*
X224767496Y-105120147D01*
X224860897Y-105100294D01*
X224877410Y-105092942D01*
X225029331Y-105025303D01*
X225029333Y-105025302D01*
X225035361Y-105022618D01*
X225189862Y-104910366D01*
X225216535Y-104880743D01*
X225313230Y-104773352D01*
X225313231Y-104773351D01*
X225317649Y-104768444D01*
X225413136Y-104603056D01*
X225472151Y-104421428D01*
X225475098Y-104393394D01*
X225489184Y-104259367D01*
X225516197Y-104193710D01*
X225525399Y-104183442D01*
X229247649Y-100461192D01*
X229309961Y-100427166D01*
X229380776Y-100432231D01*
X229437612Y-100474778D01*
X229462265Y-100539305D01*
X229475457Y-100690087D01*
X229476881Y-100695400D01*
X229476881Y-100695402D01*
X229520471Y-100858079D01*
X229534716Y-100911243D01*
X229537039Y-100916224D01*
X229537039Y-100916225D01*
X229629151Y-101113762D01*
X229629154Y-101113767D01*
X229631477Y-101118749D01*
X229647361Y-101141433D01*
X229735196Y-101266874D01*
X229762802Y-101306300D01*
X229924700Y-101468198D01*
X229929208Y-101471355D01*
X229929211Y-101471357D01*
X229969445Y-101499529D01*
X230112251Y-101599523D01*
X230117233Y-101601846D01*
X230117238Y-101601849D01*
X230151457Y-101617805D01*
X230204742Y-101664722D01*
X230224203Y-101732999D01*
X230203661Y-101800959D01*
X230151457Y-101846195D01*
X230117238Y-101862151D01*
X230117233Y-101862154D01*
X230112251Y-101864477D01*
X230063013Y-101898954D01*
X229929211Y-101992643D01*
X229929208Y-101992645D01*
X229924700Y-101995802D01*
X229762802Y-102157700D01*
X229631477Y-102345251D01*
X229629154Y-102350233D01*
X229629151Y-102350238D01*
X229614090Y-102382537D01*
X229534716Y-102552757D01*
X229533294Y-102558065D01*
X229533293Y-102558067D01*
X229519771Y-102608531D01*
X229475457Y-102773913D01*
X229455502Y-103002000D01*
X229475457Y-103230087D01*
X229476881Y-103235400D01*
X229476881Y-103235402D01*
X229531412Y-103438911D01*
X229534716Y-103451243D01*
X229537039Y-103456224D01*
X229537039Y-103456225D01*
X229629151Y-103653762D01*
X229629154Y-103653767D01*
X229631477Y-103658749D01*
X229762802Y-103846300D01*
X229924700Y-104008198D01*
X229929208Y-104011355D01*
X229929211Y-104011357D01*
X229963397Y-104035294D01*
X230112251Y-104139523D01*
X230117233Y-104141846D01*
X230117238Y-104141849D01*
X230151457Y-104157805D01*
X230204742Y-104204722D01*
X230224203Y-104272999D01*
X230203661Y-104340959D01*
X230151457Y-104386195D01*
X230117238Y-104402151D01*
X230117233Y-104402154D01*
X230112251Y-104404477D01*
X230088043Y-104421428D01*
X229929211Y-104532643D01*
X229929208Y-104532645D01*
X229924700Y-104535802D01*
X229762802Y-104697700D01*
X229631477Y-104885251D01*
X229629154Y-104890233D01*
X229629151Y-104890238D01*
X229617955Y-104914249D01*
X229534716Y-105092757D01*
X229475457Y-105313913D01*
X229455502Y-105542000D01*
X229475457Y-105770087D01*
X229476881Y-105775400D01*
X229476881Y-105775402D01*
X229528277Y-105967211D01*
X229534716Y-105991243D01*
X229537039Y-105996224D01*
X229537039Y-105996225D01*
X229629151Y-106193762D01*
X229629154Y-106193767D01*
X229631477Y-106198749D01*
X229762802Y-106386300D01*
X229924700Y-106548198D01*
X229929208Y-106551355D01*
X229929211Y-106551357D01*
X230007389Y-106606098D01*
X230112251Y-106679523D01*
X230117233Y-106681846D01*
X230117238Y-106681849D01*
X230151457Y-106697805D01*
X230204742Y-106744722D01*
X230224203Y-106812999D01*
X230203661Y-106880959D01*
X230151457Y-106926195D01*
X230117238Y-106942151D01*
X230117233Y-106942154D01*
X230112251Y-106944477D01*
X230036898Y-106997240D01*
X229929211Y-107072643D01*
X229929208Y-107072645D01*
X229924700Y-107075802D01*
X229762802Y-107237700D01*
X229631477Y-107425251D01*
X229629154Y-107430233D01*
X229629151Y-107430238D01*
X229537039Y-107627775D01*
X229534716Y-107632757D01*
X229475457Y-107853913D01*
X229455502Y-108082000D01*
X229475457Y-108310087D01*
X229534716Y-108531243D01*
X229537039Y-108536224D01*
X229537039Y-108536225D01*
X229629151Y-108733762D01*
X229629154Y-108733767D01*
X229631477Y-108738749D01*
X229762802Y-108926300D01*
X229924700Y-109088198D01*
X229929208Y-109091355D01*
X229929211Y-109091357D01*
X230007389Y-109146098D01*
X230112251Y-109219523D01*
X230117233Y-109221846D01*
X230117238Y-109221849D01*
X230152049Y-109238081D01*
X230205334Y-109284998D01*
X230224795Y-109353275D01*
X230204253Y-109421235D01*
X230152049Y-109466471D01*
X230117489Y-109482586D01*
X230107993Y-109488069D01*
X229929533Y-109613028D01*
X229921125Y-109620084D01*
X229767084Y-109774125D01*
X229760028Y-109782533D01*
X229635069Y-109960993D01*
X229629586Y-109970489D01*
X229537510Y-110167947D01*
X229533764Y-110178239D01*
X229487606Y-110350503D01*
X229487942Y-110364599D01*
X229495884Y-110368000D01*
X232036967Y-110368000D01*
X232050498Y-110364027D01*
X232051727Y-110355478D01*
X232004236Y-110178239D01*
X232000490Y-110167947D01*
X231908414Y-109970489D01*
X231902931Y-109960993D01*
X231777972Y-109782533D01*
X231770916Y-109774125D01*
X231616875Y-109620084D01*
X231608467Y-109613028D01*
X231430007Y-109488069D01*
X231420511Y-109482586D01*
X231385951Y-109466471D01*
X231332666Y-109419554D01*
X231313205Y-109351277D01*
X231333747Y-109283317D01*
X231385951Y-109238081D01*
X231420762Y-109221849D01*
X231420767Y-109221846D01*
X231425749Y-109219523D01*
X231530611Y-109146098D01*
X231608789Y-109091357D01*
X231608792Y-109091355D01*
X231613300Y-109088198D01*
X231775198Y-108926300D01*
X231906523Y-108738749D01*
X231908846Y-108733767D01*
X231908849Y-108733762D01*
X232000961Y-108536225D01*
X232000961Y-108536224D01*
X232003284Y-108531243D01*
X232062543Y-108310087D01*
X232082498Y-108082000D01*
X232062543Y-107853913D01*
X232003284Y-107632757D01*
X232000961Y-107627775D01*
X231908849Y-107430238D01*
X231908846Y-107430233D01*
X231906523Y-107425251D01*
X231775198Y-107237700D01*
X231613300Y-107075802D01*
X231608792Y-107072645D01*
X231608789Y-107072643D01*
X231501102Y-106997240D01*
X231425749Y-106944477D01*
X231420767Y-106942154D01*
X231420762Y-106942151D01*
X231386543Y-106926195D01*
X231333258Y-106879278D01*
X231313797Y-106811001D01*
X231334339Y-106743041D01*
X231386543Y-106697805D01*
X231420762Y-106681849D01*
X231420767Y-106681846D01*
X231425749Y-106679523D01*
X231530611Y-106606098D01*
X231608789Y-106551357D01*
X231608792Y-106551355D01*
X231613300Y-106548198D01*
X231775198Y-106386300D01*
X231906523Y-106198749D01*
X231908846Y-106193767D01*
X231908849Y-106193762D01*
X232000961Y-105996225D01*
X232000961Y-105996224D01*
X232003284Y-105991243D01*
X232009724Y-105967211D01*
X232061119Y-105775402D01*
X232061119Y-105775400D01*
X232062543Y-105770087D01*
X232082498Y-105542000D01*
X237075502Y-105542000D01*
X237095457Y-105770087D01*
X237096881Y-105775400D01*
X237096881Y-105775402D01*
X237148277Y-105967211D01*
X237154716Y-105991243D01*
X237157039Y-105996224D01*
X237157039Y-105996225D01*
X237249151Y-106193762D01*
X237249154Y-106193767D01*
X237251477Y-106198749D01*
X237382802Y-106386300D01*
X237544700Y-106548198D01*
X237549208Y-106551355D01*
X237549211Y-106551357D01*
X237627389Y-106606098D01*
X237732251Y-106679523D01*
X237737233Y-106681846D01*
X237737238Y-106681849D01*
X237772049Y-106698081D01*
X237825334Y-106744998D01*
X237844795Y-106813275D01*
X237824253Y-106881235D01*
X237772049Y-106926471D01*
X237737489Y-106942586D01*
X237727993Y-106948069D01*
X237549533Y-107073028D01*
X237541125Y-107080084D01*
X237387084Y-107234125D01*
X237380028Y-107242533D01*
X237255069Y-107420993D01*
X237249586Y-107430489D01*
X237157510Y-107627947D01*
X237153764Y-107638239D01*
X237107606Y-107810503D01*
X237107942Y-107824599D01*
X237115884Y-107828000D01*
X239656967Y-107828000D01*
X239670498Y-107824027D01*
X239671727Y-107815478D01*
X239624236Y-107638239D01*
X239620490Y-107627947D01*
X239528414Y-107430489D01*
X239522931Y-107420993D01*
X239397972Y-107242533D01*
X239390916Y-107234125D01*
X239236875Y-107080084D01*
X239228467Y-107073028D01*
X239050007Y-106948069D01*
X239040511Y-106942586D01*
X239005951Y-106926471D01*
X238976676Y-106900695D01*
X247049251Y-106900695D01*
X247049548Y-106905848D01*
X247049548Y-106905851D01*
X247055011Y-107000590D01*
X247062110Y-107123715D01*
X247063247Y-107128761D01*
X247063248Y-107128767D01*
X247083119Y-107216939D01*
X247111222Y-107341639D01*
X247195266Y-107548616D01*
X247311987Y-107739088D01*
X247458250Y-107907938D01*
X247462230Y-107911242D01*
X247466981Y-107915187D01*
X247506616Y-107974090D01*
X247508113Y-108045071D01*
X247470997Y-108105593D01*
X247430724Y-108130112D01*
X247315295Y-108173385D01*
X247198739Y-108260739D01*
X247111385Y-108377295D01*
X247060255Y-108513684D01*
X247053500Y-108575866D01*
X247053500Y-110372134D01*
X247060255Y-110434316D01*
X247111385Y-110570705D01*
X247198739Y-110687261D01*
X247315295Y-110774615D01*
X247451684Y-110825745D01*
X247513866Y-110832500D01*
X249310134Y-110832500D01*
X249372316Y-110825745D01*
X249508705Y-110774615D01*
X249625261Y-110687261D01*
X249712615Y-110570705D01*
X249763745Y-110434316D01*
X249770500Y-110372134D01*
X249770500Y-108575866D01*
X249763745Y-108513684D01*
X249712615Y-108377295D01*
X249625261Y-108260739D01*
X249508705Y-108173385D01*
X249496132Y-108168672D01*
X249390203Y-108128960D01*
X249333439Y-108086318D01*
X249308739Y-108019756D01*
X249323947Y-107950408D01*
X249345493Y-107921727D01*
X249446435Y-107821137D01*
X249450096Y-107817489D01*
X249509594Y-107734689D01*
X249577435Y-107640277D01*
X249580453Y-107636077D01*
X249679430Y-107435811D01*
X249744370Y-107222069D01*
X249773529Y-107000590D01*
X249775156Y-106934000D01*
X249756852Y-106711361D01*
X249702431Y-106494702D01*
X249613354Y-106289840D01*
X249492014Y-106102277D01*
X249341670Y-105937051D01*
X249337619Y-105933852D01*
X249337615Y-105933848D01*
X249170414Y-105801800D01*
X249170410Y-105801798D01*
X249166359Y-105798598D01*
X248970789Y-105690638D01*
X248965920Y-105688914D01*
X248965916Y-105688912D01*
X248765087Y-105617795D01*
X248765083Y-105617794D01*
X248760212Y-105616069D01*
X248755119Y-105615162D01*
X248755116Y-105615161D01*
X248545373Y-105577800D01*
X248545367Y-105577799D01*
X248540284Y-105576894D01*
X248466452Y-105575992D01*
X248322081Y-105574228D01*
X248322079Y-105574228D01*
X248316911Y-105574165D01*
X248096091Y-105607955D01*
X247883756Y-105677357D01*
X247853443Y-105693137D01*
X247695414Y-105775402D01*
X247685607Y-105780507D01*
X247681474Y-105783610D01*
X247681471Y-105783612D01*
X247511100Y-105911530D01*
X247506965Y-105914635D01*
X247352629Y-106076138D01*
X247226743Y-106260680D01*
X247132688Y-106463305D01*
X247072989Y-106678570D01*
X247049251Y-106900695D01*
X238976676Y-106900695D01*
X238952666Y-106879554D01*
X238933205Y-106811277D01*
X238953747Y-106743317D01*
X239005951Y-106698081D01*
X239040762Y-106681849D01*
X239040767Y-106681846D01*
X239045749Y-106679523D01*
X239150611Y-106606098D01*
X239228789Y-106551357D01*
X239228792Y-106551355D01*
X239233300Y-106548198D01*
X239395198Y-106386300D01*
X239526523Y-106198749D01*
X239528846Y-106193767D01*
X239528849Y-106193762D01*
X239620961Y-105996225D01*
X239620961Y-105996224D01*
X239623284Y-105991243D01*
X239629724Y-105967211D01*
X239681119Y-105775402D01*
X239681119Y-105775400D01*
X239682543Y-105770087D01*
X239702498Y-105542000D01*
X239682543Y-105313913D01*
X239623284Y-105092757D01*
X239540045Y-104914249D01*
X239528849Y-104890238D01*
X239528846Y-104890233D01*
X239526523Y-104885251D01*
X239395198Y-104697700D01*
X239233300Y-104535802D01*
X239228792Y-104532645D01*
X239228789Y-104532643D01*
X239069957Y-104421428D01*
X239045749Y-104404477D01*
X239040767Y-104402154D01*
X239040762Y-104402151D01*
X239006543Y-104386195D01*
X238953258Y-104339278D01*
X238933797Y-104271001D01*
X238954339Y-104203041D01*
X239006543Y-104157805D01*
X239040762Y-104141849D01*
X239040767Y-104141846D01*
X239045749Y-104139523D01*
X239194603Y-104035294D01*
X239228789Y-104011357D01*
X239228792Y-104011355D01*
X239233300Y-104008198D01*
X239395198Y-103846300D01*
X239526523Y-103658749D01*
X239528846Y-103653767D01*
X239528849Y-103653762D01*
X239620961Y-103456225D01*
X239620961Y-103456224D01*
X239623284Y-103451243D01*
X239626589Y-103438911D01*
X239681119Y-103235402D01*
X239681119Y-103235400D01*
X239682543Y-103230087D01*
X239702498Y-103002000D01*
X239682543Y-102773913D01*
X239638229Y-102608531D01*
X239624707Y-102558067D01*
X239624706Y-102558065D01*
X239623284Y-102552757D01*
X239543910Y-102382537D01*
X239528849Y-102350238D01*
X239528846Y-102350233D01*
X239526523Y-102345251D01*
X239395198Y-102157700D01*
X239233300Y-101995802D01*
X239228792Y-101992645D01*
X239228789Y-101992643D01*
X239094987Y-101898954D01*
X239045749Y-101864477D01*
X239040767Y-101862154D01*
X239040762Y-101862151D01*
X239006543Y-101846195D01*
X238953258Y-101799278D01*
X238933797Y-101731001D01*
X238954339Y-101663041D01*
X239006543Y-101617805D01*
X239040762Y-101601849D01*
X239040767Y-101601846D01*
X239045749Y-101599523D01*
X239188555Y-101499529D01*
X239228789Y-101471357D01*
X239228792Y-101471355D01*
X239233300Y-101468198D01*
X239395198Y-101306300D01*
X239422805Y-101266874D01*
X239510639Y-101141433D01*
X239526523Y-101118749D01*
X239528846Y-101113767D01*
X239528849Y-101113762D01*
X239620961Y-100916225D01*
X239620961Y-100916224D01*
X239623284Y-100911243D01*
X239637530Y-100858079D01*
X239681119Y-100695402D01*
X239681119Y-100695400D01*
X239682543Y-100690087D01*
X239702498Y-100462000D01*
X239682543Y-100233913D01*
X239657630Y-100140938D01*
X239624707Y-100018067D01*
X239624706Y-100018065D01*
X239623284Y-100012757D01*
X239615537Y-99996144D01*
X239528849Y-99810238D01*
X239528846Y-99810233D01*
X239526523Y-99805251D01*
X239432425Y-99670866D01*
X239398357Y-99622211D01*
X239398355Y-99622208D01*
X239395198Y-99617700D01*
X239233300Y-99455802D01*
X239228792Y-99452645D01*
X239228789Y-99452643D01*
X239136776Y-99388215D01*
X239045749Y-99324477D01*
X239040767Y-99322154D01*
X239040762Y-99322151D01*
X239006543Y-99306195D01*
X238953258Y-99259278D01*
X238933797Y-99191001D01*
X238951119Y-99133695D01*
X246922251Y-99133695D01*
X246922548Y-99138848D01*
X246922548Y-99138851D01*
X246932197Y-99306195D01*
X246935110Y-99356715D01*
X246936247Y-99361761D01*
X246936248Y-99361767D01*
X246958319Y-99459699D01*
X246984222Y-99574639D01*
X247068266Y-99781616D01*
X247184987Y-99972088D01*
X247331250Y-100140938D01*
X247335230Y-100144242D01*
X247339981Y-100148187D01*
X247379616Y-100207090D01*
X247381113Y-100278071D01*
X247343997Y-100338593D01*
X247303724Y-100363112D01*
X247188295Y-100406385D01*
X247071739Y-100493739D01*
X246984385Y-100610295D01*
X246933255Y-100746684D01*
X246926500Y-100808866D01*
X246926500Y-102605134D01*
X246933255Y-102667316D01*
X246984385Y-102803705D01*
X247071739Y-102920261D01*
X247188295Y-103007615D01*
X247324684Y-103058745D01*
X247386866Y-103065500D01*
X249183134Y-103065500D01*
X249245316Y-103058745D01*
X249381705Y-103007615D01*
X249498261Y-102920261D01*
X249585615Y-102803705D01*
X249636745Y-102667316D01*
X249643500Y-102605134D01*
X249643500Y-100808866D01*
X249636745Y-100746684D01*
X249585615Y-100610295D01*
X249498261Y-100493739D01*
X249381705Y-100406385D01*
X249369132Y-100401672D01*
X249263203Y-100361960D01*
X249206439Y-100319318D01*
X249181739Y-100252756D01*
X249196947Y-100183408D01*
X249218493Y-100154727D01*
X249319435Y-100054137D01*
X249323096Y-100050489D01*
X249346394Y-100018067D01*
X249450435Y-99873277D01*
X249453453Y-99869077D01*
X249477361Y-99820704D01*
X249550136Y-99673453D01*
X249550137Y-99673451D01*
X249552430Y-99668811D01*
X249584900Y-99561940D01*
X249615865Y-99460023D01*
X249615865Y-99460021D01*
X249617370Y-99455069D01*
X249646529Y-99233590D01*
X249647806Y-99181318D01*
X249648074Y-99170365D01*
X249648074Y-99170361D01*
X249648156Y-99167000D01*
X249629852Y-98944361D01*
X249575431Y-98727702D01*
X249486354Y-98522840D01*
X249416259Y-98414489D01*
X249367822Y-98339617D01*
X249367820Y-98339614D01*
X249365014Y-98335277D01*
X249214670Y-98170051D01*
X249210619Y-98166852D01*
X249210615Y-98166848D01*
X249043414Y-98034800D01*
X249043410Y-98034798D01*
X249039359Y-98031598D01*
X248997569Y-98008529D01*
X248984852Y-97995695D01*
X253526251Y-97995695D01*
X253526548Y-98000848D01*
X253526548Y-98000851D01*
X253534837Y-98144607D01*
X253539110Y-98218715D01*
X253540247Y-98223761D01*
X253540248Y-98223767D01*
X253554295Y-98286096D01*
X253588222Y-98436639D01*
X253644474Y-98575171D01*
X253663747Y-98622635D01*
X253672266Y-98643616D01*
X253691042Y-98674256D01*
X253775798Y-98812565D01*
X253788987Y-98834088D01*
X253935250Y-99002938D01*
X253939230Y-99006242D01*
X253943981Y-99010187D01*
X253983616Y-99069090D01*
X253985113Y-99140071D01*
X253947997Y-99200593D01*
X253907725Y-99225112D01*
X253816588Y-99259278D01*
X253792295Y-99268385D01*
X253675739Y-99355739D01*
X253588385Y-99472295D01*
X253537255Y-99608684D01*
X253530500Y-99670866D01*
X253530500Y-101467134D01*
X253537255Y-101529316D01*
X253588385Y-101665705D01*
X253675739Y-101782261D01*
X253792295Y-101869615D01*
X253928684Y-101920745D01*
X253990866Y-101927500D01*
X255787134Y-101927500D01*
X255849316Y-101920745D01*
X255985705Y-101869615D01*
X256102261Y-101782261D01*
X256189615Y-101665705D01*
X256240745Y-101529316D01*
X256247500Y-101467134D01*
X256247500Y-99670866D01*
X256240745Y-99608684D01*
X256189615Y-99472295D01*
X256102261Y-99355739D01*
X255985705Y-99268385D01*
X255961412Y-99259278D01*
X255867203Y-99223960D01*
X255810439Y-99181318D01*
X255785739Y-99114756D01*
X255800947Y-99045408D01*
X255822493Y-99016727D01*
X255911332Y-98928198D01*
X255927096Y-98912489D01*
X255941414Y-98892564D01*
X256054435Y-98735277D01*
X256057453Y-98731077D01*
X256074639Y-98696305D01*
X256154136Y-98535453D01*
X256154137Y-98535451D01*
X256156430Y-98530811D01*
X256215838Y-98335277D01*
X256219865Y-98322023D01*
X256219865Y-98322021D01*
X256221370Y-98317069D01*
X256250529Y-98095590D01*
X256250611Y-98092240D01*
X256252074Y-98032365D01*
X256252074Y-98032361D01*
X256252156Y-98029000D01*
X256233852Y-97806361D01*
X256179431Y-97589702D01*
X256090354Y-97384840D01*
X256044216Y-97313522D01*
X255971822Y-97201617D01*
X255971820Y-97201614D01*
X255969014Y-97197277D01*
X255818670Y-97032051D01*
X255814619Y-97028852D01*
X255814615Y-97028848D01*
X255647414Y-96896800D01*
X255647410Y-96896798D01*
X255643359Y-96893598D01*
X255637157Y-96890174D01*
X255611605Y-96876069D01*
X255601569Y-96870529D01*
X255551598Y-96820097D01*
X255536826Y-96750654D01*
X255561942Y-96684248D01*
X255589294Y-96657641D01*
X255764328Y-96532792D01*
X255772200Y-96526139D01*
X255923052Y-96375812D01*
X255929730Y-96367965D01*
X256054003Y-96195020D01*
X256059313Y-96186183D01*
X256153670Y-95995267D01*
X256157469Y-95985672D01*
X256219377Y-95781910D01*
X256221555Y-95771837D01*
X256222986Y-95760962D01*
X256220775Y-95746778D01*
X256207617Y-95743000D01*
X253572225Y-95743000D01*
X253558694Y-95746973D01*
X253557257Y-95756966D01*
X253587565Y-95891446D01*
X253590645Y-95901275D01*
X253670770Y-96098603D01*
X253675413Y-96107794D01*
X253786694Y-96289388D01*
X253792777Y-96297699D01*
X253932213Y-96458667D01*
X253939580Y-96465883D01*
X254103434Y-96601916D01*
X254111881Y-96607831D01*
X254180969Y-96648203D01*
X254229693Y-96699842D01*
X254242764Y-96769625D01*
X254216033Y-96835396D01*
X254175584Y-96868752D01*
X254162607Y-96875507D01*
X254158474Y-96878610D01*
X254158471Y-96878612D01*
X253988100Y-97006530D01*
X253983965Y-97009635D01*
X253829629Y-97171138D01*
X253703743Y-97355680D01*
X253688003Y-97389590D01*
X253617916Y-97540580D01*
X253609688Y-97558305D01*
X253549989Y-97773570D01*
X253526251Y-97995695D01*
X248984852Y-97995695D01*
X248947598Y-97958097D01*
X248932826Y-97888654D01*
X248957942Y-97822248D01*
X248985294Y-97795641D01*
X249160328Y-97670792D01*
X249168200Y-97664139D01*
X249319052Y-97513812D01*
X249325730Y-97505965D01*
X249450003Y-97333020D01*
X249455313Y-97324183D01*
X249549670Y-97133267D01*
X249553469Y-97123672D01*
X249615377Y-96919910D01*
X249617555Y-96909837D01*
X249618986Y-96898962D01*
X249616775Y-96884778D01*
X249603617Y-96881000D01*
X246968225Y-96881000D01*
X246954694Y-96884973D01*
X246953257Y-96894966D01*
X246983565Y-97029446D01*
X246986645Y-97039275D01*
X247066770Y-97236603D01*
X247071413Y-97245794D01*
X247182694Y-97427388D01*
X247188777Y-97435699D01*
X247328213Y-97596667D01*
X247335580Y-97603883D01*
X247499434Y-97739916D01*
X247507881Y-97745831D01*
X247576969Y-97786203D01*
X247625693Y-97837842D01*
X247638764Y-97907625D01*
X247612033Y-97973396D01*
X247571584Y-98006752D01*
X247558607Y-98013507D01*
X247554474Y-98016610D01*
X247554471Y-98016612D01*
X247384100Y-98144530D01*
X247379965Y-98147635D01*
X247376393Y-98151373D01*
X247253073Y-98280420D01*
X247225629Y-98309138D01*
X247099743Y-98493680D01*
X247058163Y-98583257D01*
X247015923Y-98674256D01*
X247005688Y-98696305D01*
X246945989Y-98911570D01*
X246922251Y-99133695D01*
X238951119Y-99133695D01*
X238954339Y-99123041D01*
X239006543Y-99077805D01*
X239040762Y-99061849D01*
X239040767Y-99061846D01*
X239045749Y-99059523D01*
X239150611Y-98986098D01*
X239228789Y-98931357D01*
X239228792Y-98931355D01*
X239233300Y-98928198D01*
X239395198Y-98766300D01*
X239407937Y-98748108D01*
X239478290Y-98647632D01*
X239526523Y-98578749D01*
X239528846Y-98573767D01*
X239528849Y-98573762D01*
X239620961Y-98376225D01*
X239620961Y-98376224D01*
X239623284Y-98371243D01*
X239640927Y-98305401D01*
X239681119Y-98155402D01*
X239681119Y-98155400D01*
X239682543Y-98150087D01*
X239702498Y-97922000D01*
X239682543Y-97693913D01*
X239674565Y-97664139D01*
X239624707Y-97478067D01*
X239624706Y-97478065D01*
X239623284Y-97472757D01*
X239582288Y-97384840D01*
X239528849Y-97270238D01*
X239528846Y-97270233D01*
X239526523Y-97265251D01*
X239408516Y-97096720D01*
X239398357Y-97082211D01*
X239398355Y-97082208D01*
X239395198Y-97077700D01*
X239233300Y-96915802D01*
X239228792Y-96912645D01*
X239228789Y-96912643D01*
X239136085Y-96847731D01*
X239045749Y-96784477D01*
X239040767Y-96782154D01*
X239040762Y-96782151D01*
X239006543Y-96766195D01*
X238953258Y-96719278D01*
X238933797Y-96651001D01*
X238954339Y-96583041D01*
X239006543Y-96537805D01*
X239040762Y-96521849D01*
X239040767Y-96521846D01*
X239045749Y-96519523D01*
X239190166Y-96418401D01*
X239228789Y-96391357D01*
X239228792Y-96391355D01*
X239233300Y-96388198D01*
X239395198Y-96226300D01*
X239412134Y-96202114D01*
X239478290Y-96107632D01*
X239526523Y-96038749D01*
X239528846Y-96033767D01*
X239528849Y-96033762D01*
X239620961Y-95836225D01*
X239620961Y-95836224D01*
X239623284Y-95831243D01*
X239631676Y-95799926D01*
X239681119Y-95615402D01*
X239681119Y-95615400D01*
X239682543Y-95610087D01*
X239684502Y-95587695D01*
X240445251Y-95587695D01*
X240445548Y-95592848D01*
X240445548Y-95592851D01*
X240451011Y-95687590D01*
X240458110Y-95810715D01*
X240459247Y-95815761D01*
X240459248Y-95815767D01*
X240471536Y-95870292D01*
X240507222Y-96028639D01*
X240556816Y-96150774D01*
X240589066Y-96230197D01*
X240591266Y-96235616D01*
X240629310Y-96297699D01*
X240696552Y-96407427D01*
X240707987Y-96426088D01*
X240854250Y-96594938D01*
X241026126Y-96737632D01*
X241219000Y-96850338D01*
X241223825Y-96852180D01*
X241223826Y-96852181D01*
X241271875Y-96870529D01*
X241427692Y-96930030D01*
X241432760Y-96931061D01*
X241432763Y-96931062D01*
X241540017Y-96952883D01*
X241646597Y-96974567D01*
X241651772Y-96974757D01*
X241651774Y-96974757D01*
X241864673Y-96982564D01*
X241864677Y-96982564D01*
X241869837Y-96982753D01*
X241874957Y-96982097D01*
X241874959Y-96982097D01*
X242086288Y-96955025D01*
X242086289Y-96955025D01*
X242091416Y-96954368D01*
X242096366Y-96952883D01*
X242300429Y-96891661D01*
X242300434Y-96891659D01*
X242305384Y-96890174D01*
X242505994Y-96791896D01*
X242687860Y-96662173D01*
X242846096Y-96504489D01*
X242905594Y-96421689D01*
X242949071Y-96361183D01*
X246949389Y-96361183D01*
X246950912Y-96369607D01*
X246963292Y-96373000D01*
X248012885Y-96373000D01*
X248028124Y-96368525D01*
X248029329Y-96367135D01*
X248031000Y-96359452D01*
X248031000Y-96354885D01*
X248539000Y-96354885D01*
X248543475Y-96370124D01*
X248544865Y-96371329D01*
X248552548Y-96373000D01*
X249603344Y-96373000D01*
X249616875Y-96369027D01*
X249618180Y-96359947D01*
X249576214Y-96192875D01*
X249572894Y-96183124D01*
X249487972Y-95987814D01*
X249483105Y-95978739D01*
X249367426Y-95799926D01*
X249361136Y-95791757D01*
X249217806Y-95634240D01*
X249210273Y-95627215D01*
X249043139Y-95495222D01*
X249034552Y-95489517D01*
X248848117Y-95386599D01*
X248838705Y-95382369D01*
X248637959Y-95311280D01*
X248627988Y-95308646D01*
X248556837Y-95295972D01*
X248543540Y-95297432D01*
X248539000Y-95311989D01*
X248539000Y-96354885D01*
X248031000Y-96354885D01*
X248031000Y-95310102D01*
X248027082Y-95296758D01*
X248012806Y-95294771D01*
X247974324Y-95300660D01*
X247964288Y-95303051D01*
X247761868Y-95369212D01*
X247752359Y-95373209D01*
X247563463Y-95471542D01*
X247554738Y-95477036D01*
X247384433Y-95604905D01*
X247376726Y-95611748D01*
X247229590Y-95765717D01*
X247223104Y-95773727D01*
X247103098Y-95949649D01*
X247098000Y-95958623D01*
X247008338Y-96151783D01*
X247004775Y-96161470D01*
X246949389Y-96361183D01*
X242949071Y-96361183D01*
X242973435Y-96327277D01*
X242976453Y-96323077D01*
X242987844Y-96300030D01*
X243073136Y-96127453D01*
X243073137Y-96127451D01*
X243075430Y-96122811D01*
X243137059Y-95919968D01*
X243138865Y-95914023D01*
X243138865Y-95914021D01*
X243140370Y-95909069D01*
X243169529Y-95687590D01*
X243170427Y-95650857D01*
X243171074Y-95624365D01*
X243171074Y-95624361D01*
X243171156Y-95621000D01*
X243152852Y-95398361D01*
X243098431Y-95181702D01*
X243009354Y-94976840D01*
X242888014Y-94789277D01*
X242884532Y-94785450D01*
X242740798Y-94627488D01*
X242709746Y-94563642D01*
X242718141Y-94493143D01*
X242763317Y-94438375D01*
X242789761Y-94424706D01*
X242896297Y-94384767D01*
X242904705Y-94381615D01*
X243021261Y-94294261D01*
X243108615Y-94177705D01*
X243159745Y-94041316D01*
X243166500Y-93979134D01*
X243166500Y-92915695D01*
X253526251Y-92915695D01*
X253526548Y-92920848D01*
X253526548Y-92920851D01*
X253538812Y-93133547D01*
X253539110Y-93138715D01*
X253540247Y-93143761D01*
X253540248Y-93143767D01*
X253548345Y-93179695D01*
X253588222Y-93356639D01*
X253672266Y-93563616D01*
X253720607Y-93642502D01*
X253783977Y-93745912D01*
X253788987Y-93754088D01*
X253935250Y-93922938D01*
X254027019Y-93999126D01*
X254100268Y-94059938D01*
X254107126Y-94065632D01*
X254144085Y-94087229D01*
X254180955Y-94108774D01*
X254229679Y-94160412D01*
X254242750Y-94230195D01*
X254216019Y-94295967D01*
X254175562Y-94329327D01*
X254167457Y-94333546D01*
X254158738Y-94339036D01*
X253988433Y-94466905D01*
X253980726Y-94473748D01*
X253833590Y-94627717D01*
X253827104Y-94635727D01*
X253707098Y-94811649D01*
X253702000Y-94820623D01*
X253612338Y-95013783D01*
X253608775Y-95023470D01*
X253553389Y-95223183D01*
X253554912Y-95231607D01*
X253567292Y-95235000D01*
X256207344Y-95235000D01*
X256220875Y-95231027D01*
X256222180Y-95221947D01*
X256180214Y-95054875D01*
X256176894Y-95045124D01*
X256091972Y-94849814D01*
X256087105Y-94840739D01*
X255971426Y-94661926D01*
X255965136Y-94653757D01*
X255821806Y-94496240D01*
X255814273Y-94489215D01*
X255647139Y-94357222D01*
X255638556Y-94351520D01*
X255601602Y-94331120D01*
X255551631Y-94280687D01*
X255536859Y-94211245D01*
X255561975Y-94144839D01*
X255589327Y-94118232D01*
X255632792Y-94087229D01*
X255768860Y-93990173D01*
X255779548Y-93979523D01*
X255911332Y-93848198D01*
X255927096Y-93832489D01*
X255934038Y-93822829D01*
X256054435Y-93655277D01*
X256057453Y-93651077D01*
X256065946Y-93633894D01*
X256154136Y-93455453D01*
X256154137Y-93455451D01*
X256156430Y-93450811D01*
X256221370Y-93237069D01*
X256250529Y-93015590D01*
X256251947Y-92957570D01*
X256252074Y-92952365D01*
X256252074Y-92952361D01*
X256252156Y-92949000D01*
X256233852Y-92726361D01*
X256179431Y-92509702D01*
X256090354Y-92304840D01*
X256030842Y-92212848D01*
X255971822Y-92121617D01*
X255971820Y-92121614D01*
X255969014Y-92117277D01*
X255818670Y-91952051D01*
X255814619Y-91948852D01*
X255814615Y-91948848D01*
X255647414Y-91816800D01*
X255647410Y-91816798D01*
X255643359Y-91813598D01*
X255447789Y-91705638D01*
X255442920Y-91703914D01*
X255442916Y-91703912D01*
X255242087Y-91632795D01*
X255242083Y-91632794D01*
X255237212Y-91631069D01*
X255232119Y-91630162D01*
X255232116Y-91630161D01*
X255022373Y-91592800D01*
X255022367Y-91592799D01*
X255017284Y-91591894D01*
X254943452Y-91590992D01*
X254799081Y-91589228D01*
X254799079Y-91589228D01*
X254793911Y-91589165D01*
X254573091Y-91622955D01*
X254360756Y-91692357D01*
X254331409Y-91707634D01*
X254181310Y-91785771D01*
X254162607Y-91795507D01*
X254158474Y-91798610D01*
X254158471Y-91798612D01*
X253988100Y-91926530D01*
X253983965Y-91929635D01*
X253965605Y-91948848D01*
X253849473Y-92070373D01*
X253829629Y-92091138D01*
X253826715Y-92095410D01*
X253826714Y-92095411D01*
X253806063Y-92125684D01*
X253703743Y-92275680D01*
X253668595Y-92351401D01*
X253624410Y-92446590D01*
X253609688Y-92478305D01*
X253549989Y-92693570D01*
X253526251Y-92915695D01*
X243166500Y-92915695D01*
X243166500Y-92182866D01*
X243159745Y-92120684D01*
X243108615Y-91984295D01*
X243021261Y-91867739D01*
X242904705Y-91780385D01*
X242768316Y-91729255D01*
X242706134Y-91722500D01*
X240909866Y-91722500D01*
X240847684Y-91729255D01*
X240711295Y-91780385D01*
X240594739Y-91867739D01*
X240507385Y-91984295D01*
X240456255Y-92120684D01*
X240449500Y-92182866D01*
X240449500Y-93979134D01*
X240456255Y-94041316D01*
X240507385Y-94177705D01*
X240594739Y-94294261D01*
X240711295Y-94381615D01*
X240719704Y-94384767D01*
X240719705Y-94384768D01*
X240828451Y-94425535D01*
X240885216Y-94468176D01*
X240909916Y-94534738D01*
X240894709Y-94604087D01*
X240875316Y-94630568D01*
X240770065Y-94740707D01*
X240748629Y-94763138D01*
X240622743Y-94947680D01*
X240528688Y-95150305D01*
X240468989Y-95365570D01*
X240445251Y-95587695D01*
X239684502Y-95587695D01*
X239702498Y-95382000D01*
X239682543Y-95153913D01*
X239623284Y-94932757D01*
X239620961Y-94927775D01*
X239528849Y-94730238D01*
X239528846Y-94730233D01*
X239526523Y-94725251D01*
X239415411Y-94566567D01*
X239398357Y-94542211D01*
X239398355Y-94542208D01*
X239395198Y-94537700D01*
X239233300Y-94375802D01*
X239228792Y-94372645D01*
X239228789Y-94372643D01*
X239144182Y-94313401D01*
X239045749Y-94244477D01*
X239040767Y-94242154D01*
X239040762Y-94242151D01*
X239006543Y-94226195D01*
X238953258Y-94179278D01*
X238933797Y-94111001D01*
X238954339Y-94043041D01*
X239006543Y-93997805D01*
X239040762Y-93981849D01*
X239040767Y-93981846D01*
X239045749Y-93979523D01*
X239226298Y-93853101D01*
X239228789Y-93851357D01*
X239228792Y-93851355D01*
X239233300Y-93848198D01*
X239395198Y-93686300D01*
X239404463Y-93673069D01*
X239467630Y-93582857D01*
X239526523Y-93498749D01*
X239528846Y-93493767D01*
X239528849Y-93493762D01*
X239620961Y-93296225D01*
X239620961Y-93296224D01*
X239623284Y-93291243D01*
X239653174Y-93179695D01*
X239681119Y-93075402D01*
X239681119Y-93075400D01*
X239682543Y-93070087D01*
X239702498Y-92842000D01*
X239682543Y-92613913D01*
X239633430Y-92430621D01*
X239624707Y-92398067D01*
X239624706Y-92398065D01*
X239623284Y-92392757D01*
X239619955Y-92385618D01*
X239528849Y-92190238D01*
X239528846Y-92190233D01*
X239526523Y-92185251D01*
X239436803Y-92057118D01*
X239398357Y-92002211D01*
X239398355Y-92002208D01*
X239395198Y-91997700D01*
X239233300Y-91835802D01*
X239228792Y-91832645D01*
X239228789Y-91832643D01*
X239149655Y-91777233D01*
X239045749Y-91704477D01*
X239040767Y-91702154D01*
X239040762Y-91702151D01*
X238843225Y-91610039D01*
X238843224Y-91610039D01*
X238838243Y-91607716D01*
X238832935Y-91606294D01*
X238832933Y-91606293D01*
X238622402Y-91549881D01*
X238622400Y-91549881D01*
X238617087Y-91548457D01*
X238389000Y-91528502D01*
X238160913Y-91548457D01*
X238155600Y-91549881D01*
X238155598Y-91549881D01*
X237945067Y-91606293D01*
X237945065Y-91606294D01*
X237939757Y-91607716D01*
X237934776Y-91610039D01*
X237934775Y-91610039D01*
X237737238Y-91702151D01*
X237737233Y-91702154D01*
X237732251Y-91704477D01*
X237628345Y-91777233D01*
X237549211Y-91832643D01*
X237549208Y-91832645D01*
X237544700Y-91835802D01*
X237382802Y-91997700D01*
X237379645Y-92002208D01*
X237379643Y-92002211D01*
X237341197Y-92057118D01*
X237251477Y-92185251D01*
X237249154Y-92190233D01*
X237249151Y-92190238D01*
X237158045Y-92385618D01*
X237154716Y-92392757D01*
X237153294Y-92398065D01*
X237153293Y-92398067D01*
X237144570Y-92430621D01*
X237095457Y-92613913D01*
X237075502Y-92842000D01*
X237095457Y-93070087D01*
X237096881Y-93075400D01*
X237096881Y-93075402D01*
X237124827Y-93179695D01*
X237154716Y-93291243D01*
X237157039Y-93296224D01*
X237157039Y-93296225D01*
X237249151Y-93493762D01*
X237249154Y-93493767D01*
X237251477Y-93498749D01*
X237310370Y-93582857D01*
X237373538Y-93673069D01*
X237382802Y-93686300D01*
X237544700Y-93848198D01*
X237549208Y-93851355D01*
X237549211Y-93851357D01*
X237551702Y-93853101D01*
X237732251Y-93979523D01*
X237737233Y-93981846D01*
X237737238Y-93981849D01*
X237771457Y-93997805D01*
X237824742Y-94044722D01*
X237844203Y-94112999D01*
X237823661Y-94180959D01*
X237771457Y-94226195D01*
X237737238Y-94242151D01*
X237737233Y-94242154D01*
X237732251Y-94244477D01*
X237633818Y-94313401D01*
X237549211Y-94372643D01*
X237549208Y-94372645D01*
X237544700Y-94375802D01*
X237382802Y-94537700D01*
X237379645Y-94542208D01*
X237379643Y-94542211D01*
X237362589Y-94566567D01*
X237251477Y-94725251D01*
X237249154Y-94730233D01*
X237249151Y-94730238D01*
X237157039Y-94927775D01*
X237154716Y-94932757D01*
X237095457Y-95153913D01*
X237075502Y-95382000D01*
X237095457Y-95610087D01*
X237096881Y-95615400D01*
X237096881Y-95615402D01*
X237146325Y-95799926D01*
X237154716Y-95831243D01*
X237157039Y-95836224D01*
X237157039Y-95836225D01*
X237249151Y-96033762D01*
X237249154Y-96033767D01*
X237251477Y-96038749D01*
X237299710Y-96107632D01*
X237365867Y-96202114D01*
X237382802Y-96226300D01*
X237544700Y-96388198D01*
X237549208Y-96391355D01*
X237549211Y-96391357D01*
X237587834Y-96418401D01*
X237732251Y-96519523D01*
X237737233Y-96521846D01*
X237737238Y-96521849D01*
X237771457Y-96537805D01*
X237824742Y-96584722D01*
X237844203Y-96652999D01*
X237823661Y-96720959D01*
X237771457Y-96766195D01*
X237737238Y-96782151D01*
X237737233Y-96782154D01*
X237732251Y-96784477D01*
X237641915Y-96847731D01*
X237549211Y-96912643D01*
X237549208Y-96912645D01*
X237544700Y-96915802D01*
X237382802Y-97077700D01*
X237379645Y-97082208D01*
X237379643Y-97082211D01*
X237369484Y-97096720D01*
X237251477Y-97265251D01*
X237249154Y-97270233D01*
X237249151Y-97270238D01*
X237195712Y-97384840D01*
X237154716Y-97472757D01*
X237153294Y-97478065D01*
X237153293Y-97478067D01*
X237103435Y-97664139D01*
X237095457Y-97693913D01*
X237075502Y-97922000D01*
X237095457Y-98150087D01*
X237096881Y-98155400D01*
X237096881Y-98155402D01*
X237137074Y-98305401D01*
X237154716Y-98371243D01*
X237157039Y-98376224D01*
X237157039Y-98376225D01*
X237249151Y-98573762D01*
X237249154Y-98573767D01*
X237251477Y-98578749D01*
X237299710Y-98647632D01*
X237370064Y-98748108D01*
X237382802Y-98766300D01*
X237544700Y-98928198D01*
X237549208Y-98931355D01*
X237549211Y-98931357D01*
X237627389Y-98986098D01*
X237732251Y-99059523D01*
X237737233Y-99061846D01*
X237737238Y-99061849D01*
X237771457Y-99077805D01*
X237824742Y-99124722D01*
X237844203Y-99192999D01*
X237823661Y-99260959D01*
X237771457Y-99306195D01*
X237737238Y-99322151D01*
X237737233Y-99322154D01*
X237732251Y-99324477D01*
X237641224Y-99388215D01*
X237549211Y-99452643D01*
X237549208Y-99452645D01*
X237544700Y-99455802D01*
X237382802Y-99617700D01*
X237379645Y-99622208D01*
X237379643Y-99622211D01*
X237345575Y-99670866D01*
X237251477Y-99805251D01*
X237249154Y-99810233D01*
X237249151Y-99810238D01*
X237162463Y-99996144D01*
X237154716Y-100012757D01*
X237153294Y-100018065D01*
X237153293Y-100018067D01*
X237120370Y-100140938D01*
X237095457Y-100233913D01*
X237075502Y-100462000D01*
X237095457Y-100690087D01*
X237096881Y-100695400D01*
X237096881Y-100695402D01*
X237140471Y-100858079D01*
X237154716Y-100911243D01*
X237157039Y-100916224D01*
X237157039Y-100916225D01*
X237249151Y-101113762D01*
X237249154Y-101113767D01*
X237251477Y-101118749D01*
X237267361Y-101141433D01*
X237355196Y-101266874D01*
X237382802Y-101306300D01*
X237544700Y-101468198D01*
X237549208Y-101471355D01*
X237549211Y-101471357D01*
X237589445Y-101499529D01*
X237732251Y-101599523D01*
X237737233Y-101601846D01*
X237737238Y-101601849D01*
X237771457Y-101617805D01*
X237824742Y-101664722D01*
X237844203Y-101732999D01*
X237823661Y-101800959D01*
X237771457Y-101846195D01*
X237737238Y-101862151D01*
X237737233Y-101862154D01*
X237732251Y-101864477D01*
X237683013Y-101898954D01*
X237549211Y-101992643D01*
X237549208Y-101992645D01*
X237544700Y-101995802D01*
X237382802Y-102157700D01*
X237251477Y-102345251D01*
X237249154Y-102350233D01*
X237249151Y-102350238D01*
X237234090Y-102382537D01*
X237154716Y-102552757D01*
X237153294Y-102558065D01*
X237153293Y-102558067D01*
X237139771Y-102608531D01*
X237095457Y-102773913D01*
X237075502Y-103002000D01*
X237095457Y-103230087D01*
X237096881Y-103235400D01*
X237096881Y-103235402D01*
X237151412Y-103438911D01*
X237154716Y-103451243D01*
X237157039Y-103456224D01*
X237157039Y-103456225D01*
X237249151Y-103653762D01*
X237249154Y-103653767D01*
X237251477Y-103658749D01*
X237382802Y-103846300D01*
X237544700Y-104008198D01*
X237549208Y-104011355D01*
X237549211Y-104011357D01*
X237583397Y-104035294D01*
X237732251Y-104139523D01*
X237737233Y-104141846D01*
X237737238Y-104141849D01*
X237771457Y-104157805D01*
X237824742Y-104204722D01*
X237844203Y-104272999D01*
X237823661Y-104340959D01*
X237771457Y-104386195D01*
X237737238Y-104402151D01*
X237737233Y-104402154D01*
X237732251Y-104404477D01*
X237708043Y-104421428D01*
X237549211Y-104532643D01*
X237549208Y-104532645D01*
X237544700Y-104535802D01*
X237382802Y-104697700D01*
X237251477Y-104885251D01*
X237249154Y-104890233D01*
X237249151Y-104890238D01*
X237237955Y-104914249D01*
X237154716Y-105092757D01*
X237095457Y-105313913D01*
X237075502Y-105542000D01*
X232082498Y-105542000D01*
X232062543Y-105313913D01*
X232003284Y-105092757D01*
X231920045Y-104914249D01*
X231908849Y-104890238D01*
X231908846Y-104890233D01*
X231906523Y-104885251D01*
X231775198Y-104697700D01*
X231613300Y-104535802D01*
X231608792Y-104532645D01*
X231608789Y-104532643D01*
X231449957Y-104421428D01*
X231425749Y-104404477D01*
X231420767Y-104402154D01*
X231420762Y-104402151D01*
X231386543Y-104386195D01*
X231333258Y-104339278D01*
X231313797Y-104271001D01*
X231334339Y-104203041D01*
X231386543Y-104157805D01*
X231420762Y-104141849D01*
X231420767Y-104141846D01*
X231425749Y-104139523D01*
X231574603Y-104035294D01*
X231608789Y-104011357D01*
X231608792Y-104011355D01*
X231613300Y-104008198D01*
X231775198Y-103846300D01*
X231906523Y-103658749D01*
X231908846Y-103653767D01*
X231908849Y-103653762D01*
X232000961Y-103456225D01*
X232000961Y-103456224D01*
X232003284Y-103451243D01*
X232006589Y-103438911D01*
X232061119Y-103235402D01*
X232061119Y-103235400D01*
X232062543Y-103230087D01*
X232082498Y-103002000D01*
X232062543Y-102773913D01*
X232018229Y-102608531D01*
X232004707Y-102558067D01*
X232004706Y-102558065D01*
X232003284Y-102552757D01*
X231923910Y-102382537D01*
X231908849Y-102350238D01*
X231908846Y-102350233D01*
X231906523Y-102345251D01*
X231775198Y-102157700D01*
X231613300Y-101995802D01*
X231608792Y-101992645D01*
X231608789Y-101992643D01*
X231474987Y-101898954D01*
X231425749Y-101864477D01*
X231420767Y-101862154D01*
X231420762Y-101862151D01*
X231386543Y-101846195D01*
X231333258Y-101799278D01*
X231313797Y-101731001D01*
X231334339Y-101663041D01*
X231386543Y-101617805D01*
X231420762Y-101601849D01*
X231420767Y-101601846D01*
X231425749Y-101599523D01*
X231568555Y-101499529D01*
X231608789Y-101471357D01*
X231608792Y-101471355D01*
X231613300Y-101468198D01*
X231775198Y-101306300D01*
X231802805Y-101266874D01*
X231890639Y-101141433D01*
X231906523Y-101118749D01*
X231908846Y-101113767D01*
X231908849Y-101113762D01*
X232000961Y-100916225D01*
X232000961Y-100916224D01*
X232003284Y-100911243D01*
X232017530Y-100858079D01*
X232061119Y-100695402D01*
X232061119Y-100695400D01*
X232062543Y-100690087D01*
X232082498Y-100462000D01*
X232062543Y-100233913D01*
X232037630Y-100140938D01*
X232004707Y-100018067D01*
X232004706Y-100018065D01*
X232003284Y-100012757D01*
X231995537Y-99996144D01*
X231908849Y-99810238D01*
X231908846Y-99810233D01*
X231906523Y-99805251D01*
X231812425Y-99670866D01*
X231778357Y-99622211D01*
X231778355Y-99622208D01*
X231775198Y-99617700D01*
X231613300Y-99455802D01*
X231608792Y-99452645D01*
X231608789Y-99452643D01*
X231516776Y-99388215D01*
X231425749Y-99324477D01*
X231420767Y-99322154D01*
X231420762Y-99322151D01*
X231386543Y-99306195D01*
X231333258Y-99259278D01*
X231313797Y-99191001D01*
X231334339Y-99123041D01*
X231386543Y-99077805D01*
X231420762Y-99061849D01*
X231420767Y-99061846D01*
X231425749Y-99059523D01*
X231530611Y-98986098D01*
X231608789Y-98931357D01*
X231608792Y-98931355D01*
X231613300Y-98928198D01*
X231775198Y-98766300D01*
X231787937Y-98748108D01*
X231858290Y-98647632D01*
X231906523Y-98578749D01*
X231908846Y-98573767D01*
X231908849Y-98573762D01*
X232000961Y-98376225D01*
X232000961Y-98376224D01*
X232003284Y-98371243D01*
X232020927Y-98305401D01*
X232061119Y-98155402D01*
X232061119Y-98155400D01*
X232062543Y-98150087D01*
X232082498Y-97922000D01*
X232062543Y-97693913D01*
X232054565Y-97664139D01*
X232004707Y-97478067D01*
X232004706Y-97478065D01*
X232003284Y-97472757D01*
X231962288Y-97384840D01*
X231908849Y-97270238D01*
X231908846Y-97270233D01*
X231906523Y-97265251D01*
X231788516Y-97096720D01*
X231778357Y-97082211D01*
X231778355Y-97082208D01*
X231775198Y-97077700D01*
X231613300Y-96915802D01*
X231608792Y-96912645D01*
X231608789Y-96912643D01*
X231516085Y-96847731D01*
X231425749Y-96784477D01*
X231420767Y-96782154D01*
X231420762Y-96782151D01*
X231386543Y-96766195D01*
X231333258Y-96719278D01*
X231313797Y-96651001D01*
X231334339Y-96583041D01*
X231386543Y-96537805D01*
X231420762Y-96521849D01*
X231420767Y-96521846D01*
X231425749Y-96519523D01*
X231570166Y-96418401D01*
X231608789Y-96391357D01*
X231608792Y-96391355D01*
X231613300Y-96388198D01*
X231775198Y-96226300D01*
X231792134Y-96202114D01*
X231858290Y-96107632D01*
X231906523Y-96038749D01*
X231908846Y-96033767D01*
X231908849Y-96033762D01*
X232000961Y-95836225D01*
X232000961Y-95836224D01*
X232003284Y-95831243D01*
X232011676Y-95799926D01*
X232061119Y-95615402D01*
X232061119Y-95615400D01*
X232062543Y-95610087D01*
X232082498Y-95382000D01*
X232062543Y-95153913D01*
X232003284Y-94932757D01*
X232000961Y-94927775D01*
X231908849Y-94730238D01*
X231908846Y-94730233D01*
X231906523Y-94725251D01*
X231795411Y-94566567D01*
X231778357Y-94542211D01*
X231778355Y-94542208D01*
X231775198Y-94537700D01*
X231613300Y-94375802D01*
X231608789Y-94372643D01*
X231604576Y-94369108D01*
X231605527Y-94367974D01*
X231565529Y-94317929D01*
X231558224Y-94247310D01*
X231590258Y-94183951D01*
X231651462Y-94147970D01*
X231668517Y-94144918D01*
X231679316Y-94143745D01*
X231815705Y-94092615D01*
X231932261Y-94005261D01*
X232019615Y-93888705D01*
X232070745Y-93752316D01*
X232077500Y-93690134D01*
X232077500Y-91993866D01*
X232070745Y-91931684D01*
X232019615Y-91795295D01*
X231932261Y-91678739D01*
X231815705Y-91591385D01*
X231679316Y-91540255D01*
X231617134Y-91533500D01*
X229920866Y-91533500D01*
X229858684Y-91540255D01*
X229722295Y-91591385D01*
X229605739Y-91678739D01*
X229518385Y-91795295D01*
X229467255Y-91931684D01*
X229460500Y-91993866D01*
X229460500Y-93690134D01*
X229467255Y-93752316D01*
X229518385Y-93888705D01*
X229605739Y-94005261D01*
X229722295Y-94092615D01*
X229858684Y-94143745D01*
X229869474Y-94144917D01*
X229871606Y-94145803D01*
X229874222Y-94146425D01*
X229874121Y-94146848D01*
X229935035Y-94172155D01*
X229975463Y-94230517D01*
X229977922Y-94301471D01*
X229941629Y-94362490D01*
X229932969Y-94369489D01*
X229929207Y-94372646D01*
X229924700Y-94375802D01*
X229762802Y-94537700D01*
X229759645Y-94542208D01*
X229759643Y-94542211D01*
X229742589Y-94566567D01*
X229631477Y-94725251D01*
X229629154Y-94730233D01*
X229629151Y-94730238D01*
X229537039Y-94927775D01*
X229534716Y-94932757D01*
X229475457Y-95153913D01*
X229455502Y-95382000D01*
X229475457Y-95610087D01*
X229476881Y-95615400D01*
X229476881Y-95615402D01*
X229526325Y-95799926D01*
X229534716Y-95831243D01*
X229537039Y-95836224D01*
X229537039Y-95836225D01*
X229629151Y-96033762D01*
X229629154Y-96033767D01*
X229631477Y-96038749D01*
X229679710Y-96107632D01*
X229745867Y-96202114D01*
X229762802Y-96226300D01*
X229924700Y-96388198D01*
X229929208Y-96391355D01*
X229929211Y-96391357D01*
X229967834Y-96418401D01*
X230112251Y-96519523D01*
X230117233Y-96521846D01*
X230117238Y-96521849D01*
X230151457Y-96537805D01*
X230204742Y-96584722D01*
X230224203Y-96652999D01*
X230203661Y-96720959D01*
X230151457Y-96766195D01*
X230117238Y-96782151D01*
X230117233Y-96782154D01*
X230112251Y-96784477D01*
X230021915Y-96847731D01*
X229929211Y-96912643D01*
X229929208Y-96912645D01*
X229924700Y-96915802D01*
X229762802Y-97077700D01*
X229759645Y-97082208D01*
X229759643Y-97082211D01*
X229749484Y-97096720D01*
X229631477Y-97265251D01*
X229629154Y-97270233D01*
X229629151Y-97270238D01*
X229575712Y-97384840D01*
X229534716Y-97472757D01*
X229533294Y-97478065D01*
X229533293Y-97478067D01*
X229483435Y-97664139D01*
X229475457Y-97693913D01*
X229473112Y-97720715D01*
X229467088Y-97789568D01*
X229441224Y-97855686D01*
X229383721Y-97897326D01*
X229315367Y-97901832D01*
X229294987Y-97897500D01*
X229104013Y-97897500D01*
X229097561Y-97898872D01*
X229097556Y-97898872D01*
X229014508Y-97916525D01*
X228917212Y-97937206D01*
X228911182Y-97939891D01*
X228911181Y-97939891D01*
X228748778Y-98012197D01*
X228748776Y-98012198D01*
X228742748Y-98014882D01*
X228737407Y-98018762D01*
X228737406Y-98018763D01*
X228723316Y-98029000D01*
X228588247Y-98127134D01*
X228583826Y-98132044D01*
X228583825Y-98132045D01*
X228492856Y-98233077D01*
X228460460Y-98269056D01*
X228364973Y-98434444D01*
X228305958Y-98616072D01*
X228305268Y-98622633D01*
X228305268Y-98622635D01*
X228290432Y-98763793D01*
X228285996Y-98806000D01*
X228286686Y-98812565D01*
X228301081Y-98949522D01*
X228305958Y-98995928D01*
X228364973Y-99177556D01*
X228368276Y-99183278D01*
X228368277Y-99183279D01*
X228451639Y-99327666D01*
X228468377Y-99396661D01*
X228445157Y-99463753D01*
X228431615Y-99479761D01*
X224625281Y-103286095D01*
X224562969Y-103320121D01*
X224536186Y-103323000D01*
X224483122Y-103323000D01*
X224476670Y-103324372D01*
X224476665Y-103324372D01*
X224389721Y-103342853D01*
X224296321Y-103362706D01*
X224290291Y-103365391D01*
X224290290Y-103365391D01*
X224127887Y-103437697D01*
X224127885Y-103437698D01*
X224121857Y-103440382D01*
X224116516Y-103444262D01*
X224116515Y-103444263D01*
X224106908Y-103451243D01*
X223967356Y-103552634D01*
X223962935Y-103557544D01*
X223962934Y-103557545D01*
X223847529Y-103685716D01*
X223839569Y-103694556D01*
X223744082Y-103859944D01*
X223685067Y-104041572D01*
X223684377Y-104048133D01*
X223684377Y-104048135D01*
X223671708Y-104168680D01*
X223665105Y-104231500D01*
X198635693Y-104231500D01*
X198619856Y-104199385D01*
X198490428Y-104026060D01*
X198331582Y-103879223D01*
X198326699Y-103876142D01*
X198326695Y-103876139D01*
X198153519Y-103766874D01*
X198153520Y-103766874D01*
X198148636Y-103763793D01*
X197947718Y-103683635D01*
X197948176Y-103682486D01*
X197893790Y-103647349D01*
X197864453Y-103582697D01*
X197874726Y-103512448D01*
X197921348Y-103458904D01*
X197948709Y-103445754D01*
X198092780Y-103396849D01*
X198281516Y-103291152D01*
X198447830Y-103152830D01*
X198586152Y-102986516D01*
X198691849Y-102797780D01*
X198733624Y-102674715D01*
X198759526Y-102598411D01*
X198759527Y-102598406D01*
X198761382Y-102592942D01*
X198762210Y-102587233D01*
X198762211Y-102587228D01*
X198791889Y-102382537D01*
X198792422Y-102378863D01*
X198794042Y-102317000D01*
X198774249Y-102101590D01*
X198715531Y-101893394D01*
X198619856Y-101699385D01*
X198490428Y-101526060D01*
X198331582Y-101379223D01*
X198326699Y-101376142D01*
X198326695Y-101376139D01*
X198153519Y-101266874D01*
X198153520Y-101266874D01*
X198148636Y-101263793D01*
X197947718Y-101183635D01*
X197948176Y-101182486D01*
X197893790Y-101147349D01*
X197864453Y-101082697D01*
X197874726Y-101012448D01*
X197921348Y-100958904D01*
X197948709Y-100945754D01*
X198092780Y-100896849D01*
X198281516Y-100791152D01*
X198447830Y-100652830D01*
X198586152Y-100486516D01*
X198691849Y-100297780D01*
X198721112Y-100211574D01*
X198759526Y-100098411D01*
X198759527Y-100098406D01*
X198761382Y-100092942D01*
X198762210Y-100087233D01*
X198762211Y-100087228D01*
X198791889Y-99882537D01*
X198792422Y-99878863D01*
X198794042Y-99817000D01*
X198776144Y-99622211D01*
X198774778Y-99607344D01*
X198774777Y-99607341D01*
X198774249Y-99601590D01*
X198715531Y-99393394D01*
X198619856Y-99199385D01*
X198490428Y-99026060D01*
X198367569Y-98912489D01*
X198335827Y-98883147D01*
X198331582Y-98879223D01*
X198326699Y-98876142D01*
X198326695Y-98876139D01*
X198153519Y-98766874D01*
X198153520Y-98766874D01*
X198148636Y-98763793D01*
X197947718Y-98683635D01*
X197808050Y-98655853D01*
X208916977Y-98655853D01*
X208922258Y-98662907D01*
X209083756Y-98757279D01*
X209093042Y-98761729D01*
X209292001Y-98837703D01*
X209301899Y-98840579D01*
X209510595Y-98883038D01*
X209520823Y-98884257D01*
X209733650Y-98892062D01*
X209743936Y-98891595D01*
X209955185Y-98864534D01*
X209965262Y-98862392D01*
X210169255Y-98801191D01*
X210178842Y-98797433D01*
X210370098Y-98703738D01*
X210378944Y-98698465D01*
X210426247Y-98664723D01*
X210434648Y-98654023D01*
X210427660Y-98640870D01*
X209689812Y-97903022D01*
X209675868Y-97895408D01*
X209674035Y-97895539D01*
X209667420Y-97899790D01*
X208923737Y-98643473D01*
X208916977Y-98655853D01*
X197808050Y-98655853D01*
X197735557Y-98641433D01*
X197729783Y-98641357D01*
X197729779Y-98641357D01*
X197619737Y-98639917D01*
X197519258Y-98638602D01*
X197513561Y-98639581D01*
X197513560Y-98639581D01*
X197311762Y-98674256D01*
X197306065Y-98675235D01*
X197103118Y-98750106D01*
X197098157Y-98753058D01*
X197098156Y-98753058D01*
X196922181Y-98857752D01*
X196922178Y-98857754D01*
X196917213Y-98860708D01*
X196754577Y-99003336D01*
X196751002Y-99007871D01*
X196751001Y-99007872D01*
X196625555Y-99167000D01*
X196620656Y-99173214D01*
X196519936Y-99364652D01*
X196455788Y-99571240D01*
X196430363Y-99786058D01*
X196444511Y-100001912D01*
X196497758Y-100211574D01*
X196588322Y-100408021D01*
X196713168Y-100584675D01*
X196868117Y-100735619D01*
X196872921Y-100738829D01*
X196884677Y-100746684D01*
X197047978Y-100855799D01*
X197053281Y-100858077D01*
X197053284Y-100858079D01*
X197131556Y-100891707D01*
X197246729Y-100941189D01*
X197261855Y-100944612D01*
X197323880Y-100979155D01*
X197357384Y-101041749D01*
X197351728Y-101112520D01*
X197308709Y-101168999D01*
X197277655Y-101185716D01*
X197103118Y-101250106D01*
X197098157Y-101253058D01*
X197098156Y-101253058D01*
X196922181Y-101357752D01*
X196922178Y-101357754D01*
X196917213Y-101360708D01*
X196754577Y-101503336D01*
X196751002Y-101507871D01*
X196751001Y-101507872D01*
X196626576Y-101665705D01*
X196620656Y-101673214D01*
X196519936Y-101864652D01*
X196455788Y-102071240D01*
X196430363Y-102286058D01*
X196444511Y-102501912D01*
X196497758Y-102711574D01*
X196588322Y-102908021D01*
X196591655Y-102912737D01*
X196699617Y-103065500D01*
X196713168Y-103084675D01*
X196868117Y-103235619D01*
X197047978Y-103355799D01*
X197053281Y-103358077D01*
X197053284Y-103358079D01*
X197131556Y-103391707D01*
X197246729Y-103441189D01*
X197261855Y-103444612D01*
X197323880Y-103479155D01*
X197357384Y-103541749D01*
X197351728Y-103612520D01*
X197308709Y-103668999D01*
X197277655Y-103685716D01*
X197103118Y-103750106D01*
X197098157Y-103753058D01*
X197098156Y-103753058D01*
X196922181Y-103857752D01*
X196922178Y-103857754D01*
X196917213Y-103860708D01*
X196754577Y-104003336D01*
X196751002Y-104007871D01*
X196751001Y-104007872D01*
X196649705Y-104136366D01*
X196620656Y-104173214D01*
X196519936Y-104364652D01*
X196455788Y-104571240D01*
X196430363Y-104786058D01*
X190331985Y-104786058D01*
X190349793Y-97502863D01*
X208315050Y-97502863D01*
X208327309Y-97715477D01*
X208328745Y-97725697D01*
X208375565Y-97933446D01*
X208378645Y-97943275D01*
X208458770Y-98140603D01*
X208463413Y-98149794D01*
X208543460Y-98280420D01*
X208553916Y-98289880D01*
X208562694Y-98286096D01*
X209304978Y-97543812D01*
X209312592Y-97529868D01*
X209312461Y-97528035D01*
X209308210Y-97521420D01*
X208566849Y-96780059D01*
X208555313Y-96773759D01*
X208543031Y-96783382D01*
X208495089Y-96853662D01*
X208490004Y-96862613D01*
X208400338Y-97055783D01*
X208396775Y-97065470D01*
X208339864Y-97270681D01*
X208337933Y-97280800D01*
X208315302Y-97492574D01*
X208315050Y-97502863D01*
X190349793Y-97502863D01*
X190356016Y-94957695D01*
X208314251Y-94957695D01*
X208314548Y-94962848D01*
X208314548Y-94962851D01*
X208317485Y-95013783D01*
X208327110Y-95180715D01*
X208328247Y-95185761D01*
X208328248Y-95185767D01*
X208338448Y-95231027D01*
X208376222Y-95398639D01*
X208460266Y-95605616D01*
X208508447Y-95684240D01*
X208574291Y-95791688D01*
X208576987Y-95796088D01*
X208723250Y-95964938D01*
X208804235Y-96032173D01*
X208884251Y-96098603D01*
X208895126Y-96107632D01*
X208912624Y-96117857D01*
X208968955Y-96150774D01*
X209017679Y-96202412D01*
X209030750Y-96272195D01*
X209004019Y-96337967D01*
X208963562Y-96371327D01*
X208955460Y-96375544D01*
X208946734Y-96381039D01*
X208926677Y-96396099D01*
X208918223Y-96407427D01*
X208924968Y-96419758D01*
X209664188Y-97158978D01*
X209678132Y-97166592D01*
X209679965Y-97166461D01*
X209686580Y-97162210D01*
X210430389Y-96418401D01*
X210437410Y-96405544D01*
X210430611Y-96396213D01*
X210426559Y-96393521D01*
X210389602Y-96373120D01*
X210339631Y-96322687D01*
X210324859Y-96253245D01*
X210349975Y-96186839D01*
X210377327Y-96160232D01*
X210400797Y-96143491D01*
X210556860Y-96032173D01*
X210715096Y-95874489D01*
X210774594Y-95791689D01*
X210845453Y-95693077D01*
X210846776Y-95694028D01*
X210893645Y-95650857D01*
X210963580Y-95638625D01*
X211029026Y-95666144D01*
X211056875Y-95697994D01*
X211116987Y-95796088D01*
X211263250Y-95964938D01*
X211344235Y-96032173D01*
X211424251Y-96098603D01*
X211435126Y-96107632D01*
X211452624Y-96117857D01*
X211508445Y-96150476D01*
X211557169Y-96202114D01*
X211570240Y-96271897D01*
X211543509Y-96337669D01*
X211503055Y-96371027D01*
X211490607Y-96377507D01*
X211486474Y-96380610D01*
X211486471Y-96380612D01*
X211316100Y-96508530D01*
X211311965Y-96511635D01*
X211308393Y-96515373D01*
X211178784Y-96651001D01*
X211157629Y-96673138D01*
X211154720Y-96677403D01*
X211154714Y-96677411D01*
X211142404Y-96695457D01*
X211050204Y-96830618D01*
X211049898Y-96831066D01*
X210994987Y-96876069D01*
X210924462Y-96884240D01*
X210860715Y-96852986D01*
X210840017Y-96828501D01*
X210810062Y-96782197D01*
X210799377Y-96772995D01*
X210789812Y-96777398D01*
X210049022Y-97518188D01*
X210041408Y-97532132D01*
X210041539Y-97533965D01*
X210045790Y-97540580D01*
X210787474Y-98282264D01*
X210799484Y-98288823D01*
X210811223Y-98279855D01*
X210845022Y-98232819D01*
X210846277Y-98233721D01*
X210893391Y-98190355D01*
X210963330Y-98178148D01*
X211028767Y-98205691D01*
X211056580Y-98237513D01*
X211114287Y-98331683D01*
X211114291Y-98331688D01*
X211116987Y-98336088D01*
X211263250Y-98504938D01*
X211300006Y-98535453D01*
X211425429Y-98639581D01*
X211435126Y-98647632D01*
X211628000Y-98760338D01*
X211632825Y-98762180D01*
X211632826Y-98762181D01*
X211643613Y-98766300D01*
X211836692Y-98840030D01*
X211841760Y-98841061D01*
X211841763Y-98841062D01*
X211923798Y-98857752D01*
X212055597Y-98884567D01*
X212060772Y-98884757D01*
X212060774Y-98884757D01*
X212273673Y-98892564D01*
X212273677Y-98892564D01*
X212278837Y-98892753D01*
X212283957Y-98892097D01*
X212283959Y-98892097D01*
X212495288Y-98865025D01*
X212495289Y-98865025D01*
X212500416Y-98864368D01*
X212505366Y-98862883D01*
X212709429Y-98801661D01*
X212709434Y-98801659D01*
X212714384Y-98800174D01*
X212914994Y-98701896D01*
X213096860Y-98572173D01*
X213255096Y-98414489D01*
X213327728Y-98313411D01*
X213385453Y-98233077D01*
X213386776Y-98234028D01*
X213433645Y-98190857D01*
X213503580Y-98178625D01*
X213569026Y-98206144D01*
X213596875Y-98237994D01*
X213656987Y-98336088D01*
X213803250Y-98504938D01*
X213840006Y-98535453D01*
X213965429Y-98639581D01*
X213975126Y-98647632D01*
X214168000Y-98760338D01*
X214172825Y-98762180D01*
X214172826Y-98762181D01*
X214183613Y-98766300D01*
X214376692Y-98840030D01*
X214381760Y-98841061D01*
X214381763Y-98841062D01*
X214463798Y-98857752D01*
X214595597Y-98884567D01*
X214600772Y-98884757D01*
X214600774Y-98884757D01*
X214813673Y-98892564D01*
X214813677Y-98892564D01*
X214818837Y-98892753D01*
X214823957Y-98892097D01*
X214823959Y-98892097D01*
X215035288Y-98865025D01*
X215035289Y-98865025D01*
X215040416Y-98864368D01*
X215045366Y-98862883D01*
X215249429Y-98801661D01*
X215249434Y-98801659D01*
X215254384Y-98800174D01*
X215454994Y-98701896D01*
X215636860Y-98572173D01*
X215795096Y-98414489D01*
X215867728Y-98313411D01*
X215922435Y-98237277D01*
X215925453Y-98233077D01*
X215930055Y-98223767D01*
X216022136Y-98037453D01*
X216022137Y-98037451D01*
X216024430Y-98032811D01*
X216059761Y-97916525D01*
X216087865Y-97824023D01*
X216087865Y-97824021D01*
X216089370Y-97819069D01*
X216118529Y-97597590D01*
X216120156Y-97531000D01*
X216101852Y-97308361D01*
X216047431Y-97091702D01*
X215958354Y-96886840D01*
X215894175Y-96787634D01*
X215839822Y-96703617D01*
X215839820Y-96703614D01*
X215837014Y-96699277D01*
X215686670Y-96534051D01*
X215644006Y-96500357D01*
X215602944Y-96442441D01*
X215599712Y-96371518D01*
X215635337Y-96310107D01*
X215668647Y-96287376D01*
X215674007Y-96284865D01*
X215680946Y-96282550D01*
X215831348Y-96189478D01*
X215956305Y-96064303D01*
X216009048Y-95978739D01*
X216045275Y-95919968D01*
X216045276Y-95919966D01*
X216049115Y-95913738D01*
X216104797Y-95745861D01*
X216115500Y-95641400D01*
X216115500Y-94340600D01*
X216115163Y-94337350D01*
X216105238Y-94241692D01*
X216105237Y-94241688D01*
X216104526Y-94234834D01*
X216094654Y-94205242D01*
X216050868Y-94074002D01*
X216048550Y-94067054D01*
X215997237Y-93984134D01*
X221018500Y-93984134D01*
X221025255Y-94046316D01*
X221076385Y-94182705D01*
X221163739Y-94299261D01*
X221280295Y-94386615D01*
X221416684Y-94437745D01*
X221478866Y-94444500D01*
X223275134Y-94444500D01*
X223337316Y-94437745D01*
X223473705Y-94386615D01*
X223590261Y-94299261D01*
X223677615Y-94182705D01*
X223691449Y-94145803D01*
X223721598Y-94065382D01*
X223764240Y-94008618D01*
X223830802Y-93983918D01*
X223900150Y-93999126D01*
X223934817Y-94027114D01*
X223963250Y-94059938D01*
X224135126Y-94202632D01*
X224328000Y-94315338D01*
X224332825Y-94317180D01*
X224332826Y-94317181D01*
X224390059Y-94339036D01*
X224536692Y-94395030D01*
X224541760Y-94396061D01*
X224541763Y-94396062D01*
X224649017Y-94417883D01*
X224755597Y-94439567D01*
X224760772Y-94439757D01*
X224760774Y-94439757D01*
X224973673Y-94447564D01*
X224973677Y-94447564D01*
X224978837Y-94447753D01*
X224983957Y-94447097D01*
X224983959Y-94447097D01*
X225195288Y-94420025D01*
X225195289Y-94420025D01*
X225200416Y-94419368D01*
X225205366Y-94417883D01*
X225409429Y-94356661D01*
X225409434Y-94356659D01*
X225414384Y-94355174D01*
X225614994Y-94256896D01*
X225796860Y-94127173D01*
X225804163Y-94119896D01*
X225926404Y-93998081D01*
X225955096Y-93969489D01*
X225986174Y-93926240D01*
X226085453Y-93788077D01*
X226086776Y-93789028D01*
X226133645Y-93745857D01*
X226203580Y-93733625D01*
X226269026Y-93761144D01*
X226296875Y-93792994D01*
X226356987Y-93891088D01*
X226360367Y-93894990D01*
X226371352Y-93907671D01*
X226503250Y-94059938D01*
X226675126Y-94202632D01*
X226868000Y-94315338D01*
X226872825Y-94317180D01*
X226872826Y-94317181D01*
X226930059Y-94339036D01*
X227076692Y-94395030D01*
X227081760Y-94396061D01*
X227081763Y-94396062D01*
X227189017Y-94417883D01*
X227295597Y-94439567D01*
X227300772Y-94439757D01*
X227300774Y-94439757D01*
X227513673Y-94447564D01*
X227513677Y-94447564D01*
X227518837Y-94447753D01*
X227523957Y-94447097D01*
X227523959Y-94447097D01*
X227735288Y-94420025D01*
X227735289Y-94420025D01*
X227740416Y-94419368D01*
X227745366Y-94417883D01*
X227949429Y-94356661D01*
X227949434Y-94356659D01*
X227954384Y-94355174D01*
X228154994Y-94256896D01*
X228336860Y-94127173D01*
X228344163Y-94119896D01*
X228466404Y-93998081D01*
X228495096Y-93969489D01*
X228526174Y-93926240D01*
X228622435Y-93792277D01*
X228625453Y-93788077D01*
X228639471Y-93759715D01*
X228722136Y-93592453D01*
X228722137Y-93592451D01*
X228724430Y-93587811D01*
X228789370Y-93374069D01*
X228818529Y-93152590D01*
X228820156Y-93086000D01*
X228801852Y-92863361D01*
X228747431Y-92646702D01*
X228658354Y-92441840D01*
X228599846Y-92351401D01*
X228539822Y-92258617D01*
X228539820Y-92258614D01*
X228537014Y-92254277D01*
X228386670Y-92089051D01*
X228382619Y-92085852D01*
X228382615Y-92085848D01*
X228215414Y-91953800D01*
X228215410Y-91953798D01*
X228211359Y-91950598D01*
X228191328Y-91939540D01*
X228136426Y-91909233D01*
X228015789Y-91842638D01*
X228010920Y-91840914D01*
X228010916Y-91840912D01*
X227810087Y-91769795D01*
X227810083Y-91769794D01*
X227805212Y-91768069D01*
X227800119Y-91767162D01*
X227800116Y-91767161D01*
X227590373Y-91729800D01*
X227590367Y-91729799D01*
X227585284Y-91728894D01*
X227511452Y-91727992D01*
X227367081Y-91726228D01*
X227367079Y-91726228D01*
X227361911Y-91726165D01*
X227141091Y-91759955D01*
X226928756Y-91829357D01*
X226898443Y-91845137D01*
X226742089Y-91926530D01*
X226730607Y-91932507D01*
X226726474Y-91935610D01*
X226726471Y-91935612D01*
X226557323Y-92062612D01*
X226551965Y-92066635D01*
X226548393Y-92070373D01*
X226409180Y-92216051D01*
X226397629Y-92228138D01*
X226290201Y-92385621D01*
X226235293Y-92430621D01*
X226164768Y-92438792D01*
X226101021Y-92407538D01*
X226080324Y-92383054D01*
X225999822Y-92258617D01*
X225999820Y-92258614D01*
X225997014Y-92254277D01*
X225846670Y-92089051D01*
X225842619Y-92085852D01*
X225842615Y-92085848D01*
X225675414Y-91953800D01*
X225675410Y-91953798D01*
X225671359Y-91950598D01*
X225651328Y-91939540D01*
X225596426Y-91909233D01*
X225475789Y-91842638D01*
X225470920Y-91840914D01*
X225470916Y-91840912D01*
X225270087Y-91769795D01*
X225270083Y-91769794D01*
X225265212Y-91768069D01*
X225260119Y-91767162D01*
X225260116Y-91767161D01*
X225050373Y-91729800D01*
X225050367Y-91729799D01*
X225045284Y-91728894D01*
X224971452Y-91727992D01*
X224827081Y-91726228D01*
X224827079Y-91726228D01*
X224821911Y-91726165D01*
X224601091Y-91759955D01*
X224388756Y-91829357D01*
X224358443Y-91845137D01*
X224202089Y-91926530D01*
X224190607Y-91932507D01*
X224186474Y-91935610D01*
X224186471Y-91935612D01*
X224017323Y-92062612D01*
X224011965Y-92066635D01*
X223955537Y-92125684D01*
X223931283Y-92151064D01*
X223869759Y-92186494D01*
X223798846Y-92183037D01*
X223741060Y-92141791D01*
X223722207Y-92108243D01*
X223680767Y-91997703D01*
X223677615Y-91989295D01*
X223590261Y-91872739D01*
X223473705Y-91785385D01*
X223337316Y-91734255D01*
X223275134Y-91727500D01*
X221478866Y-91727500D01*
X221416684Y-91734255D01*
X221280295Y-91785385D01*
X221163739Y-91872739D01*
X221076385Y-91989295D01*
X221025255Y-92125684D01*
X221018500Y-92187866D01*
X221018500Y-93984134D01*
X215997237Y-93984134D01*
X215955478Y-93916652D01*
X215830303Y-93791695D01*
X215816908Y-93783438D01*
X215685968Y-93702725D01*
X215685966Y-93702724D01*
X215679738Y-93698885D01*
X215575084Y-93664173D01*
X215518389Y-93645368D01*
X215518387Y-93645368D01*
X215511861Y-93643203D01*
X215505025Y-93642503D01*
X215505022Y-93642502D01*
X215461969Y-93638091D01*
X215407400Y-93632500D01*
X214106600Y-93632500D01*
X214103354Y-93632837D01*
X214103350Y-93632837D01*
X214007692Y-93642762D01*
X214007688Y-93642763D01*
X214000834Y-93643474D01*
X213994298Y-93645655D01*
X213994296Y-93645655D01*
X213931631Y-93666562D01*
X213833054Y-93699450D01*
X213682652Y-93792522D01*
X213677479Y-93797704D01*
X213619686Y-93855598D01*
X213557695Y-93917697D01*
X213553855Y-93923927D01*
X213553854Y-93923928D01*
X213479395Y-94044722D01*
X213464885Y-94068262D01*
X213462579Y-94075213D01*
X213460561Y-94079542D01*
X213413644Y-94132828D01*
X213345367Y-94152290D01*
X213277407Y-94131749D01*
X213253172Y-94111094D01*
X213150152Y-93997876D01*
X213150142Y-93997867D01*
X213146670Y-93994051D01*
X213142619Y-93990852D01*
X213142615Y-93990848D01*
X212975414Y-93858800D01*
X212975410Y-93858798D01*
X212971359Y-93855598D01*
X212963677Y-93851357D01*
X212911998Y-93822829D01*
X212775789Y-93747638D01*
X212770920Y-93745914D01*
X212770916Y-93745912D01*
X212570087Y-93674795D01*
X212570083Y-93674794D01*
X212565212Y-93673069D01*
X212560119Y-93672162D01*
X212560116Y-93672161D01*
X212350373Y-93634800D01*
X212350367Y-93634799D01*
X212345284Y-93633894D01*
X212271452Y-93632992D01*
X212127081Y-93631228D01*
X212127079Y-93631228D01*
X212121911Y-93631165D01*
X211901091Y-93664955D01*
X211688756Y-93734357D01*
X211643121Y-93758113D01*
X211568678Y-93796866D01*
X211490607Y-93837507D01*
X211486474Y-93840610D01*
X211486471Y-93840612D01*
X211320413Y-93965292D01*
X211311965Y-93971635D01*
X211286693Y-93998081D01*
X211166812Y-94123529D01*
X211157629Y-94133138D01*
X211050201Y-94290621D01*
X210995293Y-94335621D01*
X210924768Y-94343792D01*
X210861021Y-94312538D01*
X210840324Y-94288054D01*
X210759822Y-94163617D01*
X210759820Y-94163614D01*
X210757014Y-94159277D01*
X210606670Y-93994051D01*
X210602619Y-93990852D01*
X210602615Y-93990848D01*
X210435414Y-93858800D01*
X210435410Y-93858798D01*
X210431359Y-93855598D01*
X210423677Y-93851357D01*
X210371998Y-93822829D01*
X210235789Y-93747638D01*
X210230920Y-93745914D01*
X210230916Y-93745912D01*
X210030087Y-93674795D01*
X210030083Y-93674794D01*
X210025212Y-93673069D01*
X210020119Y-93672162D01*
X210020116Y-93672161D01*
X209810373Y-93634800D01*
X209810367Y-93634799D01*
X209805284Y-93633894D01*
X209731452Y-93632992D01*
X209587081Y-93631228D01*
X209587079Y-93631228D01*
X209581911Y-93631165D01*
X209361091Y-93664955D01*
X209148756Y-93734357D01*
X209103121Y-93758113D01*
X209028678Y-93796866D01*
X208950607Y-93837507D01*
X208946474Y-93840610D01*
X208946471Y-93840612D01*
X208780413Y-93965292D01*
X208771965Y-93971635D01*
X208746693Y-93998081D01*
X208626812Y-94123529D01*
X208617629Y-94133138D01*
X208614720Y-94137403D01*
X208614714Y-94137411D01*
X208580929Y-94186938D01*
X208491743Y-94317680D01*
X208445231Y-94417883D01*
X208408859Y-94496240D01*
X208397688Y-94520305D01*
X208337989Y-94735570D01*
X208314251Y-94957695D01*
X190356016Y-94957695D01*
X190360363Y-93179695D01*
X191296251Y-93179695D01*
X191296548Y-93184848D01*
X191296548Y-93184851D01*
X191307458Y-93374069D01*
X191309110Y-93402715D01*
X191310247Y-93407761D01*
X191310248Y-93407767D01*
X191331768Y-93503257D01*
X191358222Y-93620639D01*
X191415275Y-93761144D01*
X191428208Y-93792994D01*
X191442266Y-93827616D01*
X191457883Y-93853101D01*
X191551127Y-94005261D01*
X191558987Y-94018088D01*
X191705250Y-94186938D01*
X191877126Y-94329632D01*
X192070000Y-94442338D01*
X192074825Y-94444180D01*
X192074826Y-94444181D01*
X192083685Y-94447564D01*
X192278692Y-94522030D01*
X192283760Y-94523061D01*
X192283763Y-94523062D01*
X192341153Y-94534738D01*
X192497597Y-94566567D01*
X192502772Y-94566757D01*
X192502774Y-94566757D01*
X192715673Y-94574564D01*
X192715677Y-94574564D01*
X192720837Y-94574753D01*
X192725957Y-94574097D01*
X192725959Y-94574097D01*
X192937288Y-94547025D01*
X192937289Y-94547025D01*
X192942416Y-94546368D01*
X192971308Y-94537700D01*
X193151429Y-94483661D01*
X193151434Y-94483659D01*
X193156384Y-94482174D01*
X193356994Y-94383896D01*
X193538860Y-94254173D01*
X193647091Y-94146319D01*
X193709462Y-94112404D01*
X193780268Y-94117592D01*
X193837030Y-94160238D01*
X193854012Y-94191341D01*
X193876201Y-94250529D01*
X193898385Y-94309705D01*
X193985739Y-94426261D01*
X194102295Y-94513615D01*
X194238684Y-94564745D01*
X194300866Y-94571500D01*
X196097134Y-94571500D01*
X196159316Y-94564745D01*
X196295705Y-94513615D01*
X196412261Y-94426261D01*
X196499615Y-94309705D01*
X196550745Y-94173316D01*
X196557500Y-94111134D01*
X196557500Y-92314866D01*
X196550745Y-92252684D01*
X196499615Y-92116295D01*
X196412261Y-91999739D01*
X196295705Y-91912385D01*
X196159316Y-91861255D01*
X196097134Y-91854500D01*
X194300866Y-91854500D01*
X194238684Y-91861255D01*
X194102295Y-91912385D01*
X193985739Y-91999739D01*
X193898385Y-92116295D01*
X193895233Y-92124703D01*
X193853919Y-92234907D01*
X193811277Y-92291671D01*
X193744716Y-92316371D01*
X193675367Y-92301163D01*
X193642743Y-92275476D01*
X193592151Y-92219875D01*
X193592142Y-92219866D01*
X193588670Y-92216051D01*
X193584619Y-92212852D01*
X193584615Y-92212848D01*
X193417414Y-92080800D01*
X193417410Y-92080798D01*
X193413359Y-92077598D01*
X193393500Y-92066635D01*
X193361136Y-92048769D01*
X193217789Y-91969638D01*
X193212920Y-91967914D01*
X193212916Y-91967912D01*
X193012087Y-91896795D01*
X193012083Y-91896794D01*
X193007212Y-91895069D01*
X193002119Y-91894162D01*
X193002116Y-91894161D01*
X192792373Y-91856800D01*
X192792367Y-91856799D01*
X192787284Y-91855894D01*
X192713452Y-91854992D01*
X192569081Y-91853228D01*
X192569079Y-91853228D01*
X192563911Y-91853165D01*
X192343091Y-91886955D01*
X192130756Y-91956357D01*
X191932607Y-92059507D01*
X191928474Y-92062610D01*
X191928471Y-92062612D01*
X191758489Y-92190238D01*
X191753965Y-92193635D01*
X191724564Y-92224401D01*
X191660280Y-92291671D01*
X191599629Y-92355138D01*
X191596715Y-92359410D01*
X191596714Y-92359411D01*
X191548138Y-92430621D01*
X191473743Y-92539680D01*
X191439285Y-92613913D01*
X191389419Y-92721342D01*
X191379688Y-92742305D01*
X191319989Y-92957570D01*
X191296251Y-93179695D01*
X190360363Y-93179695D01*
X190367722Y-90170000D01*
X213589496Y-90170000D01*
X213609458Y-90359928D01*
X213668473Y-90541556D01*
X213763960Y-90706944D01*
X213891747Y-90848866D01*
X214046248Y-90961118D01*
X214052276Y-90963802D01*
X214052278Y-90963803D01*
X214214681Y-91036109D01*
X214220712Y-91038794D01*
X214314113Y-91058647D01*
X214401056Y-91077128D01*
X214401061Y-91077128D01*
X214407513Y-91078500D01*
X214598487Y-91078500D01*
X214604939Y-91077128D01*
X214604944Y-91077128D01*
X214691888Y-91058647D01*
X214785288Y-91038794D01*
X214791319Y-91036109D01*
X214953722Y-90963803D01*
X214953724Y-90963802D01*
X214959752Y-90961118D01*
X215114253Y-90848866D01*
X215118668Y-90843963D01*
X215123580Y-90839540D01*
X215125221Y-90841362D01*
X215176210Y-90809950D01*
X215209399Y-90805500D01*
X218453678Y-90805500D01*
X218521799Y-90825502D01*
X218562796Y-90868498D01*
X218595674Y-90925444D01*
X218600092Y-90930351D01*
X218600093Y-90930352D01*
X218695317Y-91036109D01*
X218723461Y-91067366D01*
X218877962Y-91179618D01*
X218883990Y-91182302D01*
X218883992Y-91182303D01*
X219046395Y-91254609D01*
X219052426Y-91257294D01*
X219145827Y-91277147D01*
X219232770Y-91295628D01*
X219232775Y-91295628D01*
X219239227Y-91297000D01*
X219430201Y-91297000D01*
X219436653Y-91295628D01*
X219436658Y-91295628D01*
X219523601Y-91277147D01*
X219617002Y-91257294D01*
X219623033Y-91254609D01*
X219785436Y-91182303D01*
X219785438Y-91182302D01*
X219791466Y-91179618D01*
X219945967Y-91067366D01*
X219974111Y-91036109D01*
X220069335Y-90930352D01*
X220069336Y-90930351D01*
X220073754Y-90925444D01*
X220169241Y-90760056D01*
X220228256Y-90578428D01*
X220232132Y-90541556D01*
X220247528Y-90395065D01*
X220248218Y-90388500D01*
X220228256Y-90198572D01*
X220169241Y-90016944D01*
X220073754Y-89851556D01*
X219945967Y-89709634D01*
X219791466Y-89597382D01*
X219785438Y-89594698D01*
X219785436Y-89594697D01*
X219623033Y-89522391D01*
X219623032Y-89522391D01*
X219617002Y-89519706D01*
X219523601Y-89499853D01*
X219436658Y-89481372D01*
X219436653Y-89481372D01*
X219430201Y-89480000D01*
X219239227Y-89480000D01*
X219232775Y-89481372D01*
X219232770Y-89481372D01*
X219145826Y-89499853D01*
X219052426Y-89519706D01*
X219046399Y-89522389D01*
X219046391Y-89522392D01*
X219043663Y-89523607D01*
X219040743Y-89524228D01*
X219040114Y-89524432D01*
X219040093Y-89524366D01*
X218992415Y-89534500D01*
X215209399Y-89534500D01*
X215141278Y-89514498D01*
X215124092Y-89499891D01*
X215123580Y-89500460D01*
X215118668Y-89496037D01*
X215114253Y-89491134D01*
X214959752Y-89378882D01*
X214953724Y-89376198D01*
X214953722Y-89376197D01*
X214791319Y-89303891D01*
X214791318Y-89303891D01*
X214785288Y-89301206D01*
X214691887Y-89281353D01*
X214604944Y-89262872D01*
X214604939Y-89262872D01*
X214598487Y-89261500D01*
X214407513Y-89261500D01*
X214401061Y-89262872D01*
X214401056Y-89262872D01*
X214314113Y-89281353D01*
X214220712Y-89301206D01*
X214214682Y-89303891D01*
X214214681Y-89303891D01*
X214052278Y-89376197D01*
X214052276Y-89376198D01*
X214046248Y-89378882D01*
X213891747Y-89491134D01*
X213887326Y-89496044D01*
X213887325Y-89496045D01*
X213792587Y-89601263D01*
X213763960Y-89633056D01*
X213668473Y-89798444D01*
X213609458Y-89980072D01*
X213608768Y-89986633D01*
X213608768Y-89986635D01*
X213604922Y-90023229D01*
X213589496Y-90170000D01*
X190367722Y-90170000D01*
X190372693Y-88136692D01*
X190392862Y-88068620D01*
X190446631Y-88022259D01*
X190498693Y-88011000D01*
X192354532Y-88011000D01*
X192413491Y-88025646D01*
G37*
%TD.AperFunction*%
%TD*%
M02*
