%TF.GenerationSoftware,KiCad,Pcbnew,(6.0.1)*%
%TF.CreationDate,2022-03-08T00:57:02-06:00*%
%TF.ProjectId,mcu_board,6d63755f-626f-4617-9264-2e6b69636164,rev?*%
%TF.SameCoordinates,Original*%
%TF.FileFunction,Soldermask,Bot*%
%TF.FilePolarity,Negative*%
%FSLAX46Y46*%
G04 Gerber Fmt 4.6, Leading zero omitted, Abs format (unit mm)*
G04 Created by KiCad (PCBNEW (6.0.1)) date 2022-03-08 00:57:02*
%MOMM*%
%LPD*%
G01*
G04 APERTURE LIST*
G04 Aperture macros list*
%AMRoundRect*
0 Rectangle with rounded corners*
0 $1 Rounding radius*
0 $2 $3 $4 $5 $6 $7 $8 $9 X,Y pos of 4 corners*
0 Add a 4 corners polygon primitive as box body*
4,1,4,$2,$3,$4,$5,$6,$7,$8,$9,$2,$3,0*
0 Add four circle primitives for the rounded corners*
1,1,$1+$1,$2,$3*
1,1,$1+$1,$4,$5*
1,1,$1+$1,$6,$7*
1,1,$1+$1,$8,$9*
0 Add four rect primitives between the rounded corners*
20,1,$1+$1,$2,$3,$4,$5,0*
20,1,$1+$1,$4,$5,$6,$7,0*
20,1,$1+$1,$6,$7,$8,$9,0*
20,1,$1+$1,$8,$9,$2,$3,0*%
G04 Aperture macros list end*
%ADD10C,3.200000*%
%ADD11R,1.700000X1.700000*%
%ADD12O,1.700000X1.700000*%
%ADD13C,1.500000*%
%ADD14R,1.600000X1.600000*%
%ADD15O,1.600000X1.600000*%
%ADD16C,1.337000*%
%ADD17RoundRect,0.250000X-0.600000X0.600000X-0.600000X-0.600000X0.600000X-0.600000X0.600000X0.600000X0*%
%ADD18C,1.700000*%
G04 APERTURE END LIST*
D10*
%TO.C,H2*%
X193294000Y-141859000D03*
%TD*%
D11*
%TO.C,J1*%
X223647000Y-129530000D03*
D12*
X223647000Y-132070000D03*
%TD*%
D13*
%TO.C,Y1*%
X224282000Y-117524000D03*
X224282000Y-112644000D03*
%TD*%
D14*
%TO.C,U1*%
X230769000Y-92842000D03*
D15*
X230769000Y-95382000D03*
X230769000Y-97922000D03*
X230769000Y-100462000D03*
X230769000Y-103002000D03*
X230769000Y-105542000D03*
X230769000Y-108082000D03*
X230769000Y-110622000D03*
X230769000Y-113162000D03*
X230769000Y-115702000D03*
X230769000Y-118242000D03*
X230769000Y-120782000D03*
X230769000Y-123322000D03*
X230769000Y-125862000D03*
X238389000Y-125862000D03*
X238389000Y-123322000D03*
X238389000Y-120782000D03*
X238389000Y-118242000D03*
X238389000Y-115702000D03*
X238389000Y-113162000D03*
X238389000Y-110622000D03*
X238389000Y-108082000D03*
X238389000Y-105542000D03*
X238389000Y-103002000D03*
X238389000Y-100462000D03*
X238389000Y-97922000D03*
X238389000Y-95382000D03*
X238389000Y-92842000D03*
%TD*%
D16*
%TO.C,PS1*%
X197612000Y-117317000D03*
X197612000Y-114817000D03*
X197612000Y-112317000D03*
X197612000Y-109817000D03*
X197612000Y-104817000D03*
X197612000Y-102317000D03*
X197612000Y-99817000D03*
%TD*%
D11*
%TO.C,J10*%
X230759000Y-132075000D03*
D12*
X233299000Y-132075000D03*
X235839000Y-132075000D03*
X238379000Y-132075000D03*
%TD*%
%TO.C,J9*%
X227457000Y-93086000D03*
X224917000Y-93086000D03*
D11*
X222377000Y-93086000D03*
%TD*%
D17*
%TO.C,J8*%
X214757000Y-94991000D03*
D18*
X214757000Y-97531000D03*
X212217000Y-94991000D03*
X212217000Y-97531000D03*
X209677000Y-94991000D03*
X209677000Y-97531000D03*
%TD*%
D11*
%TO.C,J7*%
X194198000Y-129154000D03*
D12*
X196738000Y-129154000D03*
X199278000Y-129154000D03*
%TD*%
%TO.C,J6*%
X192659000Y-93213000D03*
D11*
X195199000Y-93213000D03*
%TD*%
%TO.C,J5*%
X248412000Y-109474000D03*
D12*
X248412000Y-106934000D03*
%TD*%
%TO.C,J4*%
X241808000Y-95621000D03*
D11*
X241808000Y-93081000D03*
%TD*%
%TO.C,J3*%
X248285000Y-101707000D03*
D12*
X248285000Y-99167000D03*
X248285000Y-96627000D03*
%TD*%
D11*
%TO.C,J2*%
X254889000Y-100569000D03*
D12*
X254889000Y-98029000D03*
X254889000Y-95489000D03*
X254889000Y-92949000D03*
%TD*%
D10*
%TO.C,H4*%
X256794000Y-141859000D03*
%TD*%
%TO.C,H3*%
X256794000Y-86106000D03*
%TD*%
%TO.C,H1*%
X193294000Y-86106000D03*
%TD*%
M02*
