%TF.GenerationSoftware,KiCad,Pcbnew,(6.0.1)*%
%TF.CreationDate,2022-03-08T00:57:02-06:00*%
%TF.ProjectId,mcu_board,6d63755f-626f-4617-9264-2e6b69636164,rev?*%
%TF.SameCoordinates,Original*%
%TF.FileFunction,Copper,L1,Top*%
%TF.FilePolarity,Positive*%
%FSLAX46Y46*%
G04 Gerber Fmt 4.6, Leading zero omitted, Abs format (unit mm)*
G04 Created by KiCad (PCBNEW (6.0.1)) date 2022-03-08 00:57:02*
%MOMM*%
%LPD*%
G01*
G04 APERTURE LIST*
G04 Aperture macros list*
%AMRoundRect*
0 Rectangle with rounded corners*
0 $1 Rounding radius*
0 $2 $3 $4 $5 $6 $7 $8 $9 X,Y pos of 4 corners*
0 Add a 4 corners polygon primitive as box body*
4,1,4,$2,$3,$4,$5,$6,$7,$8,$9,$2,$3,0*
0 Add four circle primitives for the rounded corners*
1,1,$1+$1,$2,$3*
1,1,$1+$1,$4,$5*
1,1,$1+$1,$6,$7*
1,1,$1+$1,$8,$9*
0 Add four rect primitives between the rounded corners*
20,1,$1+$1,$2,$3,$4,$5,0*
20,1,$1+$1,$4,$5,$6,$7,0*
20,1,$1+$1,$6,$7,$8,$9,0*
20,1,$1+$1,$8,$9,$2,$3,0*%
G04 Aperture macros list end*
%TA.AperFunction,ComponentPad*%
%ADD10R,1.700000X1.700000*%
%TD*%
%TA.AperFunction,ComponentPad*%
%ADD11O,1.700000X1.700000*%
%TD*%
%TA.AperFunction,ComponentPad*%
%ADD12C,1.500000*%
%TD*%
%TA.AperFunction,ComponentPad*%
%ADD13R,1.600000X1.600000*%
%TD*%
%TA.AperFunction,ComponentPad*%
%ADD14O,1.600000X1.600000*%
%TD*%
%TA.AperFunction,SMDPad,CuDef*%
%ADD15R,1.600000X1.400000*%
%TD*%
%TA.AperFunction,ComponentPad*%
%ADD16C,1.337000*%
%TD*%
%TA.AperFunction,ComponentPad*%
%ADD17RoundRect,0.250000X-0.600000X0.600000X-0.600000X-0.600000X0.600000X-0.600000X0.600000X0.600000X0*%
%TD*%
%TA.AperFunction,ComponentPad*%
%ADD18C,1.700000*%
%TD*%
%TA.AperFunction,SMDPad,CuDef*%
%ADD19RoundRect,0.237500X0.237500X-0.300000X0.237500X0.300000X-0.237500X0.300000X-0.237500X-0.300000X0*%
%TD*%
%TA.AperFunction,SMDPad,CuDef*%
%ADD20RoundRect,0.237500X-0.237500X0.300000X-0.237500X-0.300000X0.237500X-0.300000X0.237500X0.300000X0*%
%TD*%
%TA.AperFunction,SMDPad,CuDef*%
%ADD21RoundRect,0.250000X0.450000X-0.350000X0.450000X0.350000X-0.450000X0.350000X-0.450000X-0.350000X0*%
%TD*%
%TA.AperFunction,SMDPad,CuDef*%
%ADD22RoundRect,0.250000X-0.450000X0.350000X-0.450000X-0.350000X0.450000X-0.350000X0.450000X0.350000X0*%
%TD*%
%TA.AperFunction,SMDPad,CuDef*%
%ADD23RoundRect,0.250000X-0.650000X0.412500X-0.650000X-0.412500X0.650000X-0.412500X0.650000X0.412500X0*%
%TD*%
%TA.AperFunction,SMDPad,CuDef*%
%ADD24RoundRect,0.237500X-0.300000X-0.237500X0.300000X-0.237500X0.300000X0.237500X-0.300000X0.237500X0*%
%TD*%
%TA.AperFunction,SMDPad,CuDef*%
%ADD25R,1.200000X0.900000*%
%TD*%
%TA.AperFunction,SMDPad,CuDef*%
%ADD26RoundRect,0.237500X0.300000X0.237500X-0.300000X0.237500X-0.300000X-0.237500X0.300000X-0.237500X0*%
%TD*%
%TA.AperFunction,ViaPad*%
%ADD27C,0.800000*%
%TD*%
%TA.AperFunction,Conductor*%
%ADD28C,0.254000*%
%TD*%
%TA.AperFunction,Conductor*%
%ADD29C,0.762000*%
%TD*%
%TA.AperFunction,Conductor*%
%ADD30C,1.778000*%
%TD*%
%TA.AperFunction,Conductor*%
%ADD31C,0.508000*%
%TD*%
%TA.AperFunction,Conductor*%
%ADD32C,1.016000*%
%TD*%
G04 APERTURE END LIST*
D10*
%TO.P,J1,1,Pin_1*%
%TO.N,Pedestrian*%
X223647000Y-129530000D03*
D11*
%TO.P,J1,2,Pin_2*%
%TO.N,Bike*%
X223647000Y-132070000D03*
%TD*%
D12*
%TO.P,Y1,2,2*%
%TO.N,MCU_XTAL2*%
X224282000Y-117524000D03*
%TO.P,Y1,1,1*%
%TO.N,MCU_XTAL1*%
X224282000Y-112644000D03*
%TD*%
D13*
%TO.P,U1,1,~{RESET}/PC6*%
%TO.N,MCU_N_RESET*%
X230769000Y-92842000D03*
D14*
%TO.P,U1,2,PD0*%
%TO.N,unconnected-(U1-Pad2)*%
X230769000Y-95382000D03*
%TO.P,U1,3,PD1*%
%TO.N,unconnected-(U1-Pad3)*%
X230769000Y-97922000D03*
%TO.P,U1,4,PD2*%
%TO.N,Solar*%
X230769000Y-100462000D03*
%TO.P,U1,5,PD3*%
%TO.N,Grid*%
X230769000Y-103002000D03*
%TO.P,U1,6,PD4*%
%TO.N,Resistor*%
X230769000Y-105542000D03*
%TO.P,U1,7,VCC*%
%TO.N,+5V*%
X230769000Y-108082000D03*
%TO.P,U1,8,GND*%
%TO.N,GND1*%
X230769000Y-110622000D03*
%TO.P,U1,9,XTAL1/PB6*%
%TO.N,MCU_XTAL1*%
X230769000Y-113162000D03*
%TO.P,U1,10,XTAL2/PB7*%
%TO.N,MCU_XTAL2*%
X230769000Y-115702000D03*
%TO.P,U1,11,PD5*%
%TO.N,Red*%
X230769000Y-118242000D03*
%TO.P,U1,12,PD6*%
%TO.N,Green*%
X230769000Y-120782000D03*
%TO.P,U1,13,PD7*%
%TO.N,Pedestrian*%
X230769000Y-123322000D03*
%TO.P,U1,14,PB0*%
%TO.N,Bike*%
X230769000Y-125862000D03*
%TO.P,U1,15,PB1*%
%TO.N,Yellow*%
X238389000Y-125862000D03*
%TO.P,U1,16,PB2*%
%TO.N,Walk_Light*%
X238389000Y-123322000D03*
%TO.P,U1,17,PB3*%
%TO.N,MCU_MOSI*%
X238389000Y-120782000D03*
%TO.P,U1,18,PB4*%
%TO.N,MCU_MISO*%
X238389000Y-118242000D03*
%TO.P,U1,19,PB5*%
%TO.N,MCU_SCK*%
X238389000Y-115702000D03*
%TO.P,U1,20,AVCC*%
%TO.N,+5V*%
X238389000Y-113162000D03*
%TO.P,U1,21,AREF*%
%TO.N,Net-(C1-Pad1)*%
X238389000Y-110622000D03*
%TO.P,U1,22,GND*%
%TO.N,GND1*%
X238389000Y-108082000D03*
%TO.P,U1,23,PC0*%
%TO.N,Photoresistor*%
X238389000Y-105542000D03*
%TO.P,U1,24,PC1*%
%TO.N,Vo*%
X238389000Y-103002000D03*
%TO.P,U1,25,PC2*%
%TO.N,unconnected-(U1-Pad25)*%
X238389000Y-100462000D03*
%TO.P,U1,26,PC3*%
%TO.N,unconnected-(U1-Pad26)*%
X238389000Y-97922000D03*
%TO.P,U1,27,PC4*%
%TO.N,SDA*%
X238389000Y-95382000D03*
%TO.P,U1,28,PC5*%
%TO.N,SCL*%
X238389000Y-92842000D03*
%TD*%
D15*
%TO.P,SW1,1,1*%
%TO.N,MCU_N_RESET*%
X215944000Y-105810000D03*
X208744000Y-105810000D03*
%TO.P,SW1,2,2*%
%TO.N,GND1*%
X215944000Y-108810000D03*
X208744000Y-108810000D03*
%TD*%
D16*
%TO.P,PS1,8,N.C._2*%
%TO.N,unconnected-(PS1-Pad8)*%
X197612000Y-117317000D03*
%TO.P,PS1,7,-VOUT*%
%TO.N,GND1*%
X197612000Y-114817000D03*
%TO.P,PS1,6,+VOUT*%
%TO.N,+5V*%
X197612000Y-112317000D03*
%TO.P,PS1,5,N.C._1*%
%TO.N,unconnected-(PS1-Pad5)*%
X197612000Y-109817000D03*
%TO.P,PS1,3,R.C.*%
%TO.N,unconnected-(PS1-Pad3)*%
X197612000Y-104817000D03*
%TO.P,PS1,2,+VIN*%
%TO.N,+24V*%
X197612000Y-102317000D03*
%TO.P,PS1,1,-VIN*%
%TO.N,GND*%
X197612000Y-99817000D03*
%TD*%
D10*
%TO.P,J10,1,Pin_1*%
%TO.N,Green*%
X230759000Y-132075000D03*
D11*
%TO.P,J10,2,Pin_2*%
%TO.N,Red*%
X233299000Y-132075000D03*
%TO.P,J10,3,Pin_3*%
%TO.N,Yellow*%
X235839000Y-132075000D03*
%TO.P,J10,4,Pin_4*%
%TO.N,Walk_Light*%
X238379000Y-132075000D03*
%TD*%
%TO.P,J9,3,Pin_3*%
%TO.N,Solar*%
X227457000Y-93086000D03*
%TO.P,J9,2,Pin_2*%
%TO.N,Grid*%
X224917000Y-93086000D03*
D10*
%TO.P,J9,1,Pin_1*%
%TO.N,Resistor*%
X222377000Y-93086000D03*
%TD*%
D17*
%TO.P,J8,1,MISO*%
%TO.N,MCU_MISO*%
X214757000Y-94991000D03*
D18*
%TO.P,J8,2,VCC*%
%TO.N,Net-(D1-Pad2)*%
X214757000Y-97531000D03*
%TO.P,J8,3,SCK*%
%TO.N,MCU_SCK*%
X212217000Y-94991000D03*
%TO.P,J8,4,MOSI*%
%TO.N,MCU_MOSI*%
X212217000Y-97531000D03*
%TO.P,J8,5,~{RST}*%
%TO.N,MCU_N_RESET*%
X209677000Y-94991000D03*
%TO.P,J8,6,GND*%
%TO.N,GND1*%
X209677000Y-97531000D03*
%TD*%
D10*
%TO.P,J7,1,Pin_1*%
%TO.N,+5V*%
X194198000Y-129154000D03*
D11*
%TO.P,J7,2,Pin_2*%
%TO.N,GND1*%
X196738000Y-129154000D03*
%TO.P,J7,3,Pin_3*%
X199278000Y-129154000D03*
%TD*%
%TO.P,J6,2,Pin_2*%
%TO.N,GND*%
X192659000Y-93213000D03*
D10*
%TO.P,J6,1,Pin_1*%
%TO.N,+24V*%
X195199000Y-93213000D03*
%TD*%
%TO.P,J5,1,Pin_1*%
%TO.N,+5V*%
X248412000Y-109474000D03*
D11*
%TO.P,J5,2,Pin_2*%
%TO.N,Photoresistor*%
X248412000Y-106934000D03*
%TD*%
%TO.P,J4,2,Pin_2*%
%TO.N,SDA*%
X241808000Y-95621000D03*
D10*
%TO.P,J4,1,Pin_1*%
%TO.N,SCL*%
X241808000Y-93081000D03*
%TD*%
%TO.P,J3,1,Pin_1*%
%TO.N,+5V*%
X248285000Y-101707000D03*
D11*
%TO.P,J3,2,Pin_2*%
%TO.N,Vo*%
X248285000Y-99167000D03*
%TO.P,J3,3,Pin_3*%
%TO.N,GND1*%
X248285000Y-96627000D03*
%TD*%
D10*
%TO.P,J2,1,Pin_1*%
%TO.N,+5V*%
X254889000Y-100569000D03*
D11*
%TO.P,J2,2,Pin_2*%
%TO.N,SDA*%
X254889000Y-98029000D03*
%TO.P,J2,3,Pin_3*%
%TO.N,GND1*%
X254889000Y-95489000D03*
%TO.P,J2,4,Pin_4*%
%TO.N,SCL*%
X254889000Y-92949000D03*
%TD*%
D19*
%TO.P,C10,1*%
%TO.N,MCU_XTAL1*%
X228346000Y-112871500D03*
%TO.P,C10,2*%
%TO.N,GND1*%
X228346000Y-111146500D03*
%TD*%
D20*
%TO.P,C12,1*%
%TO.N,MCU_XTAL2*%
X228346000Y-115591500D03*
%TO.P,C12,2*%
%TO.N,GND1*%
X228346000Y-117316500D03*
%TD*%
D21*
%TO.P,R6,1*%
%TO.N,+5V*%
X206375000Y-108437000D03*
%TO.P,R6,2*%
%TO.N,MCU_N_RESET*%
X206375000Y-106437000D03*
%TD*%
D20*
%TO.P,C11,1*%
%TO.N,MCU_N_RESET*%
X218186000Y-106447500D03*
%TO.P,C11,2*%
%TO.N,GND1*%
X218186000Y-108172500D03*
%TD*%
D22*
%TO.P,R1,1*%
%TO.N,Photoresistor*%
X241681000Y-105929000D03*
%TO.P,R1,2*%
%TO.N,GND1*%
X241681000Y-107929000D03*
%TD*%
D23*
%TO.P,C2,1*%
%TO.N,+5V*%
X204089000Y-112224500D03*
%TO.P,C2,2*%
%TO.N,GND1*%
X204089000Y-115349500D03*
%TD*%
D24*
%TO.P,C1,1*%
%TO.N,Net-(C1-Pad1)*%
X240818500Y-110612000D03*
%TO.P,C1,2*%
%TO.N,GND1*%
X242543500Y-110612000D03*
%TD*%
%TO.P,C8,1*%
%TO.N,+5V*%
X240818500Y-113152000D03*
%TO.P,C8,2*%
%TO.N,GND1*%
X242543500Y-113152000D03*
%TD*%
D25*
%TO.P,D1,1,K*%
%TO.N,+5V*%
X223139000Y-100578000D03*
%TO.P,D1,2,A*%
%TO.N,Net-(D1-Pad2)*%
X223139000Y-97278000D03*
%TD*%
D26*
%TO.P,C6,1*%
%TO.N,+5V*%
X228319500Y-106548000D03*
%TO.P,C6,2*%
%TO.N,GND1*%
X226594500Y-106548000D03*
%TD*%
D27*
%TO.N,GND1*%
X215900000Y-110236000D03*
X242570000Y-112014000D03*
X242443000Y-109601000D03*
X243078000Y-107950000D03*
X228346000Y-118364000D03*
X228346000Y-110109000D03*
X226568000Y-107569000D03*
X208788000Y-109982000D03*
X204089000Y-116332000D03*
%TO.N,MCU_N_RESET*%
X219334714Y-90388500D03*
X214503000Y-90170000D03*
X229199500Y-98806000D03*
X224578609Y-104231500D03*
%TD*%
D28*
%TO.N,GND1*%
X215944000Y-110192000D02*
X215900000Y-110236000D01*
X215944000Y-108810000D02*
X215944000Y-110192000D01*
D29*
X242543500Y-112040500D02*
X242570000Y-112014000D01*
X242543500Y-113152000D02*
X242543500Y-112040500D01*
X242543500Y-109701500D02*
X242443000Y-109601000D01*
X242543500Y-110612000D02*
X242543500Y-109701500D01*
X243057000Y-107929000D02*
X243078000Y-107950000D01*
X241681000Y-107929000D02*
X243057000Y-107929000D01*
X228346000Y-117316500D02*
X228346000Y-118364000D01*
X228346000Y-111146500D02*
X228346000Y-110109000D01*
X226594500Y-107542500D02*
X226568000Y-107569000D01*
X226594500Y-106548000D02*
X226594500Y-107542500D01*
D28*
X217548500Y-108810000D02*
X218186000Y-108172500D01*
X215944000Y-108810000D02*
X217548500Y-108810000D01*
D29*
X208744000Y-109938000D02*
X208788000Y-109982000D01*
X208744000Y-108810000D02*
X208744000Y-109938000D01*
X204089000Y-115349500D02*
X204089000Y-116332000D01*
X199296500Y-115349500D02*
X204089000Y-115349500D01*
X198764000Y-114817000D02*
X199296500Y-115349500D01*
X197612000Y-114817000D02*
X198764000Y-114817000D01*
D28*
%TO.N,MCU_N_RESET*%
X228315500Y-90388500D02*
X230769000Y-92842000D01*
X219334714Y-90388500D02*
X228315500Y-90388500D01*
X214498000Y-90170000D02*
X214503000Y-90170000D01*
X209677000Y-94991000D02*
X214498000Y-90170000D01*
%TO.N,MCU_MOSI*%
X235331000Y-117724000D02*
X238389000Y-120782000D01*
X232410000Y-89662000D02*
X235331000Y-92583000D01*
X235331000Y-92583000D02*
X235331000Y-117724000D01*
X217678000Y-90932000D02*
X218948000Y-89662000D01*
X213393511Y-96354489D02*
X215408833Y-96354489D01*
X217678000Y-94085322D02*
X217678000Y-90932000D01*
X212217000Y-97531000D02*
X213393511Y-96354489D01*
X215408833Y-96354489D02*
X217678000Y-94085322D01*
X218948000Y-89662000D02*
X232410000Y-89662000D01*
%TO.N,MCU_MISO*%
X232657626Y-89027000D02*
X235962813Y-92332187D01*
X235962813Y-92332187D02*
X235962813Y-115815813D01*
X235962813Y-115815813D02*
X238389000Y-118242000D01*
X217678000Y-89027000D02*
X232657626Y-89027000D01*
X214757000Y-94991000D02*
X214757000Y-91948000D01*
X214757000Y-91948000D02*
X217678000Y-89027000D01*
%TO.N,MCU_N_RESET*%
X229199500Y-94411500D02*
X230769000Y-92842000D01*
X229199500Y-98806000D02*
X229199500Y-94411500D01*
X222362609Y-106447500D02*
X224578609Y-104231500D01*
X218186000Y-106447500D02*
X222362609Y-106447500D01*
%TO.N,MCU_SCK*%
X236474000Y-113787000D02*
X238389000Y-115702000D01*
X236474000Y-92202000D02*
X236474000Y-113787000D01*
X232791000Y-88519000D02*
X236474000Y-92202000D01*
X212217000Y-93726000D02*
X217424000Y-88519000D01*
X212217000Y-94991000D02*
X212217000Y-93726000D01*
X217424000Y-88519000D02*
X232791000Y-88519000D01*
D30*
%TO.N,GND*%
X192659000Y-93213000D02*
X192659000Y-94864000D01*
X192659000Y-94864000D02*
X197612000Y-99817000D01*
%TO.N,+5V*%
X205950500Y-112224500D02*
X208280000Y-114554000D01*
X243840000Y-138176000D02*
X248285000Y-133731000D01*
X248285000Y-133731000D02*
X248285000Y-124841000D01*
X212979000Y-138176000D02*
X243840000Y-138176000D01*
X208280000Y-133477000D02*
X212979000Y-138176000D01*
X208280000Y-114554000D02*
X208280000Y-133477000D01*
X204089000Y-112224500D02*
X205950500Y-112224500D01*
D31*
%TO.N,Solar*%
X229240000Y-100462000D02*
X230769000Y-100462000D01*
X228346000Y-99568000D02*
X229240000Y-100462000D01*
X228346000Y-93975000D02*
X228346000Y-99568000D01*
X227457000Y-93086000D02*
X228346000Y-93975000D01*
%TO.N,Grid*%
X227203000Y-100203000D02*
X230002000Y-103002000D01*
X227203000Y-95372000D02*
X227203000Y-100203000D01*
X224917000Y-93086000D02*
X227203000Y-95372000D01*
X230002000Y-103002000D02*
X230769000Y-103002000D01*
%TO.N,Resistor*%
X226060000Y-100833000D02*
X230769000Y-105542000D01*
X226060000Y-96769000D02*
X226060000Y-100833000D01*
X222377000Y-93086000D02*
X226060000Y-96769000D01*
D28*
%TO.N,MCU_N_RESET*%
X208744000Y-105810000D02*
X215944000Y-105810000D01*
X217548500Y-105810000D02*
X218186000Y-106447500D01*
X215944000Y-105810000D02*
X217548500Y-105810000D01*
X207002000Y-105810000D02*
X208744000Y-105810000D01*
X206375000Y-106437000D02*
X207002000Y-105810000D01*
D31*
%TO.N,Walk_Light*%
X239642511Y-130811489D02*
X239642511Y-124575511D01*
X239642511Y-124575511D02*
X238389000Y-123322000D01*
X238379000Y-132075000D02*
X239642511Y-130811489D01*
%TO.N,Yellow*%
X235839000Y-128412000D02*
X238389000Y-125862000D01*
X235839000Y-132075000D02*
X235839000Y-128412000D01*
%TO.N,Red*%
X233299000Y-120772000D02*
X230769000Y-118242000D01*
X233299000Y-132075000D02*
X233299000Y-120772000D01*
%TO.N,Green*%
X232022511Y-130811489D02*
X230759000Y-132075000D01*
X232022511Y-122035511D02*
X232022511Y-130811489D01*
X230769000Y-120782000D02*
X232022511Y-122035511D01*
%TO.N,Net-(D1-Pad2)*%
X214757000Y-97531000D02*
X222886000Y-97531000D01*
X222886000Y-97531000D02*
X223139000Y-97278000D01*
%TO.N,Bike*%
X227589000Y-125862000D02*
X230769000Y-125862000D01*
X227584000Y-125857000D02*
X227589000Y-125862000D01*
X225298000Y-128143000D02*
X227584000Y-125857000D01*
X223647000Y-132070000D02*
X225298000Y-130419000D01*
X225298000Y-130419000D02*
X225298000Y-128143000D01*
%TO.N,Pedestrian*%
X228341000Y-123322000D02*
X230769000Y-123322000D01*
X223647000Y-128016000D02*
X228341000Y-123322000D01*
X223647000Y-129530000D02*
X223647000Y-128016000D01*
D32*
%TO.N,+5V*%
X238399000Y-113152000D02*
X238389000Y-113162000D01*
X240818500Y-113152000D02*
X238399000Y-113152000D01*
D31*
%TO.N,Net-(C1-Pad1)*%
X238399000Y-110612000D02*
X238389000Y-110622000D01*
X240818500Y-110612000D02*
X238399000Y-110612000D01*
%TO.N,Photoresistor*%
X248412000Y-106934000D02*
X247396000Y-105918000D01*
X247396000Y-105918000D02*
X241692000Y-105918000D01*
X241692000Y-105918000D02*
X241681000Y-105929000D01*
X241294000Y-105542000D02*
X241681000Y-105929000D01*
X238389000Y-105542000D02*
X241294000Y-105542000D01*
D29*
%TO.N,SCL*%
X241940000Y-92949000D02*
X241808000Y-93081000D01*
X254889000Y-92949000D02*
X241940000Y-92949000D01*
%TO.N,SDA*%
X250967000Y-94107000D02*
X254889000Y-98029000D01*
X245618000Y-94107000D02*
X250967000Y-94107000D01*
X244104000Y-95621000D02*
X245618000Y-94107000D01*
X241808000Y-95621000D02*
X244104000Y-95621000D01*
X241808000Y-95621000D02*
X238628000Y-95621000D01*
X238628000Y-95621000D02*
X238389000Y-95382000D01*
%TO.N,SCL*%
X241808000Y-93081000D02*
X238628000Y-93081000D01*
X238628000Y-93081000D02*
X238389000Y-92842000D01*
D31*
%TO.N,Vo*%
X248285000Y-99167000D02*
X247035000Y-99167000D01*
X247035000Y-99167000D02*
X243200000Y-103002000D01*
X243200000Y-103002000D02*
X238389000Y-103002000D01*
D32*
%TO.N,+5V*%
X220726000Y-103124000D02*
X218180000Y-100578000D01*
X228319500Y-106399040D02*
X225044460Y-103124000D01*
X228319500Y-106548000D02*
X228319500Y-106399040D01*
X207651000Y-100578000D02*
X218180000Y-100578000D01*
X218180000Y-100578000D02*
X223139000Y-100578000D01*
X225044460Y-103124000D02*
X220726000Y-103124000D01*
X248392000Y-101707000D02*
X254889000Y-108204000D01*
X248285000Y-101707000D02*
X248392000Y-101707000D01*
X254889000Y-117602000D02*
X254889000Y-108204000D01*
X254889000Y-108204000D02*
X254889000Y-100569000D01*
X248412000Y-124079000D02*
X248412000Y-124714000D01*
X248412000Y-124079000D02*
X254889000Y-117602000D01*
X248412000Y-109474000D02*
X248412000Y-124079000D01*
X248412000Y-124714000D02*
X248285000Y-124841000D01*
X240818500Y-115215500D02*
X240818500Y-113152000D01*
X244094000Y-118491000D02*
X240818500Y-115215500D01*
X244094000Y-120650000D02*
X244094000Y-118491000D01*
X248285000Y-124841000D02*
X244094000Y-120650000D01*
X204089000Y-104140000D02*
X207651000Y-100578000D01*
X204089000Y-110723000D02*
X204089000Y-104140000D01*
X204089000Y-110723000D02*
X206375000Y-108437000D01*
X204089000Y-112224500D02*
X204089000Y-110723000D01*
%TO.N,MCU_XTAL2*%
X226214500Y-115591500D02*
X224282000Y-117524000D01*
X228346000Y-115591500D02*
X226214500Y-115591500D01*
%TO.N,MCU_XTAL1*%
X228346000Y-112871500D02*
X224509500Y-112871500D01*
X224509500Y-112871500D02*
X224282000Y-112644000D01*
%TO.N,MCU_XTAL2*%
X230658500Y-115591500D02*
X230769000Y-115702000D01*
X228346000Y-115591500D02*
X230658500Y-115591500D01*
%TO.N,MCU_XTAL1*%
X228346000Y-112871500D02*
X230478500Y-112871500D01*
X230478500Y-112871500D02*
X230769000Y-113162000D01*
%TO.N,+5V*%
X194198000Y-115731000D02*
X194198000Y-129154000D01*
X197612000Y-112317000D02*
X194198000Y-115731000D01*
D30*
X197612000Y-112317000D02*
X203996500Y-112317000D01*
D32*
X203996500Y-112317000D02*
X204089000Y-112224500D01*
X229240000Y-108082000D02*
X230769000Y-108082000D01*
X228319500Y-107161500D02*
X229240000Y-108082000D01*
X228319500Y-106548000D02*
X228319500Y-107161500D01*
D30*
%TO.N,+24V*%
X200406000Y-100965000D02*
X199054000Y-102317000D01*
X200406000Y-98420000D02*
X200406000Y-100965000D01*
X199054000Y-102317000D02*
X197612000Y-102317000D01*
X195199000Y-93213000D02*
X200406000Y-98420000D01*
%TD*%
M02*
