%TF.GenerationSoftware,KiCad,Pcbnew,(6.0.1)*%
%TF.CreationDate,2022-03-07T20:17:15-06:00*%
%TF.ProjectId,power_board,706f7765-725f-4626-9f61-72642e6b6963,rev?*%
%TF.SameCoordinates,Original*%
%TF.FileFunction,Legend,Top*%
%TF.FilePolarity,Positive*%
%FSLAX46Y46*%
G04 Gerber Fmt 4.6, Leading zero omitted, Abs format (unit mm)*
G04 Created by KiCad (PCBNEW (6.0.1)) date 2022-03-07 20:17:15*
%MOMM*%
%LPD*%
G01*
G04 APERTURE LIST*
%ADD10C,0.200000*%
%ADD11C,0.150000*%
%ADD12C,0.120000*%
G04 APERTURE END LIST*
D10*
X166666666Y-67884761D02*
X167809523Y-67884761D01*
X167238095Y-69884761D02*
X167238095Y-67884761D01*
X169238095Y-69789523D02*
X169047619Y-69884761D01*
X168666666Y-69884761D01*
X168476190Y-69789523D01*
X168380952Y-69599047D01*
X168380952Y-68837142D01*
X168476190Y-68646666D01*
X168666666Y-68551428D01*
X169047619Y-68551428D01*
X169238095Y-68646666D01*
X169333333Y-68837142D01*
X169333333Y-69027619D01*
X168380952Y-69218095D01*
X171047619Y-69884761D02*
X171047619Y-68837142D01*
X170952380Y-68646666D01*
X170761904Y-68551428D01*
X170380952Y-68551428D01*
X170190476Y-68646666D01*
X171047619Y-69789523D02*
X170857142Y-69884761D01*
X170380952Y-69884761D01*
X170190476Y-69789523D01*
X170095238Y-69599047D01*
X170095238Y-69408571D01*
X170190476Y-69218095D01*
X170380952Y-69122857D01*
X170857142Y-69122857D01*
X171047619Y-69027619D01*
X172000000Y-69884761D02*
X172000000Y-68551428D01*
X172000000Y-68741904D02*
X172095238Y-68646666D01*
X172285714Y-68551428D01*
X172571428Y-68551428D01*
X172761904Y-68646666D01*
X172857142Y-68837142D01*
X172857142Y-69884761D01*
X172857142Y-68837142D02*
X172952380Y-68646666D01*
X173142857Y-68551428D01*
X173428571Y-68551428D01*
X173619047Y-68646666D01*
X173714285Y-68837142D01*
X173714285Y-69884761D01*
X176095238Y-68075238D02*
X176190476Y-67980000D01*
X176380952Y-67884761D01*
X176857142Y-67884761D01*
X177047619Y-67980000D01*
X177142857Y-68075238D01*
X177238095Y-68265714D01*
X177238095Y-68456190D01*
X177142857Y-68741904D01*
X176000000Y-69884761D01*
X177238095Y-69884761D01*
X178476190Y-67884761D02*
X178666666Y-67884761D01*
X178857142Y-67980000D01*
X178952380Y-68075238D01*
X179047619Y-68265714D01*
X179142857Y-68646666D01*
X179142857Y-69122857D01*
X179047619Y-69503809D01*
X178952380Y-69694285D01*
X178857142Y-69789523D01*
X178666666Y-69884761D01*
X178476190Y-69884761D01*
X178285714Y-69789523D01*
X178190476Y-69694285D01*
X178095238Y-69503809D01*
X178000000Y-69122857D01*
X178000000Y-68646666D01*
X178095238Y-68265714D01*
X178190476Y-68075238D01*
X178285714Y-67980000D01*
X178476190Y-67884761D01*
X161476190Y-73104761D02*
X161476190Y-71104761D01*
X162238095Y-71104761D01*
X162428571Y-71200000D01*
X162523809Y-71295238D01*
X162619047Y-71485714D01*
X162619047Y-71771428D01*
X162523809Y-71961904D01*
X162428571Y-72057142D01*
X162238095Y-72152380D01*
X161476190Y-72152380D01*
X163761904Y-73104761D02*
X163571428Y-73009523D01*
X163476190Y-72914285D01*
X163380952Y-72723809D01*
X163380952Y-72152380D01*
X163476190Y-71961904D01*
X163571428Y-71866666D01*
X163761904Y-71771428D01*
X164047619Y-71771428D01*
X164238095Y-71866666D01*
X164333333Y-71961904D01*
X164428571Y-72152380D01*
X164428571Y-72723809D01*
X164333333Y-72914285D01*
X164238095Y-73009523D01*
X164047619Y-73104761D01*
X163761904Y-73104761D01*
X165095238Y-71771428D02*
X165476190Y-73104761D01*
X165857142Y-72152380D01*
X166238095Y-73104761D01*
X166619047Y-71771428D01*
X168142857Y-73009523D02*
X167952380Y-73104761D01*
X167571428Y-73104761D01*
X167380952Y-73009523D01*
X167285714Y-72819047D01*
X167285714Y-72057142D01*
X167380952Y-71866666D01*
X167571428Y-71771428D01*
X167952380Y-71771428D01*
X168142857Y-71866666D01*
X168238095Y-72057142D01*
X168238095Y-72247619D01*
X167285714Y-72438095D01*
X169095238Y-73104761D02*
X169095238Y-71771428D01*
X169095238Y-72152380D02*
X169190476Y-71961904D01*
X169285714Y-71866666D01*
X169476190Y-71771428D01*
X169666666Y-71771428D01*
X172523809Y-72057142D02*
X172809523Y-72152380D01*
X172904761Y-72247619D01*
X173000000Y-72438095D01*
X173000000Y-72723809D01*
X172904761Y-72914285D01*
X172809523Y-73009523D01*
X172619047Y-73104761D01*
X171857142Y-73104761D01*
X171857142Y-71104761D01*
X172523809Y-71104761D01*
X172714285Y-71200000D01*
X172809523Y-71295238D01*
X172904761Y-71485714D01*
X172904761Y-71676190D01*
X172809523Y-71866666D01*
X172714285Y-71961904D01*
X172523809Y-72057142D01*
X171857142Y-72057142D01*
X174142857Y-73104761D02*
X173952380Y-73009523D01*
X173857142Y-72914285D01*
X173761904Y-72723809D01*
X173761904Y-72152380D01*
X173857142Y-71961904D01*
X173952380Y-71866666D01*
X174142857Y-71771428D01*
X174428571Y-71771428D01*
X174619047Y-71866666D01*
X174714285Y-71961904D01*
X174809523Y-72152380D01*
X174809523Y-72723809D01*
X174714285Y-72914285D01*
X174619047Y-73009523D01*
X174428571Y-73104761D01*
X174142857Y-73104761D01*
X176523809Y-73104761D02*
X176523809Y-72057142D01*
X176428571Y-71866666D01*
X176238095Y-71771428D01*
X175857142Y-71771428D01*
X175666666Y-71866666D01*
X176523809Y-73009523D02*
X176333333Y-73104761D01*
X175857142Y-73104761D01*
X175666666Y-73009523D01*
X175571428Y-72819047D01*
X175571428Y-72628571D01*
X175666666Y-72438095D01*
X175857142Y-72342857D01*
X176333333Y-72342857D01*
X176523809Y-72247619D01*
X177476190Y-73104761D02*
X177476190Y-71771428D01*
X177476190Y-72152380D02*
X177571428Y-71961904D01*
X177666666Y-71866666D01*
X177857142Y-71771428D01*
X178047619Y-71771428D01*
X179571428Y-73104761D02*
X179571428Y-71104761D01*
X179571428Y-73009523D02*
X179380952Y-73104761D01*
X179000000Y-73104761D01*
X178809523Y-73009523D01*
X178714285Y-72914285D01*
X178619047Y-72723809D01*
X178619047Y-72152380D01*
X178714285Y-71961904D01*
X178809523Y-71866666D01*
X179000000Y-71771428D01*
X179380952Y-71771428D01*
X179571428Y-71866666D01*
X181857142Y-71771428D02*
X182333333Y-73104761D01*
X182809523Y-71771428D01*
X184619047Y-73104761D02*
X183476190Y-73104761D01*
X184047619Y-73104761D02*
X184047619Y-71104761D01*
X183857142Y-71390476D01*
X183666666Y-71580952D01*
X183476190Y-71676190D01*
X167380952Y-74324761D02*
X168619047Y-74324761D01*
X167952380Y-75086666D01*
X168238095Y-75086666D01*
X168428571Y-75181904D01*
X168523809Y-75277142D01*
X168619047Y-75467619D01*
X168619047Y-75943809D01*
X168523809Y-76134285D01*
X168428571Y-76229523D01*
X168238095Y-76324761D01*
X167666666Y-76324761D01*
X167476190Y-76229523D01*
X167380952Y-76134285D01*
X170904761Y-74229523D02*
X169190476Y-76800952D01*
X172428571Y-74324761D02*
X172047619Y-74324761D01*
X171857142Y-74420000D01*
X171761904Y-74515238D01*
X171571428Y-74800952D01*
X171476190Y-75181904D01*
X171476190Y-75943809D01*
X171571428Y-76134285D01*
X171666666Y-76229523D01*
X171857142Y-76324761D01*
X172238095Y-76324761D01*
X172428571Y-76229523D01*
X172523809Y-76134285D01*
X172619047Y-75943809D01*
X172619047Y-75467619D01*
X172523809Y-75277142D01*
X172428571Y-75181904D01*
X172238095Y-75086666D01*
X171857142Y-75086666D01*
X171666666Y-75181904D01*
X171571428Y-75277142D01*
X171476190Y-75467619D01*
X174904761Y-74229523D02*
X173190476Y-76800952D01*
X175476190Y-74515238D02*
X175571428Y-74420000D01*
X175761904Y-74324761D01*
X176238095Y-74324761D01*
X176428571Y-74420000D01*
X176523809Y-74515238D01*
X176619047Y-74705714D01*
X176619047Y-74896190D01*
X176523809Y-75181904D01*
X175380952Y-76324761D01*
X176619047Y-76324761D01*
X177380952Y-74515238D02*
X177476190Y-74420000D01*
X177666666Y-74324761D01*
X178142857Y-74324761D01*
X178333333Y-74420000D01*
X178428571Y-74515238D01*
X178523809Y-74705714D01*
X178523809Y-74896190D01*
X178428571Y-75181904D01*
X177285714Y-76324761D01*
X178523809Y-76324761D01*
D11*
%TO.C,J5*%
X181066666Y-78922380D02*
X181066666Y-79636666D01*
X181019047Y-79779523D01*
X180923809Y-79874761D01*
X180780952Y-79922380D01*
X180685714Y-79922380D01*
X182019047Y-78922380D02*
X181542857Y-78922380D01*
X181495238Y-79398571D01*
X181542857Y-79350952D01*
X181638095Y-79303333D01*
X181876190Y-79303333D01*
X181971428Y-79350952D01*
X182019047Y-79398571D01*
X182066666Y-79493809D01*
X182066666Y-79731904D01*
X182019047Y-79827142D01*
X181971428Y-79874761D01*
X181876190Y-79922380D01*
X181638095Y-79922380D01*
X181542857Y-79874761D01*
X181495238Y-79827142D01*
%TO.C,J19*%
X158347380Y-143809523D02*
X159061666Y-143809523D01*
X159204523Y-143857142D01*
X159299761Y-143952380D01*
X159347380Y-144095238D01*
X159347380Y-144190476D01*
X159347380Y-142809523D02*
X159347380Y-143380952D01*
X159347380Y-143095238D02*
X158347380Y-143095238D01*
X158490238Y-143190476D01*
X158585476Y-143285714D01*
X158633095Y-143380952D01*
X159347380Y-142333333D02*
X159347380Y-142142857D01*
X159299761Y-142047619D01*
X159252142Y-142000000D01*
X159109285Y-141904761D01*
X158918809Y-141857142D01*
X158537857Y-141857142D01*
X158442619Y-141904761D01*
X158395000Y-141952380D01*
X158347380Y-142047619D01*
X158347380Y-142238095D01*
X158395000Y-142333333D01*
X158442619Y-142380952D01*
X158537857Y-142428571D01*
X158775952Y-142428571D01*
X158871190Y-142380952D01*
X158918809Y-142333333D01*
X158966428Y-142238095D01*
X158966428Y-142047619D01*
X158918809Y-141952380D01*
X158871190Y-141904761D01*
X158775952Y-141857142D01*
%TO.C,R23*%
X156102380Y-132742857D02*
X155626190Y-133076190D01*
X156102380Y-133314285D02*
X155102380Y-133314285D01*
X155102380Y-132933333D01*
X155150000Y-132838095D01*
X155197619Y-132790476D01*
X155292857Y-132742857D01*
X155435714Y-132742857D01*
X155530952Y-132790476D01*
X155578571Y-132838095D01*
X155626190Y-132933333D01*
X155626190Y-133314285D01*
X155197619Y-132361904D02*
X155150000Y-132314285D01*
X155102380Y-132219047D01*
X155102380Y-131980952D01*
X155150000Y-131885714D01*
X155197619Y-131838095D01*
X155292857Y-131790476D01*
X155388095Y-131790476D01*
X155530952Y-131838095D01*
X156102380Y-132409523D01*
X156102380Y-131790476D01*
X155102380Y-131457142D02*
X155102380Y-130838095D01*
X155483333Y-131171428D01*
X155483333Y-131028571D01*
X155530952Y-130933333D01*
X155578571Y-130885714D01*
X155673809Y-130838095D01*
X155911904Y-130838095D01*
X156007142Y-130885714D01*
X156054761Y-130933333D01*
X156102380Y-131028571D01*
X156102380Y-131314285D01*
X156054761Y-131409523D01*
X156007142Y-131457142D01*
%TO.C,J6*%
X138366666Y-60852380D02*
X138366666Y-61566666D01*
X138319047Y-61709523D01*
X138223809Y-61804761D01*
X138080952Y-61852380D01*
X137985714Y-61852380D01*
X139271428Y-60852380D02*
X139080952Y-60852380D01*
X138985714Y-60900000D01*
X138938095Y-60947619D01*
X138842857Y-61090476D01*
X138795238Y-61280952D01*
X138795238Y-61661904D01*
X138842857Y-61757142D01*
X138890476Y-61804761D01*
X138985714Y-61852380D01*
X139176190Y-61852380D01*
X139271428Y-61804761D01*
X139319047Y-61757142D01*
X139366666Y-61661904D01*
X139366666Y-61423809D01*
X139319047Y-61328571D01*
X139271428Y-61280952D01*
X139176190Y-61233333D01*
X138985714Y-61233333D01*
X138890476Y-61280952D01*
X138842857Y-61328571D01*
X138795238Y-61423809D01*
%TO.C,Q6*%
X130804761Y-120547619D02*
X130709523Y-120500000D01*
X130614285Y-120404761D01*
X130471428Y-120261904D01*
X130376190Y-120214285D01*
X130280952Y-120214285D01*
X130328571Y-120452380D02*
X130233333Y-120404761D01*
X130138095Y-120309523D01*
X130090476Y-120119047D01*
X130090476Y-119785714D01*
X130138095Y-119595238D01*
X130233333Y-119500000D01*
X130328571Y-119452380D01*
X130519047Y-119452380D01*
X130614285Y-119500000D01*
X130709523Y-119595238D01*
X130757142Y-119785714D01*
X130757142Y-120119047D01*
X130709523Y-120309523D01*
X130614285Y-120404761D01*
X130519047Y-120452380D01*
X130328571Y-120452380D01*
X131614285Y-119452380D02*
X131423809Y-119452380D01*
X131328571Y-119500000D01*
X131280952Y-119547619D01*
X131185714Y-119690476D01*
X131138095Y-119880952D01*
X131138095Y-120261904D01*
X131185714Y-120357142D01*
X131233333Y-120404761D01*
X131328571Y-120452380D01*
X131519047Y-120452380D01*
X131614285Y-120404761D01*
X131661904Y-120357142D01*
X131709523Y-120261904D01*
X131709523Y-120023809D01*
X131661904Y-119928571D01*
X131614285Y-119880952D01*
X131519047Y-119833333D01*
X131328571Y-119833333D01*
X131233333Y-119880952D01*
X131185714Y-119928571D01*
X131138095Y-120023809D01*
%TO.C,C22*%
X164157142Y-124367857D02*
X164204761Y-124415476D01*
X164252380Y-124558333D01*
X164252380Y-124653571D01*
X164204761Y-124796428D01*
X164109523Y-124891666D01*
X164014285Y-124939285D01*
X163823809Y-124986904D01*
X163680952Y-124986904D01*
X163490476Y-124939285D01*
X163395238Y-124891666D01*
X163300000Y-124796428D01*
X163252380Y-124653571D01*
X163252380Y-124558333D01*
X163300000Y-124415476D01*
X163347619Y-124367857D01*
X163347619Y-123986904D02*
X163300000Y-123939285D01*
X163252380Y-123844047D01*
X163252380Y-123605952D01*
X163300000Y-123510714D01*
X163347619Y-123463095D01*
X163442857Y-123415476D01*
X163538095Y-123415476D01*
X163680952Y-123463095D01*
X164252380Y-124034523D01*
X164252380Y-123415476D01*
X163347619Y-123034523D02*
X163300000Y-122986904D01*
X163252380Y-122891666D01*
X163252380Y-122653571D01*
X163300000Y-122558333D01*
X163347619Y-122510714D01*
X163442857Y-122463095D01*
X163538095Y-122463095D01*
X163680952Y-122510714D01*
X164252380Y-123082142D01*
X164252380Y-122463095D01*
%TO.C,R21*%
X155322380Y-119942857D02*
X154846190Y-120276190D01*
X155322380Y-120514285D02*
X154322380Y-120514285D01*
X154322380Y-120133333D01*
X154370000Y-120038095D01*
X154417619Y-119990476D01*
X154512857Y-119942857D01*
X154655714Y-119942857D01*
X154750952Y-119990476D01*
X154798571Y-120038095D01*
X154846190Y-120133333D01*
X154846190Y-120514285D01*
X154417619Y-119561904D02*
X154370000Y-119514285D01*
X154322380Y-119419047D01*
X154322380Y-119180952D01*
X154370000Y-119085714D01*
X154417619Y-119038095D01*
X154512857Y-118990476D01*
X154608095Y-118990476D01*
X154750952Y-119038095D01*
X155322380Y-119609523D01*
X155322380Y-118990476D01*
X155322380Y-118038095D02*
X155322380Y-118609523D01*
X155322380Y-118323809D02*
X154322380Y-118323809D01*
X154465238Y-118419047D01*
X154560476Y-118514285D01*
X154608095Y-118609523D01*
%TO.C,R24*%
X163719642Y-137752380D02*
X163386309Y-137276190D01*
X163148214Y-137752380D02*
X163148214Y-136752380D01*
X163529166Y-136752380D01*
X163624404Y-136800000D01*
X163672023Y-136847619D01*
X163719642Y-136942857D01*
X163719642Y-137085714D01*
X163672023Y-137180952D01*
X163624404Y-137228571D01*
X163529166Y-137276190D01*
X163148214Y-137276190D01*
X164100595Y-136847619D02*
X164148214Y-136800000D01*
X164243452Y-136752380D01*
X164481547Y-136752380D01*
X164576785Y-136800000D01*
X164624404Y-136847619D01*
X164672023Y-136942857D01*
X164672023Y-137038095D01*
X164624404Y-137180952D01*
X164052976Y-137752380D01*
X164672023Y-137752380D01*
X165529166Y-137085714D02*
X165529166Y-137752380D01*
X165291071Y-136704761D02*
X165052976Y-137419047D01*
X165672023Y-137419047D01*
%TO.C,R3*%
X111772380Y-106716666D02*
X111296190Y-107050000D01*
X111772380Y-107288095D02*
X110772380Y-107288095D01*
X110772380Y-106907142D01*
X110820000Y-106811904D01*
X110867619Y-106764285D01*
X110962857Y-106716666D01*
X111105714Y-106716666D01*
X111200952Y-106764285D01*
X111248571Y-106811904D01*
X111296190Y-106907142D01*
X111296190Y-107288095D01*
X110772380Y-106383333D02*
X110772380Y-105764285D01*
X111153333Y-106097619D01*
X111153333Y-105954761D01*
X111200952Y-105859523D01*
X111248571Y-105811904D01*
X111343809Y-105764285D01*
X111581904Y-105764285D01*
X111677142Y-105811904D01*
X111724761Y-105859523D01*
X111772380Y-105954761D01*
X111772380Y-106240476D01*
X111724761Y-106335714D01*
X111677142Y-106383333D01*
%TO.C,R28*%
X141457142Y-127672380D02*
X141123809Y-127196190D01*
X140885714Y-127672380D02*
X140885714Y-126672380D01*
X141266666Y-126672380D01*
X141361904Y-126720000D01*
X141409523Y-126767619D01*
X141457142Y-126862857D01*
X141457142Y-127005714D01*
X141409523Y-127100952D01*
X141361904Y-127148571D01*
X141266666Y-127196190D01*
X140885714Y-127196190D01*
X141838095Y-126767619D02*
X141885714Y-126720000D01*
X141980952Y-126672380D01*
X142219047Y-126672380D01*
X142314285Y-126720000D01*
X142361904Y-126767619D01*
X142409523Y-126862857D01*
X142409523Y-126958095D01*
X142361904Y-127100952D01*
X141790476Y-127672380D01*
X142409523Y-127672380D01*
X142980952Y-127100952D02*
X142885714Y-127053333D01*
X142838095Y-127005714D01*
X142790476Y-126910476D01*
X142790476Y-126862857D01*
X142838095Y-126767619D01*
X142885714Y-126720000D01*
X142980952Y-126672380D01*
X143171428Y-126672380D01*
X143266666Y-126720000D01*
X143314285Y-126767619D01*
X143361904Y-126862857D01*
X143361904Y-126910476D01*
X143314285Y-127005714D01*
X143266666Y-127053333D01*
X143171428Y-127100952D01*
X142980952Y-127100952D01*
X142885714Y-127148571D01*
X142838095Y-127196190D01*
X142790476Y-127291428D01*
X142790476Y-127481904D01*
X142838095Y-127577142D01*
X142885714Y-127624761D01*
X142980952Y-127672380D01*
X143171428Y-127672380D01*
X143266666Y-127624761D01*
X143314285Y-127577142D01*
X143361904Y-127481904D01*
X143361904Y-127291428D01*
X143314285Y-127196190D01*
X143266666Y-127148571D01*
X143171428Y-127100952D01*
%TO.C,J22*%
X146982380Y-143809523D02*
X147696666Y-143809523D01*
X147839523Y-143857142D01*
X147934761Y-143952380D01*
X147982380Y-144095238D01*
X147982380Y-144190476D01*
X147077619Y-143380952D02*
X147030000Y-143333333D01*
X146982380Y-143238095D01*
X146982380Y-143000000D01*
X147030000Y-142904761D01*
X147077619Y-142857142D01*
X147172857Y-142809523D01*
X147268095Y-142809523D01*
X147410952Y-142857142D01*
X147982380Y-143428571D01*
X147982380Y-142809523D01*
X147077619Y-142428571D02*
X147030000Y-142380952D01*
X146982380Y-142285714D01*
X146982380Y-142047619D01*
X147030000Y-141952380D01*
X147077619Y-141904761D01*
X147172857Y-141857142D01*
X147268095Y-141857142D01*
X147410952Y-141904761D01*
X147982380Y-142476190D01*
X147982380Y-141857142D01*
%TO.C,J1*%
X167366666Y-109822380D02*
X167366666Y-110536666D01*
X167319047Y-110679523D01*
X167223809Y-110774761D01*
X167080952Y-110822380D01*
X166985714Y-110822380D01*
X168366666Y-110822380D02*
X167795238Y-110822380D01*
X168080952Y-110822380D02*
X168080952Y-109822380D01*
X167985714Y-109965238D01*
X167890476Y-110060476D01*
X167795238Y-110108095D01*
%TO.C,R17*%
X115557142Y-112202380D02*
X115223809Y-111726190D01*
X114985714Y-112202380D02*
X114985714Y-111202380D01*
X115366666Y-111202380D01*
X115461904Y-111250000D01*
X115509523Y-111297619D01*
X115557142Y-111392857D01*
X115557142Y-111535714D01*
X115509523Y-111630952D01*
X115461904Y-111678571D01*
X115366666Y-111726190D01*
X114985714Y-111726190D01*
X116509523Y-112202380D02*
X115938095Y-112202380D01*
X116223809Y-112202380D02*
X116223809Y-111202380D01*
X116128571Y-111345238D01*
X116033333Y-111440476D01*
X115938095Y-111488095D01*
X116842857Y-111202380D02*
X117509523Y-111202380D01*
X117080952Y-112202380D01*
%TO.C,R10*%
X103352380Y-75692857D02*
X102876190Y-76026190D01*
X103352380Y-76264285D02*
X102352380Y-76264285D01*
X102352380Y-75883333D01*
X102400000Y-75788095D01*
X102447619Y-75740476D01*
X102542857Y-75692857D01*
X102685714Y-75692857D01*
X102780952Y-75740476D01*
X102828571Y-75788095D01*
X102876190Y-75883333D01*
X102876190Y-76264285D01*
X103352380Y-74740476D02*
X103352380Y-75311904D01*
X103352380Y-75026190D02*
X102352380Y-75026190D01*
X102495238Y-75121428D01*
X102590476Y-75216666D01*
X102638095Y-75311904D01*
X102352380Y-74121428D02*
X102352380Y-74026190D01*
X102400000Y-73930952D01*
X102447619Y-73883333D01*
X102542857Y-73835714D01*
X102733333Y-73788095D01*
X102971428Y-73788095D01*
X103161904Y-73835714D01*
X103257142Y-73883333D01*
X103304761Y-73930952D01*
X103352380Y-74026190D01*
X103352380Y-74121428D01*
X103304761Y-74216666D01*
X103257142Y-74264285D01*
X103161904Y-74311904D01*
X102971428Y-74359523D01*
X102733333Y-74359523D01*
X102542857Y-74311904D01*
X102447619Y-74264285D01*
X102400000Y-74216666D01*
X102352380Y-74121428D01*
%TO.C,Q3*%
X153347619Y-101845238D02*
X153300000Y-101940476D01*
X153204761Y-102035714D01*
X153061904Y-102178571D01*
X153014285Y-102273809D01*
X153014285Y-102369047D01*
X153252380Y-102321428D02*
X153204761Y-102416666D01*
X153109523Y-102511904D01*
X152919047Y-102559523D01*
X152585714Y-102559523D01*
X152395238Y-102511904D01*
X152300000Y-102416666D01*
X152252380Y-102321428D01*
X152252380Y-102130952D01*
X152300000Y-102035714D01*
X152395238Y-101940476D01*
X152585714Y-101892857D01*
X152919047Y-101892857D01*
X153109523Y-101940476D01*
X153204761Y-102035714D01*
X153252380Y-102130952D01*
X153252380Y-102321428D01*
X152252380Y-101559523D02*
X152252380Y-100940476D01*
X152633333Y-101273809D01*
X152633333Y-101130952D01*
X152680952Y-101035714D01*
X152728571Y-100988095D01*
X152823809Y-100940476D01*
X153061904Y-100940476D01*
X153157142Y-100988095D01*
X153204761Y-101035714D01*
X153252380Y-101130952D01*
X153252380Y-101416666D01*
X153204761Y-101511904D01*
X153157142Y-101559523D01*
%TO.C,C14*%
X116157142Y-100142857D02*
X116204761Y-100190476D01*
X116252380Y-100333333D01*
X116252380Y-100428571D01*
X116204761Y-100571428D01*
X116109523Y-100666666D01*
X116014285Y-100714285D01*
X115823809Y-100761904D01*
X115680952Y-100761904D01*
X115490476Y-100714285D01*
X115395238Y-100666666D01*
X115300000Y-100571428D01*
X115252380Y-100428571D01*
X115252380Y-100333333D01*
X115300000Y-100190476D01*
X115347619Y-100142857D01*
X116252380Y-99190476D02*
X116252380Y-99761904D01*
X116252380Y-99476190D02*
X115252380Y-99476190D01*
X115395238Y-99571428D01*
X115490476Y-99666666D01*
X115538095Y-99761904D01*
X115585714Y-98333333D02*
X116252380Y-98333333D01*
X115204761Y-98571428D02*
X115919047Y-98809523D01*
X115919047Y-98190476D01*
%TO.C,R29*%
X136032380Y-124742857D02*
X135556190Y-125076190D01*
X136032380Y-125314285D02*
X135032380Y-125314285D01*
X135032380Y-124933333D01*
X135080000Y-124838095D01*
X135127619Y-124790476D01*
X135222857Y-124742857D01*
X135365714Y-124742857D01*
X135460952Y-124790476D01*
X135508571Y-124838095D01*
X135556190Y-124933333D01*
X135556190Y-125314285D01*
X135127619Y-124361904D02*
X135080000Y-124314285D01*
X135032380Y-124219047D01*
X135032380Y-123980952D01*
X135080000Y-123885714D01*
X135127619Y-123838095D01*
X135222857Y-123790476D01*
X135318095Y-123790476D01*
X135460952Y-123838095D01*
X136032380Y-124409523D01*
X136032380Y-123790476D01*
X136032380Y-123314285D02*
X136032380Y-123123809D01*
X135984761Y-123028571D01*
X135937142Y-122980952D01*
X135794285Y-122885714D01*
X135603809Y-122838095D01*
X135222857Y-122838095D01*
X135127619Y-122885714D01*
X135080000Y-122933333D01*
X135032380Y-123028571D01*
X135032380Y-123219047D01*
X135080000Y-123314285D01*
X135127619Y-123361904D01*
X135222857Y-123409523D01*
X135460952Y-123409523D01*
X135556190Y-123361904D01*
X135603809Y-123314285D01*
X135651428Y-123219047D01*
X135651428Y-123028571D01*
X135603809Y-122933333D01*
X135556190Y-122885714D01*
X135460952Y-122838095D01*
%TO.C,R19*%
X115557142Y-115502380D02*
X115223809Y-115026190D01*
X114985714Y-115502380D02*
X114985714Y-114502380D01*
X115366666Y-114502380D01*
X115461904Y-114550000D01*
X115509523Y-114597619D01*
X115557142Y-114692857D01*
X115557142Y-114835714D01*
X115509523Y-114930952D01*
X115461904Y-114978571D01*
X115366666Y-115026190D01*
X114985714Y-115026190D01*
X116509523Y-115502380D02*
X115938095Y-115502380D01*
X116223809Y-115502380D02*
X116223809Y-114502380D01*
X116128571Y-114645238D01*
X116033333Y-114740476D01*
X115938095Y-114788095D01*
X116985714Y-115502380D02*
X117176190Y-115502380D01*
X117271428Y-115454761D01*
X117319047Y-115407142D01*
X117414285Y-115264285D01*
X117461904Y-115073809D01*
X117461904Y-114692857D01*
X117414285Y-114597619D01*
X117366666Y-114550000D01*
X117271428Y-114502380D01*
X117080952Y-114502380D01*
X116985714Y-114550000D01*
X116938095Y-114597619D01*
X116890476Y-114692857D01*
X116890476Y-114930952D01*
X116938095Y-115026190D01*
X116985714Y-115073809D01*
X117080952Y-115121428D01*
X117271428Y-115121428D01*
X117366666Y-115073809D01*
X117414285Y-115026190D01*
X117461904Y-114930952D01*
%TO.C,Q7*%
X130804761Y-113297619D02*
X130709523Y-113250000D01*
X130614285Y-113154761D01*
X130471428Y-113011904D01*
X130376190Y-112964285D01*
X130280952Y-112964285D01*
X130328571Y-113202380D02*
X130233333Y-113154761D01*
X130138095Y-113059523D01*
X130090476Y-112869047D01*
X130090476Y-112535714D01*
X130138095Y-112345238D01*
X130233333Y-112250000D01*
X130328571Y-112202380D01*
X130519047Y-112202380D01*
X130614285Y-112250000D01*
X130709523Y-112345238D01*
X130757142Y-112535714D01*
X130757142Y-112869047D01*
X130709523Y-113059523D01*
X130614285Y-113154761D01*
X130519047Y-113202380D01*
X130328571Y-113202380D01*
X131090476Y-112202380D02*
X131757142Y-112202380D01*
X131328571Y-113202380D01*
%TO.C,Q5*%
X113704761Y-83310119D02*
X113609523Y-83262500D01*
X113514285Y-83167261D01*
X113371428Y-83024404D01*
X113276190Y-82976785D01*
X113180952Y-82976785D01*
X113228571Y-83214880D02*
X113133333Y-83167261D01*
X113038095Y-83072023D01*
X112990476Y-82881547D01*
X112990476Y-82548214D01*
X113038095Y-82357738D01*
X113133333Y-82262500D01*
X113228571Y-82214880D01*
X113419047Y-82214880D01*
X113514285Y-82262500D01*
X113609523Y-82357738D01*
X113657142Y-82548214D01*
X113657142Y-82881547D01*
X113609523Y-83072023D01*
X113514285Y-83167261D01*
X113419047Y-83214880D01*
X113228571Y-83214880D01*
X114561904Y-82214880D02*
X114085714Y-82214880D01*
X114038095Y-82691071D01*
X114085714Y-82643452D01*
X114180952Y-82595833D01*
X114419047Y-82595833D01*
X114514285Y-82643452D01*
X114561904Y-82691071D01*
X114609523Y-82786309D01*
X114609523Y-83024404D01*
X114561904Y-83119642D01*
X114514285Y-83167261D01*
X114419047Y-83214880D01*
X114180952Y-83214880D01*
X114085714Y-83167261D01*
X114038095Y-83119642D01*
%TO.C,R15*%
X139407142Y-110202380D02*
X139073809Y-109726190D01*
X138835714Y-110202380D02*
X138835714Y-109202380D01*
X139216666Y-109202380D01*
X139311904Y-109250000D01*
X139359523Y-109297619D01*
X139407142Y-109392857D01*
X139407142Y-109535714D01*
X139359523Y-109630952D01*
X139311904Y-109678571D01*
X139216666Y-109726190D01*
X138835714Y-109726190D01*
X140359523Y-110202380D02*
X139788095Y-110202380D01*
X140073809Y-110202380D02*
X140073809Y-109202380D01*
X139978571Y-109345238D01*
X139883333Y-109440476D01*
X139788095Y-109488095D01*
X141264285Y-109202380D02*
X140788095Y-109202380D01*
X140740476Y-109678571D01*
X140788095Y-109630952D01*
X140883333Y-109583333D01*
X141121428Y-109583333D01*
X141216666Y-109630952D01*
X141264285Y-109678571D01*
X141311904Y-109773809D01*
X141311904Y-110011904D01*
X141264285Y-110107142D01*
X141216666Y-110154761D01*
X141121428Y-110202380D01*
X140883333Y-110202380D01*
X140788095Y-110154761D01*
X140740476Y-110107142D01*
%TO.C,IC1*%
X129723809Y-111982380D02*
X129723809Y-110982380D01*
X130771428Y-111887142D02*
X130723809Y-111934761D01*
X130580952Y-111982380D01*
X130485714Y-111982380D01*
X130342857Y-111934761D01*
X130247619Y-111839523D01*
X130200000Y-111744285D01*
X130152380Y-111553809D01*
X130152380Y-111410952D01*
X130200000Y-111220476D01*
X130247619Y-111125238D01*
X130342857Y-111030000D01*
X130485714Y-110982380D01*
X130580952Y-110982380D01*
X130723809Y-111030000D01*
X130771428Y-111077619D01*
X131723809Y-111982380D02*
X131152380Y-111982380D01*
X131438095Y-111982380D02*
X131438095Y-110982380D01*
X131342857Y-111125238D01*
X131247619Y-111220476D01*
X131152380Y-111268095D01*
%TO.C,C23*%
X159157142Y-124367857D02*
X159204761Y-124415476D01*
X159252380Y-124558333D01*
X159252380Y-124653571D01*
X159204761Y-124796428D01*
X159109523Y-124891666D01*
X159014285Y-124939285D01*
X158823809Y-124986904D01*
X158680952Y-124986904D01*
X158490476Y-124939285D01*
X158395238Y-124891666D01*
X158300000Y-124796428D01*
X158252380Y-124653571D01*
X158252380Y-124558333D01*
X158300000Y-124415476D01*
X158347619Y-124367857D01*
X158347619Y-123986904D02*
X158300000Y-123939285D01*
X158252380Y-123844047D01*
X158252380Y-123605952D01*
X158300000Y-123510714D01*
X158347619Y-123463095D01*
X158442857Y-123415476D01*
X158538095Y-123415476D01*
X158680952Y-123463095D01*
X159252380Y-124034523D01*
X159252380Y-123415476D01*
X158252380Y-123082142D02*
X158252380Y-122463095D01*
X158633333Y-122796428D01*
X158633333Y-122653571D01*
X158680952Y-122558333D01*
X158728571Y-122510714D01*
X158823809Y-122463095D01*
X159061904Y-122463095D01*
X159157142Y-122510714D01*
X159204761Y-122558333D01*
X159252380Y-122653571D01*
X159252380Y-122939285D01*
X159204761Y-123034523D01*
X159157142Y-123082142D01*
%TO.C,C15*%
X120257142Y-100142857D02*
X120304761Y-100190476D01*
X120352380Y-100333333D01*
X120352380Y-100428571D01*
X120304761Y-100571428D01*
X120209523Y-100666666D01*
X120114285Y-100714285D01*
X119923809Y-100761904D01*
X119780952Y-100761904D01*
X119590476Y-100714285D01*
X119495238Y-100666666D01*
X119400000Y-100571428D01*
X119352380Y-100428571D01*
X119352380Y-100333333D01*
X119400000Y-100190476D01*
X119447619Y-100142857D01*
X120352380Y-99190476D02*
X120352380Y-99761904D01*
X120352380Y-99476190D02*
X119352380Y-99476190D01*
X119495238Y-99571428D01*
X119590476Y-99666666D01*
X119638095Y-99761904D01*
X119352380Y-98285714D02*
X119352380Y-98761904D01*
X119828571Y-98809523D01*
X119780952Y-98761904D01*
X119733333Y-98666666D01*
X119733333Y-98428571D01*
X119780952Y-98333333D01*
X119828571Y-98285714D01*
X119923809Y-98238095D01*
X120161904Y-98238095D01*
X120257142Y-98285714D01*
X120304761Y-98333333D01*
X120352380Y-98428571D01*
X120352380Y-98666666D01*
X120304761Y-98761904D01*
X120257142Y-98809523D01*
%TO.C,C11*%
X114767142Y-78037142D02*
X114719523Y-78084761D01*
X114576666Y-78132380D01*
X114481428Y-78132380D01*
X114338571Y-78084761D01*
X114243333Y-77989523D01*
X114195714Y-77894285D01*
X114148095Y-77703809D01*
X114148095Y-77560952D01*
X114195714Y-77370476D01*
X114243333Y-77275238D01*
X114338571Y-77180000D01*
X114481428Y-77132380D01*
X114576666Y-77132380D01*
X114719523Y-77180000D01*
X114767142Y-77227619D01*
X115719523Y-78132380D02*
X115148095Y-78132380D01*
X115433809Y-78132380D02*
X115433809Y-77132380D01*
X115338571Y-77275238D01*
X115243333Y-77370476D01*
X115148095Y-77418095D01*
X116671904Y-78132380D02*
X116100476Y-78132380D01*
X116386190Y-78132380D02*
X116386190Y-77132380D01*
X116290952Y-77275238D01*
X116195714Y-77370476D01*
X116100476Y-77418095D01*
%TO.C,Q1*%
X158704761Y-87097619D02*
X158609523Y-87050000D01*
X158514285Y-86954761D01*
X158371428Y-86811904D01*
X158276190Y-86764285D01*
X158180952Y-86764285D01*
X158228571Y-87002380D02*
X158133333Y-86954761D01*
X158038095Y-86859523D01*
X157990476Y-86669047D01*
X157990476Y-86335714D01*
X158038095Y-86145238D01*
X158133333Y-86050000D01*
X158228571Y-86002380D01*
X158419047Y-86002380D01*
X158514285Y-86050000D01*
X158609523Y-86145238D01*
X158657142Y-86335714D01*
X158657142Y-86669047D01*
X158609523Y-86859523D01*
X158514285Y-86954761D01*
X158419047Y-87002380D01*
X158228571Y-87002380D01*
X159609523Y-87002380D02*
X159038095Y-87002380D01*
X159323809Y-87002380D02*
X159323809Y-86002380D01*
X159228571Y-86145238D01*
X159133333Y-86240476D01*
X159038095Y-86288095D01*
%TO.C,R14*%
X139407142Y-112202380D02*
X139073809Y-111726190D01*
X138835714Y-112202380D02*
X138835714Y-111202380D01*
X139216666Y-111202380D01*
X139311904Y-111250000D01*
X139359523Y-111297619D01*
X139407142Y-111392857D01*
X139407142Y-111535714D01*
X139359523Y-111630952D01*
X139311904Y-111678571D01*
X139216666Y-111726190D01*
X138835714Y-111726190D01*
X140359523Y-112202380D02*
X139788095Y-112202380D01*
X140073809Y-112202380D02*
X140073809Y-111202380D01*
X139978571Y-111345238D01*
X139883333Y-111440476D01*
X139788095Y-111488095D01*
X141216666Y-111535714D02*
X141216666Y-112202380D01*
X140978571Y-111154761D02*
X140740476Y-111869047D01*
X141359523Y-111869047D01*
%TO.C,C24*%
X94957142Y-66557142D02*
X94909523Y-66604761D01*
X94766666Y-66652380D01*
X94671428Y-66652380D01*
X94528571Y-66604761D01*
X94433333Y-66509523D01*
X94385714Y-66414285D01*
X94338095Y-66223809D01*
X94338095Y-66080952D01*
X94385714Y-65890476D01*
X94433333Y-65795238D01*
X94528571Y-65700000D01*
X94671428Y-65652380D01*
X94766666Y-65652380D01*
X94909523Y-65700000D01*
X94957142Y-65747619D01*
X95338095Y-65747619D02*
X95385714Y-65700000D01*
X95480952Y-65652380D01*
X95719047Y-65652380D01*
X95814285Y-65700000D01*
X95861904Y-65747619D01*
X95909523Y-65842857D01*
X95909523Y-65938095D01*
X95861904Y-66080952D01*
X95290476Y-66652380D01*
X95909523Y-66652380D01*
X96766666Y-65985714D02*
X96766666Y-66652380D01*
X96528571Y-65604761D02*
X96290476Y-66319047D01*
X96909523Y-66319047D01*
%TO.C,R6*%
X106772380Y-115166666D02*
X106296190Y-115500000D01*
X106772380Y-115738095D02*
X105772380Y-115738095D01*
X105772380Y-115357142D01*
X105820000Y-115261904D01*
X105867619Y-115214285D01*
X105962857Y-115166666D01*
X106105714Y-115166666D01*
X106200952Y-115214285D01*
X106248571Y-115261904D01*
X106296190Y-115357142D01*
X106296190Y-115738095D01*
X105772380Y-114309523D02*
X105772380Y-114500000D01*
X105820000Y-114595238D01*
X105867619Y-114642857D01*
X106010476Y-114738095D01*
X106200952Y-114785714D01*
X106581904Y-114785714D01*
X106677142Y-114738095D01*
X106724761Y-114690476D01*
X106772380Y-114595238D01*
X106772380Y-114404761D01*
X106724761Y-114309523D01*
X106677142Y-114261904D01*
X106581904Y-114214285D01*
X106343809Y-114214285D01*
X106248571Y-114261904D01*
X106200952Y-114309523D01*
X106153333Y-114404761D01*
X106153333Y-114595238D01*
X106200952Y-114690476D01*
X106248571Y-114738095D01*
X106343809Y-114785714D01*
%TO.C,D1*%
X175961904Y-107882380D02*
X175961904Y-106882380D01*
X176200000Y-106882380D01*
X176342857Y-106930000D01*
X176438095Y-107025238D01*
X176485714Y-107120476D01*
X176533333Y-107310952D01*
X176533333Y-107453809D01*
X176485714Y-107644285D01*
X176438095Y-107739523D01*
X176342857Y-107834761D01*
X176200000Y-107882380D01*
X175961904Y-107882380D01*
X177485714Y-107882380D02*
X176914285Y-107882380D01*
X177200000Y-107882380D02*
X177200000Y-106882380D01*
X177104761Y-107025238D01*
X177009523Y-107120476D01*
X176914285Y-107168095D01*
%TO.C,J16*%
X175782380Y-143809523D02*
X176496666Y-143809523D01*
X176639523Y-143857142D01*
X176734761Y-143952380D01*
X176782380Y-144095238D01*
X176782380Y-144190476D01*
X176782380Y-142809523D02*
X176782380Y-143380952D01*
X176782380Y-143095238D02*
X175782380Y-143095238D01*
X175925238Y-143190476D01*
X176020476Y-143285714D01*
X176068095Y-143380952D01*
X175782380Y-141952380D02*
X175782380Y-142142857D01*
X175830000Y-142238095D01*
X175877619Y-142285714D01*
X176020476Y-142380952D01*
X176210952Y-142428571D01*
X176591904Y-142428571D01*
X176687142Y-142380952D01*
X176734761Y-142333333D01*
X176782380Y-142238095D01*
X176782380Y-142047619D01*
X176734761Y-141952380D01*
X176687142Y-141904761D01*
X176591904Y-141857142D01*
X176353809Y-141857142D01*
X176258571Y-141904761D01*
X176210952Y-141952380D01*
X176163333Y-142047619D01*
X176163333Y-142238095D01*
X176210952Y-142333333D01*
X176258571Y-142380952D01*
X176353809Y-142428571D01*
%TO.C,R20*%
X115557142Y-118002380D02*
X115223809Y-117526190D01*
X114985714Y-118002380D02*
X114985714Y-117002380D01*
X115366666Y-117002380D01*
X115461904Y-117050000D01*
X115509523Y-117097619D01*
X115557142Y-117192857D01*
X115557142Y-117335714D01*
X115509523Y-117430952D01*
X115461904Y-117478571D01*
X115366666Y-117526190D01*
X114985714Y-117526190D01*
X115938095Y-117097619D02*
X115985714Y-117050000D01*
X116080952Y-117002380D01*
X116319047Y-117002380D01*
X116414285Y-117050000D01*
X116461904Y-117097619D01*
X116509523Y-117192857D01*
X116509523Y-117288095D01*
X116461904Y-117430952D01*
X115890476Y-118002380D01*
X116509523Y-118002380D01*
X117128571Y-117002380D02*
X117223809Y-117002380D01*
X117319047Y-117050000D01*
X117366666Y-117097619D01*
X117414285Y-117192857D01*
X117461904Y-117383333D01*
X117461904Y-117621428D01*
X117414285Y-117811904D01*
X117366666Y-117907142D01*
X117319047Y-117954761D01*
X117223809Y-118002380D01*
X117128571Y-118002380D01*
X117033333Y-117954761D01*
X116985714Y-117907142D01*
X116938095Y-117811904D01*
X116890476Y-117621428D01*
X116890476Y-117383333D01*
X116938095Y-117192857D01*
X116985714Y-117097619D01*
X117033333Y-117050000D01*
X117128571Y-117002380D01*
%TO.C,Q4*%
X134504761Y-95947619D02*
X134409523Y-95900000D01*
X134314285Y-95804761D01*
X134171428Y-95661904D01*
X134076190Y-95614285D01*
X133980952Y-95614285D01*
X134028571Y-95852380D02*
X133933333Y-95804761D01*
X133838095Y-95709523D01*
X133790476Y-95519047D01*
X133790476Y-95185714D01*
X133838095Y-94995238D01*
X133933333Y-94900000D01*
X134028571Y-94852380D01*
X134219047Y-94852380D01*
X134314285Y-94900000D01*
X134409523Y-94995238D01*
X134457142Y-95185714D01*
X134457142Y-95519047D01*
X134409523Y-95709523D01*
X134314285Y-95804761D01*
X134219047Y-95852380D01*
X134028571Y-95852380D01*
X135314285Y-95185714D02*
X135314285Y-95852380D01*
X135076190Y-94804761D02*
X134838095Y-95519047D01*
X135457142Y-95519047D01*
%TO.C,J17*%
X170982380Y-143809523D02*
X171696666Y-143809523D01*
X171839523Y-143857142D01*
X171934761Y-143952380D01*
X171982380Y-144095238D01*
X171982380Y-144190476D01*
X171982380Y-142809523D02*
X171982380Y-143380952D01*
X171982380Y-143095238D02*
X170982380Y-143095238D01*
X171125238Y-143190476D01*
X171220476Y-143285714D01*
X171268095Y-143380952D01*
X170982380Y-142476190D02*
X170982380Y-141809523D01*
X171982380Y-142238095D01*
%TO.C,R11*%
X111472380Y-88555357D02*
X110996190Y-88888690D01*
X111472380Y-89126785D02*
X110472380Y-89126785D01*
X110472380Y-88745833D01*
X110520000Y-88650595D01*
X110567619Y-88602976D01*
X110662857Y-88555357D01*
X110805714Y-88555357D01*
X110900952Y-88602976D01*
X110948571Y-88650595D01*
X110996190Y-88745833D01*
X110996190Y-89126785D01*
X111472380Y-87602976D02*
X111472380Y-88174404D01*
X111472380Y-87888690D02*
X110472380Y-87888690D01*
X110615238Y-87983928D01*
X110710476Y-88079166D01*
X110758095Y-88174404D01*
X111472380Y-86650595D02*
X111472380Y-87222023D01*
X111472380Y-86936309D02*
X110472380Y-86936309D01*
X110615238Y-87031547D01*
X110710476Y-87126785D01*
X110758095Y-87222023D01*
%TO.C,C12*%
X104457142Y-100442857D02*
X104504761Y-100490476D01*
X104552380Y-100633333D01*
X104552380Y-100728571D01*
X104504761Y-100871428D01*
X104409523Y-100966666D01*
X104314285Y-101014285D01*
X104123809Y-101061904D01*
X103980952Y-101061904D01*
X103790476Y-101014285D01*
X103695238Y-100966666D01*
X103600000Y-100871428D01*
X103552380Y-100728571D01*
X103552380Y-100633333D01*
X103600000Y-100490476D01*
X103647619Y-100442857D01*
X104552380Y-99490476D02*
X104552380Y-100061904D01*
X104552380Y-99776190D02*
X103552380Y-99776190D01*
X103695238Y-99871428D01*
X103790476Y-99966666D01*
X103838095Y-100061904D01*
X103647619Y-99109523D02*
X103600000Y-99061904D01*
X103552380Y-98966666D01*
X103552380Y-98728571D01*
X103600000Y-98633333D01*
X103647619Y-98585714D01*
X103742857Y-98538095D01*
X103838095Y-98538095D01*
X103980952Y-98585714D01*
X104552380Y-99157142D01*
X104552380Y-98538095D01*
%TO.C,C5*%
X109033333Y-65757142D02*
X108985714Y-65804761D01*
X108842857Y-65852380D01*
X108747619Y-65852380D01*
X108604761Y-65804761D01*
X108509523Y-65709523D01*
X108461904Y-65614285D01*
X108414285Y-65423809D01*
X108414285Y-65280952D01*
X108461904Y-65090476D01*
X108509523Y-64995238D01*
X108604761Y-64900000D01*
X108747619Y-64852380D01*
X108842857Y-64852380D01*
X108985714Y-64900000D01*
X109033333Y-64947619D01*
X109938095Y-64852380D02*
X109461904Y-64852380D01*
X109414285Y-65328571D01*
X109461904Y-65280952D01*
X109557142Y-65233333D01*
X109795238Y-65233333D01*
X109890476Y-65280952D01*
X109938095Y-65328571D01*
X109985714Y-65423809D01*
X109985714Y-65661904D01*
X109938095Y-65757142D01*
X109890476Y-65804761D01*
X109795238Y-65852380D01*
X109557142Y-65852380D01*
X109461904Y-65804761D01*
X109414285Y-65757142D01*
%TO.C,R12*%
X91557142Y-79202380D02*
X91223809Y-78726190D01*
X90985714Y-79202380D02*
X90985714Y-78202380D01*
X91366666Y-78202380D01*
X91461904Y-78250000D01*
X91509523Y-78297619D01*
X91557142Y-78392857D01*
X91557142Y-78535714D01*
X91509523Y-78630952D01*
X91461904Y-78678571D01*
X91366666Y-78726190D01*
X90985714Y-78726190D01*
X92509523Y-79202380D02*
X91938095Y-79202380D01*
X92223809Y-79202380D02*
X92223809Y-78202380D01*
X92128571Y-78345238D01*
X92033333Y-78440476D01*
X91938095Y-78488095D01*
X92890476Y-78297619D02*
X92938095Y-78250000D01*
X93033333Y-78202380D01*
X93271428Y-78202380D01*
X93366666Y-78250000D01*
X93414285Y-78297619D01*
X93461904Y-78392857D01*
X93461904Y-78488095D01*
X93414285Y-78630952D01*
X92842857Y-79202380D01*
X93461904Y-79202380D01*
%TO.C,R4*%
X111772380Y-115166666D02*
X111296190Y-115500000D01*
X111772380Y-115738095D02*
X110772380Y-115738095D01*
X110772380Y-115357142D01*
X110820000Y-115261904D01*
X110867619Y-115214285D01*
X110962857Y-115166666D01*
X111105714Y-115166666D01*
X111200952Y-115214285D01*
X111248571Y-115261904D01*
X111296190Y-115357142D01*
X111296190Y-115738095D01*
X111105714Y-114309523D02*
X111772380Y-114309523D01*
X110724761Y-114547619D02*
X111439047Y-114785714D01*
X111439047Y-114166666D01*
%TO.C,R9*%
X98143333Y-84602380D02*
X97810000Y-84126190D01*
X97571904Y-84602380D02*
X97571904Y-83602380D01*
X97952857Y-83602380D01*
X98048095Y-83650000D01*
X98095714Y-83697619D01*
X98143333Y-83792857D01*
X98143333Y-83935714D01*
X98095714Y-84030952D01*
X98048095Y-84078571D01*
X97952857Y-84126190D01*
X97571904Y-84126190D01*
X98619523Y-84602380D02*
X98810000Y-84602380D01*
X98905238Y-84554761D01*
X98952857Y-84507142D01*
X99048095Y-84364285D01*
X99095714Y-84173809D01*
X99095714Y-83792857D01*
X99048095Y-83697619D01*
X99000476Y-83650000D01*
X98905238Y-83602380D01*
X98714761Y-83602380D01*
X98619523Y-83650000D01*
X98571904Y-83697619D01*
X98524285Y-83792857D01*
X98524285Y-84030952D01*
X98571904Y-84126190D01*
X98619523Y-84173809D01*
X98714761Y-84221428D01*
X98905238Y-84221428D01*
X99000476Y-84173809D01*
X99048095Y-84126190D01*
X99095714Y-84030952D01*
%TO.C,R26*%
X128757142Y-127402380D02*
X128423809Y-126926190D01*
X128185714Y-127402380D02*
X128185714Y-126402380D01*
X128566666Y-126402380D01*
X128661904Y-126450000D01*
X128709523Y-126497619D01*
X128757142Y-126592857D01*
X128757142Y-126735714D01*
X128709523Y-126830952D01*
X128661904Y-126878571D01*
X128566666Y-126926190D01*
X128185714Y-126926190D01*
X129138095Y-126497619D02*
X129185714Y-126450000D01*
X129280952Y-126402380D01*
X129519047Y-126402380D01*
X129614285Y-126450000D01*
X129661904Y-126497619D01*
X129709523Y-126592857D01*
X129709523Y-126688095D01*
X129661904Y-126830952D01*
X129090476Y-127402380D01*
X129709523Y-127402380D01*
X130566666Y-126402380D02*
X130376190Y-126402380D01*
X130280952Y-126450000D01*
X130233333Y-126497619D01*
X130138095Y-126640476D01*
X130090476Y-126830952D01*
X130090476Y-127211904D01*
X130138095Y-127307142D01*
X130185714Y-127354761D01*
X130280952Y-127402380D01*
X130471428Y-127402380D01*
X130566666Y-127354761D01*
X130614285Y-127307142D01*
X130661904Y-127211904D01*
X130661904Y-126973809D01*
X130614285Y-126878571D01*
X130566666Y-126830952D01*
X130471428Y-126783333D01*
X130280952Y-126783333D01*
X130185714Y-126830952D01*
X130138095Y-126878571D01*
X130090476Y-126973809D01*
%TO.C,C18*%
X142367142Y-72282857D02*
X142414761Y-72330476D01*
X142462380Y-72473333D01*
X142462380Y-72568571D01*
X142414761Y-72711428D01*
X142319523Y-72806666D01*
X142224285Y-72854285D01*
X142033809Y-72901904D01*
X141890952Y-72901904D01*
X141700476Y-72854285D01*
X141605238Y-72806666D01*
X141510000Y-72711428D01*
X141462380Y-72568571D01*
X141462380Y-72473333D01*
X141510000Y-72330476D01*
X141557619Y-72282857D01*
X142462380Y-71330476D02*
X142462380Y-71901904D01*
X142462380Y-71616190D02*
X141462380Y-71616190D01*
X141605238Y-71711428D01*
X141700476Y-71806666D01*
X141748095Y-71901904D01*
X141890952Y-70759047D02*
X141843333Y-70854285D01*
X141795714Y-70901904D01*
X141700476Y-70949523D01*
X141652857Y-70949523D01*
X141557619Y-70901904D01*
X141510000Y-70854285D01*
X141462380Y-70759047D01*
X141462380Y-70568571D01*
X141510000Y-70473333D01*
X141557619Y-70425714D01*
X141652857Y-70378095D01*
X141700476Y-70378095D01*
X141795714Y-70425714D01*
X141843333Y-70473333D01*
X141890952Y-70568571D01*
X141890952Y-70759047D01*
X141938571Y-70854285D01*
X141986190Y-70901904D01*
X142081428Y-70949523D01*
X142271904Y-70949523D01*
X142367142Y-70901904D01*
X142414761Y-70854285D01*
X142462380Y-70759047D01*
X142462380Y-70568571D01*
X142414761Y-70473333D01*
X142367142Y-70425714D01*
X142271904Y-70378095D01*
X142081428Y-70378095D01*
X141986190Y-70425714D01*
X141938571Y-70473333D01*
X141890952Y-70568571D01*
%TO.C,R30*%
X125557142Y-134352380D02*
X125223809Y-133876190D01*
X124985714Y-134352380D02*
X124985714Y-133352380D01*
X125366666Y-133352380D01*
X125461904Y-133400000D01*
X125509523Y-133447619D01*
X125557142Y-133542857D01*
X125557142Y-133685714D01*
X125509523Y-133780952D01*
X125461904Y-133828571D01*
X125366666Y-133876190D01*
X124985714Y-133876190D01*
X125890476Y-133352380D02*
X126509523Y-133352380D01*
X126176190Y-133733333D01*
X126319047Y-133733333D01*
X126414285Y-133780952D01*
X126461904Y-133828571D01*
X126509523Y-133923809D01*
X126509523Y-134161904D01*
X126461904Y-134257142D01*
X126414285Y-134304761D01*
X126319047Y-134352380D01*
X126033333Y-134352380D01*
X125938095Y-134304761D01*
X125890476Y-134257142D01*
X127128571Y-133352380D02*
X127223809Y-133352380D01*
X127319047Y-133400000D01*
X127366666Y-133447619D01*
X127414285Y-133542857D01*
X127461904Y-133733333D01*
X127461904Y-133971428D01*
X127414285Y-134161904D01*
X127366666Y-134257142D01*
X127319047Y-134304761D01*
X127223809Y-134352380D01*
X127128571Y-134352380D01*
X127033333Y-134304761D01*
X126985714Y-134257142D01*
X126938095Y-134161904D01*
X126890476Y-133971428D01*
X126890476Y-133733333D01*
X126938095Y-133542857D01*
X126985714Y-133447619D01*
X127033333Y-133400000D01*
X127128571Y-133352380D01*
%TO.C,J4*%
X168766666Y-60022380D02*
X168766666Y-60736666D01*
X168719047Y-60879523D01*
X168623809Y-60974761D01*
X168480952Y-61022380D01*
X168385714Y-61022380D01*
X169671428Y-60355714D02*
X169671428Y-61022380D01*
X169433333Y-59974761D02*
X169195238Y-60689047D01*
X169814285Y-60689047D01*
%TO.C,C10*%
X114757142Y-73007142D02*
X114709523Y-73054761D01*
X114566666Y-73102380D01*
X114471428Y-73102380D01*
X114328571Y-73054761D01*
X114233333Y-72959523D01*
X114185714Y-72864285D01*
X114138095Y-72673809D01*
X114138095Y-72530952D01*
X114185714Y-72340476D01*
X114233333Y-72245238D01*
X114328571Y-72150000D01*
X114471428Y-72102380D01*
X114566666Y-72102380D01*
X114709523Y-72150000D01*
X114757142Y-72197619D01*
X115709523Y-73102380D02*
X115138095Y-73102380D01*
X115423809Y-73102380D02*
X115423809Y-72102380D01*
X115328571Y-72245238D01*
X115233333Y-72340476D01*
X115138095Y-72388095D01*
X116328571Y-72102380D02*
X116423809Y-72102380D01*
X116519047Y-72150000D01*
X116566666Y-72197619D01*
X116614285Y-72292857D01*
X116661904Y-72483333D01*
X116661904Y-72721428D01*
X116614285Y-72911904D01*
X116566666Y-73007142D01*
X116519047Y-73054761D01*
X116423809Y-73102380D01*
X116328571Y-73102380D01*
X116233333Y-73054761D01*
X116185714Y-73007142D01*
X116138095Y-72911904D01*
X116090476Y-72721428D01*
X116090476Y-72483333D01*
X116138095Y-72292857D01*
X116185714Y-72197619D01*
X116233333Y-72150000D01*
X116328571Y-72102380D01*
%TO.C,C25*%
X94957142Y-70757142D02*
X94909523Y-70804761D01*
X94766666Y-70852380D01*
X94671428Y-70852380D01*
X94528571Y-70804761D01*
X94433333Y-70709523D01*
X94385714Y-70614285D01*
X94338095Y-70423809D01*
X94338095Y-70280952D01*
X94385714Y-70090476D01*
X94433333Y-69995238D01*
X94528571Y-69900000D01*
X94671428Y-69852380D01*
X94766666Y-69852380D01*
X94909523Y-69900000D01*
X94957142Y-69947619D01*
X95338095Y-69947619D02*
X95385714Y-69900000D01*
X95480952Y-69852380D01*
X95719047Y-69852380D01*
X95814285Y-69900000D01*
X95861904Y-69947619D01*
X95909523Y-70042857D01*
X95909523Y-70138095D01*
X95861904Y-70280952D01*
X95290476Y-70852380D01*
X95909523Y-70852380D01*
X96814285Y-69852380D02*
X96338095Y-69852380D01*
X96290476Y-70328571D01*
X96338095Y-70280952D01*
X96433333Y-70233333D01*
X96671428Y-70233333D01*
X96766666Y-70280952D01*
X96814285Y-70328571D01*
X96861904Y-70423809D01*
X96861904Y-70661904D01*
X96814285Y-70757142D01*
X96766666Y-70804761D01*
X96671428Y-70852380D01*
X96433333Y-70852380D01*
X96338095Y-70804761D01*
X96290476Y-70757142D01*
%TO.C,J20*%
X93590476Y-139527380D02*
X93590476Y-140241666D01*
X93542857Y-140384523D01*
X93447619Y-140479761D01*
X93304761Y-140527380D01*
X93209523Y-140527380D01*
X94019047Y-139622619D02*
X94066666Y-139575000D01*
X94161904Y-139527380D01*
X94400000Y-139527380D01*
X94495238Y-139575000D01*
X94542857Y-139622619D01*
X94590476Y-139717857D01*
X94590476Y-139813095D01*
X94542857Y-139955952D01*
X93971428Y-140527380D01*
X94590476Y-140527380D01*
X95209523Y-139527380D02*
X95304761Y-139527380D01*
X95400000Y-139575000D01*
X95447619Y-139622619D01*
X95495238Y-139717857D01*
X95542857Y-139908333D01*
X95542857Y-140146428D01*
X95495238Y-140336904D01*
X95447619Y-140432142D01*
X95400000Y-140479761D01*
X95304761Y-140527380D01*
X95209523Y-140527380D01*
X95114285Y-140479761D01*
X95066666Y-140432142D01*
X95019047Y-140336904D01*
X94971428Y-140146428D01*
X94971428Y-139908333D01*
X95019047Y-139717857D01*
X95066666Y-139622619D01*
X95114285Y-139575000D01*
X95209523Y-139527380D01*
%TO.C,R1*%
X183952380Y-101929166D02*
X183476190Y-102262500D01*
X183952380Y-102500595D02*
X182952380Y-102500595D01*
X182952380Y-102119642D01*
X183000000Y-102024404D01*
X183047619Y-101976785D01*
X183142857Y-101929166D01*
X183285714Y-101929166D01*
X183380952Y-101976785D01*
X183428571Y-102024404D01*
X183476190Y-102119642D01*
X183476190Y-102500595D01*
X183952380Y-100976785D02*
X183952380Y-101548214D01*
X183952380Y-101262500D02*
X182952380Y-101262500D01*
X183095238Y-101357738D01*
X183190476Y-101452976D01*
X183238095Y-101548214D01*
%TO.C,R16*%
X139407142Y-108052380D02*
X139073809Y-107576190D01*
X138835714Y-108052380D02*
X138835714Y-107052380D01*
X139216666Y-107052380D01*
X139311904Y-107100000D01*
X139359523Y-107147619D01*
X139407142Y-107242857D01*
X139407142Y-107385714D01*
X139359523Y-107480952D01*
X139311904Y-107528571D01*
X139216666Y-107576190D01*
X138835714Y-107576190D01*
X140359523Y-108052380D02*
X139788095Y-108052380D01*
X140073809Y-108052380D02*
X140073809Y-107052380D01*
X139978571Y-107195238D01*
X139883333Y-107290476D01*
X139788095Y-107338095D01*
X141216666Y-107052380D02*
X141026190Y-107052380D01*
X140930952Y-107100000D01*
X140883333Y-107147619D01*
X140788095Y-107290476D01*
X140740476Y-107480952D01*
X140740476Y-107861904D01*
X140788095Y-107957142D01*
X140835714Y-108004761D01*
X140930952Y-108052380D01*
X141121428Y-108052380D01*
X141216666Y-108004761D01*
X141264285Y-107957142D01*
X141311904Y-107861904D01*
X141311904Y-107623809D01*
X141264285Y-107528571D01*
X141216666Y-107480952D01*
X141121428Y-107433333D01*
X140930952Y-107433333D01*
X140835714Y-107480952D01*
X140788095Y-107528571D01*
X140740476Y-107623809D01*
%TO.C,J3*%
X174666666Y-79122380D02*
X174666666Y-79836666D01*
X174619047Y-79979523D01*
X174523809Y-80074761D01*
X174380952Y-80122380D01*
X174285714Y-80122380D01*
X175047619Y-79122380D02*
X175666666Y-79122380D01*
X175333333Y-79503333D01*
X175476190Y-79503333D01*
X175571428Y-79550952D01*
X175619047Y-79598571D01*
X175666666Y-79693809D01*
X175666666Y-79931904D01*
X175619047Y-80027142D01*
X175571428Y-80074761D01*
X175476190Y-80122380D01*
X175190476Y-80122380D01*
X175095238Y-80074761D01*
X175047619Y-80027142D01*
%TO.C,C21*%
X172957142Y-111557142D02*
X172909523Y-111604761D01*
X172766666Y-111652380D01*
X172671428Y-111652380D01*
X172528571Y-111604761D01*
X172433333Y-111509523D01*
X172385714Y-111414285D01*
X172338095Y-111223809D01*
X172338095Y-111080952D01*
X172385714Y-110890476D01*
X172433333Y-110795238D01*
X172528571Y-110700000D01*
X172671428Y-110652380D01*
X172766666Y-110652380D01*
X172909523Y-110700000D01*
X172957142Y-110747619D01*
X173338095Y-110747619D02*
X173385714Y-110700000D01*
X173480952Y-110652380D01*
X173719047Y-110652380D01*
X173814285Y-110700000D01*
X173861904Y-110747619D01*
X173909523Y-110842857D01*
X173909523Y-110938095D01*
X173861904Y-111080952D01*
X173290476Y-111652380D01*
X173909523Y-111652380D01*
X174861904Y-111652380D02*
X174290476Y-111652380D01*
X174576190Y-111652380D02*
X174576190Y-110652380D01*
X174480952Y-110795238D01*
X174385714Y-110890476D01*
X174290476Y-110938095D01*
%TO.C,R32*%
X147157142Y-137052380D02*
X146823809Y-136576190D01*
X146585714Y-137052380D02*
X146585714Y-136052380D01*
X146966666Y-136052380D01*
X147061904Y-136100000D01*
X147109523Y-136147619D01*
X147157142Y-136242857D01*
X147157142Y-136385714D01*
X147109523Y-136480952D01*
X147061904Y-136528571D01*
X146966666Y-136576190D01*
X146585714Y-136576190D01*
X147490476Y-136052380D02*
X148109523Y-136052380D01*
X147776190Y-136433333D01*
X147919047Y-136433333D01*
X148014285Y-136480952D01*
X148061904Y-136528571D01*
X148109523Y-136623809D01*
X148109523Y-136861904D01*
X148061904Y-136957142D01*
X148014285Y-137004761D01*
X147919047Y-137052380D01*
X147633333Y-137052380D01*
X147538095Y-137004761D01*
X147490476Y-136957142D01*
X148490476Y-136147619D02*
X148538095Y-136100000D01*
X148633333Y-136052380D01*
X148871428Y-136052380D01*
X148966666Y-136100000D01*
X149014285Y-136147619D01*
X149061904Y-136242857D01*
X149061904Y-136338095D01*
X149014285Y-136480952D01*
X148442857Y-137052380D01*
X149061904Y-137052380D01*
%TO.C,J9*%
X118266666Y-60152380D02*
X118266666Y-60866666D01*
X118219047Y-61009523D01*
X118123809Y-61104761D01*
X117980952Y-61152380D01*
X117885714Y-61152380D01*
X118790476Y-61152380D02*
X118980952Y-61152380D01*
X119076190Y-61104761D01*
X119123809Y-61057142D01*
X119219047Y-60914285D01*
X119266666Y-60723809D01*
X119266666Y-60342857D01*
X119219047Y-60247619D01*
X119171428Y-60200000D01*
X119076190Y-60152380D01*
X118885714Y-60152380D01*
X118790476Y-60200000D01*
X118742857Y-60247619D01*
X118695238Y-60342857D01*
X118695238Y-60580952D01*
X118742857Y-60676190D01*
X118790476Y-60723809D01*
X118885714Y-60771428D01*
X119076190Y-60771428D01*
X119171428Y-60723809D01*
X119219047Y-60676190D01*
X119266666Y-60580952D01*
%TO.C,Q8*%
X142104761Y-121547619D02*
X142009523Y-121500000D01*
X141914285Y-121404761D01*
X141771428Y-121261904D01*
X141676190Y-121214285D01*
X141580952Y-121214285D01*
X141628571Y-121452380D02*
X141533333Y-121404761D01*
X141438095Y-121309523D01*
X141390476Y-121119047D01*
X141390476Y-120785714D01*
X141438095Y-120595238D01*
X141533333Y-120500000D01*
X141628571Y-120452380D01*
X141819047Y-120452380D01*
X141914285Y-120500000D01*
X142009523Y-120595238D01*
X142057142Y-120785714D01*
X142057142Y-121119047D01*
X142009523Y-121309523D01*
X141914285Y-121404761D01*
X141819047Y-121452380D01*
X141628571Y-121452380D01*
X142628571Y-120880952D02*
X142533333Y-120833333D01*
X142485714Y-120785714D01*
X142438095Y-120690476D01*
X142438095Y-120642857D01*
X142485714Y-120547619D01*
X142533333Y-120500000D01*
X142628571Y-120452380D01*
X142819047Y-120452380D01*
X142914285Y-120500000D01*
X142961904Y-120547619D01*
X143009523Y-120642857D01*
X143009523Y-120690476D01*
X142961904Y-120785714D01*
X142914285Y-120833333D01*
X142819047Y-120880952D01*
X142628571Y-120880952D01*
X142533333Y-120928571D01*
X142485714Y-120976190D01*
X142438095Y-121071428D01*
X142438095Y-121261904D01*
X142485714Y-121357142D01*
X142533333Y-121404761D01*
X142628571Y-121452380D01*
X142819047Y-121452380D01*
X142914285Y-121404761D01*
X142961904Y-121357142D01*
X143009523Y-121261904D01*
X143009523Y-121071428D01*
X142961904Y-120976190D01*
X142914285Y-120928571D01*
X142819047Y-120880952D01*
%TO.C,C9*%
X109133333Y-82707142D02*
X109085714Y-82754761D01*
X108942857Y-82802380D01*
X108847619Y-82802380D01*
X108704761Y-82754761D01*
X108609523Y-82659523D01*
X108561904Y-82564285D01*
X108514285Y-82373809D01*
X108514285Y-82230952D01*
X108561904Y-82040476D01*
X108609523Y-81945238D01*
X108704761Y-81850000D01*
X108847619Y-81802380D01*
X108942857Y-81802380D01*
X109085714Y-81850000D01*
X109133333Y-81897619D01*
X109609523Y-82802380D02*
X109800000Y-82802380D01*
X109895238Y-82754761D01*
X109942857Y-82707142D01*
X110038095Y-82564285D01*
X110085714Y-82373809D01*
X110085714Y-81992857D01*
X110038095Y-81897619D01*
X109990476Y-81850000D01*
X109895238Y-81802380D01*
X109704761Y-81802380D01*
X109609523Y-81850000D01*
X109561904Y-81897619D01*
X109514285Y-81992857D01*
X109514285Y-82230952D01*
X109561904Y-82326190D01*
X109609523Y-82373809D01*
X109704761Y-82421428D01*
X109895238Y-82421428D01*
X109990476Y-82373809D01*
X110038095Y-82326190D01*
X110085714Y-82230952D01*
%TO.C,U5*%
X102888095Y-77692380D02*
X102888095Y-78501904D01*
X102935714Y-78597142D01*
X102983333Y-78644761D01*
X103078571Y-78692380D01*
X103269047Y-78692380D01*
X103364285Y-78644761D01*
X103411904Y-78597142D01*
X103459523Y-78501904D01*
X103459523Y-77692380D01*
X104411904Y-77692380D02*
X103935714Y-77692380D01*
X103888095Y-78168571D01*
X103935714Y-78120952D01*
X104030952Y-78073333D01*
X104269047Y-78073333D01*
X104364285Y-78120952D01*
X104411904Y-78168571D01*
X104459523Y-78263809D01*
X104459523Y-78501904D01*
X104411904Y-78597142D01*
X104364285Y-78644761D01*
X104269047Y-78692380D01*
X104030952Y-78692380D01*
X103935714Y-78644761D01*
X103888095Y-78597142D01*
%TO.C,Q10*%
X136228571Y-131747619D02*
X136133333Y-131700000D01*
X136038095Y-131604761D01*
X135895238Y-131461904D01*
X135800000Y-131414285D01*
X135704761Y-131414285D01*
X135752380Y-131652380D02*
X135657142Y-131604761D01*
X135561904Y-131509523D01*
X135514285Y-131319047D01*
X135514285Y-130985714D01*
X135561904Y-130795238D01*
X135657142Y-130700000D01*
X135752380Y-130652380D01*
X135942857Y-130652380D01*
X136038095Y-130700000D01*
X136133333Y-130795238D01*
X136180952Y-130985714D01*
X136180952Y-131319047D01*
X136133333Y-131509523D01*
X136038095Y-131604761D01*
X135942857Y-131652380D01*
X135752380Y-131652380D01*
X137133333Y-131652380D02*
X136561904Y-131652380D01*
X136847619Y-131652380D02*
X136847619Y-130652380D01*
X136752380Y-130795238D01*
X136657142Y-130890476D01*
X136561904Y-130938095D01*
X137752380Y-130652380D02*
X137847619Y-130652380D01*
X137942857Y-130700000D01*
X137990476Y-130747619D01*
X138038095Y-130842857D01*
X138085714Y-131033333D01*
X138085714Y-131271428D01*
X138038095Y-131461904D01*
X137990476Y-131557142D01*
X137942857Y-131604761D01*
X137847619Y-131652380D01*
X137752380Y-131652380D01*
X137657142Y-131604761D01*
X137609523Y-131557142D01*
X137561904Y-131461904D01*
X137514285Y-131271428D01*
X137514285Y-131033333D01*
X137561904Y-130842857D01*
X137609523Y-130747619D01*
X137657142Y-130700000D01*
X137752380Y-130652380D01*
%TO.C,R2*%
X130623333Y-103942380D02*
X130290000Y-103466190D01*
X130051904Y-103942380D02*
X130051904Y-102942380D01*
X130432857Y-102942380D01*
X130528095Y-102990000D01*
X130575714Y-103037619D01*
X130623333Y-103132857D01*
X130623333Y-103275714D01*
X130575714Y-103370952D01*
X130528095Y-103418571D01*
X130432857Y-103466190D01*
X130051904Y-103466190D01*
X131004285Y-103037619D02*
X131051904Y-102990000D01*
X131147142Y-102942380D01*
X131385238Y-102942380D01*
X131480476Y-102990000D01*
X131528095Y-103037619D01*
X131575714Y-103132857D01*
X131575714Y-103228095D01*
X131528095Y-103370952D01*
X130956666Y-103942380D01*
X131575714Y-103942380D01*
%TO.C,D9*%
X130852380Y-98208095D02*
X129852380Y-98208095D01*
X129852380Y-97970000D01*
X129900000Y-97827142D01*
X129995238Y-97731904D01*
X130090476Y-97684285D01*
X130280952Y-97636666D01*
X130423809Y-97636666D01*
X130614285Y-97684285D01*
X130709523Y-97731904D01*
X130804761Y-97827142D01*
X130852380Y-97970000D01*
X130852380Y-98208095D01*
X130852380Y-97160476D02*
X130852380Y-96970000D01*
X130804761Y-96874761D01*
X130757142Y-96827142D01*
X130614285Y-96731904D01*
X130423809Y-96684285D01*
X130042857Y-96684285D01*
X129947619Y-96731904D01*
X129900000Y-96779523D01*
X129852380Y-96874761D01*
X129852380Y-97065238D01*
X129900000Y-97160476D01*
X129947619Y-97208095D01*
X130042857Y-97255714D01*
X130280952Y-97255714D01*
X130376190Y-97208095D01*
X130423809Y-97160476D01*
X130471428Y-97065238D01*
X130471428Y-96874761D01*
X130423809Y-96779523D01*
X130376190Y-96731904D01*
X130280952Y-96684285D01*
%TO.C,R33*%
X147157142Y-134352380D02*
X146823809Y-133876190D01*
X146585714Y-134352380D02*
X146585714Y-133352380D01*
X146966666Y-133352380D01*
X147061904Y-133400000D01*
X147109523Y-133447619D01*
X147157142Y-133542857D01*
X147157142Y-133685714D01*
X147109523Y-133780952D01*
X147061904Y-133828571D01*
X146966666Y-133876190D01*
X146585714Y-133876190D01*
X147490476Y-133352380D02*
X148109523Y-133352380D01*
X147776190Y-133733333D01*
X147919047Y-133733333D01*
X148014285Y-133780952D01*
X148061904Y-133828571D01*
X148109523Y-133923809D01*
X148109523Y-134161904D01*
X148061904Y-134257142D01*
X148014285Y-134304761D01*
X147919047Y-134352380D01*
X147633333Y-134352380D01*
X147538095Y-134304761D01*
X147490476Y-134257142D01*
X148442857Y-133352380D02*
X149061904Y-133352380D01*
X148728571Y-133733333D01*
X148871428Y-133733333D01*
X148966666Y-133780952D01*
X149014285Y-133828571D01*
X149061904Y-133923809D01*
X149061904Y-134161904D01*
X149014285Y-134257142D01*
X148966666Y-134304761D01*
X148871428Y-134352380D01*
X148585714Y-134352380D01*
X148490476Y-134304761D01*
X148442857Y-134257142D01*
%TO.C,C8*%
X95333333Y-74807142D02*
X95285714Y-74854761D01*
X95142857Y-74902380D01*
X95047619Y-74902380D01*
X94904761Y-74854761D01*
X94809523Y-74759523D01*
X94761904Y-74664285D01*
X94714285Y-74473809D01*
X94714285Y-74330952D01*
X94761904Y-74140476D01*
X94809523Y-74045238D01*
X94904761Y-73950000D01*
X95047619Y-73902380D01*
X95142857Y-73902380D01*
X95285714Y-73950000D01*
X95333333Y-73997619D01*
X95904761Y-74330952D02*
X95809523Y-74283333D01*
X95761904Y-74235714D01*
X95714285Y-74140476D01*
X95714285Y-74092857D01*
X95761904Y-73997619D01*
X95809523Y-73950000D01*
X95904761Y-73902380D01*
X96095238Y-73902380D01*
X96190476Y-73950000D01*
X96238095Y-73997619D01*
X96285714Y-74092857D01*
X96285714Y-74140476D01*
X96238095Y-74235714D01*
X96190476Y-74283333D01*
X96095238Y-74330952D01*
X95904761Y-74330952D01*
X95809523Y-74378571D01*
X95761904Y-74426190D01*
X95714285Y-74521428D01*
X95714285Y-74711904D01*
X95761904Y-74807142D01*
X95809523Y-74854761D01*
X95904761Y-74902380D01*
X96095238Y-74902380D01*
X96190476Y-74854761D01*
X96238095Y-74807142D01*
X96285714Y-74711904D01*
X96285714Y-74521428D01*
X96238095Y-74426190D01*
X96190476Y-74378571D01*
X96095238Y-74330952D01*
%TO.C,J12*%
X93690476Y-118622380D02*
X93690476Y-119336666D01*
X93642857Y-119479523D01*
X93547619Y-119574761D01*
X93404761Y-119622380D01*
X93309523Y-119622380D01*
X94690476Y-119622380D02*
X94119047Y-119622380D01*
X94404761Y-119622380D02*
X94404761Y-118622380D01*
X94309523Y-118765238D01*
X94214285Y-118860476D01*
X94119047Y-118908095D01*
X95071428Y-118717619D02*
X95119047Y-118670000D01*
X95214285Y-118622380D01*
X95452380Y-118622380D01*
X95547619Y-118670000D01*
X95595238Y-118717619D01*
X95642857Y-118812857D01*
X95642857Y-118908095D01*
X95595238Y-119050952D01*
X95023809Y-119622380D01*
X95642857Y-119622380D01*
%TO.C,R27*%
X148402380Y-123342857D02*
X147926190Y-123676190D01*
X148402380Y-123914285D02*
X147402380Y-123914285D01*
X147402380Y-123533333D01*
X147450000Y-123438095D01*
X147497619Y-123390476D01*
X147592857Y-123342857D01*
X147735714Y-123342857D01*
X147830952Y-123390476D01*
X147878571Y-123438095D01*
X147926190Y-123533333D01*
X147926190Y-123914285D01*
X147497619Y-122961904D02*
X147450000Y-122914285D01*
X147402380Y-122819047D01*
X147402380Y-122580952D01*
X147450000Y-122485714D01*
X147497619Y-122438095D01*
X147592857Y-122390476D01*
X147688095Y-122390476D01*
X147830952Y-122438095D01*
X148402380Y-123009523D01*
X148402380Y-122390476D01*
X147402380Y-122057142D02*
X147402380Y-121390476D01*
X148402380Y-121819047D01*
%TO.C,L3*%
X125047619Y-81183333D02*
X125047619Y-80707142D01*
X126047619Y-80707142D01*
X126047619Y-81421428D02*
X126047619Y-82040476D01*
X125666666Y-81707142D01*
X125666666Y-81850000D01*
X125619047Y-81945238D01*
X125571428Y-81992857D01*
X125476190Y-82040476D01*
X125238095Y-82040476D01*
X125142857Y-81992857D01*
X125095238Y-81945238D01*
X125047619Y-81850000D01*
X125047619Y-81564285D01*
X125095238Y-81469047D01*
X125142857Y-81421428D01*
%TO.C,U6*%
X149412380Y-84581904D02*
X150221904Y-84581904D01*
X150317142Y-84534285D01*
X150364761Y-84486666D01*
X150412380Y-84391428D01*
X150412380Y-84200952D01*
X150364761Y-84105714D01*
X150317142Y-84058095D01*
X150221904Y-84010476D01*
X149412380Y-84010476D01*
X149412380Y-83105714D02*
X149412380Y-83296190D01*
X149460000Y-83391428D01*
X149507619Y-83439047D01*
X149650476Y-83534285D01*
X149840952Y-83581904D01*
X150221904Y-83581904D01*
X150317142Y-83534285D01*
X150364761Y-83486666D01*
X150412380Y-83391428D01*
X150412380Y-83200952D01*
X150364761Y-83105714D01*
X150317142Y-83058095D01*
X150221904Y-83010476D01*
X149983809Y-83010476D01*
X149888571Y-83058095D01*
X149840952Y-83105714D01*
X149793333Y-83200952D01*
X149793333Y-83391428D01*
X149840952Y-83486666D01*
X149888571Y-83534285D01*
X149983809Y-83581904D01*
%TO.C,C19*%
X139757142Y-72292857D02*
X139804761Y-72340476D01*
X139852380Y-72483333D01*
X139852380Y-72578571D01*
X139804761Y-72721428D01*
X139709523Y-72816666D01*
X139614285Y-72864285D01*
X139423809Y-72911904D01*
X139280952Y-72911904D01*
X139090476Y-72864285D01*
X138995238Y-72816666D01*
X138900000Y-72721428D01*
X138852380Y-72578571D01*
X138852380Y-72483333D01*
X138900000Y-72340476D01*
X138947619Y-72292857D01*
X139852380Y-71340476D02*
X139852380Y-71911904D01*
X139852380Y-71626190D02*
X138852380Y-71626190D01*
X138995238Y-71721428D01*
X139090476Y-71816666D01*
X139138095Y-71911904D01*
X139852380Y-70864285D02*
X139852380Y-70673809D01*
X139804761Y-70578571D01*
X139757142Y-70530952D01*
X139614285Y-70435714D01*
X139423809Y-70388095D01*
X139042857Y-70388095D01*
X138947619Y-70435714D01*
X138900000Y-70483333D01*
X138852380Y-70578571D01*
X138852380Y-70769047D01*
X138900000Y-70864285D01*
X138947619Y-70911904D01*
X139042857Y-70959523D01*
X139280952Y-70959523D01*
X139376190Y-70911904D01*
X139423809Y-70864285D01*
X139471428Y-70769047D01*
X139471428Y-70578571D01*
X139423809Y-70483333D01*
X139376190Y-70435714D01*
X139280952Y-70388095D01*
%TO.C,C16*%
X147387142Y-72302857D02*
X147434761Y-72350476D01*
X147482380Y-72493333D01*
X147482380Y-72588571D01*
X147434761Y-72731428D01*
X147339523Y-72826666D01*
X147244285Y-72874285D01*
X147053809Y-72921904D01*
X146910952Y-72921904D01*
X146720476Y-72874285D01*
X146625238Y-72826666D01*
X146530000Y-72731428D01*
X146482380Y-72588571D01*
X146482380Y-72493333D01*
X146530000Y-72350476D01*
X146577619Y-72302857D01*
X147482380Y-71350476D02*
X147482380Y-71921904D01*
X147482380Y-71636190D02*
X146482380Y-71636190D01*
X146625238Y-71731428D01*
X146720476Y-71826666D01*
X146768095Y-71921904D01*
X146482380Y-70493333D02*
X146482380Y-70683809D01*
X146530000Y-70779047D01*
X146577619Y-70826666D01*
X146720476Y-70921904D01*
X146910952Y-70969523D01*
X147291904Y-70969523D01*
X147387142Y-70921904D01*
X147434761Y-70874285D01*
X147482380Y-70779047D01*
X147482380Y-70588571D01*
X147434761Y-70493333D01*
X147387142Y-70445714D01*
X147291904Y-70398095D01*
X147053809Y-70398095D01*
X146958571Y-70445714D01*
X146910952Y-70493333D01*
X146863333Y-70588571D01*
X146863333Y-70779047D01*
X146910952Y-70874285D01*
X146958571Y-70921904D01*
X147053809Y-70969523D01*
%TO.C,J14*%
X93690476Y-130397380D02*
X93690476Y-131111666D01*
X93642857Y-131254523D01*
X93547619Y-131349761D01*
X93404761Y-131397380D01*
X93309523Y-131397380D01*
X94690476Y-131397380D02*
X94119047Y-131397380D01*
X94404761Y-131397380D02*
X94404761Y-130397380D01*
X94309523Y-130540238D01*
X94214285Y-130635476D01*
X94119047Y-130683095D01*
X95547619Y-130730714D02*
X95547619Y-131397380D01*
X95309523Y-130349761D02*
X95071428Y-131064047D01*
X95690476Y-131064047D01*
%TO.C,Q2*%
X161847619Y-101845238D02*
X161800000Y-101940476D01*
X161704761Y-102035714D01*
X161561904Y-102178571D01*
X161514285Y-102273809D01*
X161514285Y-102369047D01*
X161752380Y-102321428D02*
X161704761Y-102416666D01*
X161609523Y-102511904D01*
X161419047Y-102559523D01*
X161085714Y-102559523D01*
X160895238Y-102511904D01*
X160800000Y-102416666D01*
X160752380Y-102321428D01*
X160752380Y-102130952D01*
X160800000Y-102035714D01*
X160895238Y-101940476D01*
X161085714Y-101892857D01*
X161419047Y-101892857D01*
X161609523Y-101940476D01*
X161704761Y-102035714D01*
X161752380Y-102130952D01*
X161752380Y-102321428D01*
X160847619Y-101511904D02*
X160800000Y-101464285D01*
X160752380Y-101369047D01*
X160752380Y-101130952D01*
X160800000Y-101035714D01*
X160847619Y-100988095D01*
X160942857Y-100940476D01*
X161038095Y-100940476D01*
X161180952Y-100988095D01*
X161752380Y-101559523D01*
X161752380Y-100940476D01*
%TO.C,R5*%
X106772380Y-106766666D02*
X106296190Y-107100000D01*
X106772380Y-107338095D02*
X105772380Y-107338095D01*
X105772380Y-106957142D01*
X105820000Y-106861904D01*
X105867619Y-106814285D01*
X105962857Y-106766666D01*
X106105714Y-106766666D01*
X106200952Y-106814285D01*
X106248571Y-106861904D01*
X106296190Y-106957142D01*
X106296190Y-107338095D01*
X105772380Y-105861904D02*
X105772380Y-106338095D01*
X106248571Y-106385714D01*
X106200952Y-106338095D01*
X106153333Y-106242857D01*
X106153333Y-106004761D01*
X106200952Y-105909523D01*
X106248571Y-105861904D01*
X106343809Y-105814285D01*
X106581904Y-105814285D01*
X106677142Y-105861904D01*
X106724761Y-105909523D01*
X106772380Y-106004761D01*
X106772380Y-106242857D01*
X106724761Y-106338095D01*
X106677142Y-106385714D01*
%TO.C,J10*%
X160690476Y-60022380D02*
X160690476Y-60736666D01*
X160642857Y-60879523D01*
X160547619Y-60974761D01*
X160404761Y-61022380D01*
X160309523Y-61022380D01*
X161690476Y-61022380D02*
X161119047Y-61022380D01*
X161404761Y-61022380D02*
X161404761Y-60022380D01*
X161309523Y-60165238D01*
X161214285Y-60260476D01*
X161119047Y-60308095D01*
X162309523Y-60022380D02*
X162404761Y-60022380D01*
X162500000Y-60070000D01*
X162547619Y-60117619D01*
X162595238Y-60212857D01*
X162642857Y-60403333D01*
X162642857Y-60641428D01*
X162595238Y-60831904D01*
X162547619Y-60927142D01*
X162500000Y-60974761D01*
X162404761Y-61022380D01*
X162309523Y-61022380D01*
X162214285Y-60974761D01*
X162166666Y-60927142D01*
X162119047Y-60831904D01*
X162071428Y-60641428D01*
X162071428Y-60403333D01*
X162119047Y-60212857D01*
X162166666Y-60117619D01*
X162214285Y-60070000D01*
X162309523Y-60022380D01*
%TO.C,R25*%
X163807142Y-134252380D02*
X163473809Y-133776190D01*
X163235714Y-134252380D02*
X163235714Y-133252380D01*
X163616666Y-133252380D01*
X163711904Y-133300000D01*
X163759523Y-133347619D01*
X163807142Y-133442857D01*
X163807142Y-133585714D01*
X163759523Y-133680952D01*
X163711904Y-133728571D01*
X163616666Y-133776190D01*
X163235714Y-133776190D01*
X164188095Y-133347619D02*
X164235714Y-133300000D01*
X164330952Y-133252380D01*
X164569047Y-133252380D01*
X164664285Y-133300000D01*
X164711904Y-133347619D01*
X164759523Y-133442857D01*
X164759523Y-133538095D01*
X164711904Y-133680952D01*
X164140476Y-134252380D01*
X164759523Y-134252380D01*
X165664285Y-133252380D02*
X165188095Y-133252380D01*
X165140476Y-133728571D01*
X165188095Y-133680952D01*
X165283333Y-133633333D01*
X165521428Y-133633333D01*
X165616666Y-133680952D01*
X165664285Y-133728571D01*
X165711904Y-133823809D01*
X165711904Y-134061904D01*
X165664285Y-134157142D01*
X165616666Y-134204761D01*
X165521428Y-134252380D01*
X165283333Y-134252380D01*
X165188095Y-134204761D01*
X165140476Y-134157142D01*
%TO.C,C6*%
X108933333Y-71757142D02*
X108885714Y-71804761D01*
X108742857Y-71852380D01*
X108647619Y-71852380D01*
X108504761Y-71804761D01*
X108409523Y-71709523D01*
X108361904Y-71614285D01*
X108314285Y-71423809D01*
X108314285Y-71280952D01*
X108361904Y-71090476D01*
X108409523Y-70995238D01*
X108504761Y-70900000D01*
X108647619Y-70852380D01*
X108742857Y-70852380D01*
X108885714Y-70900000D01*
X108933333Y-70947619D01*
X109790476Y-70852380D02*
X109600000Y-70852380D01*
X109504761Y-70900000D01*
X109457142Y-70947619D01*
X109361904Y-71090476D01*
X109314285Y-71280952D01*
X109314285Y-71661904D01*
X109361904Y-71757142D01*
X109409523Y-71804761D01*
X109504761Y-71852380D01*
X109695238Y-71852380D01*
X109790476Y-71804761D01*
X109838095Y-71757142D01*
X109885714Y-71661904D01*
X109885714Y-71423809D01*
X109838095Y-71328571D01*
X109790476Y-71280952D01*
X109695238Y-71233333D01*
X109504761Y-71233333D01*
X109409523Y-71280952D01*
X109361904Y-71328571D01*
X109314285Y-71423809D01*
%TO.C,C7*%
X94933333Y-81407142D02*
X94885714Y-81454761D01*
X94742857Y-81502380D01*
X94647619Y-81502380D01*
X94504761Y-81454761D01*
X94409523Y-81359523D01*
X94361904Y-81264285D01*
X94314285Y-81073809D01*
X94314285Y-80930952D01*
X94361904Y-80740476D01*
X94409523Y-80645238D01*
X94504761Y-80550000D01*
X94647619Y-80502380D01*
X94742857Y-80502380D01*
X94885714Y-80550000D01*
X94933333Y-80597619D01*
X95266666Y-80502380D02*
X95933333Y-80502380D01*
X95504761Y-81502380D01*
%TO.C,R8*%
X111952380Y-78116666D02*
X111476190Y-78450000D01*
X111952380Y-78688095D02*
X110952380Y-78688095D01*
X110952380Y-78307142D01*
X111000000Y-78211904D01*
X111047619Y-78164285D01*
X111142857Y-78116666D01*
X111285714Y-78116666D01*
X111380952Y-78164285D01*
X111428571Y-78211904D01*
X111476190Y-78307142D01*
X111476190Y-78688095D01*
X111380952Y-77545238D02*
X111333333Y-77640476D01*
X111285714Y-77688095D01*
X111190476Y-77735714D01*
X111142857Y-77735714D01*
X111047619Y-77688095D01*
X111000000Y-77640476D01*
X110952380Y-77545238D01*
X110952380Y-77354761D01*
X111000000Y-77259523D01*
X111047619Y-77211904D01*
X111142857Y-77164285D01*
X111190476Y-77164285D01*
X111285714Y-77211904D01*
X111333333Y-77259523D01*
X111380952Y-77354761D01*
X111380952Y-77545238D01*
X111428571Y-77640476D01*
X111476190Y-77688095D01*
X111571428Y-77735714D01*
X111761904Y-77735714D01*
X111857142Y-77688095D01*
X111904761Y-77640476D01*
X111952380Y-77545238D01*
X111952380Y-77354761D01*
X111904761Y-77259523D01*
X111857142Y-77211904D01*
X111761904Y-77164285D01*
X111571428Y-77164285D01*
X111476190Y-77211904D01*
X111428571Y-77259523D01*
X111380952Y-77354761D01*
%TO.C,R13*%
X94257142Y-77102380D02*
X93923809Y-76626190D01*
X93685714Y-77102380D02*
X93685714Y-76102380D01*
X94066666Y-76102380D01*
X94161904Y-76150000D01*
X94209523Y-76197619D01*
X94257142Y-76292857D01*
X94257142Y-76435714D01*
X94209523Y-76530952D01*
X94161904Y-76578571D01*
X94066666Y-76626190D01*
X93685714Y-76626190D01*
X95209523Y-77102380D02*
X94638095Y-77102380D01*
X94923809Y-77102380D02*
X94923809Y-76102380D01*
X94828571Y-76245238D01*
X94733333Y-76340476D01*
X94638095Y-76388095D01*
X95542857Y-76102380D02*
X96161904Y-76102380D01*
X95828571Y-76483333D01*
X95971428Y-76483333D01*
X96066666Y-76530952D01*
X96114285Y-76578571D01*
X96161904Y-76673809D01*
X96161904Y-76911904D01*
X96114285Y-77007142D01*
X96066666Y-77054761D01*
X95971428Y-77102380D01*
X95685714Y-77102380D01*
X95590476Y-77054761D01*
X95542857Y-77007142D01*
%TO.C,J18*%
X149347380Y-143809523D02*
X150061666Y-143809523D01*
X150204523Y-143857142D01*
X150299761Y-143952380D01*
X150347380Y-144095238D01*
X150347380Y-144190476D01*
X150347380Y-142809523D02*
X150347380Y-143380952D01*
X150347380Y-143095238D02*
X149347380Y-143095238D01*
X149490238Y-143190476D01*
X149585476Y-143285714D01*
X149633095Y-143380952D01*
X149775952Y-142238095D02*
X149728333Y-142333333D01*
X149680714Y-142380952D01*
X149585476Y-142428571D01*
X149537857Y-142428571D01*
X149442619Y-142380952D01*
X149395000Y-142333333D01*
X149347380Y-142238095D01*
X149347380Y-142047619D01*
X149395000Y-141952380D01*
X149442619Y-141904761D01*
X149537857Y-141857142D01*
X149585476Y-141857142D01*
X149680714Y-141904761D01*
X149728333Y-141952380D01*
X149775952Y-142047619D01*
X149775952Y-142238095D01*
X149823571Y-142333333D01*
X149871190Y-142380952D01*
X149966428Y-142428571D01*
X150156904Y-142428571D01*
X150252142Y-142380952D01*
X150299761Y-142333333D01*
X150347380Y-142238095D01*
X150347380Y-142047619D01*
X150299761Y-141952380D01*
X150252142Y-141904761D01*
X150156904Y-141857142D01*
X149966428Y-141857142D01*
X149871190Y-141904761D01*
X149823571Y-141952380D01*
X149775952Y-142047619D01*
%TO.C,J21*%
X133790476Y-69322380D02*
X133790476Y-70036666D01*
X133742857Y-70179523D01*
X133647619Y-70274761D01*
X133504761Y-70322380D01*
X133409523Y-70322380D01*
X134219047Y-69417619D02*
X134266666Y-69370000D01*
X134361904Y-69322380D01*
X134600000Y-69322380D01*
X134695238Y-69370000D01*
X134742857Y-69417619D01*
X134790476Y-69512857D01*
X134790476Y-69608095D01*
X134742857Y-69750952D01*
X134171428Y-70322380D01*
X134790476Y-70322380D01*
X135742857Y-70322380D02*
X135171428Y-70322380D01*
X135457142Y-70322380D02*
X135457142Y-69322380D01*
X135361904Y-69465238D01*
X135266666Y-69560476D01*
X135171428Y-69608095D01*
%TO.C,J15*%
X93690476Y-125897380D02*
X93690476Y-126611666D01*
X93642857Y-126754523D01*
X93547619Y-126849761D01*
X93404761Y-126897380D01*
X93309523Y-126897380D01*
X94690476Y-126897380D02*
X94119047Y-126897380D01*
X94404761Y-126897380D02*
X94404761Y-125897380D01*
X94309523Y-126040238D01*
X94214285Y-126135476D01*
X94119047Y-126183095D01*
X95595238Y-125897380D02*
X95119047Y-125897380D01*
X95071428Y-126373571D01*
X95119047Y-126325952D01*
X95214285Y-126278333D01*
X95452380Y-126278333D01*
X95547619Y-126325952D01*
X95595238Y-126373571D01*
X95642857Y-126468809D01*
X95642857Y-126706904D01*
X95595238Y-126802142D01*
X95547619Y-126849761D01*
X95452380Y-126897380D01*
X95214285Y-126897380D01*
X95119047Y-126849761D01*
X95071428Y-126802142D01*
%TO.C,C17*%
X144887142Y-72302857D02*
X144934761Y-72350476D01*
X144982380Y-72493333D01*
X144982380Y-72588571D01*
X144934761Y-72731428D01*
X144839523Y-72826666D01*
X144744285Y-72874285D01*
X144553809Y-72921904D01*
X144410952Y-72921904D01*
X144220476Y-72874285D01*
X144125238Y-72826666D01*
X144030000Y-72731428D01*
X143982380Y-72588571D01*
X143982380Y-72493333D01*
X144030000Y-72350476D01*
X144077619Y-72302857D01*
X144982380Y-71350476D02*
X144982380Y-71921904D01*
X144982380Y-71636190D02*
X143982380Y-71636190D01*
X144125238Y-71731428D01*
X144220476Y-71826666D01*
X144268095Y-71921904D01*
X143982380Y-71017142D02*
X143982380Y-70350476D01*
X144982380Y-70779047D01*
%TO.C,Q9*%
X157504761Y-140947619D02*
X157409523Y-140900000D01*
X157314285Y-140804761D01*
X157171428Y-140661904D01*
X157076190Y-140614285D01*
X156980952Y-140614285D01*
X157028571Y-140852380D02*
X156933333Y-140804761D01*
X156838095Y-140709523D01*
X156790476Y-140519047D01*
X156790476Y-140185714D01*
X156838095Y-139995238D01*
X156933333Y-139900000D01*
X157028571Y-139852380D01*
X157219047Y-139852380D01*
X157314285Y-139900000D01*
X157409523Y-139995238D01*
X157457142Y-140185714D01*
X157457142Y-140519047D01*
X157409523Y-140709523D01*
X157314285Y-140804761D01*
X157219047Y-140852380D01*
X157028571Y-140852380D01*
X157933333Y-140852380D02*
X158123809Y-140852380D01*
X158219047Y-140804761D01*
X158266666Y-140757142D01*
X158361904Y-140614285D01*
X158409523Y-140423809D01*
X158409523Y-140042857D01*
X158361904Y-139947619D01*
X158314285Y-139900000D01*
X158219047Y-139852380D01*
X158028571Y-139852380D01*
X157933333Y-139900000D01*
X157885714Y-139947619D01*
X157838095Y-140042857D01*
X157838095Y-140280952D01*
X157885714Y-140376190D01*
X157933333Y-140423809D01*
X158028571Y-140471428D01*
X158219047Y-140471428D01*
X158314285Y-140423809D01*
X158361904Y-140376190D01*
X158409523Y-140280952D01*
%TO.C,C20*%
X182857142Y-99642857D02*
X182904761Y-99690476D01*
X182952380Y-99833333D01*
X182952380Y-99928571D01*
X182904761Y-100071428D01*
X182809523Y-100166666D01*
X182714285Y-100214285D01*
X182523809Y-100261904D01*
X182380952Y-100261904D01*
X182190476Y-100214285D01*
X182095238Y-100166666D01*
X182000000Y-100071428D01*
X181952380Y-99928571D01*
X181952380Y-99833333D01*
X182000000Y-99690476D01*
X182047619Y-99642857D01*
X182047619Y-99261904D02*
X182000000Y-99214285D01*
X181952380Y-99119047D01*
X181952380Y-98880952D01*
X182000000Y-98785714D01*
X182047619Y-98738095D01*
X182142857Y-98690476D01*
X182238095Y-98690476D01*
X182380952Y-98738095D01*
X182952380Y-99309523D01*
X182952380Y-98690476D01*
X181952380Y-98071428D02*
X181952380Y-97976190D01*
X182000000Y-97880952D01*
X182047619Y-97833333D01*
X182142857Y-97785714D01*
X182333333Y-97738095D01*
X182571428Y-97738095D01*
X182761904Y-97785714D01*
X182857142Y-97833333D01*
X182904761Y-97880952D01*
X182952380Y-97976190D01*
X182952380Y-98071428D01*
X182904761Y-98166666D01*
X182857142Y-98214285D01*
X182761904Y-98261904D01*
X182571428Y-98309523D01*
X182333333Y-98309523D01*
X182142857Y-98261904D01*
X182047619Y-98214285D01*
X182000000Y-98166666D01*
X181952380Y-98071428D01*
%TO.C,R18*%
X115557142Y-121302380D02*
X115223809Y-120826190D01*
X114985714Y-121302380D02*
X114985714Y-120302380D01*
X115366666Y-120302380D01*
X115461904Y-120350000D01*
X115509523Y-120397619D01*
X115557142Y-120492857D01*
X115557142Y-120635714D01*
X115509523Y-120730952D01*
X115461904Y-120778571D01*
X115366666Y-120826190D01*
X114985714Y-120826190D01*
X116509523Y-121302380D02*
X115938095Y-121302380D01*
X116223809Y-121302380D02*
X116223809Y-120302380D01*
X116128571Y-120445238D01*
X116033333Y-120540476D01*
X115938095Y-120588095D01*
X117080952Y-120730952D02*
X116985714Y-120683333D01*
X116938095Y-120635714D01*
X116890476Y-120540476D01*
X116890476Y-120492857D01*
X116938095Y-120397619D01*
X116985714Y-120350000D01*
X117080952Y-120302380D01*
X117271428Y-120302380D01*
X117366666Y-120350000D01*
X117414285Y-120397619D01*
X117461904Y-120492857D01*
X117461904Y-120540476D01*
X117414285Y-120635714D01*
X117366666Y-120683333D01*
X117271428Y-120730952D01*
X117080952Y-120730952D01*
X116985714Y-120778571D01*
X116938095Y-120826190D01*
X116890476Y-120921428D01*
X116890476Y-121111904D01*
X116938095Y-121207142D01*
X116985714Y-121254761D01*
X117080952Y-121302380D01*
X117271428Y-121302380D01*
X117366666Y-121254761D01*
X117414285Y-121207142D01*
X117461904Y-121111904D01*
X117461904Y-120921428D01*
X117414285Y-120826190D01*
X117366666Y-120778571D01*
X117271428Y-120730952D01*
%TO.C,C13*%
X111457142Y-100542857D02*
X111504761Y-100590476D01*
X111552380Y-100733333D01*
X111552380Y-100828571D01*
X111504761Y-100971428D01*
X111409523Y-101066666D01*
X111314285Y-101114285D01*
X111123809Y-101161904D01*
X110980952Y-101161904D01*
X110790476Y-101114285D01*
X110695238Y-101066666D01*
X110600000Y-100971428D01*
X110552380Y-100828571D01*
X110552380Y-100733333D01*
X110600000Y-100590476D01*
X110647619Y-100542857D01*
X111552380Y-99590476D02*
X111552380Y-100161904D01*
X111552380Y-99876190D02*
X110552380Y-99876190D01*
X110695238Y-99971428D01*
X110790476Y-100066666D01*
X110838095Y-100161904D01*
X110552380Y-99257142D02*
X110552380Y-98638095D01*
X110933333Y-98971428D01*
X110933333Y-98828571D01*
X110980952Y-98733333D01*
X111028571Y-98685714D01*
X111123809Y-98638095D01*
X111361904Y-98638095D01*
X111457142Y-98685714D01*
X111504761Y-98733333D01*
X111552380Y-98828571D01*
X111552380Y-99114285D01*
X111504761Y-99209523D01*
X111457142Y-99257142D01*
%TO.C,R31*%
X125557142Y-136952380D02*
X125223809Y-136476190D01*
X124985714Y-136952380D02*
X124985714Y-135952380D01*
X125366666Y-135952380D01*
X125461904Y-136000000D01*
X125509523Y-136047619D01*
X125557142Y-136142857D01*
X125557142Y-136285714D01*
X125509523Y-136380952D01*
X125461904Y-136428571D01*
X125366666Y-136476190D01*
X124985714Y-136476190D01*
X125890476Y-135952380D02*
X126509523Y-135952380D01*
X126176190Y-136333333D01*
X126319047Y-136333333D01*
X126414285Y-136380952D01*
X126461904Y-136428571D01*
X126509523Y-136523809D01*
X126509523Y-136761904D01*
X126461904Y-136857142D01*
X126414285Y-136904761D01*
X126319047Y-136952380D01*
X126033333Y-136952380D01*
X125938095Y-136904761D01*
X125890476Y-136857142D01*
X127461904Y-136952380D02*
X126890476Y-136952380D01*
X127176190Y-136952380D02*
X127176190Y-135952380D01*
X127080952Y-136095238D01*
X126985714Y-136190476D01*
X126890476Y-136238095D01*
%TO.C,J2*%
X161766666Y-109822380D02*
X161766666Y-110536666D01*
X161719047Y-110679523D01*
X161623809Y-110774761D01*
X161480952Y-110822380D01*
X161385714Y-110822380D01*
X162195238Y-109917619D02*
X162242857Y-109870000D01*
X162338095Y-109822380D01*
X162576190Y-109822380D01*
X162671428Y-109870000D01*
X162719047Y-109917619D01*
X162766666Y-110012857D01*
X162766666Y-110108095D01*
X162719047Y-110250952D01*
X162147619Y-110822380D01*
X162766666Y-110822380D01*
%TO.C,R7*%
X107323333Y-75892380D02*
X106990000Y-75416190D01*
X106751904Y-75892380D02*
X106751904Y-74892380D01*
X107132857Y-74892380D01*
X107228095Y-74940000D01*
X107275714Y-74987619D01*
X107323333Y-75082857D01*
X107323333Y-75225714D01*
X107275714Y-75320952D01*
X107228095Y-75368571D01*
X107132857Y-75416190D01*
X106751904Y-75416190D01*
X107656666Y-74892380D02*
X108323333Y-74892380D01*
X107894761Y-75892380D01*
%TO.C,R22*%
X159602380Y-132742857D02*
X159126190Y-133076190D01*
X159602380Y-133314285D02*
X158602380Y-133314285D01*
X158602380Y-132933333D01*
X158650000Y-132838095D01*
X158697619Y-132790476D01*
X158792857Y-132742857D01*
X158935714Y-132742857D01*
X159030952Y-132790476D01*
X159078571Y-132838095D01*
X159126190Y-132933333D01*
X159126190Y-133314285D01*
X158697619Y-132361904D02*
X158650000Y-132314285D01*
X158602380Y-132219047D01*
X158602380Y-131980952D01*
X158650000Y-131885714D01*
X158697619Y-131838095D01*
X158792857Y-131790476D01*
X158888095Y-131790476D01*
X159030952Y-131838095D01*
X159602380Y-132409523D01*
X159602380Y-131790476D01*
X158697619Y-131409523D02*
X158650000Y-131361904D01*
X158602380Y-131266666D01*
X158602380Y-131028571D01*
X158650000Y-130933333D01*
X158697619Y-130885714D01*
X158792857Y-130838095D01*
X158888095Y-130838095D01*
X159030952Y-130885714D01*
X159602380Y-131457142D01*
X159602380Y-130838095D01*
%TO.C,J11*%
X150590476Y-69322380D02*
X150590476Y-70036666D01*
X150542857Y-70179523D01*
X150447619Y-70274761D01*
X150304761Y-70322380D01*
X150209523Y-70322380D01*
X151590476Y-70322380D02*
X151019047Y-70322380D01*
X151304761Y-70322380D02*
X151304761Y-69322380D01*
X151209523Y-69465238D01*
X151114285Y-69560476D01*
X151019047Y-69608095D01*
X152542857Y-70322380D02*
X151971428Y-70322380D01*
X152257142Y-70322380D02*
X152257142Y-69322380D01*
X152161904Y-69465238D01*
X152066666Y-69560476D01*
X151971428Y-69608095D01*
%TO.C,J7*%
X134491666Y-145052380D02*
X134491666Y-145766666D01*
X134444047Y-145909523D01*
X134348809Y-146004761D01*
X134205952Y-146052380D01*
X134110714Y-146052380D01*
X134872619Y-145052380D02*
X135539285Y-145052380D01*
X135110714Y-146052380D01*
D12*
%TO.C,J5*%
X180070000Y-80470000D02*
X181400000Y-80470000D01*
X180070000Y-81800000D02*
X180070000Y-80470000D01*
X182730000Y-83070000D02*
X182730000Y-83130000D01*
X180070000Y-83130000D02*
X182730000Y-83130000D01*
X180070000Y-83070000D02*
X180070000Y-83130000D01*
X180070000Y-83070000D02*
X182730000Y-83070000D01*
%TO.C,J19*%
X162495000Y-144330000D02*
X165095000Y-144330000D01*
X165095000Y-144330000D02*
X165095000Y-141670000D01*
X161225000Y-144330000D02*
X159895000Y-144330000D01*
X162495000Y-144330000D02*
X162495000Y-141670000D01*
X162495000Y-141670000D02*
X165095000Y-141670000D01*
X159895000Y-144330000D02*
X159895000Y-143000000D01*
%TO.C,R23*%
X153265000Y-131872936D02*
X153265000Y-132327064D01*
X154735000Y-131872936D02*
X154735000Y-132327064D01*
%TO.C,J6*%
X132700000Y-67900000D02*
X144700000Y-67900000D01*
X144700000Y-67900000D02*
X144700000Y-55900000D01*
X144700000Y-55900000D02*
X132700000Y-55900000D01*
X132700000Y-55900000D02*
X132700000Y-67900000D01*
%TO.C,Q6*%
X130900000Y-120840000D02*
X127450000Y-120840000D01*
X130900000Y-125960000D02*
X128950000Y-125960000D01*
X130900000Y-120840000D02*
X132850000Y-120840000D01*
X130900000Y-125960000D02*
X132850000Y-125960000D01*
%TO.C,C22*%
X167460000Y-124036252D02*
X167460000Y-122613748D01*
X164740000Y-124036252D02*
X164740000Y-122613748D01*
%TO.C,R21*%
X153870000Y-116030000D02*
X151130000Y-116030000D01*
X152500000Y-123340000D02*
X152500000Y-122570000D01*
X152500000Y-115260000D02*
X152500000Y-116030000D01*
X151130000Y-122570000D02*
X153870000Y-122570000D01*
X151130000Y-116030000D02*
X151130000Y-122570000D01*
X153870000Y-122570000D02*
X153870000Y-116030000D01*
%TO.C,R24*%
X164135436Y-139685000D02*
X164589564Y-139685000D01*
X164135436Y-138215000D02*
X164589564Y-138215000D01*
%TO.C,R3*%
X106990000Y-104372936D02*
X106990000Y-108727064D01*
X110410000Y-104372936D02*
X110410000Y-108727064D01*
%TO.C,R28*%
X142827064Y-124490000D02*
X141372936Y-124490000D01*
X142827064Y-126310000D02*
X141372936Y-126310000D01*
%TO.C,J22*%
X143930000Y-141670000D02*
X143930000Y-144330000D01*
X143930000Y-141670000D02*
X141330000Y-141670000D01*
X141330000Y-141670000D02*
X141330000Y-144330000D01*
X143930000Y-144330000D02*
X141330000Y-144330000D01*
X146530000Y-141670000D02*
X146530000Y-143000000D01*
X145200000Y-141670000D02*
X146530000Y-141670000D01*
%TO.C,J1*%
X166370000Y-112700000D02*
X166370000Y-111370000D01*
X166370000Y-113970000D02*
X166370000Y-114030000D01*
X166370000Y-114030000D02*
X169030000Y-114030000D01*
X166370000Y-111370000D02*
X167700000Y-111370000D01*
X166370000Y-113970000D02*
X169030000Y-113970000D01*
X169030000Y-113970000D02*
X169030000Y-114030000D01*
%TO.C,R17*%
X119272936Y-112485000D02*
X119727064Y-112485000D01*
X119272936Y-111015000D02*
X119727064Y-111015000D01*
%TO.C,R10*%
X100877500Y-76587258D02*
X100877500Y-76112742D01*
X101922500Y-76587258D02*
X101922500Y-76112742D01*
%TO.C,Q3*%
X144850000Y-100780000D02*
X144850000Y-99280000D01*
X145120000Y-99280000D02*
X145120000Y-98180000D01*
X144850000Y-99280000D02*
X145120000Y-99280000D01*
X151750000Y-100780000D02*
X151750000Y-99280000D01*
X151480000Y-99280000D02*
X151480000Y-96450000D01*
X151750000Y-99280000D02*
X151480000Y-99280000D01*
%TO.C,C14*%
X117210000Y-94738748D02*
X117210000Y-96161252D01*
X114490000Y-94738748D02*
X114490000Y-96161252D01*
%TO.C,R29*%
X136490000Y-124827064D02*
X136490000Y-123372936D01*
X138310000Y-124827064D02*
X138310000Y-123372936D01*
%TO.C,R19*%
X119272936Y-115785000D02*
X119727064Y-115785000D01*
X119272936Y-114315000D02*
X119727064Y-114315000D01*
%TO.C,Q7*%
X130900000Y-118710000D02*
X128950000Y-118710000D01*
X130900000Y-118710000D02*
X132850000Y-118710000D01*
X130900000Y-113590000D02*
X127450000Y-113590000D01*
X130900000Y-113590000D02*
X132850000Y-113590000D01*
%TO.C,Q5*%
X115420000Y-87082500D02*
X115420000Y-86787500D01*
X115420000Y-83837500D02*
X115420000Y-83542500D01*
X115420000Y-83542500D02*
X112580000Y-83542500D01*
X112580000Y-86787500D02*
X112580000Y-87082500D01*
X112580000Y-83542500D02*
X112580000Y-83837500D01*
X111850000Y-83837500D02*
X112580000Y-83837500D01*
X112580000Y-87082500D02*
X115420000Y-87082500D01*
%TO.C,R15*%
X137037258Y-109227500D02*
X136562742Y-109227500D01*
X137037258Y-110272500D02*
X136562742Y-110272500D01*
D11*
%TO.C,IC1*%
X132375000Y-110575000D02*
X132375000Y-110275000D01*
X129025000Y-110575000D02*
X132375000Y-110575000D01*
X129025000Y-110575000D02*
X129025000Y-110275000D01*
X132375000Y-107225000D02*
X132375000Y-107525000D01*
X129025000Y-107450000D02*
X127800000Y-107450000D01*
X129025000Y-107225000D02*
X129025000Y-107450000D01*
X129025000Y-107225000D02*
X132375000Y-107225000D01*
D12*
%TO.C,C23*%
X162460000Y-124036252D02*
X162460000Y-122613748D01*
X159740000Y-124036252D02*
X159740000Y-122613748D01*
%TO.C,C15*%
X121270000Y-94778748D02*
X121270000Y-96201252D01*
X118550000Y-94778748D02*
X118550000Y-96201252D01*
%TO.C,C11*%
X114698748Y-78620000D02*
X116121252Y-78620000D01*
X114698748Y-81340000D02*
X116121252Y-81340000D01*
%TO.C,Q1*%
X156330000Y-94500000D02*
X156330000Y-94230000D01*
X156330000Y-87600000D02*
X156330000Y-87870000D01*
X157830000Y-94500000D02*
X156330000Y-94500000D01*
X157830000Y-87600000D02*
X156330000Y-87600000D01*
X156330000Y-94230000D02*
X155230000Y-94230000D01*
X156330000Y-87870000D02*
X153500000Y-87870000D01*
%TO.C,R14*%
X137037258Y-111227500D02*
X136562742Y-111227500D01*
X137037258Y-112272500D02*
X136562742Y-112272500D01*
%TO.C,C24*%
X100211252Y-64990000D02*
X98788748Y-64990000D01*
X100211252Y-67710000D02*
X98788748Y-67710000D01*
%TO.C,R6*%
X101990000Y-112822936D02*
X101990000Y-117177064D01*
X105410000Y-112822936D02*
X105410000Y-117177064D01*
%TO.C,D1*%
X176840580Y-106510000D02*
X176559420Y-106510000D01*
X176840580Y-105490000D02*
X176559420Y-105490000D01*
%TO.C,J16*%
X172730000Y-144330000D02*
X172670000Y-144330000D01*
X174000000Y-141670000D02*
X175330000Y-141670000D01*
X172670000Y-141670000D02*
X172670000Y-144330000D01*
X172730000Y-141670000D02*
X172730000Y-144330000D01*
X172730000Y-141670000D02*
X172670000Y-141670000D01*
X175330000Y-141670000D02*
X175330000Y-143000000D01*
%TO.C,R20*%
X119272936Y-116815000D02*
X119727064Y-116815000D01*
X119272936Y-118285000D02*
X119727064Y-118285000D01*
%TO.C,Q4*%
X140070000Y-102830000D02*
X142900000Y-102830000D01*
X140070000Y-96470000D02*
X141170000Y-96470000D01*
X138570000Y-103100000D02*
X140070000Y-103100000D01*
X138570000Y-96200000D02*
X140070000Y-96200000D01*
X140070000Y-96200000D02*
X140070000Y-96470000D01*
X140070000Y-103100000D02*
X140070000Y-102830000D01*
%TO.C,J17*%
X167870000Y-141670000D02*
X167870000Y-144330000D01*
X169200000Y-141670000D02*
X170530000Y-141670000D01*
X167930000Y-141670000D02*
X167870000Y-141670000D01*
X167930000Y-144330000D02*
X167870000Y-144330000D01*
X167930000Y-141670000D02*
X167930000Y-144330000D01*
X170530000Y-141670000D02*
X170530000Y-143000000D01*
%TO.C,R11*%
X110110000Y-85735436D02*
X110110000Y-90089564D01*
X106690000Y-85735436D02*
X106690000Y-90089564D01*
%TO.C,C12*%
X105140000Y-94304113D02*
X106482000Y-94304113D01*
X101522000Y-95185113D02*
X106678000Y-95185113D01*
X105140000Y-93504113D02*
X105964000Y-93504113D01*
X102657000Y-93144113D02*
X103060000Y-93144113D01*
X105140000Y-93264113D02*
X105705000Y-93264113D01*
X105140000Y-93184113D02*
X105600000Y-93184113D01*
X105140000Y-93864113D02*
X106249000Y-93864113D01*
X105140000Y-93624113D02*
X106071000Y-93624113D01*
X105140000Y-93944113D02*
X106300000Y-93944113D01*
X102005000Y-93784113D02*
X103060000Y-93784113D01*
X102315000Y-93424113D02*
X103060000Y-93424113D01*
X102401000Y-93344113D02*
X103060000Y-93344113D01*
X101524000Y-95145113D02*
X106676000Y-95145113D01*
X102922000Y-92984113D02*
X105278000Y-92984113D01*
X103582000Y-92744113D02*
X104618000Y-92744113D01*
X101658000Y-94464113D02*
X103060000Y-94464113D01*
X102447000Y-93304113D02*
X103060000Y-93304113D01*
X105140000Y-94224113D02*
X106448000Y-94224113D01*
X101557000Y-94865113D02*
X103060000Y-94865113D01*
X102375000Y-97859888D02*
X102875000Y-97859888D01*
X101925000Y-93904113D02*
X103060000Y-93904113D01*
X105140000Y-94705113D02*
X106611000Y-94705113D01*
X105140000Y-93464113D02*
X105926000Y-93464113D01*
X101735000Y-94264113D02*
X103060000Y-94264113D01*
X103089000Y-92904113D02*
X105111000Y-92904113D01*
X105140000Y-95025113D02*
X106665000Y-95025113D01*
X105140000Y-94144113D02*
X106410000Y-94144113D01*
X101564000Y-94825113D02*
X103060000Y-94825113D01*
X101702000Y-94344113D02*
X103060000Y-94344113D01*
X103816000Y-92704113D02*
X104384000Y-92704113D01*
X105140000Y-94384113D02*
X106514000Y-94384113D01*
X102357000Y-93384113D02*
X103060000Y-93384113D01*
X105140000Y-93104113D02*
X105483000Y-93104113D01*
X105140000Y-94464113D02*
X106542000Y-94464113D01*
X102065000Y-93704113D02*
X103060000Y-93704113D01*
X105140000Y-94865113D02*
X106643000Y-94865113D01*
X101876000Y-93984113D02*
X103060000Y-93984113D01*
X105140000Y-93664113D02*
X106104000Y-93664113D01*
X101609000Y-94625113D02*
X103060000Y-94625113D01*
X101520000Y-95305113D02*
X106680000Y-95305113D01*
X101853000Y-94024113D02*
X103060000Y-94024113D01*
X102781000Y-93064113D02*
X103060000Y-93064113D01*
X102199000Y-93544113D02*
X103060000Y-93544113D01*
X101672000Y-94424113D02*
X103060000Y-94424113D01*
X101645000Y-94504113D02*
X103060000Y-94504113D01*
X101832000Y-94064113D02*
X103060000Y-94064113D01*
X105140000Y-93544113D02*
X106001000Y-93544113D01*
X105140000Y-93824113D02*
X106222000Y-93824113D01*
X105140000Y-93744113D02*
X106165000Y-93744113D01*
X105140000Y-94344113D02*
X106498000Y-94344113D01*
X105140000Y-93344113D02*
X105799000Y-93344113D01*
X105140000Y-93704113D02*
X106135000Y-93704113D01*
X105140000Y-94745113D02*
X106620000Y-94745113D01*
X105140000Y-94064113D02*
X106368000Y-94064113D01*
X105140000Y-94104113D02*
X106390000Y-94104113D01*
X105140000Y-93224113D02*
X105654000Y-93224113D01*
X105140000Y-94184113D02*
X106429000Y-94184113D01*
X101544000Y-94945113D02*
X103060000Y-94945113D01*
X101686000Y-94384113D02*
X103060000Y-94384113D01*
X102717000Y-93104113D02*
X103060000Y-93104113D01*
X105140000Y-93064113D02*
X105419000Y-93064113D01*
X105140000Y-95065113D02*
X106669000Y-95065113D01*
X105140000Y-93904113D02*
X106275000Y-93904113D01*
X101521000Y-95225113D02*
X106679000Y-95225113D01*
X105140000Y-94905113D02*
X106650000Y-94905113D01*
X101539000Y-94985113D02*
X103060000Y-94985113D01*
X102849000Y-93024113D02*
X103060000Y-93024113D01*
X101951000Y-93864113D02*
X103060000Y-93864113D01*
X102274000Y-93464113D02*
X103060000Y-93464113D01*
X101520000Y-95265113D02*
X106680000Y-95265113D01*
X105140000Y-94424113D02*
X106528000Y-94424113D01*
X105140000Y-94504113D02*
X106555000Y-94504113D01*
X105140000Y-93304113D02*
X105753000Y-93304113D01*
X105140000Y-94825113D02*
X106636000Y-94825113D01*
X101771000Y-94184113D02*
X103060000Y-94184113D01*
X101632000Y-94544113D02*
X103060000Y-94544113D01*
X103295000Y-92824113D02*
X104905000Y-92824113D01*
X101589000Y-94705113D02*
X103060000Y-94705113D01*
X101900000Y-93944113D02*
X103060000Y-93944113D01*
X103185000Y-92864113D02*
X105015000Y-92864113D01*
X105140000Y-94024113D02*
X106347000Y-94024113D01*
X105140000Y-94584113D02*
X106580000Y-94584113D01*
X101580000Y-94745113D02*
X103060000Y-94745113D01*
X102096000Y-93664113D02*
X103060000Y-93664113D01*
X101978000Y-93824113D02*
X103060000Y-93824113D01*
X105140000Y-93384113D02*
X105843000Y-93384113D01*
X105140000Y-93784113D02*
X106195000Y-93784113D01*
X102163000Y-93584113D02*
X103060000Y-93584113D01*
X102546000Y-93224113D02*
X103060000Y-93224113D01*
X101550000Y-94905113D02*
X103060000Y-94905113D01*
X101718000Y-94304113D02*
X103060000Y-94304113D01*
X102495000Y-93264113D02*
X103060000Y-93264113D01*
X102129000Y-93624113D02*
X103060000Y-93624113D01*
X105140000Y-93144113D02*
X105543000Y-93144113D01*
X103423000Y-92784113D02*
X104777000Y-92784113D01*
X105140000Y-93984113D02*
X106324000Y-93984113D01*
X105140000Y-94665113D02*
X106601000Y-94665113D01*
X103002000Y-92944113D02*
X105198000Y-92944113D01*
X105140000Y-94625113D02*
X106591000Y-94625113D01*
X101572000Y-94785113D02*
X103060000Y-94785113D01*
X101810000Y-94104113D02*
X103060000Y-94104113D01*
X101790000Y-94144113D02*
X103060000Y-94144113D01*
X101535000Y-95025113D02*
X103060000Y-95025113D01*
X102035000Y-93744113D02*
X103060000Y-93744113D01*
X105140000Y-94264113D02*
X106465000Y-94264113D01*
X101531000Y-95065113D02*
X103060000Y-95065113D01*
X102625000Y-98109888D02*
X102625000Y-97609888D01*
X105140000Y-93024113D02*
X105351000Y-93024113D01*
X105140000Y-94544113D02*
X106568000Y-94544113D01*
X105140000Y-93584113D02*
X106037000Y-93584113D01*
X101752000Y-94224113D02*
X103060000Y-94224113D01*
X101527000Y-95105113D02*
X106673000Y-95105113D01*
X105140000Y-93424113D02*
X105885000Y-93424113D01*
X102236000Y-93504113D02*
X103060000Y-93504113D01*
X101620000Y-94584113D02*
X103060000Y-94584113D01*
X101599000Y-94665113D02*
X103060000Y-94665113D01*
X102600000Y-93184113D02*
X103060000Y-93184113D01*
X105140000Y-94785113D02*
X106628000Y-94785113D01*
X105140000Y-94945113D02*
X106656000Y-94945113D01*
X105140000Y-94985113D02*
X106661000Y-94985113D01*
X106720000Y-95305113D02*
G75*
G03*
X106720000Y-95305113I-2620000J0D01*
G01*
%TO.C,C5*%
X104314113Y-64310000D02*
X104314113Y-62985000D01*
X105115113Y-67919000D02*
X105115113Y-66390000D01*
X103714113Y-64310000D02*
X103714113Y-63346000D01*
X104154113Y-64310000D02*
X104154113Y-63060000D01*
X103914113Y-67499000D02*
X103914113Y-66390000D01*
X105315113Y-67930000D02*
X105315113Y-66390000D01*
X102834113Y-66027000D02*
X102834113Y-64673000D01*
X104955113Y-67900000D02*
X104955113Y-66390000D01*
X103394113Y-67049000D02*
X103394113Y-66390000D01*
X103514113Y-64310000D02*
X103514113Y-63524000D01*
X103794113Y-67415000D02*
X103794113Y-66390000D01*
X104755113Y-67861000D02*
X104755113Y-66390000D01*
X104514113Y-67792000D02*
X104514113Y-66390000D01*
X103314113Y-66955000D02*
X103314113Y-63745000D01*
X103794113Y-64310000D02*
X103794113Y-63285000D01*
X103674113Y-67321000D02*
X103674113Y-66390000D01*
X103954113Y-64310000D02*
X103954113Y-63175000D01*
X104634113Y-67830000D02*
X104634113Y-66390000D01*
X103834113Y-64310000D02*
X103834113Y-63255000D01*
X102994113Y-66448000D02*
X102994113Y-64252000D01*
X104995113Y-67906000D02*
X104995113Y-66390000D01*
X104394113Y-67748000D02*
X104394113Y-66390000D01*
X103594113Y-67251000D02*
X103594113Y-66390000D01*
X105155113Y-67923000D02*
X105155113Y-66390000D01*
X103874113Y-67472000D02*
X103874113Y-66390000D01*
X104875113Y-64310000D02*
X104875113Y-62814000D01*
X105315113Y-64310000D02*
X105315113Y-62770000D01*
X103634113Y-67287000D02*
X103634113Y-66390000D01*
X104715113Y-67851000D02*
X104715113Y-66390000D01*
X107909888Y-67075000D02*
X107909888Y-66575000D01*
X104234113Y-67679000D02*
X104234113Y-66390000D01*
X104675113Y-67841000D02*
X104675113Y-66390000D01*
X103834113Y-67445000D02*
X103834113Y-66390000D01*
X103914113Y-64310000D02*
X103914113Y-63201000D01*
X103554113Y-67214000D02*
X103554113Y-66390000D01*
X104114113Y-64310000D02*
X104114113Y-63082000D01*
X104194113Y-67660000D02*
X104194113Y-66390000D01*
X103994113Y-67550000D02*
X103994113Y-66390000D01*
X103354113Y-67003000D02*
X103354113Y-66390000D01*
X103954113Y-67525000D02*
X103954113Y-66390000D01*
X104995113Y-64310000D02*
X104995113Y-62794000D01*
X104274113Y-64310000D02*
X104274113Y-63002000D01*
X104514113Y-64310000D02*
X104514113Y-62908000D01*
X104234113Y-64310000D02*
X104234113Y-63021000D01*
X105035113Y-64310000D02*
X105035113Y-62789000D01*
X104034113Y-67574000D02*
X104034113Y-66390000D01*
X104875113Y-67886000D02*
X104875113Y-66390000D01*
X105155113Y-64310000D02*
X105155113Y-62777000D01*
X103474113Y-64310000D02*
X103474113Y-63565000D01*
X104715113Y-64310000D02*
X104715113Y-62849000D01*
X104354113Y-64310000D02*
X104354113Y-62968000D01*
X104154113Y-67640000D02*
X104154113Y-66390000D01*
X103114113Y-66669000D02*
X103114113Y-64031000D01*
X103034113Y-66528000D02*
X103034113Y-64172000D01*
X105075113Y-67915000D02*
X105075113Y-66390000D01*
X103514113Y-67176000D02*
X103514113Y-66390000D01*
X104434113Y-64310000D02*
X104434113Y-62936000D01*
X103274113Y-66904000D02*
X103274113Y-63796000D01*
X103394113Y-64310000D02*
X103394113Y-63651000D01*
X104835113Y-67878000D02*
X104835113Y-66390000D01*
X103594113Y-64310000D02*
X103594113Y-63449000D01*
X104915113Y-64310000D02*
X104915113Y-62807000D01*
X104394113Y-64310000D02*
X104394113Y-62952000D01*
X102754113Y-65634000D02*
X102754113Y-65066000D01*
X104795113Y-64310000D02*
X104795113Y-62830000D01*
X105195113Y-67926000D02*
X105195113Y-66390000D01*
X105235113Y-67928000D02*
X105235113Y-66390000D01*
X104594113Y-64310000D02*
X104594113Y-62882000D01*
X105035113Y-67911000D02*
X105035113Y-66390000D01*
X104274113Y-67698000D02*
X104274113Y-66390000D01*
X104074113Y-67597000D02*
X104074113Y-66390000D01*
X104955113Y-64310000D02*
X104955113Y-62800000D01*
X105235113Y-64310000D02*
X105235113Y-62772000D01*
X104474113Y-67778000D02*
X104474113Y-66390000D01*
X103474113Y-67135000D02*
X103474113Y-66390000D01*
X104194113Y-64310000D02*
X104194113Y-63040000D01*
X105115113Y-64310000D02*
X105115113Y-62781000D01*
X103874113Y-64310000D02*
X103874113Y-63228000D01*
X104755113Y-64310000D02*
X104755113Y-62839000D01*
X104835113Y-64310000D02*
X104835113Y-62822000D01*
X103754113Y-64310000D02*
X103754113Y-63315000D01*
X104474113Y-64310000D02*
X104474113Y-62922000D01*
X104434113Y-67764000D02*
X104434113Y-66390000D01*
X102794113Y-65868000D02*
X102794113Y-64832000D01*
X103074113Y-66601000D02*
X103074113Y-64099000D01*
X103554113Y-64310000D02*
X103554113Y-63486000D01*
X103674113Y-64310000D02*
X103674113Y-63379000D01*
X102954113Y-66361000D02*
X102954113Y-64339000D01*
X104114113Y-67618000D02*
X104114113Y-66390000D01*
X103994113Y-64310000D02*
X103994113Y-63150000D01*
X104594113Y-67818000D02*
X104594113Y-66390000D01*
X105195113Y-64310000D02*
X105195113Y-62774000D01*
X103194113Y-66793000D02*
X103194113Y-63907000D01*
X102914113Y-66265000D02*
X102914113Y-64435000D01*
X103434113Y-64310000D02*
X103434113Y-63607000D01*
X104554113Y-67805000D02*
X104554113Y-66390000D01*
X103634113Y-64310000D02*
X103634113Y-63413000D01*
X104354113Y-67732000D02*
X104354113Y-66390000D01*
X105275113Y-67929000D02*
X105275113Y-66390000D01*
X105355113Y-67930000D02*
X105355113Y-66390000D01*
X102874113Y-66155000D02*
X102874113Y-64545000D01*
X104675113Y-64310000D02*
X104675113Y-62859000D01*
X104795113Y-67870000D02*
X104795113Y-66390000D01*
X105355113Y-64310000D02*
X105355113Y-62770000D01*
X103714113Y-67354000D02*
X103714113Y-66390000D01*
X105275113Y-64310000D02*
X105275113Y-62771000D01*
X104074113Y-64310000D02*
X104074113Y-63103000D01*
X108159888Y-66825000D02*
X107659888Y-66825000D01*
X104915113Y-67893000D02*
X104915113Y-66390000D01*
X103754113Y-67385000D02*
X103754113Y-66390000D01*
X104634113Y-64310000D02*
X104634113Y-62870000D01*
X105075113Y-64310000D02*
X105075113Y-62785000D01*
X104554113Y-64310000D02*
X104554113Y-62895000D01*
X103154113Y-66733000D02*
X103154113Y-63967000D01*
X103354113Y-64310000D02*
X103354113Y-63697000D01*
X104034113Y-64310000D02*
X104034113Y-63126000D01*
X103434113Y-67093000D02*
X103434113Y-66390000D01*
X103234113Y-66850000D02*
X103234113Y-63850000D01*
X104314113Y-67715000D02*
X104314113Y-66390000D01*
X107975113Y-65350000D02*
G75*
G03*
X107975113Y-65350000I-2620000J0D01*
G01*
%TO.C,R12*%
X95372936Y-79660000D02*
X96827064Y-79660000D01*
X95372936Y-77840000D02*
X96827064Y-77840000D01*
%TO.C,R4*%
X106990000Y-112822936D02*
X106990000Y-117177064D01*
X110410000Y-112822936D02*
X110410000Y-117177064D01*
%TO.C,R9*%
X98547258Y-82197500D02*
X98072742Y-82197500D01*
X98547258Y-83242500D02*
X98072742Y-83242500D01*
%TO.C,R26*%
X129172936Y-127865000D02*
X129627064Y-127865000D01*
X129172936Y-129335000D02*
X129627064Y-129335000D01*
%TO.C,C18*%
X141470000Y-75189420D02*
X141470000Y-75470580D01*
X142490000Y-75189420D02*
X142490000Y-75470580D01*
%TO.C,R30*%
X129627064Y-134635000D02*
X129172936Y-134635000D01*
X129627064Y-133165000D02*
X129172936Y-133165000D01*
%TO.C,J4*%
X170430000Y-64170000D02*
X170430000Y-64230000D01*
X167770000Y-64170000D02*
X170430000Y-64170000D01*
X167770000Y-62900000D02*
X167770000Y-61570000D01*
X167770000Y-64230000D02*
X170430000Y-64230000D01*
X167770000Y-64170000D02*
X167770000Y-64230000D01*
X167770000Y-61570000D02*
X169100000Y-61570000D01*
%TO.C,C10*%
X116111252Y-73890000D02*
X114688748Y-73890000D01*
X116111252Y-76610000D02*
X114688748Y-76610000D01*
%TO.C,C25*%
X100211252Y-69090000D02*
X98788748Y-69090000D01*
X100211252Y-71810000D02*
X98788748Y-71810000D01*
%TO.C,J20*%
X93170000Y-137275000D02*
X93170000Y-135945000D01*
X93170000Y-138545000D02*
X95830000Y-138545000D01*
X95830000Y-138545000D02*
X95830000Y-138605000D01*
X93170000Y-138545000D02*
X93170000Y-138605000D01*
X93170000Y-135945000D02*
X94500000Y-135945000D01*
X93170000Y-138605000D02*
X95830000Y-138605000D01*
%TO.C,R1*%
X184710000Y-104822936D02*
X184710000Y-109177064D01*
X181290000Y-104822936D02*
X181290000Y-109177064D01*
%TO.C,R16*%
X137037258Y-108122500D02*
X136562742Y-108122500D01*
X137037258Y-107077500D02*
X136562742Y-107077500D01*
%TO.C,J3*%
X173670000Y-83330000D02*
X176330000Y-83330000D01*
X173670000Y-83270000D02*
X173670000Y-83330000D01*
X173670000Y-82000000D02*
X173670000Y-80670000D01*
X173670000Y-80670000D02*
X175000000Y-80670000D01*
X176330000Y-83270000D02*
X176330000Y-83330000D01*
X173670000Y-83270000D02*
X176330000Y-83270000D01*
%TO.C,C21*%
X185120000Y-120000000D02*
G75*
G03*
X185120000Y-120000000I-8120000J0D01*
G01*
%TO.C,R32*%
X144372936Y-135865000D02*
X144827064Y-135865000D01*
X144372936Y-137335000D02*
X144827064Y-137335000D01*
%TO.C,J9*%
X112600000Y-67900000D02*
X124600000Y-67900000D01*
X124600000Y-67900000D02*
X124600000Y-55900000D01*
X124600000Y-55900000D02*
X112600000Y-55900000D01*
X112600000Y-55900000D02*
X112600000Y-67900000D01*
%TO.C,Q8*%
X143170000Y-119950000D02*
X144670000Y-119950000D01*
X143170000Y-113050000D02*
X144670000Y-113050000D01*
X144670000Y-113050000D02*
X144670000Y-113320000D01*
X144670000Y-113320000D02*
X145770000Y-113320000D01*
X144670000Y-119680000D02*
X147500000Y-119680000D01*
X144670000Y-119950000D02*
X144670000Y-119680000D01*
%TO.C,C9*%
X108838748Y-79915000D02*
X109361252Y-79915000D01*
X108838748Y-81385000D02*
X109361252Y-81385000D01*
%TO.C,U5*%
X103650000Y-82300000D02*
X102150000Y-82300000D01*
X103650000Y-79080000D02*
X105150000Y-79080000D01*
X103650000Y-82300000D02*
X105150000Y-82300000D01*
X103650000Y-79080000D02*
X100775000Y-79080000D01*
%TO.C,Q10*%
X136800000Y-137160000D02*
X134850000Y-137160000D01*
X136800000Y-132040000D02*
X133350000Y-132040000D01*
X136800000Y-137160000D02*
X138750000Y-137160000D01*
X136800000Y-132040000D02*
X138750000Y-132040000D01*
%TO.C,R2*%
X130997258Y-104477500D02*
X130522742Y-104477500D01*
X130997258Y-105522500D02*
X130522742Y-105522500D01*
%TO.C,D9*%
X129080000Y-95000000D02*
X129080000Y-92170000D01*
X122450000Y-96500000D02*
X122450000Y-95000000D01*
X122450000Y-95000000D02*
X122720000Y-95000000D01*
X129350000Y-96500000D02*
X129350000Y-95000000D01*
X122720000Y-95000000D02*
X122720000Y-93900000D01*
X129350000Y-95000000D02*
X129080000Y-95000000D01*
%TO.C,R33*%
X144372936Y-133165000D02*
X144827064Y-133165000D01*
X144372936Y-134635000D02*
X144827064Y-134635000D01*
%TO.C,C8*%
X98440580Y-75060000D02*
X98159420Y-75060000D01*
X98440580Y-74040000D02*
X98159420Y-74040000D01*
%TO.C,J12*%
X93170000Y-121500000D02*
X93170000Y-120170000D01*
X93170000Y-122770000D02*
X93170000Y-125370000D01*
X93170000Y-125370000D02*
X95830000Y-125370000D01*
X93170000Y-120170000D02*
X94500000Y-120170000D01*
X93170000Y-122770000D02*
X95830000Y-122770000D01*
X95830000Y-122770000D02*
X95830000Y-125370000D01*
%TO.C,R27*%
X145565000Y-122472936D02*
X145565000Y-122927064D01*
X147035000Y-122472936D02*
X147035000Y-122927064D01*
%TO.C,L3*%
X131250000Y-75100000D02*
X118750000Y-75100000D01*
X118750000Y-75100000D02*
X118750000Y-87600000D01*
X118750000Y-87600000D02*
X131250000Y-87600000D01*
X131250000Y-87600000D02*
X131250000Y-75100000D01*
%TO.C,U6*%
X136100000Y-87680000D02*
X136335000Y-87680000D01*
X136100000Y-83820000D02*
X136100000Y-79960000D01*
X149120000Y-83820000D02*
X149120000Y-87680000D01*
X149120000Y-79960000D02*
X148885000Y-79960000D01*
X136100000Y-83820000D02*
X136100000Y-87680000D01*
X148885000Y-79960000D02*
X148885000Y-78145000D01*
X149120000Y-83820000D02*
X149120000Y-79960000D01*
X136100000Y-79960000D02*
X136335000Y-79960000D01*
X149120000Y-87680000D02*
X148885000Y-87680000D01*
%TO.C,C19*%
X138860000Y-75199420D02*
X138860000Y-75480580D01*
X139880000Y-75199420D02*
X139880000Y-75480580D01*
%TO.C,C16*%
X146490000Y-75209420D02*
X146490000Y-75490580D01*
X147510000Y-75209420D02*
X147510000Y-75490580D01*
%TO.C,J14*%
X93170000Y-134605000D02*
X95830000Y-134605000D01*
X95830000Y-134545000D02*
X95830000Y-134605000D01*
X93170000Y-134545000D02*
X95830000Y-134545000D01*
X93170000Y-133275000D02*
X93170000Y-131945000D01*
X93170000Y-131945000D02*
X94500000Y-131945000D01*
X93170000Y-134545000D02*
X93170000Y-134605000D01*
%TO.C,Q2*%
X153350000Y-99280000D02*
X153620000Y-99280000D01*
X153350000Y-100780000D02*
X153350000Y-99280000D01*
X159980000Y-99280000D02*
X159980000Y-96450000D01*
X160250000Y-100780000D02*
X160250000Y-99280000D01*
X153620000Y-99280000D02*
X153620000Y-98180000D01*
X160250000Y-99280000D02*
X159980000Y-99280000D01*
%TO.C,R5*%
X101990000Y-104422936D02*
X101990000Y-108777064D01*
X105410000Y-104422936D02*
X105410000Y-108777064D01*
%TO.C,J10*%
X160170000Y-61570000D02*
X161500000Y-61570000D01*
X160170000Y-64170000D02*
X162830000Y-64170000D01*
X160170000Y-64170000D02*
X160170000Y-64230000D01*
X160170000Y-64230000D02*
X162830000Y-64230000D01*
X160170000Y-62900000D02*
X160170000Y-61570000D01*
X162830000Y-64170000D02*
X162830000Y-64230000D01*
%TO.C,R25*%
X164222936Y-136185000D02*
X164677064Y-136185000D01*
X164222936Y-134715000D02*
X164677064Y-134715000D01*
%TO.C,C6*%
X104209225Y-70310000D02*
X104209225Y-68968000D01*
X105010225Y-73923000D02*
X105010225Y-72390000D01*
X105090225Y-70310000D02*
X105090225Y-68772000D01*
X104289225Y-70310000D02*
X104289225Y-68936000D01*
X103169225Y-72955000D02*
X103169225Y-69745000D01*
X104850225Y-73906000D02*
X104850225Y-72390000D01*
X103969225Y-70310000D02*
X103969225Y-69082000D01*
X104089225Y-70310000D02*
X104089225Y-69021000D01*
X105090225Y-73928000D02*
X105090225Y-72390000D01*
X103609225Y-73385000D02*
X103609225Y-72390000D01*
X104329225Y-73778000D02*
X104329225Y-72390000D01*
X104089225Y-73679000D02*
X104089225Y-72390000D01*
X103289225Y-73093000D02*
X103289225Y-72390000D01*
X104489225Y-73830000D02*
X104489225Y-72390000D01*
X104610225Y-70310000D02*
X104610225Y-68839000D01*
X103449225Y-70310000D02*
X103449225Y-69449000D01*
X103769225Y-70310000D02*
X103769225Y-69201000D01*
X104009225Y-73640000D02*
X104009225Y-72390000D01*
X104690225Y-70310000D02*
X104690225Y-68822000D01*
X103729225Y-73472000D02*
X103729225Y-72390000D01*
X103809225Y-70310000D02*
X103809225Y-69175000D01*
X105170225Y-70310000D02*
X105170225Y-68770000D01*
X103369225Y-70310000D02*
X103369225Y-69524000D01*
X104970225Y-70310000D02*
X104970225Y-68781000D01*
X105170225Y-73930000D02*
X105170225Y-72390000D01*
X104449225Y-70310000D02*
X104449225Y-68882000D01*
X104770225Y-70310000D02*
X104770225Y-68807000D01*
X103489225Y-73287000D02*
X103489225Y-72390000D01*
X103489225Y-70310000D02*
X103489225Y-69413000D01*
X104850225Y-70310000D02*
X104850225Y-68794000D01*
X103569225Y-70310000D02*
X103569225Y-69346000D01*
X105050225Y-73926000D02*
X105050225Y-72390000D01*
X104289225Y-73764000D02*
X104289225Y-72390000D01*
X105130225Y-73929000D02*
X105130225Y-72390000D01*
X104329225Y-70310000D02*
X104329225Y-68922000D01*
X103529225Y-70310000D02*
X103529225Y-69379000D01*
X104129225Y-73698000D02*
X104129225Y-72390000D01*
X104409225Y-73805000D02*
X104409225Y-72390000D01*
X102649225Y-71868000D02*
X102649225Y-70832000D01*
X103409225Y-73214000D02*
X103409225Y-72390000D01*
X103089225Y-72850000D02*
X103089225Y-69850000D01*
X104169225Y-73715000D02*
X104169225Y-72390000D01*
X103009225Y-72733000D02*
X103009225Y-69967000D01*
X104249225Y-70310000D02*
X104249225Y-68952000D01*
X104970225Y-73919000D02*
X104970225Y-72390000D01*
X103209225Y-73003000D02*
X103209225Y-72390000D01*
X105210225Y-70310000D02*
X105210225Y-68770000D01*
X103609225Y-70310000D02*
X103609225Y-69315000D01*
X104770225Y-73893000D02*
X104770225Y-72390000D01*
X103729225Y-70310000D02*
X103729225Y-69228000D01*
X104890225Y-70310000D02*
X104890225Y-68789000D01*
X103449225Y-73251000D02*
X103449225Y-72390000D01*
X103889225Y-70310000D02*
X103889225Y-69126000D01*
X104369225Y-70310000D02*
X104369225Y-68908000D01*
X103049225Y-72793000D02*
X103049225Y-69907000D01*
X103649225Y-70310000D02*
X103649225Y-69285000D01*
X103249225Y-73049000D02*
X103249225Y-72390000D01*
X105210225Y-73930000D02*
X105210225Y-72390000D01*
X103249225Y-70310000D02*
X103249225Y-69651000D01*
X102609225Y-71634000D02*
X102609225Y-71066000D01*
X108015000Y-72825000D02*
X107515000Y-72825000D01*
X102769225Y-72265000D02*
X102769225Y-70435000D01*
X103129225Y-72904000D02*
X103129225Y-69796000D01*
X103809225Y-73525000D02*
X103809225Y-72390000D01*
X104690225Y-73878000D02*
X104690225Y-72390000D01*
X102729225Y-72155000D02*
X102729225Y-70545000D01*
X104610225Y-73861000D02*
X104610225Y-72390000D01*
X103329225Y-73135000D02*
X103329225Y-72390000D01*
X104249225Y-73748000D02*
X104249225Y-72390000D01*
X103689225Y-70310000D02*
X103689225Y-69255000D01*
X104530225Y-73841000D02*
X104530225Y-72390000D01*
X104169225Y-70310000D02*
X104169225Y-68985000D01*
X104890225Y-73911000D02*
X104890225Y-72390000D01*
X104449225Y-73818000D02*
X104449225Y-72390000D01*
X103889225Y-73574000D02*
X103889225Y-72390000D01*
X103969225Y-73618000D02*
X103969225Y-72390000D01*
X104409225Y-70310000D02*
X104409225Y-68895000D01*
X104049225Y-70310000D02*
X104049225Y-69040000D01*
X107765000Y-73075000D02*
X107765000Y-72575000D01*
X104810225Y-73900000D02*
X104810225Y-72390000D01*
X103689225Y-73445000D02*
X103689225Y-72390000D01*
X103849225Y-73550000D02*
X103849225Y-72390000D01*
X102689225Y-72027000D02*
X102689225Y-70673000D01*
X104650225Y-73870000D02*
X104650225Y-72390000D01*
X103929225Y-70310000D02*
X103929225Y-69103000D01*
X104930225Y-73915000D02*
X104930225Y-72390000D01*
X103209225Y-70310000D02*
X103209225Y-69697000D01*
X103569225Y-73354000D02*
X103569225Y-72390000D01*
X103649225Y-73415000D02*
X103649225Y-72390000D01*
X104369225Y-73792000D02*
X104369225Y-72390000D01*
X105010225Y-70310000D02*
X105010225Y-68777000D01*
X103849225Y-70310000D02*
X103849225Y-69150000D01*
X103529225Y-73321000D02*
X103529225Y-72390000D01*
X102849225Y-72448000D02*
X102849225Y-70252000D01*
X104570225Y-70310000D02*
X104570225Y-68849000D01*
X104209225Y-73732000D02*
X104209225Y-72390000D01*
X104650225Y-70310000D02*
X104650225Y-68830000D01*
X104810225Y-70310000D02*
X104810225Y-68800000D01*
X105130225Y-70310000D02*
X105130225Y-68771000D01*
X104730225Y-70310000D02*
X104730225Y-68814000D01*
X103409225Y-70310000D02*
X103409225Y-69486000D01*
X102889225Y-72528000D02*
X102889225Y-70172000D01*
X103289225Y-70310000D02*
X103289225Y-69607000D01*
X104009225Y-70310000D02*
X104009225Y-69060000D01*
X104570225Y-73851000D02*
X104570225Y-72390000D01*
X104730225Y-73886000D02*
X104730225Y-72390000D01*
X102929225Y-72601000D02*
X102929225Y-70099000D01*
X104129225Y-70310000D02*
X104129225Y-69002000D01*
X103329225Y-70310000D02*
X103329225Y-69565000D01*
X103769225Y-73499000D02*
X103769225Y-72390000D01*
X104530225Y-70310000D02*
X104530225Y-68859000D01*
X105050225Y-70310000D02*
X105050225Y-68774000D01*
X103369225Y-73176000D02*
X103369225Y-72390000D01*
X104489225Y-70310000D02*
X104489225Y-68870000D01*
X104930225Y-70310000D02*
X104930225Y-68785000D01*
X102809225Y-72361000D02*
X102809225Y-70339000D01*
X102969225Y-72669000D02*
X102969225Y-70031000D01*
X104049225Y-73660000D02*
X104049225Y-72390000D01*
X103929225Y-73597000D02*
X103929225Y-72390000D01*
X107830225Y-71350000D02*
G75*
G03*
X107830225Y-71350000I-2620000J0D01*
G01*
%TO.C,C7*%
X98450580Y-80400000D02*
X98169420Y-80400000D01*
X98450580Y-81420000D02*
X98169420Y-81420000D01*
%TO.C,R8*%
X109587500Y-78067258D02*
X109587500Y-77592742D01*
X110632500Y-78067258D02*
X110632500Y-77592742D01*
%TO.C,R13*%
X98537258Y-77072500D02*
X98062742Y-77072500D01*
X98537258Y-76027500D02*
X98062742Y-76027500D01*
%TO.C,J18*%
X152225000Y-144330000D02*
X150895000Y-144330000D01*
X153495000Y-144330000D02*
X153495000Y-141670000D01*
X153495000Y-144330000D02*
X156095000Y-144330000D01*
X153495000Y-141670000D02*
X156095000Y-141670000D01*
X156095000Y-144330000D02*
X156095000Y-141670000D01*
X150895000Y-144330000D02*
X150895000Y-143000000D01*
%TO.C,J21*%
X133270000Y-72200000D02*
X133270000Y-70870000D01*
X133270000Y-70870000D02*
X134600000Y-70870000D01*
X133270000Y-73470000D02*
X135930000Y-73470000D01*
X133270000Y-73470000D02*
X133270000Y-73530000D01*
X133270000Y-73530000D02*
X135930000Y-73530000D01*
X135930000Y-73470000D02*
X135930000Y-73530000D01*
%TO.C,J15*%
X93170000Y-130045000D02*
X93170000Y-130105000D01*
X95830000Y-130045000D02*
X95830000Y-130105000D01*
X93170000Y-130045000D02*
X95830000Y-130045000D01*
X93170000Y-127445000D02*
X94500000Y-127445000D01*
X93170000Y-128775000D02*
X93170000Y-127445000D01*
X93170000Y-130105000D02*
X95830000Y-130105000D01*
%TO.C,C17*%
X145010000Y-75209420D02*
X145010000Y-75490580D01*
X143990000Y-75209420D02*
X143990000Y-75490580D01*
%TO.C,Q9*%
X157450000Y-134190000D02*
X154000000Y-134190000D01*
X157450000Y-139310000D02*
X155500000Y-139310000D01*
X157450000Y-134190000D02*
X159400000Y-134190000D01*
X157450000Y-139310000D02*
X159400000Y-139310000D01*
%TO.C,C20*%
X182120000Y-95000000D02*
G75*
G03*
X182120000Y-95000000I-8120000J0D01*
G01*
%TO.C,R18*%
X119272936Y-120115000D02*
X119727064Y-120115000D01*
X119272936Y-121585000D02*
X119727064Y-121585000D01*
%TO.C,C13*%
X108237000Y-95100001D02*
X113383000Y-95100001D01*
X109491000Y-93059001D02*
X109770000Y-93059001D01*
X109067000Y-93379001D02*
X109770000Y-93379001D01*
X108839000Y-93619001D02*
X109770000Y-93619001D01*
X111850000Y-93939001D02*
X113010000Y-93939001D01*
X109799000Y-92899001D02*
X111821000Y-92899001D01*
X108688000Y-93819001D02*
X109770000Y-93819001D01*
X109335000Y-98104776D02*
X109335000Y-97604776D01*
X109712000Y-92939001D02*
X111908000Y-92939001D01*
X108355000Y-94499001D02*
X109770000Y-94499001D01*
X108984000Y-93459001D02*
X109770000Y-93459001D01*
X108500000Y-94139001D02*
X109770000Y-94139001D01*
X111850000Y-94139001D02*
X113120000Y-94139001D01*
X111850000Y-93379001D02*
X112553000Y-93379001D01*
X111850000Y-94900001D02*
X113360000Y-94900001D01*
X111850000Y-94339001D02*
X113208000Y-94339001D01*
X111850000Y-93579001D02*
X112747000Y-93579001D01*
X108342000Y-94539001D02*
X109770000Y-94539001D01*
X108520000Y-94099001D02*
X109770000Y-94099001D01*
X109111000Y-93339001D02*
X109770000Y-93339001D01*
X111850000Y-94700001D02*
X113321000Y-94700001D01*
X109085000Y-97854776D02*
X109585000Y-97854776D01*
X111850000Y-93459001D02*
X112636000Y-93459001D01*
X110292000Y-92739001D02*
X111328000Y-92739001D01*
X111850000Y-94219001D02*
X113158000Y-94219001D01*
X111850000Y-94620001D02*
X113301000Y-94620001D01*
X111850000Y-94299001D02*
X113192000Y-94299001D01*
X111850000Y-94980001D02*
X113371000Y-94980001D01*
X109367000Y-93139001D02*
X109770000Y-93139001D01*
X108260000Y-94900001D02*
X109770000Y-94900001D01*
X108282000Y-94780001D02*
X109770000Y-94780001D01*
X108232000Y-95180001D02*
X113388000Y-95180001D01*
X111850000Y-94099001D02*
X113100000Y-94099001D01*
X108231000Y-95220001D02*
X113389000Y-95220001D01*
X109427000Y-93099001D02*
X109770000Y-93099001D01*
X111850000Y-93419001D02*
X112595000Y-93419001D01*
X111850000Y-93139001D02*
X112253000Y-93139001D01*
X108396000Y-94379001D02*
X109770000Y-94379001D01*
X108382000Y-94419001D02*
X109770000Y-94419001D01*
X108234000Y-95140001D02*
X113386000Y-95140001D01*
X109025000Y-93419001D02*
X109770000Y-93419001D01*
X109632000Y-92979001D02*
X111988000Y-92979001D01*
X109157000Y-93299001D02*
X109770000Y-93299001D01*
X111850000Y-94660001D02*
X113311000Y-94660001D01*
X111850000Y-94940001D02*
X113366000Y-94940001D01*
X108715000Y-93779001D02*
X109770000Y-93779001D01*
X110005000Y-92819001D02*
X111615000Y-92819001D01*
X111850000Y-93619001D02*
X112781000Y-93619001D01*
X108586000Y-93979001D02*
X109770000Y-93979001D01*
X108873000Y-93579001D02*
X109770000Y-93579001D01*
X108309000Y-94660001D02*
X109770000Y-94660001D01*
X111850000Y-94379001D02*
X113224000Y-94379001D01*
X111850000Y-93659001D02*
X112814000Y-93659001D01*
X111850000Y-94459001D02*
X113252000Y-94459001D01*
X108245000Y-95020001D02*
X109770000Y-95020001D01*
X108330000Y-94579001D02*
X109770000Y-94579001D01*
X108230000Y-95260001D02*
X113390000Y-95260001D01*
X111850000Y-94740001D02*
X113330000Y-94740001D01*
X108445000Y-94259001D02*
X109770000Y-94259001D01*
X108230000Y-95300001D02*
X113390000Y-95300001D01*
X108563000Y-94019001D02*
X109770000Y-94019001D01*
X108249000Y-94980001D02*
X109770000Y-94980001D01*
X108775000Y-93699001D02*
X109770000Y-93699001D01*
X109205000Y-93259001D02*
X109770000Y-93259001D01*
X108661000Y-93859001D02*
X109770000Y-93859001D01*
X111850000Y-93539001D02*
X112711000Y-93539001D01*
X111850000Y-93259001D02*
X112415000Y-93259001D01*
X109895000Y-92859001D02*
X111725000Y-92859001D01*
X111850000Y-94539001D02*
X113278000Y-94539001D01*
X111850000Y-93099001D02*
X112193000Y-93099001D01*
X108299000Y-94700001D02*
X109770000Y-94700001D01*
X108745000Y-93739001D02*
X109770000Y-93739001D01*
X111850000Y-94780001D02*
X113338000Y-94780001D01*
X111850000Y-93699001D02*
X112845000Y-93699001D01*
X111850000Y-95060001D02*
X113379000Y-95060001D01*
X111850000Y-94419001D02*
X113238000Y-94419001D01*
X108462000Y-94219001D02*
X109770000Y-94219001D01*
X108635000Y-93899001D02*
X109770000Y-93899001D01*
X111850000Y-94019001D02*
X113057000Y-94019001D01*
X111850000Y-93979001D02*
X113034000Y-93979001D01*
X109256000Y-93219001D02*
X109770000Y-93219001D01*
X110133000Y-92779001D02*
X111487000Y-92779001D01*
X108610000Y-93939001D02*
X109770000Y-93939001D01*
X108481000Y-94179001D02*
X109770000Y-94179001D01*
X111850000Y-93899001D02*
X112985000Y-93899001D01*
X111850000Y-93059001D02*
X112129000Y-93059001D01*
X108909000Y-93539001D02*
X109770000Y-93539001D01*
X111850000Y-93779001D02*
X112905000Y-93779001D01*
X108428000Y-94299001D02*
X109770000Y-94299001D01*
X111850000Y-94860001D02*
X113353000Y-94860001D01*
X108412000Y-94339001D02*
X109770000Y-94339001D01*
X108319000Y-94620001D02*
X109770000Y-94620001D01*
X108267000Y-94860001D02*
X109770000Y-94860001D01*
X108290000Y-94740001D02*
X109770000Y-94740001D01*
X111850000Y-93179001D02*
X112310000Y-93179001D01*
X111850000Y-93819001D02*
X112932000Y-93819001D01*
X108241000Y-95060001D02*
X109770000Y-95060001D01*
X111850000Y-94179001D02*
X113139000Y-94179001D01*
X111850000Y-93019001D02*
X112061000Y-93019001D01*
X111850000Y-94059001D02*
X113078000Y-94059001D01*
X111850000Y-94579001D02*
X113290000Y-94579001D01*
X111850000Y-93499001D02*
X112674000Y-93499001D01*
X110526000Y-92699001D02*
X111094000Y-92699001D01*
X111850000Y-94499001D02*
X113265000Y-94499001D01*
X111850000Y-93739001D02*
X112875000Y-93739001D01*
X108806000Y-93659001D02*
X109770000Y-93659001D01*
X111850000Y-94259001D02*
X113175000Y-94259001D01*
X109310000Y-93179001D02*
X109770000Y-93179001D01*
X111850000Y-93859001D02*
X112959000Y-93859001D01*
X108254000Y-94940001D02*
X109770000Y-94940001D01*
X111850000Y-93339001D02*
X112509000Y-93339001D01*
X108946000Y-93499001D02*
X109770000Y-93499001D01*
X108274000Y-94820001D02*
X109770000Y-94820001D01*
X111850000Y-94820001D02*
X113346000Y-94820001D01*
X108368000Y-94459001D02*
X109770000Y-94459001D01*
X111850000Y-95020001D02*
X113375000Y-95020001D01*
X108542000Y-94059001D02*
X109770000Y-94059001D01*
X111850000Y-93219001D02*
X112364000Y-93219001D01*
X111850000Y-93299001D02*
X112463000Y-93299001D01*
X109559000Y-93019001D02*
X109770000Y-93019001D01*
X113430000Y-95300001D02*
G75*
G03*
X113430000Y-95300001I-2620000J0D01*
G01*
%TO.C,R31*%
X129627064Y-137235000D02*
X129172936Y-137235000D01*
X129627064Y-135765000D02*
X129172936Y-135765000D01*
%TO.C,J2*%
X160770000Y-113970000D02*
X160770000Y-114030000D01*
X163430000Y-113970000D02*
X163430000Y-114030000D01*
X160770000Y-114030000D02*
X163430000Y-114030000D01*
X160770000Y-113970000D02*
X163430000Y-113970000D01*
X160770000Y-111370000D02*
X162100000Y-111370000D01*
X160770000Y-112700000D02*
X160770000Y-111370000D01*
%TO.C,R7*%
X107252742Y-77392500D02*
X107727258Y-77392500D01*
X107252742Y-76347500D02*
X107727258Y-76347500D01*
%TO.C,R22*%
X156765000Y-131872936D02*
X156765000Y-132327064D01*
X158235000Y-131872936D02*
X158235000Y-132327064D01*
%TO.C,J11*%
X150070000Y-73470000D02*
X150070000Y-73530000D01*
X150070000Y-73530000D02*
X152730000Y-73530000D01*
X150070000Y-72200000D02*
X150070000Y-70870000D01*
X152730000Y-73470000D02*
X152730000Y-73530000D01*
X150070000Y-70870000D02*
X151400000Y-70870000D01*
X150070000Y-73470000D02*
X152730000Y-73470000D01*
%TO.C,J7*%
X135195000Y-144330000D02*
X137795000Y-144330000D01*
X135195000Y-144330000D02*
X135195000Y-141670000D01*
X133925000Y-144330000D02*
X132595000Y-144330000D01*
X132595000Y-144330000D02*
X132595000Y-143000000D01*
X135195000Y-141670000D02*
X137795000Y-141670000D01*
X137795000Y-144330000D02*
X137795000Y-141670000D01*
%TD*%
M02*
