%TF.GenerationSoftware,KiCad,Pcbnew,(6.0.1)*%
%TF.CreationDate,2022-03-29T14:06:01-05:00*%
%TF.ProjectId,power_board,706f7765-725f-4626-9f61-72642e6b6963,rev?*%
%TF.SameCoordinates,Original*%
%TF.FileFunction,Copper,L1,Top*%
%TF.FilePolarity,Positive*%
%FSLAX46Y46*%
G04 Gerber Fmt 4.6, Leading zero omitted, Abs format (unit mm)*
G04 Created by KiCad (PCBNEW (6.0.1)) date 2022-03-29 14:06:01*
%MOMM*%
%LPD*%
G01*
G04 APERTURE LIST*
G04 Aperture macros list*
%AMRoundRect*
0 Rectangle with rounded corners*
0 $1 Rounding radius*
0 $2 $3 $4 $5 $6 $7 $8 $9 X,Y pos of 4 corners*
0 Add a 4 corners polygon primitive as box body*
4,1,4,$2,$3,$4,$5,$6,$7,$8,$9,$2,$3,0*
0 Add four circle primitives for the rounded corners*
1,1,$1+$1,$2,$3*
1,1,$1+$1,$4,$5*
1,1,$1+$1,$6,$7*
1,1,$1+$1,$8,$9*
0 Add four rect primitives between the rounded corners*
20,1,$1+$1,$2,$3,$4,$5,0*
20,1,$1+$1,$4,$5,$6,$7,0*
20,1,$1+$1,$6,$7,$8,$9,0*
20,1,$1+$1,$8,$9,$2,$3,0*%
%AMFreePoly0*
4,1,6,1.000000,0.000000,0.500000,-0.750000,-0.500000,-0.750000,-0.500000,0.750000,0.500000,0.750000,1.000000,0.000000,1.000000,0.000000,$1*%
%AMFreePoly1*
4,1,6,0.500000,-0.750000,-0.650000,-0.750000,-0.150000,0.000000,-0.650000,0.750000,0.500000,0.750000,0.500000,-0.750000,0.500000,-0.750000,$1*%
G04 Aperture macros list end*
%TA.AperFunction,ComponentPad*%
%ADD10R,1.700000X1.700000*%
%TD*%
%TA.AperFunction,ComponentPad*%
%ADD11O,1.700000X1.700000*%
%TD*%
%TA.AperFunction,SMDPad,CuDef*%
%ADD12RoundRect,0.200000X-0.275000X0.200000X-0.275000X-0.200000X0.275000X-0.200000X0.275000X0.200000X0*%
%TD*%
%TA.AperFunction,ComponentPad*%
%ADD13C,3.200000*%
%TD*%
%TA.AperFunction,SMDPad,CuDef*%
%ADD14RoundRect,0.150000X-0.825000X-0.150000X0.825000X-0.150000X0.825000X0.150000X-0.825000X0.150000X0*%
%TD*%
%TA.AperFunction,SMDPad,CuDef*%
%ADD15RoundRect,0.250000X-0.325000X-1.100000X0.325000X-1.100000X0.325000X1.100000X-0.325000X1.100000X0*%
%TD*%
%TA.AperFunction,SMDPad,CuDef*%
%ADD16RoundRect,0.200000X-0.200000X-0.275000X0.200000X-0.275000X0.200000X0.275000X-0.200000X0.275000X0*%
%TD*%
%TA.AperFunction,SMDPad,CuDef*%
%ADD17RoundRect,0.200000X0.275000X-0.200000X0.275000X0.200000X-0.275000X0.200000X-0.275000X-0.200000X0*%
%TD*%
%TA.AperFunction,SMDPad,CuDef*%
%ADD18R,1.200000X2.200000*%
%TD*%
%TA.AperFunction,SMDPad,CuDef*%
%ADD19R,5.800000X6.400000*%
%TD*%
%TA.AperFunction,SMDPad,CuDef*%
%ADD20RoundRect,0.250000X-1.100000X0.325000X-1.100000X-0.325000X1.100000X-0.325000X1.100000X0.325000X0*%
%TD*%
%TA.AperFunction,SMDPad,CuDef*%
%ADD21FreePoly0,0.000000*%
%TD*%
%TA.AperFunction,SMDPad,CuDef*%
%ADD22FreePoly1,0.000000*%
%TD*%
%TA.AperFunction,SMDPad,CuDef*%
%ADD23RoundRect,0.200000X0.200000X0.275000X-0.200000X0.275000X-0.200000X-0.275000X0.200000X-0.275000X0*%
%TD*%
%TA.AperFunction,SMDPad,CuDef*%
%ADD24R,1.400000X0.300000*%
%TD*%
%TA.AperFunction,SMDPad,CuDef*%
%ADD25R,2.200000X1.200000*%
%TD*%
%TA.AperFunction,SMDPad,CuDef*%
%ADD26R,6.400000X5.800000*%
%TD*%
%TA.AperFunction,SMDPad,CuDef*%
%ADD27RoundRect,0.250000X0.250000X0.475000X-0.250000X0.475000X-0.250000X-0.475000X0.250000X-0.475000X0*%
%TD*%
%TA.AperFunction,ComponentPad*%
%ADD28C,4.400000*%
%TD*%
%TA.AperFunction,SMDPad,CuDef*%
%ADD29RoundRect,0.225000X-0.225000X-0.250000X0.225000X-0.250000X0.225000X0.250000X-0.225000X0.250000X0*%
%TD*%
%TA.AperFunction,WasherPad*%
%ADD30C,2.600000*%
%TD*%
%TA.AperFunction,ComponentPad*%
%ADD31C,3.400000*%
%TD*%
%TA.AperFunction,SMDPad,CuDef*%
%ADD32RoundRect,0.250000X-1.425000X0.362500X-1.425000X-0.362500X1.425000X-0.362500X1.425000X0.362500X0*%
%TD*%
%TA.AperFunction,ComponentPad*%
%ADD33R,1.600000X1.600000*%
%TD*%
%TA.AperFunction,ComponentPad*%
%ADD34C,1.600000*%
%TD*%
%TA.AperFunction,SMDPad,CuDef*%
%ADD35RoundRect,0.250000X-0.312500X-0.625000X0.312500X-0.625000X0.312500X0.625000X-0.312500X0.625000X0*%
%TD*%
%TA.AperFunction,SMDPad,CuDef*%
%ADD36RoundRect,0.250000X0.325000X1.100000X-0.325000X1.100000X-0.325000X-1.100000X0.325000X-1.100000X0*%
%TD*%
%TA.AperFunction,SMDPad,CuDef*%
%ADD37FreePoly0,270.000000*%
%TD*%
%TA.AperFunction,SMDPad,CuDef*%
%ADD38FreePoly1,270.000000*%
%TD*%
%TA.AperFunction,ComponentPad*%
%ADD39C,2.000000*%
%TD*%
%TA.AperFunction,SMDPad,CuDef*%
%ADD40RoundRect,0.250000X-0.250000X-0.475000X0.250000X-0.475000X0.250000X0.475000X-0.250000X0.475000X0*%
%TD*%
%TA.AperFunction,SMDPad,CuDef*%
%ADD41RoundRect,0.075000X-0.650000X-0.075000X0.650000X-0.075000X0.650000X0.075000X-0.650000X0.075000X0*%
%TD*%
%TA.AperFunction,SMDPad,CuDef*%
%ADD42R,1.680000X1.880000*%
%TD*%
%TA.AperFunction,SMDPad,CuDef*%
%ADD43RoundRect,0.225000X0.225000X0.250000X-0.225000X0.250000X-0.225000X-0.250000X0.225000X-0.250000X0*%
%TD*%
%TA.AperFunction,SMDPad,CuDef*%
%ADD44R,2.540000X3.530600*%
%TD*%
%TA.AperFunction,SMDPad,CuDef*%
%ADD45RoundRect,0.150000X-0.150000X0.875000X-0.150000X-0.875000X0.150000X-0.875000X0.150000X0.875000X0*%
%TD*%
%TA.AperFunction,ViaPad*%
%ADD46C,0.800000*%
%TD*%
%TA.AperFunction,Conductor*%
%ADD47C,1.000000*%
%TD*%
%TA.AperFunction,Conductor*%
%ADD48C,0.300000*%
%TD*%
%TA.AperFunction,Conductor*%
%ADD49C,0.800000*%
%TD*%
%TA.AperFunction,Conductor*%
%ADD50C,0.250000*%
%TD*%
%TA.AperFunction,Conductor*%
%ADD51C,0.400000*%
%TD*%
G04 APERTURE END LIST*
D10*
%TO.P,J5,1,Pin_1*%
%TO.N,GND*%
X181300000Y-129000000D03*
%TD*%
%TO.P,J19,1,Pin_1*%
%TO.N,Net-(J19-Pad1)*%
X158925000Y-144800000D03*
D11*
%TO.P,J19,2,Pin_2*%
%TO.N,GND*%
X161465000Y-144800000D03*
%TD*%
D12*
%TO.P,R23,1*%
%TO.N,+24V*%
X154000000Y-130375000D03*
%TO.P,R23,2*%
%TO.N,Net-(Q9-Pad3)*%
X154000000Y-132025000D03*
%TD*%
D13*
%TO.P,J6,1,Pin_1*%
%TO.N,GND*%
X132300000Y-61900000D03*
%TD*%
D14*
%TO.P,Q6,1,ANODE_1*%
%TO.N,N_SDAO*%
X128425000Y-121495000D03*
%TO.P,Q6,2,CATHODE_1*%
%TO.N,GND*%
X128425000Y-122765000D03*
%TO.P,Q6,3,ANODE_2*%
%TO.N,MCU_P_RES*%
X128425000Y-124035000D03*
%TO.P,Q6,4,CATHODE_2*%
%TO.N,Net-(Q6-Pad4)*%
X128425000Y-125305000D03*
%TO.P,Q6,5,EMITTER_2*%
%TO.N,Net-(Q6-Pad5)*%
X133375000Y-125305000D03*
%TO.P,Q6,6,COLLECTOR_2*%
%TO.N,+5V*%
X133375000Y-124035000D03*
%TO.P,Q6,7,EMITTER_1*%
%TO.N,GND1*%
X133375000Y-122765000D03*
%TO.P,Q6,8,COLLECTOR_1*%
%TO.N,MCU_SDA*%
X133375000Y-121495000D03*
%TD*%
D15*
%TO.P,C22,1*%
%TO.N,GND*%
X163525000Y-82000000D03*
%TO.P,C22,2*%
%TO.N,+24V*%
X166475000Y-82000000D03*
%TD*%
D16*
%TO.P,R24,1*%
%TO.N,MCU_BTN2*%
X163537500Y-138950000D03*
%TO.P,R24,2*%
%TO.N,GND1*%
X165187500Y-138950000D03*
%TD*%
D10*
%TO.P,J22,1,Pin_1*%
%TO.N,SOLAR_CTRL*%
X144675000Y-144800000D03*
D11*
%TO.P,J22,2,Pin_2*%
%TO.N,GRID_CTRL*%
X142135000Y-144800000D03*
%TD*%
D10*
%TO.P,J1,1,Pin_1*%
%TO.N,+24V*%
X170700000Y-105400000D03*
%TD*%
D16*
%TO.P,R17,1*%
%TO.N,MCU_5V*%
X118675000Y-111750000D03*
%TO.P,R17,2*%
%TO.N,Net-(Q7-Pad1)*%
X120325000Y-111750000D03*
%TD*%
D17*
%TO.P,R10,1*%
%TO.N,Net-(R10-Pad1)*%
X101400000Y-77175000D03*
%TO.P,R10,2*%
%TO.N,Net-(C8-Pad1)*%
X101400000Y-75525000D03*
%TD*%
D18*
%TO.P,Q3,1,G*%
%TO.N,Net-(Q3-Pad1)*%
X150580000Y-97550000D03*
D19*
%TO.P,Q3,2,D*%
%TO.N,+24V*%
X148300000Y-103850000D03*
D18*
%TO.P,Q3,3,S*%
%TO.N,Net-(Q3-Pad3)*%
X146020000Y-97550000D03*
%TD*%
D20*
%TO.P,C14,1*%
%TO.N,GND*%
X115850000Y-93975000D03*
%TO.P,C14,2*%
%TO.N,24V Solar*%
X115850000Y-96925000D03*
%TD*%
D21*
%TO.P,JP8,1,A*%
%TO.N,MCU_5V*%
X114575000Y-136300000D03*
D22*
%TO.P,JP8,2,B*%
%TO.N,+5V*%
X116025000Y-136300000D03*
%TD*%
D16*
%TO.P,R19,1*%
%TO.N,MCU_5V*%
X118675000Y-115050000D03*
%TO.P,R19,2*%
%TO.N,MCU_SCL*%
X120325000Y-115050000D03*
%TD*%
D14*
%TO.P,Q7,1,ANODE_1*%
%TO.N,Net-(Q7-Pad1)*%
X128425000Y-114245000D03*
%TO.P,Q7,2,CATHODE_1*%
%TO.N,MCU_SCL*%
X128425000Y-115515000D03*
%TO.P,Q7,3,ANODE_2*%
%TO.N,Net-(Q7-Pad3)*%
X128425000Y-116785000D03*
%TO.P,Q7,4,CATHODE_2*%
%TO.N,MCU_SDA*%
X128425000Y-118055000D03*
%TO.P,Q7,5,EMITTER_2*%
%TO.N,GND*%
X133375000Y-118055000D03*
%TO.P,Q7,6,COLLECTOR_2*%
%TO.N,SDAI*%
X133375000Y-116785000D03*
%TO.P,Q7,7,EMITTER_1*%
%TO.N,GND*%
X133375000Y-115515000D03*
%TO.P,Q7,8,COLLECTOR_1*%
%TO.N,SCL*%
X133375000Y-114245000D03*
%TD*%
%TO.P,Q5,1,S*%
%TO.N,Net-(Q5-Pad1)*%
X111225000Y-84595000D03*
%TO.P,Q5,2,S*%
X111225000Y-85865000D03*
%TO.P,Q5,3,S*%
X111225000Y-87135000D03*
%TO.P,Q5,4,G*%
%TO.N,Net-(Q5-Pad4)*%
X111225000Y-88405000D03*
%TO.P,Q5,5,D*%
%TO.N,Net-(C10-Pad2)*%
X116175000Y-88405000D03*
%TO.P,Q5,6,S*%
X116175000Y-87135000D03*
%TO.P,Q5,7,S*%
X116175000Y-85865000D03*
%TO.P,Q5,8,S*%
X116175000Y-84595000D03*
%TD*%
D23*
%TO.P,R15,1*%
%TO.N,24V Solar_2*%
X137625000Y-109750000D03*
%TO.P,R15,2*%
%TO.N,SDAI*%
X135975000Y-109750000D03*
%TD*%
D24*
%TO.P,IC1,1,SENSE+*%
%TO.N,24V Solar*%
X128500000Y-107900000D03*
%TO.P,IC1,2,VIN*%
X128500000Y-108400000D03*
%TO.P,IC1,3,ADR1*%
%TO.N,ADR1*%
X128500000Y-108900000D03*
%TO.P,IC1,4,ADR0*%
%TO.N,ADR0*%
X128500000Y-109400000D03*
%TO.P,IC1,5,ADIN*%
%TO.N,GND*%
X128500000Y-109900000D03*
%TO.P,IC1,6,SCL*%
%TO.N,SCL*%
X132900000Y-109900000D03*
%TO.P,IC1,7,SDAI*%
%TO.N,SDAI*%
X132900000Y-109400000D03*
%TO.P,IC1,8,~{SDAO}*%
%TO.N,N_SDAO*%
X132900000Y-108900000D03*
%TO.P,IC1,9,GND*%
%TO.N,GND*%
X132900000Y-108400000D03*
%TO.P,IC1,10,SENSE-*%
%TO.N,24V Solar_2*%
X132900000Y-107900000D03*
%TD*%
D15*
%TO.P,C23,1*%
%TO.N,GND*%
X163525000Y-77000000D03*
%TO.P,C23,2*%
%TO.N,+24V*%
X166475000Y-77000000D03*
%TD*%
D20*
%TO.P,C15,1*%
%TO.N,GND*%
X119910000Y-94015000D03*
%TO.P,C15,2*%
%TO.N,24V Solar*%
X119910000Y-96965000D03*
%TD*%
D15*
%TO.P,C11,1*%
%TO.N,Net-(C10-Pad2)*%
X113935000Y-79980000D03*
%TO.P,C11,2*%
%TO.N,Net-(C10-Pad1)*%
X116885000Y-79980000D03*
%TD*%
D25*
%TO.P,Q1,1,G*%
%TO.N,Net-(Q1-Pad1)*%
X152100000Y-88820000D03*
D26*
%TO.P,Q1,2,D*%
%TO.N,24V Grid*%
X158400000Y-91100000D03*
D25*
%TO.P,Q1,3,S*%
%TO.N,Net-(Q1-Pad3)*%
X152100000Y-93380000D03*
%TD*%
D23*
%TO.P,R14,1*%
%TO.N,24V Solar_2*%
X137625000Y-111750000D03*
%TO.P,R14,2*%
%TO.N,SCL*%
X135975000Y-111750000D03*
%TD*%
D27*
%TO.P,C24,1*%
%TO.N,GND*%
X100450000Y-66350000D03*
%TO.P,C24,2*%
%TO.N,Solar Panel*%
X98550000Y-66350000D03*
%TD*%
D28*
%TO.P,J23,1,Pin_1*%
%TO.N,+24V*%
X179500000Y-106000000D03*
%TD*%
D21*
%TO.P,JP9,1,A*%
%TO.N,GND*%
X122350000Y-136300000D03*
D22*
%TO.P,JP9,2,B*%
%TO.N,GND1*%
X123800000Y-136300000D03*
%TD*%
D28*
%TO.P,J24,1,Pin_1*%
%TO.N,GND*%
X179500000Y-113500000D03*
%TD*%
D29*
%TO.P,D1,1,K*%
%TO.N,Net-(D1-Pad1)*%
X163925000Y-87400000D03*
%TO.P,D1,2,A*%
%TO.N,+24V*%
X165475000Y-87400000D03*
%TD*%
D30*
%TO.P,R21,*%
%TO.N,*%
X158150000Y-113120000D03*
X158150000Y-123280000D03*
D31*
%TO.P,R21,1*%
%TO.N,24V Solar_2*%
X151850000Y-113120000D03*
%TO.P,R21,2*%
%TO.N,Net-(Q8-Pad2)*%
X151850000Y-123280000D03*
%TD*%
D10*
%TO.P,J16,1,Pin_1*%
%TO.N,MCU_BTN1*%
X173800000Y-144800000D03*
%TD*%
D16*
%TO.P,R20,1*%
%TO.N,MCU_5V*%
X118675000Y-117550000D03*
%TO.P,R20,2*%
%TO.N,Net-(Q7-Pad3)*%
X120325000Y-117550000D03*
%TD*%
D25*
%TO.P,Q4,1,G*%
%TO.N,Net-(Q4-Pad1)*%
X141800000Y-101930000D03*
D26*
%TO.P,Q4,2,D*%
%TO.N,24V Solar_2*%
X135500000Y-99650000D03*
D25*
%TO.P,Q4,3,S*%
%TO.N,Net-(Q3-Pad3)*%
X141800000Y-97370000D03*
%TD*%
D10*
%TO.P,J17,1,Pin_1*%
%TO.N,MCU_BTN2*%
X169000000Y-144800000D03*
%TD*%
D32*
%TO.P,R11,1*%
%TO.N,Net-(Q5-Pad1)*%
X107200000Y-85037500D03*
%TO.P,R11,2*%
%TO.N,GND*%
X107200000Y-90962500D03*
%TD*%
D33*
%TO.P,C12,1*%
%TO.N,24V Solar*%
X104100000Y-96555113D03*
D34*
%TO.P,C12,2*%
%TO.N,GND*%
X104100000Y-94055113D03*
%TD*%
D33*
%TO.P,C5,1*%
%TO.N,Solar Panel*%
X106355113Y-65350000D03*
D34*
%TO.P,C5,2*%
%TO.N,GND*%
X104355113Y-65350000D03*
%TD*%
D35*
%TO.P,R12,1*%
%TO.N,24V Solar*%
X94637500Y-78750000D03*
%TO.P,R12,2*%
%TO.N,Net-(R12-Pad2)*%
X97562500Y-78750000D03*
%TD*%
D23*
%TO.P,R9,1*%
%TO.N,Net-(R9-Pad1)*%
X99135000Y-82720000D03*
%TO.P,R9,2*%
%TO.N,GND*%
X97485000Y-82720000D03*
%TD*%
D16*
%TO.P,R26,1*%
%TO.N,Net-(Q6-Pad4)*%
X128575000Y-128600000D03*
%TO.P,R26,2*%
%TO.N,GND1*%
X130225000Y-128600000D03*
%TD*%
D23*
%TO.P,R30,1*%
%TO.N,Net-(Q10-Pad2)*%
X131325000Y-133900000D03*
%TO.P,R30,2*%
%TO.N,GND1*%
X129675000Y-133900000D03*
%TD*%
D28*
%TO.P,J4,1,Pin_1*%
%TO.N,GND*%
X167200000Y-62900000D03*
%TD*%
D36*
%TO.P,C10,1*%
%TO.N,Net-(C10-Pad1)*%
X116875000Y-75250000D03*
%TO.P,C10,2*%
%TO.N,Net-(C10-Pad2)*%
X113925000Y-75250000D03*
%TD*%
D21*
%TO.P,JP7,1,A*%
%TO.N,MCU_GRID*%
X138475000Y-141300000D03*
D22*
%TO.P,JP7,2,B*%
%TO.N,GRID_CTRL*%
X139925000Y-141300000D03*
%TD*%
D37*
%TO.P,JP3,1,A*%
%TO.N,24V Solar*%
X112500000Y-106275000D03*
D38*
%TO.P,JP3,2,B*%
%TO.N,ADR1*%
X112500000Y-107725000D03*
%TD*%
D27*
%TO.P,C25,1*%
%TO.N,GND*%
X100450000Y-70450000D03*
%TO.P,C25,2*%
%TO.N,Solar Panel*%
X98550000Y-70450000D03*
%TD*%
D37*
%TO.P,JP5,1,A*%
%TO.N,MCU_P_RES*%
X124500000Y-126375000D03*
D38*
%TO.P,JP5,2,B*%
%TO.N,Net-(Q6-Pad5)*%
X124500000Y-127825000D03*
%TD*%
D10*
%TO.P,J20,1,Pin_1*%
%TO.N,GND1*%
X92300000Y-137275000D03*
%TD*%
D12*
%TO.P,R1,1*%
%TO.N,Net-(D1-Pad1)*%
X163900000Y-89475000D03*
%TO.P,R1,2*%
%TO.N,GND*%
X163900000Y-91125000D03*
%TD*%
D23*
%TO.P,R16,1*%
%TO.N,24V Solar_2*%
X137625000Y-107600000D03*
%TO.P,R16,2*%
%TO.N,N_SDAO*%
X135975000Y-107600000D03*
%TD*%
D21*
%TO.P,JP6,1,A*%
%TO.N,MCU_SOLAR*%
X138475000Y-148200000D03*
D22*
%TO.P,JP6,2,B*%
%TO.N,SOLAR_CTRL*%
X139925000Y-148200000D03*
%TD*%
D10*
%TO.P,J3,1,Pin_1*%
%TO.N,GND*%
X181300000Y-135400000D03*
%TD*%
D39*
%TO.P,C21,1*%
%TO.N,+24V*%
X172250000Y-95000000D03*
%TO.P,C21,2*%
%TO.N,GND*%
X179750000Y-95000000D03*
%TD*%
D37*
%TO.P,JP1,1,A*%
%TO.N,24V Solar*%
X106600000Y-106275000D03*
D38*
%TO.P,JP1,2,B*%
%TO.N,ADR0*%
X106600000Y-107725000D03*
%TD*%
D16*
%TO.P,R32,1*%
%TO.N,GRID_CTRL*%
X142275000Y-136600000D03*
%TO.P,R32,2*%
%TO.N,GND*%
X143925000Y-136600000D03*
%TD*%
D10*
%TO.P,J13,1,Pin_1*%
%TO.N,GND*%
X126000000Y-144800000D03*
%TD*%
D13*
%TO.P,J9,1,Pin_1*%
%TO.N,Solar Panel*%
X123200000Y-61900000D03*
%TD*%
D25*
%TO.P,Q8,1,G*%
%TO.N,Net-(Q6-Pad5)*%
X138200000Y-116820000D03*
D26*
%TO.P,Q8,2,D*%
%TO.N,Net-(Q8-Pad2)*%
X144500000Y-119100000D03*
D25*
%TO.P,Q8,3,S*%
%TO.N,GND*%
X138200000Y-121380000D03*
%TD*%
D40*
%TO.P,C9,1*%
%TO.N,Net-(C9-Pad1)*%
X108150000Y-80650000D03*
%TO.P,C9,2*%
%TO.N,GND*%
X110050000Y-80650000D03*
%TD*%
D41*
%TO.P,U5,1,VC*%
%TO.N,Net-(R10-Pad1)*%
X101500000Y-79690000D03*
%TO.P,U5,2,FBX*%
%TO.N,Net-(R12-Pad2)*%
X101500000Y-80190000D03*
%TO.P,U5,3,SS*%
%TO.N,Net-(C7-Pad1)*%
X101500000Y-80690000D03*
%TO.P,U5,4,RT*%
%TO.N,Net-(R9-Pad1)*%
X101500000Y-81190000D03*
%TO.P,U5,5,SYNC*%
%TO.N,GND*%
X101500000Y-81690000D03*
%TO.P,U5,6,SENSE*%
%TO.N,Net-(Q5-Pad1)*%
X105800000Y-81690000D03*
%TO.P,U5,7,GATE*%
%TO.N,Net-(Q5-Pad4)*%
X105800000Y-81190000D03*
%TO.P,U5,8,INTVCC*%
%TO.N,Net-(C9-Pad1)*%
X105800000Y-80690000D03*
%TO.P,U5,9,~{SHDN}/UVLO*%
%TO.N,Net-(R7-Pad2)*%
X105800000Y-80190000D03*
%TO.P,U5,10,VIN*%
%TO.N,Solar Panel*%
X105800000Y-79690000D03*
D42*
%TO.P,U5,11,GND*%
%TO.N,GND*%
X103650000Y-80690000D03*
%TD*%
D14*
%TO.P,Q10,1,ANODE_1*%
%TO.N,MCU_SOLAR*%
X134325000Y-132695000D03*
%TO.P,Q10,2,CATHODE_1*%
%TO.N,Net-(Q10-Pad2)*%
X134325000Y-133965000D03*
%TO.P,Q10,3,ANODE_2*%
%TO.N,MCU_GRID*%
X134325000Y-135235000D03*
%TO.P,Q10,4,CATHODE_2*%
%TO.N,Net-(Q10-Pad4)*%
X134325000Y-136505000D03*
%TO.P,Q10,5,EMITTER_2*%
%TO.N,GRID_CTRL*%
X139275000Y-136505000D03*
%TO.P,Q10,6,COLLECTOR_2*%
%TO.N,+5V*%
X139275000Y-135235000D03*
%TO.P,Q10,7,EMITTER_1*%
%TO.N,SOLAR_CTRL*%
X139275000Y-133965000D03*
%TO.P,Q10,8,COLLECTOR_1*%
%TO.N,+5V*%
X139275000Y-132695000D03*
%TD*%
D23*
%TO.P,R2,1*%
%TO.N,24V Solar_2*%
X131585000Y-105000000D03*
%TO.P,R2,2*%
%TO.N,24V Solar*%
X129935000Y-105000000D03*
%TD*%
D18*
%TO.P,D9,1,A*%
%TO.N,Net-(C10-Pad1)*%
X128180000Y-93270000D03*
D19*
%TO.P,D9,2,K*%
%TO.N,24V Solar*%
X125900000Y-99570000D03*
D18*
%TO.P,D9,3*%
%TO.N,N/C*%
X123620000Y-93270000D03*
%TD*%
D16*
%TO.P,R33,1*%
%TO.N,SOLAR_CTRL*%
X142275000Y-133900000D03*
%TO.P,R33,2*%
%TO.N,GND*%
X143925000Y-133900000D03*
%TD*%
D43*
%TO.P,C8,1*%
%TO.N,Net-(C8-Pad1)*%
X99075000Y-74550000D03*
%TO.P,C8,2*%
%TO.N,GND*%
X97525000Y-74550000D03*
%TD*%
D10*
%TO.P,J8,1,Pin_1*%
%TO.N,+5V*%
X122400000Y-144800000D03*
%TD*%
%TO.P,J12,1,Pin_1*%
%TO.N,MCU_SCL*%
X92300000Y-121500000D03*
D11*
%TO.P,J12,2,Pin_2*%
%TO.N,MCU_SDA*%
X92300000Y-124040000D03*
%TD*%
D16*
%TO.P,R27,1*%
%TO.N,Net-(Q6-Pad5)*%
X138475000Y-114300000D03*
%TO.P,R27,2*%
%TO.N,GND*%
X140125000Y-114300000D03*
%TD*%
D44*
%TO.P,L3,1,1*%
%TO.N,Solar Panel*%
X127611300Y-76409700D03*
%TO.P,L3,2,2*%
%TO.N,GND*%
X124588700Y-76409700D03*
%TO.P,L3,3,3*%
%TO.N,Net-(C10-Pad2)*%
X124588700Y-86290300D03*
%TO.P,L3,4,4*%
%TO.N,Net-(C10-Pad1)*%
X127611300Y-86290300D03*
%TD*%
D45*
%TO.P,U6,1,GND*%
%TO.N,GND*%
X148325000Y-79170000D03*
%TO.P,U6,2,TIMER1*%
%TO.N,unconnected-(U6-Pad2)*%
X147055000Y-79170000D03*
%TO.P,U6,3,INPUT1*%
%TO.N,Net-(J11-Pad1)*%
X145785000Y-79170000D03*
%TO.P,U6,4,TIMER2*%
%TO.N,unconnected-(U6-Pad4)*%
X144515000Y-79170000D03*
%TO.P,U6,5,INPUT2*%
%TO.N,Net-(J11-Pad1)*%
X143245000Y-79170000D03*
%TO.P,U6,6,TIMER3*%
%TO.N,unconnected-(U6-Pad6)*%
X141975000Y-79170000D03*
%TO.P,U6,7,INPUT3*%
%TO.N,Net-(J21-Pad1)*%
X140705000Y-79170000D03*
%TO.P,U6,8,TIMER4*%
%TO.N,unconnected-(U6-Pad8)*%
X139435000Y-79170000D03*
%TO.P,U6,9,INPUT4*%
%TO.N,Net-(J21-Pad1)*%
X138165000Y-79170000D03*
%TO.P,U6,10,GND*%
%TO.N,GND*%
X136895000Y-79170000D03*
%TO.P,U6,11,V+*%
%TO.N,24V Grid*%
X136895000Y-88470000D03*
%TO.P,U6,12,GATE4*%
%TO.N,Net-(Q4-Pad1)*%
X138165000Y-88470000D03*
%TO.P,U6,13,SENSE4*%
%TO.N,24V Solar_2*%
X139435000Y-88470000D03*
%TO.P,U6,14,GATE3*%
%TO.N,Net-(Q3-Pad1)*%
X140705000Y-88470000D03*
%TO.P,U6,15,SENSE3*%
%TO.N,24V Solar_2*%
X141975000Y-88470000D03*
%TO.P,U6,16,GATE2*%
%TO.N,Net-(Q2-Pad1)*%
X143245000Y-88470000D03*
%TO.P,U6,17,SENSE2*%
%TO.N,24V Grid*%
X144515000Y-88470000D03*
%TO.P,U6,18,GATE1*%
%TO.N,Net-(Q1-Pad1)*%
X145785000Y-88470000D03*
%TO.P,U6,19,SENSE1*%
%TO.N,24V Grid*%
X147055000Y-88470000D03*
%TO.P,U6,20,V+*%
X148325000Y-88470000D03*
%TD*%
D37*
%TO.P,JP2,1,A*%
%TO.N,ADR0*%
X106600000Y-111275000D03*
D38*
%TO.P,JP2,2,B*%
%TO.N,GND*%
X106600000Y-112725000D03*
%TD*%
D10*
%TO.P,J14,1,Pin_1*%
%TO.N,MCU_5V*%
X92300000Y-133275000D03*
%TD*%
D18*
%TO.P,Q2,1,G*%
%TO.N,Net-(Q2-Pad1)*%
X159080000Y-97550000D03*
D19*
%TO.P,Q2,2,D*%
%TO.N,+24V*%
X156800000Y-103850000D03*
D18*
%TO.P,Q2,3,S*%
%TO.N,Net-(Q1-Pad3)*%
X154520000Y-97550000D03*
%TD*%
D28*
%TO.P,J10,1,Pin_1*%
%TO.N,24V Grid*%
X158500000Y-62900000D03*
%TD*%
D16*
%TO.P,R25,1*%
%TO.N,MCU_BTN1*%
X163625000Y-135450000D03*
%TO.P,R25,2*%
%TO.N,GND1*%
X165275000Y-135450000D03*
%TD*%
D33*
%TO.P,C6,1*%
%TO.N,Solar Panel*%
X106210225Y-71350000D03*
D34*
%TO.P,C6,2*%
%TO.N,GND*%
X104210225Y-71350000D03*
%TD*%
D43*
%TO.P,C7,1*%
%TO.N,Net-(C7-Pad1)*%
X99085000Y-80910000D03*
%TO.P,C7,2*%
%TO.N,GND*%
X97535000Y-80910000D03*
%TD*%
D17*
%TO.P,R8,1*%
%TO.N,GND*%
X110110000Y-78655000D03*
%TO.P,R8,2*%
%TO.N,Net-(R7-Pad2)*%
X110110000Y-77005000D03*
%TD*%
D23*
%TO.P,R13,1*%
%TO.N,Net-(R12-Pad2)*%
X99125000Y-76550000D03*
%TO.P,R13,2*%
%TO.N,GND*%
X97475000Y-76550000D03*
%TD*%
D10*
%TO.P,J18,1,Pin_1*%
%TO.N,Net-(J18-Pad1)*%
X151525000Y-144800000D03*
D11*
%TO.P,J18,2,Pin_2*%
%TO.N,GND*%
X154065000Y-144800000D03*
%TD*%
D10*
%TO.P,J21,1,Pin_1*%
%TO.N,Net-(J21-Pad1)*%
X138200000Y-74200000D03*
%TD*%
%TO.P,J15,1,Pin_1*%
%TO.N,MCU_P_RES*%
X92300000Y-128775000D03*
%TD*%
D14*
%TO.P,Q9,1,ANODE_1*%
%TO.N,Net-(Q9-Pad1)*%
X154975000Y-134845000D03*
%TO.P,Q9,2,CATHODE_1*%
%TO.N,Net-(J18-Pad1)*%
X154975000Y-136115000D03*
%TO.P,Q9,3,ANODE_2*%
%TO.N,Net-(Q9-Pad3)*%
X154975000Y-137385000D03*
%TO.P,Q9,4,CATHODE_2*%
%TO.N,Net-(J19-Pad1)*%
X154975000Y-138655000D03*
%TO.P,Q9,5,EMITTER_2*%
%TO.N,MCU_BTN2*%
X159925000Y-138655000D03*
%TO.P,Q9,6,COLLECTOR_2*%
%TO.N,MCU_5V*%
X159925000Y-137385000D03*
%TO.P,Q9,7,EMITTER_1*%
%TO.N,MCU_BTN1*%
X159925000Y-136115000D03*
%TO.P,Q9,8,COLLECTOR_1*%
%TO.N,MCU_5V*%
X159925000Y-134845000D03*
%TD*%
D39*
%TO.P,C20,1*%
%TO.N,+24V*%
X172250000Y-76000000D03*
%TO.P,C20,2*%
%TO.N,GND*%
X179750000Y-76000000D03*
%TD*%
D37*
%TO.P,JP4,1,A*%
%TO.N,ADR1*%
X112500000Y-111275000D03*
D38*
%TO.P,JP4,2,B*%
%TO.N,GND*%
X112500000Y-112725000D03*
%TD*%
D16*
%TO.P,R18,1*%
%TO.N,MCU_5V*%
X118675000Y-120850000D03*
%TO.P,R18,2*%
%TO.N,MCU_SDA*%
X120325000Y-120850000D03*
%TD*%
D33*
%TO.P,C13,1*%
%TO.N,24V Solar*%
X110810000Y-96550001D03*
D34*
%TO.P,C13,2*%
%TO.N,GND*%
X110810000Y-94050001D03*
%TD*%
D23*
%TO.P,R31,1*%
%TO.N,Net-(Q10-Pad4)*%
X131325000Y-136500000D03*
%TO.P,R31,2*%
%TO.N,GND1*%
X129675000Y-136500000D03*
%TD*%
D10*
%TO.P,J2,1,Pin_1*%
%TO.N,+24V*%
X165100000Y-105400000D03*
%TD*%
D16*
%TO.P,R7,1*%
%TO.N,Solar Panel*%
X106665000Y-76870000D03*
%TO.P,R7,2*%
%TO.N,Net-(R7-Pad2)*%
X108315000Y-76870000D03*
%TD*%
D12*
%TO.P,R22,1*%
%TO.N,+24V*%
X157500000Y-130375000D03*
%TO.P,R22,2*%
%TO.N,Net-(Q9-Pad1)*%
X157500000Y-132025000D03*
%TD*%
D10*
%TO.P,J11,1,Pin_1*%
%TO.N,Net-(J11-Pad1)*%
X145700000Y-74200000D03*
%TD*%
%TO.P,J7,1,Pin_1*%
%TO.N,MCU_GRID*%
X133225000Y-144800000D03*
D11*
%TO.P,J7,2,Pin_2*%
%TO.N,MCU_SOLAR*%
X135765000Y-144800000D03*
%TD*%
D46*
%TO.N,GND*%
X131700000Y-118000000D03*
X137400000Y-122600000D03*
X103600000Y-80700000D03*
X104100000Y-81300000D03*
X103100000Y-80100000D03*
X143900000Y-135200000D03*
X106600000Y-114000000D03*
X131500000Y-108100000D03*
X96500000Y-74500000D03*
X135200000Y-115500000D03*
X148300000Y-77600000D03*
X112500000Y-114000000D03*
X104100000Y-80100000D03*
X109700000Y-82000000D03*
X123800000Y-73500000D03*
X163500000Y-79400000D03*
X121200000Y-136300000D03*
X103100000Y-81300000D03*
X96500000Y-80900000D03*
X136900000Y-77400000D03*
X127000000Y-110400000D03*
X139000000Y-122600000D03*
X96600000Y-82700000D03*
X141100000Y-114200000D03*
X163800000Y-92000000D03*
X125400000Y-73500000D03*
X96500000Y-76500000D03*
X127000000Y-122700000D03*
X109200000Y-78700000D03*
%TO.N,MCU_SOLAR*%
X136700000Y-142600000D03*
X136900000Y-136000000D03*
%TO.N,Net-(Q2-Pad1)*%
X156500000Y-97000000D03*
X149600000Y-92500000D03*
%TO.N,24V Solar_2*%
X139300000Y-93350000D03*
X137900000Y-94750000D03*
%TO.N,MCU_SCL*%
X119420000Y-113410000D03*
X117790000Y-113410000D03*
%TO.N,MCU_SDA*%
X130780000Y-120300000D03*
X119350000Y-119170000D03*
X129495023Y-119365023D03*
X117810000Y-119180000D03*
%TO.N,ADR0*%
X113400000Y-109700000D03*
X111600000Y-109700000D03*
%TO.N,MCU_P_RES*%
X114010000Y-124160000D03*
X116343727Y-124153727D03*
%TO.N,+5V*%
X118200000Y-137650500D03*
X136949500Y-134000000D03*
X118400000Y-139149500D03*
X133600000Y-137404500D03*
%TO.N,MCU_BTN1*%
X164300000Y-136900000D03*
X166000000Y-137100000D03*
%TO.N,GND1*%
X125500000Y-131859500D03*
X138488773Y-127711227D03*
X140149500Y-127609253D03*
X112900000Y-133400000D03*
X159500000Y-130200000D03*
X131300000Y-125000000D03*
X111600000Y-134500000D03*
X133500000Y-126800000D03*
X157200000Y-128700000D03*
X125800000Y-130300000D03*
%TO.N,Net-(Q6-Pad5)*%
X135400000Y-123000000D03*
X135000000Y-124784500D03*
X127400000Y-127000000D03*
X131200000Y-126700000D03*
%TO.N,Net-(Q9-Pad3)*%
X153000000Y-137600000D03*
X151600000Y-133500000D03*
%TO.N,MCU_5V*%
X138590000Y-129460000D03*
X129400000Y-131150000D03*
X151920000Y-135540000D03*
X156850000Y-135260000D03*
X127738000Y-131110000D03*
X140200000Y-129400000D03*
%TD*%
D47*
%TO.N,+24V*%
X154000000Y-130375000D02*
X157500000Y-130375000D01*
X165100000Y-122775000D02*
X165100000Y-105400000D01*
X157500000Y-130375000D02*
X165100000Y-122775000D01*
D48*
%TO.N,GND*%
X163600000Y-77000000D02*
X163600000Y-79300000D01*
X110050000Y-80650000D02*
X110050000Y-81650000D01*
D49*
X124588700Y-74288700D02*
X123800000Y-73500000D01*
D48*
X136895000Y-79170000D02*
X136895000Y-77405000D01*
X136895000Y-77405000D02*
X136900000Y-77400000D01*
X102710000Y-81690000D02*
X103100000Y-81300000D01*
X110110000Y-78655000D02*
X109245000Y-78655000D01*
X109245000Y-78655000D02*
X109200000Y-78700000D01*
D49*
X124588700Y-74311300D02*
X125400000Y-73500000D01*
D50*
X143925000Y-133900000D02*
X143925000Y-135175000D01*
X143925000Y-135175000D02*
X143900000Y-135200000D01*
D47*
X138200000Y-121800000D02*
X137400000Y-122600000D01*
D49*
X124588700Y-76409700D02*
X124588700Y-74288700D01*
X124588700Y-76409700D02*
X124588700Y-74311300D01*
D50*
X143925000Y-135225000D02*
X143900000Y-135200000D01*
D48*
X110050000Y-81650000D02*
X109700000Y-82000000D01*
X163525000Y-82000000D02*
X163525000Y-79425000D01*
X131755000Y-118055000D02*
X131700000Y-118000000D01*
X141000000Y-114300000D02*
X141100000Y-114200000D01*
X148325000Y-79170000D02*
X148325000Y-77625000D01*
X163525000Y-77000000D02*
X163600000Y-77000000D01*
X128425000Y-122765000D02*
X127065000Y-122765000D01*
X163900000Y-91125000D02*
X163900000Y-91900000D01*
X135185000Y-115515000D02*
X135200000Y-115500000D01*
X163525000Y-79425000D02*
X163500000Y-79400000D01*
X133375000Y-118055000D02*
X131755000Y-118055000D01*
D51*
X96620000Y-82720000D02*
X96600000Y-82700000D01*
D48*
X96500000Y-76500000D02*
X96550000Y-76550000D01*
X106600000Y-112725000D02*
X106600000Y-114000000D01*
X140125000Y-114300000D02*
X141000000Y-114300000D01*
X128500000Y-109900000D02*
X127500000Y-109900000D01*
X97475000Y-74500000D02*
X97525000Y-74550000D01*
X163600000Y-79300000D02*
X163500000Y-79400000D01*
D50*
X143925000Y-136600000D02*
X143925000Y-135225000D01*
D51*
X96510000Y-80910000D02*
X96500000Y-80900000D01*
D48*
X163900000Y-91900000D02*
X163800000Y-92000000D01*
D51*
X97485000Y-82720000D02*
X96620000Y-82720000D01*
D48*
X131800000Y-108400000D02*
X131500000Y-108100000D01*
X127500000Y-109900000D02*
X127000000Y-110400000D01*
X133375000Y-115515000D02*
X135185000Y-115515000D01*
X132900000Y-108400000D02*
X131800000Y-108400000D01*
D49*
X123800000Y-73500000D02*
X125400000Y-73500000D01*
D48*
X96550000Y-76550000D02*
X97475000Y-76550000D01*
D47*
X138200000Y-121800000D02*
X139000000Y-122600000D01*
D48*
X101500000Y-81690000D02*
X102710000Y-81690000D01*
X148325000Y-77625000D02*
X148300000Y-77600000D01*
D51*
X97535000Y-80910000D02*
X96510000Y-80910000D01*
D48*
X127065000Y-122765000D02*
X127000000Y-122700000D01*
D47*
X137400000Y-122600000D02*
X139000000Y-122600000D01*
X138200000Y-121380000D02*
X138200000Y-121800000D01*
D48*
X96500000Y-74500000D02*
X97475000Y-74500000D01*
X112500000Y-112725000D02*
X112500000Y-114000000D01*
X122350000Y-136300000D02*
X121200000Y-136300000D01*
%TO.N,Net-(D1-Pad1)*%
X163925000Y-89450000D02*
X163900000Y-89475000D01*
X163925000Y-87400000D02*
X163925000Y-89450000D01*
%TO.N,Net-(C7-Pad1)*%
X99305000Y-80690000D02*
X99085000Y-80910000D01*
X101500000Y-80690000D02*
X99305000Y-80690000D01*
%TO.N,Net-(C8-Pad1)*%
X101400000Y-75525000D02*
X101395000Y-75525000D01*
X100420000Y-74550000D02*
X99075000Y-74550000D01*
X101395000Y-75525000D02*
X100420000Y-74550000D01*
%TO.N,Net-(C9-Pad1)*%
X105800000Y-80690000D02*
X108110000Y-80690000D01*
X108110000Y-80690000D02*
X108150000Y-80650000D01*
%TO.N,24V Solar*%
X128500000Y-108400000D02*
X128500000Y-107900000D01*
D51*
%TO.N,24V Grid*%
X147055000Y-86085000D02*
X146290000Y-85320000D01*
X158400000Y-88550000D02*
X158400000Y-91100000D01*
X136895000Y-86995000D02*
X138570000Y-85320000D01*
X144515000Y-86805000D02*
X144515000Y-88470000D01*
X147055000Y-88470000D02*
X147055000Y-86085000D01*
X156870000Y-87020000D02*
X158400000Y-88550000D01*
X136895000Y-88470000D02*
X136895000Y-86995000D01*
X138570000Y-85320000D02*
X143030000Y-85320000D01*
X147055000Y-88470000D02*
X148325000Y-88470000D01*
X146290000Y-85320000D02*
X143030000Y-85320000D01*
X149775000Y-87020000D02*
X156870000Y-87020000D01*
X148325000Y-88470000D02*
X149775000Y-87020000D01*
X143030000Y-85320000D02*
X144515000Y-86805000D01*
D48*
%TO.N,MCU_GRID*%
X134736427Y-135235000D02*
X138475000Y-138973573D01*
X138475000Y-141300000D02*
X136725000Y-141300000D01*
X134325000Y-135235000D02*
X134736427Y-135235000D01*
X138475000Y-138973573D02*
X138475000Y-141300000D01*
X136725000Y-141300000D02*
X133225000Y-144800000D01*
%TO.N,Solar Panel*%
X106355113Y-71205112D02*
X106210225Y-71350000D01*
X106665000Y-76870000D02*
X106210225Y-76415225D01*
X106210225Y-76415225D02*
X106210225Y-71350000D01*
X106665000Y-78825000D02*
X106665000Y-76870000D01*
X105800000Y-79690000D02*
X106665000Y-78825000D01*
%TO.N,Net-(Q5-Pad4)*%
X107200000Y-81764639D02*
X107200000Y-82300000D01*
X111600000Y-83100000D02*
X112900000Y-84400000D01*
X107200000Y-82300000D02*
X108000000Y-83100000D01*
X111995000Y-88405000D02*
X111225000Y-88405000D01*
X106625361Y-81190000D02*
X107200000Y-81764639D01*
X108000000Y-83100000D02*
X111600000Y-83100000D01*
X105800000Y-81190000D02*
X106625361Y-81190000D01*
X112900000Y-84400000D02*
X112900000Y-87500000D01*
X112900000Y-87500000D02*
X111995000Y-88405000D01*
D51*
%TO.N,Net-(Q1-Pad1)*%
X145785000Y-89435000D02*
X145785000Y-88470000D01*
X152100000Y-88820000D02*
X150870000Y-90050000D01*
X146400000Y-90050000D02*
X145785000Y-89435000D01*
X150870000Y-90050000D02*
X146400000Y-90050000D01*
D48*
%TO.N,Net-(R7-Pad2)*%
X108450000Y-77005000D02*
X108315000Y-76870000D01*
X108315000Y-78735000D02*
X108315000Y-76870000D01*
X110110000Y-77005000D02*
X108450000Y-77005000D01*
X106860000Y-80190000D02*
X108315000Y-78735000D01*
X105800000Y-80190000D02*
X106860000Y-80190000D01*
%TO.N,Net-(R9-Pad1)*%
X101500000Y-81190000D02*
X100665000Y-81190000D01*
X100665000Y-81190000D02*
X99135000Y-82720000D01*
%TO.N,Net-(R10-Pad1)*%
X101500000Y-77275000D02*
X101400000Y-77175000D01*
X101500000Y-79690000D02*
X101500000Y-77275000D01*
%TO.N,Net-(R12-Pad2)*%
X101500000Y-80190000D02*
X100240000Y-80190000D01*
X98800000Y-78750000D02*
X97562500Y-78750000D01*
X100240000Y-80190000D02*
X98800000Y-78750000D01*
X99125000Y-77187500D02*
X97562500Y-78750000D01*
X99125000Y-76550000D02*
X99125000Y-77187500D01*
%TO.N,MCU_SOLAR*%
X136900000Y-136000000D02*
X136200000Y-135300000D01*
X136200000Y-135300000D02*
X136200000Y-133500000D01*
X135765000Y-143535000D02*
X136700000Y-142600000D01*
X135765000Y-144800000D02*
X135765000Y-143535000D01*
X138475000Y-147510000D02*
X138475000Y-148200000D01*
X135765000Y-144800000D02*
X138475000Y-147510000D01*
X136200000Y-133500000D02*
X135395000Y-132695000D01*
X135395000Y-132695000D02*
X134325000Y-132695000D01*
%TO.N,Net-(Q2-Pad1)*%
X148500000Y-91500000D02*
X149500000Y-92500000D01*
X145813573Y-91500000D02*
X148500000Y-91500000D01*
X156500000Y-97000000D02*
X158530000Y-97000000D01*
X143245000Y-88931427D02*
X145813573Y-91500000D01*
X158530000Y-97000000D02*
X159080000Y-97550000D01*
X149500000Y-92500000D02*
X149600000Y-92500000D01*
X143245000Y-88470000D02*
X143245000Y-88931427D01*
%TO.N,Net-(Q3-Pad1)*%
X140705000Y-89905000D02*
X140705000Y-88470000D01*
X150580000Y-97550000D02*
X150580000Y-95780000D01*
X147400000Y-92600000D02*
X143400000Y-92600000D01*
X150580000Y-95780000D02*
X147400000Y-92600000D01*
X143400000Y-92600000D02*
X140705000Y-89905000D01*
D51*
%TO.N,Net-(Q4-Pad1)*%
X140180000Y-101930000D02*
X141800000Y-101930000D01*
X138165000Y-88470000D02*
X138165000Y-93515000D01*
X138165000Y-93515000D02*
X139700000Y-95050000D01*
X139700000Y-95050000D02*
X139700000Y-101450000D01*
X139700000Y-101450000D02*
X140180000Y-101930000D01*
%TO.N,24V Solar_2*%
X137900000Y-94750000D02*
X135500000Y-97150000D01*
X139435000Y-88470000D02*
X139435000Y-93215000D01*
X135500000Y-97150000D02*
X135500000Y-99650000D01*
X141510000Y-86820000D02*
X140350000Y-86820000D01*
X141975000Y-88470000D02*
X141975000Y-87285000D01*
X139435000Y-87735000D02*
X139435000Y-88470000D01*
X141975000Y-87285000D02*
X141510000Y-86820000D01*
D48*
X132900000Y-106315000D02*
X132900000Y-107900000D01*
D51*
X139435000Y-93215000D02*
X139300000Y-93350000D01*
D48*
X131585000Y-105000000D02*
X132900000Y-106315000D01*
D51*
X140350000Y-86820000D02*
X139435000Y-87735000D01*
D48*
%TO.N,MCU_SCL*%
X120877500Y-115515000D02*
X120412500Y-115050000D01*
X119900000Y-113410000D02*
X120412500Y-113922500D01*
X92300000Y-121500000D02*
X109160000Y-121500000D01*
X109160000Y-121500000D02*
X117250000Y-113410000D01*
X117250000Y-113410000D02*
X117790000Y-113410000D01*
X128425000Y-115515000D02*
X120877500Y-115515000D01*
X120412500Y-113922500D02*
X120412500Y-115050000D01*
X119420000Y-113410000D02*
X119900000Y-113410000D01*
%TO.N,MCU_SDA*%
X113310000Y-119180000D02*
X117810000Y-119180000D01*
X120412500Y-120850000D02*
X125630000Y-120850000D01*
X128425000Y-118295000D02*
X129495023Y-119365023D01*
X130780000Y-120300000D02*
X131975000Y-121495000D01*
X120412500Y-120232500D02*
X120412500Y-120850000D01*
X92300000Y-124040000D02*
X108450000Y-124040000D01*
X108450000Y-124040000D02*
X113310000Y-119180000D01*
X128425000Y-118055000D02*
X128425000Y-118295000D01*
X119350000Y-119170000D02*
X120412500Y-120232500D01*
X131975000Y-121495000D02*
X133375000Y-121495000D01*
X125630000Y-120850000D02*
X128425000Y-118055000D01*
%TO.N,ADR1*%
X112500000Y-107725000D02*
X113675000Y-108900000D01*
X112500000Y-107725000D02*
X112500000Y-111275000D01*
X113675000Y-108900000D02*
X128500000Y-108900000D01*
%TO.N,ADR0*%
X113700000Y-109400000D02*
X128500000Y-109400000D01*
X108575000Y-109700000D02*
X111600000Y-109700000D01*
X106600000Y-107725000D02*
X106600000Y-111275000D01*
X106600000Y-107725000D02*
X108575000Y-109700000D01*
X113400000Y-109700000D02*
X113700000Y-109400000D01*
%TO.N,SCL*%
X133375000Y-114245000D02*
X133480000Y-114245000D01*
X132900000Y-109900000D02*
X134125000Y-109900000D01*
X133480000Y-114245000D02*
X135975000Y-111750000D01*
X134125000Y-109900000D02*
X135975000Y-111750000D01*
%TO.N,Net-(Q7-Pad1)*%
X120412500Y-111750000D02*
X125930000Y-111750000D01*
X125930000Y-111750000D02*
X128425000Y-114245000D01*
%TO.N,Net-(Q7-Pad3)*%
X125555000Y-116785000D02*
X128425000Y-116785000D01*
X124790000Y-117550000D02*
X125555000Y-116785000D01*
X120412500Y-117550000D02*
X124790000Y-117550000D01*
%TO.N,MCU_P_RES*%
X128425000Y-124035000D02*
X126840000Y-124035000D01*
X128306273Y-124153727D02*
X116343727Y-124153727D01*
X112640000Y-124160000D02*
X114010000Y-124160000D01*
X92300000Y-128775000D02*
X108025000Y-128775000D01*
X128425000Y-124035000D02*
X128306273Y-124153727D01*
X108025000Y-128775000D02*
X112640000Y-124160000D01*
X126840000Y-124035000D02*
X124500000Y-126375000D01*
%TO.N,SDAI*%
X132963573Y-116785000D02*
X133375000Y-116785000D01*
X132900000Y-109400000D02*
X135625000Y-109400000D01*
X131500000Y-115321427D02*
X132963573Y-116785000D01*
X132900000Y-109400000D02*
X131850978Y-109400000D01*
X131500000Y-109750978D02*
X131500000Y-115321427D01*
X135625000Y-109400000D02*
X135975000Y-109750000D01*
X131850978Y-109400000D02*
X131500000Y-109750978D01*
%TO.N,N_SDAO*%
X130500000Y-109500000D02*
X130500000Y-119420000D01*
X132900000Y-108900000D02*
X134675000Y-108900000D01*
X132900000Y-108900000D02*
X131100000Y-108900000D01*
X131100000Y-108900000D02*
X130500000Y-109500000D01*
X130500000Y-119420000D02*
X128425000Y-121495000D01*
X134675000Y-108900000D02*
X135975000Y-107600000D01*
%TO.N,+5V*%
X137400000Y-125562500D02*
X139400000Y-127562500D01*
X127700000Y-139500000D02*
X130700000Y-139500000D01*
X138315000Y-132695000D02*
X139275000Y-132695000D01*
X138325000Y-135235000D02*
X137540000Y-134450000D01*
X139400000Y-127562500D02*
X139400000Y-132570000D01*
X139400000Y-132570000D02*
X139275000Y-132695000D01*
X118400000Y-139149500D02*
X118449500Y-139149500D01*
X122400000Y-143100000D02*
X122400000Y-144800000D01*
X136949500Y-134000000D02*
X137010000Y-134000000D01*
X137010000Y-134000000D02*
X137540000Y-133470000D01*
X135872500Y-124035000D02*
X137400000Y-125562500D01*
X131504500Y-139500000D02*
X133600000Y-137404500D01*
X133375000Y-124035000D02*
X135872500Y-124035000D01*
X118200000Y-137650500D02*
X116849500Y-136300000D01*
X139275000Y-135235000D02*
X138325000Y-135235000D01*
X137540000Y-133470000D02*
X138315000Y-132695000D01*
X130700000Y-139500000D02*
X131504500Y-139500000D01*
X137540000Y-134450000D02*
X137540000Y-133470000D01*
X122400000Y-144800000D02*
X127700000Y-139500000D01*
X116849500Y-136300000D02*
X116025000Y-136300000D01*
X118449500Y-139149500D02*
X122400000Y-143100000D01*
%TO.N,MCU_BTN1*%
X166000000Y-137100000D02*
X173700000Y-144800000D01*
X163625000Y-136225000D02*
X164300000Y-136900000D01*
X163625000Y-135450000D02*
X163625000Y-136225000D01*
X159925000Y-136115000D02*
X162960000Y-136115000D01*
X173700000Y-144800000D02*
X173800000Y-144800000D01*
X162960000Y-136115000D02*
X163625000Y-135450000D01*
%TO.N,MCU_BTN2*%
X169000000Y-144800000D02*
X163537500Y-139337500D01*
X159925000Y-138655000D02*
X163242500Y-138655000D01*
X163537500Y-139337500D02*
X163537500Y-138950000D01*
X163242500Y-138655000D02*
X163537500Y-138950000D01*
%TO.N,Net-(J18-Pad1)*%
X153285000Y-136115000D02*
X151525000Y-137875000D01*
X151525000Y-137875000D02*
X151525000Y-144800000D01*
X154975000Y-136115000D02*
X153285000Y-136115000D01*
%TO.N,Net-(J19-Pad1)*%
X154975000Y-138655000D02*
X158925000Y-142605000D01*
X158925000Y-142605000D02*
X158925000Y-144800000D01*
D50*
%TO.N,GND1*%
X125800000Y-130300000D02*
X126300000Y-130300000D01*
X126800000Y-129800000D02*
X129300000Y-129800000D01*
X123959500Y-133400000D02*
X129175000Y-133400000D01*
X133500000Y-126800000D02*
X132600000Y-127700000D01*
D48*
X140149500Y-127609253D02*
X140158753Y-127600000D01*
D50*
X123800000Y-135100000D02*
X122100000Y-133400000D01*
D48*
X140158753Y-127600000D02*
X156100000Y-127600000D01*
X165187500Y-135537500D02*
X165187500Y-138950000D01*
X156100000Y-127600000D02*
X157200000Y-128700000D01*
D50*
X112900000Y-133400000D02*
X122100000Y-133400000D01*
D48*
X131125000Y-127700000D02*
X130225000Y-128600000D01*
X138488773Y-127711227D02*
X138477546Y-127700000D01*
X160025000Y-130200000D02*
X159500000Y-130200000D01*
D50*
X123800000Y-136300000D02*
X123800000Y-135100000D01*
D48*
X132600000Y-127700000D02*
X131125000Y-127700000D01*
D50*
X123959500Y-133400000D02*
X125500000Y-131859500D01*
X129300000Y-129800000D02*
X130225000Y-128875000D01*
X92300000Y-137275000D02*
X108825000Y-137275000D01*
X133375000Y-122765000D02*
X132998928Y-122765000D01*
D48*
X165275000Y-135450000D02*
X165187500Y-135537500D01*
D50*
X132998928Y-122765000D02*
X131300000Y-124463928D01*
X129175000Y-133400000D02*
X129675000Y-133900000D01*
X122100000Y-133400000D02*
X123959500Y-133400000D01*
X108825000Y-137275000D02*
X111600000Y-134500000D01*
X131300000Y-124463928D02*
X131300000Y-125000000D01*
X130225000Y-128875000D02*
X130225000Y-128600000D01*
D48*
X165275000Y-135450000D02*
X160025000Y-130200000D01*
D50*
X126300000Y-130300000D02*
X126800000Y-129800000D01*
D48*
X138477546Y-127700000D02*
X132600000Y-127700000D01*
D50*
X129675000Y-133900000D02*
X129675000Y-136500000D01*
D48*
%TO.N,Net-(Q6-Pad4)*%
X128487500Y-128600000D02*
X128487500Y-125367500D01*
X128487500Y-125367500D02*
X128425000Y-125305000D01*
%TO.N,Net-(Q6-Pad5)*%
X126575000Y-127825000D02*
X127400000Y-127000000D01*
X131200000Y-126700000D02*
X131980000Y-126700000D01*
X135400000Y-123000000D02*
X135400000Y-119620000D01*
X133375000Y-125305000D02*
X134479500Y-125305000D01*
X134479500Y-125305000D02*
X135000000Y-124784500D01*
X124500000Y-127825000D02*
X126575000Y-127825000D01*
X135400000Y-119620000D02*
X138200000Y-116820000D01*
X131980000Y-126700000D02*
X133375000Y-125305000D01*
%TO.N,Net-(Q9-Pad1)*%
X154975000Y-134845000D02*
X157500000Y-132320000D01*
X157500000Y-132320000D02*
X157500000Y-132025000D01*
%TO.N,Net-(Q9-Pad3)*%
X153075000Y-132025000D02*
X154000000Y-132025000D01*
X153215000Y-137385000D02*
X153000000Y-137600000D01*
X154975000Y-137385000D02*
X153215000Y-137385000D01*
X151600000Y-133500000D02*
X153075000Y-132025000D01*
D50*
%TO.N,Net-(Q10-Pad2)*%
X131325000Y-133900000D02*
X134260000Y-133900000D01*
X134260000Y-133900000D02*
X134325000Y-133965000D01*
%TO.N,Net-(Q10-Pad4)*%
X134325000Y-136505000D02*
X131330000Y-136505000D01*
X131330000Y-136505000D02*
X131325000Y-136500000D01*
D48*
%TO.N,GRID_CTRL*%
X139925000Y-141300000D02*
X142135000Y-143510000D01*
X139275000Y-136505000D02*
X139925000Y-137155000D01*
D50*
X142180000Y-136505000D02*
X142275000Y-136600000D01*
X139275000Y-136505000D02*
X142180000Y-136505000D01*
D48*
X142135000Y-143510000D02*
X142135000Y-144800000D01*
X139925000Y-137155000D02*
X139925000Y-141300000D01*
D50*
%TO.N,SOLAR_CTRL*%
X142210000Y-133965000D02*
X142275000Y-133900000D01*
X143100000Y-143225000D02*
X144675000Y-144800000D01*
X142275000Y-133900000D02*
X143100000Y-134725000D01*
D48*
X141275000Y-148200000D02*
X144675000Y-144800000D01*
D50*
X139275000Y-133965000D02*
X142210000Y-133965000D01*
D48*
X139925000Y-148200000D02*
X141275000Y-148200000D01*
D50*
X143100000Y-134725000D02*
X143100000Y-143225000D01*
D48*
%TO.N,Net-(J11-Pad1)*%
X145700000Y-79085000D02*
X145785000Y-79170000D01*
X145700000Y-74200000D02*
X143245000Y-76655000D01*
X143245000Y-76655000D02*
X143245000Y-79170000D01*
X145700000Y-74200000D02*
X145700000Y-79085000D01*
%TO.N,Net-(J21-Pad1)*%
X140705000Y-76705000D02*
X138200000Y-74200000D01*
X140705000Y-79170000D02*
X140705000Y-76705000D01*
X138200000Y-79135000D02*
X138165000Y-79170000D01*
X138200000Y-74200000D02*
X138200000Y-79135000D01*
%TO.N,Net-(Q5-Pad1)*%
X105800000Y-81690000D02*
X105800000Y-82350000D01*
D47*
X107200000Y-85037500D02*
X110782500Y-85037500D01*
D48*
X107200000Y-83750000D02*
X107200000Y-85037500D01*
D47*
X111225000Y-87135000D02*
X111225000Y-84595000D01*
D48*
X105800000Y-82350000D02*
X107200000Y-83750000D01*
D47*
X110782500Y-85037500D02*
X111225000Y-84595000D01*
D48*
%TO.N,MCU_5V*%
X157265000Y-134845000D02*
X156850000Y-135260000D01*
X106162500Y-133275000D02*
X108327500Y-131110000D01*
X92300000Y-133275000D02*
X111550000Y-133275000D01*
X140200000Y-129400000D02*
X141980000Y-131180000D01*
X147820000Y-131180000D02*
X151920000Y-135280000D01*
X129400000Y-131150000D02*
X133890000Y-131150000D01*
X118587500Y-120850000D02*
X118587500Y-117550000D01*
X133890000Y-131150000D02*
X135470000Y-129570000D01*
X118587500Y-115050000D02*
X118587500Y-111750000D01*
X111550000Y-133275000D02*
X114575000Y-136300000D01*
X159925000Y-134845000D02*
X157265000Y-134845000D01*
X158975000Y-137385000D02*
X156850000Y-135260000D01*
X135470000Y-129570000D02*
X135580000Y-129460000D01*
X135580000Y-129460000D02*
X138590000Y-129460000D01*
X118587500Y-117550000D02*
X118587500Y-115050000D01*
X151920000Y-135280000D02*
X151920000Y-135540000D01*
X141980000Y-131180000D02*
X147820000Y-131180000D01*
X108327500Y-131110000D02*
X127738000Y-131110000D01*
X118587500Y-120850000D02*
X106162500Y-133275000D01*
X159925000Y-137385000D02*
X158975000Y-137385000D01*
%TD*%
%TA.AperFunction,Conductor*%
%TO.N,GND*%
G36*
X139542121Y-120420002D02*
G01*
X139588614Y-120473658D01*
X139600000Y-120526000D01*
X139600000Y-123274000D01*
X139579998Y-123342121D01*
X139526342Y-123388614D01*
X139474000Y-123400000D01*
X136926000Y-123400000D01*
X136857879Y-123379998D01*
X136811386Y-123326342D01*
X136800000Y-123274000D01*
X136800000Y-120526000D01*
X136820002Y-120457879D01*
X136873658Y-120411386D01*
X136926000Y-120400000D01*
X139474000Y-120400000D01*
X139542121Y-120420002D01*
G37*
%TD.AperFunction*%
%TD*%
%TA.AperFunction,Conductor*%
%TO.N,24V Grid*%
G36*
X161642121Y-59570002D02*
G01*
X161688614Y-59623658D01*
X161700000Y-59676000D01*
X161700000Y-87566000D01*
X161679998Y-87634121D01*
X161626342Y-87680614D01*
X161574000Y-87692000D01*
X159418115Y-87692000D01*
X159402876Y-87696475D01*
X159401671Y-87697865D01*
X159400000Y-87705548D01*
X159400000Y-91974000D01*
X159379998Y-92042121D01*
X159326342Y-92088614D01*
X159274000Y-92100000D01*
X157526000Y-92100000D01*
X157457879Y-92079998D01*
X157411386Y-92026342D01*
X157400000Y-91974000D01*
X157400000Y-87710116D01*
X157395525Y-87694877D01*
X157394135Y-87693672D01*
X157386452Y-87692001D01*
X155155331Y-87692001D01*
X155148517Y-87692370D01*
X155139608Y-87693338D01*
X155069726Y-87680810D01*
X155017710Y-87632490D01*
X155000000Y-87568075D01*
X155000000Y-65387121D01*
X157432710Y-65387121D01*
X157436465Y-65392137D01*
X157497845Y-65420824D01*
X157504910Y-65423622D01*
X157807970Y-65522970D01*
X157815282Y-65524888D01*
X158128092Y-65587109D01*
X158135590Y-65588137D01*
X158453610Y-65612328D01*
X158461173Y-65612446D01*
X158779785Y-65598257D01*
X158787326Y-65597465D01*
X159101924Y-65545101D01*
X159109302Y-65543411D01*
X159415355Y-65453625D01*
X159422450Y-65451071D01*
X159555781Y-65393787D01*
X159566643Y-65384797D01*
X159565191Y-65379404D01*
X158512812Y-64327026D01*
X158498868Y-64319412D01*
X158497034Y-64319543D01*
X158490422Y-64323792D01*
X157439469Y-65374744D01*
X157432710Y-65387121D01*
X155000000Y-65387121D01*
X155000000Y-62875383D01*
X155787388Y-62875383D01*
X155803245Y-63193914D01*
X155804076Y-63201443D01*
X155858085Y-63515759D01*
X155859818Y-63523146D01*
X155951196Y-63828695D01*
X155953799Y-63835809D01*
X156006111Y-63955832D01*
X156015159Y-63966647D01*
X156020648Y-63965139D01*
X157072974Y-62912812D01*
X157079352Y-62901132D01*
X159919412Y-62901132D01*
X159919543Y-62902966D01*
X159923792Y-62909578D01*
X160975089Y-63960876D01*
X160987466Y-63967635D01*
X160992580Y-63963807D01*
X161015548Y-63915327D01*
X161018373Y-63908300D01*
X161119306Y-63605767D01*
X161121270Y-63598433D01*
X161185122Y-63285989D01*
X161186194Y-63278465D01*
X161212173Y-62959051D01*
X161212378Y-62954576D01*
X161212927Y-62902221D01*
X161212817Y-62897789D01*
X161193529Y-62577853D01*
X161192621Y-62570351D01*
X161135319Y-62256593D01*
X161133518Y-62249260D01*
X161038935Y-61944655D01*
X161036263Y-61937582D01*
X160994258Y-61843898D01*
X160985096Y-61833176D01*
X160979410Y-61834803D01*
X159927026Y-62887188D01*
X159919412Y-62901132D01*
X157079352Y-62901132D01*
X157080588Y-62898868D01*
X157080457Y-62897034D01*
X157076208Y-62890422D01*
X156025547Y-61839760D01*
X156013170Y-61833001D01*
X156008249Y-61836685D01*
X155973956Y-61911074D01*
X155971206Y-61918125D01*
X155873444Y-62221708D01*
X155871561Y-62229041D01*
X155810979Y-62542170D01*
X155809992Y-62549670D01*
X155787467Y-62867802D01*
X155787388Y-62875383D01*
X155000000Y-62875383D01*
X155000000Y-60415060D01*
X157433293Y-60415060D01*
X157434860Y-60420647D01*
X158487188Y-61472974D01*
X158501132Y-61480588D01*
X158502966Y-61480457D01*
X158509578Y-61476208D01*
X159560003Y-60425784D01*
X159566762Y-60413407D01*
X159563148Y-60408579D01*
X159475686Y-60368812D01*
X159468620Y-60366100D01*
X159164537Y-60269932D01*
X159157186Y-60268085D01*
X158843746Y-60209142D01*
X158836237Y-60208194D01*
X158517989Y-60187335D01*
X158510424Y-60187295D01*
X158191964Y-60204821D01*
X158184450Y-60205690D01*
X157870405Y-60261348D01*
X157863044Y-60263115D01*
X157557980Y-60356092D01*
X157550860Y-60358740D01*
X157444063Y-60405955D01*
X157433293Y-60415060D01*
X155000000Y-60415060D01*
X155000000Y-59676000D01*
X155020002Y-59607879D01*
X155073658Y-59561386D01*
X155126000Y-59550000D01*
X161574000Y-59550000D01*
X161642121Y-59570002D01*
G37*
%TD.AperFunction*%
%TD*%
%TA.AperFunction,Conductor*%
%TO.N,Net-(C10-Pad2)*%
G36*
X112599676Y-73747275D02*
G01*
X112760477Y-73747443D01*
X112828576Y-73767516D01*
X112875012Y-73821221D01*
X112885043Y-73891505D01*
X112879937Y-73913110D01*
X112854863Y-73988707D01*
X112851995Y-74002086D01*
X112842328Y-74096438D01*
X112842000Y-74102855D01*
X112842000Y-74731885D01*
X112846475Y-74747124D01*
X112847865Y-74748329D01*
X112855548Y-74750000D01*
X114299000Y-74750000D01*
X114367121Y-74770002D01*
X114413614Y-74823658D01*
X114425000Y-74876000D01*
X114425000Y-77072599D01*
X114428973Y-77086130D01*
X114435799Y-77087111D01*
X114566784Y-77043412D01*
X114579962Y-77037239D01*
X114717807Y-76951937D01*
X114729208Y-76942901D01*
X114843739Y-76828171D01*
X114852751Y-76816760D01*
X114937816Y-76678757D01*
X114943964Y-76665574D01*
X114954407Y-76634089D01*
X114994838Y-76575729D01*
X115060402Y-76548492D01*
X115130283Y-76561025D01*
X115182295Y-76609350D01*
X115200000Y-76673756D01*
X115200000Y-78526529D01*
X115179998Y-78594650D01*
X115126342Y-78641143D01*
X115056068Y-78651247D01*
X114991488Y-78621753D01*
X114956714Y-78569752D01*
X114956517Y-78569844D01*
X114955911Y-78568551D01*
X114954477Y-78566406D01*
X114953414Y-78563221D01*
X114947239Y-78550038D01*
X114861937Y-78412193D01*
X114852901Y-78400792D01*
X114738171Y-78286261D01*
X114726760Y-78277249D01*
X114588755Y-78192182D01*
X114575577Y-78186038D01*
X114452194Y-78145113D01*
X114438101Y-78144624D01*
X114435000Y-78150836D01*
X114435000Y-81802599D01*
X114438973Y-81816130D01*
X114445799Y-81817111D01*
X114576784Y-81773412D01*
X114589962Y-81767239D01*
X114727807Y-81681937D01*
X114739208Y-81672901D01*
X114853739Y-81558171D01*
X114862751Y-81546760D01*
X114947816Y-81408757D01*
X114953964Y-81395574D01*
X114954407Y-81394238D01*
X114954957Y-81393444D01*
X114957056Y-81388943D01*
X114957826Y-81389302D01*
X114994838Y-81335878D01*
X115060402Y-81308641D01*
X115130283Y-81321174D01*
X115182295Y-81369499D01*
X115200000Y-81433905D01*
X115200000Y-82000000D01*
X116450902Y-83719990D01*
X116474791Y-83786845D01*
X116475000Y-83794098D01*
X116475000Y-84276885D01*
X116479475Y-84292124D01*
X116480865Y-84293329D01*
X116488548Y-84295000D01*
X117623513Y-84295000D01*
X117638752Y-84290525D01*
X117646898Y-84281124D01*
X117664088Y-84243485D01*
X117723815Y-84205103D01*
X117759311Y-84200000D01*
X122716172Y-84200000D01*
X122784293Y-84220002D01*
X122830786Y-84273658D01*
X122840890Y-84343932D01*
X122834154Y-84370230D01*
X122820222Y-84407394D01*
X122816595Y-84422649D01*
X122811069Y-84473514D01*
X122810700Y-84480328D01*
X122810700Y-85772185D01*
X122815175Y-85787424D01*
X122816565Y-85788629D01*
X122824248Y-85790300D01*
X124962700Y-85790300D01*
X125030821Y-85810302D01*
X125077314Y-85863958D01*
X125088700Y-85916300D01*
X125088700Y-86664300D01*
X125068698Y-86732421D01*
X125015042Y-86778914D01*
X124962700Y-86790300D01*
X122828816Y-86790300D01*
X122813577Y-86794775D01*
X122812372Y-86796165D01*
X122810701Y-86803848D01*
X122810701Y-88100269D01*
X122811071Y-88107090D01*
X122816595Y-88157952D01*
X122820221Y-88173204D01*
X122865376Y-88293654D01*
X122873914Y-88309249D01*
X122950415Y-88411324D01*
X122969326Y-88430235D01*
X122968171Y-88431390D01*
X123004543Y-88480035D01*
X123009567Y-88550853D01*
X122975507Y-88613146D01*
X122913175Y-88647136D01*
X122886462Y-88650000D01*
X114026000Y-88650000D01*
X113957879Y-88629998D01*
X113911386Y-88576342D01*
X113900000Y-88524000D01*
X113900000Y-87446871D01*
X114711821Y-87446871D01*
X114739106Y-87540787D01*
X114745353Y-87555223D01*
X114821912Y-87684678D01*
X114828189Y-87692770D01*
X114854139Y-87758854D01*
X114840241Y-87828477D01*
X114828189Y-87847230D01*
X114821912Y-87855322D01*
X114745353Y-87984777D01*
X114739106Y-87999213D01*
X114713426Y-88087605D01*
X114713466Y-88101705D01*
X114720736Y-88105000D01*
X115856885Y-88105000D01*
X115872124Y-88100525D01*
X115873329Y-88099135D01*
X115875000Y-88091452D01*
X115875000Y-88086885D01*
X116475000Y-88086885D01*
X116479475Y-88102124D01*
X116480865Y-88103329D01*
X116488548Y-88105000D01*
X117623513Y-88105000D01*
X117637044Y-88101027D01*
X117638179Y-88093129D01*
X117610894Y-87999213D01*
X117604647Y-87984777D01*
X117528088Y-87855322D01*
X117521811Y-87847230D01*
X117495861Y-87781146D01*
X117509759Y-87711523D01*
X117521811Y-87692770D01*
X117528088Y-87684678D01*
X117604647Y-87555223D01*
X117610894Y-87540787D01*
X117636574Y-87452395D01*
X117636534Y-87438295D01*
X117629264Y-87435000D01*
X116493115Y-87435000D01*
X116477876Y-87439475D01*
X116476671Y-87440865D01*
X116475000Y-87448548D01*
X116475000Y-88086885D01*
X115875000Y-88086885D01*
X115875000Y-87453115D01*
X115870525Y-87437876D01*
X115869135Y-87436671D01*
X115861452Y-87435000D01*
X114726487Y-87435000D01*
X114712956Y-87438973D01*
X114711821Y-87446871D01*
X113900000Y-87446871D01*
X113900000Y-86176871D01*
X114711821Y-86176871D01*
X114739106Y-86270787D01*
X114745353Y-86285223D01*
X114821912Y-86414678D01*
X114828189Y-86422770D01*
X114854139Y-86488854D01*
X114840241Y-86558477D01*
X114828189Y-86577230D01*
X114821912Y-86585322D01*
X114745353Y-86714777D01*
X114739106Y-86729213D01*
X114713426Y-86817605D01*
X114713466Y-86831705D01*
X114720736Y-86835000D01*
X115856885Y-86835000D01*
X115872124Y-86830525D01*
X115873329Y-86829135D01*
X115875000Y-86821452D01*
X115875000Y-86816885D01*
X116475000Y-86816885D01*
X116479475Y-86832124D01*
X116480865Y-86833329D01*
X116488548Y-86835000D01*
X117623513Y-86835000D01*
X117637044Y-86831027D01*
X117638179Y-86823129D01*
X117610894Y-86729213D01*
X117604647Y-86714777D01*
X117528088Y-86585322D01*
X117521811Y-86577230D01*
X117495861Y-86511146D01*
X117509759Y-86441523D01*
X117521811Y-86422770D01*
X117528088Y-86414678D01*
X117604647Y-86285223D01*
X117610894Y-86270787D01*
X117636574Y-86182395D01*
X117636534Y-86168295D01*
X117629264Y-86165000D01*
X116493115Y-86165000D01*
X116477876Y-86169475D01*
X116476671Y-86170865D01*
X116475000Y-86178548D01*
X116475000Y-86816885D01*
X115875000Y-86816885D01*
X115875000Y-86183115D01*
X115870525Y-86167876D01*
X115869135Y-86166671D01*
X115861452Y-86165000D01*
X114726487Y-86165000D01*
X114712956Y-86168973D01*
X114711821Y-86176871D01*
X113900000Y-86176871D01*
X113900000Y-84906871D01*
X114711821Y-84906871D01*
X114739106Y-85000787D01*
X114745353Y-85015223D01*
X114821912Y-85144678D01*
X114828189Y-85152770D01*
X114854139Y-85218854D01*
X114840241Y-85288477D01*
X114828189Y-85307230D01*
X114821912Y-85315322D01*
X114745353Y-85444777D01*
X114739106Y-85459213D01*
X114713426Y-85547605D01*
X114713466Y-85561705D01*
X114720736Y-85565000D01*
X115856885Y-85565000D01*
X115872124Y-85560525D01*
X115873329Y-85559135D01*
X115875000Y-85551452D01*
X115875000Y-85546885D01*
X116475000Y-85546885D01*
X116479475Y-85562124D01*
X116480865Y-85563329D01*
X116488548Y-85565000D01*
X117623513Y-85565000D01*
X117637044Y-85561027D01*
X117638179Y-85553129D01*
X117610894Y-85459213D01*
X117604647Y-85444777D01*
X117528088Y-85315322D01*
X117521811Y-85307230D01*
X117495861Y-85241146D01*
X117509759Y-85171523D01*
X117521811Y-85152770D01*
X117528088Y-85144678D01*
X117604647Y-85015223D01*
X117610894Y-85000787D01*
X117636574Y-84912395D01*
X117636534Y-84898295D01*
X117629264Y-84895000D01*
X116493115Y-84895000D01*
X116477876Y-84899475D01*
X116476671Y-84900865D01*
X116475000Y-84908548D01*
X116475000Y-85546885D01*
X115875000Y-85546885D01*
X115875000Y-84913115D01*
X115870525Y-84897876D01*
X115869135Y-84896671D01*
X115861452Y-84895000D01*
X114726487Y-84895000D01*
X114712956Y-84898973D01*
X114711821Y-84906871D01*
X113900000Y-84906871D01*
X113900000Y-84277605D01*
X114713426Y-84277605D01*
X114713466Y-84291705D01*
X114720736Y-84295000D01*
X115856885Y-84295000D01*
X115872124Y-84290525D01*
X115873329Y-84289135D01*
X115875000Y-84281452D01*
X115875000Y-83805116D01*
X115870525Y-83789877D01*
X115869135Y-83788672D01*
X115861452Y-83787001D01*
X115286017Y-83787001D01*
X115281080Y-83787195D01*
X115252664Y-83789430D01*
X115240069Y-83791730D01*
X115094210Y-83834107D01*
X115079779Y-83840352D01*
X114950322Y-83916911D01*
X114937896Y-83926551D01*
X114831551Y-84032896D01*
X114821911Y-84045322D01*
X114745353Y-84174777D01*
X114739106Y-84189213D01*
X114713426Y-84277605D01*
X113900000Y-84277605D01*
X113900000Y-84000000D01*
X113869630Y-83926551D01*
X113021661Y-81875741D01*
X113014116Y-81805147D01*
X113045935Y-81741680D01*
X113107016Y-81705490D01*
X113177966Y-81708069D01*
X113204216Y-81720336D01*
X113281245Y-81767818D01*
X113294423Y-81773962D01*
X113417806Y-81814887D01*
X113431899Y-81815376D01*
X113435000Y-81809164D01*
X113435000Y-80498115D01*
X113430525Y-80482876D01*
X113429135Y-80481671D01*
X113421452Y-80480000D01*
X112870116Y-80480000D01*
X112854877Y-80484475D01*
X112853672Y-80485865D01*
X112852001Y-80493548D01*
X112852001Y-80830939D01*
X112831999Y-80899060D01*
X112778343Y-80945553D01*
X112708069Y-80955657D01*
X112643489Y-80926163D01*
X112609562Y-80879084D01*
X112502391Y-80619891D01*
X112492832Y-80572482D01*
X112486427Y-79475525D01*
X112486347Y-79461885D01*
X112852000Y-79461885D01*
X112856475Y-79477124D01*
X112857865Y-79478329D01*
X112865548Y-79480000D01*
X113416885Y-79480000D01*
X113432124Y-79475525D01*
X113433329Y-79474135D01*
X113435000Y-79466452D01*
X113435000Y-78157401D01*
X113431027Y-78143870D01*
X113424201Y-78142889D01*
X113293216Y-78186588D01*
X113280038Y-78192761D01*
X113142193Y-78278063D01*
X113130792Y-78287099D01*
X113016261Y-78401829D01*
X113007249Y-78413240D01*
X112922184Y-78551243D01*
X112916037Y-78564424D01*
X112864862Y-78718710D01*
X112861995Y-78732086D01*
X112852328Y-78826438D01*
X112852000Y-78832855D01*
X112852000Y-79461885D01*
X112486347Y-79461885D01*
X112471642Y-76943739D01*
X112468450Y-76397095D01*
X112842001Y-76397095D01*
X112842338Y-76403614D01*
X112852257Y-76499206D01*
X112855149Y-76512600D01*
X112906588Y-76666784D01*
X112912761Y-76679962D01*
X112998063Y-76817807D01*
X113007099Y-76829208D01*
X113121829Y-76943739D01*
X113133240Y-76952751D01*
X113271245Y-77037818D01*
X113284423Y-77043962D01*
X113407806Y-77084887D01*
X113421899Y-77085376D01*
X113425000Y-77079164D01*
X113425000Y-75768115D01*
X113420525Y-75752876D01*
X113419135Y-75751671D01*
X113411452Y-75750000D01*
X112860116Y-75750000D01*
X112844877Y-75754475D01*
X112843672Y-75755865D01*
X112842001Y-75763548D01*
X112842001Y-76397095D01*
X112468450Y-76397095D01*
X112453717Y-73873990D01*
X112473321Y-73805753D01*
X112526704Y-73758948D01*
X112579847Y-73747254D01*
X112599676Y-73747275D01*
G37*
%TD.AperFunction*%
%TD*%
%TA.AperFunction,Conductor*%
%TO.N,Solar Panel*%
G36*
X110000000Y-72024000D02*
G01*
X109979998Y-72092121D01*
X109926342Y-72138614D01*
X109874000Y-72150000D01*
X107644225Y-72150000D01*
X107576104Y-72129998D01*
X107529611Y-72076342D01*
X107518225Y-72024000D01*
X107518225Y-71968115D01*
X107513750Y-71952876D01*
X107512360Y-71951671D01*
X107504677Y-71950000D01*
X105800000Y-71950000D01*
X105800000Y-70731885D01*
X106810225Y-70731885D01*
X106814700Y-70747124D01*
X106816090Y-70748329D01*
X106823773Y-70750000D01*
X107500109Y-70750000D01*
X107515348Y-70745525D01*
X107516553Y-70744135D01*
X107518224Y-70736452D01*
X107518224Y-70505331D01*
X107517854Y-70498510D01*
X107512330Y-70447648D01*
X107508704Y-70432396D01*
X107463549Y-70311946D01*
X107455011Y-70296351D01*
X107378510Y-70194276D01*
X107365949Y-70181715D01*
X107263874Y-70105214D01*
X107248279Y-70096676D01*
X107127831Y-70051522D01*
X107112576Y-70047895D01*
X107061711Y-70042369D01*
X107054897Y-70042000D01*
X106828340Y-70042000D01*
X106813101Y-70046475D01*
X106811896Y-70047865D01*
X106810225Y-70055548D01*
X106810225Y-70731885D01*
X105800000Y-70731885D01*
X105800000Y-68350000D01*
X110000000Y-68350000D01*
X110000000Y-72024000D01*
G37*
%TD.AperFunction*%
%TD*%
%TA.AperFunction,Conductor*%
%TO.N,24V Solar_2*%
G36*
X151487146Y-110720002D02*
G01*
X151533639Y-110773658D01*
X151543743Y-110843932D01*
X151514249Y-110908512D01*
X151454523Y-110946896D01*
X151443606Y-110949579D01*
X151281351Y-110981853D01*
X151273391Y-110983986D01*
X151007122Y-111074373D01*
X150999527Y-111077519D01*
X150747335Y-111201886D01*
X150740198Y-111206007D01*
X150697064Y-111234829D01*
X150688775Y-111244747D01*
X150696031Y-111258925D01*
X151837188Y-112400081D01*
X151851132Y-112407695D01*
X151852966Y-112407564D01*
X151859578Y-112403315D01*
X153005190Y-111257704D01*
X153011384Y-111246360D01*
X153001502Y-111233870D01*
X152959802Y-111206007D01*
X152952665Y-111201886D01*
X152700473Y-111077519D01*
X152692878Y-111074373D01*
X152426609Y-110983986D01*
X152418649Y-110981853D01*
X152256394Y-110949579D01*
X152193484Y-110916672D01*
X152158352Y-110854977D01*
X152162152Y-110784082D01*
X152203678Y-110726496D01*
X152269744Y-110700502D01*
X152280975Y-110700000D01*
X154474000Y-110700000D01*
X154542121Y-110720002D01*
X154588614Y-110773658D01*
X154600000Y-110826000D01*
X154600000Y-114774000D01*
X154579998Y-114842121D01*
X154526342Y-114888614D01*
X154474000Y-114900000D01*
X152922894Y-114900000D01*
X151862812Y-113839919D01*
X151848868Y-113832305D01*
X151847034Y-113832436D01*
X151840422Y-113836685D01*
X150777106Y-114900000D01*
X142226000Y-114900000D01*
X142157879Y-114879998D01*
X142111386Y-114826342D01*
X142100000Y-114774000D01*
X142100000Y-113124119D01*
X149637532Y-113124119D01*
X149655922Y-113404705D01*
X149656996Y-113412863D01*
X149711853Y-113688649D01*
X149713986Y-113696609D01*
X149804373Y-113962878D01*
X149807519Y-113970473D01*
X149931886Y-114222665D01*
X149936007Y-114229802D01*
X149964829Y-114272936D01*
X149974747Y-114281225D01*
X149988925Y-114273969D01*
X151130081Y-113132812D01*
X151136459Y-113121132D01*
X152562305Y-113121132D01*
X152562436Y-113122966D01*
X152566685Y-113129578D01*
X153712296Y-114275190D01*
X153723640Y-114281384D01*
X153736130Y-114271502D01*
X153763993Y-114229802D01*
X153768114Y-114222665D01*
X153892481Y-113970473D01*
X153895627Y-113962878D01*
X153986014Y-113696609D01*
X153988147Y-113688649D01*
X154043004Y-113412863D01*
X154044078Y-113404705D01*
X154062468Y-113124119D01*
X154062468Y-113115881D01*
X154044078Y-112835295D01*
X154043004Y-112827137D01*
X153988147Y-112551351D01*
X153986014Y-112543391D01*
X153895627Y-112277122D01*
X153892481Y-112269527D01*
X153768114Y-112017335D01*
X153763993Y-112010198D01*
X153735171Y-111967064D01*
X153725253Y-111958775D01*
X153711075Y-111966031D01*
X152569919Y-113107188D01*
X152562305Y-113121132D01*
X151136459Y-113121132D01*
X151137695Y-113118868D01*
X151137564Y-113117034D01*
X151133315Y-113110422D01*
X149987704Y-111964810D01*
X149976360Y-111958616D01*
X149963870Y-111968498D01*
X149936007Y-112010198D01*
X149931886Y-112017335D01*
X149807519Y-112269527D01*
X149804373Y-112277122D01*
X149713986Y-112543391D01*
X149711853Y-112551351D01*
X149656996Y-112827137D01*
X149655922Y-112835295D01*
X149637532Y-113115881D01*
X149637532Y-113124119D01*
X142100000Y-113124119D01*
X142100000Y-110700000D01*
X151419025Y-110700000D01*
X151487146Y-110720002D01*
G37*
%TD.AperFunction*%
%TD*%
%TA.AperFunction,Conductor*%
%TO.N,Net-(Q6-Pad5)*%
G36*
X139180930Y-113720002D02*
G01*
X139227423Y-113773658D01*
X139237527Y-113843932D01*
X139233043Y-113863679D01*
X139223247Y-113894938D01*
X139216500Y-113968365D01*
X139216501Y-114631634D01*
X139223247Y-114705062D01*
X139274528Y-114868699D01*
X139363361Y-115015381D01*
X139368736Y-115020756D01*
X139373153Y-115026389D01*
X139399446Y-115092338D01*
X139400000Y-115104137D01*
X139400000Y-117674000D01*
X139379998Y-117742121D01*
X139326342Y-117788614D01*
X139274000Y-117800000D01*
X137126000Y-117800000D01*
X137057879Y-117779998D01*
X137011386Y-117726342D01*
X137000000Y-117674000D01*
X137000000Y-113826000D01*
X137020002Y-113757879D01*
X137073658Y-113711386D01*
X137126000Y-113700000D01*
X139112809Y-113700000D01*
X139180930Y-113720002D01*
G37*
%TD.AperFunction*%
%TD*%
%TA.AperFunction,Conductor*%
%TO.N,24V Solar*%
G36*
X94833621Y-78516002D02*
G01*
X94880114Y-78569658D01*
X94891500Y-78622000D01*
X94891500Y-80114884D01*
X94895975Y-80130123D01*
X94897365Y-80131328D01*
X94905048Y-80132999D01*
X94997095Y-80132999D01*
X95003614Y-80132662D01*
X95060997Y-80126708D01*
X95130818Y-80139573D01*
X95182600Y-80188144D01*
X95200000Y-80252035D01*
X95200000Y-103050000D01*
X100100000Y-103050000D01*
X100100000Y-106500000D01*
X94326000Y-106500000D01*
X94257879Y-106479998D01*
X94211386Y-106426342D01*
X94200000Y-106374000D01*
X94200000Y-80259000D01*
X94220002Y-80190879D01*
X94273658Y-80144386D01*
X94326000Y-80133000D01*
X94365385Y-80133000D01*
X94380624Y-80128525D01*
X94381829Y-80127135D01*
X94383500Y-80119452D01*
X94383500Y-78622000D01*
X94403502Y-78553879D01*
X94457158Y-78507386D01*
X94509500Y-78496000D01*
X94765500Y-78496000D01*
X94833621Y-78516002D01*
G37*
%TD.AperFunction*%
%TD*%
%TA.AperFunction,Conductor*%
%TO.N,+24V*%
G36*
X182942121Y-73220002D02*
G01*
X182988614Y-73273658D01*
X183000000Y-73326000D01*
X183000000Y-109474000D01*
X182979998Y-109542121D01*
X182926342Y-109588614D01*
X182874000Y-109600000D01*
X144726000Y-109600000D01*
X144657879Y-109579998D01*
X144611386Y-109526342D01*
X144600000Y-109474000D01*
X144600000Y-108503634D01*
X177850346Y-108503634D01*
X177859314Y-108515373D01*
X177886851Y-108535160D01*
X177892967Y-108539041D01*
X178188923Y-108703769D01*
X178195443Y-108706921D01*
X178508373Y-108836540D01*
X178515224Y-108838926D01*
X178840960Y-108931715D01*
X178848049Y-108933299D01*
X179182303Y-108988036D01*
X179189509Y-108988793D01*
X179527842Y-109004748D01*
X179535092Y-109004672D01*
X179873006Y-108981636D01*
X179880215Y-108980725D01*
X180213248Y-108919001D01*
X180220278Y-108917274D01*
X180544012Y-108817680D01*
X180550823Y-108815147D01*
X180860945Y-108679013D01*
X180867420Y-108675714D01*
X181141969Y-108515281D01*
X181151648Y-108505023D01*
X181148330Y-108496858D01*
X179512812Y-106861340D01*
X179498868Y-106853726D01*
X179497035Y-106853857D01*
X179490420Y-106858108D01*
X177856905Y-108491623D01*
X177850346Y-108503634D01*
X144600000Y-108503634D01*
X144600000Y-107690028D01*
X144620002Y-107621907D01*
X144673658Y-107575414D01*
X144743932Y-107565310D01*
X144808512Y-107594804D01*
X144824474Y-107611422D01*
X144826345Y-107613766D01*
X144836233Y-107623654D01*
X144965498Y-107726844D01*
X144977346Y-107734305D01*
X145126248Y-107806287D01*
X145139451Y-107810937D01*
X145302270Y-107848527D01*
X145312188Y-107849947D01*
X145314027Y-107850000D01*
X147681885Y-107850000D01*
X147697124Y-107845525D01*
X147698329Y-107844135D01*
X147700000Y-107836452D01*
X147700000Y-107831884D01*
X148900000Y-107831884D01*
X148904475Y-107847123D01*
X148905865Y-107848328D01*
X148913548Y-107849999D01*
X151286003Y-107849999D01*
X151287805Y-107849947D01*
X151297728Y-107848527D01*
X151460549Y-107810937D01*
X151473752Y-107806287D01*
X151622654Y-107734305D01*
X151634502Y-107726844D01*
X151763767Y-107623654D01*
X151773654Y-107613767D01*
X151876844Y-107484502D01*
X151884305Y-107472654D01*
X151956287Y-107323752D01*
X151960937Y-107310549D01*
X151998527Y-107147730D01*
X151999947Y-107137812D01*
X151999999Y-107136003D01*
X153100001Y-107136003D01*
X153100052Y-107137797D01*
X153101473Y-107147728D01*
X153139063Y-107310549D01*
X153143713Y-107323752D01*
X153215695Y-107472654D01*
X153223156Y-107484502D01*
X153326346Y-107613767D01*
X153336233Y-107623654D01*
X153465498Y-107726844D01*
X153477346Y-107734305D01*
X153626248Y-107806287D01*
X153639451Y-107810937D01*
X153802270Y-107848527D01*
X153812188Y-107849947D01*
X153814027Y-107850000D01*
X156181885Y-107850000D01*
X156197124Y-107845525D01*
X156198329Y-107844135D01*
X156200000Y-107836452D01*
X156200000Y-107831884D01*
X157400000Y-107831884D01*
X157404475Y-107847123D01*
X157405865Y-107848328D01*
X157413548Y-107849999D01*
X159786003Y-107849999D01*
X159787805Y-107849947D01*
X159797728Y-107848527D01*
X159960549Y-107810937D01*
X159973752Y-107806287D01*
X160122654Y-107734305D01*
X160134502Y-107726844D01*
X160263767Y-107623654D01*
X160273654Y-107613767D01*
X160376844Y-107484502D01*
X160384305Y-107472654D01*
X160456287Y-107323752D01*
X160460937Y-107310549D01*
X160498527Y-107147730D01*
X160499947Y-107137812D01*
X160500000Y-107135973D01*
X160500000Y-106336003D01*
X163450001Y-106336003D01*
X163450052Y-106337797D01*
X163451473Y-106347728D01*
X163489063Y-106510549D01*
X163493713Y-106523752D01*
X163565695Y-106672654D01*
X163573156Y-106684502D01*
X163676346Y-106813767D01*
X163686233Y-106823654D01*
X163815498Y-106926844D01*
X163827346Y-106934305D01*
X163976248Y-107006287D01*
X163989451Y-107010937D01*
X164152270Y-107048527D01*
X164162188Y-107049947D01*
X164164027Y-107050000D01*
X164481885Y-107050000D01*
X164497124Y-107045525D01*
X164498329Y-107044135D01*
X164500000Y-107036452D01*
X164500000Y-107031884D01*
X165700000Y-107031884D01*
X165704475Y-107047123D01*
X165705865Y-107048328D01*
X165713548Y-107049999D01*
X166036003Y-107049999D01*
X166037805Y-107049947D01*
X166047728Y-107048527D01*
X166210549Y-107010937D01*
X166223752Y-107006287D01*
X166372654Y-106934305D01*
X166384502Y-106926844D01*
X166513767Y-106823654D01*
X166523654Y-106813767D01*
X166626844Y-106684502D01*
X166634305Y-106672654D01*
X166706287Y-106523752D01*
X166710937Y-106510549D01*
X166748527Y-106347730D01*
X166749947Y-106337812D01*
X166749999Y-106336003D01*
X169050001Y-106336003D01*
X169050052Y-106337797D01*
X169051473Y-106347728D01*
X169089063Y-106510549D01*
X169093713Y-106523752D01*
X169165695Y-106672654D01*
X169173156Y-106684502D01*
X169276346Y-106813767D01*
X169286233Y-106823654D01*
X169415498Y-106926844D01*
X169427346Y-106934305D01*
X169576248Y-107006287D01*
X169589451Y-107010937D01*
X169752270Y-107048527D01*
X169762188Y-107049947D01*
X169764027Y-107050000D01*
X170081885Y-107050000D01*
X170097124Y-107045525D01*
X170098329Y-107044135D01*
X170100000Y-107036452D01*
X170100000Y-107031884D01*
X171300000Y-107031884D01*
X171304475Y-107047123D01*
X171305865Y-107048328D01*
X171313548Y-107049999D01*
X171636003Y-107049999D01*
X171637805Y-107049947D01*
X171647728Y-107048527D01*
X171810549Y-107010937D01*
X171823752Y-107006287D01*
X171972654Y-106934305D01*
X171984502Y-106926844D01*
X172113767Y-106823654D01*
X172123654Y-106813767D01*
X172226844Y-106684502D01*
X172234305Y-106672654D01*
X172306287Y-106523752D01*
X172310937Y-106510549D01*
X172348527Y-106347730D01*
X172349947Y-106337812D01*
X172350000Y-106335973D01*
X172350000Y-106018115D01*
X172345525Y-106002876D01*
X172344135Y-106001671D01*
X172336452Y-106000000D01*
X171318115Y-106000000D01*
X171302876Y-106004475D01*
X171301671Y-106005865D01*
X171300000Y-106013548D01*
X171300000Y-107031884D01*
X170100000Y-107031884D01*
X170100000Y-106018115D01*
X170095525Y-106002876D01*
X170094135Y-106001671D01*
X170086452Y-106000000D01*
X169068116Y-106000000D01*
X169052877Y-106004475D01*
X169051672Y-106005865D01*
X169050001Y-106013548D01*
X169050001Y-106336003D01*
X166749999Y-106336003D01*
X166750000Y-106335973D01*
X166750000Y-106018115D01*
X166745525Y-106002876D01*
X166744135Y-106001671D01*
X166736452Y-106000000D01*
X165718115Y-106000000D01*
X165702876Y-106004475D01*
X165701671Y-106005865D01*
X165700000Y-106013548D01*
X165700000Y-107031884D01*
X164500000Y-107031884D01*
X164500000Y-106018115D01*
X164495525Y-106002876D01*
X164494135Y-106001671D01*
X164486452Y-106000000D01*
X163468116Y-106000000D01*
X163452877Y-106004475D01*
X163451672Y-106005865D01*
X163450001Y-106013548D01*
X163450001Y-106336003D01*
X160500000Y-106336003D01*
X160500000Y-105909239D01*
X176496494Y-105909239D01*
X176505360Y-106247834D01*
X176505966Y-106255050D01*
X176553693Y-106590391D01*
X176555122Y-106597480D01*
X176641074Y-106925110D01*
X176643314Y-106932005D01*
X176766348Y-107247571D01*
X176769373Y-107254177D01*
X176927857Y-107553501D01*
X176931616Y-107559709D01*
X176986588Y-107639693D01*
X176996841Y-107648036D01*
X177010582Y-107640890D01*
X178638660Y-106012812D01*
X178645038Y-106001132D01*
X180353726Y-106001132D01*
X180353857Y-106002965D01*
X180358108Y-106009580D01*
X181989995Y-107641467D01*
X182002375Y-107648227D01*
X182011046Y-107641736D01*
X182100491Y-107505568D01*
X182104106Y-107499306D01*
X182256303Y-107196699D01*
X182259175Y-107190061D01*
X182375578Y-106871976D01*
X182377673Y-106865035D01*
X182456743Y-106535684D01*
X182458027Y-106528545D01*
X182498818Y-106191470D01*
X182499242Y-106185900D01*
X182504996Y-106002797D01*
X182504923Y-105997204D01*
X182485378Y-105658224D01*
X182484546Y-105651035D01*
X182426310Y-105317359D01*
X182424655Y-105310304D01*
X182328458Y-104985549D01*
X182326000Y-104978720D01*
X182193112Y-104667171D01*
X182189895Y-104660688D01*
X182022069Y-104366457D01*
X182018135Y-104360399D01*
X182016152Y-104357699D01*
X182005096Y-104349265D01*
X181992410Y-104356118D01*
X180361340Y-105987188D01*
X180353726Y-106001132D01*
X178645038Y-106001132D01*
X178646274Y-105998868D01*
X178646143Y-105997035D01*
X178641892Y-105990420D01*
X177008733Y-104357261D01*
X176996353Y-104350501D01*
X176988703Y-104356228D01*
X176853503Y-104576855D01*
X176850082Y-104583234D01*
X176707468Y-104890472D01*
X176704808Y-104897191D01*
X176598451Y-105218782D01*
X176596575Y-105225785D01*
X176527889Y-105557458D01*
X176526832Y-105564619D01*
X176496722Y-105901987D01*
X176496494Y-105909239D01*
X160500000Y-105909239D01*
X160500000Y-104781885D01*
X163450000Y-104781885D01*
X163454475Y-104797124D01*
X163455865Y-104798329D01*
X163463548Y-104800000D01*
X164481885Y-104800000D01*
X164497124Y-104795525D01*
X164498329Y-104794135D01*
X164500000Y-104786452D01*
X164500000Y-104781885D01*
X165700000Y-104781885D01*
X165704475Y-104797124D01*
X165705865Y-104798329D01*
X165713548Y-104800000D01*
X166731884Y-104800000D01*
X166747123Y-104795525D01*
X166748328Y-104794135D01*
X166749999Y-104786452D01*
X166749999Y-104781885D01*
X169050000Y-104781885D01*
X169054475Y-104797124D01*
X169055865Y-104798329D01*
X169063548Y-104800000D01*
X170081885Y-104800000D01*
X170097124Y-104795525D01*
X170098329Y-104794135D01*
X170100000Y-104786452D01*
X170100000Y-104781885D01*
X171300000Y-104781885D01*
X171304475Y-104797124D01*
X171305865Y-104798329D01*
X171313548Y-104800000D01*
X172331884Y-104800000D01*
X172347123Y-104795525D01*
X172348328Y-104794135D01*
X172349999Y-104786452D01*
X172349999Y-104463997D01*
X172349947Y-104462195D01*
X172348527Y-104452272D01*
X172310937Y-104289451D01*
X172306287Y-104276248D01*
X172234305Y-104127346D01*
X172226844Y-104115498D01*
X172123654Y-103986233D01*
X172113767Y-103976346D01*
X171984502Y-103873156D01*
X171972654Y-103865695D01*
X171823752Y-103793713D01*
X171810549Y-103789063D01*
X171647730Y-103751473D01*
X171637812Y-103750053D01*
X171635973Y-103750000D01*
X171318115Y-103750000D01*
X171302876Y-103754475D01*
X171301671Y-103755865D01*
X171300000Y-103763548D01*
X171300000Y-104781885D01*
X170100000Y-104781885D01*
X170100000Y-103768116D01*
X170095525Y-103752877D01*
X170094135Y-103751672D01*
X170086452Y-103750001D01*
X169763997Y-103750001D01*
X169762195Y-103750053D01*
X169752272Y-103751473D01*
X169589451Y-103789063D01*
X169576248Y-103793713D01*
X169427346Y-103865695D01*
X169415498Y-103873156D01*
X169286233Y-103976346D01*
X169276346Y-103986233D01*
X169173156Y-104115498D01*
X169165695Y-104127346D01*
X169093713Y-104276248D01*
X169089063Y-104289451D01*
X169051473Y-104452270D01*
X169050053Y-104462188D01*
X169050000Y-104464027D01*
X169050000Y-104781885D01*
X166749999Y-104781885D01*
X166749999Y-104463997D01*
X166749947Y-104462195D01*
X166748527Y-104452272D01*
X166710937Y-104289451D01*
X166706287Y-104276248D01*
X166634305Y-104127346D01*
X166626844Y-104115498D01*
X166523654Y-103986233D01*
X166513767Y-103976346D01*
X166384502Y-103873156D01*
X166372654Y-103865695D01*
X166223752Y-103793713D01*
X166210549Y-103789063D01*
X166047730Y-103751473D01*
X166037812Y-103750053D01*
X166035973Y-103750000D01*
X165718115Y-103750000D01*
X165702876Y-103754475D01*
X165701671Y-103755865D01*
X165700000Y-103763548D01*
X165700000Y-104781885D01*
X164500000Y-104781885D01*
X164500000Y-103768116D01*
X164495525Y-103752877D01*
X164494135Y-103751672D01*
X164486452Y-103750001D01*
X164163997Y-103750001D01*
X164162195Y-103750053D01*
X164152272Y-103751473D01*
X163989451Y-103789063D01*
X163976248Y-103793713D01*
X163827346Y-103865695D01*
X163815498Y-103873156D01*
X163686233Y-103976346D01*
X163676346Y-103986233D01*
X163573156Y-104115498D01*
X163565695Y-104127346D01*
X163493713Y-104276248D01*
X163489063Y-104289451D01*
X163451473Y-104452270D01*
X163450053Y-104462188D01*
X163450000Y-104464027D01*
X163450000Y-104781885D01*
X160500000Y-104781885D01*
X160500000Y-104468115D01*
X160495525Y-104452876D01*
X160494135Y-104451671D01*
X160486452Y-104450000D01*
X157418115Y-104450000D01*
X157402876Y-104454475D01*
X157401671Y-104455865D01*
X157400000Y-104463548D01*
X157400000Y-107831884D01*
X156200000Y-107831884D01*
X156200000Y-104468115D01*
X156195525Y-104452876D01*
X156194135Y-104451671D01*
X156186452Y-104450000D01*
X153118116Y-104450000D01*
X153102877Y-104454475D01*
X153101672Y-104455865D01*
X153100001Y-104463548D01*
X153100001Y-107136003D01*
X151999999Y-107136003D01*
X152000000Y-107135973D01*
X152000000Y-104468115D01*
X151995525Y-104452876D01*
X151994135Y-104451671D01*
X151986452Y-104450000D01*
X148918115Y-104450000D01*
X148902876Y-104454475D01*
X148901671Y-104455865D01*
X148900000Y-104463548D01*
X148900000Y-107831884D01*
X147700000Y-107831884D01*
X147700000Y-103497515D01*
X177851110Y-103497515D01*
X177855148Y-103506620D01*
X179487188Y-105138660D01*
X179501132Y-105146274D01*
X179502965Y-105146143D01*
X179509580Y-105141892D01*
X181141520Y-103509952D01*
X181147744Y-103498554D01*
X181137932Y-103486120D01*
X181032719Y-103415419D01*
X181026497Y-103411739D01*
X180725498Y-103256381D01*
X180718887Y-103253438D01*
X180402041Y-103133712D01*
X180395122Y-103131544D01*
X180066618Y-103049029D01*
X180059494Y-103047670D01*
X179723691Y-103003460D01*
X179716449Y-103002929D01*
X179377802Y-102997609D01*
X179370540Y-102997913D01*
X179033509Y-103031554D01*
X179026361Y-103032686D01*
X178695417Y-103104843D01*
X178688440Y-103106792D01*
X178367989Y-103216506D01*
X178361283Y-103219243D01*
X178055568Y-103365062D01*
X178049210Y-103368557D01*
X177860462Y-103486958D01*
X177851110Y-103497515D01*
X147700000Y-103497515D01*
X147700000Y-103376000D01*
X147720002Y-103307879D01*
X147773658Y-103261386D01*
X147826000Y-103250000D01*
X151981884Y-103250000D01*
X151997123Y-103245525D01*
X151998328Y-103244135D01*
X151999999Y-103236452D01*
X151999999Y-100563997D01*
X151999947Y-100562195D01*
X151998527Y-100552272D01*
X151975919Y-100454344D01*
X151980085Y-100383469D01*
X152021907Y-100326098D01*
X152088107Y-100300445D01*
X152098690Y-100300000D01*
X153001310Y-100300000D01*
X153069431Y-100320002D01*
X153115924Y-100373658D01*
X153126028Y-100443932D01*
X153124081Y-100454344D01*
X153101473Y-100552269D01*
X153100053Y-100562188D01*
X153100000Y-100564027D01*
X153100000Y-103231885D01*
X153104475Y-103247124D01*
X153105865Y-103248329D01*
X153113548Y-103250000D01*
X160481884Y-103250000D01*
X160497123Y-103245525D01*
X160498328Y-103244135D01*
X160499999Y-103236452D01*
X160499999Y-100563997D01*
X160499947Y-100562195D01*
X160498527Y-100552272D01*
X160475919Y-100454344D01*
X160480085Y-100383469D01*
X160521907Y-100326098D01*
X160588107Y-100300445D01*
X160598690Y-100300000D01*
X165000000Y-100300000D01*
X165000000Y-96624895D01*
X171479252Y-96624895D01*
X171483718Y-96630861D01*
X171526104Y-96653162D01*
X171534653Y-96656879D01*
X171778403Y-96742000D01*
X171787412Y-96744414D01*
X172041074Y-96792573D01*
X172050330Y-96793627D01*
X172308327Y-96803764D01*
X172317641Y-96803438D01*
X172574291Y-96775331D01*
X172583468Y-96773630D01*
X172833143Y-96707896D01*
X172841963Y-96704859D01*
X173010239Y-96632562D01*
X173021101Y-96623571D01*
X173019649Y-96618178D01*
X172262811Y-95861339D01*
X172248868Y-95853726D01*
X172247034Y-95853857D01*
X172240420Y-95858108D01*
X171486009Y-96612520D01*
X171479252Y-96624895D01*
X165000000Y-96624895D01*
X165000000Y-94957420D01*
X170445796Y-94957420D01*
X170458184Y-95215308D01*
X170459321Y-95224568D01*
X170509691Y-95477798D01*
X170512180Y-95486773D01*
X170599429Y-95729781D01*
X170603220Y-95738295D01*
X170615600Y-95761337D01*
X170625505Y-95771377D01*
X170632735Y-95768736D01*
X171388661Y-95012811D01*
X171395038Y-95001132D01*
X173103726Y-95001132D01*
X173103857Y-95002966D01*
X173108108Y-95009580D01*
X173861858Y-95763329D01*
X173874233Y-95770086D01*
X173878999Y-95766519D01*
X173944268Y-95621626D01*
X173947459Y-95612859D01*
X174017540Y-95364372D01*
X174019400Y-95355230D01*
X174052175Y-95097599D01*
X174052656Y-95091313D01*
X174054964Y-95003160D01*
X174054888Y-95000000D01*
X178236835Y-95000000D01*
X178255465Y-95236711D01*
X178256619Y-95241518D01*
X178256620Y-95241524D01*
X178282907Y-95351015D01*
X178310895Y-95467594D01*
X178312788Y-95472165D01*
X178312789Y-95472167D01*
X178374697Y-95621626D01*
X178401760Y-95686963D01*
X178404346Y-95691183D01*
X178523241Y-95885202D01*
X178523245Y-95885208D01*
X178525824Y-95889416D01*
X178680031Y-96069969D01*
X178860584Y-96224176D01*
X178864792Y-96226755D01*
X178864798Y-96226759D01*
X179018804Y-96321134D01*
X179063037Y-96348240D01*
X179067607Y-96350133D01*
X179067611Y-96350135D01*
X179192502Y-96401866D01*
X179282406Y-96439105D01*
X179362609Y-96458360D01*
X179508476Y-96493380D01*
X179508482Y-96493381D01*
X179513289Y-96494535D01*
X179750000Y-96513165D01*
X179986711Y-96494535D01*
X179991518Y-96493381D01*
X179991524Y-96493380D01*
X180137391Y-96458360D01*
X180217594Y-96439105D01*
X180307498Y-96401866D01*
X180432389Y-96350135D01*
X180432393Y-96350133D01*
X180436963Y-96348240D01*
X180481196Y-96321134D01*
X180635202Y-96226759D01*
X180635208Y-96226755D01*
X180639416Y-96224176D01*
X180819969Y-96069969D01*
X180974176Y-95889416D01*
X180976755Y-95885208D01*
X180976759Y-95885202D01*
X181095654Y-95691183D01*
X181098240Y-95686963D01*
X181125304Y-95621626D01*
X181187211Y-95472167D01*
X181187212Y-95472165D01*
X181189105Y-95467594D01*
X181217093Y-95351015D01*
X181243380Y-95241524D01*
X181243381Y-95241518D01*
X181244535Y-95236711D01*
X181263165Y-95000000D01*
X181244535Y-94763289D01*
X181238428Y-94737849D01*
X181190260Y-94537218D01*
X181189105Y-94532406D01*
X181168121Y-94481745D01*
X181100135Y-94317611D01*
X181100133Y-94317607D01*
X181098240Y-94313037D01*
X181095654Y-94308817D01*
X180976759Y-94114798D01*
X180976755Y-94114792D01*
X180974176Y-94110584D01*
X180819969Y-93930031D01*
X180639416Y-93775824D01*
X180635208Y-93773245D01*
X180635202Y-93773241D01*
X180441183Y-93654346D01*
X180436963Y-93651760D01*
X180432393Y-93649867D01*
X180432389Y-93649865D01*
X180222167Y-93562789D01*
X180222165Y-93562788D01*
X180217594Y-93560895D01*
X180137391Y-93541640D01*
X179991524Y-93506620D01*
X179991518Y-93506619D01*
X179986711Y-93505465D01*
X179750000Y-93486835D01*
X179513289Y-93505465D01*
X179508482Y-93506619D01*
X179508476Y-93506620D01*
X179362609Y-93541640D01*
X179282406Y-93560895D01*
X179277835Y-93562788D01*
X179277833Y-93562789D01*
X179067611Y-93649865D01*
X179067607Y-93649867D01*
X179063037Y-93651760D01*
X179058817Y-93654346D01*
X178864798Y-93773241D01*
X178864792Y-93773245D01*
X178860584Y-93775824D01*
X178680031Y-93930031D01*
X178525824Y-94110584D01*
X178523245Y-94114792D01*
X178523241Y-94114798D01*
X178404346Y-94308817D01*
X178401760Y-94313037D01*
X178399867Y-94317607D01*
X178399865Y-94317611D01*
X178331879Y-94481745D01*
X178310895Y-94532406D01*
X178309740Y-94537218D01*
X178261573Y-94737849D01*
X178255465Y-94763289D01*
X178236835Y-95000000D01*
X174054888Y-95000000D01*
X174054813Y-94996851D01*
X174035566Y-94737849D01*
X174034189Y-94728643D01*
X173977206Y-94476812D01*
X173974482Y-94467901D01*
X173882968Y-94232574D01*
X173876731Y-94226577D01*
X173868824Y-94229705D01*
X173111339Y-94987189D01*
X173103726Y-95001132D01*
X171395038Y-95001132D01*
X171396274Y-94998868D01*
X171396143Y-94997034D01*
X171391892Y-94990420D01*
X170636863Y-94235392D01*
X170624488Y-94228635D01*
X170620159Y-94231876D01*
X170540040Y-94422935D01*
X170537079Y-94431785D01*
X170473529Y-94682018D01*
X170471907Y-94691215D01*
X170446041Y-94948095D01*
X170445796Y-94957420D01*
X165000000Y-94957420D01*
X165000000Y-93377235D01*
X171479904Y-93377235D01*
X171481657Y-93383128D01*
X172237189Y-94138661D01*
X172251132Y-94146274D01*
X172252966Y-94146143D01*
X172259580Y-94141892D01*
X173013096Y-93388375D01*
X173019853Y-93376000D01*
X173015798Y-93370583D01*
X172930371Y-93328455D01*
X172921738Y-93324967D01*
X172675831Y-93246252D01*
X172666770Y-93244076D01*
X172411931Y-93202573D01*
X172402644Y-93201761D01*
X172144482Y-93198381D01*
X172135171Y-93198951D01*
X171879341Y-93233768D01*
X171870222Y-93235706D01*
X171622358Y-93307952D01*
X171613605Y-93311224D01*
X171490528Y-93367963D01*
X171479904Y-93377235D01*
X165000000Y-93377235D01*
X165000000Y-88725048D01*
X165011254Y-88686721D01*
X165007155Y-88685391D01*
X165024413Y-88632191D01*
X165925000Y-88632191D01*
X165928624Y-88644535D01*
X165944533Y-88646368D01*
X165995084Y-88636175D01*
X166006826Y-88632585D01*
X166181017Y-88560076D01*
X166191831Y-88554278D01*
X166348623Y-88449315D01*
X166358109Y-88441523D01*
X166491523Y-88308109D01*
X166499315Y-88298623D01*
X166604278Y-88141831D01*
X166610076Y-88131017D01*
X166682585Y-87956826D01*
X166686175Y-87945084D01*
X166701766Y-87867758D01*
X166700653Y-87854941D01*
X166685420Y-87850000D01*
X165943115Y-87850000D01*
X165927876Y-87854475D01*
X165926671Y-87855865D01*
X165925000Y-87863548D01*
X165925000Y-88632191D01*
X165024413Y-88632191D01*
X165025000Y-88630382D01*
X165025000Y-86931885D01*
X165925000Y-86931885D01*
X165929475Y-86947124D01*
X165930865Y-86948329D01*
X165938548Y-86950000D01*
X166687232Y-86950000D01*
X166699576Y-86946376D01*
X166701409Y-86930467D01*
X166686175Y-86854916D01*
X166682585Y-86843174D01*
X166610076Y-86668983D01*
X166604278Y-86658169D01*
X166499315Y-86501377D01*
X166491523Y-86491891D01*
X166358109Y-86358477D01*
X166348623Y-86350685D01*
X166191831Y-86245722D01*
X166181017Y-86239924D01*
X166006826Y-86167415D01*
X165995084Y-86163825D01*
X165942758Y-86153274D01*
X165929941Y-86154388D01*
X165925000Y-86169621D01*
X165925000Y-86931885D01*
X165025000Y-86931885D01*
X165025000Y-86167808D01*
X165011965Y-86123413D01*
X165005103Y-86112736D01*
X165000000Y-86077241D01*
X165000000Y-83684433D01*
X165020002Y-83616312D01*
X165073658Y-83569819D01*
X165143932Y-83559715D01*
X165208512Y-83589209D01*
X165230704Y-83614340D01*
X165331272Y-83764567D01*
X165339065Y-83774054D01*
X165475946Y-83910935D01*
X165485433Y-83918728D01*
X165646299Y-84026418D01*
X165657109Y-84032215D01*
X165835840Y-84106613D01*
X165847562Y-84110197D01*
X165882242Y-84117189D01*
X165895059Y-84116076D01*
X165899413Y-84102655D01*
X167050000Y-84102655D01*
X167053624Y-84114999D01*
X167069533Y-84116831D01*
X167102438Y-84110197D01*
X167114160Y-84106613D01*
X167292891Y-84032215D01*
X167303701Y-84026418D01*
X167464567Y-83918728D01*
X167474054Y-83910935D01*
X167610935Y-83774054D01*
X167618728Y-83764567D01*
X167726418Y-83603701D01*
X167732215Y-83592891D01*
X167806613Y-83414160D01*
X167810197Y-83402438D01*
X167848755Y-83211210D01*
X167849917Y-83201953D01*
X167849920Y-83201894D01*
X167850000Y-83198709D01*
X167850000Y-82593115D01*
X167845525Y-82577876D01*
X167844135Y-82576671D01*
X167836452Y-82575000D01*
X167068115Y-82575000D01*
X167052876Y-82579475D01*
X167051671Y-82580865D01*
X167050000Y-82588548D01*
X167050000Y-84102655D01*
X165899413Y-84102655D01*
X165900000Y-84100845D01*
X165900000Y-81406885D01*
X167050000Y-81406885D01*
X167054475Y-81422124D01*
X167055865Y-81423329D01*
X167063548Y-81425000D01*
X167831885Y-81425000D01*
X167847124Y-81420525D01*
X167848329Y-81419135D01*
X167850000Y-81411452D01*
X167850000Y-80801291D01*
X167849920Y-80798106D01*
X167849917Y-80798047D01*
X167848755Y-80788790D01*
X167810197Y-80597562D01*
X167806613Y-80585840D01*
X167732215Y-80407109D01*
X167726418Y-80396299D01*
X167618728Y-80235433D01*
X167610935Y-80225946D01*
X167474054Y-80089065D01*
X167464567Y-80081272D01*
X167303701Y-79973582D01*
X167292891Y-79967785D01*
X167114160Y-79893387D01*
X167102438Y-79889803D01*
X167067758Y-79882811D01*
X167054941Y-79883924D01*
X167050000Y-79899155D01*
X167050000Y-81406885D01*
X165900000Y-81406885D01*
X165900000Y-79897345D01*
X165896376Y-79885001D01*
X165880467Y-79883169D01*
X165847562Y-79889803D01*
X165835840Y-79893387D01*
X165657109Y-79967785D01*
X165646299Y-79973582D01*
X165485433Y-80081272D01*
X165475946Y-80089065D01*
X165339065Y-80225946D01*
X165331272Y-80235433D01*
X165230704Y-80385660D01*
X165176187Y-80431140D01*
X165105737Y-80439927D01*
X165041719Y-80409230D01*
X165004461Y-80348796D01*
X165000000Y-80315567D01*
X165000000Y-78684433D01*
X165020002Y-78616312D01*
X165073658Y-78569819D01*
X165143932Y-78559715D01*
X165208512Y-78589209D01*
X165230704Y-78614340D01*
X165331272Y-78764567D01*
X165339065Y-78774054D01*
X165475946Y-78910935D01*
X165485433Y-78918728D01*
X165646299Y-79026418D01*
X165657109Y-79032215D01*
X165835840Y-79106613D01*
X165847562Y-79110197D01*
X165882242Y-79117189D01*
X165895059Y-79116076D01*
X165899413Y-79102655D01*
X167050000Y-79102655D01*
X167053624Y-79114999D01*
X167069533Y-79116831D01*
X167102438Y-79110197D01*
X167114160Y-79106613D01*
X167292891Y-79032215D01*
X167303701Y-79026418D01*
X167464567Y-78918728D01*
X167474054Y-78910935D01*
X167610935Y-78774054D01*
X167618728Y-78764567D01*
X167726418Y-78603701D01*
X167732215Y-78592891D01*
X167806613Y-78414160D01*
X167810197Y-78402438D01*
X167848755Y-78211210D01*
X167849917Y-78201953D01*
X167849920Y-78201894D01*
X167850000Y-78198709D01*
X167850000Y-77624895D01*
X171479252Y-77624895D01*
X171483718Y-77630861D01*
X171526104Y-77653162D01*
X171534653Y-77656879D01*
X171778403Y-77742000D01*
X171787412Y-77744414D01*
X172041074Y-77792573D01*
X172050330Y-77793627D01*
X172308327Y-77803764D01*
X172317641Y-77803438D01*
X172574291Y-77775331D01*
X172583468Y-77773630D01*
X172833143Y-77707896D01*
X172841963Y-77704859D01*
X173010239Y-77632562D01*
X173021101Y-77623571D01*
X173019649Y-77618178D01*
X172262811Y-76861339D01*
X172248868Y-76853726D01*
X172247034Y-76853857D01*
X172240420Y-76858108D01*
X171486009Y-77612520D01*
X171479252Y-77624895D01*
X167850000Y-77624895D01*
X167850000Y-77593115D01*
X167845525Y-77577876D01*
X167844135Y-77576671D01*
X167836452Y-77575000D01*
X167068115Y-77575000D01*
X167052876Y-77579475D01*
X167051671Y-77580865D01*
X167050000Y-77588548D01*
X167050000Y-79102655D01*
X165899413Y-79102655D01*
X165900000Y-79100845D01*
X165900000Y-76406885D01*
X167050000Y-76406885D01*
X167054475Y-76422124D01*
X167055865Y-76423329D01*
X167063548Y-76425000D01*
X167831885Y-76425000D01*
X167847124Y-76420525D01*
X167848329Y-76419135D01*
X167850000Y-76411452D01*
X167850000Y-75957420D01*
X170445796Y-75957420D01*
X170458184Y-76215308D01*
X170459321Y-76224568D01*
X170509691Y-76477798D01*
X170512180Y-76486773D01*
X170599429Y-76729781D01*
X170603220Y-76738295D01*
X170615600Y-76761337D01*
X170625505Y-76771377D01*
X170632735Y-76768736D01*
X171388661Y-76012811D01*
X171395038Y-76001132D01*
X173103726Y-76001132D01*
X173103857Y-76002966D01*
X173108108Y-76009580D01*
X173861858Y-76763329D01*
X173874233Y-76770086D01*
X173878999Y-76766519D01*
X173944268Y-76621626D01*
X173947459Y-76612859D01*
X174017540Y-76364372D01*
X174019400Y-76355230D01*
X174052175Y-76097599D01*
X174052656Y-76091313D01*
X174054964Y-76003160D01*
X174054888Y-76000000D01*
X178236835Y-76000000D01*
X178255465Y-76236711D01*
X178310895Y-76467594D01*
X178312788Y-76472165D01*
X178312789Y-76472167D01*
X178374697Y-76621626D01*
X178401760Y-76686963D01*
X178404346Y-76691183D01*
X178523241Y-76885202D01*
X178523245Y-76885208D01*
X178525824Y-76889416D01*
X178680031Y-77069969D01*
X178860584Y-77224176D01*
X178864792Y-77226755D01*
X178864798Y-77226759D01*
X178950854Y-77279494D01*
X179063037Y-77348240D01*
X179067607Y-77350133D01*
X179067611Y-77350135D01*
X179277833Y-77437211D01*
X179282406Y-77439105D01*
X179362609Y-77458360D01*
X179508476Y-77493380D01*
X179508482Y-77493381D01*
X179513289Y-77494535D01*
X179750000Y-77513165D01*
X179986711Y-77494535D01*
X179991518Y-77493381D01*
X179991524Y-77493380D01*
X180137391Y-77458360D01*
X180217594Y-77439105D01*
X180222167Y-77437211D01*
X180432389Y-77350135D01*
X180432393Y-77350133D01*
X180436963Y-77348240D01*
X180549146Y-77279494D01*
X180635202Y-77226759D01*
X180635208Y-77226755D01*
X180639416Y-77224176D01*
X180819969Y-77069969D01*
X180974176Y-76889416D01*
X180976755Y-76885208D01*
X180976759Y-76885202D01*
X181095654Y-76691183D01*
X181098240Y-76686963D01*
X181125304Y-76621626D01*
X181187211Y-76472167D01*
X181187212Y-76472165D01*
X181189105Y-76467594D01*
X181244535Y-76236711D01*
X181263165Y-76000000D01*
X181244535Y-75763289D01*
X181239865Y-75743834D01*
X181208360Y-75612609D01*
X181189105Y-75532406D01*
X181175937Y-75500615D01*
X181100135Y-75317611D01*
X181100133Y-75317607D01*
X181098240Y-75313037D01*
X181045257Y-75226577D01*
X180976759Y-75114798D01*
X180976755Y-75114792D01*
X180974176Y-75110584D01*
X180819969Y-74930031D01*
X180639416Y-74775824D01*
X180635208Y-74773245D01*
X180635202Y-74773241D01*
X180441183Y-74654346D01*
X180436963Y-74651760D01*
X180432393Y-74649867D01*
X180432389Y-74649865D01*
X180222167Y-74562789D01*
X180222165Y-74562788D01*
X180217594Y-74560895D01*
X180137391Y-74541640D01*
X179991524Y-74506620D01*
X179991518Y-74506619D01*
X179986711Y-74505465D01*
X179750000Y-74486835D01*
X179513289Y-74505465D01*
X179508482Y-74506619D01*
X179508476Y-74506620D01*
X179362609Y-74541640D01*
X179282406Y-74560895D01*
X179277835Y-74562788D01*
X179277833Y-74562789D01*
X179067611Y-74649865D01*
X179067607Y-74649867D01*
X179063037Y-74651760D01*
X179058817Y-74654346D01*
X178864798Y-74773241D01*
X178864792Y-74773245D01*
X178860584Y-74775824D01*
X178680031Y-74930031D01*
X178525824Y-75110584D01*
X178523245Y-75114792D01*
X178523241Y-75114798D01*
X178454743Y-75226577D01*
X178401760Y-75313037D01*
X178399867Y-75317607D01*
X178399865Y-75317611D01*
X178324063Y-75500615D01*
X178310895Y-75532406D01*
X178291640Y-75612609D01*
X178260136Y-75743834D01*
X178255465Y-75763289D01*
X178236835Y-76000000D01*
X174054888Y-76000000D01*
X174054813Y-75996851D01*
X174035566Y-75737849D01*
X174034189Y-75728643D01*
X173977206Y-75476812D01*
X173974482Y-75467901D01*
X173882968Y-75232574D01*
X173876731Y-75226577D01*
X173868824Y-75229705D01*
X173111339Y-75987189D01*
X173103726Y-76001132D01*
X171395038Y-76001132D01*
X171396274Y-75998868D01*
X171396143Y-75997034D01*
X171391892Y-75990420D01*
X170636863Y-75235392D01*
X170624488Y-75228635D01*
X170620159Y-75231876D01*
X170540040Y-75422935D01*
X170537079Y-75431785D01*
X170473529Y-75682018D01*
X170471907Y-75691215D01*
X170446041Y-75948095D01*
X170445796Y-75957420D01*
X167850000Y-75957420D01*
X167850000Y-75801291D01*
X167849920Y-75798106D01*
X167849917Y-75798047D01*
X167848755Y-75788790D01*
X167810197Y-75597562D01*
X167806613Y-75585840D01*
X167732215Y-75407109D01*
X167726418Y-75396299D01*
X167618728Y-75235433D01*
X167610935Y-75225946D01*
X167474054Y-75089065D01*
X167464567Y-75081272D01*
X167303701Y-74973582D01*
X167292891Y-74967785D01*
X167114160Y-74893387D01*
X167102438Y-74889803D01*
X167067758Y-74882811D01*
X167054941Y-74883924D01*
X167050000Y-74899155D01*
X167050000Y-76406885D01*
X165900000Y-76406885D01*
X165900000Y-74897345D01*
X165896376Y-74885001D01*
X165880467Y-74883169D01*
X165847562Y-74889803D01*
X165835840Y-74893387D01*
X165657109Y-74967785D01*
X165646299Y-74973582D01*
X165485433Y-75081272D01*
X165475946Y-75089065D01*
X165339065Y-75225946D01*
X165331272Y-75235433D01*
X165230704Y-75385660D01*
X165176187Y-75431140D01*
X165105737Y-75439927D01*
X165041719Y-75409230D01*
X165004461Y-75348796D01*
X165000000Y-75315567D01*
X165000000Y-74377235D01*
X171479904Y-74377235D01*
X171481657Y-74383128D01*
X172237189Y-75138661D01*
X172251132Y-75146274D01*
X172252966Y-75146143D01*
X172259580Y-75141892D01*
X173013096Y-74388375D01*
X173019853Y-74376000D01*
X173015798Y-74370583D01*
X172930371Y-74328455D01*
X172921738Y-74324967D01*
X172675831Y-74246252D01*
X172666770Y-74244076D01*
X172411931Y-74202573D01*
X172402644Y-74201761D01*
X172144482Y-74198381D01*
X172135171Y-74198951D01*
X171879341Y-74233768D01*
X171870222Y-74235706D01*
X171622358Y-74307952D01*
X171613605Y-74311224D01*
X171490528Y-74367963D01*
X171479904Y-74377235D01*
X165000000Y-74377235D01*
X165000000Y-73326000D01*
X165020002Y-73257879D01*
X165073658Y-73211386D01*
X165126000Y-73200000D01*
X182874000Y-73200000D01*
X182942121Y-73220002D01*
G37*
%TD.AperFunction*%
%TD*%
%TA.AperFunction,Conductor*%
%TO.N,Solar Panel*%
G36*
X128441961Y-59220089D02*
G01*
X128488535Y-59273675D01*
X128500000Y-59326190D01*
X128500000Y-74010400D01*
X128479998Y-74078521D01*
X128426342Y-74125014D01*
X128374000Y-74136400D01*
X128229415Y-74136400D01*
X128214176Y-74140875D01*
X128212971Y-74142265D01*
X128211300Y-74149948D01*
X128211300Y-76883700D01*
X128191298Y-76951821D01*
X128137642Y-76998314D01*
X128085300Y-77009700D01*
X127137300Y-77009700D01*
X127069179Y-76989698D01*
X127022686Y-76936042D01*
X127011300Y-76883700D01*
X127011300Y-74154516D01*
X127006825Y-74139277D01*
X127005435Y-74138072D01*
X126997752Y-74136401D01*
X126926000Y-74136401D01*
X126857879Y-74116399D01*
X126811386Y-74062743D01*
X126800000Y-74010401D01*
X126800000Y-68650000D01*
X105800000Y-68650000D01*
X105800000Y-66639884D01*
X106955113Y-66639884D01*
X106959588Y-66655123D01*
X106960978Y-66656328D01*
X106968661Y-66657999D01*
X107199782Y-66657999D01*
X107206603Y-66657629D01*
X107257465Y-66652105D01*
X107272717Y-66648479D01*
X107393167Y-66603324D01*
X107408762Y-66594786D01*
X107510837Y-66518285D01*
X107523398Y-66505724D01*
X107599899Y-66403649D01*
X107608437Y-66388054D01*
X107653591Y-66267606D01*
X107657218Y-66252351D01*
X107662744Y-66201486D01*
X107663113Y-66194672D01*
X107663113Y-65968115D01*
X107658638Y-65952876D01*
X107657248Y-65951671D01*
X107649565Y-65950000D01*
X106973228Y-65950000D01*
X106957989Y-65954475D01*
X106956784Y-65955865D01*
X106955113Y-65963548D01*
X106955113Y-66639884D01*
X105800000Y-66639884D01*
X105800000Y-64731885D01*
X106955113Y-64731885D01*
X106959588Y-64747124D01*
X106960978Y-64748329D01*
X106968661Y-64750000D01*
X107644997Y-64750000D01*
X107660236Y-64745525D01*
X107661441Y-64744135D01*
X107663112Y-64736452D01*
X107663112Y-64505331D01*
X107662742Y-64498510D01*
X107657218Y-64447648D01*
X107653592Y-64432396D01*
X107608437Y-64311946D01*
X107599899Y-64296351D01*
X107523398Y-64194276D01*
X107510837Y-64181715D01*
X107408762Y-64105214D01*
X107393167Y-64096676D01*
X107272719Y-64051522D01*
X107257464Y-64047895D01*
X107206599Y-64042369D01*
X107199785Y-64042000D01*
X106973228Y-64042000D01*
X106957989Y-64046475D01*
X106956784Y-64047865D01*
X106955113Y-64055548D01*
X106955113Y-64731885D01*
X105800000Y-64731885D01*
X105800000Y-63755862D01*
X122198286Y-63755862D01*
X122203531Y-63762869D01*
X122205440Y-63763892D01*
X122459581Y-63878640D01*
X122467612Y-63881627D01*
X122734967Y-63960822D01*
X122743318Y-63962689D01*
X123018954Y-64004867D01*
X123027487Y-64005583D01*
X123306291Y-64009963D01*
X123314842Y-64009514D01*
X123591659Y-63976016D01*
X123600073Y-63974411D01*
X123869786Y-63903654D01*
X123877902Y-63900923D01*
X124135521Y-63794213D01*
X124143183Y-63790410D01*
X124189837Y-63763147D01*
X124199516Y-63752890D01*
X124196198Y-63744726D01*
X123212812Y-62761340D01*
X123198868Y-62753726D01*
X123197035Y-62753857D01*
X123190420Y-62758108D01*
X122205046Y-63743482D01*
X122198286Y-63755862D01*
X105800000Y-63755862D01*
X105800000Y-63650000D01*
X99100000Y-63650000D01*
X99100000Y-65063824D01*
X99079998Y-65131945D01*
X99059443Y-65151798D01*
X99050000Y-65170712D01*
X99050000Y-67522578D01*
X99054474Y-67537817D01*
X99056512Y-67539582D01*
X99094896Y-67599308D01*
X99100000Y-67634807D01*
X99100000Y-69163824D01*
X99079998Y-69231945D01*
X99059443Y-69251798D01*
X99050000Y-69270712D01*
X99050000Y-71622578D01*
X99054474Y-71637817D01*
X99056512Y-71639582D01*
X99094896Y-71699308D01*
X99100000Y-71734807D01*
X99100000Y-71924000D01*
X99079998Y-71992121D01*
X99026342Y-72038614D01*
X98974000Y-72050000D01*
X95456000Y-72050000D01*
X95387879Y-72029998D01*
X95341386Y-71976342D01*
X95330000Y-71924000D01*
X95330000Y-70972095D01*
X97542001Y-70972095D01*
X97542338Y-70978614D01*
X97552257Y-71074206D01*
X97555149Y-71087600D01*
X97606588Y-71241784D01*
X97612761Y-71254962D01*
X97698063Y-71392807D01*
X97707099Y-71404208D01*
X97821829Y-71518739D01*
X97833240Y-71527751D01*
X97971243Y-71612816D01*
X97984424Y-71618963D01*
X98032806Y-71635011D01*
X98046899Y-71635500D01*
X98050000Y-71629289D01*
X98050000Y-70968115D01*
X98045525Y-70952876D01*
X98044135Y-70951671D01*
X98036452Y-70950000D01*
X97560116Y-70950000D01*
X97544877Y-70954475D01*
X97543672Y-70955865D01*
X97542001Y-70963548D01*
X97542001Y-70972095D01*
X95330000Y-70972095D01*
X95330000Y-69931885D01*
X97542000Y-69931885D01*
X97546475Y-69947124D01*
X97547865Y-69948329D01*
X97555548Y-69950000D01*
X98031885Y-69950000D01*
X98047124Y-69945525D01*
X98048329Y-69944135D01*
X98050000Y-69936452D01*
X98050000Y-69277422D01*
X98046027Y-69263891D01*
X98039201Y-69262910D01*
X97983216Y-69281588D01*
X97970038Y-69287761D01*
X97832193Y-69373063D01*
X97820792Y-69382099D01*
X97706261Y-69496829D01*
X97697249Y-69508240D01*
X97612184Y-69646243D01*
X97606037Y-69659424D01*
X97554862Y-69813710D01*
X97551995Y-69827086D01*
X97542328Y-69921438D01*
X97542000Y-69927855D01*
X97542000Y-69931885D01*
X95330000Y-69931885D01*
X95330000Y-66872095D01*
X97542001Y-66872095D01*
X97542338Y-66878614D01*
X97552257Y-66974206D01*
X97555149Y-66987600D01*
X97606588Y-67141784D01*
X97612761Y-67154962D01*
X97698063Y-67292807D01*
X97707099Y-67304208D01*
X97821829Y-67418739D01*
X97833240Y-67427751D01*
X97971243Y-67512816D01*
X97984424Y-67518963D01*
X98032806Y-67535011D01*
X98046899Y-67535500D01*
X98050000Y-67529289D01*
X98050000Y-66868115D01*
X98045525Y-66852876D01*
X98044135Y-66851671D01*
X98036452Y-66850000D01*
X97560116Y-66850000D01*
X97544877Y-66854475D01*
X97543672Y-66855865D01*
X97542001Y-66863548D01*
X97542001Y-66872095D01*
X95330000Y-66872095D01*
X95330000Y-65831885D01*
X97542000Y-65831885D01*
X97546475Y-65847124D01*
X97547865Y-65848329D01*
X97555548Y-65850000D01*
X98031885Y-65850000D01*
X98047124Y-65845525D01*
X98048329Y-65844135D01*
X98050000Y-65836452D01*
X98050000Y-65177422D01*
X98046027Y-65163891D01*
X98039201Y-65162910D01*
X97983216Y-65181588D01*
X97970038Y-65187761D01*
X97832193Y-65273063D01*
X97820792Y-65282099D01*
X97706261Y-65396829D01*
X97697249Y-65408240D01*
X97612184Y-65546243D01*
X97606037Y-65559424D01*
X97554862Y-65713710D01*
X97551995Y-65727086D01*
X97542328Y-65821438D01*
X97542000Y-65827855D01*
X97542000Y-65831885D01*
X95330000Y-65831885D01*
X95330000Y-61882154D01*
X121087437Y-61882154D01*
X121103488Y-62160533D01*
X121104561Y-62169033D01*
X121158246Y-62442664D01*
X121160457Y-62450916D01*
X121250782Y-62714736D01*
X121254097Y-62722621D01*
X121337900Y-62889244D01*
X121347531Y-62899550D01*
X121354134Y-62897338D01*
X122338660Y-61912812D01*
X122345038Y-61901132D01*
X124053726Y-61901132D01*
X124053857Y-61902965D01*
X124058108Y-61909580D01*
X125040404Y-62891876D01*
X125052784Y-62898636D01*
X125059048Y-62893947D01*
X125119099Y-62783347D01*
X125122667Y-62775553D01*
X125221227Y-62514721D01*
X125223704Y-62506515D01*
X125285954Y-62234718D01*
X125287294Y-62226257D01*
X125312243Y-61946715D01*
X125312489Y-61941776D01*
X125312900Y-61902485D01*
X125312757Y-61897519D01*
X125293669Y-61617520D01*
X125292508Y-61609046D01*
X125235962Y-61335998D01*
X125233658Y-61327744D01*
X125140579Y-61064897D01*
X125137183Y-61057049D01*
X125061847Y-60911089D01*
X125052110Y-60900887D01*
X125045270Y-60903258D01*
X124061340Y-61887188D01*
X124053726Y-61901132D01*
X122345038Y-61901132D01*
X122346274Y-61898868D01*
X122346143Y-61897035D01*
X122341892Y-61890420D01*
X121359521Y-60908049D01*
X121347141Y-60901289D01*
X121341117Y-60905799D01*
X121271751Y-61036809D01*
X121268272Y-61044623D01*
X121172446Y-61306481D01*
X121170057Y-61314704D01*
X121110654Y-61587151D01*
X121109405Y-61595607D01*
X121087526Y-61873604D01*
X121087437Y-61882154D01*
X95330000Y-61882154D01*
X95330000Y-60046450D01*
X122199898Y-60046450D01*
X122203441Y-60054913D01*
X123187188Y-61038660D01*
X123201132Y-61046274D01*
X123202965Y-61046143D01*
X123209580Y-61041892D01*
X124194028Y-60057444D01*
X124200788Y-60045064D01*
X124195061Y-60037414D01*
X124182567Y-60029758D01*
X124174984Y-60025793D01*
X123919657Y-59913714D01*
X123911597Y-59910812D01*
X123643432Y-59834424D01*
X123635054Y-59832642D01*
X123358998Y-59793353D01*
X123350451Y-59792726D01*
X123071614Y-59791265D01*
X123063081Y-59791802D01*
X122786622Y-59828200D01*
X122778221Y-59829894D01*
X122509274Y-59903469D01*
X122501179Y-59906288D01*
X122244698Y-60015686D01*
X122237070Y-60019573D01*
X122209468Y-60036092D01*
X122199898Y-60046450D01*
X95330000Y-60046450D01*
X95330000Y-59375810D01*
X95350002Y-59307689D01*
X95403658Y-59261196D01*
X95455808Y-59249810D01*
X128373811Y-59200190D01*
X128441961Y-59220089D01*
G37*
%TD.AperFunction*%
%TD*%
%TA.AperFunction,Conductor*%
%TO.N,GND*%
G36*
X103155683Y-64569055D02*
G01*
X103202191Y-64622697D01*
X103212316Y-64692968D01*
X103201788Y-64728323D01*
X103123623Y-64895947D01*
X103119877Y-64906239D01*
X103063488Y-65116688D01*
X103061585Y-65127481D01*
X103042596Y-65344525D01*
X103042596Y-65355475D01*
X103061585Y-65572519D01*
X103063488Y-65583313D01*
X103103131Y-65731266D01*
X103110471Y-65743308D01*
X103112108Y-65743112D01*
X103116331Y-65740254D01*
X104266018Y-64590567D01*
X104328330Y-64556541D01*
X104399145Y-64561606D01*
X104444208Y-64590567D01*
X105000009Y-65146368D01*
X105000009Y-65553632D01*
X103969160Y-66584481D01*
X103962400Y-66596861D01*
X103963389Y-66598182D01*
X103967968Y-66600407D01*
X104121800Y-66641625D01*
X104132594Y-66643528D01*
X104349638Y-66662517D01*
X104360588Y-66662517D01*
X104577632Y-66643528D01*
X104588425Y-66641625D01*
X104798874Y-66585236D01*
X104809172Y-66581488D01*
X104820761Y-66576084D01*
X104890953Y-66565425D01*
X104955765Y-66594406D01*
X104994620Y-66653827D01*
X105000008Y-66690280D01*
X105000004Y-70077281D01*
X104980002Y-70145402D01*
X104926346Y-70191895D01*
X104856072Y-70201998D01*
X104820754Y-70191476D01*
X104664278Y-70118510D01*
X104653986Y-70114764D01*
X104443537Y-70058375D01*
X104432744Y-70056472D01*
X104215700Y-70037483D01*
X104204750Y-70037483D01*
X103987706Y-70056472D01*
X103976912Y-70058375D01*
X103828959Y-70098018D01*
X103816917Y-70105358D01*
X103817113Y-70106995D01*
X103819971Y-70111218D01*
X104864820Y-71156067D01*
X104898846Y-71218379D01*
X104901725Y-71245162D01*
X104901725Y-71454838D01*
X104881723Y-71522959D01*
X104864820Y-71543933D01*
X103824272Y-72584481D01*
X103817512Y-72596861D01*
X103818501Y-72598182D01*
X103823080Y-72600407D01*
X103976912Y-72641625D01*
X103987706Y-72643528D01*
X104204750Y-72662517D01*
X104215700Y-72662517D01*
X104432744Y-72643528D01*
X104443537Y-72641625D01*
X104653986Y-72585236D01*
X104664278Y-72581490D01*
X104820752Y-72508525D01*
X104890944Y-72497864D01*
X104955757Y-72526844D01*
X104994613Y-72586264D01*
X105000002Y-72622720D01*
X105000000Y-74293302D01*
X104999289Y-74306665D01*
X104600000Y-78050000D01*
X104600035Y-78053655D01*
X104600035Y-78053657D01*
X104610222Y-79114790D01*
X104590875Y-79183100D01*
X104537668Y-79230106D01*
X104484228Y-79242000D01*
X104268115Y-79242000D01*
X104252876Y-79246475D01*
X104251671Y-79247865D01*
X104250000Y-79255548D01*
X104250000Y-82119884D01*
X104254475Y-82135123D01*
X104255865Y-82136328D01*
X104263548Y-82137999D01*
X104514451Y-82137999D01*
X104582572Y-82158001D01*
X104629065Y-82211657D01*
X104640445Y-82262787D01*
X104712787Y-89798134D01*
X105200539Y-89798186D01*
X105268656Y-89818195D01*
X105315143Y-89871856D01*
X105325240Y-89942131D01*
X105295740Y-90006709D01*
X105289697Y-90013204D01*
X105181261Y-90121829D01*
X105172249Y-90133240D01*
X105087184Y-90271243D01*
X105081037Y-90284424D01*
X105060843Y-90345306D01*
X105060354Y-90359399D01*
X105066565Y-90362500D01*
X109326748Y-90362500D01*
X109340279Y-90358527D01*
X109341260Y-90351701D01*
X109318412Y-90283216D01*
X109312239Y-90270038D01*
X109226937Y-90132193D01*
X109217901Y-90120792D01*
X109110713Y-90013790D01*
X109076634Y-89951507D01*
X109081637Y-89880687D01*
X109124134Y-89823814D01*
X109190633Y-89798946D01*
X109199745Y-89798617D01*
X112892985Y-89799014D01*
X121928016Y-89799986D01*
X121996132Y-89819995D01*
X122042619Y-89873656D01*
X122054000Y-89925986D01*
X122054000Y-94724000D01*
X122033998Y-94792121D01*
X121980342Y-94838614D01*
X121928000Y-94850000D01*
X121811082Y-94850000D01*
X121742961Y-94829998D01*
X121696468Y-94776342D01*
X121686364Y-94706068D01*
X121696888Y-94670749D01*
X121703962Y-94655580D01*
X121720011Y-94607194D01*
X121720500Y-94593101D01*
X121714289Y-94590000D01*
X118112422Y-94590000D01*
X118098891Y-94593973D01*
X118097910Y-94600799D01*
X118116590Y-94656791D01*
X118123035Y-94670548D01*
X118133821Y-94740720D01*
X118104956Y-94805584D01*
X118045605Y-94844546D01*
X118008935Y-94850000D01*
X117727123Y-94850000D01*
X117659002Y-94829998D01*
X117612509Y-94776342D01*
X117602405Y-94706068D01*
X117619862Y-94657885D01*
X117637817Y-94628755D01*
X117643963Y-94615576D01*
X117660011Y-94567194D01*
X117660500Y-94553101D01*
X117654289Y-94550000D01*
X114052422Y-94550000D01*
X114038891Y-94553973D01*
X114037910Y-94560799D01*
X114056588Y-94616784D01*
X114062759Y-94629956D01*
X114079925Y-94657697D01*
X114098762Y-94726150D01*
X114077600Y-94793919D01*
X114023159Y-94839490D01*
X113972780Y-94850000D01*
X112077953Y-94850000D01*
X112009832Y-94829998D01*
X111963339Y-94776342D01*
X111953235Y-94706068D01*
X111963758Y-94670750D01*
X112041490Y-94504054D01*
X112045236Y-94493762D01*
X112101625Y-94283313D01*
X112103528Y-94272520D01*
X112122517Y-94055476D01*
X112122517Y-94044526D01*
X112103528Y-93827482D01*
X112101625Y-93816688D01*
X112061982Y-93668735D01*
X112054642Y-93656693D01*
X112053005Y-93656889D01*
X112048782Y-93659747D01*
X110899095Y-94809434D01*
X110836783Y-94843460D01*
X110765968Y-94838395D01*
X110720905Y-94809434D01*
X109575519Y-93664048D01*
X109563139Y-93657288D01*
X109561818Y-93658277D01*
X109559593Y-93662856D01*
X109518375Y-93816688D01*
X109516472Y-93827482D01*
X109497483Y-94044526D01*
X109497483Y-94055476D01*
X109516472Y-94272520D01*
X109518375Y-94283313D01*
X109574764Y-94493762D01*
X109578510Y-94504054D01*
X109656242Y-94670750D01*
X109666903Y-94740942D01*
X109637923Y-94805754D01*
X109578503Y-94844611D01*
X109542047Y-94850000D01*
X105370337Y-94850000D01*
X105302216Y-94829998D01*
X105255723Y-94776342D01*
X105245619Y-94706068D01*
X105256142Y-94670750D01*
X105331490Y-94509166D01*
X105335236Y-94498874D01*
X105391625Y-94288425D01*
X105393528Y-94277632D01*
X105412517Y-94060588D01*
X105412517Y-94049638D01*
X105393528Y-93832594D01*
X105391625Y-93821800D01*
X105351982Y-93673847D01*
X105344642Y-93661805D01*
X105343005Y-93662001D01*
X105338782Y-93664859D01*
X104189095Y-94814546D01*
X104126783Y-94848572D01*
X104055968Y-94843507D01*
X104010905Y-94814546D01*
X102865519Y-93669160D01*
X102851575Y-93661546D01*
X102834989Y-93662732D01*
X102765615Y-93647641D01*
X102715413Y-93597439D01*
X102700000Y-93537053D01*
X102700000Y-93436899D01*
X118099500Y-93436899D01*
X118105711Y-93440000D01*
X119316885Y-93440000D01*
X119332124Y-93435525D01*
X119333329Y-93434135D01*
X119335000Y-93426452D01*
X119335000Y-93421885D01*
X120485000Y-93421885D01*
X120489475Y-93437124D01*
X120490865Y-93438329D01*
X120498548Y-93440000D01*
X121707578Y-93440000D01*
X121721109Y-93436027D01*
X121722090Y-93429201D01*
X121703412Y-93373216D01*
X121697239Y-93360038D01*
X121611937Y-93222193D01*
X121602901Y-93210792D01*
X121488171Y-93096261D01*
X121476760Y-93087249D01*
X121338757Y-93002184D01*
X121325576Y-92996037D01*
X121171290Y-92944862D01*
X121157914Y-92941995D01*
X121063562Y-92932328D01*
X121057145Y-92932000D01*
X120503115Y-92932000D01*
X120487876Y-92936475D01*
X120486671Y-92937865D01*
X120485000Y-92945548D01*
X120485000Y-93421885D01*
X119335000Y-93421885D01*
X119335000Y-92950116D01*
X119330525Y-92934877D01*
X119329135Y-92933672D01*
X119321452Y-92932001D01*
X118762905Y-92932001D01*
X118756386Y-92932338D01*
X118660794Y-92942257D01*
X118647400Y-92945149D01*
X118493216Y-92996588D01*
X118480038Y-93002761D01*
X118342193Y-93088063D01*
X118330792Y-93097099D01*
X118216261Y-93211829D01*
X118207249Y-93223240D01*
X118122184Y-93361243D01*
X118116037Y-93374424D01*
X118099989Y-93422806D01*
X118099500Y-93436899D01*
X102700000Y-93436899D01*
X102700000Y-93396899D01*
X114039500Y-93396899D01*
X114045711Y-93400000D01*
X115256885Y-93400000D01*
X115272124Y-93395525D01*
X115273329Y-93394135D01*
X115275000Y-93386452D01*
X115275000Y-93381885D01*
X116425000Y-93381885D01*
X116429475Y-93397124D01*
X116430865Y-93398329D01*
X116438548Y-93400000D01*
X117647578Y-93400000D01*
X117661109Y-93396027D01*
X117662090Y-93389201D01*
X117643412Y-93333216D01*
X117637239Y-93320038D01*
X117551937Y-93182193D01*
X117542901Y-93170792D01*
X117428171Y-93056261D01*
X117416760Y-93047249D01*
X117278757Y-92962184D01*
X117265576Y-92956037D01*
X117111290Y-92904862D01*
X117097914Y-92901995D01*
X117003562Y-92892328D01*
X116997145Y-92892000D01*
X116443115Y-92892000D01*
X116427876Y-92896475D01*
X116426671Y-92897865D01*
X116425000Y-92905548D01*
X116425000Y-93381885D01*
X115275000Y-93381885D01*
X115275000Y-92910116D01*
X115270525Y-92894877D01*
X115269135Y-92893672D01*
X115261452Y-92892001D01*
X114702905Y-92892001D01*
X114696386Y-92892338D01*
X114600794Y-92902257D01*
X114587400Y-92905149D01*
X114433216Y-92956588D01*
X114420038Y-92962761D01*
X114282193Y-93048063D01*
X114270792Y-93057099D01*
X114156261Y-93171829D01*
X114147249Y-93183240D01*
X114062184Y-93321243D01*
X114056037Y-93334424D01*
X114039989Y-93382806D01*
X114039500Y-93396899D01*
X102700000Y-93396899D01*
X102700000Y-92810471D01*
X103706692Y-92810471D01*
X103706888Y-92812108D01*
X103709746Y-92816331D01*
X104087188Y-93193773D01*
X104101132Y-93201387D01*
X104102965Y-93201256D01*
X104109580Y-93197005D01*
X104485953Y-92820632D01*
X104492713Y-92808252D01*
X104491724Y-92806931D01*
X104488489Y-92805359D01*
X110416692Y-92805359D01*
X110416888Y-92806996D01*
X110419746Y-92811219D01*
X110797188Y-93188661D01*
X110811132Y-93196275D01*
X110812965Y-93196144D01*
X110819580Y-93191893D01*
X111195953Y-92815520D01*
X111202713Y-92803140D01*
X111201724Y-92801819D01*
X111197145Y-92799594D01*
X111043313Y-92758376D01*
X111032519Y-92756473D01*
X110815475Y-92737484D01*
X110804525Y-92737484D01*
X110587481Y-92756473D01*
X110576687Y-92758376D01*
X110428734Y-92798019D01*
X110416692Y-92805359D01*
X104488489Y-92805359D01*
X104487145Y-92804706D01*
X104333313Y-92763488D01*
X104322519Y-92761585D01*
X104105475Y-92742596D01*
X104094525Y-92742596D01*
X103877481Y-92761585D01*
X103866687Y-92763488D01*
X103718734Y-92803131D01*
X103706692Y-92810471D01*
X102700000Y-92810471D01*
X102700000Y-91573299D01*
X105058740Y-91573299D01*
X105081588Y-91641784D01*
X105087761Y-91654962D01*
X105173063Y-91792807D01*
X105182099Y-91804208D01*
X105296829Y-91918739D01*
X105308240Y-91927751D01*
X105446243Y-92012816D01*
X105459424Y-92018963D01*
X105613710Y-92070138D01*
X105627086Y-92073005D01*
X105721438Y-92082672D01*
X105727854Y-92083000D01*
X106581885Y-92083000D01*
X106597124Y-92078525D01*
X106598329Y-92077135D01*
X106600000Y-92069452D01*
X106600000Y-92064884D01*
X107800000Y-92064884D01*
X107804475Y-92080123D01*
X107805865Y-92081328D01*
X107813548Y-92082999D01*
X108672095Y-92082999D01*
X108678614Y-92082662D01*
X108774206Y-92072743D01*
X108787600Y-92069851D01*
X108941784Y-92018412D01*
X108954962Y-92012239D01*
X109092807Y-91926937D01*
X109104208Y-91917901D01*
X109218739Y-91803171D01*
X109227751Y-91791760D01*
X109312816Y-91653757D01*
X109318963Y-91640576D01*
X109339157Y-91579694D01*
X109339646Y-91565601D01*
X109333435Y-91562500D01*
X107818115Y-91562500D01*
X107802876Y-91566975D01*
X107801671Y-91568365D01*
X107800000Y-91576048D01*
X107800000Y-92064884D01*
X106600000Y-92064884D01*
X106600000Y-91580615D01*
X106595525Y-91565376D01*
X106594135Y-91564171D01*
X106586452Y-91562500D01*
X105073252Y-91562500D01*
X105059721Y-91566473D01*
X105058740Y-91573299D01*
X102700000Y-91573299D01*
X102700000Y-82264000D01*
X102720002Y-82195879D01*
X102773658Y-82149386D01*
X102826000Y-82138000D01*
X103031885Y-82138000D01*
X103047124Y-82133525D01*
X103048329Y-82132135D01*
X103050000Y-82124452D01*
X103050000Y-79260116D01*
X103045525Y-79244877D01*
X103044135Y-79243672D01*
X103036452Y-79242001D01*
X102826000Y-79242001D01*
X102757879Y-79221999D01*
X102711386Y-79168343D01*
X102700000Y-79116001D01*
X102700000Y-73350000D01*
X100026000Y-73350000D01*
X99957879Y-73329998D01*
X99911386Y-73276342D01*
X99900000Y-73224000D01*
X99900000Y-71736176D01*
X99920002Y-71668055D01*
X99940557Y-71648202D01*
X99950000Y-71629288D01*
X99950000Y-71622578D01*
X100950000Y-71622578D01*
X100953973Y-71636109D01*
X100960799Y-71637090D01*
X101016784Y-71618412D01*
X101029962Y-71612239D01*
X101167807Y-71526937D01*
X101179208Y-71517901D01*
X101293739Y-71403171D01*
X101302751Y-71391760D01*
X101325117Y-71355475D01*
X102897708Y-71355475D01*
X102916697Y-71572519D01*
X102918600Y-71583313D01*
X102958243Y-71731266D01*
X102965583Y-71743308D01*
X102967220Y-71743112D01*
X102971443Y-71740254D01*
X103348885Y-71362812D01*
X103356499Y-71348868D01*
X103356368Y-71347035D01*
X103352117Y-71340420D01*
X102975744Y-70964047D01*
X102963364Y-70957287D01*
X102962043Y-70958276D01*
X102959818Y-70962855D01*
X102918600Y-71116687D01*
X102916697Y-71127481D01*
X102897708Y-71344525D01*
X102897708Y-71355475D01*
X101325117Y-71355475D01*
X101387816Y-71253757D01*
X101393963Y-71240576D01*
X101445138Y-71086290D01*
X101448005Y-71072914D01*
X101457672Y-70978562D01*
X101458000Y-70972146D01*
X101458000Y-70968115D01*
X101453525Y-70952876D01*
X101452135Y-70951671D01*
X101444452Y-70950000D01*
X100968115Y-70950000D01*
X100952876Y-70954475D01*
X100951671Y-70955865D01*
X100950000Y-70963548D01*
X100950000Y-71622578D01*
X99950000Y-71622578D01*
X99950000Y-69931885D01*
X100950000Y-69931885D01*
X100954475Y-69947124D01*
X100955865Y-69948329D01*
X100963548Y-69950000D01*
X101439884Y-69950000D01*
X101455123Y-69945525D01*
X101456328Y-69944135D01*
X101457999Y-69936452D01*
X101457999Y-69927905D01*
X101457662Y-69921386D01*
X101447743Y-69825794D01*
X101444851Y-69812400D01*
X101393412Y-69658216D01*
X101387239Y-69645038D01*
X101301937Y-69507193D01*
X101292901Y-69495792D01*
X101178171Y-69381261D01*
X101166760Y-69372249D01*
X101028757Y-69287184D01*
X101015576Y-69281037D01*
X100967194Y-69264989D01*
X100953101Y-69264500D01*
X100950000Y-69270711D01*
X100950000Y-69931885D01*
X99950000Y-69931885D01*
X99950000Y-69277422D01*
X99945526Y-69262183D01*
X99943488Y-69260418D01*
X99905104Y-69200692D01*
X99900000Y-69165193D01*
X99900000Y-67636176D01*
X99920002Y-67568055D01*
X99940557Y-67548202D01*
X99950000Y-67529288D01*
X99950000Y-67522578D01*
X100950000Y-67522578D01*
X100953973Y-67536109D01*
X100960799Y-67537090D01*
X101016784Y-67518412D01*
X101029962Y-67512239D01*
X101167807Y-67426937D01*
X101179208Y-67417901D01*
X101293739Y-67303171D01*
X101302751Y-67291760D01*
X101387816Y-67153757D01*
X101393963Y-67140576D01*
X101445138Y-66986290D01*
X101448005Y-66972914D01*
X101457672Y-66878562D01*
X101458000Y-66872146D01*
X101458000Y-66868115D01*
X101453525Y-66852876D01*
X101452135Y-66851671D01*
X101444452Y-66850000D01*
X100968115Y-66850000D01*
X100952876Y-66854475D01*
X100951671Y-66855865D01*
X100950000Y-66863548D01*
X100950000Y-67522578D01*
X99950000Y-67522578D01*
X99950000Y-65831885D01*
X100950000Y-65831885D01*
X100954475Y-65847124D01*
X100955865Y-65848329D01*
X100963548Y-65850000D01*
X101439884Y-65850000D01*
X101455123Y-65845525D01*
X101456328Y-65844135D01*
X101457999Y-65836452D01*
X101457999Y-65827905D01*
X101457662Y-65821386D01*
X101447743Y-65725794D01*
X101444851Y-65712400D01*
X101393412Y-65558216D01*
X101387239Y-65545038D01*
X101301937Y-65407193D01*
X101292901Y-65395792D01*
X101178171Y-65281261D01*
X101166760Y-65272249D01*
X101028757Y-65187184D01*
X101015576Y-65181037D01*
X100967194Y-65164989D01*
X100953101Y-65164500D01*
X100950000Y-65170711D01*
X100950000Y-65831885D01*
X99950000Y-65831885D01*
X99950000Y-65177422D01*
X99945526Y-65162183D01*
X99943488Y-65160418D01*
X99905104Y-65100692D01*
X99900000Y-65065193D01*
X99900000Y-64675963D01*
X99920002Y-64607842D01*
X99973658Y-64561349D01*
X100025961Y-64549963D01*
X103087556Y-64549073D01*
X103155683Y-64569055D01*
G37*
%TD.AperFunction*%
%TD*%
%TA.AperFunction,Conductor*%
%TO.N,Net-(Q3-Pad3)*%
G36*
X146942121Y-95970002D02*
G01*
X146988614Y-96023658D01*
X147000000Y-96076000D01*
X147000000Y-99164000D01*
X146979998Y-99232121D01*
X146926342Y-99278614D01*
X146874000Y-99290000D01*
X140726000Y-99290000D01*
X140657879Y-99269998D01*
X140611386Y-99216342D01*
X140600000Y-99164000D01*
X140600000Y-96076000D01*
X140620002Y-96007879D01*
X140673658Y-95961386D01*
X140726000Y-95950000D01*
X146874000Y-95950000D01*
X146942121Y-95970002D01*
G37*
%TD.AperFunction*%
%TD*%
%TA.AperFunction,Conductor*%
%TO.N,GND*%
G36*
X125742121Y-72920002D02*
G01*
X125788614Y-72973658D01*
X125800000Y-73026000D01*
X125800000Y-74010400D01*
X125779998Y-74078521D01*
X125726342Y-74125014D01*
X125674000Y-74136400D01*
X124860815Y-74136400D01*
X124845576Y-74140875D01*
X124844371Y-74142265D01*
X124842700Y-74149948D01*
X124842700Y-76537700D01*
X124822698Y-76605821D01*
X124769042Y-76652314D01*
X124716700Y-76663700D01*
X124460700Y-76663700D01*
X124392579Y-76643698D01*
X124346086Y-76590042D01*
X124334700Y-76537700D01*
X124334700Y-74154516D01*
X124330225Y-74139277D01*
X124328835Y-74138072D01*
X124321152Y-74136401D01*
X123526000Y-74136401D01*
X123457879Y-74116399D01*
X123411386Y-74062743D01*
X123400000Y-74010401D01*
X123400000Y-73026000D01*
X123420002Y-72957879D01*
X123473658Y-72911386D01*
X123526000Y-72900000D01*
X125674000Y-72900000D01*
X125742121Y-72920002D01*
G37*
%TD.AperFunction*%
%TD*%
%TA.AperFunction,Conductor*%
%TO.N,24V Solar*%
G36*
X102734121Y-95820002D02*
G01*
X102780614Y-95873658D01*
X102792000Y-95926000D01*
X102792000Y-96036998D01*
X102796475Y-96052237D01*
X102797865Y-96053442D01*
X102805548Y-96055113D01*
X105389884Y-96055113D01*
X105405123Y-96050638D01*
X105406328Y-96049248D01*
X105407999Y-96041565D01*
X105407999Y-95926000D01*
X105428001Y-95857879D01*
X105481657Y-95811386D01*
X105533999Y-95800000D01*
X109376000Y-95800000D01*
X109444121Y-95820002D01*
X109490614Y-95873658D01*
X109502000Y-95926000D01*
X109502000Y-96031886D01*
X109506475Y-96047125D01*
X109507865Y-96048330D01*
X109515548Y-96050001D01*
X112099884Y-96050001D01*
X112115123Y-96045526D01*
X112116328Y-96044136D01*
X112117999Y-96036453D01*
X112117999Y-95926000D01*
X112138001Y-95857879D01*
X112191657Y-95811386D01*
X112243999Y-95800000D01*
X114173714Y-95800000D01*
X114241835Y-95820002D01*
X114288328Y-95873658D01*
X114298432Y-95943932D01*
X114268938Y-96008512D01*
X114262887Y-96015018D01*
X114156261Y-96121829D01*
X114147249Y-96133240D01*
X114062182Y-96271245D01*
X114056038Y-96284423D01*
X114015113Y-96407806D01*
X114014624Y-96421899D01*
X114020836Y-96425000D01*
X117672599Y-96425000D01*
X117686130Y-96421027D01*
X117687111Y-96414201D01*
X117643412Y-96283216D01*
X117637239Y-96270038D01*
X117551937Y-96132193D01*
X117542901Y-96120792D01*
X117437098Y-96015173D01*
X117403019Y-95952890D01*
X117408022Y-95882070D01*
X117450519Y-95825198D01*
X117517018Y-95800329D01*
X117526116Y-95800000D01*
X118283839Y-95800000D01*
X118351960Y-95820002D01*
X118398453Y-95873658D01*
X118408557Y-95943932D01*
X118379063Y-96008512D01*
X118350142Y-96033144D01*
X118342193Y-96038063D01*
X118330792Y-96047099D01*
X118216261Y-96161829D01*
X118207249Y-96173240D01*
X118122182Y-96311245D01*
X118116038Y-96324423D01*
X118075113Y-96447806D01*
X118074624Y-96461899D01*
X118080836Y-96465000D01*
X121732599Y-96465000D01*
X121746130Y-96461027D01*
X121747111Y-96454201D01*
X121703412Y-96323216D01*
X121697239Y-96310038D01*
X121611937Y-96172193D01*
X121602901Y-96160792D01*
X121488171Y-96046261D01*
X121476759Y-96037249D01*
X121470290Y-96033261D01*
X121422795Y-95980489D01*
X121411371Y-95910418D01*
X121439644Y-95845294D01*
X121498637Y-95805793D01*
X121536404Y-95800000D01*
X122541801Y-95800000D01*
X122609922Y-95820002D01*
X122656415Y-95873658D01*
X122666519Y-95943932D01*
X122637025Y-96008512D01*
X122631948Y-96013965D01*
X122555214Y-96116351D01*
X122546676Y-96131946D01*
X122501522Y-96252394D01*
X122497895Y-96267649D01*
X122492369Y-96318514D01*
X122492000Y-96325328D01*
X122492000Y-99051885D01*
X122496475Y-99067124D01*
X122497865Y-99068329D01*
X122505548Y-99070000D01*
X129289884Y-99070000D01*
X129305123Y-99065525D01*
X129306328Y-99064135D01*
X129307999Y-99056452D01*
X129307999Y-96325331D01*
X129307629Y-96318510D01*
X129302105Y-96267648D01*
X129298479Y-96252396D01*
X129253324Y-96131946D01*
X129244786Y-96116351D01*
X129162904Y-96007096D01*
X129164204Y-96006122D01*
X129135078Y-95952783D01*
X129140143Y-95881968D01*
X129182690Y-95825132D01*
X129249210Y-95800321D01*
X129258199Y-95800000D01*
X130374000Y-95800000D01*
X130442121Y-95820002D01*
X130488614Y-95873658D01*
X130500000Y-95926000D01*
X130500000Y-103925868D01*
X130479998Y-103993989D01*
X130426342Y-104040482D01*
X130370454Y-104048518D01*
X130370401Y-104051433D01*
X130338187Y-104050851D01*
X130335000Y-104057508D01*
X130335000Y-105936196D01*
X130338973Y-105949727D01*
X130364434Y-105953387D01*
X130407330Y-105952620D01*
X130467733Y-105989929D01*
X130498377Y-106053972D01*
X130500000Y-106074132D01*
X130500000Y-106500000D01*
X100000000Y-106500000D01*
X100000000Y-105411112D01*
X129035694Y-105411112D01*
X129035742Y-105411347D01*
X129082715Y-105561243D01*
X129088921Y-105574988D01*
X129169824Y-105708574D01*
X129179131Y-105720443D01*
X129289557Y-105830869D01*
X129301426Y-105840176D01*
X129435014Y-105921080D01*
X129448753Y-105927283D01*
X129517715Y-105948894D01*
X129531813Y-105949149D01*
X129535000Y-105942492D01*
X129535000Y-105418115D01*
X129530525Y-105402876D01*
X129529135Y-105401671D01*
X129521452Y-105400000D01*
X129051401Y-105400000D01*
X129036857Y-105404270D01*
X129035694Y-105411112D01*
X100000000Y-105411112D01*
X100000000Y-104587639D01*
X129036059Y-104587639D01*
X129037865Y-104596835D01*
X129049761Y-104600000D01*
X129516885Y-104600000D01*
X129532124Y-104595525D01*
X129533329Y-104594135D01*
X129535000Y-104586452D01*
X129535000Y-104063804D01*
X129531027Y-104050273D01*
X129523723Y-104049223D01*
X129448753Y-104072717D01*
X129435014Y-104078920D01*
X129301426Y-104159824D01*
X129289557Y-104169131D01*
X129179131Y-104279557D01*
X129169824Y-104291426D01*
X129088921Y-104425012D01*
X129082715Y-104438757D01*
X129036059Y-104587639D01*
X100000000Y-104587639D01*
X100000000Y-102814669D01*
X122492001Y-102814669D01*
X122492371Y-102821490D01*
X122497895Y-102872352D01*
X122501521Y-102887604D01*
X122546676Y-103008054D01*
X122555214Y-103023649D01*
X122631715Y-103125724D01*
X122644276Y-103138285D01*
X122746351Y-103214786D01*
X122761946Y-103223324D01*
X122882394Y-103268478D01*
X122897649Y-103272105D01*
X122948514Y-103277631D01*
X122955328Y-103278000D01*
X125381885Y-103278000D01*
X125397124Y-103273525D01*
X125398329Y-103272135D01*
X125400000Y-103264452D01*
X125400000Y-103259884D01*
X126400000Y-103259884D01*
X126404475Y-103275123D01*
X126405865Y-103276328D01*
X126413548Y-103277999D01*
X128844669Y-103277999D01*
X128851490Y-103277629D01*
X128902352Y-103272105D01*
X128917604Y-103268479D01*
X129038054Y-103223324D01*
X129053649Y-103214786D01*
X129155724Y-103138285D01*
X129168285Y-103125724D01*
X129244786Y-103023649D01*
X129253324Y-103008054D01*
X129298478Y-102887606D01*
X129302105Y-102872351D01*
X129307631Y-102821486D01*
X129308000Y-102814672D01*
X129308000Y-100088115D01*
X129303525Y-100072876D01*
X129302135Y-100071671D01*
X129294452Y-100070000D01*
X126418115Y-100070000D01*
X126402876Y-100074475D01*
X126401671Y-100075865D01*
X126400000Y-100083548D01*
X126400000Y-103259884D01*
X125400000Y-103259884D01*
X125400000Y-100088115D01*
X125395525Y-100072876D01*
X125394135Y-100071671D01*
X125386452Y-100070000D01*
X122510116Y-100070000D01*
X122494877Y-100074475D01*
X122493672Y-100075865D01*
X122492001Y-100083548D01*
X122492001Y-102814669D01*
X100000000Y-102814669D01*
X100000000Y-97399782D01*
X102792001Y-97399782D01*
X102792371Y-97406603D01*
X102797895Y-97457465D01*
X102801521Y-97472717D01*
X102846676Y-97593167D01*
X102855214Y-97608762D01*
X102931715Y-97710837D01*
X102944276Y-97723398D01*
X103046351Y-97799899D01*
X103061946Y-97808437D01*
X103182394Y-97853591D01*
X103197649Y-97857218D01*
X103248514Y-97862744D01*
X103255328Y-97863113D01*
X103581885Y-97863113D01*
X103597124Y-97858638D01*
X103598329Y-97857248D01*
X103600000Y-97849565D01*
X103600000Y-97844997D01*
X104600000Y-97844997D01*
X104604475Y-97860236D01*
X104605865Y-97861441D01*
X104613548Y-97863112D01*
X104944669Y-97863112D01*
X104951490Y-97862742D01*
X105002352Y-97857218D01*
X105017604Y-97853592D01*
X105138054Y-97808437D01*
X105153649Y-97799899D01*
X105255724Y-97723398D01*
X105268285Y-97710837D01*
X105344786Y-97608762D01*
X105353324Y-97593167D01*
X105398478Y-97472719D01*
X105402105Y-97457464D01*
X105407631Y-97406599D01*
X105408000Y-97399785D01*
X105408000Y-97394670D01*
X109502001Y-97394670D01*
X109502371Y-97401491D01*
X109507895Y-97452353D01*
X109511521Y-97467605D01*
X109556676Y-97588055D01*
X109565214Y-97603650D01*
X109641715Y-97705725D01*
X109654276Y-97718286D01*
X109756351Y-97794787D01*
X109771946Y-97803325D01*
X109892394Y-97848479D01*
X109907649Y-97852106D01*
X109958514Y-97857632D01*
X109965328Y-97858001D01*
X110291885Y-97858001D01*
X110307124Y-97853526D01*
X110308329Y-97852136D01*
X110310000Y-97844453D01*
X110310000Y-97839885D01*
X111310000Y-97839885D01*
X111314475Y-97855124D01*
X111315865Y-97856329D01*
X111323548Y-97858000D01*
X111654669Y-97858000D01*
X111661490Y-97857630D01*
X111712352Y-97852106D01*
X111727604Y-97848480D01*
X111848054Y-97803325D01*
X111863649Y-97794787D01*
X111965724Y-97718286D01*
X111978285Y-97705725D01*
X112054786Y-97603650D01*
X112063324Y-97588055D01*
X112108478Y-97467607D01*
X112112105Y-97452352D01*
X112113903Y-97435799D01*
X114012889Y-97435799D01*
X114056588Y-97566784D01*
X114062761Y-97579962D01*
X114148063Y-97717807D01*
X114157099Y-97729208D01*
X114271829Y-97843739D01*
X114283240Y-97852751D01*
X114421243Y-97937816D01*
X114434424Y-97943963D01*
X114588710Y-97995138D01*
X114602086Y-97998005D01*
X114696438Y-98007672D01*
X114702854Y-98008000D01*
X115331885Y-98008000D01*
X115347124Y-98003525D01*
X115348329Y-98002135D01*
X115350000Y-97994452D01*
X115350000Y-97989884D01*
X116350000Y-97989884D01*
X116354475Y-98005123D01*
X116355865Y-98006328D01*
X116363548Y-98007999D01*
X116997095Y-98007999D01*
X117003614Y-98007662D01*
X117099206Y-97997743D01*
X117112600Y-97994851D01*
X117266784Y-97943412D01*
X117279962Y-97937239D01*
X117417807Y-97851937D01*
X117429208Y-97842901D01*
X117543739Y-97728171D01*
X117552751Y-97716760D01*
X117637818Y-97578755D01*
X117643962Y-97565577D01*
X117673741Y-97475799D01*
X118072889Y-97475799D01*
X118116588Y-97606784D01*
X118122761Y-97619962D01*
X118208063Y-97757807D01*
X118217099Y-97769208D01*
X118331829Y-97883739D01*
X118343240Y-97892751D01*
X118481243Y-97977816D01*
X118494424Y-97983963D01*
X118648710Y-98035138D01*
X118662086Y-98038005D01*
X118756438Y-98047672D01*
X118762854Y-98048000D01*
X119391885Y-98048000D01*
X119407124Y-98043525D01*
X119408329Y-98042135D01*
X119410000Y-98034452D01*
X119410000Y-98029884D01*
X120410000Y-98029884D01*
X120414475Y-98045123D01*
X120415865Y-98046328D01*
X120423548Y-98047999D01*
X121057095Y-98047999D01*
X121063614Y-98047662D01*
X121159206Y-98037743D01*
X121172600Y-98034851D01*
X121326784Y-97983412D01*
X121339962Y-97977239D01*
X121477807Y-97891937D01*
X121489208Y-97882901D01*
X121603739Y-97768171D01*
X121612751Y-97756760D01*
X121697818Y-97618755D01*
X121703962Y-97605577D01*
X121744887Y-97482194D01*
X121745376Y-97468101D01*
X121739164Y-97465000D01*
X120428115Y-97465000D01*
X120412876Y-97469475D01*
X120411671Y-97470865D01*
X120410000Y-97478548D01*
X120410000Y-98029884D01*
X119410000Y-98029884D01*
X119410000Y-97483115D01*
X119405525Y-97467876D01*
X119404135Y-97466671D01*
X119396452Y-97465000D01*
X118087401Y-97465000D01*
X118073870Y-97468973D01*
X118072889Y-97475799D01*
X117673741Y-97475799D01*
X117684887Y-97442194D01*
X117685376Y-97428101D01*
X117679164Y-97425000D01*
X116368115Y-97425000D01*
X116352876Y-97429475D01*
X116351671Y-97430865D01*
X116350000Y-97438548D01*
X116350000Y-97989884D01*
X115350000Y-97989884D01*
X115350000Y-97443115D01*
X115345525Y-97427876D01*
X115344135Y-97426671D01*
X115336452Y-97425000D01*
X114027401Y-97425000D01*
X114013870Y-97428973D01*
X114012889Y-97435799D01*
X112113903Y-97435799D01*
X112117631Y-97401487D01*
X112118000Y-97394673D01*
X112118000Y-97068116D01*
X112113525Y-97052877D01*
X112112135Y-97051672D01*
X112104452Y-97050001D01*
X111328115Y-97050001D01*
X111312876Y-97054476D01*
X111311671Y-97055866D01*
X111310000Y-97063549D01*
X111310000Y-97839885D01*
X110310000Y-97839885D01*
X110310000Y-97068116D01*
X110305525Y-97052877D01*
X110304135Y-97051672D01*
X110296452Y-97050001D01*
X109520116Y-97050001D01*
X109504877Y-97054476D01*
X109503672Y-97055866D01*
X109502001Y-97063549D01*
X109502001Y-97394670D01*
X105408000Y-97394670D01*
X105408000Y-97073228D01*
X105403525Y-97057989D01*
X105402135Y-97056784D01*
X105394452Y-97055113D01*
X104618115Y-97055113D01*
X104602876Y-97059588D01*
X104601671Y-97060978D01*
X104600000Y-97068661D01*
X104600000Y-97844997D01*
X103600000Y-97844997D01*
X103600000Y-97073228D01*
X103595525Y-97057989D01*
X103594135Y-97056784D01*
X103586452Y-97055113D01*
X102810116Y-97055113D01*
X102794877Y-97059588D01*
X102793672Y-97060978D01*
X102792001Y-97068661D01*
X102792001Y-97399782D01*
X100000000Y-97399782D01*
X100000000Y-95926000D01*
X100020002Y-95857879D01*
X100073658Y-95811386D01*
X100126000Y-95800000D01*
X102666000Y-95800000D01*
X102734121Y-95820002D01*
G37*
%TD.AperFunction*%
%TD*%
%TA.AperFunction,Conductor*%
%TO.N,Net-(Q8-Pad2)*%
G36*
X154542121Y-117220002D02*
G01*
X154588614Y-117273658D01*
X154600000Y-117326000D01*
X154600000Y-125374000D01*
X154579998Y-125442121D01*
X154526342Y-125488614D01*
X154474000Y-125500000D01*
X152880884Y-125500000D01*
X152812763Y-125479998D01*
X152766270Y-125426342D01*
X152756166Y-125356068D01*
X152785660Y-125291488D01*
X152825156Y-125260994D01*
X152952665Y-125198114D01*
X152959802Y-125193993D01*
X153002936Y-125165171D01*
X153011225Y-125155253D01*
X153003969Y-125141075D01*
X151862812Y-123999919D01*
X151848868Y-123992305D01*
X151847034Y-123992436D01*
X151840422Y-123996685D01*
X150694810Y-125142296D01*
X150688616Y-125153640D01*
X150698498Y-125166130D01*
X150740198Y-125193993D01*
X150747335Y-125198114D01*
X150874844Y-125260994D01*
X150927093Y-125309062D01*
X150945060Y-125377748D01*
X150923041Y-125445244D01*
X150868026Y-125490120D01*
X150819116Y-125500000D01*
X141126000Y-125500000D01*
X141057879Y-125479998D01*
X141011386Y-125426342D01*
X141000000Y-125374000D01*
X141000000Y-123284119D01*
X149637532Y-123284119D01*
X149655922Y-123564705D01*
X149656996Y-123572863D01*
X149711853Y-123848649D01*
X149713986Y-123856609D01*
X149804373Y-124122878D01*
X149807519Y-124130473D01*
X149931886Y-124382665D01*
X149936007Y-124389802D01*
X149964829Y-124432936D01*
X149974747Y-124441225D01*
X149988925Y-124433969D01*
X151130081Y-123292812D01*
X151136459Y-123281132D01*
X152562305Y-123281132D01*
X152562436Y-123282966D01*
X152566685Y-123289578D01*
X153712296Y-124435190D01*
X153723640Y-124441384D01*
X153736130Y-124431502D01*
X153763993Y-124389802D01*
X153768114Y-124382665D01*
X153892481Y-124130473D01*
X153895627Y-124122878D01*
X153986014Y-123856609D01*
X153988147Y-123848649D01*
X154043004Y-123572863D01*
X154044078Y-123564705D01*
X154062468Y-123284119D01*
X154062468Y-123275881D01*
X154044078Y-122995295D01*
X154043004Y-122987137D01*
X153988147Y-122711351D01*
X153986014Y-122703391D01*
X153895627Y-122437122D01*
X153892481Y-122429527D01*
X153768114Y-122177335D01*
X153763993Y-122170198D01*
X153735171Y-122127064D01*
X153725253Y-122118775D01*
X153711075Y-122126031D01*
X152569919Y-123267188D01*
X152562305Y-123281132D01*
X151136459Y-123281132D01*
X151137695Y-123278868D01*
X151137564Y-123277034D01*
X151133315Y-123270422D01*
X149987704Y-122124810D01*
X149976360Y-122118616D01*
X149963870Y-122128498D01*
X149936007Y-122170198D01*
X149931886Y-122177335D01*
X149807519Y-122429527D01*
X149804373Y-122437122D01*
X149713986Y-122703391D01*
X149711853Y-122711351D01*
X149656996Y-122987137D01*
X149655922Y-122995295D01*
X149637532Y-123275881D01*
X149637532Y-123284119D01*
X141000000Y-123284119D01*
X141000000Y-122611900D01*
X141020002Y-122543779D01*
X141073658Y-122497286D01*
X141143932Y-122487182D01*
X141170230Y-122493918D01*
X141182395Y-122498478D01*
X141197649Y-122502105D01*
X141248514Y-122507631D01*
X141255328Y-122508000D01*
X143981885Y-122508000D01*
X143997124Y-122503525D01*
X143998329Y-122502135D01*
X144000000Y-122494452D01*
X144000000Y-122489884D01*
X145000000Y-122489884D01*
X145004475Y-122505123D01*
X145005865Y-122506328D01*
X145013548Y-122507999D01*
X147744669Y-122507999D01*
X147751490Y-122507629D01*
X147802352Y-122502105D01*
X147817604Y-122498479D01*
X147938054Y-122453324D01*
X147953649Y-122444786D01*
X148055724Y-122368285D01*
X148068285Y-122355724D01*
X148144786Y-122253649D01*
X148153324Y-122238054D01*
X148198478Y-122117606D01*
X148202105Y-122102351D01*
X148207631Y-122051486D01*
X148208000Y-122044672D01*
X148208000Y-121404747D01*
X150688775Y-121404747D01*
X150696031Y-121418925D01*
X151837188Y-122560081D01*
X151851132Y-122567695D01*
X151852966Y-122567564D01*
X151859578Y-122563315D01*
X153005190Y-121417704D01*
X153011384Y-121406360D01*
X153001502Y-121393870D01*
X152959802Y-121366007D01*
X152952665Y-121361886D01*
X152700473Y-121237519D01*
X152692878Y-121234373D01*
X152426609Y-121143986D01*
X152418649Y-121141853D01*
X152142863Y-121086996D01*
X152134705Y-121085922D01*
X151854119Y-121067532D01*
X151845881Y-121067532D01*
X151565295Y-121085922D01*
X151557137Y-121086996D01*
X151281351Y-121141853D01*
X151273391Y-121143986D01*
X151007122Y-121234373D01*
X150999527Y-121237519D01*
X150747335Y-121361886D01*
X150740198Y-121366007D01*
X150697064Y-121394829D01*
X150688775Y-121404747D01*
X148208000Y-121404747D01*
X148207999Y-119618115D01*
X148203524Y-119602876D01*
X148202134Y-119601671D01*
X148194451Y-119600000D01*
X145018115Y-119600000D01*
X145002876Y-119604475D01*
X145001671Y-119605865D01*
X145000000Y-119613548D01*
X145000000Y-122489884D01*
X144000000Y-122489884D01*
X144000000Y-118726000D01*
X144020002Y-118657879D01*
X144073658Y-118611386D01*
X144126000Y-118600000D01*
X148189884Y-118600000D01*
X148205123Y-118595525D01*
X148206328Y-118594135D01*
X148207999Y-118586452D01*
X148207999Y-117326000D01*
X148228001Y-117257879D01*
X148281657Y-117211386D01*
X148333999Y-117200000D01*
X154474000Y-117200000D01*
X154542121Y-117220002D01*
G37*
%TD.AperFunction*%
%TD*%
%TA.AperFunction,Conductor*%
%TO.N,24V Solar*%
G36*
X130500000Y-107974000D02*
G01*
X130479998Y-108042121D01*
X130426342Y-108088614D01*
X130374000Y-108100000D01*
X126626000Y-108100000D01*
X126557879Y-108079998D01*
X126511386Y-108026342D01*
X126500000Y-107974000D01*
X126500000Y-106500000D01*
X130500000Y-106500000D01*
X130500000Y-107974000D01*
G37*
%TD.AperFunction*%
%TD*%
%TA.AperFunction,Conductor*%
%TO.N,24V Solar_2*%
G36*
X132233731Y-96020002D02*
G01*
X132280224Y-96073658D01*
X132290328Y-96143932D01*
X132260834Y-96208512D01*
X132194753Y-96248583D01*
X132182398Y-96251520D01*
X132061946Y-96296676D01*
X132046351Y-96305214D01*
X131944276Y-96381715D01*
X131931715Y-96394276D01*
X131855214Y-96496351D01*
X131846676Y-96511946D01*
X131801522Y-96632394D01*
X131797895Y-96647649D01*
X131792369Y-96698514D01*
X131792000Y-96705328D01*
X131792000Y-99131885D01*
X131796475Y-99147124D01*
X131797865Y-99148329D01*
X131805548Y-99150000D01*
X135874000Y-99150000D01*
X135942121Y-99170002D01*
X135988614Y-99223658D01*
X136000000Y-99276000D01*
X136000000Y-103039884D01*
X136004475Y-103055123D01*
X136005865Y-103056328D01*
X136013548Y-103057999D01*
X138574000Y-103057999D01*
X138642121Y-103078001D01*
X138688614Y-103131657D01*
X138700000Y-103183999D01*
X138700000Y-103500000D01*
X142974000Y-103500000D01*
X143042121Y-103520002D01*
X143088614Y-103573658D01*
X143100000Y-103626000D01*
X143100000Y-112800000D01*
X138355502Y-112800000D01*
X138287381Y-112779998D01*
X138240888Y-112726342D01*
X138230784Y-112656068D01*
X138260278Y-112591488D01*
X138266407Y-112584905D01*
X138380869Y-112470443D01*
X138390176Y-112458574D01*
X138471079Y-112324988D01*
X138477285Y-112311243D01*
X138523941Y-112162361D01*
X138522135Y-112153165D01*
X138510239Y-112150000D01*
X137351000Y-112150000D01*
X137282879Y-112129998D01*
X137236386Y-112076342D01*
X137225000Y-112024000D01*
X137225000Y-111331885D01*
X138025000Y-111331885D01*
X138029475Y-111347124D01*
X138030865Y-111348329D01*
X138038548Y-111350000D01*
X138508599Y-111350000D01*
X138523143Y-111345730D01*
X138524306Y-111338888D01*
X138524258Y-111338653D01*
X138477285Y-111188757D01*
X138471079Y-111175012D01*
X138390176Y-111041426D01*
X138380869Y-111029557D01*
X138270443Y-110919131D01*
X138258574Y-110909824D01*
X138172633Y-110857776D01*
X138124727Y-110805378D01*
X138112754Y-110735399D01*
X138140515Y-110670055D01*
X138172633Y-110642224D01*
X138258574Y-110590176D01*
X138270443Y-110580869D01*
X138380869Y-110470443D01*
X138390176Y-110458574D01*
X138471079Y-110324988D01*
X138477285Y-110311243D01*
X138523941Y-110162361D01*
X138522135Y-110153165D01*
X138510239Y-110150000D01*
X138043115Y-110150000D01*
X138027876Y-110154475D01*
X138026671Y-110155865D01*
X138025000Y-110163548D01*
X138025000Y-110686194D01*
X138033472Y-110715047D01*
X138033472Y-110786044D01*
X138026223Y-110804954D01*
X138025000Y-110807509D01*
X138025000Y-111331885D01*
X137225000Y-111331885D01*
X137225000Y-110813806D01*
X137216528Y-110784953D01*
X137216528Y-110713956D01*
X137223777Y-110695046D01*
X137225000Y-110692491D01*
X137225000Y-109476000D01*
X137245002Y-109407879D01*
X137298658Y-109361386D01*
X137351000Y-109350000D01*
X138508599Y-109350000D01*
X138523143Y-109345730D01*
X138524306Y-109338888D01*
X138524258Y-109338653D01*
X138477285Y-109188757D01*
X138471079Y-109175012D01*
X138390176Y-109041426D01*
X138380869Y-109029557D01*
X138270443Y-108919131D01*
X138258574Y-108909824D01*
X138124988Y-108828921D01*
X138111243Y-108822715D01*
X138023549Y-108795234D01*
X137964527Y-108755777D01*
X137936207Y-108690673D01*
X137947580Y-108620594D01*
X137995035Y-108567788D01*
X138023549Y-108554766D01*
X138111243Y-108527285D01*
X138124988Y-108521079D01*
X138258574Y-108440176D01*
X138270443Y-108430869D01*
X138380869Y-108320443D01*
X138390176Y-108308574D01*
X138471079Y-108174988D01*
X138477285Y-108161243D01*
X138523941Y-108012361D01*
X138522135Y-108003165D01*
X138510239Y-108000000D01*
X137351000Y-108000000D01*
X137282879Y-107979998D01*
X137236386Y-107926342D01*
X137225000Y-107874000D01*
X137225000Y-107181885D01*
X138025000Y-107181885D01*
X138029475Y-107197124D01*
X138030865Y-107198329D01*
X138038548Y-107200000D01*
X138508599Y-107200000D01*
X138523143Y-107195730D01*
X138524306Y-107188888D01*
X138524258Y-107188653D01*
X138477285Y-107038757D01*
X138471079Y-107025012D01*
X138390176Y-106891426D01*
X138380869Y-106879557D01*
X138270443Y-106769131D01*
X138258574Y-106759824D01*
X138124986Y-106678920D01*
X138111247Y-106672717D01*
X138042285Y-106651106D01*
X138028187Y-106650851D01*
X138025000Y-106657508D01*
X138025000Y-107181885D01*
X137225000Y-107181885D01*
X137225000Y-106663804D01*
X137221027Y-106650273D01*
X137213723Y-106649223D01*
X137138753Y-106672717D01*
X137125014Y-106678920D01*
X137091272Y-106699355D01*
X137022642Y-106717534D01*
X136955079Y-106695724D01*
X136910032Y-106640848D01*
X136900000Y-106591579D01*
X136900000Y-106500000D01*
X131326000Y-106500000D01*
X131257879Y-106479998D01*
X131211386Y-106426342D01*
X131200000Y-106374000D01*
X131200000Y-105936196D01*
X131985000Y-105936196D01*
X131988973Y-105949727D01*
X131996277Y-105950777D01*
X132071247Y-105927283D01*
X132084986Y-105921080D01*
X132218574Y-105840176D01*
X132230443Y-105830869D01*
X132340869Y-105720443D01*
X132350176Y-105708574D01*
X132431079Y-105574988D01*
X132437285Y-105561243D01*
X132483941Y-105412361D01*
X132482135Y-105403165D01*
X132470239Y-105400000D01*
X132003115Y-105400000D01*
X131987876Y-105404475D01*
X131986671Y-105405865D01*
X131985000Y-105413548D01*
X131985000Y-105936196D01*
X131200000Y-105936196D01*
X131200000Y-104581885D01*
X131985000Y-104581885D01*
X131989475Y-104597124D01*
X131990865Y-104598329D01*
X131998548Y-104600000D01*
X132468599Y-104600000D01*
X132483143Y-104595730D01*
X132484306Y-104588888D01*
X132484258Y-104588653D01*
X132437285Y-104438757D01*
X132431079Y-104425012D01*
X132350176Y-104291426D01*
X132340869Y-104279557D01*
X132230443Y-104169131D01*
X132218574Y-104159824D01*
X132084986Y-104078920D01*
X132071247Y-104072717D01*
X132002285Y-104051106D01*
X131988187Y-104050851D01*
X131985000Y-104057508D01*
X131985000Y-104581885D01*
X131200000Y-104581885D01*
X131200000Y-102594669D01*
X131792001Y-102594669D01*
X131792371Y-102601490D01*
X131797895Y-102652352D01*
X131801521Y-102667604D01*
X131846676Y-102788054D01*
X131855214Y-102803649D01*
X131931715Y-102905724D01*
X131944276Y-102918285D01*
X132046351Y-102994786D01*
X132061946Y-103003324D01*
X132182394Y-103048478D01*
X132197649Y-103052105D01*
X132248514Y-103057631D01*
X132255328Y-103058000D01*
X134981885Y-103058000D01*
X134997124Y-103053525D01*
X134998329Y-103052135D01*
X135000000Y-103044452D01*
X135000000Y-100168115D01*
X134995525Y-100152876D01*
X134994135Y-100151671D01*
X134986452Y-100150000D01*
X131810116Y-100150000D01*
X131794877Y-100154475D01*
X131793672Y-100155865D01*
X131792001Y-100163548D01*
X131792001Y-102594669D01*
X131200000Y-102594669D01*
X131200000Y-96126000D01*
X131220002Y-96057879D01*
X131273658Y-96011386D01*
X131326000Y-96000000D01*
X132165610Y-96000000D01*
X132233731Y-96020002D01*
G37*
%TD.AperFunction*%
%TD*%
%TA.AperFunction,Conductor*%
%TO.N,Net-(Q1-Pad3)*%
G36*
X152542121Y-92900002D02*
G01*
X152588614Y-92953658D01*
X152600000Y-93006000D01*
X152600000Y-94469884D01*
X152604475Y-94485123D01*
X152605865Y-94486328D01*
X152613548Y-94487999D01*
X153244669Y-94487999D01*
X153251490Y-94487629D01*
X153302352Y-94482105D01*
X153317604Y-94478479D01*
X153438058Y-94433323D01*
X153451070Y-94426198D01*
X153520426Y-94411027D01*
X153586975Y-94435761D01*
X153600000Y-94447358D01*
X153600000Y-94450000D01*
X153609520Y-94456902D01*
X153609522Y-94456904D01*
X155380295Y-95740714D01*
X155423706Y-95796893D01*
X155429853Y-95867623D01*
X155396784Y-95930448D01*
X155335000Y-95965422D01*
X155262107Y-95960707D01*
X155237605Y-95951522D01*
X155222351Y-95947895D01*
X155171486Y-95942369D01*
X155164672Y-95942000D01*
X155038115Y-95942000D01*
X155022876Y-95946475D01*
X155021671Y-95947865D01*
X155020000Y-95955548D01*
X155020000Y-97924000D01*
X154999998Y-97992121D01*
X154946342Y-98038614D01*
X154894000Y-98050000D01*
X153430116Y-98050000D01*
X153414877Y-98054475D01*
X153413672Y-98055865D01*
X153412001Y-98063548D01*
X153412001Y-98694669D01*
X153412371Y-98701490D01*
X153417895Y-98752352D01*
X153421521Y-98767604D01*
X153466676Y-98888054D01*
X153475214Y-98903649D01*
X153551715Y-99005724D01*
X153564274Y-99018283D01*
X153570800Y-99023174D01*
X153613314Y-99080034D01*
X153618339Y-99150853D01*
X153584279Y-99213146D01*
X153521948Y-99247136D01*
X153495234Y-99250000D01*
X152176000Y-99250000D01*
X152107879Y-99229998D01*
X152061386Y-99176342D01*
X152050000Y-99124000D01*
X152050000Y-97031885D01*
X153412000Y-97031885D01*
X153416475Y-97047124D01*
X153417865Y-97048329D01*
X153425548Y-97050000D01*
X154001885Y-97050000D01*
X154017124Y-97045525D01*
X154018329Y-97044135D01*
X154020000Y-97036452D01*
X154020000Y-95960116D01*
X154015525Y-95944877D01*
X154014135Y-95943672D01*
X154006452Y-95942001D01*
X153875331Y-95942001D01*
X153868510Y-95942371D01*
X153817648Y-95947895D01*
X153802396Y-95951521D01*
X153681946Y-95996676D01*
X153666351Y-96005214D01*
X153564276Y-96081715D01*
X153551715Y-96094276D01*
X153475214Y-96196351D01*
X153466676Y-96211946D01*
X153421522Y-96332394D01*
X153417895Y-96347649D01*
X153412369Y-96398514D01*
X153412000Y-96405328D01*
X153412000Y-97031885D01*
X152050000Y-97031885D01*
X152050000Y-95950000D01*
X150871842Y-94700438D01*
X150839663Y-94637152D01*
X150846808Y-94566516D01*
X150891007Y-94510955D01*
X150963518Y-94488000D01*
X151581885Y-94488000D01*
X151597124Y-94483525D01*
X151598329Y-94482135D01*
X151600000Y-94474452D01*
X151600000Y-93006000D01*
X151620002Y-92937879D01*
X151673658Y-92891386D01*
X151726000Y-92880000D01*
X152474000Y-92880000D01*
X152542121Y-92900002D01*
G37*
%TD.AperFunction*%
%TD*%
%TA.AperFunction,Conductor*%
%TO.N,Net-(C10-Pad1)*%
G36*
X119042121Y-73770002D02*
G01*
X119088614Y-73823658D01*
X119100000Y-73876000D01*
X119100000Y-79550000D01*
X132474000Y-79550000D01*
X132542121Y-79570002D01*
X132588614Y-79623658D01*
X132600000Y-79676000D01*
X132600000Y-94724000D01*
X132579998Y-94792121D01*
X132526342Y-94838614D01*
X132474000Y-94850000D01*
X126425953Y-94850000D01*
X126357832Y-94829998D01*
X126311339Y-94776342D01*
X126299953Y-94724047D01*
X126297571Y-88353387D01*
X126310515Y-88302755D01*
X126309315Y-88302305D01*
X126357671Y-88173315D01*
X126360445Y-88165916D01*
X126367200Y-88103734D01*
X126367200Y-84476866D01*
X126360445Y-84414684D01*
X126310860Y-84282417D01*
X126310859Y-84282412D01*
X126309315Y-84278295D01*
X126309762Y-84278128D01*
X126296028Y-84224488D01*
X126295409Y-82568144D01*
X126295409Y-82568143D01*
X126295402Y-82550026D01*
X117642926Y-82599753D01*
X117574692Y-82580143D01*
X117559535Y-82568845D01*
X116143333Y-81337671D01*
X116105046Y-81277883D01*
X116100000Y-81242581D01*
X116100000Y-73876000D01*
X116120002Y-73807879D01*
X116173658Y-73761386D01*
X116226000Y-73750000D01*
X118974000Y-73750000D01*
X119042121Y-73770002D01*
G37*
%TD.AperFunction*%
%TD*%
M02*
