%TF.GenerationSoftware,KiCad,Pcbnew,(6.0.1)*%
%TF.CreationDate,2022-03-29T14:06:02-05:00*%
%TF.ProjectId,power_board,706f7765-725f-4626-9f61-72642e6b6963,rev?*%
%TF.SameCoordinates,Original*%
%TF.FileFunction,Legend,Top*%
%TF.FilePolarity,Positive*%
%FSLAX46Y46*%
G04 Gerber Fmt 4.6, Leading zero omitted, Abs format (unit mm)*
G04 Created by KiCad (PCBNEW (6.0.1)) date 2022-03-29 14:06:02*
%MOMM*%
%LPD*%
G01*
G04 APERTURE LIST*
%ADD10C,0.200000*%
%ADD11C,0.300000*%
%ADD12C,0.150000*%
%ADD13C,0.120000*%
G04 APERTURE END LIST*
D10*
X128541421Y-113000000D02*
G75*
G03*
X128541421Y-113000000I-141421J0D01*
G01*
X130141421Y-76900000D02*
G75*
G03*
X130141421Y-76900000I-141421J0D01*
G01*
X134441421Y-131400000D02*
G75*
G03*
X134441421Y-131400000I-141421J0D01*
G01*
X89900000Y-119300000D02*
X89900000Y-139300000D01*
X149941421Y-79100000D02*
G75*
G03*
X149941421Y-79100000I-141421J0D01*
G01*
X128541421Y-120300000D02*
G75*
G03*
X128541421Y-120300000I-141421J0D01*
G01*
X101541421Y-78600000D02*
G75*
G03*
X101541421Y-78600000I-141421J0D01*
G01*
X155141421Y-133700000D02*
G75*
G03*
X155141421Y-133700000I-141421J0D01*
G01*
X128541421Y-106900000D02*
G75*
G03*
X128541421Y-106900000I-141421J0D01*
G01*
X111341421Y-83400000D02*
G75*
G03*
X111341421Y-83400000I-141421J0D01*
G01*
D11*
X151035714Y-147692857D02*
X151250000Y-147764285D01*
X151321428Y-147835714D01*
X151392857Y-147978571D01*
X151392857Y-148192857D01*
X151321428Y-148335714D01*
X151250000Y-148407142D01*
X151107142Y-148478571D01*
X150535714Y-148478571D01*
X150535714Y-146978571D01*
X151035714Y-146978571D01*
X151178571Y-147050000D01*
X151250000Y-147121428D01*
X151321428Y-147264285D01*
X151321428Y-147407142D01*
X151250000Y-147550000D01*
X151178571Y-147621428D01*
X151035714Y-147692857D01*
X150535714Y-147692857D01*
X151821428Y-146978571D02*
X152678571Y-146978571D01*
X152250000Y-148478571D02*
X152250000Y-146978571D01*
X153178571Y-148478571D02*
X153178571Y-146978571D01*
X154035714Y-148478571D01*
X154035714Y-146978571D01*
X155535714Y-148478571D02*
X154678571Y-148478571D01*
X155107142Y-148478571D02*
X155107142Y-146978571D01*
X154964285Y-147192857D01*
X154821428Y-147335714D01*
X154678571Y-147407142D01*
X121657142Y-150678571D02*
X121657142Y-149178571D01*
X122514285Y-150678571D01*
X122514285Y-149178571D01*
X123442857Y-150678571D02*
X123300000Y-150607142D01*
X123228571Y-150535714D01*
X123157142Y-150392857D01*
X123157142Y-149964285D01*
X123228571Y-149821428D01*
X123300000Y-149750000D01*
X123442857Y-149678571D01*
X123657142Y-149678571D01*
X123800000Y-149750000D01*
X123871428Y-149821428D01*
X123942857Y-149964285D01*
X123942857Y-150392857D01*
X123871428Y-150535714D01*
X123800000Y-150607142D01*
X123657142Y-150678571D01*
X123442857Y-150678571D01*
X124585714Y-150678571D02*
X124585714Y-149678571D01*
X124585714Y-149178571D02*
X124514285Y-149250000D01*
X124585714Y-149321428D01*
X124657142Y-149250000D01*
X124585714Y-149178571D01*
X124585714Y-149321428D01*
X125228571Y-150607142D02*
X125371428Y-150678571D01*
X125657142Y-150678571D01*
X125800000Y-150607142D01*
X125871428Y-150464285D01*
X125871428Y-150392857D01*
X125800000Y-150250000D01*
X125657142Y-150178571D01*
X125442857Y-150178571D01*
X125300000Y-150107142D01*
X125228571Y-149964285D01*
X125228571Y-149892857D01*
X125300000Y-149750000D01*
X125442857Y-149678571D01*
X125657142Y-149678571D01*
X125800000Y-149750000D01*
X126371428Y-149678571D02*
X126728571Y-150678571D01*
X127085714Y-149678571D02*
X126728571Y-150678571D01*
X126585714Y-151035714D01*
X126514285Y-151107142D01*
X126371428Y-151178571D01*
X94714286Y-124707142D02*
X94928572Y-124778571D01*
X95285715Y-124778571D01*
X95428572Y-124707142D01*
X95500000Y-124635714D01*
X95571429Y-124492857D01*
X95571429Y-124350000D01*
X95500000Y-124207142D01*
X95428572Y-124135714D01*
X95285715Y-124064285D01*
X95000000Y-123992857D01*
X94857143Y-123921428D01*
X94785715Y-123850000D01*
X94714286Y-123707142D01*
X94714286Y-123564285D01*
X94785715Y-123421428D01*
X94857143Y-123350000D01*
X95000000Y-123278571D01*
X95357143Y-123278571D01*
X95571429Y-123350000D01*
X96214286Y-124778571D02*
X96214286Y-123278571D01*
X96571429Y-123278571D01*
X96785715Y-123350000D01*
X96928572Y-123492857D01*
X97000000Y-123635714D01*
X97071429Y-123921428D01*
X97071429Y-124135714D01*
X97000000Y-124421428D01*
X96928572Y-124564285D01*
X96785715Y-124707142D01*
X96571429Y-124778571D01*
X96214286Y-124778571D01*
X97642857Y-124350000D02*
X98357143Y-124350000D01*
X97500000Y-124778571D02*
X98000000Y-123278571D01*
X98500000Y-124778571D01*
X144492857Y-67942500D02*
X144350000Y-67871071D01*
X144135714Y-67871071D01*
X143921428Y-67942500D01*
X143778571Y-68085357D01*
X143707142Y-68228214D01*
X143635714Y-68513928D01*
X143635714Y-68728214D01*
X143707142Y-69013928D01*
X143778571Y-69156785D01*
X143921428Y-69299642D01*
X144135714Y-69371071D01*
X144278571Y-69371071D01*
X144492857Y-69299642D01*
X144564285Y-69228214D01*
X144564285Y-68728214D01*
X144278571Y-68728214D01*
X145207142Y-69371071D02*
X145207142Y-68371071D01*
X145207142Y-68656785D02*
X145278571Y-68513928D01*
X145350000Y-68442500D01*
X145492857Y-68371071D01*
X145635714Y-68371071D01*
X146135714Y-69371071D02*
X146135714Y-68371071D01*
X146135714Y-67871071D02*
X146064285Y-67942500D01*
X146135714Y-68013928D01*
X146207142Y-67942500D01*
X146135714Y-67871071D01*
X146135714Y-68013928D01*
X147492857Y-69371071D02*
X147492857Y-67871071D01*
X147492857Y-69299642D02*
X147350000Y-69371071D01*
X147064285Y-69371071D01*
X146921428Y-69299642D01*
X146850000Y-69228214D01*
X146778571Y-69085357D01*
X146778571Y-68656785D01*
X146850000Y-68513928D01*
X146921428Y-68442500D01*
X147064285Y-68371071D01*
X147350000Y-68371071D01*
X147492857Y-68442500D01*
X144778571Y-71643214D02*
X144707142Y-71714642D01*
X144492857Y-71786071D01*
X144350000Y-71786071D01*
X144135714Y-71714642D01*
X143992857Y-71571785D01*
X143921428Y-71428928D01*
X143850000Y-71143214D01*
X143850000Y-70928928D01*
X143921428Y-70643214D01*
X143992857Y-70500357D01*
X144135714Y-70357500D01*
X144350000Y-70286071D01*
X144492857Y-70286071D01*
X144707142Y-70357500D01*
X144778571Y-70428928D01*
X145207142Y-70786071D02*
X145778571Y-70786071D01*
X145421428Y-70286071D02*
X145421428Y-71571785D01*
X145492857Y-71714642D01*
X145635714Y-71786071D01*
X145778571Y-71786071D01*
X146278571Y-71786071D02*
X146278571Y-70786071D01*
X146278571Y-71071785D02*
X146350000Y-70928928D01*
X146421428Y-70857500D01*
X146564285Y-70786071D01*
X146707142Y-70786071D01*
X147421428Y-71786071D02*
X147278571Y-71714642D01*
X147207142Y-71571785D01*
X147207142Y-70286071D01*
X169164285Y-148578571D02*
X169164285Y-147078571D01*
X169664285Y-148150000D01*
X170164285Y-147078571D01*
X170164285Y-148578571D01*
X171735714Y-148435714D02*
X171664285Y-148507142D01*
X171450000Y-148578571D01*
X171307142Y-148578571D01*
X171092857Y-148507142D01*
X170950000Y-148364285D01*
X170878571Y-148221428D01*
X170807142Y-147935714D01*
X170807142Y-147721428D01*
X170878571Y-147435714D01*
X170950000Y-147292857D01*
X171092857Y-147150000D01*
X171307142Y-147078571D01*
X171450000Y-147078571D01*
X171664285Y-147150000D01*
X171735714Y-147221428D01*
X172378571Y-147078571D02*
X172378571Y-148292857D01*
X172450000Y-148435714D01*
X172521428Y-148507142D01*
X172664285Y-148578571D01*
X172950000Y-148578571D01*
X173092857Y-148507142D01*
X173164285Y-148435714D01*
X173235714Y-148292857D01*
X173235714Y-147078571D01*
X95571428Y-136350000D02*
X95428571Y-136278571D01*
X95214286Y-136278571D01*
X95000000Y-136350000D01*
X94857143Y-136492857D01*
X94785714Y-136635714D01*
X94714286Y-136921428D01*
X94714286Y-137135714D01*
X94785714Y-137421428D01*
X94857143Y-137564285D01*
X95000000Y-137707142D01*
X95214286Y-137778571D01*
X95357143Y-137778571D01*
X95571428Y-137707142D01*
X95642857Y-137635714D01*
X95642857Y-137135714D01*
X95357143Y-137135714D01*
X96285714Y-137778571D02*
X96285714Y-136278571D01*
X97142857Y-137778571D01*
X97142857Y-136278571D01*
X97857143Y-137778571D02*
X97857143Y-136278571D01*
X98214286Y-136278571D01*
X98428571Y-136350000D01*
X98571428Y-136492857D01*
X98642857Y-136635714D01*
X98714286Y-136921428D01*
X98714286Y-137135714D01*
X98642857Y-137421428D01*
X98571428Y-137564285D01*
X98428571Y-137707142D01*
X98214286Y-137778571D01*
X97857143Y-137778571D01*
X176357142Y-109907142D02*
X177500000Y-109907142D01*
X176928571Y-110478571D02*
X176928571Y-109335714D01*
X178142857Y-109121428D02*
X178214285Y-109050000D01*
X178357142Y-108978571D01*
X178714285Y-108978571D01*
X178857142Y-109050000D01*
X178928571Y-109121428D01*
X179000000Y-109264285D01*
X179000000Y-109407142D01*
X178928571Y-109621428D01*
X178071428Y-110478571D01*
X179000000Y-110478571D01*
X180285714Y-109478571D02*
X180285714Y-110478571D01*
X179928571Y-108907142D02*
X179571428Y-109978571D01*
X180500000Y-109978571D01*
X180857142Y-108978571D02*
X181357142Y-110478571D01*
X181857142Y-108978571D01*
X166135714Y-150092857D02*
X166350000Y-150164285D01*
X166421428Y-150235714D01*
X166492857Y-150378571D01*
X166492857Y-150592857D01*
X166421428Y-150735714D01*
X166350000Y-150807142D01*
X166207142Y-150878571D01*
X165635714Y-150878571D01*
X165635714Y-149378571D01*
X166135714Y-149378571D01*
X166278571Y-149450000D01*
X166350000Y-149521428D01*
X166421428Y-149664285D01*
X166421428Y-149807142D01*
X166350000Y-149950000D01*
X166278571Y-150021428D01*
X166135714Y-150092857D01*
X165635714Y-150092857D01*
X166921428Y-149378571D02*
X167778571Y-149378571D01*
X167350000Y-150878571D02*
X167350000Y-149378571D01*
X168278571Y-150878571D02*
X168278571Y-149378571D01*
X169135714Y-150878571D01*
X169135714Y-149378571D01*
X170635714Y-150878571D02*
X169778571Y-150878571D01*
X170207142Y-150878571D02*
X170207142Y-149378571D01*
X170064285Y-149592857D01*
X169921428Y-149735714D01*
X169778571Y-149807142D01*
X114914285Y-133078571D02*
X114200000Y-133078571D01*
X114128571Y-133792857D01*
X114200000Y-133721428D01*
X114342857Y-133650000D01*
X114700000Y-133650000D01*
X114842857Y-133721428D01*
X114914285Y-133792857D01*
X114985714Y-133935714D01*
X114985714Y-134292857D01*
X114914285Y-134435714D01*
X114842857Y-134507142D01*
X114700000Y-134578571D01*
X114342857Y-134578571D01*
X114200000Y-134507142D01*
X114128571Y-134435714D01*
X115414285Y-133078571D02*
X115914285Y-134578571D01*
X116414285Y-133078571D01*
X158335714Y-147792857D02*
X158550000Y-147864285D01*
X158621428Y-147935714D01*
X158692857Y-148078571D01*
X158692857Y-148292857D01*
X158621428Y-148435714D01*
X158550000Y-148507142D01*
X158407142Y-148578571D01*
X157835714Y-148578571D01*
X157835714Y-147078571D01*
X158335714Y-147078571D01*
X158478571Y-147150000D01*
X158550000Y-147221428D01*
X158621428Y-147364285D01*
X158621428Y-147507142D01*
X158550000Y-147650000D01*
X158478571Y-147721428D01*
X158335714Y-147792857D01*
X157835714Y-147792857D01*
X159121428Y-147078571D02*
X159978571Y-147078571D01*
X159550000Y-148578571D02*
X159550000Y-147078571D01*
X160478571Y-148578571D02*
X160478571Y-147078571D01*
X161335714Y-148578571D01*
X161335714Y-147078571D01*
X161978571Y-147221428D02*
X162050000Y-147150000D01*
X162192857Y-147078571D01*
X162550000Y-147078571D01*
X162692857Y-147150000D01*
X162764285Y-147221428D01*
X162835714Y-147364285D01*
X162835714Y-147507142D01*
X162764285Y-147721428D01*
X161907142Y-148578571D01*
X162835714Y-148578571D01*
X122057142Y-133150000D02*
X121914285Y-133078571D01*
X121700000Y-133078571D01*
X121485714Y-133150000D01*
X121342857Y-133292857D01*
X121271428Y-133435714D01*
X121200000Y-133721428D01*
X121200000Y-133935714D01*
X121271428Y-134221428D01*
X121342857Y-134364285D01*
X121485714Y-134507142D01*
X121700000Y-134578571D01*
X121842857Y-134578571D01*
X122057142Y-134507142D01*
X122128571Y-134435714D01*
X122128571Y-133935714D01*
X121842857Y-133935714D01*
X122771428Y-134578571D02*
X122771428Y-133078571D01*
X123628571Y-134578571D01*
X123628571Y-133078571D01*
X124342857Y-134578571D02*
X124342857Y-133078571D01*
X124700000Y-133078571D01*
X124914285Y-133150000D01*
X125057142Y-133292857D01*
X125128571Y-133435714D01*
X125200000Y-133721428D01*
X125200000Y-133935714D01*
X125128571Y-134221428D01*
X125057142Y-134364285D01*
X124914285Y-134507142D01*
X124700000Y-134578571D01*
X124342857Y-134578571D01*
X132664285Y-150662028D02*
X132664285Y-149162028D01*
X133164285Y-150233457D01*
X133664285Y-149162028D01*
X133664285Y-150662028D01*
X135235714Y-150519171D02*
X135164285Y-150590599D01*
X134950000Y-150662028D01*
X134807142Y-150662028D01*
X134592857Y-150590599D01*
X134450000Y-150447742D01*
X134378571Y-150304885D01*
X134307142Y-150019171D01*
X134307142Y-149804885D01*
X134378571Y-149519171D01*
X134450000Y-149376314D01*
X134592857Y-149233457D01*
X134807142Y-149162028D01*
X134950000Y-149162028D01*
X135164285Y-149233457D01*
X135235714Y-149304885D01*
X135878571Y-149162028D02*
X135878571Y-150376314D01*
X135950000Y-150519171D01*
X136021428Y-150590599D01*
X136164285Y-150662028D01*
X136450000Y-150662028D01*
X136592857Y-150590599D01*
X136664285Y-150519171D01*
X136735714Y-150376314D01*
X136735714Y-149162028D01*
X89728571Y-118578571D02*
X89728571Y-117078571D01*
X90228571Y-118150000D01*
X90728571Y-117078571D01*
X90728571Y-118578571D01*
X92300000Y-118435714D02*
X92228571Y-118507142D01*
X92014285Y-118578571D01*
X91871428Y-118578571D01*
X91657142Y-118507142D01*
X91514285Y-118364285D01*
X91442857Y-118221428D01*
X91371428Y-117935714D01*
X91371428Y-117721428D01*
X91442857Y-117435714D01*
X91514285Y-117292857D01*
X91657142Y-117150000D01*
X91871428Y-117078571D01*
X92014285Y-117078571D01*
X92228571Y-117150000D01*
X92300000Y-117221428D01*
X92942857Y-117078571D02*
X92942857Y-118292857D01*
X93014285Y-118435714D01*
X93085714Y-118507142D01*
X93228571Y-118578571D01*
X93514285Y-118578571D01*
X93657142Y-118507142D01*
X93728571Y-118435714D01*
X93800000Y-118292857D01*
X93800000Y-117078571D01*
X94157142Y-118721428D02*
X95300000Y-118721428D01*
X95657142Y-118578571D02*
X95657142Y-117078571D01*
X96371428Y-118578571D02*
X96371428Y-117078571D01*
X97228571Y-118578571D01*
X97228571Y-117078571D01*
X97942857Y-118578571D02*
X97942857Y-117078571D01*
X98514285Y-117078571D01*
X98657142Y-117150000D01*
X98728571Y-117221428D01*
X98800000Y-117364285D01*
X98800000Y-117578571D01*
X98728571Y-117721428D01*
X98657142Y-117792857D01*
X98514285Y-117864285D01*
X97942857Y-117864285D01*
X99442857Y-117078571D02*
X99442857Y-118292857D01*
X99514285Y-118435714D01*
X99585714Y-118507142D01*
X99728571Y-118578571D01*
X100014285Y-118578571D01*
X100157142Y-118507142D01*
X100228571Y-118435714D01*
X100300000Y-118292857D01*
X100300000Y-117078571D01*
X100800000Y-117078571D02*
X101657142Y-117078571D01*
X101228571Y-118578571D02*
X101228571Y-117078571D01*
X102085714Y-118507142D02*
X102300000Y-118578571D01*
X102657142Y-118578571D01*
X102800000Y-118507142D01*
X102871428Y-118435714D01*
X102942857Y-118292857D01*
X102942857Y-118150000D01*
X102871428Y-118007142D01*
X102800000Y-117935714D01*
X102657142Y-117864285D01*
X102371428Y-117792857D01*
X102228571Y-117721428D01*
X102157142Y-117650000D01*
X102085714Y-117507142D01*
X102085714Y-117364285D01*
X102157142Y-117221428D01*
X102228571Y-117150000D01*
X102371428Y-117078571D01*
X102728571Y-117078571D01*
X102942857Y-117150000D01*
X94785714Y-129478571D02*
X94785714Y-127978571D01*
X95357142Y-127978571D01*
X95499999Y-128050000D01*
X95571428Y-128121428D01*
X95642857Y-128264285D01*
X95642857Y-128478571D01*
X95571428Y-128621428D01*
X95499999Y-128692857D01*
X95357142Y-128764285D01*
X94785714Y-128764285D01*
X95928571Y-129621428D02*
X97071428Y-129621428D01*
X98285714Y-129478571D02*
X97785714Y-128764285D01*
X97428571Y-129478571D02*
X97428571Y-127978571D01*
X97999999Y-127978571D01*
X98142857Y-128050000D01*
X98214285Y-128121428D01*
X98285714Y-128264285D01*
X98285714Y-128478571D01*
X98214285Y-128621428D01*
X98142857Y-128692857D01*
X97999999Y-128764285D01*
X97428571Y-128764285D01*
X98928571Y-128692857D02*
X99428571Y-128692857D01*
X99642857Y-129478571D02*
X98928571Y-129478571D01*
X98928571Y-127978571D01*
X99642857Y-127978571D01*
X100214285Y-129407142D02*
X100428571Y-129478571D01*
X100785714Y-129478571D01*
X100928571Y-129407142D01*
X100999999Y-129335714D01*
X101071428Y-129192857D01*
X101071428Y-129050000D01*
X100999999Y-128907142D01*
X100928571Y-128835714D01*
X100785714Y-128764285D01*
X100499999Y-128692857D01*
X100357142Y-128621428D01*
X100285714Y-128550000D01*
X100214285Y-128407142D01*
X100214285Y-128264285D01*
X100285714Y-128121428D01*
X100357142Y-128050000D01*
X100499999Y-127978571D01*
X100857142Y-127978571D01*
X101071428Y-128050000D01*
X125557142Y-147250000D02*
X125414285Y-147178571D01*
X125200000Y-147178571D01*
X124985714Y-147250000D01*
X124842857Y-147392857D01*
X124771428Y-147535714D01*
X124700000Y-147821428D01*
X124700000Y-148035714D01*
X124771428Y-148321428D01*
X124842857Y-148464285D01*
X124985714Y-148607142D01*
X125200000Y-148678571D01*
X125342857Y-148678571D01*
X125557142Y-148607142D01*
X125628571Y-148535714D01*
X125628571Y-148035714D01*
X125342857Y-148035714D01*
X126271428Y-148678571D02*
X126271428Y-147178571D01*
X127128571Y-148678571D01*
X127128571Y-147178571D01*
X127842857Y-148678571D02*
X127842857Y-147178571D01*
X128200000Y-147178571D01*
X128414285Y-147250000D01*
X128557142Y-147392857D01*
X128628571Y-147535714D01*
X128700000Y-147821428D01*
X128700000Y-148035714D01*
X128628571Y-148321428D01*
X128557142Y-148464285D01*
X128414285Y-148607142D01*
X128200000Y-148678571D01*
X127842857Y-148678571D01*
X135457142Y-69299642D02*
X135671428Y-69371071D01*
X136028571Y-69371071D01*
X136171428Y-69299642D01*
X136242857Y-69228214D01*
X136314285Y-69085357D01*
X136314285Y-68942500D01*
X136242857Y-68799642D01*
X136171428Y-68728214D01*
X136028571Y-68656785D01*
X135742857Y-68585357D01*
X135600000Y-68513928D01*
X135528571Y-68442500D01*
X135457142Y-68299642D01*
X135457142Y-68156785D01*
X135528571Y-68013928D01*
X135600000Y-67942500D01*
X135742857Y-67871071D01*
X136100000Y-67871071D01*
X136314285Y-67942500D01*
X137171428Y-69371071D02*
X137028571Y-69299642D01*
X136957142Y-69228214D01*
X136885714Y-69085357D01*
X136885714Y-68656785D01*
X136957142Y-68513928D01*
X137028571Y-68442500D01*
X137171428Y-68371071D01*
X137385714Y-68371071D01*
X137528571Y-68442500D01*
X137600000Y-68513928D01*
X137671428Y-68656785D01*
X137671428Y-69085357D01*
X137600000Y-69228214D01*
X137528571Y-69299642D01*
X137385714Y-69371071D01*
X137171428Y-69371071D01*
X138528571Y-69371071D02*
X138385714Y-69299642D01*
X138314285Y-69156785D01*
X138314285Y-67871071D01*
X139742857Y-69371071D02*
X139742857Y-68585357D01*
X139671428Y-68442500D01*
X139528571Y-68371071D01*
X139242857Y-68371071D01*
X139100000Y-68442500D01*
X139742857Y-69299642D02*
X139600000Y-69371071D01*
X139242857Y-69371071D01*
X139100000Y-69299642D01*
X139028571Y-69156785D01*
X139028571Y-69013928D01*
X139100000Y-68871071D01*
X139242857Y-68799642D01*
X139600000Y-68799642D01*
X139742857Y-68728214D01*
X140457142Y-69371071D02*
X140457142Y-68371071D01*
X140457142Y-68656785D02*
X140528571Y-68513928D01*
X140600000Y-68442500D01*
X140742857Y-68371071D01*
X140885714Y-68371071D01*
X137278571Y-71643214D02*
X137207142Y-71714642D01*
X136992857Y-71786071D01*
X136850000Y-71786071D01*
X136635714Y-71714642D01*
X136492857Y-71571785D01*
X136421428Y-71428928D01*
X136350000Y-71143214D01*
X136350000Y-70928928D01*
X136421428Y-70643214D01*
X136492857Y-70500357D01*
X136635714Y-70357500D01*
X136850000Y-70286071D01*
X136992857Y-70286071D01*
X137207142Y-70357500D01*
X137278571Y-70428928D01*
X137707142Y-70786071D02*
X138278571Y-70786071D01*
X137921428Y-70286071D02*
X137921428Y-71571785D01*
X137992857Y-71714642D01*
X138135714Y-71786071D01*
X138278571Y-71786071D01*
X138778571Y-71786071D02*
X138778571Y-70786071D01*
X138778571Y-71071785D02*
X138850000Y-70928928D01*
X138921428Y-70857500D01*
X139064285Y-70786071D01*
X139207142Y-70786071D01*
X139921428Y-71786071D02*
X139778571Y-71714642D01*
X139707142Y-71571785D01*
X139707142Y-70286071D01*
X177550000Y-133042857D02*
X177478571Y-133185714D01*
X177478571Y-133400000D01*
X177550000Y-133614285D01*
X177692857Y-133757142D01*
X177835714Y-133828571D01*
X178121428Y-133900000D01*
X178335714Y-133900000D01*
X178621428Y-133828571D01*
X178764285Y-133757142D01*
X178907142Y-133614285D01*
X178978571Y-133400000D01*
X178978571Y-133257142D01*
X178907142Y-133042857D01*
X178835714Y-132971428D01*
X178335714Y-132971428D01*
X178335714Y-133257142D01*
X178978571Y-132328571D02*
X177478571Y-132328571D01*
X178978571Y-131471428D01*
X177478571Y-131471428D01*
X178978571Y-130757142D02*
X177478571Y-130757142D01*
X177478571Y-130400000D01*
X177550000Y-130185714D01*
X177692857Y-130042857D01*
X177835714Y-129971428D01*
X178121428Y-129900000D01*
X178335714Y-129900000D01*
X178621428Y-129971428D01*
X178764285Y-130042857D01*
X178907142Y-130185714D01*
X178978571Y-130400000D01*
X178978571Y-130757142D01*
X94785714Y-133307142D02*
X95928571Y-133307142D01*
X95357143Y-133878571D02*
X95357143Y-132735714D01*
X97357143Y-132378571D02*
X96642857Y-132378571D01*
X96571428Y-133092857D01*
X96642857Y-133021428D01*
X96785714Y-132950000D01*
X97142857Y-132950000D01*
X97285714Y-133021428D01*
X97357143Y-133092857D01*
X97428571Y-133235714D01*
X97428571Y-133592857D01*
X97357143Y-133735714D01*
X97285714Y-133807142D01*
X97142857Y-133878571D01*
X96785714Y-133878571D01*
X96642857Y-133807142D01*
X96571428Y-133735714D01*
X97857143Y-132378571D02*
X98357143Y-133878571D01*
X98857143Y-132378571D01*
X104250000Y-112071428D02*
X104250000Y-111357142D01*
X104678571Y-112214285D02*
X103178571Y-111714285D01*
X104678571Y-111214285D01*
X104678571Y-110714285D02*
X103178571Y-110714285D01*
X103178571Y-110357142D01*
X103250000Y-110142857D01*
X103392857Y-110000000D01*
X103535714Y-109928571D01*
X103821428Y-109857142D01*
X104035714Y-109857142D01*
X104321428Y-109928571D01*
X104464285Y-110000000D01*
X104607142Y-110142857D01*
X104678571Y-110357142D01*
X104678571Y-110714285D01*
X104678571Y-108357142D02*
X103964285Y-108857142D01*
X104678571Y-109214285D02*
X103178571Y-109214285D01*
X103178571Y-108642857D01*
X103250000Y-108500000D01*
X103321428Y-108428571D01*
X103464285Y-108357142D01*
X103678571Y-108357142D01*
X103821428Y-108428571D01*
X103892857Y-108500000D01*
X103964285Y-108642857D01*
X103964285Y-109214285D01*
X103178571Y-107428571D02*
X103178571Y-107285714D01*
X103250000Y-107142857D01*
X103321428Y-107071428D01*
X103464285Y-107000000D01*
X103750000Y-106928571D01*
X104107142Y-106928571D01*
X104392857Y-107000000D01*
X104535714Y-107071428D01*
X104607142Y-107142857D01*
X104678571Y-107285714D01*
X104678571Y-107428571D01*
X104607142Y-107571428D01*
X104535714Y-107642857D01*
X104392857Y-107714285D01*
X104107142Y-107785714D01*
X103750000Y-107785714D01*
X103464285Y-107714285D01*
X103321428Y-107642857D01*
X103250000Y-107571428D01*
X103178571Y-107428571D01*
X133607142Y-146950000D02*
X133464285Y-146878571D01*
X133250000Y-146878571D01*
X133035714Y-146950000D01*
X132892857Y-147092857D01*
X132821428Y-147235714D01*
X132750000Y-147521428D01*
X132750000Y-147735714D01*
X132821428Y-148021428D01*
X132892857Y-148164285D01*
X133035714Y-148307142D01*
X133250000Y-148378571D01*
X133392857Y-148378571D01*
X133607142Y-148307142D01*
X133678571Y-148235714D01*
X133678571Y-147735714D01*
X133392857Y-147735714D01*
X135392857Y-148307142D02*
X135607142Y-148378571D01*
X135964285Y-148378571D01*
X136107142Y-148307142D01*
X136178571Y-148235714D01*
X136250000Y-148092857D01*
X136250000Y-147950000D01*
X136178571Y-147807142D01*
X136107142Y-147735714D01*
X135964285Y-147664285D01*
X135678571Y-147592857D01*
X135535714Y-147521428D01*
X135464285Y-147450000D01*
X135392857Y-147307142D01*
X135392857Y-147164285D01*
X135464285Y-147021428D01*
X135535714Y-146950000D01*
X135678571Y-146878571D01*
X136035714Y-146878571D01*
X136250000Y-146950000D01*
X116592857Y-127878571D02*
X116592857Y-126378571D01*
X117164285Y-126378571D01*
X117307142Y-126450000D01*
X117378571Y-126521428D01*
X117450000Y-126664285D01*
X117450000Y-126878571D01*
X117378571Y-127021428D01*
X117307142Y-127092857D01*
X117164285Y-127164285D01*
X116592857Y-127164285D01*
X117735714Y-128021428D02*
X118878571Y-128021428D01*
X120092857Y-127878571D02*
X119592857Y-127164285D01*
X119235714Y-127878571D02*
X119235714Y-126378571D01*
X119807142Y-126378571D01*
X119950000Y-126450000D01*
X120021428Y-126521428D01*
X120092857Y-126664285D01*
X120092857Y-126878571D01*
X120021428Y-127021428D01*
X119950000Y-127092857D01*
X119807142Y-127164285D01*
X119235714Y-127164285D01*
X120735714Y-127092857D02*
X121235714Y-127092857D01*
X121450000Y-127878571D02*
X120735714Y-127878571D01*
X120735714Y-126378571D01*
X121450000Y-126378571D01*
X122021428Y-127807142D02*
X122235714Y-127878571D01*
X122592857Y-127878571D01*
X122735714Y-127807142D01*
X122807142Y-127735714D01*
X122878571Y-127592857D01*
X122878571Y-127450000D01*
X122807142Y-127307142D01*
X122735714Y-127235714D01*
X122592857Y-127164285D01*
X122307142Y-127092857D01*
X122164285Y-127021428D01*
X122092857Y-126950000D01*
X122021428Y-126807142D01*
X122021428Y-126664285D01*
X122092857Y-126521428D01*
X122164285Y-126450000D01*
X122307142Y-126378571D01*
X122664285Y-126378571D01*
X122878571Y-126450000D01*
X178357142Y-116450000D02*
X178214285Y-116378571D01*
X178000000Y-116378571D01*
X177785714Y-116450000D01*
X177642857Y-116592857D01*
X177571428Y-116735714D01*
X177500000Y-117021428D01*
X177500000Y-117235714D01*
X177571428Y-117521428D01*
X177642857Y-117664285D01*
X177785714Y-117807142D01*
X178000000Y-117878571D01*
X178142857Y-117878571D01*
X178357142Y-117807142D01*
X178428571Y-117735714D01*
X178428571Y-117235714D01*
X178142857Y-117235714D01*
X179071428Y-117878571D02*
X179071428Y-116378571D01*
X179928571Y-117878571D01*
X179928571Y-116378571D01*
X180642857Y-117878571D02*
X180642857Y-116378571D01*
X181000000Y-116378571D01*
X181214285Y-116450000D01*
X181357142Y-116592857D01*
X181428571Y-116735714D01*
X181500000Y-117021428D01*
X181500000Y-117235714D01*
X181428571Y-117521428D01*
X181357142Y-117664285D01*
X181214285Y-117807142D01*
X181000000Y-117878571D01*
X180642857Y-117878571D01*
X142135714Y-150535714D02*
X142064285Y-150607142D01*
X141850000Y-150678571D01*
X141707142Y-150678571D01*
X141492857Y-150607142D01*
X141350000Y-150464285D01*
X141278571Y-150321428D01*
X141207142Y-150035714D01*
X141207142Y-149821428D01*
X141278571Y-149535714D01*
X141350000Y-149392857D01*
X141492857Y-149250000D01*
X141707142Y-149178571D01*
X141850000Y-149178571D01*
X142064285Y-149250000D01*
X142135714Y-149321428D01*
X142564285Y-149178571D02*
X143421428Y-149178571D01*
X142992857Y-150678571D02*
X142992857Y-149178571D01*
X144778571Y-150678571D02*
X144278571Y-149964285D01*
X143921428Y-150678571D02*
X143921428Y-149178571D01*
X144492857Y-149178571D01*
X144635714Y-149250000D01*
X144707142Y-149321428D01*
X144778571Y-149464285D01*
X144778571Y-149678571D01*
X144707142Y-149821428D01*
X144635714Y-149892857D01*
X144492857Y-149964285D01*
X143921428Y-149964285D01*
X146135714Y-150678571D02*
X145421428Y-150678571D01*
X145421428Y-149178571D01*
X172635714Y-150092857D02*
X172850000Y-150164285D01*
X172921428Y-150235714D01*
X172992857Y-150378571D01*
X172992857Y-150592857D01*
X172921428Y-150735714D01*
X172850000Y-150807142D01*
X172707142Y-150878571D01*
X172135714Y-150878571D01*
X172135714Y-149378571D01*
X172635714Y-149378571D01*
X172778571Y-149450000D01*
X172850000Y-149521428D01*
X172921428Y-149664285D01*
X172921428Y-149807142D01*
X172850000Y-149950000D01*
X172778571Y-150021428D01*
X172635714Y-150092857D01*
X172135714Y-150092857D01*
X173421428Y-149378571D02*
X174278571Y-149378571D01*
X173850000Y-150878571D02*
X173850000Y-149378571D01*
X174778571Y-150878571D02*
X174778571Y-149378571D01*
X175635714Y-150878571D01*
X175635714Y-149378571D01*
X176278571Y-149521428D02*
X176350000Y-149450000D01*
X176492857Y-149378571D01*
X176850000Y-149378571D01*
X176992857Y-149450000D01*
X177064285Y-149521428D01*
X177135714Y-149664285D01*
X177135714Y-149807142D01*
X177064285Y-150021428D01*
X176207142Y-150878571D01*
X177135714Y-150878571D01*
X142507142Y-146950000D02*
X142364285Y-146878571D01*
X142150000Y-146878571D01*
X141935714Y-146950000D01*
X141792857Y-147092857D01*
X141721428Y-147235714D01*
X141650000Y-147521428D01*
X141650000Y-147735714D01*
X141721428Y-148021428D01*
X141792857Y-148164285D01*
X141935714Y-148307142D01*
X142150000Y-148378571D01*
X142292857Y-148378571D01*
X142507142Y-148307142D01*
X142578571Y-148235714D01*
X142578571Y-147735714D01*
X142292857Y-147735714D01*
X144292857Y-148307142D02*
X144507142Y-148378571D01*
X144864285Y-148378571D01*
X145007142Y-148307142D01*
X145078571Y-148235714D01*
X145150000Y-148092857D01*
X145150000Y-147950000D01*
X145078571Y-147807142D01*
X145007142Y-147735714D01*
X144864285Y-147664285D01*
X144578571Y-147592857D01*
X144435714Y-147521428D01*
X144364285Y-147450000D01*
X144292857Y-147307142D01*
X144292857Y-147164285D01*
X144364285Y-147021428D01*
X144435714Y-146950000D01*
X144578571Y-146878571D01*
X144935714Y-146878571D01*
X145150000Y-146950000D01*
X110250000Y-112071428D02*
X110250000Y-111357142D01*
X110678571Y-112214285D02*
X109178571Y-111714285D01*
X110678571Y-111214285D01*
X110678571Y-110714285D02*
X109178571Y-110714285D01*
X109178571Y-110357142D01*
X109250000Y-110142857D01*
X109392857Y-110000000D01*
X109535714Y-109928571D01*
X109821428Y-109857142D01*
X110035714Y-109857142D01*
X110321428Y-109928571D01*
X110464285Y-110000000D01*
X110607142Y-110142857D01*
X110678571Y-110357142D01*
X110678571Y-110714285D01*
X110678571Y-108357142D02*
X109964285Y-108857142D01*
X110678571Y-109214285D02*
X109178571Y-109214285D01*
X109178571Y-108642857D01*
X109250000Y-108500000D01*
X109321428Y-108428571D01*
X109464285Y-108357142D01*
X109678571Y-108357142D01*
X109821428Y-108428571D01*
X109892857Y-108500000D01*
X109964285Y-108642857D01*
X109964285Y-109214285D01*
X110678571Y-106928571D02*
X110678571Y-107785714D01*
X110678571Y-107357142D02*
X109178571Y-107357142D01*
X109392857Y-107500000D01*
X109535714Y-107642857D01*
X109607142Y-107785714D01*
X119471428Y-148107142D02*
X120614285Y-148107142D01*
X120042857Y-148678571D02*
X120042857Y-147535714D01*
X122042857Y-147178571D02*
X121328571Y-147178571D01*
X121257142Y-147892857D01*
X121328571Y-147821428D01*
X121471428Y-147750000D01*
X121828571Y-147750000D01*
X121971428Y-147821428D01*
X122042857Y-147892857D01*
X122114285Y-148035714D01*
X122114285Y-148392857D01*
X122042857Y-148535714D01*
X121971428Y-148607142D01*
X121828571Y-148678571D01*
X121471428Y-148678571D01*
X121328571Y-148607142D01*
X121257142Y-148535714D01*
X122542857Y-147178571D02*
X123042857Y-148678571D01*
X123542857Y-147178571D01*
D10*
X138266666Y-54484761D02*
X139409523Y-54484761D01*
X138838095Y-56484761D02*
X138838095Y-54484761D01*
X140838095Y-56389523D02*
X140647619Y-56484761D01*
X140266666Y-56484761D01*
X140076190Y-56389523D01*
X139980952Y-56199047D01*
X139980952Y-55437142D01*
X140076190Y-55246666D01*
X140266666Y-55151428D01*
X140647619Y-55151428D01*
X140838095Y-55246666D01*
X140933333Y-55437142D01*
X140933333Y-55627619D01*
X139980952Y-55818095D01*
X142647619Y-56484761D02*
X142647619Y-55437142D01*
X142552380Y-55246666D01*
X142361904Y-55151428D01*
X141980952Y-55151428D01*
X141790476Y-55246666D01*
X142647619Y-56389523D02*
X142457142Y-56484761D01*
X141980952Y-56484761D01*
X141790476Y-56389523D01*
X141695238Y-56199047D01*
X141695238Y-56008571D01*
X141790476Y-55818095D01*
X141980952Y-55722857D01*
X142457142Y-55722857D01*
X142647619Y-55627619D01*
X143600000Y-56484761D02*
X143600000Y-55151428D01*
X143600000Y-55341904D02*
X143695238Y-55246666D01*
X143885714Y-55151428D01*
X144171428Y-55151428D01*
X144361904Y-55246666D01*
X144457142Y-55437142D01*
X144457142Y-56484761D01*
X144457142Y-55437142D02*
X144552380Y-55246666D01*
X144742857Y-55151428D01*
X145028571Y-55151428D01*
X145219047Y-55246666D01*
X145314285Y-55437142D01*
X145314285Y-56484761D01*
X147695238Y-54675238D02*
X147790476Y-54580000D01*
X147980952Y-54484761D01*
X148457142Y-54484761D01*
X148647619Y-54580000D01*
X148742857Y-54675238D01*
X148838095Y-54865714D01*
X148838095Y-55056190D01*
X148742857Y-55341904D01*
X147600000Y-56484761D01*
X148838095Y-56484761D01*
X150076190Y-54484761D02*
X150266666Y-54484761D01*
X150457142Y-54580000D01*
X150552380Y-54675238D01*
X150647619Y-54865714D01*
X150742857Y-55246666D01*
X150742857Y-55722857D01*
X150647619Y-56103809D01*
X150552380Y-56294285D01*
X150457142Y-56389523D01*
X150266666Y-56484761D01*
X150076190Y-56484761D01*
X149885714Y-56389523D01*
X149790476Y-56294285D01*
X149695238Y-56103809D01*
X149600000Y-55722857D01*
X149600000Y-55246666D01*
X149695238Y-54865714D01*
X149790476Y-54675238D01*
X149885714Y-54580000D01*
X150076190Y-54484761D01*
X133076190Y-59704761D02*
X133076190Y-57704761D01*
X133838095Y-57704761D01*
X134028571Y-57800000D01*
X134123809Y-57895238D01*
X134219047Y-58085714D01*
X134219047Y-58371428D01*
X134123809Y-58561904D01*
X134028571Y-58657142D01*
X133838095Y-58752380D01*
X133076190Y-58752380D01*
X135361904Y-59704761D02*
X135171428Y-59609523D01*
X135076190Y-59514285D01*
X134980952Y-59323809D01*
X134980952Y-58752380D01*
X135076190Y-58561904D01*
X135171428Y-58466666D01*
X135361904Y-58371428D01*
X135647619Y-58371428D01*
X135838095Y-58466666D01*
X135933333Y-58561904D01*
X136028571Y-58752380D01*
X136028571Y-59323809D01*
X135933333Y-59514285D01*
X135838095Y-59609523D01*
X135647619Y-59704761D01*
X135361904Y-59704761D01*
X136695238Y-58371428D02*
X137076190Y-59704761D01*
X137457142Y-58752380D01*
X137838095Y-59704761D01*
X138219047Y-58371428D01*
X139742857Y-59609523D02*
X139552380Y-59704761D01*
X139171428Y-59704761D01*
X138980952Y-59609523D01*
X138885714Y-59419047D01*
X138885714Y-58657142D01*
X138980952Y-58466666D01*
X139171428Y-58371428D01*
X139552380Y-58371428D01*
X139742857Y-58466666D01*
X139838095Y-58657142D01*
X139838095Y-58847619D01*
X138885714Y-59038095D01*
X140695238Y-59704761D02*
X140695238Y-58371428D01*
X140695238Y-58752380D02*
X140790476Y-58561904D01*
X140885714Y-58466666D01*
X141076190Y-58371428D01*
X141266666Y-58371428D01*
X144123809Y-58657142D02*
X144409523Y-58752380D01*
X144504761Y-58847619D01*
X144600000Y-59038095D01*
X144600000Y-59323809D01*
X144504761Y-59514285D01*
X144409523Y-59609523D01*
X144219047Y-59704761D01*
X143457142Y-59704761D01*
X143457142Y-57704761D01*
X144123809Y-57704761D01*
X144314285Y-57800000D01*
X144409523Y-57895238D01*
X144504761Y-58085714D01*
X144504761Y-58276190D01*
X144409523Y-58466666D01*
X144314285Y-58561904D01*
X144123809Y-58657142D01*
X143457142Y-58657142D01*
X145742857Y-59704761D02*
X145552380Y-59609523D01*
X145457142Y-59514285D01*
X145361904Y-59323809D01*
X145361904Y-58752380D01*
X145457142Y-58561904D01*
X145552380Y-58466666D01*
X145742857Y-58371428D01*
X146028571Y-58371428D01*
X146219047Y-58466666D01*
X146314285Y-58561904D01*
X146409523Y-58752380D01*
X146409523Y-59323809D01*
X146314285Y-59514285D01*
X146219047Y-59609523D01*
X146028571Y-59704761D01*
X145742857Y-59704761D01*
X148123809Y-59704761D02*
X148123809Y-58657142D01*
X148028571Y-58466666D01*
X147838095Y-58371428D01*
X147457142Y-58371428D01*
X147266666Y-58466666D01*
X148123809Y-59609523D02*
X147933333Y-59704761D01*
X147457142Y-59704761D01*
X147266666Y-59609523D01*
X147171428Y-59419047D01*
X147171428Y-59228571D01*
X147266666Y-59038095D01*
X147457142Y-58942857D01*
X147933333Y-58942857D01*
X148123809Y-58847619D01*
X149076190Y-59704761D02*
X149076190Y-58371428D01*
X149076190Y-58752380D02*
X149171428Y-58561904D01*
X149266666Y-58466666D01*
X149457142Y-58371428D01*
X149647619Y-58371428D01*
X151171428Y-59704761D02*
X151171428Y-57704761D01*
X151171428Y-59609523D02*
X150980952Y-59704761D01*
X150600000Y-59704761D01*
X150409523Y-59609523D01*
X150314285Y-59514285D01*
X150219047Y-59323809D01*
X150219047Y-58752380D01*
X150314285Y-58561904D01*
X150409523Y-58466666D01*
X150600000Y-58371428D01*
X150980952Y-58371428D01*
X151171428Y-58466666D01*
X153457142Y-58371428D02*
X153933333Y-59704761D01*
X154409523Y-58371428D01*
X155076190Y-57895238D02*
X155171428Y-57800000D01*
X155361904Y-57704761D01*
X155838095Y-57704761D01*
X156028571Y-57800000D01*
X156123809Y-57895238D01*
X156219047Y-58085714D01*
X156219047Y-58276190D01*
X156123809Y-58561904D01*
X154980952Y-59704761D01*
X156219047Y-59704761D01*
X138028571Y-60924761D02*
X139266666Y-60924761D01*
X138600000Y-61686666D01*
X138885714Y-61686666D01*
X139076190Y-61781904D01*
X139171428Y-61877142D01*
X139266666Y-62067619D01*
X139266666Y-62543809D01*
X139171428Y-62734285D01*
X139076190Y-62829523D01*
X138885714Y-62924761D01*
X138314285Y-62924761D01*
X138123809Y-62829523D01*
X138028571Y-62734285D01*
X141552380Y-60829523D02*
X139838095Y-63400952D01*
X142123809Y-61115238D02*
X142219047Y-61020000D01*
X142409523Y-60924761D01*
X142885714Y-60924761D01*
X143076190Y-61020000D01*
X143171428Y-61115238D01*
X143266666Y-61305714D01*
X143266666Y-61496190D01*
X143171428Y-61781904D01*
X142028571Y-62924761D01*
X143266666Y-62924761D01*
X144409523Y-61781904D02*
X144219047Y-61686666D01*
X144123809Y-61591428D01*
X144028571Y-61400952D01*
X144028571Y-61305714D01*
X144123809Y-61115238D01*
X144219047Y-61020000D01*
X144409523Y-60924761D01*
X144790476Y-60924761D01*
X144980952Y-61020000D01*
X145076190Y-61115238D01*
X145171428Y-61305714D01*
X145171428Y-61400952D01*
X145076190Y-61591428D01*
X144980952Y-61686666D01*
X144790476Y-61781904D01*
X144409523Y-61781904D01*
X144219047Y-61877142D01*
X144123809Y-61972380D01*
X144028571Y-62162857D01*
X144028571Y-62543809D01*
X144123809Y-62734285D01*
X144219047Y-62829523D01*
X144409523Y-62924761D01*
X144790476Y-62924761D01*
X144980952Y-62829523D01*
X145076190Y-62734285D01*
X145171428Y-62543809D01*
X145171428Y-62162857D01*
X145076190Y-61972380D01*
X144980952Y-61877142D01*
X144790476Y-61781904D01*
X147457142Y-60829523D02*
X145742857Y-63400952D01*
X148028571Y-61115238D02*
X148123809Y-61020000D01*
X148314285Y-60924761D01*
X148790476Y-60924761D01*
X148980952Y-61020000D01*
X149076190Y-61115238D01*
X149171428Y-61305714D01*
X149171428Y-61496190D01*
X149076190Y-61781904D01*
X147933333Y-62924761D01*
X149171428Y-62924761D01*
X149933333Y-61115238D02*
X150028571Y-61020000D01*
X150219047Y-60924761D01*
X150695238Y-60924761D01*
X150885714Y-61020000D01*
X150980952Y-61115238D01*
X151076190Y-61305714D01*
X151076190Y-61496190D01*
X150980952Y-61781904D01*
X149838095Y-62924761D01*
X151076190Y-62924761D01*
D11*
X94714285Y-121907142D02*
X94928571Y-121978571D01*
X95285714Y-121978571D01*
X95428571Y-121907142D01*
X95500000Y-121835714D01*
X95571428Y-121692857D01*
X95571428Y-121550000D01*
X95500000Y-121407142D01*
X95428571Y-121335714D01*
X95285714Y-121264285D01*
X95000000Y-121192857D01*
X94857142Y-121121428D01*
X94785714Y-121050000D01*
X94714285Y-120907142D01*
X94714285Y-120764285D01*
X94785714Y-120621428D01*
X94857142Y-120550000D01*
X95000000Y-120478571D01*
X95357142Y-120478571D01*
X95571428Y-120550000D01*
X97071428Y-121835714D02*
X97000000Y-121907142D01*
X96785714Y-121978571D01*
X96642857Y-121978571D01*
X96428571Y-121907142D01*
X96285714Y-121764285D01*
X96214285Y-121621428D01*
X96142857Y-121335714D01*
X96142857Y-121121428D01*
X96214285Y-120835714D01*
X96285714Y-120692857D01*
X96428571Y-120550000D01*
X96642857Y-120478571D01*
X96785714Y-120478571D01*
X97000000Y-120550000D01*
X97071428Y-120621428D01*
X98428571Y-121978571D02*
X97714285Y-121978571D01*
X97714285Y-120478571D01*
D12*
%TO.C,R23*%
X155882380Y-131842857D02*
X155406190Y-132176190D01*
X155882380Y-132414285D02*
X154882380Y-132414285D01*
X154882380Y-132033333D01*
X154930000Y-131938095D01*
X154977619Y-131890476D01*
X155072857Y-131842857D01*
X155215714Y-131842857D01*
X155310952Y-131890476D01*
X155358571Y-131938095D01*
X155406190Y-132033333D01*
X155406190Y-132414285D01*
X154977619Y-131461904D02*
X154930000Y-131414285D01*
X154882380Y-131319047D01*
X154882380Y-131080952D01*
X154930000Y-130985714D01*
X154977619Y-130938095D01*
X155072857Y-130890476D01*
X155168095Y-130890476D01*
X155310952Y-130938095D01*
X155882380Y-131509523D01*
X155882380Y-130890476D01*
X154882380Y-130557142D02*
X154882380Y-129938095D01*
X155263333Y-130271428D01*
X155263333Y-130128571D01*
X155310952Y-130033333D01*
X155358571Y-129985714D01*
X155453809Y-129938095D01*
X155691904Y-129938095D01*
X155787142Y-129985714D01*
X155834761Y-130033333D01*
X155882380Y-130128571D01*
X155882380Y-130414285D01*
X155834761Y-130509523D01*
X155787142Y-130557142D01*
%TO.C,C22*%
X163957142Y-80057142D02*
X163909523Y-80104761D01*
X163766666Y-80152380D01*
X163671428Y-80152380D01*
X163528571Y-80104761D01*
X163433333Y-80009523D01*
X163385714Y-79914285D01*
X163338095Y-79723809D01*
X163338095Y-79580952D01*
X163385714Y-79390476D01*
X163433333Y-79295238D01*
X163528571Y-79200000D01*
X163671428Y-79152380D01*
X163766666Y-79152380D01*
X163909523Y-79200000D01*
X163957142Y-79247619D01*
X164338095Y-79247619D02*
X164385714Y-79200000D01*
X164480952Y-79152380D01*
X164719047Y-79152380D01*
X164814285Y-79200000D01*
X164861904Y-79247619D01*
X164909523Y-79342857D01*
X164909523Y-79438095D01*
X164861904Y-79580952D01*
X164290476Y-80152380D01*
X164909523Y-80152380D01*
X165290476Y-79247619D02*
X165338095Y-79200000D01*
X165433333Y-79152380D01*
X165671428Y-79152380D01*
X165766666Y-79200000D01*
X165814285Y-79247619D01*
X165861904Y-79342857D01*
X165861904Y-79438095D01*
X165814285Y-79580952D01*
X165242857Y-80152380D01*
X165861904Y-80152380D01*
%TO.C,R24*%
X166657142Y-139452380D02*
X166323809Y-138976190D01*
X166085714Y-139452380D02*
X166085714Y-138452380D01*
X166466666Y-138452380D01*
X166561904Y-138500000D01*
X166609523Y-138547619D01*
X166657142Y-138642857D01*
X166657142Y-138785714D01*
X166609523Y-138880952D01*
X166561904Y-138928571D01*
X166466666Y-138976190D01*
X166085714Y-138976190D01*
X167038095Y-138547619D02*
X167085714Y-138500000D01*
X167180952Y-138452380D01*
X167419047Y-138452380D01*
X167514285Y-138500000D01*
X167561904Y-138547619D01*
X167609523Y-138642857D01*
X167609523Y-138738095D01*
X167561904Y-138880952D01*
X166990476Y-139452380D01*
X167609523Y-139452380D01*
X168466666Y-138785714D02*
X168466666Y-139452380D01*
X168228571Y-138404761D02*
X167990476Y-139119047D01*
X168609523Y-139119047D01*
%TO.C,R17*%
X118857142Y-110772380D02*
X118523809Y-110296190D01*
X118285714Y-110772380D02*
X118285714Y-109772380D01*
X118666666Y-109772380D01*
X118761904Y-109820000D01*
X118809523Y-109867619D01*
X118857142Y-109962857D01*
X118857142Y-110105714D01*
X118809523Y-110200952D01*
X118761904Y-110248571D01*
X118666666Y-110296190D01*
X118285714Y-110296190D01*
X119809523Y-110772380D02*
X119238095Y-110772380D01*
X119523809Y-110772380D02*
X119523809Y-109772380D01*
X119428571Y-109915238D01*
X119333333Y-110010476D01*
X119238095Y-110058095D01*
X120142857Y-109772380D02*
X120809523Y-109772380D01*
X120380952Y-110772380D01*
%TO.C,R10*%
X103352380Y-75692857D02*
X102876190Y-76026190D01*
X103352380Y-76264285D02*
X102352380Y-76264285D01*
X102352380Y-75883333D01*
X102400000Y-75788095D01*
X102447619Y-75740476D01*
X102542857Y-75692857D01*
X102685714Y-75692857D01*
X102780952Y-75740476D01*
X102828571Y-75788095D01*
X102876190Y-75883333D01*
X102876190Y-76264285D01*
X103352380Y-74740476D02*
X103352380Y-75311904D01*
X103352380Y-75026190D02*
X102352380Y-75026190D01*
X102495238Y-75121428D01*
X102590476Y-75216666D01*
X102638095Y-75311904D01*
X102352380Y-74121428D02*
X102352380Y-74026190D01*
X102400000Y-73930952D01*
X102447619Y-73883333D01*
X102542857Y-73835714D01*
X102733333Y-73788095D01*
X102971428Y-73788095D01*
X103161904Y-73835714D01*
X103257142Y-73883333D01*
X103304761Y-73930952D01*
X103352380Y-74026190D01*
X103352380Y-74121428D01*
X103304761Y-74216666D01*
X103257142Y-74264285D01*
X103161904Y-74311904D01*
X102971428Y-74359523D01*
X102733333Y-74359523D01*
X102542857Y-74311904D01*
X102447619Y-74264285D01*
X102400000Y-74216666D01*
X102352380Y-74121428D01*
%TO.C,Q3*%
X153347619Y-101845238D02*
X153300000Y-101940476D01*
X153204761Y-102035714D01*
X153061904Y-102178571D01*
X153014285Y-102273809D01*
X153014285Y-102369047D01*
X153252380Y-102321428D02*
X153204761Y-102416666D01*
X153109523Y-102511904D01*
X152919047Y-102559523D01*
X152585714Y-102559523D01*
X152395238Y-102511904D01*
X152300000Y-102416666D01*
X152252380Y-102321428D01*
X152252380Y-102130952D01*
X152300000Y-102035714D01*
X152395238Y-101940476D01*
X152585714Y-101892857D01*
X152919047Y-101892857D01*
X153109523Y-101940476D01*
X153204761Y-102035714D01*
X153252380Y-102130952D01*
X153252380Y-102321428D01*
X152252380Y-101559523D02*
X152252380Y-100940476D01*
X152633333Y-101273809D01*
X152633333Y-101130952D01*
X152680952Y-101035714D01*
X152728571Y-100988095D01*
X152823809Y-100940476D01*
X153061904Y-100940476D01*
X153157142Y-100988095D01*
X153204761Y-101035714D01*
X153252380Y-101130952D01*
X153252380Y-101416666D01*
X153204761Y-101511904D01*
X153157142Y-101559523D01*
%TO.C,C14*%
X116157142Y-100142857D02*
X116204761Y-100190476D01*
X116252380Y-100333333D01*
X116252380Y-100428571D01*
X116204761Y-100571428D01*
X116109523Y-100666666D01*
X116014285Y-100714285D01*
X115823809Y-100761904D01*
X115680952Y-100761904D01*
X115490476Y-100714285D01*
X115395238Y-100666666D01*
X115300000Y-100571428D01*
X115252380Y-100428571D01*
X115252380Y-100333333D01*
X115300000Y-100190476D01*
X115347619Y-100142857D01*
X116252380Y-99190476D02*
X116252380Y-99761904D01*
X116252380Y-99476190D02*
X115252380Y-99476190D01*
X115395238Y-99571428D01*
X115490476Y-99666666D01*
X115538095Y-99761904D01*
X115585714Y-98333333D02*
X116252380Y-98333333D01*
X115204761Y-98571428D02*
X115919047Y-98809523D01*
X115919047Y-98190476D01*
%TO.C,R19*%
X121857142Y-115452380D02*
X121523809Y-114976190D01*
X121285714Y-115452380D02*
X121285714Y-114452380D01*
X121666666Y-114452380D01*
X121761904Y-114500000D01*
X121809523Y-114547619D01*
X121857142Y-114642857D01*
X121857142Y-114785714D01*
X121809523Y-114880952D01*
X121761904Y-114928571D01*
X121666666Y-114976190D01*
X121285714Y-114976190D01*
X122809523Y-115452380D02*
X122238095Y-115452380D01*
X122523809Y-115452380D02*
X122523809Y-114452380D01*
X122428571Y-114595238D01*
X122333333Y-114690476D01*
X122238095Y-114738095D01*
X123285714Y-115452380D02*
X123476190Y-115452380D01*
X123571428Y-115404761D01*
X123619047Y-115357142D01*
X123714285Y-115214285D01*
X123761904Y-115023809D01*
X123761904Y-114642857D01*
X123714285Y-114547619D01*
X123666666Y-114500000D01*
X123571428Y-114452380D01*
X123380952Y-114452380D01*
X123285714Y-114500000D01*
X123238095Y-114547619D01*
X123190476Y-114642857D01*
X123190476Y-114880952D01*
X123238095Y-114976190D01*
X123285714Y-115023809D01*
X123380952Y-115071428D01*
X123571428Y-115071428D01*
X123666666Y-115023809D01*
X123714285Y-114976190D01*
X123761904Y-114880952D01*
%TO.C,R15*%
X139407142Y-110202380D02*
X139073809Y-109726190D01*
X138835714Y-110202380D02*
X138835714Y-109202380D01*
X139216666Y-109202380D01*
X139311904Y-109250000D01*
X139359523Y-109297619D01*
X139407142Y-109392857D01*
X139407142Y-109535714D01*
X139359523Y-109630952D01*
X139311904Y-109678571D01*
X139216666Y-109726190D01*
X138835714Y-109726190D01*
X140359523Y-110202380D02*
X139788095Y-110202380D01*
X140073809Y-110202380D02*
X140073809Y-109202380D01*
X139978571Y-109345238D01*
X139883333Y-109440476D01*
X139788095Y-109488095D01*
X141264285Y-109202380D02*
X140788095Y-109202380D01*
X140740476Y-109678571D01*
X140788095Y-109630952D01*
X140883333Y-109583333D01*
X141121428Y-109583333D01*
X141216666Y-109630952D01*
X141264285Y-109678571D01*
X141311904Y-109773809D01*
X141311904Y-110011904D01*
X141264285Y-110107142D01*
X141216666Y-110154761D01*
X141121428Y-110202380D01*
X140883333Y-110202380D01*
X140788095Y-110154761D01*
X140740476Y-110107142D01*
%TO.C,C23*%
X163957142Y-75057142D02*
X163909523Y-75104761D01*
X163766666Y-75152380D01*
X163671428Y-75152380D01*
X163528571Y-75104761D01*
X163433333Y-75009523D01*
X163385714Y-74914285D01*
X163338095Y-74723809D01*
X163338095Y-74580952D01*
X163385714Y-74390476D01*
X163433333Y-74295238D01*
X163528571Y-74200000D01*
X163671428Y-74152380D01*
X163766666Y-74152380D01*
X163909523Y-74200000D01*
X163957142Y-74247619D01*
X164338095Y-74247619D02*
X164385714Y-74200000D01*
X164480952Y-74152380D01*
X164719047Y-74152380D01*
X164814285Y-74200000D01*
X164861904Y-74247619D01*
X164909523Y-74342857D01*
X164909523Y-74438095D01*
X164861904Y-74580952D01*
X164290476Y-75152380D01*
X164909523Y-75152380D01*
X165242857Y-74152380D02*
X165861904Y-74152380D01*
X165528571Y-74533333D01*
X165671428Y-74533333D01*
X165766666Y-74580952D01*
X165814285Y-74628571D01*
X165861904Y-74723809D01*
X165861904Y-74961904D01*
X165814285Y-75057142D01*
X165766666Y-75104761D01*
X165671428Y-75152380D01*
X165385714Y-75152380D01*
X165290476Y-75104761D01*
X165242857Y-75057142D01*
%TO.C,C15*%
X120257142Y-100142857D02*
X120304761Y-100190476D01*
X120352380Y-100333333D01*
X120352380Y-100428571D01*
X120304761Y-100571428D01*
X120209523Y-100666666D01*
X120114285Y-100714285D01*
X119923809Y-100761904D01*
X119780952Y-100761904D01*
X119590476Y-100714285D01*
X119495238Y-100666666D01*
X119400000Y-100571428D01*
X119352380Y-100428571D01*
X119352380Y-100333333D01*
X119400000Y-100190476D01*
X119447619Y-100142857D01*
X120352380Y-99190476D02*
X120352380Y-99761904D01*
X120352380Y-99476190D02*
X119352380Y-99476190D01*
X119495238Y-99571428D01*
X119590476Y-99666666D01*
X119638095Y-99761904D01*
X119352380Y-98285714D02*
X119352380Y-98761904D01*
X119828571Y-98809523D01*
X119780952Y-98761904D01*
X119733333Y-98666666D01*
X119733333Y-98428571D01*
X119780952Y-98333333D01*
X119828571Y-98285714D01*
X119923809Y-98238095D01*
X120161904Y-98238095D01*
X120257142Y-98285714D01*
X120304761Y-98333333D01*
X120352380Y-98428571D01*
X120352380Y-98666666D01*
X120304761Y-98761904D01*
X120257142Y-98809523D01*
%TO.C,C11*%
X114767142Y-78037142D02*
X114719523Y-78084761D01*
X114576666Y-78132380D01*
X114481428Y-78132380D01*
X114338571Y-78084761D01*
X114243333Y-77989523D01*
X114195714Y-77894285D01*
X114148095Y-77703809D01*
X114148095Y-77560952D01*
X114195714Y-77370476D01*
X114243333Y-77275238D01*
X114338571Y-77180000D01*
X114481428Y-77132380D01*
X114576666Y-77132380D01*
X114719523Y-77180000D01*
X114767142Y-77227619D01*
X115719523Y-78132380D02*
X115148095Y-78132380D01*
X115433809Y-78132380D02*
X115433809Y-77132380D01*
X115338571Y-77275238D01*
X115243333Y-77370476D01*
X115148095Y-77418095D01*
X116671904Y-78132380D02*
X116100476Y-78132380D01*
X116386190Y-78132380D02*
X116386190Y-77132380D01*
X116290952Y-77275238D01*
X116195714Y-77370476D01*
X116100476Y-77418095D01*
%TO.C,Q1*%
X156204761Y-87147619D02*
X156109523Y-87100000D01*
X156014285Y-87004761D01*
X155871428Y-86861904D01*
X155776190Y-86814285D01*
X155680952Y-86814285D01*
X155728571Y-87052380D02*
X155633333Y-87004761D01*
X155538095Y-86909523D01*
X155490476Y-86719047D01*
X155490476Y-86385714D01*
X155538095Y-86195238D01*
X155633333Y-86100000D01*
X155728571Y-86052380D01*
X155919047Y-86052380D01*
X156014285Y-86100000D01*
X156109523Y-86195238D01*
X156157142Y-86385714D01*
X156157142Y-86719047D01*
X156109523Y-86909523D01*
X156014285Y-87004761D01*
X155919047Y-87052380D01*
X155728571Y-87052380D01*
X157109523Y-87052380D02*
X156538095Y-87052380D01*
X156823809Y-87052380D02*
X156823809Y-86052380D01*
X156728571Y-86195238D01*
X156633333Y-86290476D01*
X156538095Y-86338095D01*
%TO.C,R14*%
X139407142Y-112202380D02*
X139073809Y-111726190D01*
X138835714Y-112202380D02*
X138835714Y-111202380D01*
X139216666Y-111202380D01*
X139311904Y-111250000D01*
X139359523Y-111297619D01*
X139407142Y-111392857D01*
X139407142Y-111535714D01*
X139359523Y-111630952D01*
X139311904Y-111678571D01*
X139216666Y-111726190D01*
X138835714Y-111726190D01*
X140359523Y-112202380D02*
X139788095Y-112202380D01*
X140073809Y-112202380D02*
X140073809Y-111202380D01*
X139978571Y-111345238D01*
X139883333Y-111440476D01*
X139788095Y-111488095D01*
X141216666Y-111535714D02*
X141216666Y-112202380D01*
X140978571Y-111154761D02*
X140740476Y-111869047D01*
X141359523Y-111869047D01*
%TO.C,C24*%
X98857142Y-68387142D02*
X98809523Y-68434761D01*
X98666666Y-68482380D01*
X98571428Y-68482380D01*
X98428571Y-68434761D01*
X98333333Y-68339523D01*
X98285714Y-68244285D01*
X98238095Y-68053809D01*
X98238095Y-67910952D01*
X98285714Y-67720476D01*
X98333333Y-67625238D01*
X98428571Y-67530000D01*
X98571428Y-67482380D01*
X98666666Y-67482380D01*
X98809523Y-67530000D01*
X98857142Y-67577619D01*
X99238095Y-67577619D02*
X99285714Y-67530000D01*
X99380952Y-67482380D01*
X99619047Y-67482380D01*
X99714285Y-67530000D01*
X99761904Y-67577619D01*
X99809523Y-67672857D01*
X99809523Y-67768095D01*
X99761904Y-67910952D01*
X99190476Y-68482380D01*
X99809523Y-68482380D01*
X100666666Y-67815714D02*
X100666666Y-68482380D01*
X100428571Y-67434761D02*
X100190476Y-68149047D01*
X100809523Y-68149047D01*
%TO.C,D1*%
X163961904Y-86422380D02*
X163961904Y-85422380D01*
X164200000Y-85422380D01*
X164342857Y-85470000D01*
X164438095Y-85565238D01*
X164485714Y-85660476D01*
X164533333Y-85850952D01*
X164533333Y-85993809D01*
X164485714Y-86184285D01*
X164438095Y-86279523D01*
X164342857Y-86374761D01*
X164200000Y-86422380D01*
X163961904Y-86422380D01*
X165485714Y-86422380D02*
X164914285Y-86422380D01*
X165200000Y-86422380D02*
X165200000Y-85422380D01*
X165104761Y-85565238D01*
X165009523Y-85660476D01*
X164914285Y-85708095D01*
%TO.C,R21*%
X151897619Y-117557142D02*
X152373809Y-117223809D01*
X151897619Y-116985714D02*
X152897619Y-116985714D01*
X152897619Y-117366666D01*
X152850000Y-117461904D01*
X152802380Y-117509523D01*
X152707142Y-117557142D01*
X152564285Y-117557142D01*
X152469047Y-117509523D01*
X152421428Y-117461904D01*
X152373809Y-117366666D01*
X152373809Y-116985714D01*
X152802380Y-117938095D02*
X152850000Y-117985714D01*
X152897619Y-118080952D01*
X152897619Y-118319047D01*
X152850000Y-118414285D01*
X152802380Y-118461904D01*
X152707142Y-118509523D01*
X152611904Y-118509523D01*
X152469047Y-118461904D01*
X151897619Y-117890476D01*
X151897619Y-118509523D01*
X151897619Y-119461904D02*
X151897619Y-118890476D01*
X151897619Y-119176190D02*
X152897619Y-119176190D01*
X152754761Y-119080952D01*
X152659523Y-118985714D01*
X152611904Y-118890476D01*
%TO.C,R20*%
X121857142Y-117952380D02*
X121523809Y-117476190D01*
X121285714Y-117952380D02*
X121285714Y-116952380D01*
X121666666Y-116952380D01*
X121761904Y-117000000D01*
X121809523Y-117047619D01*
X121857142Y-117142857D01*
X121857142Y-117285714D01*
X121809523Y-117380952D01*
X121761904Y-117428571D01*
X121666666Y-117476190D01*
X121285714Y-117476190D01*
X122238095Y-117047619D02*
X122285714Y-117000000D01*
X122380952Y-116952380D01*
X122619047Y-116952380D01*
X122714285Y-117000000D01*
X122761904Y-117047619D01*
X122809523Y-117142857D01*
X122809523Y-117238095D01*
X122761904Y-117380952D01*
X122190476Y-117952380D01*
X122809523Y-117952380D01*
X123428571Y-116952380D02*
X123523809Y-116952380D01*
X123619047Y-117000000D01*
X123666666Y-117047619D01*
X123714285Y-117142857D01*
X123761904Y-117333333D01*
X123761904Y-117571428D01*
X123714285Y-117761904D01*
X123666666Y-117857142D01*
X123619047Y-117904761D01*
X123523809Y-117952380D01*
X123428571Y-117952380D01*
X123333333Y-117904761D01*
X123285714Y-117857142D01*
X123238095Y-117761904D01*
X123190476Y-117571428D01*
X123190476Y-117333333D01*
X123238095Y-117142857D01*
X123285714Y-117047619D01*
X123333333Y-117000000D01*
X123428571Y-116952380D01*
%TO.C,Q4*%
X134504761Y-95947619D02*
X134409523Y-95900000D01*
X134314285Y-95804761D01*
X134171428Y-95661904D01*
X134076190Y-95614285D01*
X133980952Y-95614285D01*
X134028571Y-95852380D02*
X133933333Y-95804761D01*
X133838095Y-95709523D01*
X133790476Y-95519047D01*
X133790476Y-95185714D01*
X133838095Y-94995238D01*
X133933333Y-94900000D01*
X134028571Y-94852380D01*
X134219047Y-94852380D01*
X134314285Y-94900000D01*
X134409523Y-94995238D01*
X134457142Y-95185714D01*
X134457142Y-95519047D01*
X134409523Y-95709523D01*
X134314285Y-95804761D01*
X134219047Y-95852380D01*
X134028571Y-95852380D01*
X135314285Y-95185714D02*
X135314285Y-95852380D01*
X135076190Y-94804761D02*
X134838095Y-95519047D01*
X135457142Y-95519047D01*
%TO.C,R11*%
X104952380Y-88442857D02*
X104476190Y-88776190D01*
X104952380Y-89014285D02*
X103952380Y-89014285D01*
X103952380Y-88633333D01*
X104000000Y-88538095D01*
X104047619Y-88490476D01*
X104142857Y-88442857D01*
X104285714Y-88442857D01*
X104380952Y-88490476D01*
X104428571Y-88538095D01*
X104476190Y-88633333D01*
X104476190Y-89014285D01*
X104952380Y-87490476D02*
X104952380Y-88061904D01*
X104952380Y-87776190D02*
X103952380Y-87776190D01*
X104095238Y-87871428D01*
X104190476Y-87966666D01*
X104238095Y-88061904D01*
X104952380Y-86538095D02*
X104952380Y-87109523D01*
X104952380Y-86823809D02*
X103952380Y-86823809D01*
X104095238Y-86919047D01*
X104190476Y-87014285D01*
X104238095Y-87109523D01*
%TO.C,C12*%
X104457142Y-100442857D02*
X104504761Y-100490476D01*
X104552380Y-100633333D01*
X104552380Y-100728571D01*
X104504761Y-100871428D01*
X104409523Y-100966666D01*
X104314285Y-101014285D01*
X104123809Y-101061904D01*
X103980952Y-101061904D01*
X103790476Y-101014285D01*
X103695238Y-100966666D01*
X103600000Y-100871428D01*
X103552380Y-100728571D01*
X103552380Y-100633333D01*
X103600000Y-100490476D01*
X103647619Y-100442857D01*
X104552380Y-99490476D02*
X104552380Y-100061904D01*
X104552380Y-99776190D02*
X103552380Y-99776190D01*
X103695238Y-99871428D01*
X103790476Y-99966666D01*
X103838095Y-100061904D01*
X103647619Y-99109523D02*
X103600000Y-99061904D01*
X103552380Y-98966666D01*
X103552380Y-98728571D01*
X103600000Y-98633333D01*
X103647619Y-98585714D01*
X103742857Y-98538095D01*
X103838095Y-98538095D01*
X103980952Y-98585714D01*
X104552380Y-99157142D01*
X104552380Y-98538095D01*
%TO.C,C5*%
X109033333Y-65757142D02*
X108985714Y-65804761D01*
X108842857Y-65852380D01*
X108747619Y-65852380D01*
X108604761Y-65804761D01*
X108509523Y-65709523D01*
X108461904Y-65614285D01*
X108414285Y-65423809D01*
X108414285Y-65280952D01*
X108461904Y-65090476D01*
X108509523Y-64995238D01*
X108604761Y-64900000D01*
X108747619Y-64852380D01*
X108842857Y-64852380D01*
X108985714Y-64900000D01*
X109033333Y-64947619D01*
X109938095Y-64852380D02*
X109461904Y-64852380D01*
X109414285Y-65328571D01*
X109461904Y-65280952D01*
X109557142Y-65233333D01*
X109795238Y-65233333D01*
X109890476Y-65280952D01*
X109938095Y-65328571D01*
X109985714Y-65423809D01*
X109985714Y-65661904D01*
X109938095Y-65757142D01*
X109890476Y-65804761D01*
X109795238Y-65852380D01*
X109557142Y-65852380D01*
X109461904Y-65804761D01*
X109414285Y-65757142D01*
%TO.C,R12*%
X91557142Y-79202380D02*
X91223809Y-78726190D01*
X90985714Y-79202380D02*
X90985714Y-78202380D01*
X91366666Y-78202380D01*
X91461904Y-78250000D01*
X91509523Y-78297619D01*
X91557142Y-78392857D01*
X91557142Y-78535714D01*
X91509523Y-78630952D01*
X91461904Y-78678571D01*
X91366666Y-78726190D01*
X90985714Y-78726190D01*
X92509523Y-79202380D02*
X91938095Y-79202380D01*
X92223809Y-79202380D02*
X92223809Y-78202380D01*
X92128571Y-78345238D01*
X92033333Y-78440476D01*
X91938095Y-78488095D01*
X92890476Y-78297619D02*
X92938095Y-78250000D01*
X93033333Y-78202380D01*
X93271428Y-78202380D01*
X93366666Y-78250000D01*
X93414285Y-78297619D01*
X93461904Y-78392857D01*
X93461904Y-78488095D01*
X93414285Y-78630952D01*
X92842857Y-79202380D01*
X93461904Y-79202380D01*
%TO.C,R9*%
X98143333Y-84602380D02*
X97810000Y-84126190D01*
X97571904Y-84602380D02*
X97571904Y-83602380D01*
X97952857Y-83602380D01*
X98048095Y-83650000D01*
X98095714Y-83697619D01*
X98143333Y-83792857D01*
X98143333Y-83935714D01*
X98095714Y-84030952D01*
X98048095Y-84078571D01*
X97952857Y-84126190D01*
X97571904Y-84126190D01*
X98619523Y-84602380D02*
X98810000Y-84602380D01*
X98905238Y-84554761D01*
X98952857Y-84507142D01*
X99048095Y-84364285D01*
X99095714Y-84173809D01*
X99095714Y-83792857D01*
X99048095Y-83697619D01*
X99000476Y-83650000D01*
X98905238Y-83602380D01*
X98714761Y-83602380D01*
X98619523Y-83650000D01*
X98571904Y-83697619D01*
X98524285Y-83792857D01*
X98524285Y-84030952D01*
X98571904Y-84126190D01*
X98619523Y-84173809D01*
X98714761Y-84221428D01*
X98905238Y-84221428D01*
X99000476Y-84173809D01*
X99048095Y-84126190D01*
X99095714Y-84030952D01*
%TO.C,R26*%
X128757142Y-127622380D02*
X128423809Y-127146190D01*
X128185714Y-127622380D02*
X128185714Y-126622380D01*
X128566666Y-126622380D01*
X128661904Y-126670000D01*
X128709523Y-126717619D01*
X128757142Y-126812857D01*
X128757142Y-126955714D01*
X128709523Y-127050952D01*
X128661904Y-127098571D01*
X128566666Y-127146190D01*
X128185714Y-127146190D01*
X129138095Y-126717619D02*
X129185714Y-126670000D01*
X129280952Y-126622380D01*
X129519047Y-126622380D01*
X129614285Y-126670000D01*
X129661904Y-126717619D01*
X129709523Y-126812857D01*
X129709523Y-126908095D01*
X129661904Y-127050952D01*
X129090476Y-127622380D01*
X129709523Y-127622380D01*
X130566666Y-126622380D02*
X130376190Y-126622380D01*
X130280952Y-126670000D01*
X130233333Y-126717619D01*
X130138095Y-126860476D01*
X130090476Y-127050952D01*
X130090476Y-127431904D01*
X130138095Y-127527142D01*
X130185714Y-127574761D01*
X130280952Y-127622380D01*
X130471428Y-127622380D01*
X130566666Y-127574761D01*
X130614285Y-127527142D01*
X130661904Y-127431904D01*
X130661904Y-127193809D01*
X130614285Y-127098571D01*
X130566666Y-127050952D01*
X130471428Y-127003333D01*
X130280952Y-127003333D01*
X130185714Y-127050952D01*
X130138095Y-127098571D01*
X130090476Y-127193809D01*
%TO.C,R30*%
X126857142Y-134352380D02*
X126523809Y-133876190D01*
X126285714Y-134352380D02*
X126285714Y-133352380D01*
X126666666Y-133352380D01*
X126761904Y-133400000D01*
X126809523Y-133447619D01*
X126857142Y-133542857D01*
X126857142Y-133685714D01*
X126809523Y-133780952D01*
X126761904Y-133828571D01*
X126666666Y-133876190D01*
X126285714Y-133876190D01*
X127190476Y-133352380D02*
X127809523Y-133352380D01*
X127476190Y-133733333D01*
X127619047Y-133733333D01*
X127714285Y-133780952D01*
X127761904Y-133828571D01*
X127809523Y-133923809D01*
X127809523Y-134161904D01*
X127761904Y-134257142D01*
X127714285Y-134304761D01*
X127619047Y-134352380D01*
X127333333Y-134352380D01*
X127238095Y-134304761D01*
X127190476Y-134257142D01*
X128428571Y-133352380D02*
X128523809Y-133352380D01*
X128619047Y-133400000D01*
X128666666Y-133447619D01*
X128714285Y-133542857D01*
X128761904Y-133733333D01*
X128761904Y-133971428D01*
X128714285Y-134161904D01*
X128666666Y-134257142D01*
X128619047Y-134304761D01*
X128523809Y-134352380D01*
X128428571Y-134352380D01*
X128333333Y-134304761D01*
X128285714Y-134257142D01*
X128238095Y-134161904D01*
X128190476Y-133971428D01*
X128190476Y-133733333D01*
X128238095Y-133542857D01*
X128285714Y-133447619D01*
X128333333Y-133400000D01*
X128428571Y-133352380D01*
%TO.C,C10*%
X114757142Y-73007142D02*
X114709523Y-73054761D01*
X114566666Y-73102380D01*
X114471428Y-73102380D01*
X114328571Y-73054761D01*
X114233333Y-72959523D01*
X114185714Y-72864285D01*
X114138095Y-72673809D01*
X114138095Y-72530952D01*
X114185714Y-72340476D01*
X114233333Y-72245238D01*
X114328571Y-72150000D01*
X114471428Y-72102380D01*
X114566666Y-72102380D01*
X114709523Y-72150000D01*
X114757142Y-72197619D01*
X115709523Y-73102380D02*
X115138095Y-73102380D01*
X115423809Y-73102380D02*
X115423809Y-72102380D01*
X115328571Y-72245238D01*
X115233333Y-72340476D01*
X115138095Y-72388095D01*
X116328571Y-72102380D02*
X116423809Y-72102380D01*
X116519047Y-72150000D01*
X116566666Y-72197619D01*
X116614285Y-72292857D01*
X116661904Y-72483333D01*
X116661904Y-72721428D01*
X116614285Y-72911904D01*
X116566666Y-73007142D01*
X116519047Y-73054761D01*
X116423809Y-73102380D01*
X116328571Y-73102380D01*
X116233333Y-73054761D01*
X116185714Y-73007142D01*
X116138095Y-72911904D01*
X116090476Y-72721428D01*
X116090476Y-72483333D01*
X116138095Y-72292857D01*
X116185714Y-72197619D01*
X116233333Y-72150000D01*
X116328571Y-72102380D01*
%TO.C,C25*%
X98857142Y-72487142D02*
X98809523Y-72534761D01*
X98666666Y-72582380D01*
X98571428Y-72582380D01*
X98428571Y-72534761D01*
X98333333Y-72439523D01*
X98285714Y-72344285D01*
X98238095Y-72153809D01*
X98238095Y-72010952D01*
X98285714Y-71820476D01*
X98333333Y-71725238D01*
X98428571Y-71630000D01*
X98571428Y-71582380D01*
X98666666Y-71582380D01*
X98809523Y-71630000D01*
X98857142Y-71677619D01*
X99238095Y-71677619D02*
X99285714Y-71630000D01*
X99380952Y-71582380D01*
X99619047Y-71582380D01*
X99714285Y-71630000D01*
X99761904Y-71677619D01*
X99809523Y-71772857D01*
X99809523Y-71868095D01*
X99761904Y-72010952D01*
X99190476Y-72582380D01*
X99809523Y-72582380D01*
X100714285Y-71582380D02*
X100238095Y-71582380D01*
X100190476Y-72058571D01*
X100238095Y-72010952D01*
X100333333Y-71963333D01*
X100571428Y-71963333D01*
X100666666Y-72010952D01*
X100714285Y-72058571D01*
X100761904Y-72153809D01*
X100761904Y-72391904D01*
X100714285Y-72487142D01*
X100666666Y-72534761D01*
X100571428Y-72582380D01*
X100333333Y-72582380D01*
X100238095Y-72534761D01*
X100190476Y-72487142D01*
%TO.C,R1*%
X165782380Y-90466666D02*
X165306190Y-90800000D01*
X165782380Y-91038095D02*
X164782380Y-91038095D01*
X164782380Y-90657142D01*
X164830000Y-90561904D01*
X164877619Y-90514285D01*
X164972857Y-90466666D01*
X165115714Y-90466666D01*
X165210952Y-90514285D01*
X165258571Y-90561904D01*
X165306190Y-90657142D01*
X165306190Y-91038095D01*
X165782380Y-89514285D02*
X165782380Y-90085714D01*
X165782380Y-89800000D02*
X164782380Y-89800000D01*
X164925238Y-89895238D01*
X165020476Y-89990476D01*
X165068095Y-90085714D01*
%TO.C,R16*%
X139407142Y-108052380D02*
X139073809Y-107576190D01*
X138835714Y-108052380D02*
X138835714Y-107052380D01*
X139216666Y-107052380D01*
X139311904Y-107100000D01*
X139359523Y-107147619D01*
X139407142Y-107242857D01*
X139407142Y-107385714D01*
X139359523Y-107480952D01*
X139311904Y-107528571D01*
X139216666Y-107576190D01*
X138835714Y-107576190D01*
X140359523Y-108052380D02*
X139788095Y-108052380D01*
X140073809Y-108052380D02*
X140073809Y-107052380D01*
X139978571Y-107195238D01*
X139883333Y-107290476D01*
X139788095Y-107338095D01*
X141216666Y-107052380D02*
X141026190Y-107052380D01*
X140930952Y-107100000D01*
X140883333Y-107147619D01*
X140788095Y-107290476D01*
X140740476Y-107480952D01*
X140740476Y-107861904D01*
X140788095Y-107957142D01*
X140835714Y-108004761D01*
X140930952Y-108052380D01*
X141121428Y-108052380D01*
X141216666Y-108004761D01*
X141264285Y-107957142D01*
X141311904Y-107861904D01*
X141311904Y-107623809D01*
X141264285Y-107528571D01*
X141216666Y-107480952D01*
X141121428Y-107433333D01*
X140930952Y-107433333D01*
X140835714Y-107480952D01*
X140788095Y-107528571D01*
X140740476Y-107623809D01*
%TO.C,C21*%
X175857142Y-91557142D02*
X175809523Y-91604761D01*
X175666666Y-91652380D01*
X175571428Y-91652380D01*
X175428571Y-91604761D01*
X175333333Y-91509523D01*
X175285714Y-91414285D01*
X175238095Y-91223809D01*
X175238095Y-91080952D01*
X175285714Y-90890476D01*
X175333333Y-90795238D01*
X175428571Y-90700000D01*
X175571428Y-90652380D01*
X175666666Y-90652380D01*
X175809523Y-90700000D01*
X175857142Y-90747619D01*
X176238095Y-90747619D02*
X176285714Y-90700000D01*
X176380952Y-90652380D01*
X176619047Y-90652380D01*
X176714285Y-90700000D01*
X176761904Y-90747619D01*
X176809523Y-90842857D01*
X176809523Y-90938095D01*
X176761904Y-91080952D01*
X176190476Y-91652380D01*
X176809523Y-91652380D01*
X177761904Y-91652380D02*
X177190476Y-91652380D01*
X177476190Y-91652380D02*
X177476190Y-90652380D01*
X177380952Y-90795238D01*
X177285714Y-90890476D01*
X177190476Y-90938095D01*
%TO.C,R32*%
X145457142Y-137052380D02*
X145123809Y-136576190D01*
X144885714Y-137052380D02*
X144885714Y-136052380D01*
X145266666Y-136052380D01*
X145361904Y-136100000D01*
X145409523Y-136147619D01*
X145457142Y-136242857D01*
X145457142Y-136385714D01*
X145409523Y-136480952D01*
X145361904Y-136528571D01*
X145266666Y-136576190D01*
X144885714Y-136576190D01*
X145790476Y-136052380D02*
X146409523Y-136052380D01*
X146076190Y-136433333D01*
X146219047Y-136433333D01*
X146314285Y-136480952D01*
X146361904Y-136528571D01*
X146409523Y-136623809D01*
X146409523Y-136861904D01*
X146361904Y-136957142D01*
X146314285Y-137004761D01*
X146219047Y-137052380D01*
X145933333Y-137052380D01*
X145838095Y-137004761D01*
X145790476Y-136957142D01*
X146790476Y-136147619D02*
X146838095Y-136100000D01*
X146933333Y-136052380D01*
X147171428Y-136052380D01*
X147266666Y-136100000D01*
X147314285Y-136147619D01*
X147361904Y-136242857D01*
X147361904Y-136338095D01*
X147314285Y-136480952D01*
X146742857Y-137052380D01*
X147361904Y-137052380D01*
%TO.C,Q8*%
X142304761Y-115147619D02*
X142209523Y-115100000D01*
X142114285Y-115004761D01*
X141971428Y-114861904D01*
X141876190Y-114814285D01*
X141780952Y-114814285D01*
X141828571Y-115052380D02*
X141733333Y-115004761D01*
X141638095Y-114909523D01*
X141590476Y-114719047D01*
X141590476Y-114385714D01*
X141638095Y-114195238D01*
X141733333Y-114100000D01*
X141828571Y-114052380D01*
X142019047Y-114052380D01*
X142114285Y-114100000D01*
X142209523Y-114195238D01*
X142257142Y-114385714D01*
X142257142Y-114719047D01*
X142209523Y-114909523D01*
X142114285Y-115004761D01*
X142019047Y-115052380D01*
X141828571Y-115052380D01*
X142828571Y-114480952D02*
X142733333Y-114433333D01*
X142685714Y-114385714D01*
X142638095Y-114290476D01*
X142638095Y-114242857D01*
X142685714Y-114147619D01*
X142733333Y-114100000D01*
X142828571Y-114052380D01*
X143019047Y-114052380D01*
X143114285Y-114100000D01*
X143161904Y-114147619D01*
X143209523Y-114242857D01*
X143209523Y-114290476D01*
X143161904Y-114385714D01*
X143114285Y-114433333D01*
X143019047Y-114480952D01*
X142828571Y-114480952D01*
X142733333Y-114528571D01*
X142685714Y-114576190D01*
X142638095Y-114671428D01*
X142638095Y-114861904D01*
X142685714Y-114957142D01*
X142733333Y-115004761D01*
X142828571Y-115052380D01*
X143019047Y-115052380D01*
X143114285Y-115004761D01*
X143161904Y-114957142D01*
X143209523Y-114861904D01*
X143209523Y-114671428D01*
X143161904Y-114576190D01*
X143114285Y-114528571D01*
X143019047Y-114480952D01*
%TO.C,C9*%
X109133333Y-82707142D02*
X109085714Y-82754761D01*
X108942857Y-82802380D01*
X108847619Y-82802380D01*
X108704761Y-82754761D01*
X108609523Y-82659523D01*
X108561904Y-82564285D01*
X108514285Y-82373809D01*
X108514285Y-82230952D01*
X108561904Y-82040476D01*
X108609523Y-81945238D01*
X108704761Y-81850000D01*
X108847619Y-81802380D01*
X108942857Y-81802380D01*
X109085714Y-81850000D01*
X109133333Y-81897619D01*
X109609523Y-82802380D02*
X109800000Y-82802380D01*
X109895238Y-82754761D01*
X109942857Y-82707142D01*
X110038095Y-82564285D01*
X110085714Y-82373809D01*
X110085714Y-81992857D01*
X110038095Y-81897619D01*
X109990476Y-81850000D01*
X109895238Y-81802380D01*
X109704761Y-81802380D01*
X109609523Y-81850000D01*
X109561904Y-81897619D01*
X109514285Y-81992857D01*
X109514285Y-82230952D01*
X109561904Y-82326190D01*
X109609523Y-82373809D01*
X109704761Y-82421428D01*
X109895238Y-82421428D01*
X109990476Y-82373809D01*
X110038095Y-82326190D01*
X110085714Y-82230952D01*
%TO.C,R2*%
X130623333Y-103942380D02*
X130290000Y-103466190D01*
X130051904Y-103942380D02*
X130051904Y-102942380D01*
X130432857Y-102942380D01*
X130528095Y-102990000D01*
X130575714Y-103037619D01*
X130623333Y-103132857D01*
X130623333Y-103275714D01*
X130575714Y-103370952D01*
X130528095Y-103418571D01*
X130432857Y-103466190D01*
X130051904Y-103466190D01*
X131004285Y-103037619D02*
X131051904Y-102990000D01*
X131147142Y-102942380D01*
X131385238Y-102942380D01*
X131480476Y-102990000D01*
X131528095Y-103037619D01*
X131575714Y-103132857D01*
X131575714Y-103228095D01*
X131528095Y-103370952D01*
X130956666Y-103942380D01*
X131575714Y-103942380D01*
%TO.C,D9*%
X130852380Y-98208095D02*
X129852380Y-98208095D01*
X129852380Y-97970000D01*
X129900000Y-97827142D01*
X129995238Y-97731904D01*
X130090476Y-97684285D01*
X130280952Y-97636666D01*
X130423809Y-97636666D01*
X130614285Y-97684285D01*
X130709523Y-97731904D01*
X130804761Y-97827142D01*
X130852380Y-97970000D01*
X130852380Y-98208095D01*
X130852380Y-97160476D02*
X130852380Y-96970000D01*
X130804761Y-96874761D01*
X130757142Y-96827142D01*
X130614285Y-96731904D01*
X130423809Y-96684285D01*
X130042857Y-96684285D01*
X129947619Y-96731904D01*
X129900000Y-96779523D01*
X129852380Y-96874761D01*
X129852380Y-97065238D01*
X129900000Y-97160476D01*
X129947619Y-97208095D01*
X130042857Y-97255714D01*
X130280952Y-97255714D01*
X130376190Y-97208095D01*
X130423809Y-97160476D01*
X130471428Y-97065238D01*
X130471428Y-96874761D01*
X130423809Y-96779523D01*
X130376190Y-96731904D01*
X130280952Y-96684285D01*
%TO.C,R33*%
X145457142Y-134352380D02*
X145123809Y-133876190D01*
X144885714Y-134352380D02*
X144885714Y-133352380D01*
X145266666Y-133352380D01*
X145361904Y-133400000D01*
X145409523Y-133447619D01*
X145457142Y-133542857D01*
X145457142Y-133685714D01*
X145409523Y-133780952D01*
X145361904Y-133828571D01*
X145266666Y-133876190D01*
X144885714Y-133876190D01*
X145790476Y-133352380D02*
X146409523Y-133352380D01*
X146076190Y-133733333D01*
X146219047Y-133733333D01*
X146314285Y-133780952D01*
X146361904Y-133828571D01*
X146409523Y-133923809D01*
X146409523Y-134161904D01*
X146361904Y-134257142D01*
X146314285Y-134304761D01*
X146219047Y-134352380D01*
X145933333Y-134352380D01*
X145838095Y-134304761D01*
X145790476Y-134257142D01*
X146742857Y-133352380D02*
X147361904Y-133352380D01*
X147028571Y-133733333D01*
X147171428Y-133733333D01*
X147266666Y-133780952D01*
X147314285Y-133828571D01*
X147361904Y-133923809D01*
X147361904Y-134161904D01*
X147314285Y-134257142D01*
X147266666Y-134304761D01*
X147171428Y-134352380D01*
X146885714Y-134352380D01*
X146790476Y-134304761D01*
X146742857Y-134257142D01*
%TO.C,C8*%
X95333333Y-74807142D02*
X95285714Y-74854761D01*
X95142857Y-74902380D01*
X95047619Y-74902380D01*
X94904761Y-74854761D01*
X94809523Y-74759523D01*
X94761904Y-74664285D01*
X94714285Y-74473809D01*
X94714285Y-74330952D01*
X94761904Y-74140476D01*
X94809523Y-74045238D01*
X94904761Y-73950000D01*
X95047619Y-73902380D01*
X95142857Y-73902380D01*
X95285714Y-73950000D01*
X95333333Y-73997619D01*
X95904761Y-74330952D02*
X95809523Y-74283333D01*
X95761904Y-74235714D01*
X95714285Y-74140476D01*
X95714285Y-74092857D01*
X95761904Y-73997619D01*
X95809523Y-73950000D01*
X95904761Y-73902380D01*
X96095238Y-73902380D01*
X96190476Y-73950000D01*
X96238095Y-73997619D01*
X96285714Y-74092857D01*
X96285714Y-74140476D01*
X96238095Y-74235714D01*
X96190476Y-74283333D01*
X96095238Y-74330952D01*
X95904761Y-74330952D01*
X95809523Y-74378571D01*
X95761904Y-74426190D01*
X95714285Y-74521428D01*
X95714285Y-74711904D01*
X95761904Y-74807142D01*
X95809523Y-74854761D01*
X95904761Y-74902380D01*
X96095238Y-74902380D01*
X96190476Y-74854761D01*
X96238095Y-74807142D01*
X96285714Y-74711904D01*
X96285714Y-74521428D01*
X96238095Y-74426190D01*
X96190476Y-74378571D01*
X96095238Y-74330952D01*
%TO.C,R27*%
X135657142Y-114752380D02*
X135323809Y-114276190D01*
X135085714Y-114752380D02*
X135085714Y-113752380D01*
X135466666Y-113752380D01*
X135561904Y-113800000D01*
X135609523Y-113847619D01*
X135657142Y-113942857D01*
X135657142Y-114085714D01*
X135609523Y-114180952D01*
X135561904Y-114228571D01*
X135466666Y-114276190D01*
X135085714Y-114276190D01*
X136038095Y-113847619D02*
X136085714Y-113800000D01*
X136180952Y-113752380D01*
X136419047Y-113752380D01*
X136514285Y-113800000D01*
X136561904Y-113847619D01*
X136609523Y-113942857D01*
X136609523Y-114038095D01*
X136561904Y-114180952D01*
X135990476Y-114752380D01*
X136609523Y-114752380D01*
X136942857Y-113752380D02*
X137609523Y-113752380D01*
X137180952Y-114752380D01*
%TO.C,L3*%
X126147619Y-81183333D02*
X126147619Y-80707142D01*
X127147619Y-80707142D01*
X127147619Y-81421428D02*
X127147619Y-82040476D01*
X126766666Y-81707142D01*
X126766666Y-81850000D01*
X126719047Y-81945238D01*
X126671428Y-81992857D01*
X126576190Y-82040476D01*
X126338095Y-82040476D01*
X126242857Y-81992857D01*
X126195238Y-81945238D01*
X126147619Y-81850000D01*
X126147619Y-81564285D01*
X126195238Y-81469047D01*
X126242857Y-81421428D01*
%TO.C,Q2*%
X161847619Y-101845238D02*
X161800000Y-101940476D01*
X161704761Y-102035714D01*
X161561904Y-102178571D01*
X161514285Y-102273809D01*
X161514285Y-102369047D01*
X161752380Y-102321428D02*
X161704761Y-102416666D01*
X161609523Y-102511904D01*
X161419047Y-102559523D01*
X161085714Y-102559523D01*
X160895238Y-102511904D01*
X160800000Y-102416666D01*
X160752380Y-102321428D01*
X160752380Y-102130952D01*
X160800000Y-102035714D01*
X160895238Y-101940476D01*
X161085714Y-101892857D01*
X161419047Y-101892857D01*
X161609523Y-101940476D01*
X161704761Y-102035714D01*
X161752380Y-102130952D01*
X161752380Y-102321428D01*
X160847619Y-101511904D02*
X160800000Y-101464285D01*
X160752380Y-101369047D01*
X160752380Y-101130952D01*
X160800000Y-101035714D01*
X160847619Y-100988095D01*
X160942857Y-100940476D01*
X161038095Y-100940476D01*
X161180952Y-100988095D01*
X161752380Y-101559523D01*
X161752380Y-100940476D01*
%TO.C,R25*%
X166744642Y-135952380D02*
X166411309Y-135476190D01*
X166173214Y-135952380D02*
X166173214Y-134952380D01*
X166554166Y-134952380D01*
X166649404Y-135000000D01*
X166697023Y-135047619D01*
X166744642Y-135142857D01*
X166744642Y-135285714D01*
X166697023Y-135380952D01*
X166649404Y-135428571D01*
X166554166Y-135476190D01*
X166173214Y-135476190D01*
X167125595Y-135047619D02*
X167173214Y-135000000D01*
X167268452Y-134952380D01*
X167506547Y-134952380D01*
X167601785Y-135000000D01*
X167649404Y-135047619D01*
X167697023Y-135142857D01*
X167697023Y-135238095D01*
X167649404Y-135380952D01*
X167077976Y-135952380D01*
X167697023Y-135952380D01*
X168601785Y-134952380D02*
X168125595Y-134952380D01*
X168077976Y-135428571D01*
X168125595Y-135380952D01*
X168220833Y-135333333D01*
X168458928Y-135333333D01*
X168554166Y-135380952D01*
X168601785Y-135428571D01*
X168649404Y-135523809D01*
X168649404Y-135761904D01*
X168601785Y-135857142D01*
X168554166Y-135904761D01*
X168458928Y-135952380D01*
X168220833Y-135952380D01*
X168125595Y-135904761D01*
X168077976Y-135857142D01*
%TO.C,C6*%
X108933333Y-71757142D02*
X108885714Y-71804761D01*
X108742857Y-71852380D01*
X108647619Y-71852380D01*
X108504761Y-71804761D01*
X108409523Y-71709523D01*
X108361904Y-71614285D01*
X108314285Y-71423809D01*
X108314285Y-71280952D01*
X108361904Y-71090476D01*
X108409523Y-70995238D01*
X108504761Y-70900000D01*
X108647619Y-70852380D01*
X108742857Y-70852380D01*
X108885714Y-70900000D01*
X108933333Y-70947619D01*
X109790476Y-70852380D02*
X109600000Y-70852380D01*
X109504761Y-70900000D01*
X109457142Y-70947619D01*
X109361904Y-71090476D01*
X109314285Y-71280952D01*
X109314285Y-71661904D01*
X109361904Y-71757142D01*
X109409523Y-71804761D01*
X109504761Y-71852380D01*
X109695238Y-71852380D01*
X109790476Y-71804761D01*
X109838095Y-71757142D01*
X109885714Y-71661904D01*
X109885714Y-71423809D01*
X109838095Y-71328571D01*
X109790476Y-71280952D01*
X109695238Y-71233333D01*
X109504761Y-71233333D01*
X109409523Y-71280952D01*
X109361904Y-71328571D01*
X109314285Y-71423809D01*
%TO.C,C7*%
X95233333Y-81357142D02*
X95185714Y-81404761D01*
X95042857Y-81452380D01*
X94947619Y-81452380D01*
X94804761Y-81404761D01*
X94709523Y-81309523D01*
X94661904Y-81214285D01*
X94614285Y-81023809D01*
X94614285Y-80880952D01*
X94661904Y-80690476D01*
X94709523Y-80595238D01*
X94804761Y-80500000D01*
X94947619Y-80452380D01*
X95042857Y-80452380D01*
X95185714Y-80500000D01*
X95233333Y-80547619D01*
X95566666Y-80452380D02*
X96233333Y-80452380D01*
X95804761Y-81452380D01*
%TO.C,R8*%
X111952380Y-78116666D02*
X111476190Y-78450000D01*
X111952380Y-78688095D02*
X110952380Y-78688095D01*
X110952380Y-78307142D01*
X111000000Y-78211904D01*
X111047619Y-78164285D01*
X111142857Y-78116666D01*
X111285714Y-78116666D01*
X111380952Y-78164285D01*
X111428571Y-78211904D01*
X111476190Y-78307142D01*
X111476190Y-78688095D01*
X111380952Y-77545238D02*
X111333333Y-77640476D01*
X111285714Y-77688095D01*
X111190476Y-77735714D01*
X111142857Y-77735714D01*
X111047619Y-77688095D01*
X111000000Y-77640476D01*
X110952380Y-77545238D01*
X110952380Y-77354761D01*
X111000000Y-77259523D01*
X111047619Y-77211904D01*
X111142857Y-77164285D01*
X111190476Y-77164285D01*
X111285714Y-77211904D01*
X111333333Y-77259523D01*
X111380952Y-77354761D01*
X111380952Y-77545238D01*
X111428571Y-77640476D01*
X111476190Y-77688095D01*
X111571428Y-77735714D01*
X111761904Y-77735714D01*
X111857142Y-77688095D01*
X111904761Y-77640476D01*
X111952380Y-77545238D01*
X111952380Y-77354761D01*
X111904761Y-77259523D01*
X111857142Y-77211904D01*
X111761904Y-77164285D01*
X111571428Y-77164285D01*
X111476190Y-77211904D01*
X111428571Y-77259523D01*
X111380952Y-77354761D01*
%TO.C,R13*%
X94257142Y-77102380D02*
X93923809Y-76626190D01*
X93685714Y-77102380D02*
X93685714Y-76102380D01*
X94066666Y-76102380D01*
X94161904Y-76150000D01*
X94209523Y-76197619D01*
X94257142Y-76292857D01*
X94257142Y-76435714D01*
X94209523Y-76530952D01*
X94161904Y-76578571D01*
X94066666Y-76626190D01*
X93685714Y-76626190D01*
X95209523Y-77102380D02*
X94638095Y-77102380D01*
X94923809Y-77102380D02*
X94923809Y-76102380D01*
X94828571Y-76245238D01*
X94733333Y-76340476D01*
X94638095Y-76388095D01*
X95542857Y-76102380D02*
X96161904Y-76102380D01*
X95828571Y-76483333D01*
X95971428Y-76483333D01*
X96066666Y-76530952D01*
X96114285Y-76578571D01*
X96161904Y-76673809D01*
X96161904Y-76911904D01*
X96114285Y-77007142D01*
X96066666Y-77054761D01*
X95971428Y-77102380D01*
X95685714Y-77102380D01*
X95590476Y-77054761D01*
X95542857Y-77007142D01*
%TO.C,C20*%
X175857142Y-80057142D02*
X175809523Y-80104761D01*
X175666666Y-80152380D01*
X175571428Y-80152380D01*
X175428571Y-80104761D01*
X175333333Y-80009523D01*
X175285714Y-79914285D01*
X175238095Y-79723809D01*
X175238095Y-79580952D01*
X175285714Y-79390476D01*
X175333333Y-79295238D01*
X175428571Y-79200000D01*
X175571428Y-79152380D01*
X175666666Y-79152380D01*
X175809523Y-79200000D01*
X175857142Y-79247619D01*
X176238095Y-79247619D02*
X176285714Y-79200000D01*
X176380952Y-79152380D01*
X176619047Y-79152380D01*
X176714285Y-79200000D01*
X176761904Y-79247619D01*
X176809523Y-79342857D01*
X176809523Y-79438095D01*
X176761904Y-79580952D01*
X176190476Y-80152380D01*
X176809523Y-80152380D01*
X177428571Y-79152380D02*
X177523809Y-79152380D01*
X177619047Y-79200000D01*
X177666666Y-79247619D01*
X177714285Y-79342857D01*
X177761904Y-79533333D01*
X177761904Y-79771428D01*
X177714285Y-79961904D01*
X177666666Y-80057142D01*
X177619047Y-80104761D01*
X177523809Y-80152380D01*
X177428571Y-80152380D01*
X177333333Y-80104761D01*
X177285714Y-80057142D01*
X177238095Y-79961904D01*
X177190476Y-79771428D01*
X177190476Y-79533333D01*
X177238095Y-79342857D01*
X177285714Y-79247619D01*
X177333333Y-79200000D01*
X177428571Y-79152380D01*
%TO.C,R18*%
X121857142Y-121252380D02*
X121523809Y-120776190D01*
X121285714Y-121252380D02*
X121285714Y-120252380D01*
X121666666Y-120252380D01*
X121761904Y-120300000D01*
X121809523Y-120347619D01*
X121857142Y-120442857D01*
X121857142Y-120585714D01*
X121809523Y-120680952D01*
X121761904Y-120728571D01*
X121666666Y-120776190D01*
X121285714Y-120776190D01*
X122809523Y-121252380D02*
X122238095Y-121252380D01*
X122523809Y-121252380D02*
X122523809Y-120252380D01*
X122428571Y-120395238D01*
X122333333Y-120490476D01*
X122238095Y-120538095D01*
X123380952Y-120680952D02*
X123285714Y-120633333D01*
X123238095Y-120585714D01*
X123190476Y-120490476D01*
X123190476Y-120442857D01*
X123238095Y-120347619D01*
X123285714Y-120300000D01*
X123380952Y-120252380D01*
X123571428Y-120252380D01*
X123666666Y-120300000D01*
X123714285Y-120347619D01*
X123761904Y-120442857D01*
X123761904Y-120490476D01*
X123714285Y-120585714D01*
X123666666Y-120633333D01*
X123571428Y-120680952D01*
X123380952Y-120680952D01*
X123285714Y-120728571D01*
X123238095Y-120776190D01*
X123190476Y-120871428D01*
X123190476Y-121061904D01*
X123238095Y-121157142D01*
X123285714Y-121204761D01*
X123380952Y-121252380D01*
X123571428Y-121252380D01*
X123666666Y-121204761D01*
X123714285Y-121157142D01*
X123761904Y-121061904D01*
X123761904Y-120871428D01*
X123714285Y-120776190D01*
X123666666Y-120728571D01*
X123571428Y-120680952D01*
%TO.C,C13*%
X111457142Y-100542857D02*
X111504761Y-100590476D01*
X111552380Y-100733333D01*
X111552380Y-100828571D01*
X111504761Y-100971428D01*
X111409523Y-101066666D01*
X111314285Y-101114285D01*
X111123809Y-101161904D01*
X110980952Y-101161904D01*
X110790476Y-101114285D01*
X110695238Y-101066666D01*
X110600000Y-100971428D01*
X110552380Y-100828571D01*
X110552380Y-100733333D01*
X110600000Y-100590476D01*
X110647619Y-100542857D01*
X111552380Y-99590476D02*
X111552380Y-100161904D01*
X111552380Y-99876190D02*
X110552380Y-99876190D01*
X110695238Y-99971428D01*
X110790476Y-100066666D01*
X110838095Y-100161904D01*
X110552380Y-99257142D02*
X110552380Y-98638095D01*
X110933333Y-98971428D01*
X110933333Y-98828571D01*
X110980952Y-98733333D01*
X111028571Y-98685714D01*
X111123809Y-98638095D01*
X111361904Y-98638095D01*
X111457142Y-98685714D01*
X111504761Y-98733333D01*
X111552380Y-98828571D01*
X111552380Y-99114285D01*
X111504761Y-99209523D01*
X111457142Y-99257142D01*
%TO.C,R31*%
X126857142Y-136952380D02*
X126523809Y-136476190D01*
X126285714Y-136952380D02*
X126285714Y-135952380D01*
X126666666Y-135952380D01*
X126761904Y-136000000D01*
X126809523Y-136047619D01*
X126857142Y-136142857D01*
X126857142Y-136285714D01*
X126809523Y-136380952D01*
X126761904Y-136428571D01*
X126666666Y-136476190D01*
X126285714Y-136476190D01*
X127190476Y-135952380D02*
X127809523Y-135952380D01*
X127476190Y-136333333D01*
X127619047Y-136333333D01*
X127714285Y-136380952D01*
X127761904Y-136428571D01*
X127809523Y-136523809D01*
X127809523Y-136761904D01*
X127761904Y-136857142D01*
X127714285Y-136904761D01*
X127619047Y-136952380D01*
X127333333Y-136952380D01*
X127238095Y-136904761D01*
X127190476Y-136857142D01*
X128761904Y-136952380D02*
X128190476Y-136952380D01*
X128476190Y-136952380D02*
X128476190Y-135952380D01*
X128380952Y-136095238D01*
X128285714Y-136190476D01*
X128190476Y-136238095D01*
%TO.C,R7*%
X107323333Y-75892380D02*
X106990000Y-75416190D01*
X106751904Y-75892380D02*
X106751904Y-74892380D01*
X107132857Y-74892380D01*
X107228095Y-74940000D01*
X107275714Y-74987619D01*
X107323333Y-75082857D01*
X107323333Y-75225714D01*
X107275714Y-75320952D01*
X107228095Y-75368571D01*
X107132857Y-75416190D01*
X106751904Y-75416190D01*
X107656666Y-74892380D02*
X108323333Y-74892380D01*
X107894761Y-75892380D01*
%TO.C,R22*%
X159382380Y-131842857D02*
X158906190Y-132176190D01*
X159382380Y-132414285D02*
X158382380Y-132414285D01*
X158382380Y-132033333D01*
X158430000Y-131938095D01*
X158477619Y-131890476D01*
X158572857Y-131842857D01*
X158715714Y-131842857D01*
X158810952Y-131890476D01*
X158858571Y-131938095D01*
X158906190Y-132033333D01*
X158906190Y-132414285D01*
X158477619Y-131461904D02*
X158430000Y-131414285D01*
X158382380Y-131319047D01*
X158382380Y-131080952D01*
X158430000Y-130985714D01*
X158477619Y-130938095D01*
X158572857Y-130890476D01*
X158668095Y-130890476D01*
X158810952Y-130938095D01*
X159382380Y-131509523D01*
X159382380Y-130890476D01*
X158477619Y-130509523D02*
X158430000Y-130461904D01*
X158382380Y-130366666D01*
X158382380Y-130128571D01*
X158430000Y-130033333D01*
X158477619Y-129985714D01*
X158572857Y-129938095D01*
X158668095Y-129938095D01*
X158810952Y-129985714D01*
X159382380Y-130557142D01*
X159382380Y-129938095D01*
D13*
%TO.C,J5*%
X182570000Y-130330000D02*
X182570000Y-127670000D01*
X179970000Y-130330000D02*
X179970000Y-129000000D01*
X182630000Y-130330000D02*
X182630000Y-127670000D01*
X182570000Y-130330000D02*
X182630000Y-130330000D01*
X182570000Y-127670000D02*
X182630000Y-127670000D01*
X181300000Y-130330000D02*
X179970000Y-130330000D01*
%TO.C,J19*%
X160195000Y-143470000D02*
X162795000Y-143470000D01*
X158925000Y-146130000D02*
X157595000Y-146130000D01*
X160195000Y-146130000D02*
X160195000Y-143470000D01*
X157595000Y-146130000D02*
X157595000Y-144800000D01*
X160195000Y-146130000D02*
X162795000Y-146130000D01*
X162795000Y-146130000D02*
X162795000Y-143470000D01*
%TO.C,R23*%
X153477500Y-130962742D02*
X153477500Y-131437258D01*
X154522500Y-130962742D02*
X154522500Y-131437258D01*
%TO.C,Q6*%
X130900000Y-120840000D02*
X132850000Y-120840000D01*
X130900000Y-125960000D02*
X132850000Y-125960000D01*
X130900000Y-120840000D02*
X127450000Y-120840000D01*
X130900000Y-125960000D02*
X128950000Y-125960000D01*
%TO.C,C22*%
X164288748Y-83360000D02*
X165711252Y-83360000D01*
X164288748Y-80640000D02*
X165711252Y-80640000D01*
%TO.C,R24*%
X164125242Y-139472500D02*
X164599758Y-139472500D01*
X164125242Y-138427500D02*
X164599758Y-138427500D01*
%TO.C,J22*%
X143405000Y-146130000D02*
X140805000Y-146130000D01*
X140805000Y-143470000D02*
X140805000Y-146130000D01*
X146005000Y-143470000D02*
X146005000Y-144800000D01*
X144675000Y-143470000D02*
X146005000Y-143470000D01*
X143405000Y-143470000D02*
X140805000Y-143470000D01*
X143405000Y-143470000D02*
X143405000Y-146130000D01*
%TO.C,J1*%
X172030000Y-106670000D02*
X172030000Y-106730000D01*
X169370000Y-106730000D02*
X172030000Y-106730000D01*
X169370000Y-106670000D02*
X172030000Y-106670000D01*
X169370000Y-106670000D02*
X169370000Y-106730000D01*
X169370000Y-104070000D02*
X170700000Y-104070000D01*
X169370000Y-105400000D02*
X169370000Y-104070000D01*
%TO.C,R17*%
X119262742Y-112272500D02*
X119737258Y-112272500D01*
X119262742Y-111227500D02*
X119737258Y-111227500D01*
%TO.C,R10*%
X101922500Y-76587258D02*
X101922500Y-76112742D01*
X100877500Y-76587258D02*
X100877500Y-76112742D01*
%TO.C,Q3*%
X145120000Y-99280000D02*
X145120000Y-98180000D01*
X144850000Y-100780000D02*
X144850000Y-99280000D01*
X151480000Y-99280000D02*
X151480000Y-96450000D01*
X151750000Y-99280000D02*
X151480000Y-99280000D01*
X144850000Y-99280000D02*
X145120000Y-99280000D01*
X151750000Y-100780000D02*
X151750000Y-99280000D01*
%TO.C,C14*%
X114490000Y-94738748D02*
X114490000Y-96161252D01*
X117210000Y-94738748D02*
X117210000Y-96161252D01*
%TO.C,JP8*%
X113900000Y-135300000D02*
X116700000Y-135300000D01*
X116700000Y-137300000D02*
X113900000Y-137300000D01*
X113900000Y-137300000D02*
X113900000Y-135300000D01*
X116700000Y-135300000D02*
X116700000Y-137300000D01*
%TO.C,R19*%
X119262742Y-114527500D02*
X119737258Y-114527500D01*
X119262742Y-115572500D02*
X119737258Y-115572500D01*
%TO.C,Q7*%
X130900000Y-113590000D02*
X132850000Y-113590000D01*
X130900000Y-118710000D02*
X128950000Y-118710000D01*
X130900000Y-118710000D02*
X132850000Y-118710000D01*
X130900000Y-113590000D02*
X127450000Y-113590000D01*
%TO.C,Q5*%
X113700000Y-89060000D02*
X115650000Y-89060000D01*
X113700000Y-83940000D02*
X110250000Y-83940000D01*
X113700000Y-89060000D02*
X111750000Y-89060000D01*
X113700000Y-83940000D02*
X115650000Y-83940000D01*
%TO.C,R15*%
X137037258Y-110272500D02*
X136562742Y-110272500D01*
X137037258Y-109227500D02*
X136562742Y-109227500D01*
D12*
%TO.C,IC1*%
X132375000Y-107225000D02*
X132375000Y-107525000D01*
X129025000Y-107450000D02*
X127800000Y-107450000D01*
X129025000Y-110575000D02*
X129025000Y-110275000D01*
X129025000Y-107225000D02*
X132375000Y-107225000D01*
X129025000Y-107225000D02*
X129025000Y-107450000D01*
X132375000Y-110575000D02*
X132375000Y-110275000D01*
X129025000Y-110575000D02*
X132375000Y-110575000D01*
D13*
%TO.C,C23*%
X164288748Y-78360000D02*
X165711252Y-78360000D01*
X164288748Y-75640000D02*
X165711252Y-75640000D01*
%TO.C,C15*%
X121270000Y-94778748D02*
X121270000Y-96201252D01*
X118550000Y-94778748D02*
X118550000Y-96201252D01*
%TO.C,C11*%
X114698748Y-78620000D02*
X116121252Y-78620000D01*
X114698748Y-81340000D02*
X116121252Y-81340000D01*
%TO.C,Q1*%
X153830000Y-87650000D02*
X153830000Y-87920000D01*
X155330000Y-94550000D02*
X153830000Y-94550000D01*
X153830000Y-94550000D02*
X153830000Y-94280000D01*
X155330000Y-87650000D02*
X153830000Y-87650000D01*
X153830000Y-94280000D02*
X152730000Y-94280000D01*
X153830000Y-87920000D02*
X151000000Y-87920000D01*
%TO.C,R14*%
X137037258Y-111227500D02*
X136562742Y-111227500D01*
X137037258Y-112272500D02*
X136562742Y-112272500D01*
%TO.C,C24*%
X99761252Y-65615000D02*
X99238748Y-65615000D01*
X99761252Y-67085000D02*
X99238748Y-67085000D01*
%TO.C,JP9*%
X124475000Y-135300000D02*
X124475000Y-137300000D01*
X121675000Y-135300000D02*
X124475000Y-135300000D01*
X121675000Y-137300000D02*
X121675000Y-135300000D01*
X124475000Y-137300000D02*
X121675000Y-137300000D01*
%TO.C,D1*%
X164559420Y-87910000D02*
X164840580Y-87910000D01*
X164559420Y-86890000D02*
X164840580Y-86890000D01*
%TO.C,R21*%
X149850000Y-110050000D02*
X170950000Y-110050000D01*
X170950000Y-110050000D02*
X170950000Y-126350000D01*
X170950000Y-126350000D02*
X149850000Y-126350000D01*
X149850000Y-126350000D02*
X149850000Y-110050000D01*
%TO.C,J16*%
X175130000Y-143470000D02*
X175130000Y-144800000D01*
X173800000Y-143470000D02*
X175130000Y-143470000D01*
X172470000Y-143470000D02*
X172470000Y-146130000D01*
X172530000Y-143470000D02*
X172470000Y-143470000D01*
X172530000Y-146130000D02*
X172470000Y-146130000D01*
X172530000Y-143470000D02*
X172530000Y-146130000D01*
%TO.C,R20*%
X119262742Y-118072500D02*
X119737258Y-118072500D01*
X119262742Y-117027500D02*
X119737258Y-117027500D01*
%TO.C,Q4*%
X138570000Y-96200000D02*
X140070000Y-96200000D01*
X140070000Y-102830000D02*
X142900000Y-102830000D01*
X140070000Y-96200000D02*
X140070000Y-96470000D01*
X140070000Y-96470000D02*
X141170000Y-96470000D01*
X140070000Y-103100000D02*
X140070000Y-102830000D01*
X138570000Y-103100000D02*
X140070000Y-103100000D01*
%TO.C,J17*%
X167730000Y-146130000D02*
X167670000Y-146130000D01*
X169000000Y-143470000D02*
X170330000Y-143470000D01*
X167730000Y-143470000D02*
X167670000Y-143470000D01*
X170330000Y-143470000D02*
X170330000Y-144800000D01*
X167670000Y-143470000D02*
X167670000Y-146130000D01*
X167730000Y-143470000D02*
X167730000Y-146130000D01*
%TO.C,R11*%
X108910000Y-85822936D02*
X108910000Y-90177064D01*
X105490000Y-85822936D02*
X105490000Y-90177064D01*
%TO.C,C12*%
X102495000Y-93264113D02*
X103060000Y-93264113D01*
X105140000Y-94464113D02*
X106542000Y-94464113D01*
X103816000Y-92704113D02*
X104384000Y-92704113D01*
X105140000Y-93024113D02*
X105351000Y-93024113D01*
X105140000Y-93864113D02*
X106249000Y-93864113D01*
X101599000Y-94665113D02*
X103060000Y-94665113D01*
X101771000Y-94184113D02*
X103060000Y-94184113D01*
X105140000Y-94785113D02*
X106628000Y-94785113D01*
X105140000Y-93384113D02*
X105843000Y-93384113D01*
X105140000Y-93424113D02*
X105885000Y-93424113D01*
X105140000Y-94945113D02*
X106656000Y-94945113D01*
X102600000Y-93184113D02*
X103060000Y-93184113D01*
X101810000Y-94104113D02*
X103060000Y-94104113D01*
X105140000Y-93464113D02*
X105926000Y-93464113D01*
X102625000Y-98109888D02*
X102625000Y-97609888D01*
X105140000Y-94224113D02*
X106448000Y-94224113D01*
X105140000Y-94264113D02*
X106465000Y-94264113D01*
X105140000Y-94304113D02*
X106482000Y-94304113D01*
X101925000Y-93904113D02*
X103060000Y-93904113D01*
X105140000Y-94625113D02*
X106591000Y-94625113D01*
X105140000Y-93744113D02*
X106165000Y-93744113D01*
X101658000Y-94464113D02*
X103060000Y-94464113D01*
X102657000Y-93144113D02*
X103060000Y-93144113D01*
X101557000Y-94865113D02*
X103060000Y-94865113D01*
X101589000Y-94705113D02*
X103060000Y-94705113D01*
X101900000Y-93944113D02*
X103060000Y-93944113D01*
X102096000Y-93664113D02*
X103060000Y-93664113D01*
X105140000Y-93224113D02*
X105654000Y-93224113D01*
X102546000Y-93224113D02*
X103060000Y-93224113D01*
X102065000Y-93704113D02*
X103060000Y-93704113D01*
X101735000Y-94264113D02*
X103060000Y-94264113D01*
X105140000Y-94825113D02*
X106636000Y-94825113D01*
X103582000Y-92744113D02*
X104618000Y-92744113D01*
X105140000Y-94424113D02*
X106528000Y-94424113D01*
X101520000Y-95305113D02*
X106680000Y-95305113D01*
X105140000Y-93704113D02*
X106135000Y-93704113D01*
X105140000Y-94184113D02*
X106429000Y-94184113D01*
X105140000Y-94584113D02*
X106580000Y-94584113D01*
X101752000Y-94224113D02*
X103060000Y-94224113D01*
X105140000Y-94745113D02*
X106620000Y-94745113D01*
X105140000Y-94544113D02*
X106568000Y-94544113D01*
X101672000Y-94424113D02*
X103060000Y-94424113D01*
X101521000Y-95225113D02*
X106679000Y-95225113D01*
X102849000Y-93024113D02*
X103060000Y-93024113D01*
X101609000Y-94625113D02*
X103060000Y-94625113D01*
X102357000Y-93384113D02*
X103060000Y-93384113D01*
X105140000Y-94665113D02*
X106601000Y-94665113D01*
X101527000Y-95105113D02*
X106673000Y-95105113D01*
X101535000Y-95025113D02*
X103060000Y-95025113D01*
X101686000Y-94384113D02*
X103060000Y-94384113D01*
X105140000Y-93544113D02*
X106001000Y-93544113D01*
X105140000Y-93624113D02*
X106071000Y-93624113D01*
X102447000Y-93304113D02*
X103060000Y-93304113D01*
X105140000Y-93104113D02*
X105483000Y-93104113D01*
X105140000Y-93584113D02*
X106037000Y-93584113D01*
X101978000Y-93824113D02*
X103060000Y-93824113D01*
X101564000Y-94825113D02*
X103060000Y-94825113D01*
X105140000Y-93504113D02*
X105964000Y-93504113D01*
X101832000Y-94064113D02*
X103060000Y-94064113D01*
X101718000Y-94304113D02*
X103060000Y-94304113D01*
X105140000Y-94144113D02*
X106410000Y-94144113D01*
X105140000Y-94384113D02*
X106514000Y-94384113D01*
X102922000Y-92984113D02*
X105278000Y-92984113D01*
X102781000Y-93064113D02*
X103060000Y-93064113D01*
X101951000Y-93864113D02*
X103060000Y-93864113D01*
X101580000Y-94745113D02*
X103060000Y-94745113D01*
X105140000Y-93664113D02*
X106104000Y-93664113D01*
X105140000Y-94104113D02*
X106390000Y-94104113D01*
X105140000Y-94865113D02*
X106643000Y-94865113D01*
X101550000Y-94905113D02*
X103060000Y-94905113D01*
X102005000Y-93784113D02*
X103060000Y-93784113D01*
X102375000Y-97859888D02*
X102875000Y-97859888D01*
X103089000Y-92904113D02*
X105111000Y-92904113D01*
X105140000Y-95065113D02*
X106669000Y-95065113D01*
X105140000Y-94705113D02*
X106611000Y-94705113D01*
X101702000Y-94344113D02*
X103060000Y-94344113D01*
X101522000Y-95185113D02*
X106678000Y-95185113D01*
X101524000Y-95145113D02*
X106676000Y-95145113D01*
X102401000Y-93344113D02*
X103060000Y-93344113D01*
X105140000Y-93824113D02*
X106222000Y-93824113D01*
X105140000Y-93984113D02*
X106324000Y-93984113D01*
X105140000Y-93784113D02*
X106195000Y-93784113D01*
X101531000Y-95065113D02*
X103060000Y-95065113D01*
X101632000Y-94544113D02*
X103060000Y-94544113D01*
X101853000Y-94024113D02*
X103060000Y-94024113D01*
X103295000Y-92824113D02*
X104905000Y-92824113D01*
X105140000Y-93264113D02*
X105705000Y-93264113D01*
X102236000Y-93504113D02*
X103060000Y-93504113D01*
X105140000Y-93064113D02*
X105419000Y-93064113D01*
X103185000Y-92864113D02*
X105015000Y-92864113D01*
X101544000Y-94945113D02*
X103060000Y-94945113D01*
X101876000Y-93984113D02*
X103060000Y-93984113D01*
X103002000Y-92944113D02*
X105198000Y-92944113D01*
X105140000Y-95025113D02*
X106665000Y-95025113D01*
X105140000Y-93944113D02*
X106300000Y-93944113D01*
X101539000Y-94985113D02*
X103060000Y-94985113D01*
X105140000Y-94504113D02*
X106555000Y-94504113D01*
X105140000Y-94985113D02*
X106661000Y-94985113D01*
X102129000Y-93624113D02*
X103060000Y-93624113D01*
X105140000Y-93184113D02*
X105600000Y-93184113D01*
X102035000Y-93744113D02*
X103060000Y-93744113D01*
X102163000Y-93584113D02*
X103060000Y-93584113D01*
X101645000Y-94504113D02*
X103060000Y-94504113D01*
X102315000Y-93424113D02*
X103060000Y-93424113D01*
X102274000Y-93464113D02*
X103060000Y-93464113D01*
X105140000Y-93144113D02*
X105543000Y-93144113D01*
X105140000Y-94024113D02*
X106347000Y-94024113D01*
X105140000Y-94905113D02*
X106650000Y-94905113D01*
X105140000Y-93344113D02*
X105799000Y-93344113D01*
X103423000Y-92784113D02*
X104777000Y-92784113D01*
X105140000Y-93904113D02*
X106275000Y-93904113D01*
X101620000Y-94584113D02*
X103060000Y-94584113D01*
X101572000Y-94785113D02*
X103060000Y-94785113D01*
X101790000Y-94144113D02*
X103060000Y-94144113D01*
X105140000Y-93304113D02*
X105753000Y-93304113D01*
X105140000Y-94344113D02*
X106498000Y-94344113D01*
X102199000Y-93544113D02*
X103060000Y-93544113D01*
X102717000Y-93104113D02*
X103060000Y-93104113D01*
X101520000Y-95265113D02*
X106680000Y-95265113D01*
X105140000Y-94064113D02*
X106368000Y-94064113D01*
X106720000Y-95305113D02*
G75*
G03*
X106720000Y-95305113I-2620000J0D01*
G01*
%TO.C,C5*%
X103914113Y-67499000D02*
X103914113Y-66390000D01*
X103434113Y-67093000D02*
X103434113Y-66390000D01*
X103594113Y-64310000D02*
X103594113Y-63449000D01*
X103274113Y-66904000D02*
X103274113Y-63796000D01*
X103074113Y-66601000D02*
X103074113Y-64099000D01*
X105195113Y-64310000D02*
X105195113Y-62774000D01*
X104594113Y-67818000D02*
X104594113Y-66390000D01*
X103634113Y-64310000D02*
X103634113Y-63413000D01*
X105315113Y-67930000D02*
X105315113Y-66390000D01*
X105115113Y-64310000D02*
X105115113Y-62781000D01*
X103594113Y-67251000D02*
X103594113Y-66390000D01*
X104955113Y-67900000D02*
X104955113Y-66390000D01*
X104795113Y-67870000D02*
X104795113Y-66390000D01*
X104194113Y-67660000D02*
X104194113Y-66390000D01*
X104995113Y-64310000D02*
X104995113Y-62794000D01*
X104354113Y-64310000D02*
X104354113Y-62968000D01*
X105115113Y-67919000D02*
X105115113Y-66390000D01*
X104394113Y-67748000D02*
X104394113Y-66390000D01*
X104715113Y-67851000D02*
X104715113Y-66390000D01*
X103234113Y-66850000D02*
X103234113Y-63850000D01*
X103874113Y-67472000D02*
X103874113Y-66390000D01*
X104554113Y-64310000D02*
X104554113Y-62895000D01*
X102794113Y-65868000D02*
X102794113Y-64832000D01*
X105195113Y-67926000D02*
X105195113Y-66390000D01*
X103674113Y-67321000D02*
X103674113Y-66390000D01*
X102754113Y-65634000D02*
X102754113Y-65066000D01*
X103714113Y-64310000D02*
X103714113Y-63346000D01*
X103514113Y-67176000D02*
X103514113Y-66390000D01*
X103914113Y-64310000D02*
X103914113Y-63201000D01*
X103154113Y-66733000D02*
X103154113Y-63967000D01*
X104474113Y-67778000D02*
X104474113Y-66390000D01*
X102954113Y-66361000D02*
X102954113Y-64339000D01*
X108159888Y-66825000D02*
X107659888Y-66825000D01*
X103994113Y-67550000D02*
X103994113Y-66390000D01*
X104234113Y-67679000D02*
X104234113Y-66390000D01*
X103994113Y-64310000D02*
X103994113Y-63150000D01*
X104915113Y-67893000D02*
X104915113Y-66390000D01*
X104154113Y-67640000D02*
X104154113Y-66390000D01*
X104034113Y-67574000D02*
X104034113Y-66390000D01*
X105075113Y-67915000D02*
X105075113Y-66390000D01*
X103674113Y-64310000D02*
X103674113Y-63379000D01*
X104074113Y-64310000D02*
X104074113Y-63103000D01*
X104514113Y-64310000D02*
X104514113Y-62908000D01*
X105355113Y-67930000D02*
X105355113Y-66390000D01*
X104634113Y-67830000D02*
X104634113Y-66390000D01*
X103434113Y-64310000D02*
X103434113Y-63607000D01*
X103834113Y-64310000D02*
X103834113Y-63255000D01*
X103874113Y-64310000D02*
X103874113Y-63228000D01*
X103114113Y-66669000D02*
X103114113Y-64031000D01*
X104234113Y-64310000D02*
X104234113Y-63021000D01*
X104594113Y-64310000D02*
X104594113Y-62882000D01*
X104715113Y-64310000D02*
X104715113Y-62849000D01*
X104955113Y-64310000D02*
X104955113Y-62800000D01*
X103034113Y-66528000D02*
X103034113Y-64172000D01*
X104554113Y-67805000D02*
X104554113Y-66390000D01*
X104755113Y-64310000D02*
X104755113Y-62839000D01*
X105155113Y-64310000D02*
X105155113Y-62777000D01*
X104074113Y-67597000D02*
X104074113Y-66390000D01*
X103954113Y-64310000D02*
X103954113Y-63175000D01*
X104835113Y-64310000D02*
X104835113Y-62822000D01*
X104274113Y-64310000D02*
X104274113Y-63002000D01*
X102834113Y-66027000D02*
X102834113Y-64673000D01*
X103194113Y-66793000D02*
X103194113Y-63907000D01*
X104394113Y-64310000D02*
X104394113Y-62952000D01*
X104314113Y-64310000D02*
X104314113Y-62985000D01*
X104795113Y-64310000D02*
X104795113Y-62830000D01*
X104154113Y-64310000D02*
X104154113Y-63060000D01*
X103834113Y-67445000D02*
X103834113Y-66390000D01*
X104434113Y-64310000D02*
X104434113Y-62936000D01*
X102874113Y-66155000D02*
X102874113Y-64545000D01*
X103554113Y-64310000D02*
X103554113Y-63486000D01*
X103634113Y-67287000D02*
X103634113Y-66390000D01*
X104875113Y-67886000D02*
X104875113Y-66390000D01*
X104875113Y-64310000D02*
X104875113Y-62814000D01*
X105035113Y-67911000D02*
X105035113Y-66390000D01*
X103754113Y-67385000D02*
X103754113Y-66390000D01*
X104194113Y-64310000D02*
X104194113Y-63040000D01*
X105235113Y-67928000D02*
X105235113Y-66390000D01*
X105235113Y-64310000D02*
X105235113Y-62772000D01*
X104675113Y-67841000D02*
X104675113Y-66390000D01*
X103714113Y-67354000D02*
X103714113Y-66390000D01*
X104755113Y-67861000D02*
X104755113Y-66390000D01*
X103794113Y-64310000D02*
X103794113Y-63285000D01*
X104474113Y-64310000D02*
X104474113Y-62922000D01*
X103514113Y-64310000D02*
X103514113Y-63524000D01*
X104034113Y-64310000D02*
X104034113Y-63126000D01*
X102994113Y-66448000D02*
X102994113Y-64252000D01*
X104675113Y-64310000D02*
X104675113Y-62859000D01*
X103474113Y-64310000D02*
X103474113Y-63565000D01*
X104114113Y-67618000D02*
X104114113Y-66390000D01*
X105275113Y-67929000D02*
X105275113Y-66390000D01*
X103474113Y-67135000D02*
X103474113Y-66390000D01*
X104634113Y-64310000D02*
X104634113Y-62870000D01*
X105035113Y-64310000D02*
X105035113Y-62789000D01*
X105315113Y-64310000D02*
X105315113Y-62770000D01*
X103314113Y-66955000D02*
X103314113Y-63745000D01*
X104995113Y-67906000D02*
X104995113Y-66390000D01*
X103794113Y-67415000D02*
X103794113Y-66390000D01*
X105275113Y-64310000D02*
X105275113Y-62771000D01*
X104434113Y-67764000D02*
X104434113Y-66390000D01*
X103354113Y-64310000D02*
X103354113Y-63697000D01*
X103394113Y-64310000D02*
X103394113Y-63651000D01*
X105355113Y-64310000D02*
X105355113Y-62770000D01*
X102914113Y-66265000D02*
X102914113Y-64435000D01*
X104835113Y-67878000D02*
X104835113Y-66390000D01*
X105075113Y-64310000D02*
X105075113Y-62785000D01*
X103554113Y-67214000D02*
X103554113Y-66390000D01*
X103354113Y-67003000D02*
X103354113Y-66390000D01*
X104274113Y-67698000D02*
X104274113Y-66390000D01*
X103394113Y-67049000D02*
X103394113Y-66390000D01*
X103754113Y-64310000D02*
X103754113Y-63315000D01*
X104114113Y-64310000D02*
X104114113Y-63082000D01*
X107909888Y-67075000D02*
X107909888Y-66575000D01*
X104354113Y-67732000D02*
X104354113Y-66390000D01*
X104915113Y-64310000D02*
X104915113Y-62807000D01*
X104314113Y-67715000D02*
X104314113Y-66390000D01*
X105155113Y-67923000D02*
X105155113Y-66390000D01*
X104514113Y-67792000D02*
X104514113Y-66390000D01*
X103954113Y-67525000D02*
X103954113Y-66390000D01*
X107975113Y-65350000D02*
G75*
G03*
X107975113Y-65350000I-2620000J0D01*
G01*
%TO.C,R12*%
X95372936Y-79660000D02*
X96827064Y-79660000D01*
X95372936Y-77840000D02*
X96827064Y-77840000D01*
%TO.C,R9*%
X98547258Y-83242500D02*
X98072742Y-83242500D01*
X98547258Y-82197500D02*
X98072742Y-82197500D01*
%TO.C,R26*%
X129162742Y-129122500D02*
X129637258Y-129122500D01*
X129162742Y-128077500D02*
X129637258Y-128077500D01*
%TO.C,R30*%
X130737258Y-133377500D02*
X130262742Y-133377500D01*
X130737258Y-134422500D02*
X130262742Y-134422500D01*
%TO.C,C10*%
X116111252Y-76610000D02*
X114688748Y-76610000D01*
X116111252Y-73890000D02*
X114688748Y-73890000D01*
%TO.C,JP7*%
X137800000Y-142300000D02*
X137800000Y-140300000D01*
X140600000Y-140300000D02*
X140600000Y-142300000D01*
X140600000Y-142300000D02*
X137800000Y-142300000D01*
X137800000Y-140300000D02*
X140600000Y-140300000D01*
%TO.C,JP3*%
X111500000Y-108400000D02*
X111500000Y-105600000D01*
X111500000Y-105600000D02*
X113500000Y-105600000D01*
X113500000Y-108400000D02*
X111500000Y-108400000D01*
X113500000Y-105600000D02*
X113500000Y-108400000D01*
%TO.C,C25*%
X99761252Y-71185000D02*
X99238748Y-71185000D01*
X99761252Y-69715000D02*
X99238748Y-69715000D01*
%TO.C,JP5*%
X123500000Y-128500000D02*
X123500000Y-125700000D01*
X123500000Y-125700000D02*
X125500000Y-125700000D01*
X125500000Y-128500000D02*
X123500000Y-128500000D01*
X125500000Y-125700000D02*
X125500000Y-128500000D01*
%TO.C,J20*%
X93630000Y-138545000D02*
X93630000Y-138605000D01*
X90970000Y-135945000D02*
X92300000Y-135945000D01*
X90970000Y-138545000D02*
X93630000Y-138545000D01*
X90970000Y-138605000D02*
X93630000Y-138605000D01*
X90970000Y-137275000D02*
X90970000Y-135945000D01*
X90970000Y-138545000D02*
X90970000Y-138605000D01*
%TO.C,R1*%
X163377500Y-90062742D02*
X163377500Y-90537258D01*
X164422500Y-90062742D02*
X164422500Y-90537258D01*
%TO.C,R16*%
X137037258Y-107077500D02*
X136562742Y-107077500D01*
X137037258Y-108122500D02*
X136562742Y-108122500D01*
%TO.C,JP6*%
X137800000Y-147200000D02*
X140600000Y-147200000D01*
X137800000Y-149200000D02*
X137800000Y-147200000D01*
X140600000Y-147200000D02*
X140600000Y-149200000D01*
X140600000Y-149200000D02*
X137800000Y-149200000D01*
%TO.C,J3*%
X181300000Y-136730000D02*
X179970000Y-136730000D01*
X182630000Y-136730000D02*
X182630000Y-134070000D01*
X182570000Y-136730000D02*
X182570000Y-134070000D01*
X182570000Y-136730000D02*
X182630000Y-136730000D01*
X179970000Y-136730000D02*
X179970000Y-135400000D01*
X182570000Y-134070000D02*
X182630000Y-134070000D01*
%TO.C,C21*%
X184120000Y-95000000D02*
G75*
G03*
X184120000Y-95000000I-8120000J0D01*
G01*
%TO.C,JP1*%
X105600000Y-105600000D02*
X107600000Y-105600000D01*
X107600000Y-108400000D02*
X105600000Y-108400000D01*
X105600000Y-108400000D02*
X105600000Y-105600000D01*
X107600000Y-105600000D02*
X107600000Y-108400000D01*
%TO.C,R32*%
X142862742Y-136077500D02*
X143337258Y-136077500D01*
X142862742Y-137122500D02*
X143337258Y-137122500D01*
%TO.C,J13*%
X124670000Y-146070000D02*
X127330000Y-146070000D01*
X124670000Y-143470000D02*
X126000000Y-143470000D01*
X124670000Y-146130000D02*
X127330000Y-146130000D01*
X124670000Y-144800000D02*
X124670000Y-143470000D01*
X124670000Y-146070000D02*
X124670000Y-146130000D01*
X127330000Y-146070000D02*
X127330000Y-146130000D01*
%TO.C,Q8*%
X141430000Y-122550000D02*
X139930000Y-122550000D01*
X139930000Y-115920000D02*
X137100000Y-115920000D01*
X139930000Y-122280000D02*
X138830000Y-122280000D01*
X139930000Y-115650000D02*
X139930000Y-115920000D01*
X141430000Y-115650000D02*
X139930000Y-115650000D01*
X139930000Y-122550000D02*
X139930000Y-122280000D01*
%TO.C,C9*%
X108838748Y-81385000D02*
X109361252Y-81385000D01*
X108838748Y-79915000D02*
X109361252Y-79915000D01*
%TO.C,U5*%
X103650000Y-79080000D02*
X105150000Y-79080000D01*
X103650000Y-82300000D02*
X105150000Y-82300000D01*
X103650000Y-82300000D02*
X102150000Y-82300000D01*
X103650000Y-79080000D02*
X100775000Y-79080000D01*
%TO.C,Q10*%
X136800000Y-137160000D02*
X138750000Y-137160000D01*
X136800000Y-132040000D02*
X138750000Y-132040000D01*
X136800000Y-137160000D02*
X134850000Y-137160000D01*
X136800000Y-132040000D02*
X133350000Y-132040000D01*
%TO.C,R2*%
X130997258Y-105522500D02*
X130522742Y-105522500D01*
X130997258Y-104477500D02*
X130522742Y-104477500D01*
%TO.C,D9*%
X122450000Y-96500000D02*
X122450000Y-95000000D01*
X129350000Y-95000000D02*
X129080000Y-95000000D01*
X129350000Y-96500000D02*
X129350000Y-95000000D01*
X129080000Y-95000000D02*
X129080000Y-92170000D01*
X122720000Y-95000000D02*
X122720000Y-93900000D01*
X122450000Y-95000000D02*
X122720000Y-95000000D01*
%TO.C,R33*%
X142862742Y-134422500D02*
X143337258Y-134422500D01*
X142862742Y-133377500D02*
X143337258Y-133377500D01*
%TO.C,C8*%
X98440580Y-75060000D02*
X98159420Y-75060000D01*
X98440580Y-74040000D02*
X98159420Y-74040000D01*
%TO.C,J8*%
X123730000Y-146070000D02*
X123730000Y-146130000D01*
X121070000Y-146070000D02*
X121070000Y-146130000D01*
X121070000Y-144800000D02*
X121070000Y-143470000D01*
X121070000Y-143470000D02*
X122400000Y-143470000D01*
X121070000Y-146070000D02*
X123730000Y-146070000D01*
X121070000Y-146130000D02*
X123730000Y-146130000D01*
%TO.C,J12*%
X93630000Y-122770000D02*
X93630000Y-125370000D01*
X90970000Y-122770000D02*
X90970000Y-125370000D01*
X90970000Y-122770000D02*
X93630000Y-122770000D01*
X90970000Y-120170000D02*
X92300000Y-120170000D01*
X90970000Y-121500000D02*
X90970000Y-120170000D01*
X90970000Y-125370000D02*
X93630000Y-125370000D01*
%TO.C,R27*%
X139062742Y-114822500D02*
X139537258Y-114822500D01*
X139062742Y-113777500D02*
X139537258Y-113777500D01*
%TO.C,L3*%
X132350000Y-75100000D02*
X119850000Y-75100000D01*
X119850000Y-75100000D02*
X119850000Y-87600000D01*
X119850000Y-87600000D02*
X132350000Y-87600000D01*
X132350000Y-87600000D02*
X132350000Y-75100000D01*
%TO.C,U6*%
X136100000Y-83820000D02*
X136100000Y-87680000D01*
X148885000Y-79960000D02*
X148885000Y-78145000D01*
X149120000Y-79960000D02*
X148885000Y-79960000D01*
X149120000Y-83820000D02*
X149120000Y-87680000D01*
X136100000Y-87680000D02*
X136335000Y-87680000D01*
X149120000Y-87680000D02*
X148885000Y-87680000D01*
X136100000Y-83820000D02*
X136100000Y-79960000D01*
X136100000Y-79960000D02*
X136335000Y-79960000D01*
X149120000Y-83820000D02*
X149120000Y-79960000D01*
%TO.C,JP2*%
X107600000Y-113400000D02*
X105600000Y-113400000D01*
X105600000Y-110600000D02*
X107600000Y-110600000D01*
X105600000Y-113400000D02*
X105600000Y-110600000D01*
X107600000Y-110600000D02*
X107600000Y-113400000D01*
%TO.C,J14*%
X90970000Y-134545000D02*
X90970000Y-134605000D01*
X93630000Y-134545000D02*
X93630000Y-134605000D01*
X90970000Y-133275000D02*
X90970000Y-131945000D01*
X90970000Y-131945000D02*
X92300000Y-131945000D01*
X90970000Y-134545000D02*
X93630000Y-134545000D01*
X90970000Y-134605000D02*
X93630000Y-134605000D01*
%TO.C,Q2*%
X153350000Y-99280000D02*
X153620000Y-99280000D01*
X160250000Y-99280000D02*
X159980000Y-99280000D01*
X153350000Y-100780000D02*
X153350000Y-99280000D01*
X159980000Y-99280000D02*
X159980000Y-96450000D01*
X160250000Y-100780000D02*
X160250000Y-99280000D01*
X153620000Y-99280000D02*
X153620000Y-98180000D01*
%TO.C,R25*%
X164212742Y-134927500D02*
X164687258Y-134927500D01*
X164212742Y-135972500D02*
X164687258Y-135972500D01*
%TO.C,C6*%
X104089225Y-70310000D02*
X104089225Y-69021000D01*
X103529225Y-73321000D02*
X103529225Y-72390000D01*
X103489225Y-70310000D02*
X103489225Y-69413000D01*
X103809225Y-73525000D02*
X103809225Y-72390000D01*
X105050225Y-73926000D02*
X105050225Y-72390000D01*
X104289225Y-73764000D02*
X104289225Y-72390000D01*
X104089225Y-73679000D02*
X104089225Y-72390000D01*
X103689225Y-73445000D02*
X103689225Y-72390000D01*
X104489225Y-70310000D02*
X104489225Y-68870000D01*
X105130225Y-73929000D02*
X105130225Y-72390000D01*
X104249225Y-70310000D02*
X104249225Y-68952000D01*
X104009225Y-70310000D02*
X104009225Y-69060000D01*
X103609225Y-70310000D02*
X103609225Y-69315000D01*
X104770225Y-73893000D02*
X104770225Y-72390000D01*
X102689225Y-72027000D02*
X102689225Y-70673000D01*
X102969225Y-72669000D02*
X102969225Y-70031000D01*
X102809225Y-72361000D02*
X102809225Y-70339000D01*
X103369225Y-73176000D02*
X103369225Y-72390000D01*
X102769225Y-72265000D02*
X102769225Y-70435000D01*
X105010225Y-73923000D02*
X105010225Y-72390000D01*
X103249225Y-73049000D02*
X103249225Y-72390000D01*
X103649225Y-73415000D02*
X103649225Y-72390000D01*
X104690225Y-73878000D02*
X104690225Y-72390000D01*
X104049225Y-70310000D02*
X104049225Y-69040000D01*
X104810225Y-73900000D02*
X104810225Y-72390000D01*
X105050225Y-70310000D02*
X105050225Y-68774000D01*
X103849225Y-70310000D02*
X103849225Y-69150000D01*
X104930225Y-70310000D02*
X104930225Y-68785000D01*
X103889225Y-73574000D02*
X103889225Y-72390000D01*
X104249225Y-73748000D02*
X104249225Y-72390000D01*
X104850225Y-70310000D02*
X104850225Y-68794000D01*
X103809225Y-70310000D02*
X103809225Y-69175000D01*
X103929225Y-70310000D02*
X103929225Y-69103000D01*
X104650225Y-73870000D02*
X104650225Y-72390000D01*
X103569225Y-70310000D02*
X103569225Y-69346000D01*
X103609225Y-73385000D02*
X103609225Y-72390000D01*
X103569225Y-73354000D02*
X103569225Y-72390000D01*
X104890225Y-73911000D02*
X104890225Y-72390000D01*
X108015000Y-72825000D02*
X107515000Y-72825000D01*
X104329225Y-73778000D02*
X104329225Y-72390000D01*
X103329225Y-73135000D02*
X103329225Y-72390000D01*
X104289225Y-70310000D02*
X104289225Y-68936000D01*
X104610225Y-70310000D02*
X104610225Y-68839000D01*
X103169225Y-72955000D02*
X103169225Y-69745000D01*
X105210225Y-70310000D02*
X105210225Y-68770000D01*
X104449225Y-73818000D02*
X104449225Y-72390000D01*
X104930225Y-73915000D02*
X104930225Y-72390000D01*
X103209225Y-70310000D02*
X103209225Y-69697000D01*
X104570225Y-73851000D02*
X104570225Y-72390000D01*
X103889225Y-70310000D02*
X103889225Y-69126000D01*
X104650225Y-70310000D02*
X104650225Y-68830000D01*
X104009225Y-73640000D02*
X104009225Y-72390000D01*
X103209225Y-73003000D02*
X103209225Y-72390000D01*
X103769225Y-73499000D02*
X103769225Y-72390000D01*
X104169225Y-70310000D02*
X104169225Y-68985000D01*
X105090225Y-73928000D02*
X105090225Y-72390000D01*
X104129225Y-73698000D02*
X104129225Y-72390000D01*
X103729225Y-70310000D02*
X103729225Y-69228000D01*
X103329225Y-70310000D02*
X103329225Y-69565000D01*
X103289225Y-70310000D02*
X103289225Y-69607000D01*
X104129225Y-70310000D02*
X104129225Y-69002000D01*
X105170225Y-70310000D02*
X105170225Y-68770000D01*
X103489225Y-73287000D02*
X103489225Y-72390000D01*
X103649225Y-70310000D02*
X103649225Y-69285000D01*
X105090225Y-70310000D02*
X105090225Y-68772000D01*
X104970225Y-70310000D02*
X104970225Y-68781000D01*
X104489225Y-73830000D02*
X104489225Y-72390000D01*
X102609225Y-71634000D02*
X102609225Y-71066000D01*
X104169225Y-73715000D02*
X104169225Y-72390000D01*
X103449225Y-73251000D02*
X103449225Y-72390000D01*
X102889225Y-72528000D02*
X102889225Y-70172000D01*
X103409225Y-73214000D02*
X103409225Y-72390000D01*
X103449225Y-70310000D02*
X103449225Y-69449000D01*
X104409225Y-73805000D02*
X104409225Y-72390000D01*
X104770225Y-70310000D02*
X104770225Y-68807000D01*
X103849225Y-73550000D02*
X103849225Y-72390000D01*
X102729225Y-72155000D02*
X102729225Y-70545000D01*
X103769225Y-70310000D02*
X103769225Y-69201000D01*
X104449225Y-70310000D02*
X104449225Y-68882000D01*
X105170225Y-73930000D02*
X105170225Y-72390000D01*
X102649225Y-71868000D02*
X102649225Y-70832000D01*
X103729225Y-73472000D02*
X103729225Y-72390000D01*
X104850225Y-73906000D02*
X104850225Y-72390000D01*
X103049225Y-72793000D02*
X103049225Y-69907000D01*
X103249225Y-70310000D02*
X103249225Y-69651000D01*
X104530225Y-73841000D02*
X104530225Y-72390000D01*
X104329225Y-70310000D02*
X104329225Y-68922000D01*
X104810225Y-70310000D02*
X104810225Y-68800000D01*
X104530225Y-70310000D02*
X104530225Y-68859000D01*
X105130225Y-70310000D02*
X105130225Y-68771000D01*
X104690225Y-70310000D02*
X104690225Y-68822000D01*
X104369225Y-70310000D02*
X104369225Y-68908000D01*
X104209225Y-70310000D02*
X104209225Y-68968000D01*
X102849225Y-72448000D02*
X102849225Y-70252000D01*
X103969225Y-73618000D02*
X103969225Y-72390000D01*
X103289225Y-73093000D02*
X103289225Y-72390000D01*
X104610225Y-73861000D02*
X104610225Y-72390000D01*
X105210225Y-73930000D02*
X105210225Y-72390000D01*
X104209225Y-73732000D02*
X104209225Y-72390000D01*
X104970225Y-73919000D02*
X104970225Y-72390000D01*
X103689225Y-70310000D02*
X103689225Y-69255000D01*
X103369225Y-70310000D02*
X103369225Y-69524000D01*
X107765000Y-73075000D02*
X107765000Y-72575000D01*
X104730225Y-73886000D02*
X104730225Y-72390000D01*
X104369225Y-73792000D02*
X104369225Y-72390000D01*
X104890225Y-70310000D02*
X104890225Y-68789000D01*
X104730225Y-70310000D02*
X104730225Y-68814000D01*
X105010225Y-70310000D02*
X105010225Y-68777000D01*
X104570225Y-70310000D02*
X104570225Y-68849000D01*
X102929225Y-72601000D02*
X102929225Y-70099000D01*
X103969225Y-70310000D02*
X103969225Y-69082000D01*
X103529225Y-70310000D02*
X103529225Y-69379000D01*
X103129225Y-72904000D02*
X103129225Y-69796000D01*
X103089225Y-72850000D02*
X103089225Y-69850000D01*
X103009225Y-72733000D02*
X103009225Y-69967000D01*
X103409225Y-70310000D02*
X103409225Y-69486000D01*
X103929225Y-73597000D02*
X103929225Y-72390000D01*
X104049225Y-73660000D02*
X104049225Y-72390000D01*
X104409225Y-70310000D02*
X104409225Y-68895000D01*
X107830225Y-71350000D02*
G75*
G03*
X107830225Y-71350000I-2620000J0D01*
G01*
%TO.C,C7*%
X98450580Y-81420000D02*
X98169420Y-81420000D01*
X98450580Y-80400000D02*
X98169420Y-80400000D01*
%TO.C,R8*%
X110632500Y-78067258D02*
X110632500Y-77592742D01*
X109587500Y-78067258D02*
X109587500Y-77592742D01*
%TO.C,R13*%
X98537258Y-77072500D02*
X98062742Y-77072500D01*
X98537258Y-76027500D02*
X98062742Y-76027500D01*
%TO.C,J18*%
X152795000Y-143470000D02*
X155395000Y-143470000D01*
X150195000Y-146130000D02*
X150195000Y-144800000D01*
X152795000Y-146130000D02*
X152795000Y-143470000D01*
X155395000Y-146130000D02*
X155395000Y-143470000D01*
X152795000Y-146130000D02*
X155395000Y-146130000D01*
X151525000Y-146130000D02*
X150195000Y-146130000D01*
%TO.C,J21*%
X139530000Y-75470000D02*
X139530000Y-75530000D01*
X136870000Y-75470000D02*
X139530000Y-75470000D01*
X136870000Y-74200000D02*
X136870000Y-72870000D01*
X136870000Y-75530000D02*
X139530000Y-75530000D01*
X136870000Y-72870000D02*
X138200000Y-72870000D01*
X136870000Y-75470000D02*
X136870000Y-75530000D01*
%TO.C,J15*%
X90970000Y-127445000D02*
X92300000Y-127445000D01*
X90970000Y-130045000D02*
X93630000Y-130045000D01*
X93630000Y-130045000D02*
X93630000Y-130105000D01*
X90970000Y-130045000D02*
X90970000Y-130105000D01*
X90970000Y-130105000D02*
X93630000Y-130105000D01*
X90970000Y-128775000D02*
X90970000Y-127445000D01*
%TO.C,Q9*%
X157450000Y-139310000D02*
X155500000Y-139310000D01*
X157450000Y-134190000D02*
X159400000Y-134190000D01*
X157450000Y-139310000D02*
X159400000Y-139310000D01*
X157450000Y-134190000D02*
X154000000Y-134190000D01*
%TO.C,C20*%
X184120000Y-76000000D02*
G75*
G03*
X184120000Y-76000000I-8120000J0D01*
G01*
%TO.C,JP4*%
X111500000Y-113400000D02*
X111500000Y-110600000D01*
X113500000Y-113400000D02*
X111500000Y-113400000D01*
X111500000Y-110600000D02*
X113500000Y-110600000D01*
X113500000Y-110600000D02*
X113500000Y-113400000D01*
%TO.C,R18*%
X119262742Y-121372500D02*
X119737258Y-121372500D01*
X119262742Y-120327500D02*
X119737258Y-120327500D01*
%TO.C,C13*%
X111850000Y-94940001D02*
X113366000Y-94940001D01*
X108745000Y-93739001D02*
X109770000Y-93739001D01*
X109085000Y-97854776D02*
X109585000Y-97854776D01*
X109256000Y-93219001D02*
X109770000Y-93219001D01*
X109491000Y-93059001D02*
X109770000Y-93059001D01*
X111850000Y-94259001D02*
X113175000Y-94259001D01*
X108274000Y-94820001D02*
X109770000Y-94820001D01*
X108237000Y-95100001D02*
X113383000Y-95100001D01*
X111850000Y-93539001D02*
X112711000Y-93539001D01*
X109712000Y-92939001D02*
X111908000Y-92939001D01*
X108330000Y-94579001D02*
X109770000Y-94579001D01*
X108309000Y-94660001D02*
X109770000Y-94660001D01*
X108245000Y-95020001D02*
X109770000Y-95020001D01*
X111850000Y-94059001D02*
X113078000Y-94059001D01*
X111850000Y-94499001D02*
X113265000Y-94499001D01*
X111850000Y-93099001D02*
X112193000Y-93099001D01*
X111850000Y-94620001D02*
X113301000Y-94620001D01*
X108412000Y-94339001D02*
X109770000Y-94339001D01*
X111850000Y-93019001D02*
X112061000Y-93019001D01*
X111850000Y-93219001D02*
X112364000Y-93219001D01*
X108382000Y-94419001D02*
X109770000Y-94419001D01*
X111850000Y-94660001D02*
X113311000Y-94660001D01*
X108232000Y-95180001D02*
X113388000Y-95180001D01*
X111850000Y-94179001D02*
X113139000Y-94179001D01*
X111850000Y-93379001D02*
X112553000Y-93379001D01*
X111850000Y-94419001D02*
X113238000Y-94419001D01*
X110292000Y-92739001D02*
X111328000Y-92739001D01*
X109157000Y-93299001D02*
X109770000Y-93299001D01*
X108984000Y-93459001D02*
X109770000Y-93459001D01*
X111850000Y-94539001D02*
X113278000Y-94539001D01*
X108661000Y-93859001D02*
X109770000Y-93859001D01*
X111850000Y-94860001D02*
X113353000Y-94860001D01*
X111850000Y-94099001D02*
X113100000Y-94099001D01*
X108319000Y-94620001D02*
X109770000Y-94620001D01*
X108282000Y-94780001D02*
X109770000Y-94780001D01*
X111850000Y-94780001D02*
X113338000Y-94780001D01*
X111850000Y-94980001D02*
X113371000Y-94980001D01*
X108586000Y-93979001D02*
X109770000Y-93979001D01*
X111850000Y-93339001D02*
X112509000Y-93339001D01*
X108230000Y-95260001D02*
X113390000Y-95260001D01*
X109310000Y-93179001D02*
X109770000Y-93179001D01*
X111850000Y-93059001D02*
X112129000Y-93059001D01*
X108241000Y-95060001D02*
X109770000Y-95060001D01*
X111850000Y-94900001D02*
X113360000Y-94900001D01*
X108355000Y-94499001D02*
X109770000Y-94499001D01*
X111850000Y-93779001D02*
X112905000Y-93779001D01*
X111850000Y-94740001D02*
X113330000Y-94740001D01*
X108715000Y-93779001D02*
X109770000Y-93779001D01*
X111850000Y-93259001D02*
X112415000Y-93259001D01*
X108249000Y-94980001D02*
X109770000Y-94980001D01*
X108428000Y-94299001D02*
X109770000Y-94299001D01*
X111850000Y-93859001D02*
X112959000Y-93859001D01*
X110133000Y-92779001D02*
X111487000Y-92779001D01*
X111850000Y-93619001D02*
X112781000Y-93619001D01*
X111850000Y-93179001D02*
X112310000Y-93179001D01*
X109025000Y-93419001D02*
X109770000Y-93419001D01*
X111850000Y-93659001D02*
X112814000Y-93659001D01*
X111850000Y-95020001D02*
X113375000Y-95020001D01*
X108688000Y-93819001D02*
X109770000Y-93819001D01*
X108231000Y-95220001D02*
X113389000Y-95220001D01*
X111850000Y-94139001D02*
X113120000Y-94139001D01*
X109335000Y-98104776D02*
X109335000Y-97604776D01*
X108462000Y-94219001D02*
X109770000Y-94219001D01*
X111850000Y-93939001D02*
X113010000Y-93939001D01*
X109205000Y-93259001D02*
X109770000Y-93259001D01*
X111850000Y-94299001D02*
X113192000Y-94299001D01*
X111850000Y-93499001D02*
X112674000Y-93499001D01*
X110005000Y-92819001D02*
X111615000Y-92819001D01*
X109067000Y-93379001D02*
X109770000Y-93379001D01*
X108290000Y-94740001D02*
X109770000Y-94740001D01*
X108234000Y-95140001D02*
X113386000Y-95140001D01*
X108254000Y-94940001D02*
X109770000Y-94940001D01*
X111850000Y-94379001D02*
X113224000Y-94379001D01*
X109895000Y-92859001D02*
X111725000Y-92859001D01*
X111850000Y-94820001D02*
X113346000Y-94820001D01*
X108909000Y-93539001D02*
X109770000Y-93539001D01*
X111850000Y-93979001D02*
X113034000Y-93979001D01*
X108873000Y-93579001D02*
X109770000Y-93579001D01*
X111850000Y-94219001D02*
X113158000Y-94219001D01*
X108839000Y-93619001D02*
X109770000Y-93619001D01*
X108775000Y-93699001D02*
X109770000Y-93699001D01*
X111850000Y-95060001D02*
X113379000Y-95060001D01*
X111850000Y-94579001D02*
X113290000Y-94579001D01*
X111850000Y-93459001D02*
X112636000Y-93459001D01*
X111850000Y-93699001D02*
X112845000Y-93699001D01*
X109799000Y-92899001D02*
X111821000Y-92899001D01*
X108563000Y-94019001D02*
X109770000Y-94019001D01*
X110526000Y-92699001D02*
X111094000Y-92699001D01*
X109559000Y-93019001D02*
X109770000Y-93019001D01*
X111850000Y-93419001D02*
X112595000Y-93419001D01*
X111850000Y-93579001D02*
X112747000Y-93579001D01*
X108230000Y-95300001D02*
X113390000Y-95300001D01*
X108260000Y-94900001D02*
X109770000Y-94900001D01*
X108806000Y-93659001D02*
X109770000Y-93659001D01*
X108500000Y-94139001D02*
X109770000Y-94139001D01*
X109111000Y-93339001D02*
X109770000Y-93339001D01*
X108396000Y-94379001D02*
X109770000Y-94379001D01*
X108267000Y-94860001D02*
X109770000Y-94860001D01*
X111850000Y-93139001D02*
X112253000Y-93139001D01*
X108520000Y-94099001D02*
X109770000Y-94099001D01*
X108610000Y-93939001D02*
X109770000Y-93939001D01*
X108481000Y-94179001D02*
X109770000Y-94179001D01*
X111850000Y-94700001D02*
X113321000Y-94700001D01*
X108946000Y-93499001D02*
X109770000Y-93499001D01*
X111850000Y-93899001D02*
X112985000Y-93899001D01*
X108342000Y-94539001D02*
X109770000Y-94539001D01*
X108635000Y-93899001D02*
X109770000Y-93899001D01*
X111850000Y-93299001D02*
X112463000Y-93299001D01*
X111850000Y-94339001D02*
X113208000Y-94339001D01*
X108445000Y-94259001D02*
X109770000Y-94259001D01*
X109632000Y-92979001D02*
X111988000Y-92979001D01*
X108368000Y-94459001D02*
X109770000Y-94459001D01*
X111850000Y-93819001D02*
X112932000Y-93819001D01*
X111850000Y-94459001D02*
X113252000Y-94459001D01*
X108542000Y-94059001D02*
X109770000Y-94059001D01*
X108299000Y-94700001D02*
X109770000Y-94700001D01*
X109427000Y-93099001D02*
X109770000Y-93099001D01*
X111850000Y-94019001D02*
X113057000Y-94019001D01*
X111850000Y-93739001D02*
X112875000Y-93739001D01*
X109367000Y-93139001D02*
X109770000Y-93139001D01*
X113430000Y-95300001D02*
G75*
G03*
X113430000Y-95300001I-2620000J0D01*
G01*
%TO.C,R31*%
X130737258Y-135977500D02*
X130262742Y-135977500D01*
X130737258Y-137022500D02*
X130262742Y-137022500D01*
%TO.C,J2*%
X163770000Y-106730000D02*
X166430000Y-106730000D01*
X163770000Y-106670000D02*
X163770000Y-106730000D01*
X163770000Y-105400000D02*
X163770000Y-104070000D01*
X166430000Y-106670000D02*
X166430000Y-106730000D01*
X163770000Y-106670000D02*
X166430000Y-106670000D01*
X163770000Y-104070000D02*
X165100000Y-104070000D01*
%TO.C,R7*%
X107252742Y-77392500D02*
X107727258Y-77392500D01*
X107252742Y-76347500D02*
X107727258Y-76347500D01*
%TO.C,R22*%
X156977500Y-130962742D02*
X156977500Y-131437258D01*
X158022500Y-130962742D02*
X158022500Y-131437258D01*
%TO.C,J11*%
X144370000Y-74200000D02*
X144370000Y-72870000D01*
X144370000Y-75530000D02*
X147030000Y-75530000D01*
X144370000Y-75470000D02*
X147030000Y-75470000D01*
X144370000Y-72870000D02*
X145700000Y-72870000D01*
X147030000Y-75470000D02*
X147030000Y-75530000D01*
X144370000Y-75470000D02*
X144370000Y-75530000D01*
%TO.C,J7*%
X133225000Y-146130000D02*
X131895000Y-146130000D01*
X134495000Y-146130000D02*
X137095000Y-146130000D01*
X137095000Y-146130000D02*
X137095000Y-143470000D01*
X134495000Y-146130000D02*
X134495000Y-143470000D01*
X131895000Y-146130000D02*
X131895000Y-144800000D01*
X134495000Y-143470000D02*
X137095000Y-143470000D01*
%TD*%
M02*
