%TF.GenerationSoftware,KiCad,Pcbnew,(6.0.1)*%
%TF.CreationDate,2022-03-07T20:17:15-06:00*%
%TF.ProjectId,power_board,706f7765-725f-4626-9f61-72642e6b6963,rev?*%
%TF.SameCoordinates,Original*%
%TF.FileFunction,Copper,L2,Bot*%
%TF.FilePolarity,Positive*%
%FSLAX46Y46*%
G04 Gerber Fmt 4.6, Leading zero omitted, Abs format (unit mm)*
G04 Created by KiCad (PCBNEW (6.0.1)) date 2022-03-07 20:17:15*
%MOMM*%
%LPD*%
G01*
G04 APERTURE LIST*
%TA.AperFunction,ComponentPad*%
%ADD10R,1.700000X1.700000*%
%TD*%
%TA.AperFunction,ComponentPad*%
%ADD11O,1.700000X1.700000*%
%TD*%
%TA.AperFunction,ComponentPad*%
%ADD12C,1.524000*%
%TD*%
%TA.AperFunction,ComponentPad*%
%ADD13C,2.500000*%
%TD*%
%TA.AperFunction,ComponentPad*%
%ADD14C,1.600000*%
%TD*%
%TA.AperFunction,ComponentPad*%
%ADD15O,1.600000X1.600000*%
%TD*%
%TA.AperFunction,ComponentPad*%
%ADD16R,1.600000X1.600000*%
%TD*%
%TA.AperFunction,ComponentPad*%
%ADD17C,2.000000*%
%TD*%
%TA.AperFunction,ViaPad*%
%ADD18C,0.800000*%
%TD*%
%TA.AperFunction,Conductor*%
%ADD19C,0.300000*%
%TD*%
%TA.AperFunction,Conductor*%
%ADD20C,0.400000*%
%TD*%
G04 APERTURE END LIST*
D10*
%TO.P,J5,1,Pin_1*%
%TO.N,GND*%
X181400000Y-81800000D03*
%TD*%
%TO.P,J19,1,Pin_1*%
%TO.N,Net-(J19-Pad1)*%
X161225000Y-143000000D03*
D11*
%TO.P,J19,2,Pin_2*%
%TO.N,GND*%
X163765000Y-143000000D03*
%TD*%
D12*
%TO.P,J6,1,Pin_1*%
%TO.N,GND*%
X143780000Y-56820000D03*
D13*
X138700000Y-63170000D03*
D12*
X133620000Y-66980000D03*
X143780000Y-66980000D03*
X133620000Y-56820000D03*
%TD*%
D14*
%TO.P,R21,1*%
%TO.N,Net-(Q8-Pad3)*%
X152500000Y-114220000D03*
D15*
%TO.P,R21,2*%
%TO.N,GND*%
X152500000Y-124380000D03*
%TD*%
D10*
%TO.P,J22,1,Pin_1*%
%TO.N,SOLAR_CTRL*%
X145200000Y-143000000D03*
D11*
%TO.P,J22,2,Pin_2*%
%TO.N,GRID_CTRL*%
X142660000Y-143000000D03*
%TD*%
D10*
%TO.P,J1,1,Pin_1*%
%TO.N,+24V*%
X167700000Y-112700000D03*
%TD*%
%TO.P,J16,1,Pin_1*%
%TO.N,MCU_BTN1*%
X174000000Y-143000000D03*
%TD*%
%TO.P,J17,1,Pin_1*%
%TO.N,MCU_BTN2*%
X169200000Y-143000000D03*
%TD*%
D16*
%TO.P,C12,1*%
%TO.N,24V Solar*%
X104100000Y-96555113D03*
D14*
%TO.P,C12,2*%
%TO.N,GND*%
X104100000Y-94055113D03*
%TD*%
D16*
%TO.P,C5,1*%
%TO.N,Solar Panel*%
X106355113Y-65350000D03*
D14*
%TO.P,C5,2*%
%TO.N,GND*%
X104355113Y-65350000D03*
%TD*%
D10*
%TO.P,J4,1,Pin_1*%
%TO.N,GND*%
X169100000Y-62900000D03*
%TD*%
%TO.P,J20,1,Pin_1*%
%TO.N,GND1*%
X94500000Y-137275000D03*
%TD*%
%TO.P,J3,1,Pin_1*%
%TO.N,GND*%
X175000000Y-82000000D03*
%TD*%
D17*
%TO.P,C21,1*%
%TO.N,+24V*%
X173250000Y-120000000D03*
%TO.P,C21,2*%
%TO.N,GND*%
X180750000Y-120000000D03*
%TD*%
D12*
%TO.P,J9,1,Pin_1*%
%TO.N,Solar Panel*%
X113520000Y-66980000D03*
D13*
X118600000Y-63170000D03*
D12*
X113520000Y-56820000D03*
X123680000Y-66980000D03*
X123680000Y-56820000D03*
%TD*%
D10*
%TO.P,J12,1,Pin_1*%
%TO.N,MCU_SCL*%
X94500000Y-121500000D03*
D11*
%TO.P,J12,2,Pin_2*%
%TO.N,MCU_SDA*%
X94500000Y-124040000D03*
%TD*%
D10*
%TO.P,J14,1,Pin_1*%
%TO.N,+5V*%
X94500000Y-133275000D03*
%TD*%
%TO.P,J10,1,Pin_1*%
%TO.N,24V Grid*%
X161500000Y-62900000D03*
%TD*%
D16*
%TO.P,C6,1*%
%TO.N,Solar Panel*%
X106210225Y-71350000D03*
D14*
%TO.P,C6,2*%
%TO.N,GND*%
X104210225Y-71350000D03*
%TD*%
D10*
%TO.P,J18,1,Pin_1*%
%TO.N,Net-(J18-Pad1)*%
X152225000Y-143000000D03*
D11*
%TO.P,J18,2,Pin_2*%
%TO.N,GND*%
X154765000Y-143000000D03*
%TD*%
D10*
%TO.P,J21,1,Pin_1*%
%TO.N,Net-(J21-Pad1)*%
X134600000Y-72200000D03*
%TD*%
%TO.P,J15,1,Pin_1*%
%TO.N,MCU_P_RES*%
X94500000Y-128775000D03*
%TD*%
D17*
%TO.P,C20,1*%
%TO.N,+24V*%
X174000000Y-98750000D03*
%TO.P,C20,2*%
%TO.N,GND*%
X174000000Y-91250000D03*
%TD*%
D16*
%TO.P,C13,1*%
%TO.N,24V Solar*%
X110810000Y-96550001D03*
D14*
%TO.P,C13,2*%
%TO.N,GND*%
X110810000Y-94050001D03*
%TD*%
D10*
%TO.P,J2,1,Pin_1*%
%TO.N,+24V*%
X162100000Y-112700000D03*
%TD*%
%TO.P,J11,1,Pin_1*%
%TO.N,Net-(J11-Pad1)*%
X151400000Y-72200000D03*
%TD*%
%TO.P,J7,1,Pin_1*%
%TO.N,MCU_GRID*%
X133925000Y-143000000D03*
D11*
%TO.P,J7,2,Pin_2*%
%TO.N,MCU_SOLAR*%
X136465000Y-143000000D03*
%TD*%
D18*
%TO.N,GND*%
X131700000Y-118000000D03*
X103600000Y-116750000D03*
X144500000Y-73600000D03*
X137300000Y-123700000D03*
X139300000Y-73500000D03*
X103600000Y-80700000D03*
X104100000Y-81300000D03*
X103100000Y-80100000D03*
X131500000Y-108100000D03*
X96500000Y-74500000D03*
X183000000Y-108600000D03*
X135200000Y-115500000D03*
X148300000Y-77600000D03*
X160900000Y-123725000D03*
X146350000Y-124710000D03*
X142000000Y-73500000D03*
X104100000Y-80100000D03*
X109700000Y-82000000D03*
X103100000Y-81300000D03*
X145880000Y-132670000D03*
X165900000Y-123625000D03*
X96500000Y-80900000D03*
X147000000Y-73600000D03*
X145780000Y-137850000D03*
X136900000Y-77400000D03*
X127000000Y-110400000D03*
X96600000Y-82700000D03*
X108400000Y-116750000D03*
X96500000Y-76500000D03*
X127000000Y-122700000D03*
X109200000Y-78700000D03*
%TO.N,Net-(Q5-Pad4)*%
X105500000Y-83350000D03*
X107300000Y-82550000D03*
%TO.N,24V Solar_2*%
X139300000Y-93350000D03*
X137900000Y-94750000D03*
%TO.N,MCU_SCL*%
X119420000Y-113410000D03*
X117790000Y-113410000D03*
%TO.N,MCU_SDA*%
X130780000Y-120300000D03*
X119350000Y-119170000D03*
X129495023Y-119365023D03*
X117810000Y-119180000D03*
%TO.N,MCU_P_RES*%
X114010000Y-124160000D03*
X116343727Y-124153727D03*
%TO.N,+5V*%
X138590000Y-129460000D03*
X129400000Y-131150000D03*
X151920000Y-135540000D03*
X156850000Y-135260000D03*
X127738000Y-131110000D03*
X140240000Y-129410000D03*
%TO.N,MCU_BTN2*%
X167150000Y-141400000D03*
X165530000Y-141020000D03*
%TO.N,Net-(Q6-Pad5)*%
X135300000Y-123200000D03*
X135300000Y-124800000D03*
%TD*%
D19*
%TO.N,Net-(Q5-Pad4)*%
X106300000Y-82550000D02*
X107200000Y-82550000D01*
X107200000Y-82550000D02*
X107300000Y-82550000D01*
X105500000Y-83350000D02*
X106300000Y-82550000D01*
D20*
%TO.N,24V Solar_2*%
X139300000Y-93350000D02*
X137900000Y-94750000D01*
D19*
%TO.N,MCU_SCL*%
X117790000Y-113410000D02*
X119420000Y-113410000D01*
%TO.N,MCU_SDA*%
X129845023Y-119365023D02*
X130780000Y-120300000D01*
X117810000Y-119180000D02*
X119340000Y-119180000D01*
X119340000Y-119180000D02*
X119350000Y-119170000D01*
X129495023Y-119365023D02*
X129845023Y-119365023D01*
%TO.N,MCU_P_RES*%
X114016273Y-124153727D02*
X114010000Y-124160000D01*
X116343727Y-124153727D02*
X114016273Y-124153727D01*
%TO.N,+5V*%
X129360000Y-131110000D02*
X129400000Y-131150000D01*
X138590000Y-129460000D02*
X140190000Y-129460000D01*
X140190000Y-129460000D02*
X140240000Y-129410000D01*
X156570000Y-135540000D02*
X156850000Y-135260000D01*
X151920000Y-135540000D02*
X156570000Y-135540000D01*
X127738000Y-131110000D02*
X129360000Y-131110000D01*
%TO.N,MCU_BTN2*%
X167150000Y-141400000D02*
X165910000Y-141400000D01*
X165910000Y-141400000D02*
X165530000Y-141020000D01*
%TO.N,Net-(Q6-Pad5)*%
X135300000Y-123200000D02*
X135300000Y-124800000D01*
%TD*%
%TA.AperFunction,Conductor*%
%TO.N,GND*%
G36*
X186434121Y-52528002D02*
G01*
X186480614Y-52581658D01*
X186492000Y-52634000D01*
X186492000Y-151366000D01*
X186471998Y-151434121D01*
X186418342Y-151480614D01*
X186366000Y-151492000D01*
X89234000Y-151492000D01*
X89165879Y-151471998D01*
X89119386Y-151418342D01*
X89108000Y-151366000D01*
X89108000Y-146947404D01*
X91836941Y-146947404D01*
X91863091Y-147246292D01*
X91864001Y-147250364D01*
X91864002Y-147250369D01*
X91927628Y-147535016D01*
X91928540Y-147539095D01*
X92032140Y-147820671D01*
X92034084Y-147824359D01*
X92034088Y-147824367D01*
X92130805Y-148007807D01*
X92172069Y-148086071D01*
X92345871Y-148330633D01*
X92550490Y-148550061D01*
X92782333Y-148740498D01*
X93037325Y-148898600D01*
X93310988Y-149021589D01*
X93485368Y-149073574D01*
X93594514Y-149106112D01*
X93594516Y-149106112D01*
X93598513Y-149107304D01*
X93602633Y-149107957D01*
X93602635Y-149107957D01*
X93721509Y-149126785D01*
X93894848Y-149154239D01*
X93937577Y-149156179D01*
X93987262Y-149158436D01*
X93987281Y-149158436D01*
X93988681Y-149158500D01*
X94176107Y-149158500D01*
X94399370Y-149143671D01*
X94403464Y-149142846D01*
X94403468Y-149142845D01*
X94544513Y-149114405D01*
X94693480Y-149084368D01*
X94977163Y-148986688D01*
X94980896Y-148984819D01*
X94980900Y-148984817D01*
X95241691Y-148854222D01*
X95241693Y-148854221D01*
X95245435Y-148852347D01*
X95493584Y-148683706D01*
X95717248Y-148483726D01*
X95719966Y-148480555D01*
X95909779Y-148259097D01*
X95909782Y-148259093D01*
X95912499Y-148255923D01*
X95914773Y-148252421D01*
X95914777Y-148252416D01*
X96073628Y-148007807D01*
X96073631Y-148007802D01*
X96075907Y-148004297D01*
X96204600Y-147733270D01*
X96296318Y-147447604D01*
X96349448Y-147152316D01*
X96358754Y-146947404D01*
X179836941Y-146947404D01*
X179863091Y-147246292D01*
X179864001Y-147250364D01*
X179864002Y-147250369D01*
X179927628Y-147535016D01*
X179928540Y-147539095D01*
X180032140Y-147820671D01*
X180034084Y-147824359D01*
X180034088Y-147824367D01*
X180130805Y-148007807D01*
X180172069Y-148086071D01*
X180345871Y-148330633D01*
X180550490Y-148550061D01*
X180782333Y-148740498D01*
X181037325Y-148898600D01*
X181310988Y-149021589D01*
X181485368Y-149073574D01*
X181594514Y-149106112D01*
X181594516Y-149106112D01*
X181598513Y-149107304D01*
X181602633Y-149107957D01*
X181602635Y-149107957D01*
X181721509Y-149126785D01*
X181894848Y-149154239D01*
X181937577Y-149156179D01*
X181987262Y-149158436D01*
X181987281Y-149158436D01*
X181988681Y-149158500D01*
X182176107Y-149158500D01*
X182399370Y-149143671D01*
X182403464Y-149142846D01*
X182403468Y-149142845D01*
X182544513Y-149114405D01*
X182693480Y-149084368D01*
X182977163Y-148986688D01*
X182980896Y-148984819D01*
X182980900Y-148984817D01*
X183241691Y-148854222D01*
X183241693Y-148854221D01*
X183245435Y-148852347D01*
X183493584Y-148683706D01*
X183717248Y-148483726D01*
X183719966Y-148480555D01*
X183909779Y-148259097D01*
X183909782Y-148259093D01*
X183912499Y-148255923D01*
X183914773Y-148252421D01*
X183914777Y-148252416D01*
X184073628Y-148007807D01*
X184073631Y-148007802D01*
X184075907Y-148004297D01*
X184204600Y-147733270D01*
X184296318Y-147447604D01*
X184349448Y-147152316D01*
X184363059Y-146852596D01*
X184336909Y-146553708D01*
X184292832Y-146356515D01*
X184272372Y-146264984D01*
X184272371Y-146264981D01*
X184271460Y-146260905D01*
X184167860Y-145979329D01*
X184165916Y-145975641D01*
X184165912Y-145975633D01*
X184029884Y-145717633D01*
X184029883Y-145717632D01*
X184027931Y-145713929D01*
X183854129Y-145469367D01*
X183649510Y-145249939D01*
X183417667Y-145059502D01*
X183162675Y-144901400D01*
X182889012Y-144778411D01*
X182675650Y-144714805D01*
X182605486Y-144693888D01*
X182605484Y-144693888D01*
X182601487Y-144692696D01*
X182597367Y-144692043D01*
X182597365Y-144692043D01*
X182478491Y-144673215D01*
X182305152Y-144645761D01*
X182262423Y-144643821D01*
X182212738Y-144641564D01*
X182212719Y-144641564D01*
X182211319Y-144641500D01*
X182023893Y-144641500D01*
X181800630Y-144656329D01*
X181796536Y-144657154D01*
X181796532Y-144657155D01*
X181655487Y-144685595D01*
X181506520Y-144715632D01*
X181222837Y-144813312D01*
X181219104Y-144815181D01*
X181219100Y-144815183D01*
X180958309Y-144945778D01*
X180954565Y-144947653D01*
X180706416Y-145116294D01*
X180482752Y-145316274D01*
X180480035Y-145319444D01*
X180480034Y-145319445D01*
X180354155Y-145466311D01*
X180287501Y-145544077D01*
X180285227Y-145547579D01*
X180285223Y-145547584D01*
X180174792Y-145717633D01*
X180124093Y-145795703D01*
X179995400Y-146066730D01*
X179903682Y-146352396D01*
X179850552Y-146647684D01*
X179836941Y-146947404D01*
X96358754Y-146947404D01*
X96363059Y-146852596D01*
X96336909Y-146553708D01*
X96292832Y-146356515D01*
X96272372Y-146264984D01*
X96272371Y-146264981D01*
X96271460Y-146260905D01*
X96167860Y-145979329D01*
X96165916Y-145975641D01*
X96165912Y-145975633D01*
X96029884Y-145717633D01*
X96029883Y-145717632D01*
X96027931Y-145713929D01*
X95854129Y-145469367D01*
X95649510Y-145249939D01*
X95417667Y-145059502D01*
X95162675Y-144901400D01*
X94889012Y-144778411D01*
X94675650Y-144714805D01*
X94605486Y-144693888D01*
X94605484Y-144693888D01*
X94601487Y-144692696D01*
X94597367Y-144692043D01*
X94597365Y-144692043D01*
X94478491Y-144673215D01*
X94305152Y-144645761D01*
X94262423Y-144643821D01*
X94212738Y-144641564D01*
X94212719Y-144641564D01*
X94211319Y-144641500D01*
X94023893Y-144641500D01*
X93800630Y-144656329D01*
X93796536Y-144657154D01*
X93796532Y-144657155D01*
X93655487Y-144685595D01*
X93506520Y-144715632D01*
X93222837Y-144813312D01*
X93219104Y-144815181D01*
X93219100Y-144815183D01*
X92958309Y-144945778D01*
X92954565Y-144947653D01*
X92706416Y-145116294D01*
X92482752Y-145316274D01*
X92480035Y-145319444D01*
X92480034Y-145319445D01*
X92354155Y-145466311D01*
X92287501Y-145544077D01*
X92285227Y-145547579D01*
X92285223Y-145547584D01*
X92174792Y-145717633D01*
X92124093Y-145795703D01*
X91995400Y-146066730D01*
X91903682Y-146352396D01*
X91850552Y-146647684D01*
X91836941Y-146947404D01*
X89108000Y-146947404D01*
X89108000Y-143898134D01*
X132566500Y-143898134D01*
X132573255Y-143960316D01*
X132624385Y-144096705D01*
X132711739Y-144213261D01*
X132828295Y-144300615D01*
X132964684Y-144351745D01*
X133026866Y-144358500D01*
X134823134Y-144358500D01*
X134885316Y-144351745D01*
X135021705Y-144300615D01*
X135138261Y-144213261D01*
X135225615Y-144096705D01*
X135247799Y-144037529D01*
X135269598Y-143979382D01*
X135312240Y-143922618D01*
X135378802Y-143897918D01*
X135448150Y-143913126D01*
X135482817Y-143941114D01*
X135511250Y-143973938D01*
X135683126Y-144116632D01*
X135876000Y-144229338D01*
X136084692Y-144309030D01*
X136089760Y-144310061D01*
X136089763Y-144310062D01*
X136197017Y-144331883D01*
X136303597Y-144353567D01*
X136308772Y-144353757D01*
X136308774Y-144353757D01*
X136521673Y-144361564D01*
X136521677Y-144361564D01*
X136526837Y-144361753D01*
X136531957Y-144361097D01*
X136531959Y-144361097D01*
X136743288Y-144334025D01*
X136743289Y-144334025D01*
X136748416Y-144333368D01*
X136753366Y-144331883D01*
X136957429Y-144270661D01*
X136957434Y-144270659D01*
X136962384Y-144269174D01*
X137162994Y-144170896D01*
X137344860Y-144041173D01*
X137503096Y-143883489D01*
X137562594Y-143800689D01*
X137630435Y-143706277D01*
X137633453Y-143702077D01*
X137732430Y-143501811D01*
X137797370Y-143288069D01*
X137826529Y-143066590D01*
X137828156Y-143000000D01*
X137825418Y-142966695D01*
X141297251Y-142966695D01*
X141297548Y-142971848D01*
X141297548Y-142971851D01*
X141303011Y-143066590D01*
X141310110Y-143189715D01*
X141311247Y-143194761D01*
X141311248Y-143194767D01*
X141331119Y-143282939D01*
X141359222Y-143407639D01*
X141443266Y-143614616D01*
X141559987Y-143805088D01*
X141706250Y-143973938D01*
X141878126Y-144116632D01*
X142071000Y-144229338D01*
X142279692Y-144309030D01*
X142284760Y-144310061D01*
X142284763Y-144310062D01*
X142392017Y-144331883D01*
X142498597Y-144353567D01*
X142503772Y-144353757D01*
X142503774Y-144353757D01*
X142716673Y-144361564D01*
X142716677Y-144361564D01*
X142721837Y-144361753D01*
X142726957Y-144361097D01*
X142726959Y-144361097D01*
X142938288Y-144334025D01*
X142938289Y-144334025D01*
X142943416Y-144333368D01*
X142948366Y-144331883D01*
X143152429Y-144270661D01*
X143152434Y-144270659D01*
X143157384Y-144269174D01*
X143357994Y-144170896D01*
X143539860Y-144041173D01*
X143648091Y-143933319D01*
X143710462Y-143899404D01*
X143781268Y-143904592D01*
X143838030Y-143947238D01*
X143855012Y-143978341D01*
X143877201Y-144037529D01*
X143899385Y-144096705D01*
X143986739Y-144213261D01*
X144103295Y-144300615D01*
X144239684Y-144351745D01*
X144301866Y-144358500D01*
X146098134Y-144358500D01*
X146160316Y-144351745D01*
X146296705Y-144300615D01*
X146413261Y-144213261D01*
X146500615Y-144096705D01*
X146551745Y-143960316D01*
X146558500Y-143898134D01*
X150866500Y-143898134D01*
X150873255Y-143960316D01*
X150924385Y-144096705D01*
X151011739Y-144213261D01*
X151128295Y-144300615D01*
X151264684Y-144351745D01*
X151326866Y-144358500D01*
X153123134Y-144358500D01*
X153185316Y-144351745D01*
X153321705Y-144300615D01*
X153438261Y-144213261D01*
X153525615Y-144096705D01*
X153576745Y-143960316D01*
X153583500Y-143898134D01*
X159866500Y-143898134D01*
X159873255Y-143960316D01*
X159924385Y-144096705D01*
X160011739Y-144213261D01*
X160128295Y-144300615D01*
X160264684Y-144351745D01*
X160326866Y-144358500D01*
X162123134Y-144358500D01*
X162185316Y-144351745D01*
X162321705Y-144300615D01*
X162438261Y-144213261D01*
X162525615Y-144096705D01*
X162576745Y-143960316D01*
X162583500Y-143898134D01*
X162583500Y-142101866D01*
X162576745Y-142039684D01*
X162525615Y-141903295D01*
X162438261Y-141786739D01*
X162321705Y-141699385D01*
X162185316Y-141648255D01*
X162123134Y-141641500D01*
X160326866Y-141641500D01*
X160264684Y-141648255D01*
X160128295Y-141699385D01*
X160011739Y-141786739D01*
X159924385Y-141903295D01*
X159873255Y-142039684D01*
X159866500Y-142101866D01*
X159866500Y-143898134D01*
X153583500Y-143898134D01*
X153583500Y-142101866D01*
X153576745Y-142039684D01*
X153525615Y-141903295D01*
X153438261Y-141786739D01*
X153321705Y-141699385D01*
X153185316Y-141648255D01*
X153123134Y-141641500D01*
X151326866Y-141641500D01*
X151264684Y-141648255D01*
X151128295Y-141699385D01*
X151011739Y-141786739D01*
X150924385Y-141903295D01*
X150873255Y-142039684D01*
X150866500Y-142101866D01*
X150866500Y-143898134D01*
X146558500Y-143898134D01*
X146558500Y-142101866D01*
X146551745Y-142039684D01*
X146500615Y-141903295D01*
X146413261Y-141786739D01*
X146296705Y-141699385D01*
X146160316Y-141648255D01*
X146098134Y-141641500D01*
X144301866Y-141641500D01*
X144239684Y-141648255D01*
X144103295Y-141699385D01*
X143986739Y-141786739D01*
X143899385Y-141903295D01*
X143896233Y-141911703D01*
X143854919Y-142021907D01*
X143812277Y-142078671D01*
X143745716Y-142103371D01*
X143676367Y-142088163D01*
X143643743Y-142062476D01*
X143593151Y-142006875D01*
X143593142Y-142006866D01*
X143589670Y-142003051D01*
X143585619Y-141999852D01*
X143585615Y-141999848D01*
X143418414Y-141867800D01*
X143418410Y-141867798D01*
X143414359Y-141864598D01*
X143218789Y-141756638D01*
X143213920Y-141754914D01*
X143213916Y-141754912D01*
X143013087Y-141683795D01*
X143013083Y-141683794D01*
X143008212Y-141682069D01*
X143003119Y-141681162D01*
X143003116Y-141681161D01*
X142793373Y-141643800D01*
X142793367Y-141643799D01*
X142788284Y-141642894D01*
X142714452Y-141641992D01*
X142570081Y-141640228D01*
X142570079Y-141640228D01*
X142564911Y-141640165D01*
X142344091Y-141673955D01*
X142131756Y-141743357D01*
X142101443Y-141759137D01*
X142001589Y-141811118D01*
X141933607Y-141846507D01*
X141929474Y-141849610D01*
X141929471Y-141849612D01*
X141763200Y-141974452D01*
X141754965Y-141980635D01*
X141723744Y-142013306D01*
X141643729Y-142097037D01*
X141600629Y-142142138D01*
X141597715Y-142146410D01*
X141597714Y-142146411D01*
X141554984Y-142209051D01*
X141474743Y-142326680D01*
X141380688Y-142529305D01*
X141320989Y-142744570D01*
X141297251Y-142966695D01*
X137825418Y-142966695D01*
X137809852Y-142777361D01*
X137755431Y-142560702D01*
X137666354Y-142355840D01*
X137545014Y-142168277D01*
X137394670Y-142003051D01*
X137390619Y-141999852D01*
X137390615Y-141999848D01*
X137223414Y-141867800D01*
X137223410Y-141867798D01*
X137219359Y-141864598D01*
X137023789Y-141756638D01*
X137018920Y-141754914D01*
X137018916Y-141754912D01*
X136818087Y-141683795D01*
X136818083Y-141683794D01*
X136813212Y-141682069D01*
X136808119Y-141681162D01*
X136808116Y-141681161D01*
X136598373Y-141643800D01*
X136598367Y-141643799D01*
X136593284Y-141642894D01*
X136519452Y-141641992D01*
X136375081Y-141640228D01*
X136375079Y-141640228D01*
X136369911Y-141640165D01*
X136149091Y-141673955D01*
X135936756Y-141743357D01*
X135906443Y-141759137D01*
X135806589Y-141811118D01*
X135738607Y-141846507D01*
X135734474Y-141849610D01*
X135734471Y-141849612D01*
X135568200Y-141974452D01*
X135559965Y-141980635D01*
X135484074Y-142060051D01*
X135479283Y-142065064D01*
X135417759Y-142100494D01*
X135346846Y-142097037D01*
X135289060Y-142055791D01*
X135270207Y-142022243D01*
X135228767Y-141911703D01*
X135225615Y-141903295D01*
X135138261Y-141786739D01*
X135021705Y-141699385D01*
X134885316Y-141648255D01*
X134823134Y-141641500D01*
X133026866Y-141641500D01*
X132964684Y-141648255D01*
X132828295Y-141699385D01*
X132711739Y-141786739D01*
X132624385Y-141903295D01*
X132573255Y-142039684D01*
X132566500Y-142101866D01*
X132566500Y-143898134D01*
X89108000Y-143898134D01*
X89108000Y-141020000D01*
X164616496Y-141020000D01*
X164636458Y-141209928D01*
X164695473Y-141391556D01*
X164790960Y-141556944D01*
X164795378Y-141561851D01*
X164795379Y-141561852D01*
X164869165Y-141643800D01*
X164918747Y-141698866D01*
X165073248Y-141811118D01*
X165079276Y-141813802D01*
X165079278Y-141813803D01*
X165200558Y-141867800D01*
X165247712Y-141888794D01*
X165341113Y-141908647D01*
X165428056Y-141927128D01*
X165428061Y-141927128D01*
X165434513Y-141928500D01*
X165472106Y-141928500D01*
X165532810Y-141944087D01*
X165538669Y-141947308D01*
X165555182Y-141958157D01*
X165565865Y-141966443D01*
X165572132Y-141971304D01*
X165593695Y-141980635D01*
X165614536Y-141989654D01*
X165625181Y-141994869D01*
X165665663Y-142017124D01*
X165673337Y-142019094D01*
X165673344Y-142019097D01*
X165686426Y-142022455D01*
X165705134Y-142028860D01*
X165724823Y-142037380D01*
X165732649Y-142038619D01*
X165732651Y-142038620D01*
X165757159Y-142042501D01*
X165770459Y-142044608D01*
X165782070Y-142047012D01*
X165813107Y-142054981D01*
X165819135Y-142056529D01*
X165819136Y-142056529D01*
X165826812Y-142058500D01*
X165848258Y-142058500D01*
X165867968Y-142060051D01*
X165881322Y-142062166D01*
X165881323Y-142062166D01*
X165889152Y-142063406D01*
X165935141Y-142059059D01*
X165946996Y-142058500D01*
X166469776Y-142058500D01*
X166537897Y-142078502D01*
X166543837Y-142082564D01*
X166667784Y-142172617D01*
X166693248Y-142191118D01*
X166699276Y-142193802D01*
X166699278Y-142193803D01*
X166733526Y-142209051D01*
X166867712Y-142268794D01*
X166961112Y-142288647D01*
X167048056Y-142307128D01*
X167048061Y-142307128D01*
X167054513Y-142308500D01*
X167245487Y-142308500D01*
X167251939Y-142307128D01*
X167251944Y-142307128D01*
X167338888Y-142288647D01*
X167432288Y-142268794D01*
X167566474Y-142209051D01*
X167600722Y-142193803D01*
X167600724Y-142193802D01*
X167606752Y-142191118D01*
X167641441Y-142165915D01*
X167708306Y-142142058D01*
X167777457Y-142158138D01*
X167826938Y-142209051D01*
X167841500Y-142267852D01*
X167841500Y-143898134D01*
X167848255Y-143960316D01*
X167899385Y-144096705D01*
X167986739Y-144213261D01*
X168103295Y-144300615D01*
X168239684Y-144351745D01*
X168301866Y-144358500D01*
X170098134Y-144358500D01*
X170160316Y-144351745D01*
X170296705Y-144300615D01*
X170413261Y-144213261D01*
X170500615Y-144096705D01*
X170551745Y-143960316D01*
X170558500Y-143898134D01*
X172641500Y-143898134D01*
X172648255Y-143960316D01*
X172699385Y-144096705D01*
X172786739Y-144213261D01*
X172903295Y-144300615D01*
X173039684Y-144351745D01*
X173101866Y-144358500D01*
X174898134Y-144358500D01*
X174960316Y-144351745D01*
X175096705Y-144300615D01*
X175213261Y-144213261D01*
X175300615Y-144096705D01*
X175351745Y-143960316D01*
X175358500Y-143898134D01*
X175358500Y-142101866D01*
X175351745Y-142039684D01*
X175300615Y-141903295D01*
X175213261Y-141786739D01*
X175096705Y-141699385D01*
X174960316Y-141648255D01*
X174898134Y-141641500D01*
X173101866Y-141641500D01*
X173039684Y-141648255D01*
X172903295Y-141699385D01*
X172786739Y-141786739D01*
X172699385Y-141903295D01*
X172648255Y-142039684D01*
X172641500Y-142101866D01*
X172641500Y-143898134D01*
X170558500Y-143898134D01*
X170558500Y-142101866D01*
X170551745Y-142039684D01*
X170500615Y-141903295D01*
X170413261Y-141786739D01*
X170296705Y-141699385D01*
X170160316Y-141648255D01*
X170098134Y-141641500D01*
X168301866Y-141641500D01*
X168239684Y-141648255D01*
X168219961Y-141655649D01*
X168149154Y-141660834D01*
X168086784Y-141626914D01*
X168052654Y-141564659D01*
X168050419Y-141524498D01*
X168062814Y-141406565D01*
X168063504Y-141400000D01*
X168043542Y-141210072D01*
X167984527Y-141028444D01*
X167889040Y-140863056D01*
X167865251Y-140836635D01*
X167765675Y-140726045D01*
X167765674Y-140726044D01*
X167761253Y-140721134D01*
X167606752Y-140608882D01*
X167600724Y-140606198D01*
X167600722Y-140606197D01*
X167438319Y-140533891D01*
X167438318Y-140533891D01*
X167432288Y-140531206D01*
X167338887Y-140511353D01*
X167251944Y-140492872D01*
X167251939Y-140492872D01*
X167245487Y-140491500D01*
X167054513Y-140491500D01*
X167048061Y-140492872D01*
X167048056Y-140492872D01*
X166961113Y-140511353D01*
X166867712Y-140531206D01*
X166861682Y-140533891D01*
X166861681Y-140533891D01*
X166699278Y-140606197D01*
X166699276Y-140606198D01*
X166693248Y-140608882D01*
X166687907Y-140612762D01*
X166687906Y-140612763D01*
X166556872Y-140707965D01*
X166490004Y-140731824D01*
X166420853Y-140715743D01*
X166371372Y-140664829D01*
X166367704Y-140657278D01*
X166366569Y-140654729D01*
X166364527Y-140648444D01*
X166269040Y-140483056D01*
X166141253Y-140341134D01*
X165986752Y-140228882D01*
X165980724Y-140226198D01*
X165980722Y-140226197D01*
X165818319Y-140153891D01*
X165818318Y-140153891D01*
X165812288Y-140151206D01*
X165718888Y-140131353D01*
X165631944Y-140112872D01*
X165631939Y-140112872D01*
X165625487Y-140111500D01*
X165434513Y-140111500D01*
X165428061Y-140112872D01*
X165428056Y-140112872D01*
X165341112Y-140131353D01*
X165247712Y-140151206D01*
X165241682Y-140153891D01*
X165241681Y-140153891D01*
X165079278Y-140226197D01*
X165079276Y-140226198D01*
X165073248Y-140228882D01*
X164918747Y-140341134D01*
X164790960Y-140483056D01*
X164695473Y-140648444D01*
X164636458Y-140830072D01*
X164616496Y-141020000D01*
X89108000Y-141020000D01*
X89108000Y-138173134D01*
X93141500Y-138173134D01*
X93148255Y-138235316D01*
X93199385Y-138371705D01*
X93286739Y-138488261D01*
X93403295Y-138575615D01*
X93539684Y-138626745D01*
X93601866Y-138633500D01*
X95398134Y-138633500D01*
X95460316Y-138626745D01*
X95596705Y-138575615D01*
X95713261Y-138488261D01*
X95800615Y-138371705D01*
X95851745Y-138235316D01*
X95858500Y-138173134D01*
X95858500Y-136376866D01*
X95851745Y-136314684D01*
X95800615Y-136178295D01*
X95713261Y-136061739D01*
X95596705Y-135974385D01*
X95460316Y-135923255D01*
X95398134Y-135916500D01*
X93601866Y-135916500D01*
X93539684Y-135923255D01*
X93403295Y-135974385D01*
X93286739Y-136061739D01*
X93199385Y-136178295D01*
X93148255Y-136314684D01*
X93141500Y-136376866D01*
X93141500Y-138173134D01*
X89108000Y-138173134D01*
X89108000Y-135540000D01*
X151006496Y-135540000D01*
X151026458Y-135729928D01*
X151085473Y-135911556D01*
X151180960Y-136076944D01*
X151185378Y-136081851D01*
X151185379Y-136081852D01*
X151304325Y-136213955D01*
X151308747Y-136218866D01*
X151407843Y-136290864D01*
X151440629Y-136314684D01*
X151463248Y-136331118D01*
X151469276Y-136333802D01*
X151469278Y-136333803D01*
X151631681Y-136406109D01*
X151637712Y-136408794D01*
X151731112Y-136428647D01*
X151818056Y-136447128D01*
X151818061Y-136447128D01*
X151824513Y-136448500D01*
X152015487Y-136448500D01*
X152021939Y-136447128D01*
X152021944Y-136447128D01*
X152108888Y-136428647D01*
X152202288Y-136408794D01*
X152208319Y-136406109D01*
X152370722Y-136333803D01*
X152370724Y-136333802D01*
X152376752Y-136331118D01*
X152399372Y-136314684D01*
X152474126Y-136260371D01*
X152526163Y-136222564D01*
X152593031Y-136198706D01*
X152600224Y-136198500D01*
X156487944Y-136198500D01*
X156499800Y-136199059D01*
X156499803Y-136199059D01*
X156507537Y-136200788D01*
X156578369Y-136198562D01*
X156582327Y-136198500D01*
X156611432Y-136198500D01*
X156615832Y-136197944D01*
X156627664Y-136197012D01*
X156673831Y-136195562D01*
X156694421Y-136189580D01*
X156713782Y-136185570D01*
X156735064Y-136182882D01*
X156749044Y-136177347D01*
X156795424Y-136168500D01*
X156945487Y-136168500D01*
X156951939Y-136167128D01*
X156951944Y-136167128D01*
X157038888Y-136148647D01*
X157132288Y-136128794D01*
X157138319Y-136126109D01*
X157300722Y-136053803D01*
X157300724Y-136053802D01*
X157306752Y-136051118D01*
X157461253Y-135938866D01*
X157465675Y-135933955D01*
X157584621Y-135801852D01*
X157584622Y-135801851D01*
X157589040Y-135796944D01*
X157684527Y-135631556D01*
X157743542Y-135449928D01*
X157763504Y-135260000D01*
X157743542Y-135070072D01*
X157684527Y-134888444D01*
X157666625Y-134857436D01*
X157606191Y-134752763D01*
X157589040Y-134723056D01*
X157461253Y-134581134D01*
X157333425Y-134488261D01*
X157312094Y-134472763D01*
X157312093Y-134472762D01*
X157306752Y-134468882D01*
X157300724Y-134466198D01*
X157300722Y-134466197D01*
X157138319Y-134393891D01*
X157138318Y-134393891D01*
X157132288Y-134391206D01*
X157038887Y-134371353D01*
X156951944Y-134352872D01*
X156951939Y-134352872D01*
X156945487Y-134351500D01*
X156754513Y-134351500D01*
X156748061Y-134352872D01*
X156748056Y-134352872D01*
X156661113Y-134371353D01*
X156567712Y-134391206D01*
X156561682Y-134393891D01*
X156561681Y-134393891D01*
X156399278Y-134466197D01*
X156399276Y-134466198D01*
X156393248Y-134468882D01*
X156387907Y-134472762D01*
X156387906Y-134472763D01*
X156366575Y-134488261D01*
X156238747Y-134581134D01*
X156110960Y-134723056D01*
X156107661Y-134728769D01*
X156107658Y-134728774D01*
X156055855Y-134818500D01*
X156004472Y-134867493D01*
X155946736Y-134881500D01*
X152600224Y-134881500D01*
X152532103Y-134861498D01*
X152526163Y-134857436D01*
X152525909Y-134857251D01*
X152376752Y-134748882D01*
X152370724Y-134746198D01*
X152370722Y-134746197D01*
X152208319Y-134673891D01*
X152208318Y-134673891D01*
X152202288Y-134671206D01*
X152108887Y-134651353D01*
X152021944Y-134632872D01*
X152021939Y-134632872D01*
X152015487Y-134631500D01*
X151824513Y-134631500D01*
X151818061Y-134632872D01*
X151818056Y-134632872D01*
X151731113Y-134651353D01*
X151637712Y-134671206D01*
X151631682Y-134673891D01*
X151631681Y-134673891D01*
X151469278Y-134746197D01*
X151469276Y-134746198D01*
X151463248Y-134748882D01*
X151308747Y-134861134D01*
X151180960Y-135003056D01*
X151085473Y-135168444D01*
X151026458Y-135350072D01*
X151006496Y-135540000D01*
X89108000Y-135540000D01*
X89108000Y-134173134D01*
X93141500Y-134173134D01*
X93148255Y-134235316D01*
X93199385Y-134371705D01*
X93286739Y-134488261D01*
X93403295Y-134575615D01*
X93539684Y-134626745D01*
X93601866Y-134633500D01*
X95398134Y-134633500D01*
X95460316Y-134626745D01*
X95596705Y-134575615D01*
X95713261Y-134488261D01*
X95800615Y-134371705D01*
X95851745Y-134235316D01*
X95858500Y-134173134D01*
X95858500Y-132376866D01*
X95851745Y-132314684D01*
X95800615Y-132178295D01*
X95713261Y-132061739D01*
X95596705Y-131974385D01*
X95460316Y-131923255D01*
X95398134Y-131916500D01*
X93601866Y-131916500D01*
X93539684Y-131923255D01*
X93403295Y-131974385D01*
X93286739Y-132061739D01*
X93199385Y-132178295D01*
X93148255Y-132314684D01*
X93141500Y-132376866D01*
X93141500Y-134173134D01*
X89108000Y-134173134D01*
X89108000Y-131110000D01*
X126824496Y-131110000D01*
X126844458Y-131299928D01*
X126903473Y-131481556D01*
X126998960Y-131646944D01*
X127003378Y-131651851D01*
X127003379Y-131651852D01*
X127034976Y-131686944D01*
X127126747Y-131788866D01*
X127281248Y-131901118D01*
X127287276Y-131903802D01*
X127287278Y-131903803D01*
X127445809Y-131974385D01*
X127455712Y-131978794D01*
X127549112Y-131998647D01*
X127636056Y-132017128D01*
X127636061Y-132017128D01*
X127642513Y-132018500D01*
X127833487Y-132018500D01*
X127839939Y-132017128D01*
X127839944Y-132017128D01*
X127926888Y-131998647D01*
X128020288Y-131978794D01*
X128030191Y-131974385D01*
X128188722Y-131903803D01*
X128188724Y-131903802D01*
X128194752Y-131901118D01*
X128344163Y-131792564D01*
X128411031Y-131768706D01*
X128418224Y-131768500D01*
X128678294Y-131768500D01*
X128746415Y-131788502D01*
X128771930Y-131810189D01*
X128788747Y-131828866D01*
X128810329Y-131844546D01*
X128891889Y-131903803D01*
X128943248Y-131941118D01*
X128949276Y-131943802D01*
X128949278Y-131943803D01*
X129111681Y-132016109D01*
X129117712Y-132018794D01*
X129211112Y-132038647D01*
X129298056Y-132057128D01*
X129298061Y-132057128D01*
X129304513Y-132058500D01*
X129495487Y-132058500D01*
X129501939Y-132057128D01*
X129501944Y-132057128D01*
X129588888Y-132038647D01*
X129682288Y-132018794D01*
X129688319Y-132016109D01*
X129850722Y-131943803D01*
X129850724Y-131943802D01*
X129856752Y-131941118D01*
X129908112Y-131903803D01*
X129917149Y-131897237D01*
X130011253Y-131828866D01*
X130043773Y-131792749D01*
X130134621Y-131691852D01*
X130134622Y-131691851D01*
X130139040Y-131686944D01*
X130234527Y-131521556D01*
X130293542Y-131339928D01*
X130313504Y-131150000D01*
X130293542Y-130960072D01*
X130234527Y-130778444D01*
X130139040Y-130613056D01*
X130108173Y-130578774D01*
X130015675Y-130476045D01*
X130015674Y-130476044D01*
X130011253Y-130471134D01*
X129856752Y-130358882D01*
X129850724Y-130356198D01*
X129850722Y-130356197D01*
X129688319Y-130283891D01*
X129688318Y-130283891D01*
X129682288Y-130281206D01*
X129588887Y-130261353D01*
X129501944Y-130242872D01*
X129501939Y-130242872D01*
X129495487Y-130241500D01*
X129304513Y-130241500D01*
X129298061Y-130242872D01*
X129298056Y-130242872D01*
X129211113Y-130261353D01*
X129117712Y-130281206D01*
X129111682Y-130283891D01*
X129111681Y-130283891D01*
X128949278Y-130356197D01*
X128949276Y-130356198D01*
X128943248Y-130358882D01*
X128937907Y-130362762D01*
X128937906Y-130362763D01*
X128848892Y-130427436D01*
X128782024Y-130451294D01*
X128774831Y-130451500D01*
X128418224Y-130451500D01*
X128350103Y-130431498D01*
X128344163Y-130427436D01*
X128343909Y-130427251D01*
X128249807Y-130358882D01*
X128200094Y-130322763D01*
X128200093Y-130322762D01*
X128194752Y-130318882D01*
X128188724Y-130316198D01*
X128188722Y-130316197D01*
X128026319Y-130243891D01*
X128026318Y-130243891D01*
X128020288Y-130241206D01*
X127926887Y-130221353D01*
X127839944Y-130202872D01*
X127839939Y-130202872D01*
X127833487Y-130201500D01*
X127642513Y-130201500D01*
X127636061Y-130202872D01*
X127636056Y-130202872D01*
X127549113Y-130221353D01*
X127455712Y-130241206D01*
X127449682Y-130243891D01*
X127449681Y-130243891D01*
X127287278Y-130316197D01*
X127287276Y-130316198D01*
X127281248Y-130318882D01*
X127275907Y-130322762D01*
X127275906Y-130322763D01*
X127226193Y-130358882D01*
X127126747Y-130431134D01*
X126998960Y-130573056D01*
X126903473Y-130738444D01*
X126844458Y-130920072D01*
X126824496Y-131110000D01*
X89108000Y-131110000D01*
X89108000Y-129673134D01*
X93141500Y-129673134D01*
X93148255Y-129735316D01*
X93199385Y-129871705D01*
X93286739Y-129988261D01*
X93403295Y-130075615D01*
X93539684Y-130126745D01*
X93601866Y-130133500D01*
X95398134Y-130133500D01*
X95460316Y-130126745D01*
X95596705Y-130075615D01*
X95713261Y-129988261D01*
X95800615Y-129871705D01*
X95851745Y-129735316D01*
X95858500Y-129673134D01*
X95858500Y-129460000D01*
X137676496Y-129460000D01*
X137696458Y-129649928D01*
X137755473Y-129831556D01*
X137850960Y-129996944D01*
X137855378Y-130001851D01*
X137855379Y-130001852D01*
X137924634Y-130078767D01*
X137978747Y-130138866D01*
X138133248Y-130251118D01*
X138139276Y-130253802D01*
X138139278Y-130253803D01*
X138284591Y-130318500D01*
X138307712Y-130328794D01*
X138401112Y-130348647D01*
X138488056Y-130367128D01*
X138488061Y-130367128D01*
X138494513Y-130368500D01*
X138685487Y-130368500D01*
X138691939Y-130367128D01*
X138691944Y-130367128D01*
X138778888Y-130348647D01*
X138872288Y-130328794D01*
X138895409Y-130318500D01*
X139040722Y-130253803D01*
X139040724Y-130253802D01*
X139046752Y-130251118D01*
X139196163Y-130142564D01*
X139263031Y-130118706D01*
X139270224Y-130118500D01*
X139628595Y-130118500D01*
X139696716Y-130138502D01*
X139702656Y-130142564D01*
X139783248Y-130201118D01*
X139789276Y-130203802D01*
X139789278Y-130203803D01*
X139877029Y-130242872D01*
X139957712Y-130278794D01*
X140051113Y-130298647D01*
X140138056Y-130317128D01*
X140138061Y-130317128D01*
X140144513Y-130318500D01*
X140335487Y-130318500D01*
X140341939Y-130317128D01*
X140341944Y-130317128D01*
X140428887Y-130298647D01*
X140522288Y-130278794D01*
X140602971Y-130242872D01*
X140690722Y-130203803D01*
X140690724Y-130203802D01*
X140696752Y-130201118D01*
X140851253Y-130088866D01*
X140936993Y-129993642D01*
X140974621Y-129951852D01*
X140974622Y-129951851D01*
X140979040Y-129946944D01*
X141074527Y-129781556D01*
X141133542Y-129599928D01*
X141153504Y-129410000D01*
X141133542Y-129220072D01*
X141074527Y-129038444D01*
X140979040Y-128873056D01*
X140892944Y-128777436D01*
X140855675Y-128736045D01*
X140855674Y-128736044D01*
X140851253Y-128731134D01*
X140696752Y-128618882D01*
X140690724Y-128616198D01*
X140690722Y-128616197D01*
X140528319Y-128543891D01*
X140528318Y-128543891D01*
X140522288Y-128541206D01*
X140428888Y-128521353D01*
X140341944Y-128502872D01*
X140341939Y-128502872D01*
X140335487Y-128501500D01*
X140144513Y-128501500D01*
X140138061Y-128502872D01*
X140138056Y-128502872D01*
X140051112Y-128521353D01*
X139957712Y-128541206D01*
X139951682Y-128543891D01*
X139951681Y-128543891D01*
X139789278Y-128616197D01*
X139789276Y-128616198D01*
X139783248Y-128618882D01*
X139628747Y-128731134D01*
X139624334Y-128736036D01*
X139624332Y-128736037D01*
X139602926Y-128759811D01*
X139542480Y-128797050D01*
X139509290Y-128801500D01*
X139270224Y-128801500D01*
X139202103Y-128781498D01*
X139196163Y-128777436D01*
X139195909Y-128777251D01*
X139046752Y-128668882D01*
X139040724Y-128666198D01*
X139040722Y-128666197D01*
X138878319Y-128593891D01*
X138878318Y-128593891D01*
X138872288Y-128591206D01*
X138778887Y-128571353D01*
X138691944Y-128552872D01*
X138691939Y-128552872D01*
X138685487Y-128551500D01*
X138494513Y-128551500D01*
X138488061Y-128552872D01*
X138488056Y-128552872D01*
X138401113Y-128571353D01*
X138307712Y-128591206D01*
X138301682Y-128593891D01*
X138301681Y-128593891D01*
X138139278Y-128666197D01*
X138139276Y-128666198D01*
X138133248Y-128668882D01*
X137978747Y-128781134D01*
X137974326Y-128786044D01*
X137974325Y-128786045D01*
X137890832Y-128878774D01*
X137850960Y-128923056D01*
X137755473Y-129088444D01*
X137696458Y-129270072D01*
X137676496Y-129460000D01*
X95858500Y-129460000D01*
X95858500Y-127876866D01*
X95851745Y-127814684D01*
X95800615Y-127678295D01*
X95713261Y-127561739D01*
X95596705Y-127474385D01*
X95460316Y-127423255D01*
X95398134Y-127416500D01*
X93601866Y-127416500D01*
X93539684Y-127423255D01*
X93403295Y-127474385D01*
X93286739Y-127561739D01*
X93199385Y-127678295D01*
X93148255Y-127814684D01*
X93141500Y-127876866D01*
X93141500Y-129673134D01*
X89108000Y-129673134D01*
X89108000Y-124006695D01*
X93137251Y-124006695D01*
X93137548Y-124011848D01*
X93137548Y-124011851D01*
X93143011Y-124106590D01*
X93150110Y-124229715D01*
X93151247Y-124234761D01*
X93151248Y-124234767D01*
X93158912Y-124268774D01*
X93199222Y-124447639D01*
X93283266Y-124654616D01*
X93305701Y-124691226D01*
X93394710Y-124836476D01*
X93399987Y-124845088D01*
X93546250Y-125013938D01*
X93718126Y-125156632D01*
X93911000Y-125269338D01*
X94119692Y-125349030D01*
X94124760Y-125350061D01*
X94124763Y-125350062D01*
X94232017Y-125371883D01*
X94338597Y-125393567D01*
X94343772Y-125393757D01*
X94343774Y-125393757D01*
X94556673Y-125401564D01*
X94556677Y-125401564D01*
X94561837Y-125401753D01*
X94566957Y-125401097D01*
X94566959Y-125401097D01*
X94778288Y-125374025D01*
X94778289Y-125374025D01*
X94783416Y-125373368D01*
X94788366Y-125371883D01*
X94992429Y-125310661D01*
X94992434Y-125310659D01*
X94997384Y-125309174D01*
X95197994Y-125210896D01*
X95379860Y-125081173D01*
X95392578Y-125068500D01*
X95534435Y-124927137D01*
X95538096Y-124923489D01*
X95597594Y-124840689D01*
X95665435Y-124746277D01*
X95668453Y-124742077D01*
X95688334Y-124701852D01*
X95765136Y-124546453D01*
X95765137Y-124546451D01*
X95767430Y-124541811D01*
X95832370Y-124328069D01*
X95854497Y-124160000D01*
X113096496Y-124160000D01*
X113097186Y-124166565D01*
X113114161Y-124328069D01*
X113116458Y-124349928D01*
X113175473Y-124531556D01*
X113270960Y-124696944D01*
X113275378Y-124701851D01*
X113275379Y-124701852D01*
X113357841Y-124793435D01*
X113398747Y-124838866D01*
X113553248Y-124951118D01*
X113559276Y-124953802D01*
X113559278Y-124953803D01*
X113716704Y-125023893D01*
X113727712Y-125028794D01*
X113821112Y-125048647D01*
X113908056Y-125067128D01*
X113908061Y-125067128D01*
X113914513Y-125068500D01*
X114105487Y-125068500D01*
X114111939Y-125067128D01*
X114111944Y-125067128D01*
X114198888Y-125048647D01*
X114292288Y-125028794D01*
X114303296Y-125023893D01*
X114460722Y-124953803D01*
X114460724Y-124953802D01*
X114466752Y-124951118D01*
X114621253Y-124838866D01*
X114622426Y-124840480D01*
X114677875Y-124813873D01*
X114698174Y-124812227D01*
X115663503Y-124812227D01*
X115731624Y-124832229D01*
X115737561Y-124836289D01*
X115886975Y-124944845D01*
X115893003Y-124947529D01*
X115893005Y-124947530D01*
X116055408Y-125019836D01*
X116061439Y-125022521D01*
X116154839Y-125042374D01*
X116241783Y-125060855D01*
X116241788Y-125060855D01*
X116248240Y-125062227D01*
X116439214Y-125062227D01*
X116445666Y-125060855D01*
X116445671Y-125060855D01*
X116532615Y-125042374D01*
X116626015Y-125022521D01*
X116632046Y-125019836D01*
X116794449Y-124947530D01*
X116794451Y-124947529D01*
X116800479Y-124944845D01*
X116954980Y-124832593D01*
X116984327Y-124800000D01*
X134386496Y-124800000D01*
X134387186Y-124806565D01*
X134401720Y-124944845D01*
X134406458Y-124989928D01*
X134465473Y-125171556D01*
X134560960Y-125336944D01*
X134565378Y-125341851D01*
X134565379Y-125341852D01*
X134619144Y-125401564D01*
X134688747Y-125478866D01*
X134843248Y-125591118D01*
X134849276Y-125593802D01*
X134849278Y-125593803D01*
X135011681Y-125666109D01*
X135017712Y-125668794D01*
X135111112Y-125688647D01*
X135198056Y-125707128D01*
X135198061Y-125707128D01*
X135204513Y-125708500D01*
X135395487Y-125708500D01*
X135401939Y-125707128D01*
X135401944Y-125707128D01*
X135488888Y-125688647D01*
X135582288Y-125668794D01*
X135588319Y-125666109D01*
X135750722Y-125593803D01*
X135750724Y-125593802D01*
X135756752Y-125591118D01*
X135911253Y-125478866D01*
X135980856Y-125401564D01*
X136034621Y-125341852D01*
X136034622Y-125341851D01*
X136039040Y-125336944D01*
X136134527Y-125171556D01*
X136193542Y-124989928D01*
X136198281Y-124944845D01*
X136212814Y-124806565D01*
X136213504Y-124800000D01*
X136193542Y-124610072D01*
X136134527Y-124428444D01*
X136039040Y-124263056D01*
X135990864Y-124209551D01*
X135960146Y-124145544D01*
X135958500Y-124125241D01*
X135958500Y-123874759D01*
X135978502Y-123806638D01*
X135990864Y-123790449D01*
X136034621Y-123741852D01*
X136034622Y-123741851D01*
X136039040Y-123736944D01*
X136134527Y-123571556D01*
X136193542Y-123389928D01*
X136195986Y-123366680D01*
X136212814Y-123206565D01*
X136213504Y-123200000D01*
X136197693Y-123049568D01*
X136194232Y-123016635D01*
X136194232Y-123016633D01*
X136193542Y-123010072D01*
X136134527Y-122828444D01*
X136039040Y-122663056D01*
X135979298Y-122596705D01*
X135915675Y-122526045D01*
X135915674Y-122526044D01*
X135911253Y-122521134D01*
X135756752Y-122408882D01*
X135750724Y-122406198D01*
X135750722Y-122406197D01*
X135588319Y-122333891D01*
X135588318Y-122333891D01*
X135582288Y-122331206D01*
X135488888Y-122311353D01*
X135401944Y-122292872D01*
X135401939Y-122292872D01*
X135395487Y-122291500D01*
X135204513Y-122291500D01*
X135198061Y-122292872D01*
X135198056Y-122292872D01*
X135111112Y-122311353D01*
X135017712Y-122331206D01*
X135011682Y-122333891D01*
X135011681Y-122333891D01*
X134849278Y-122406197D01*
X134849276Y-122406198D01*
X134843248Y-122408882D01*
X134688747Y-122521134D01*
X134684326Y-122526044D01*
X134684325Y-122526045D01*
X134620703Y-122596705D01*
X134560960Y-122663056D01*
X134465473Y-122828444D01*
X134406458Y-123010072D01*
X134405768Y-123016633D01*
X134405768Y-123016635D01*
X134402307Y-123049568D01*
X134386496Y-123200000D01*
X134387186Y-123206565D01*
X134404015Y-123366680D01*
X134406458Y-123389928D01*
X134465473Y-123571556D01*
X134560960Y-123736944D01*
X134565378Y-123741851D01*
X134565379Y-123741852D01*
X134609136Y-123790449D01*
X134639854Y-123854456D01*
X134641500Y-123874759D01*
X134641500Y-124125241D01*
X134621498Y-124193362D01*
X134609136Y-124209551D01*
X134560960Y-124263056D01*
X134465473Y-124428444D01*
X134406458Y-124610072D01*
X134386496Y-124800000D01*
X116984327Y-124800000D01*
X117082767Y-124690671D01*
X117141041Y-124589737D01*
X117174950Y-124531006D01*
X117174951Y-124531005D01*
X117178254Y-124525283D01*
X117237269Y-124343655D01*
X117238387Y-124333023D01*
X117256541Y-124160292D01*
X117257231Y-124153727D01*
X117254237Y-124125241D01*
X117237959Y-123970362D01*
X117237959Y-123970360D01*
X117237269Y-123963799D01*
X117178254Y-123782171D01*
X117082767Y-123616783D01*
X117047198Y-123577279D01*
X116959402Y-123479772D01*
X116959401Y-123479771D01*
X116954980Y-123474861D01*
X116814455Y-123372763D01*
X116805821Y-123366490D01*
X116805820Y-123366489D01*
X116800479Y-123362609D01*
X116794451Y-123359925D01*
X116794449Y-123359924D01*
X116632046Y-123287618D01*
X116632045Y-123287618D01*
X116626015Y-123284933D01*
X116532615Y-123265080D01*
X116445671Y-123246599D01*
X116445666Y-123246599D01*
X116439214Y-123245227D01*
X116248240Y-123245227D01*
X116241788Y-123246599D01*
X116241783Y-123246599D01*
X116154839Y-123265080D01*
X116061439Y-123284933D01*
X116055409Y-123287618D01*
X116055408Y-123287618D01*
X115893005Y-123359924D01*
X115893003Y-123359925D01*
X115886975Y-123362609D01*
X115881634Y-123366489D01*
X115881633Y-123366490D01*
X115840733Y-123396206D01*
X115737819Y-123470978D01*
X115737564Y-123471163D01*
X115670696Y-123495021D01*
X115663503Y-123495227D01*
X114681590Y-123495227D01*
X114613469Y-123475225D01*
X114607529Y-123471163D01*
X114607275Y-123470978D01*
X114504360Y-123396206D01*
X114472094Y-123372763D01*
X114472093Y-123372762D01*
X114466752Y-123368882D01*
X114460724Y-123366198D01*
X114460722Y-123366197D01*
X114298319Y-123293891D01*
X114298318Y-123293891D01*
X114292288Y-123291206D01*
X114198887Y-123271353D01*
X114111944Y-123252872D01*
X114111939Y-123252872D01*
X114105487Y-123251500D01*
X113914513Y-123251500D01*
X113908061Y-123252872D01*
X113908056Y-123252872D01*
X113821113Y-123271353D01*
X113727712Y-123291206D01*
X113721682Y-123293891D01*
X113721681Y-123293891D01*
X113559278Y-123366197D01*
X113559276Y-123366198D01*
X113553248Y-123368882D01*
X113398747Y-123481134D01*
X113394326Y-123486044D01*
X113394325Y-123486045D01*
X113291088Y-123600702D01*
X113270960Y-123623056D01*
X113175473Y-123788444D01*
X113116458Y-123970072D01*
X113115768Y-123976633D01*
X113115768Y-123976635D01*
X113101761Y-124109908D01*
X113096496Y-124160000D01*
X95854497Y-124160000D01*
X95861529Y-124106590D01*
X95863156Y-124040000D01*
X95844852Y-123817361D01*
X95790431Y-123600702D01*
X95701354Y-123395840D01*
X95629605Y-123284933D01*
X95582822Y-123212617D01*
X95582820Y-123212614D01*
X95580014Y-123208277D01*
X95566509Y-123193435D01*
X95432798Y-123046488D01*
X95401746Y-122982642D01*
X95410141Y-122912143D01*
X95455317Y-122857375D01*
X95481761Y-122843706D01*
X95588297Y-122803767D01*
X95596705Y-122800615D01*
X95713261Y-122713261D01*
X95800615Y-122596705D01*
X95851745Y-122460316D01*
X95858500Y-122398134D01*
X95858500Y-120601866D01*
X95851745Y-120539684D01*
X95800615Y-120403295D01*
X95713261Y-120286739D01*
X95596705Y-120199385D01*
X95460316Y-120148255D01*
X95398134Y-120141500D01*
X93601866Y-120141500D01*
X93539684Y-120148255D01*
X93403295Y-120199385D01*
X93286739Y-120286739D01*
X93199385Y-120403295D01*
X93148255Y-120539684D01*
X93141500Y-120601866D01*
X93141500Y-122398134D01*
X93148255Y-122460316D01*
X93199385Y-122596705D01*
X93286739Y-122713261D01*
X93403295Y-122800615D01*
X93411704Y-122803767D01*
X93411705Y-122803768D01*
X93520451Y-122844535D01*
X93577216Y-122887176D01*
X93601916Y-122953738D01*
X93586709Y-123023087D01*
X93567316Y-123049568D01*
X93440629Y-123182138D01*
X93437715Y-123186410D01*
X93437714Y-123186411D01*
X93371443Y-123283561D01*
X93314743Y-123366680D01*
X93220688Y-123569305D01*
X93160989Y-123784570D01*
X93137251Y-124006695D01*
X89108000Y-124006695D01*
X89108000Y-119180000D01*
X116896496Y-119180000D01*
X116897186Y-119186565D01*
X116910479Y-119313037D01*
X116916458Y-119369928D01*
X116975473Y-119551556D01*
X117070960Y-119716944D01*
X117075378Y-119721851D01*
X117075379Y-119721852D01*
X117112479Y-119763056D01*
X117198747Y-119858866D01*
X117286636Y-119922721D01*
X117334143Y-119957237D01*
X117353248Y-119971118D01*
X117359276Y-119973802D01*
X117359278Y-119973803D01*
X117508333Y-120040166D01*
X117527712Y-120048794D01*
X117621113Y-120068647D01*
X117708056Y-120087128D01*
X117708061Y-120087128D01*
X117714513Y-120088500D01*
X117905487Y-120088500D01*
X117911939Y-120087128D01*
X117911944Y-120087128D01*
X117998887Y-120068647D01*
X118092288Y-120048794D01*
X118111667Y-120040166D01*
X118260722Y-119973803D01*
X118260724Y-119973802D01*
X118266752Y-119971118D01*
X118285858Y-119957237D01*
X118369800Y-119896249D01*
X118416163Y-119862564D01*
X118483031Y-119838706D01*
X118490224Y-119838500D01*
X118683540Y-119838500D01*
X118751661Y-119858502D01*
X118757594Y-119862559D01*
X118893248Y-119961118D01*
X118899276Y-119963802D01*
X118899278Y-119963803D01*
X119061681Y-120036109D01*
X119067712Y-120038794D01*
X119161112Y-120058647D01*
X119248056Y-120077128D01*
X119248061Y-120077128D01*
X119254513Y-120078500D01*
X119445487Y-120078500D01*
X119451939Y-120077128D01*
X119451944Y-120077128D01*
X119538888Y-120058647D01*
X119632288Y-120038794D01*
X119638319Y-120036109D01*
X119800722Y-119963803D01*
X119800724Y-119963802D01*
X119806752Y-119961118D01*
X119961253Y-119848866D01*
X120038517Y-119763056D01*
X120084621Y-119711852D01*
X120084622Y-119711851D01*
X120089040Y-119706944D01*
X120175449Y-119557279D01*
X120181223Y-119547279D01*
X120181224Y-119547278D01*
X120184527Y-119541556D01*
X120241887Y-119365023D01*
X128581519Y-119365023D01*
X128582209Y-119371588D01*
X128600675Y-119547279D01*
X128601481Y-119554951D01*
X128660496Y-119736579D01*
X128663799Y-119742301D01*
X128663800Y-119742302D01*
X128675917Y-119763289D01*
X128755983Y-119901967D01*
X128883770Y-120043889D01*
X129038271Y-120156141D01*
X129044299Y-120158825D01*
X129044301Y-120158826D01*
X129135399Y-120199385D01*
X129212735Y-120233817D01*
X129300739Y-120252523D01*
X129393079Y-120272151D01*
X129393084Y-120272151D01*
X129399536Y-120273523D01*
X129590510Y-120273523D01*
X129596962Y-120272151D01*
X129596967Y-120272151D01*
X129714721Y-120247121D01*
X129785512Y-120252523D01*
X129830013Y-120281273D01*
X129837030Y-120288290D01*
X129871056Y-120350602D01*
X129873244Y-120364211D01*
X129886458Y-120489928D01*
X129945473Y-120671556D01*
X130040960Y-120836944D01*
X130045378Y-120841851D01*
X130045379Y-120841852D01*
X130164325Y-120973955D01*
X130168747Y-120978866D01*
X130323248Y-121091118D01*
X130329276Y-121093802D01*
X130329278Y-121093803D01*
X130491681Y-121166109D01*
X130497712Y-121168794D01*
X130591113Y-121188647D01*
X130678056Y-121207128D01*
X130678061Y-121207128D01*
X130684513Y-121208500D01*
X130875487Y-121208500D01*
X130881939Y-121207128D01*
X130881944Y-121207128D01*
X130968887Y-121188647D01*
X131062288Y-121168794D01*
X131068319Y-121166109D01*
X131230722Y-121093803D01*
X131230724Y-121093802D01*
X131236752Y-121091118D01*
X131391253Y-120978866D01*
X131395675Y-120973955D01*
X131514621Y-120841852D01*
X131514622Y-120841851D01*
X131519040Y-120836944D01*
X131614527Y-120671556D01*
X131673542Y-120489928D01*
X131675890Y-120467594D01*
X131692814Y-120306565D01*
X131693504Y-120300000D01*
X131677555Y-120148255D01*
X131674232Y-120116635D01*
X131674232Y-120116633D01*
X131673542Y-120110072D01*
X131637777Y-120000000D01*
X171736835Y-120000000D01*
X171755465Y-120236711D01*
X171756619Y-120241518D01*
X171756620Y-120241524D01*
X171782808Y-120350602D01*
X171810895Y-120467594D01*
X171812788Y-120472165D01*
X171812789Y-120472167D01*
X171897749Y-120677279D01*
X171901760Y-120686963D01*
X171904346Y-120691183D01*
X172023241Y-120885202D01*
X172023245Y-120885208D01*
X172025824Y-120889416D01*
X172180031Y-121069969D01*
X172360584Y-121224176D01*
X172364792Y-121226755D01*
X172364798Y-121226759D01*
X172558817Y-121345654D01*
X172563037Y-121348240D01*
X172567607Y-121350133D01*
X172567611Y-121350135D01*
X172777833Y-121437211D01*
X172782406Y-121439105D01*
X172862609Y-121458360D01*
X173008476Y-121493380D01*
X173008482Y-121493381D01*
X173013289Y-121494535D01*
X173250000Y-121513165D01*
X173486711Y-121494535D01*
X173491518Y-121493381D01*
X173491524Y-121493380D01*
X173637391Y-121458360D01*
X173717594Y-121439105D01*
X173722167Y-121437211D01*
X173932389Y-121350135D01*
X173932393Y-121350133D01*
X173936963Y-121348240D01*
X173941183Y-121345654D01*
X174135202Y-121226759D01*
X174135208Y-121226755D01*
X174139416Y-121224176D01*
X174319969Y-121069969D01*
X174474176Y-120889416D01*
X174476755Y-120885208D01*
X174476759Y-120885202D01*
X174595654Y-120691183D01*
X174598240Y-120686963D01*
X174602252Y-120677279D01*
X174687211Y-120472167D01*
X174687212Y-120472165D01*
X174689105Y-120467594D01*
X174717192Y-120350602D01*
X174743380Y-120241524D01*
X174743381Y-120241518D01*
X174744535Y-120236711D01*
X174763165Y-120000000D01*
X174744535Y-119763289D01*
X174739497Y-119742302D01*
X174695076Y-119557279D01*
X174689105Y-119532406D01*
X174631309Y-119392872D01*
X174600135Y-119317611D01*
X174600133Y-119317607D01*
X174598240Y-119313037D01*
X174595654Y-119308817D01*
X174476759Y-119114798D01*
X174476755Y-119114792D01*
X174474176Y-119110584D01*
X174319969Y-118930031D01*
X174139416Y-118775824D01*
X174135208Y-118773245D01*
X174135202Y-118773241D01*
X173941183Y-118654346D01*
X173936963Y-118651760D01*
X173932393Y-118649867D01*
X173932389Y-118649865D01*
X173722167Y-118562789D01*
X173722165Y-118562788D01*
X173717594Y-118560895D01*
X173637391Y-118541640D01*
X173491524Y-118506620D01*
X173491518Y-118506619D01*
X173486711Y-118505465D01*
X173250000Y-118486835D01*
X173013289Y-118505465D01*
X173008482Y-118506619D01*
X173008476Y-118506620D01*
X172862609Y-118541640D01*
X172782406Y-118560895D01*
X172777835Y-118562788D01*
X172777833Y-118562789D01*
X172567611Y-118649865D01*
X172567607Y-118649867D01*
X172563037Y-118651760D01*
X172558817Y-118654346D01*
X172364798Y-118773241D01*
X172364792Y-118773245D01*
X172360584Y-118775824D01*
X172180031Y-118930031D01*
X172025824Y-119110584D01*
X172023245Y-119114792D01*
X172023241Y-119114798D01*
X171904346Y-119308817D01*
X171901760Y-119313037D01*
X171899867Y-119317607D01*
X171899865Y-119317611D01*
X171868691Y-119392872D01*
X171810895Y-119532406D01*
X171804924Y-119557279D01*
X171760504Y-119742302D01*
X171755465Y-119763289D01*
X171736835Y-120000000D01*
X131637777Y-120000000D01*
X131614527Y-119928444D01*
X131599241Y-119901967D01*
X131570824Y-119852749D01*
X131519040Y-119763056D01*
X131391253Y-119621134D01*
X131236752Y-119508882D01*
X131230724Y-119506198D01*
X131230722Y-119506197D01*
X131068319Y-119433891D01*
X131068318Y-119433891D01*
X131062288Y-119431206D01*
X130968888Y-119411353D01*
X130881944Y-119392872D01*
X130881939Y-119392872D01*
X130875487Y-119391500D01*
X130854950Y-119391500D01*
X130786829Y-119371498D01*
X130765855Y-119354595D01*
X130368678Y-118957418D01*
X130360688Y-118948638D01*
X130360686Y-118948636D01*
X130356439Y-118941943D01*
X130304765Y-118893418D01*
X130301924Y-118890664D01*
X130281356Y-118870096D01*
X130277849Y-118867376D01*
X130268827Y-118859670D01*
X130235156Y-118828051D01*
X130235476Y-118827710D01*
X130226257Y-118819410D01*
X130222043Y-118814729D01*
X130106276Y-118686157D01*
X129951775Y-118573905D01*
X129945747Y-118571221D01*
X129945745Y-118571220D01*
X129783342Y-118498914D01*
X129783341Y-118498914D01*
X129777311Y-118496229D01*
X129683910Y-118476376D01*
X129596967Y-118457895D01*
X129596962Y-118457895D01*
X129590510Y-118456523D01*
X129399536Y-118456523D01*
X129393084Y-118457895D01*
X129393079Y-118457895D01*
X129306136Y-118476376D01*
X129212735Y-118496229D01*
X129206705Y-118498914D01*
X129206704Y-118498914D01*
X129044301Y-118571220D01*
X129044299Y-118571221D01*
X129038271Y-118573905D01*
X128883770Y-118686157D01*
X128879349Y-118691067D01*
X128879348Y-118691068D01*
X128763789Y-118819410D01*
X128755983Y-118828079D01*
X128719033Y-118892078D01*
X128668230Y-118980072D01*
X128660496Y-118993467D01*
X128601481Y-119175095D01*
X128581519Y-119365023D01*
X120241887Y-119365023D01*
X120243542Y-119359928D01*
X120248471Y-119313037D01*
X120262814Y-119176565D01*
X120263504Y-119170000D01*
X120256864Y-119106825D01*
X120244232Y-118986635D01*
X120244232Y-118986633D01*
X120243542Y-118980072D01*
X120184527Y-118798444D01*
X120089040Y-118633056D01*
X120025772Y-118562789D01*
X119965675Y-118496045D01*
X119965674Y-118496044D01*
X119961253Y-118491134D01*
X119862157Y-118419136D01*
X119812094Y-118382763D01*
X119812093Y-118382762D01*
X119806752Y-118378882D01*
X119800724Y-118376198D01*
X119800722Y-118376197D01*
X119638319Y-118303891D01*
X119638318Y-118303891D01*
X119632288Y-118301206D01*
X119538888Y-118281353D01*
X119451944Y-118262872D01*
X119451939Y-118262872D01*
X119445487Y-118261500D01*
X119254513Y-118261500D01*
X119248061Y-118262872D01*
X119248056Y-118262872D01*
X119161112Y-118281353D01*
X119067712Y-118301206D01*
X119061682Y-118303891D01*
X119061681Y-118303891D01*
X118899278Y-118376197D01*
X118899276Y-118376198D01*
X118893248Y-118378882D01*
X118887907Y-118382762D01*
X118887906Y-118382763D01*
X118837843Y-118419136D01*
X118740524Y-118489843D01*
X118740522Y-118489844D01*
X118738747Y-118491134D01*
X118738511Y-118490809D01*
X118677991Y-118519853D01*
X118657687Y-118521500D01*
X118490224Y-118521500D01*
X118422103Y-118501498D01*
X118416163Y-118497436D01*
X118415909Y-118497251D01*
X118266752Y-118388882D01*
X118260724Y-118386198D01*
X118260722Y-118386197D01*
X118098319Y-118313891D01*
X118098318Y-118313891D01*
X118092288Y-118311206D01*
X117998887Y-118291353D01*
X117911944Y-118272872D01*
X117911939Y-118272872D01*
X117905487Y-118271500D01*
X117714513Y-118271500D01*
X117708061Y-118272872D01*
X117708056Y-118272872D01*
X117621113Y-118291353D01*
X117527712Y-118311206D01*
X117521682Y-118313891D01*
X117521681Y-118313891D01*
X117359278Y-118386197D01*
X117359276Y-118386198D01*
X117353248Y-118388882D01*
X117198747Y-118501134D01*
X117070960Y-118643056D01*
X117046076Y-118686157D01*
X116981247Y-118798444D01*
X116975473Y-118808444D01*
X116916458Y-118990072D01*
X116915768Y-118996633D01*
X116915768Y-118996635D01*
X116904187Y-119106825D01*
X116896496Y-119180000D01*
X89108000Y-119180000D01*
X89108000Y-113410000D01*
X116876496Y-113410000D01*
X116896458Y-113599928D01*
X116955473Y-113781556D01*
X117050960Y-113946944D01*
X117055378Y-113951851D01*
X117055379Y-113951852D01*
X117142825Y-114048971D01*
X117178747Y-114088866D01*
X117333248Y-114201118D01*
X117339276Y-114203802D01*
X117339278Y-114203803D01*
X117501681Y-114276109D01*
X117507712Y-114278794D01*
X117601112Y-114298647D01*
X117688056Y-114317128D01*
X117688061Y-114317128D01*
X117694513Y-114318500D01*
X117885487Y-114318500D01*
X117891939Y-114317128D01*
X117891944Y-114317128D01*
X117978888Y-114298647D01*
X118072288Y-114278794D01*
X118078319Y-114276109D01*
X118240722Y-114203803D01*
X118240724Y-114203802D01*
X118246752Y-114201118D01*
X118396163Y-114092564D01*
X118463031Y-114068706D01*
X118470224Y-114068500D01*
X118739776Y-114068500D01*
X118807897Y-114088502D01*
X118813834Y-114092562D01*
X118963248Y-114201118D01*
X118969276Y-114203802D01*
X118969278Y-114203803D01*
X119131681Y-114276109D01*
X119137712Y-114278794D01*
X119231112Y-114298647D01*
X119318056Y-114317128D01*
X119318061Y-114317128D01*
X119324513Y-114318500D01*
X119515487Y-114318500D01*
X119521939Y-114317128D01*
X119521944Y-114317128D01*
X119608888Y-114298647D01*
X119702288Y-114278794D01*
X119708319Y-114276109D01*
X119834343Y-114220000D01*
X151186502Y-114220000D01*
X151206457Y-114448087D01*
X151265716Y-114669243D01*
X151268039Y-114674224D01*
X151268039Y-114674225D01*
X151360151Y-114871762D01*
X151360154Y-114871767D01*
X151362477Y-114876749D01*
X151493802Y-115064300D01*
X151655700Y-115226198D01*
X151660208Y-115229355D01*
X151660211Y-115229357D01*
X151738389Y-115284098D01*
X151843251Y-115357523D01*
X151848233Y-115359846D01*
X151848238Y-115359849D01*
X152045775Y-115451961D01*
X152050757Y-115454284D01*
X152056065Y-115455706D01*
X152056067Y-115455707D01*
X152266598Y-115512119D01*
X152266600Y-115512119D01*
X152271913Y-115513543D01*
X152500000Y-115533498D01*
X152728087Y-115513543D01*
X152733400Y-115512119D01*
X152733402Y-115512119D01*
X152943933Y-115455707D01*
X152943935Y-115455706D01*
X152949243Y-115454284D01*
X152954225Y-115451961D01*
X153151762Y-115359849D01*
X153151767Y-115359846D01*
X153156749Y-115357523D01*
X153261611Y-115284098D01*
X153339789Y-115229357D01*
X153339792Y-115229355D01*
X153344300Y-115226198D01*
X153506198Y-115064300D01*
X153637523Y-114876749D01*
X153639846Y-114871767D01*
X153639849Y-114871762D01*
X153731961Y-114674225D01*
X153731961Y-114674224D01*
X153734284Y-114669243D01*
X153793543Y-114448087D01*
X153813498Y-114220000D01*
X153793543Y-113991913D01*
X153781494Y-113946944D01*
X153735707Y-113776067D01*
X153735706Y-113776065D01*
X153734284Y-113770757D01*
X153679122Y-113652460D01*
X153653790Y-113598134D01*
X160741500Y-113598134D01*
X160748255Y-113660316D01*
X160799385Y-113796705D01*
X160886739Y-113913261D01*
X161003295Y-114000615D01*
X161139684Y-114051745D01*
X161201866Y-114058500D01*
X162998134Y-114058500D01*
X163060316Y-114051745D01*
X163196705Y-114000615D01*
X163313261Y-113913261D01*
X163400615Y-113796705D01*
X163451745Y-113660316D01*
X163458500Y-113598134D01*
X166341500Y-113598134D01*
X166348255Y-113660316D01*
X166399385Y-113796705D01*
X166486739Y-113913261D01*
X166603295Y-114000615D01*
X166739684Y-114051745D01*
X166801866Y-114058500D01*
X168598134Y-114058500D01*
X168660316Y-114051745D01*
X168796705Y-114000615D01*
X168913261Y-113913261D01*
X169000615Y-113796705D01*
X169051745Y-113660316D01*
X169058500Y-113598134D01*
X169058500Y-111801866D01*
X169051745Y-111739684D01*
X169000615Y-111603295D01*
X168913261Y-111486739D01*
X168796705Y-111399385D01*
X168660316Y-111348255D01*
X168598134Y-111341500D01*
X166801866Y-111341500D01*
X166739684Y-111348255D01*
X166603295Y-111399385D01*
X166486739Y-111486739D01*
X166399385Y-111603295D01*
X166348255Y-111739684D01*
X166341500Y-111801866D01*
X166341500Y-113598134D01*
X163458500Y-113598134D01*
X163458500Y-111801866D01*
X163451745Y-111739684D01*
X163400615Y-111603295D01*
X163313261Y-111486739D01*
X163196705Y-111399385D01*
X163060316Y-111348255D01*
X162998134Y-111341500D01*
X161201866Y-111341500D01*
X161139684Y-111348255D01*
X161003295Y-111399385D01*
X160886739Y-111486739D01*
X160799385Y-111603295D01*
X160748255Y-111739684D01*
X160741500Y-111801866D01*
X160741500Y-113598134D01*
X153653790Y-113598134D01*
X153639849Y-113568238D01*
X153639846Y-113568233D01*
X153637523Y-113563251D01*
X153530215Y-113410000D01*
X153509357Y-113380211D01*
X153509355Y-113380208D01*
X153506198Y-113375700D01*
X153344300Y-113213802D01*
X153339792Y-113210645D01*
X153339789Y-113210643D01*
X153261611Y-113155902D01*
X153156749Y-113082477D01*
X153151767Y-113080154D01*
X153151762Y-113080151D01*
X152954225Y-112988039D01*
X152954224Y-112988039D01*
X152949243Y-112985716D01*
X152943935Y-112984294D01*
X152943933Y-112984293D01*
X152733402Y-112927881D01*
X152733400Y-112927881D01*
X152728087Y-112926457D01*
X152500000Y-112906502D01*
X152271913Y-112926457D01*
X152266600Y-112927881D01*
X152266598Y-112927881D01*
X152056067Y-112984293D01*
X152056065Y-112984294D01*
X152050757Y-112985716D01*
X152045776Y-112988039D01*
X152045775Y-112988039D01*
X151848238Y-113080151D01*
X151848233Y-113080154D01*
X151843251Y-113082477D01*
X151738389Y-113155902D01*
X151660211Y-113210643D01*
X151660208Y-113210645D01*
X151655700Y-113213802D01*
X151493802Y-113375700D01*
X151490645Y-113380208D01*
X151490643Y-113380211D01*
X151469785Y-113410000D01*
X151362477Y-113563251D01*
X151360154Y-113568233D01*
X151360151Y-113568238D01*
X151320878Y-113652460D01*
X151265716Y-113770757D01*
X151264294Y-113776065D01*
X151264293Y-113776067D01*
X151218506Y-113946944D01*
X151206457Y-113991913D01*
X151186502Y-114220000D01*
X119834343Y-114220000D01*
X119870722Y-114203803D01*
X119870724Y-114203802D01*
X119876752Y-114201118D01*
X120031253Y-114088866D01*
X120067175Y-114048971D01*
X120154621Y-113951852D01*
X120154622Y-113951851D01*
X120159040Y-113946944D01*
X120254527Y-113781556D01*
X120313542Y-113599928D01*
X120333504Y-113410000D01*
X120313542Y-113220072D01*
X120254527Y-113038444D01*
X120159040Y-112873056D01*
X120031253Y-112731134D01*
X119876752Y-112618882D01*
X119870724Y-112616198D01*
X119870722Y-112616197D01*
X119708319Y-112543891D01*
X119708318Y-112543891D01*
X119702288Y-112541206D01*
X119608887Y-112521353D01*
X119521944Y-112502872D01*
X119521939Y-112502872D01*
X119515487Y-112501500D01*
X119324513Y-112501500D01*
X119318061Y-112502872D01*
X119318056Y-112502872D01*
X119231112Y-112521353D01*
X119137712Y-112541206D01*
X119131682Y-112543891D01*
X119131681Y-112543891D01*
X118969278Y-112616197D01*
X118969276Y-112616198D01*
X118963248Y-112618882D01*
X118814092Y-112727251D01*
X118813837Y-112727436D01*
X118746969Y-112751294D01*
X118739776Y-112751500D01*
X118470224Y-112751500D01*
X118402103Y-112731498D01*
X118396163Y-112727436D01*
X118395909Y-112727251D01*
X118246752Y-112618882D01*
X118240724Y-112616198D01*
X118240722Y-112616197D01*
X118078319Y-112543891D01*
X118078318Y-112543891D01*
X118072288Y-112541206D01*
X117978887Y-112521353D01*
X117891944Y-112502872D01*
X117891939Y-112502872D01*
X117885487Y-112501500D01*
X117694513Y-112501500D01*
X117688061Y-112502872D01*
X117688056Y-112502872D01*
X117601112Y-112521353D01*
X117507712Y-112541206D01*
X117501682Y-112543891D01*
X117501681Y-112543891D01*
X117339278Y-112616197D01*
X117339276Y-112616198D01*
X117333248Y-112618882D01*
X117178747Y-112731134D01*
X117050960Y-112873056D01*
X116955473Y-113038444D01*
X116896458Y-113220072D01*
X116876496Y-113410000D01*
X89108000Y-113410000D01*
X89108000Y-98750000D01*
X172486835Y-98750000D01*
X172505465Y-98986711D01*
X172560895Y-99217594D01*
X172651760Y-99436963D01*
X172654346Y-99441183D01*
X172773241Y-99635202D01*
X172773245Y-99635208D01*
X172775824Y-99639416D01*
X172930031Y-99819969D01*
X173110584Y-99974176D01*
X173114792Y-99976755D01*
X173114798Y-99976759D01*
X173308817Y-100095654D01*
X173313037Y-100098240D01*
X173317607Y-100100133D01*
X173317611Y-100100135D01*
X173527833Y-100187211D01*
X173532406Y-100189105D01*
X173612609Y-100208360D01*
X173758476Y-100243380D01*
X173758482Y-100243381D01*
X173763289Y-100244535D01*
X174000000Y-100263165D01*
X174236711Y-100244535D01*
X174241518Y-100243381D01*
X174241524Y-100243380D01*
X174387391Y-100208360D01*
X174467594Y-100189105D01*
X174472167Y-100187211D01*
X174682389Y-100100135D01*
X174682393Y-100100133D01*
X174686963Y-100098240D01*
X174691183Y-100095654D01*
X174885202Y-99976759D01*
X174885208Y-99976755D01*
X174889416Y-99974176D01*
X175069969Y-99819969D01*
X175224176Y-99639416D01*
X175226755Y-99635208D01*
X175226759Y-99635202D01*
X175345654Y-99441183D01*
X175348240Y-99436963D01*
X175439105Y-99217594D01*
X175494535Y-98986711D01*
X175513165Y-98750000D01*
X175494535Y-98513289D01*
X175439105Y-98282406D01*
X175348240Y-98063037D01*
X175345654Y-98058817D01*
X175226759Y-97864798D01*
X175226755Y-97864792D01*
X175224176Y-97860584D01*
X175069969Y-97680031D01*
X174889416Y-97525824D01*
X174885208Y-97523245D01*
X174885202Y-97523241D01*
X174691183Y-97404346D01*
X174686963Y-97401760D01*
X174682393Y-97399867D01*
X174682389Y-97399865D01*
X174472167Y-97312789D01*
X174472165Y-97312788D01*
X174467594Y-97310895D01*
X174387391Y-97291640D01*
X174241524Y-97256620D01*
X174241518Y-97256619D01*
X174236711Y-97255465D01*
X174000000Y-97236835D01*
X173763289Y-97255465D01*
X173758482Y-97256619D01*
X173758476Y-97256620D01*
X173612609Y-97291640D01*
X173532406Y-97310895D01*
X173527835Y-97312788D01*
X173527833Y-97312789D01*
X173317611Y-97399865D01*
X173317607Y-97399867D01*
X173313037Y-97401760D01*
X173308817Y-97404346D01*
X173114798Y-97523241D01*
X173114792Y-97523245D01*
X173110584Y-97525824D01*
X172930031Y-97680031D01*
X172775824Y-97860584D01*
X172773245Y-97864792D01*
X172773241Y-97864798D01*
X172654346Y-98058817D01*
X172651760Y-98063037D01*
X172560895Y-98282406D01*
X172505465Y-98513289D01*
X172486835Y-98750000D01*
X89108000Y-98750000D01*
X89108000Y-97403247D01*
X102791500Y-97403247D01*
X102798255Y-97465429D01*
X102849385Y-97601818D01*
X102936739Y-97718374D01*
X103053295Y-97805728D01*
X103189684Y-97856858D01*
X103251866Y-97863613D01*
X104948134Y-97863613D01*
X105010316Y-97856858D01*
X105146705Y-97805728D01*
X105263261Y-97718374D01*
X105350615Y-97601818D01*
X105401745Y-97465429D01*
X105408500Y-97403247D01*
X105408500Y-97398135D01*
X109501500Y-97398135D01*
X109508255Y-97460317D01*
X109559385Y-97596706D01*
X109646739Y-97713262D01*
X109763295Y-97800616D01*
X109899684Y-97851746D01*
X109961866Y-97858501D01*
X111658134Y-97858501D01*
X111720316Y-97851746D01*
X111856705Y-97800616D01*
X111973261Y-97713262D01*
X112060615Y-97596706D01*
X112111745Y-97460317D01*
X112118500Y-97398135D01*
X112118500Y-95701867D01*
X112111745Y-95639685D01*
X112060615Y-95503296D01*
X111973261Y-95386740D01*
X111856705Y-95299386D01*
X111720316Y-95248256D01*
X111658134Y-95241501D01*
X109961866Y-95241501D01*
X109899684Y-95248256D01*
X109763295Y-95299386D01*
X109646739Y-95386740D01*
X109559385Y-95503296D01*
X109508255Y-95639685D01*
X109501500Y-95701867D01*
X109501500Y-97398135D01*
X105408500Y-97398135D01*
X105408500Y-95706979D01*
X105401745Y-95644797D01*
X105350615Y-95508408D01*
X105263261Y-95391852D01*
X105146705Y-95304498D01*
X105010316Y-95253368D01*
X104948134Y-95246613D01*
X103251866Y-95246613D01*
X103189684Y-95253368D01*
X103053295Y-95304498D01*
X102936739Y-95391852D01*
X102849385Y-95508408D01*
X102798255Y-95644797D01*
X102791500Y-95706979D01*
X102791500Y-97403247D01*
X89108000Y-97403247D01*
X89108000Y-94750000D01*
X136986496Y-94750000D01*
X137006458Y-94939928D01*
X137065473Y-95121556D01*
X137160960Y-95286944D01*
X137165378Y-95291851D01*
X137165379Y-95291852D01*
X137261884Y-95399032D01*
X137288747Y-95428866D01*
X137443248Y-95541118D01*
X137449276Y-95543802D01*
X137449278Y-95543803D01*
X137611681Y-95616109D01*
X137617712Y-95618794D01*
X137711112Y-95638647D01*
X137798056Y-95657128D01*
X137798061Y-95657128D01*
X137804513Y-95658500D01*
X137995487Y-95658500D01*
X138001939Y-95657128D01*
X138001944Y-95657128D01*
X138088888Y-95638647D01*
X138182288Y-95618794D01*
X138188319Y-95616109D01*
X138350722Y-95543803D01*
X138350724Y-95543802D01*
X138356752Y-95541118D01*
X138511253Y-95428866D01*
X138538116Y-95399032D01*
X138634621Y-95291852D01*
X138634622Y-95291851D01*
X138639040Y-95286944D01*
X138734527Y-95121556D01*
X138793542Y-94939928D01*
X138798450Y-94893230D01*
X138825463Y-94827573D01*
X138834665Y-94817305D01*
X139366533Y-94285437D01*
X139429431Y-94251285D01*
X139445589Y-94247850D01*
X139582288Y-94218794D01*
X139595176Y-94213056D01*
X139750722Y-94143803D01*
X139750724Y-94143802D01*
X139756752Y-94141118D01*
X139911253Y-94028866D01*
X139974267Y-93958882D01*
X140034621Y-93891852D01*
X140034622Y-93891851D01*
X140039040Y-93886944D01*
X140134527Y-93721556D01*
X140193542Y-93539928D01*
X140213504Y-93350000D01*
X140193542Y-93160072D01*
X140134527Y-92978444D01*
X140039040Y-92813056D01*
X139911253Y-92671134D01*
X139756752Y-92558882D01*
X139750724Y-92556198D01*
X139750722Y-92556197D01*
X139588319Y-92483891D01*
X139588318Y-92483891D01*
X139582288Y-92481206D01*
X139488888Y-92461353D01*
X139401944Y-92442872D01*
X139401939Y-92442872D01*
X139395487Y-92441500D01*
X139204513Y-92441500D01*
X139198061Y-92442872D01*
X139198056Y-92442872D01*
X139111112Y-92461353D01*
X139017712Y-92481206D01*
X139011682Y-92483891D01*
X139011681Y-92483891D01*
X138849278Y-92556197D01*
X138849276Y-92556198D01*
X138843248Y-92558882D01*
X138688747Y-92671134D01*
X138560960Y-92813056D01*
X138465473Y-92978444D01*
X138406458Y-93160072D01*
X138405768Y-93166635D01*
X138405768Y-93166637D01*
X138401550Y-93206770D01*
X138374537Y-93272427D01*
X138365335Y-93282695D01*
X137833467Y-93814563D01*
X137770569Y-93848715D01*
X137617712Y-93881206D01*
X137611682Y-93883891D01*
X137611681Y-93883891D01*
X137449278Y-93956197D01*
X137449276Y-93956198D01*
X137443248Y-93958882D01*
X137288747Y-94071134D01*
X137284326Y-94076044D01*
X137284325Y-94076045D01*
X137223316Y-94143803D01*
X137160960Y-94213056D01*
X137065473Y-94378444D01*
X137006458Y-94560072D01*
X136986496Y-94750000D01*
X89108000Y-94750000D01*
X89108000Y-83350000D01*
X104586496Y-83350000D01*
X104606458Y-83539928D01*
X104665473Y-83721556D01*
X104760960Y-83886944D01*
X104888747Y-84028866D01*
X105043248Y-84141118D01*
X105049276Y-84143802D01*
X105049278Y-84143803D01*
X105211681Y-84216109D01*
X105217712Y-84218794D01*
X105311112Y-84238647D01*
X105398056Y-84257128D01*
X105398061Y-84257128D01*
X105404513Y-84258500D01*
X105595487Y-84258500D01*
X105601939Y-84257128D01*
X105601944Y-84257128D01*
X105688888Y-84238647D01*
X105782288Y-84218794D01*
X105788319Y-84216109D01*
X105950722Y-84143803D01*
X105950724Y-84143802D01*
X105956752Y-84141118D01*
X106111253Y-84028866D01*
X106239040Y-83886944D01*
X106334527Y-83721556D01*
X106393542Y-83539928D01*
X106406755Y-83414213D01*
X106433768Y-83348558D01*
X106442970Y-83338290D01*
X106533678Y-83247582D01*
X106595990Y-83213556D01*
X106666805Y-83218621D01*
X106696831Y-83234739D01*
X106843248Y-83341118D01*
X106849276Y-83343802D01*
X106849278Y-83343803D01*
X106907761Y-83369841D01*
X107017712Y-83418794D01*
X107111112Y-83438647D01*
X107198056Y-83457128D01*
X107198061Y-83457128D01*
X107204513Y-83458500D01*
X107395487Y-83458500D01*
X107401939Y-83457128D01*
X107401944Y-83457128D01*
X107488888Y-83438647D01*
X107582288Y-83418794D01*
X107692239Y-83369841D01*
X107750722Y-83343803D01*
X107750724Y-83343802D01*
X107756752Y-83341118D01*
X107911253Y-83228866D01*
X108039040Y-83086944D01*
X108134527Y-82921556D01*
X108193542Y-82739928D01*
X108200773Y-82671134D01*
X108212814Y-82556565D01*
X108213504Y-82550000D01*
X108193542Y-82360072D01*
X108134527Y-82178444D01*
X108039040Y-82013056D01*
X107960936Y-81926312D01*
X107915675Y-81876045D01*
X107915674Y-81876044D01*
X107911253Y-81871134D01*
X107756752Y-81758882D01*
X107750724Y-81756198D01*
X107750722Y-81756197D01*
X107588319Y-81683891D01*
X107588318Y-81683891D01*
X107582288Y-81681206D01*
X107488888Y-81661353D01*
X107401944Y-81642872D01*
X107401939Y-81642872D01*
X107395487Y-81641500D01*
X107204513Y-81641500D01*
X107198061Y-81642872D01*
X107198056Y-81642872D01*
X107111112Y-81661353D01*
X107017712Y-81681206D01*
X107011682Y-81683891D01*
X107011681Y-81683891D01*
X106849278Y-81756197D01*
X106849276Y-81756198D01*
X106843248Y-81758882D01*
X106694092Y-81867251D01*
X106693837Y-81867436D01*
X106626969Y-81891294D01*
X106619776Y-81891500D01*
X106382059Y-81891500D01*
X106370203Y-81890941D01*
X106362463Y-81889211D01*
X106354537Y-81889460D01*
X106354536Y-81889460D01*
X106291611Y-81891438D01*
X106287653Y-81891500D01*
X106258568Y-81891500D01*
X106254637Y-81891997D01*
X106254630Y-81891997D01*
X106254179Y-81892054D01*
X106242343Y-81892986D01*
X106196169Y-81894438D01*
X106175579Y-81900420D01*
X106156218Y-81904430D01*
X106149230Y-81905312D01*
X106142796Y-81906125D01*
X106142795Y-81906125D01*
X106134936Y-81907118D01*
X106127571Y-81910034D01*
X106127567Y-81910035D01*
X106091979Y-81924126D01*
X106080769Y-81927965D01*
X106036400Y-81940855D01*
X106017935Y-81951775D01*
X106000195Y-81960466D01*
X105980244Y-81968365D01*
X105942874Y-81995516D01*
X105932952Y-82002033D01*
X105900023Y-82021507D01*
X105900019Y-82021510D01*
X105893193Y-82025547D01*
X105878029Y-82040711D01*
X105862996Y-82053551D01*
X105845643Y-82066159D01*
X105816198Y-82101752D01*
X105808208Y-82110532D01*
X105514145Y-82404595D01*
X105451833Y-82438621D01*
X105425050Y-82441500D01*
X105404513Y-82441500D01*
X105398061Y-82442872D01*
X105398056Y-82442872D01*
X105311112Y-82461353D01*
X105217712Y-82481206D01*
X105211682Y-82483891D01*
X105211681Y-82483891D01*
X105049278Y-82556197D01*
X105049276Y-82556198D01*
X105043248Y-82558882D01*
X104888747Y-82671134D01*
X104760960Y-82813056D01*
X104665473Y-82978444D01*
X104606458Y-83160072D01*
X104605768Y-83166633D01*
X104605768Y-83166635D01*
X104598819Y-83232749D01*
X104586496Y-83350000D01*
X89108000Y-83350000D01*
X89108000Y-73098134D01*
X133241500Y-73098134D01*
X133248255Y-73160316D01*
X133299385Y-73296705D01*
X133386739Y-73413261D01*
X133503295Y-73500615D01*
X133639684Y-73551745D01*
X133701866Y-73558500D01*
X135498134Y-73558500D01*
X135560316Y-73551745D01*
X135696705Y-73500615D01*
X135813261Y-73413261D01*
X135900615Y-73296705D01*
X135951745Y-73160316D01*
X135958500Y-73098134D01*
X150041500Y-73098134D01*
X150048255Y-73160316D01*
X150099385Y-73296705D01*
X150186739Y-73413261D01*
X150303295Y-73500615D01*
X150439684Y-73551745D01*
X150501866Y-73558500D01*
X152298134Y-73558500D01*
X152360316Y-73551745D01*
X152496705Y-73500615D01*
X152613261Y-73413261D01*
X152700615Y-73296705D01*
X152751745Y-73160316D01*
X152758500Y-73098134D01*
X152758500Y-71301866D01*
X152751745Y-71239684D01*
X152700615Y-71103295D01*
X152613261Y-70986739D01*
X152496705Y-70899385D01*
X152360316Y-70848255D01*
X152298134Y-70841500D01*
X150501866Y-70841500D01*
X150439684Y-70848255D01*
X150303295Y-70899385D01*
X150186739Y-70986739D01*
X150099385Y-71103295D01*
X150048255Y-71239684D01*
X150041500Y-71301866D01*
X150041500Y-73098134D01*
X135958500Y-73098134D01*
X135958500Y-71301866D01*
X135951745Y-71239684D01*
X135900615Y-71103295D01*
X135813261Y-70986739D01*
X135696705Y-70899385D01*
X135560316Y-70848255D01*
X135498134Y-70841500D01*
X133701866Y-70841500D01*
X133639684Y-70848255D01*
X133503295Y-70899385D01*
X133386739Y-70986739D01*
X133299385Y-71103295D01*
X133248255Y-71239684D01*
X133241500Y-71301866D01*
X133241500Y-73098134D01*
X89108000Y-73098134D01*
X89108000Y-72198134D01*
X104901725Y-72198134D01*
X104908480Y-72260316D01*
X104959610Y-72396705D01*
X105046964Y-72513261D01*
X105163520Y-72600615D01*
X105299909Y-72651745D01*
X105362091Y-72658500D01*
X107058359Y-72658500D01*
X107120541Y-72651745D01*
X107256930Y-72600615D01*
X107373486Y-72513261D01*
X107460840Y-72396705D01*
X107511970Y-72260316D01*
X107518725Y-72198134D01*
X107518725Y-70501866D01*
X107511970Y-70439684D01*
X107460840Y-70303295D01*
X107373486Y-70186739D01*
X107256930Y-70099385D01*
X107120541Y-70048255D01*
X107058359Y-70041500D01*
X105362091Y-70041500D01*
X105299909Y-70048255D01*
X105163520Y-70099385D01*
X105046964Y-70186739D01*
X104959610Y-70303295D01*
X104908480Y-70439684D01*
X104901725Y-70501866D01*
X104901725Y-72198134D01*
X89108000Y-72198134D01*
X89108000Y-66980000D01*
X112244647Y-66980000D01*
X112264022Y-67201463D01*
X112321560Y-67416196D01*
X112323882Y-67421177D01*
X112323883Y-67421178D01*
X112413186Y-67612689D01*
X112413189Y-67612694D01*
X112415512Y-67617676D01*
X112543023Y-67799781D01*
X112700219Y-67956977D01*
X112704727Y-67960134D01*
X112704730Y-67960136D01*
X112780495Y-68013187D01*
X112882323Y-68084488D01*
X112887305Y-68086811D01*
X112887310Y-68086814D01*
X113078822Y-68176117D01*
X113083804Y-68178440D01*
X113089112Y-68179862D01*
X113089114Y-68179863D01*
X113154949Y-68197503D01*
X113298537Y-68235978D01*
X113520000Y-68255353D01*
X113741463Y-68235978D01*
X113885051Y-68197503D01*
X113950886Y-68179863D01*
X113950888Y-68179862D01*
X113956196Y-68178440D01*
X113961178Y-68176117D01*
X114152690Y-68086814D01*
X114152695Y-68086811D01*
X114157677Y-68084488D01*
X114259505Y-68013187D01*
X114335270Y-67960136D01*
X114335273Y-67960134D01*
X114339781Y-67956977D01*
X114496977Y-67799781D01*
X114624488Y-67617676D01*
X114626811Y-67612694D01*
X114626814Y-67612689D01*
X114716117Y-67421178D01*
X114716118Y-67421177D01*
X114718440Y-67416196D01*
X114775978Y-67201463D01*
X114795353Y-66980000D01*
X122404647Y-66980000D01*
X122424022Y-67201463D01*
X122481560Y-67416196D01*
X122483882Y-67421177D01*
X122483883Y-67421178D01*
X122573186Y-67612689D01*
X122573189Y-67612694D01*
X122575512Y-67617676D01*
X122703023Y-67799781D01*
X122860219Y-67956977D01*
X122864727Y-67960134D01*
X122864730Y-67960136D01*
X122940495Y-68013187D01*
X123042323Y-68084488D01*
X123047305Y-68086811D01*
X123047310Y-68086814D01*
X123238822Y-68176117D01*
X123243804Y-68178440D01*
X123249112Y-68179862D01*
X123249114Y-68179863D01*
X123314949Y-68197503D01*
X123458537Y-68235978D01*
X123680000Y-68255353D01*
X123901463Y-68235978D01*
X124045051Y-68197503D01*
X124110886Y-68179863D01*
X124110888Y-68179862D01*
X124116196Y-68178440D01*
X124121178Y-68176117D01*
X124312690Y-68086814D01*
X124312695Y-68086811D01*
X124317677Y-68084488D01*
X124419505Y-68013187D01*
X124495270Y-67960136D01*
X124495273Y-67960134D01*
X124499781Y-67956977D01*
X124656977Y-67799781D01*
X124784488Y-67617676D01*
X124786811Y-67612694D01*
X124786814Y-67612689D01*
X124876117Y-67421178D01*
X124876118Y-67421177D01*
X124878440Y-67416196D01*
X124935978Y-67201463D01*
X124955353Y-66980000D01*
X124935978Y-66758537D01*
X124878440Y-66543804D01*
X124864198Y-66513261D01*
X124786814Y-66347311D01*
X124786811Y-66347306D01*
X124784488Y-66342324D01*
X124781331Y-66337815D01*
X124660136Y-66164730D01*
X124660134Y-66164727D01*
X124656977Y-66160219D01*
X124499781Y-66003023D01*
X124495273Y-65999866D01*
X124495270Y-65999864D01*
X124419505Y-65946813D01*
X124317677Y-65875512D01*
X124312695Y-65873189D01*
X124312690Y-65873186D01*
X124121178Y-65783883D01*
X124121177Y-65783882D01*
X124116196Y-65781560D01*
X124110888Y-65780138D01*
X124110886Y-65780137D01*
X124045051Y-65762497D01*
X123901463Y-65724022D01*
X123680000Y-65704647D01*
X123458537Y-65724022D01*
X123314949Y-65762497D01*
X123249114Y-65780137D01*
X123249112Y-65780138D01*
X123243804Y-65781560D01*
X123238823Y-65783882D01*
X123238822Y-65783883D01*
X123047311Y-65873186D01*
X123047306Y-65873189D01*
X123042324Y-65875512D01*
X123037817Y-65878668D01*
X123037815Y-65878669D01*
X122864730Y-65999864D01*
X122864727Y-65999866D01*
X122860219Y-66003023D01*
X122703023Y-66160219D01*
X122699866Y-66164727D01*
X122699864Y-66164730D01*
X122578669Y-66337815D01*
X122575512Y-66342324D01*
X122573189Y-66347306D01*
X122573186Y-66347311D01*
X122495802Y-66513261D01*
X122481560Y-66543804D01*
X122424022Y-66758537D01*
X122404647Y-66980000D01*
X114795353Y-66980000D01*
X114775978Y-66758537D01*
X114718440Y-66543804D01*
X114704198Y-66513261D01*
X114626814Y-66347311D01*
X114626811Y-66347306D01*
X114624488Y-66342324D01*
X114621331Y-66337815D01*
X114500136Y-66164730D01*
X114500134Y-66164727D01*
X114496977Y-66160219D01*
X114339781Y-66003023D01*
X114335273Y-65999866D01*
X114335270Y-65999864D01*
X114259505Y-65946813D01*
X114157677Y-65875512D01*
X114152695Y-65873189D01*
X114152690Y-65873186D01*
X113961178Y-65783883D01*
X113961177Y-65783882D01*
X113956196Y-65781560D01*
X113950888Y-65780138D01*
X113950886Y-65780137D01*
X113885051Y-65762497D01*
X113741463Y-65724022D01*
X113520000Y-65704647D01*
X113298537Y-65724022D01*
X113154949Y-65762497D01*
X113089114Y-65780137D01*
X113089112Y-65780138D01*
X113083804Y-65781560D01*
X113078823Y-65783882D01*
X113078822Y-65783883D01*
X112887311Y-65873186D01*
X112887306Y-65873189D01*
X112882324Y-65875512D01*
X112877817Y-65878668D01*
X112877815Y-65878669D01*
X112704730Y-65999864D01*
X112704727Y-65999866D01*
X112700219Y-66003023D01*
X112543023Y-66160219D01*
X112539866Y-66164727D01*
X112539864Y-66164730D01*
X112418669Y-66337815D01*
X112415512Y-66342324D01*
X112413189Y-66347306D01*
X112413186Y-66347311D01*
X112335802Y-66513261D01*
X112321560Y-66543804D01*
X112264022Y-66758537D01*
X112244647Y-66980000D01*
X89108000Y-66980000D01*
X89108000Y-66198134D01*
X105046613Y-66198134D01*
X105053368Y-66260316D01*
X105104498Y-66396705D01*
X105191852Y-66513261D01*
X105308408Y-66600615D01*
X105444797Y-66651745D01*
X105506979Y-66658500D01*
X107203247Y-66658500D01*
X107265429Y-66651745D01*
X107401818Y-66600615D01*
X107518374Y-66513261D01*
X107605728Y-66396705D01*
X107656858Y-66260316D01*
X107663613Y-66198134D01*
X107663613Y-64501866D01*
X107656858Y-64439684D01*
X107605728Y-64303295D01*
X107518374Y-64186739D01*
X107401818Y-64099385D01*
X107265429Y-64048255D01*
X107203247Y-64041500D01*
X105506979Y-64041500D01*
X105444797Y-64048255D01*
X105308408Y-64099385D01*
X105191852Y-64186739D01*
X105104498Y-64303295D01*
X105053368Y-64439684D01*
X105046613Y-64501866D01*
X105046613Y-66198134D01*
X89108000Y-66198134D01*
X89108000Y-63123839D01*
X116837173Y-63123839D01*
X116849713Y-63384908D01*
X116900704Y-63641256D01*
X116989026Y-63887252D01*
X116991242Y-63891376D01*
X117055753Y-64011437D01*
X117112737Y-64117491D01*
X117115532Y-64121234D01*
X117115534Y-64121237D01*
X117266330Y-64323177D01*
X117266335Y-64323183D01*
X117269122Y-64326915D01*
X117272431Y-64330195D01*
X117272436Y-64330201D01*
X117451426Y-64507635D01*
X117454743Y-64510923D01*
X117458505Y-64513681D01*
X117458508Y-64513684D01*
X117661750Y-64662707D01*
X117665524Y-64665474D01*
X117669667Y-64667654D01*
X117669669Y-64667655D01*
X117892684Y-64784989D01*
X117892689Y-64784991D01*
X117896834Y-64787172D01*
X118143590Y-64873344D01*
X118148183Y-64874216D01*
X118395785Y-64921224D01*
X118395788Y-64921224D01*
X118400374Y-64922095D01*
X118530959Y-64927226D01*
X118656875Y-64932174D01*
X118656881Y-64932174D01*
X118661543Y-64932357D01*
X118740977Y-64923657D01*
X118916707Y-64904412D01*
X118916712Y-64904411D01*
X118921360Y-64903902D01*
X119034116Y-64874216D01*
X119169594Y-64838548D01*
X119169596Y-64838547D01*
X119174117Y-64837357D01*
X119414262Y-64734182D01*
X119636519Y-64596646D01*
X119640082Y-64593629D01*
X119640087Y-64593626D01*
X119832439Y-64430787D01*
X119832440Y-64430786D01*
X119836005Y-64427768D01*
X119927729Y-64323177D01*
X120005257Y-64234774D01*
X120005261Y-64234769D01*
X120008339Y-64231259D01*
X120026023Y-64203767D01*
X120126051Y-64048255D01*
X120149733Y-64011437D01*
X120245819Y-63798134D01*
X160141500Y-63798134D01*
X160148255Y-63860316D01*
X160199385Y-63996705D01*
X160286739Y-64113261D01*
X160403295Y-64200615D01*
X160539684Y-64251745D01*
X160601866Y-64258500D01*
X162398134Y-64258500D01*
X162460316Y-64251745D01*
X162596705Y-64200615D01*
X162713261Y-64113261D01*
X162800615Y-63996705D01*
X162851745Y-63860316D01*
X162858500Y-63798134D01*
X162858500Y-62001866D01*
X162851745Y-61939684D01*
X162800615Y-61803295D01*
X162713261Y-61686739D01*
X162596705Y-61599385D01*
X162460316Y-61548255D01*
X162398134Y-61541500D01*
X160601866Y-61541500D01*
X160539684Y-61548255D01*
X160403295Y-61599385D01*
X160286739Y-61686739D01*
X160199385Y-61803295D01*
X160148255Y-61939684D01*
X160141500Y-62001866D01*
X160141500Y-63798134D01*
X120245819Y-63798134D01*
X120257083Y-63773129D01*
X120328030Y-63521572D01*
X120344832Y-63389496D01*
X120360616Y-63265421D01*
X120360616Y-63265417D01*
X120361014Y-63262291D01*
X120363431Y-63170000D01*
X120344061Y-62909348D01*
X120332725Y-62859248D01*
X120287408Y-62658980D01*
X120286377Y-62654423D01*
X120191647Y-62410823D01*
X120061951Y-62183902D01*
X119900138Y-61978643D01*
X119709763Y-61799557D01*
X119557437Y-61693884D01*
X119498851Y-61653241D01*
X119498848Y-61653239D01*
X119495009Y-61650576D01*
X119490816Y-61648508D01*
X119264781Y-61537040D01*
X119264778Y-61537039D01*
X119260593Y-61534975D01*
X119214449Y-61520204D01*
X119016123Y-61456720D01*
X119011665Y-61455293D01*
X118753693Y-61413279D01*
X118639942Y-61411790D01*
X118497022Y-61409919D01*
X118497019Y-61409919D01*
X118492345Y-61409858D01*
X118233362Y-61445104D01*
X117982433Y-61518243D01*
X117978180Y-61520203D01*
X117978179Y-61520204D01*
X117941659Y-61537040D01*
X117745072Y-61627668D01*
X117706067Y-61653241D01*
X117530404Y-61768410D01*
X117530399Y-61768414D01*
X117526491Y-61770976D01*
X117331494Y-61945018D01*
X117164363Y-62145970D01*
X117028771Y-62369419D01*
X116927697Y-62610455D01*
X116863359Y-62863783D01*
X116837173Y-63123839D01*
X89108000Y-63123839D01*
X89108000Y-56947404D01*
X91836941Y-56947404D01*
X91863091Y-57246292D01*
X91864001Y-57250364D01*
X91864002Y-57250369D01*
X91927628Y-57535016D01*
X91928540Y-57539095D01*
X92032140Y-57820671D01*
X92034084Y-57824359D01*
X92034088Y-57824367D01*
X92167000Y-58076457D01*
X92172069Y-58086071D01*
X92345871Y-58330633D01*
X92550490Y-58550061D01*
X92782333Y-58740498D01*
X93037325Y-58898600D01*
X93310988Y-59021589D01*
X93485368Y-59073574D01*
X93594514Y-59106112D01*
X93594516Y-59106112D01*
X93598513Y-59107304D01*
X93602633Y-59107957D01*
X93602635Y-59107957D01*
X93721509Y-59126785D01*
X93894848Y-59154239D01*
X93937577Y-59156179D01*
X93987262Y-59158436D01*
X93987281Y-59158436D01*
X93988681Y-59158500D01*
X94176107Y-59158500D01*
X94399370Y-59143671D01*
X94403464Y-59142846D01*
X94403468Y-59142845D01*
X94544513Y-59114405D01*
X94693480Y-59084368D01*
X94977163Y-58986688D01*
X94980896Y-58984819D01*
X94980900Y-58984817D01*
X95241691Y-58854222D01*
X95241693Y-58854221D01*
X95245435Y-58852347D01*
X95493584Y-58683706D01*
X95717248Y-58483726D01*
X95719966Y-58480555D01*
X95909779Y-58259097D01*
X95909782Y-58259093D01*
X95912499Y-58255923D01*
X95914773Y-58252421D01*
X95914777Y-58252416D01*
X96073628Y-58007807D01*
X96073631Y-58007802D01*
X96075907Y-58004297D01*
X96204600Y-57733270D01*
X96296318Y-57447604D01*
X96349448Y-57152316D01*
X96354483Y-57041463D01*
X96362870Y-56856766D01*
X96362870Y-56856760D01*
X96363059Y-56852596D01*
X96360207Y-56820000D01*
X112244647Y-56820000D01*
X112264022Y-57041463D01*
X112265446Y-57046776D01*
X112319999Y-57250369D01*
X112321560Y-57256196D01*
X112323882Y-57261177D01*
X112323883Y-57261178D01*
X112413186Y-57452689D01*
X112413189Y-57452694D01*
X112415512Y-57457676D01*
X112543023Y-57639781D01*
X112700219Y-57796977D01*
X112704727Y-57800134D01*
X112704730Y-57800136D01*
X112728459Y-57816751D01*
X112882323Y-57924488D01*
X112887305Y-57926811D01*
X112887310Y-57926814D01*
X113045368Y-58000517D01*
X113083804Y-58018440D01*
X113089112Y-58019862D01*
X113089114Y-58019863D01*
X113154949Y-58037503D01*
X113298537Y-58075978D01*
X113520000Y-58095353D01*
X113741463Y-58075978D01*
X113885051Y-58037503D01*
X113950886Y-58019863D01*
X113950888Y-58019862D01*
X113956196Y-58018440D01*
X113994632Y-58000517D01*
X114152690Y-57926814D01*
X114152695Y-57926811D01*
X114157677Y-57924488D01*
X114311541Y-57816751D01*
X114335270Y-57800136D01*
X114335273Y-57800134D01*
X114339781Y-57796977D01*
X114496977Y-57639781D01*
X114624488Y-57457676D01*
X114626811Y-57452694D01*
X114626814Y-57452689D01*
X114716117Y-57261178D01*
X114716118Y-57261177D01*
X114718440Y-57256196D01*
X114720002Y-57250369D01*
X114774554Y-57046776D01*
X114775978Y-57041463D01*
X114795353Y-56820000D01*
X122404647Y-56820000D01*
X122424022Y-57041463D01*
X122425446Y-57046776D01*
X122479999Y-57250369D01*
X122481560Y-57256196D01*
X122483882Y-57261177D01*
X122483883Y-57261178D01*
X122573186Y-57452689D01*
X122573189Y-57452694D01*
X122575512Y-57457676D01*
X122703023Y-57639781D01*
X122860219Y-57796977D01*
X122864727Y-57800134D01*
X122864730Y-57800136D01*
X122888459Y-57816751D01*
X123042323Y-57924488D01*
X123047305Y-57926811D01*
X123047310Y-57926814D01*
X123205368Y-58000517D01*
X123243804Y-58018440D01*
X123249112Y-58019862D01*
X123249114Y-58019863D01*
X123314949Y-58037503D01*
X123458537Y-58075978D01*
X123680000Y-58095353D01*
X123901463Y-58075978D01*
X124045051Y-58037503D01*
X124110886Y-58019863D01*
X124110888Y-58019862D01*
X124116196Y-58018440D01*
X124154632Y-58000517D01*
X124312690Y-57926814D01*
X124312695Y-57926811D01*
X124317677Y-57924488D01*
X124471541Y-57816751D01*
X124495270Y-57800136D01*
X124495273Y-57800134D01*
X124499781Y-57796977D01*
X124656977Y-57639781D01*
X124784488Y-57457676D01*
X124786811Y-57452694D01*
X124786814Y-57452689D01*
X124876117Y-57261178D01*
X124876118Y-57261177D01*
X124878440Y-57256196D01*
X124880002Y-57250369D01*
X124934554Y-57046776D01*
X124935978Y-57041463D01*
X124944207Y-56947404D01*
X179836941Y-56947404D01*
X179863091Y-57246292D01*
X179864001Y-57250364D01*
X179864002Y-57250369D01*
X179927628Y-57535016D01*
X179928540Y-57539095D01*
X180032140Y-57820671D01*
X180034084Y-57824359D01*
X180034088Y-57824367D01*
X180167000Y-58076457D01*
X180172069Y-58086071D01*
X180345871Y-58330633D01*
X180550490Y-58550061D01*
X180782333Y-58740498D01*
X181037325Y-58898600D01*
X181310988Y-59021589D01*
X181485368Y-59073574D01*
X181594514Y-59106112D01*
X181594516Y-59106112D01*
X181598513Y-59107304D01*
X181602633Y-59107957D01*
X181602635Y-59107957D01*
X181721509Y-59126785D01*
X181894848Y-59154239D01*
X181937577Y-59156179D01*
X181987262Y-59158436D01*
X181987281Y-59158436D01*
X181988681Y-59158500D01*
X182176107Y-59158500D01*
X182399370Y-59143671D01*
X182403464Y-59142846D01*
X182403468Y-59142845D01*
X182544513Y-59114405D01*
X182693480Y-59084368D01*
X182977163Y-58986688D01*
X182980896Y-58984819D01*
X182980900Y-58984817D01*
X183241691Y-58854222D01*
X183241693Y-58854221D01*
X183245435Y-58852347D01*
X183493584Y-58683706D01*
X183717248Y-58483726D01*
X183719966Y-58480555D01*
X183909779Y-58259097D01*
X183909782Y-58259093D01*
X183912499Y-58255923D01*
X183914773Y-58252421D01*
X183914777Y-58252416D01*
X184073628Y-58007807D01*
X184073631Y-58007802D01*
X184075907Y-58004297D01*
X184204600Y-57733270D01*
X184296318Y-57447604D01*
X184349448Y-57152316D01*
X184354483Y-57041463D01*
X184362870Y-56856766D01*
X184362870Y-56856760D01*
X184363059Y-56852596D01*
X184336909Y-56553708D01*
X184297818Y-56378822D01*
X184272372Y-56264984D01*
X184272371Y-56264981D01*
X184271460Y-56260905D01*
X184167860Y-55979329D01*
X184165916Y-55975641D01*
X184165912Y-55975633D01*
X184029884Y-55717633D01*
X184029883Y-55717632D01*
X184027931Y-55713929D01*
X183854129Y-55469367D01*
X183649510Y-55249939D01*
X183417667Y-55059502D01*
X183162675Y-54901400D01*
X182889012Y-54778411D01*
X182675650Y-54714805D01*
X182605486Y-54693888D01*
X182605484Y-54693888D01*
X182601487Y-54692696D01*
X182597367Y-54692043D01*
X182597365Y-54692043D01*
X182478491Y-54673215D01*
X182305152Y-54645761D01*
X182262423Y-54643821D01*
X182212738Y-54641564D01*
X182212719Y-54641564D01*
X182211319Y-54641500D01*
X182023893Y-54641500D01*
X181800630Y-54656329D01*
X181796536Y-54657154D01*
X181796532Y-54657155D01*
X181655487Y-54685595D01*
X181506520Y-54715632D01*
X181222837Y-54813312D01*
X181219104Y-54815181D01*
X181219100Y-54815183D01*
X180958309Y-54945778D01*
X180954565Y-54947653D01*
X180706416Y-55116294D01*
X180482752Y-55316274D01*
X180480035Y-55319444D01*
X180480034Y-55319445D01*
X180354155Y-55466311D01*
X180287501Y-55544077D01*
X180285227Y-55547579D01*
X180285223Y-55547584D01*
X180126372Y-55792193D01*
X180124093Y-55795703D01*
X179995400Y-56066730D01*
X179994121Y-56070713D01*
X179994120Y-56070716D01*
X179956685Y-56187311D01*
X179903682Y-56352396D01*
X179850552Y-56647684D01*
X179850363Y-56651851D01*
X179850362Y-56651858D01*
X179842478Y-56825475D01*
X179836941Y-56947404D01*
X124944207Y-56947404D01*
X124955353Y-56820000D01*
X124935978Y-56598537D01*
X124878440Y-56383804D01*
X124819301Y-56256980D01*
X124786814Y-56187311D01*
X124786811Y-56187306D01*
X124784488Y-56182324D01*
X124781331Y-56177815D01*
X124660136Y-56004730D01*
X124660134Y-56004727D01*
X124656977Y-56000219D01*
X124499781Y-55843023D01*
X124495273Y-55839866D01*
X124495270Y-55839864D01*
X124419505Y-55786813D01*
X124317677Y-55715512D01*
X124312695Y-55713189D01*
X124312690Y-55713186D01*
X124121178Y-55623883D01*
X124121177Y-55623882D01*
X124116196Y-55621560D01*
X124110888Y-55620138D01*
X124110886Y-55620137D01*
X124045051Y-55602497D01*
X123901463Y-55564022D01*
X123680000Y-55544647D01*
X123458537Y-55564022D01*
X123314949Y-55602497D01*
X123249114Y-55620137D01*
X123249112Y-55620138D01*
X123243804Y-55621560D01*
X123238823Y-55623882D01*
X123238822Y-55623883D01*
X123047311Y-55713186D01*
X123047306Y-55713189D01*
X123042324Y-55715512D01*
X123037817Y-55718668D01*
X123037815Y-55718669D01*
X122864730Y-55839864D01*
X122864727Y-55839866D01*
X122860219Y-55843023D01*
X122703023Y-56000219D01*
X122699866Y-56004727D01*
X122699864Y-56004730D01*
X122578669Y-56177815D01*
X122575512Y-56182324D01*
X122573189Y-56187306D01*
X122573186Y-56187311D01*
X122540699Y-56256980D01*
X122481560Y-56383804D01*
X122424022Y-56598537D01*
X122404647Y-56820000D01*
X114795353Y-56820000D01*
X114775978Y-56598537D01*
X114718440Y-56383804D01*
X114659301Y-56256980D01*
X114626814Y-56187311D01*
X114626811Y-56187306D01*
X114624488Y-56182324D01*
X114621331Y-56177815D01*
X114500136Y-56004730D01*
X114500134Y-56004727D01*
X114496977Y-56000219D01*
X114339781Y-55843023D01*
X114335273Y-55839866D01*
X114335270Y-55839864D01*
X114259505Y-55786813D01*
X114157677Y-55715512D01*
X114152695Y-55713189D01*
X114152690Y-55713186D01*
X113961178Y-55623883D01*
X113961177Y-55623882D01*
X113956196Y-55621560D01*
X113950888Y-55620138D01*
X113950886Y-55620137D01*
X113885051Y-55602497D01*
X113741463Y-55564022D01*
X113520000Y-55544647D01*
X113298537Y-55564022D01*
X113154949Y-55602497D01*
X113089114Y-55620137D01*
X113089112Y-55620138D01*
X113083804Y-55621560D01*
X113078823Y-55623882D01*
X113078822Y-55623883D01*
X112887311Y-55713186D01*
X112887306Y-55713189D01*
X112882324Y-55715512D01*
X112877817Y-55718668D01*
X112877815Y-55718669D01*
X112704730Y-55839864D01*
X112704727Y-55839866D01*
X112700219Y-55843023D01*
X112543023Y-56000219D01*
X112539866Y-56004727D01*
X112539864Y-56004730D01*
X112418669Y-56177815D01*
X112415512Y-56182324D01*
X112413189Y-56187306D01*
X112413186Y-56187311D01*
X112380699Y-56256980D01*
X112321560Y-56383804D01*
X112264022Y-56598537D01*
X112244647Y-56820000D01*
X96360207Y-56820000D01*
X96336909Y-56553708D01*
X96297818Y-56378822D01*
X96272372Y-56264984D01*
X96272371Y-56264981D01*
X96271460Y-56260905D01*
X96167860Y-55979329D01*
X96165916Y-55975641D01*
X96165912Y-55975633D01*
X96029884Y-55717633D01*
X96029883Y-55717632D01*
X96027931Y-55713929D01*
X95854129Y-55469367D01*
X95649510Y-55249939D01*
X95417667Y-55059502D01*
X95162675Y-54901400D01*
X94889012Y-54778411D01*
X94675650Y-54714805D01*
X94605486Y-54693888D01*
X94605484Y-54693888D01*
X94601487Y-54692696D01*
X94597367Y-54692043D01*
X94597365Y-54692043D01*
X94478491Y-54673215D01*
X94305152Y-54645761D01*
X94262423Y-54643821D01*
X94212738Y-54641564D01*
X94212719Y-54641564D01*
X94211319Y-54641500D01*
X94023893Y-54641500D01*
X93800630Y-54656329D01*
X93796536Y-54657154D01*
X93796532Y-54657155D01*
X93655487Y-54685595D01*
X93506520Y-54715632D01*
X93222837Y-54813312D01*
X93219104Y-54815181D01*
X93219100Y-54815183D01*
X92958309Y-54945778D01*
X92954565Y-54947653D01*
X92706416Y-55116294D01*
X92482752Y-55316274D01*
X92480035Y-55319444D01*
X92480034Y-55319445D01*
X92354155Y-55466311D01*
X92287501Y-55544077D01*
X92285227Y-55547579D01*
X92285223Y-55547584D01*
X92126372Y-55792193D01*
X92124093Y-55795703D01*
X91995400Y-56066730D01*
X91994121Y-56070713D01*
X91994120Y-56070716D01*
X91956685Y-56187311D01*
X91903682Y-56352396D01*
X91850552Y-56647684D01*
X91850363Y-56651851D01*
X91850362Y-56651858D01*
X91842478Y-56825475D01*
X91836941Y-56947404D01*
X89108000Y-56947404D01*
X89108000Y-52634000D01*
X89128002Y-52565879D01*
X89181658Y-52519386D01*
X89234000Y-52508000D01*
X186366000Y-52508000D01*
X186434121Y-52528002D01*
G37*
%TD.AperFunction*%
%TD*%
%TA.AperFunction,Conductor*%
%TO.N,GND*%
G36*
X89192143Y-60352775D02*
G01*
X89108000Y-60351560D01*
X89108000Y-60296000D01*
X89200000Y-60250000D01*
X89192143Y-60352775D01*
G37*
%TD.AperFunction*%
%TD*%
M02*
