%TF.GenerationSoftware,KiCad,Pcbnew,(6.0.1)*%
%TF.CreationDate,2022-03-29T14:06:02-05:00*%
%TF.ProjectId,power_board,706f7765-725f-4626-9f61-72642e6b6963,rev?*%
%TF.SameCoordinates,Original*%
%TF.FileFunction,Paste,Top*%
%TF.FilePolarity,Positive*%
%FSLAX46Y46*%
G04 Gerber Fmt 4.6, Leading zero omitted, Abs format (unit mm)*
G04 Created by KiCad (PCBNEW (6.0.1)) date 2022-03-29 14:06:02*
%MOMM*%
%LPD*%
G01*
G04 APERTURE LIST*
G04 Aperture macros list*
%AMRoundRect*
0 Rectangle with rounded corners*
0 $1 Rounding radius*
0 $2 $3 $4 $5 $6 $7 $8 $9 X,Y pos of 4 corners*
0 Add a 4 corners polygon primitive as box body*
4,1,4,$2,$3,$4,$5,$6,$7,$8,$9,$2,$3,0*
0 Add four circle primitives for the rounded corners*
1,1,$1+$1,$2,$3*
1,1,$1+$1,$4,$5*
1,1,$1+$1,$6,$7*
1,1,$1+$1,$8,$9*
0 Add four rect primitives between the rounded corners*
20,1,$1+$1,$2,$3,$4,$5,0*
20,1,$1+$1,$4,$5,$6,$7,0*
20,1,$1+$1,$6,$7,$8,$9,0*
20,1,$1+$1,$8,$9,$2,$3,0*%
G04 Aperture macros list end*
%ADD10RoundRect,0.200000X-0.275000X0.200000X-0.275000X-0.200000X0.275000X-0.200000X0.275000X0.200000X0*%
%ADD11RoundRect,0.150000X-0.825000X-0.150000X0.825000X-0.150000X0.825000X0.150000X-0.825000X0.150000X0*%
%ADD12RoundRect,0.250000X-0.325000X-1.100000X0.325000X-1.100000X0.325000X1.100000X-0.325000X1.100000X0*%
%ADD13RoundRect,0.200000X-0.200000X-0.275000X0.200000X-0.275000X0.200000X0.275000X-0.200000X0.275000X0*%
%ADD14RoundRect,0.200000X0.275000X-0.200000X0.275000X0.200000X-0.275000X0.200000X-0.275000X-0.200000X0*%
%ADD15R,2.750000X3.050000*%
%ADD16R,1.200000X2.200000*%
%ADD17RoundRect,0.250000X-1.100000X0.325000X-1.100000X-0.325000X1.100000X-0.325000X1.100000X0.325000X0*%
%ADD18RoundRect,0.200000X0.200000X0.275000X-0.200000X0.275000X-0.200000X-0.275000X0.200000X-0.275000X0*%
%ADD19R,1.400000X0.300000*%
%ADD20R,3.050000X2.750000*%
%ADD21R,2.200000X1.200000*%
%ADD22RoundRect,0.250000X0.250000X0.475000X-0.250000X0.475000X-0.250000X-0.475000X0.250000X-0.475000X0*%
%ADD23RoundRect,0.225000X-0.225000X-0.250000X0.225000X-0.250000X0.225000X0.250000X-0.225000X0.250000X0*%
%ADD24RoundRect,0.250000X-1.425000X0.362500X-1.425000X-0.362500X1.425000X-0.362500X1.425000X0.362500X0*%
%ADD25RoundRect,0.250000X-0.312500X-0.625000X0.312500X-0.625000X0.312500X0.625000X-0.312500X0.625000X0*%
%ADD26RoundRect,0.250000X0.325000X1.100000X-0.325000X1.100000X-0.325000X-1.100000X0.325000X-1.100000X0*%
%ADD27RoundRect,0.250000X-0.250000X-0.475000X0.250000X-0.475000X0.250000X0.475000X-0.250000X0.475000X0*%
%ADD28RoundRect,0.170000X-0.170000X-0.210000X0.170000X-0.210000X0.170000X0.210000X-0.170000X0.210000X0*%
%ADD29RoundRect,0.075000X-0.650000X-0.075000X0.650000X-0.075000X0.650000X0.075000X-0.650000X0.075000X0*%
%ADD30RoundRect,0.225000X0.225000X0.250000X-0.225000X0.250000X-0.225000X-0.250000X0.225000X-0.250000X0*%
%ADD31R,2.540000X3.530600*%
%ADD32RoundRect,0.150000X-0.150000X0.875000X-0.150000X-0.875000X0.150000X-0.875000X0.150000X0.875000X0*%
G04 APERTURE END LIST*
D10*
%TO.C,R23*%
X154000000Y-130375000D03*
X154000000Y-132025000D03*
%TD*%
D11*
%TO.C,Q6*%
X128425000Y-121495000D03*
X128425000Y-122765000D03*
X128425000Y-124035000D03*
X128425000Y-125305000D03*
X133375000Y-125305000D03*
X133375000Y-124035000D03*
X133375000Y-122765000D03*
X133375000Y-121495000D03*
%TD*%
D12*
%TO.C,C22*%
X163525000Y-82000000D03*
X166475000Y-82000000D03*
%TD*%
D13*
%TO.C,R24*%
X163537500Y-138950000D03*
X165187500Y-138950000D03*
%TD*%
%TO.C,R17*%
X118675000Y-111750000D03*
X120325000Y-111750000D03*
%TD*%
D14*
%TO.C,R10*%
X101400000Y-77175000D03*
X101400000Y-75525000D03*
%TD*%
D15*
%TO.C,Q3*%
X146775000Y-102175000D03*
X149825000Y-102175000D03*
X146775000Y-105525000D03*
X149825000Y-105525000D03*
D16*
X150580000Y-97550000D03*
X146020000Y-97550000D03*
%TD*%
D17*
%TO.C,C14*%
X115850000Y-93975000D03*
X115850000Y-96925000D03*
%TD*%
D13*
%TO.C,R19*%
X118675000Y-115050000D03*
X120325000Y-115050000D03*
%TD*%
D11*
%TO.C,Q7*%
X128425000Y-114245000D03*
X128425000Y-115515000D03*
X128425000Y-116785000D03*
X128425000Y-118055000D03*
X133375000Y-118055000D03*
X133375000Y-116785000D03*
X133375000Y-115515000D03*
X133375000Y-114245000D03*
%TD*%
%TO.C,Q5*%
X111225000Y-84595000D03*
X111225000Y-85865000D03*
X111225000Y-87135000D03*
X111225000Y-88405000D03*
X116175000Y-88405000D03*
X116175000Y-87135000D03*
X116175000Y-85865000D03*
X116175000Y-84595000D03*
%TD*%
D18*
%TO.C,R15*%
X137625000Y-109750000D03*
X135975000Y-109750000D03*
%TD*%
D19*
%TO.C,IC1*%
X128500000Y-107900000D03*
X128500000Y-108400000D03*
X128500000Y-108900000D03*
X128500000Y-109400000D03*
X128500000Y-109900000D03*
X132900000Y-109900000D03*
X132900000Y-109400000D03*
X132900000Y-108900000D03*
X132900000Y-108400000D03*
X132900000Y-107900000D03*
%TD*%
D12*
%TO.C,C23*%
X163525000Y-77000000D03*
X166475000Y-77000000D03*
%TD*%
D17*
%TO.C,C15*%
X119910000Y-94015000D03*
X119910000Y-96965000D03*
%TD*%
D12*
%TO.C,C11*%
X113935000Y-79980000D03*
X116885000Y-79980000D03*
%TD*%
D20*
%TO.C,Q1*%
X156725000Y-92625000D03*
X160075000Y-92625000D03*
X156725000Y-89575000D03*
X160075000Y-89575000D03*
D21*
X152100000Y-88820000D03*
X152100000Y-93380000D03*
%TD*%
D18*
%TO.C,R14*%
X137625000Y-111750000D03*
X135975000Y-111750000D03*
%TD*%
D22*
%TO.C,C24*%
X100450000Y-66350000D03*
X98550000Y-66350000D03*
%TD*%
D23*
%TO.C,D1*%
X163925000Y-87400000D03*
X165475000Y-87400000D03*
%TD*%
D13*
%TO.C,R20*%
X118675000Y-117550000D03*
X120325000Y-117550000D03*
%TD*%
D20*
%TO.C,Q4*%
X137175000Y-98125000D03*
X137175000Y-101175000D03*
X133825000Y-98125000D03*
X133825000Y-101175000D03*
D21*
X141800000Y-101930000D03*
X141800000Y-97370000D03*
%TD*%
D24*
%TO.C,R11*%
X107200000Y-85037500D03*
X107200000Y-90962500D03*
%TD*%
D25*
%TO.C,R12*%
X94637500Y-78750000D03*
X97562500Y-78750000D03*
%TD*%
D18*
%TO.C,R9*%
X99135000Y-82720000D03*
X97485000Y-82720000D03*
%TD*%
D13*
%TO.C,R26*%
X128575000Y-128600000D03*
X130225000Y-128600000D03*
%TD*%
D18*
%TO.C,R30*%
X131325000Y-133900000D03*
X129675000Y-133900000D03*
%TD*%
D26*
%TO.C,C10*%
X116875000Y-75250000D03*
X113925000Y-75250000D03*
%TD*%
D22*
%TO.C,C25*%
X100450000Y-70450000D03*
X98550000Y-70450000D03*
%TD*%
D10*
%TO.C,R1*%
X163900000Y-89475000D03*
X163900000Y-91125000D03*
%TD*%
D18*
%TO.C,R16*%
X137625000Y-107600000D03*
X135975000Y-107600000D03*
%TD*%
D13*
%TO.C,R32*%
X142275000Y-136600000D03*
X143925000Y-136600000D03*
%TD*%
D20*
%TO.C,Q8*%
X146175000Y-120625000D03*
X142825000Y-117575000D03*
X142825000Y-120625000D03*
X146175000Y-117575000D03*
D21*
X138200000Y-116820000D03*
X138200000Y-121380000D03*
%TD*%
D27*
%TO.C,C9*%
X108150000Y-80650000D03*
X110050000Y-80650000D03*
%TD*%
D28*
%TO.C,U5*%
X104070000Y-81160000D03*
X104070000Y-80220000D03*
X103230000Y-80220000D03*
X103230000Y-81160000D03*
D29*
X101500000Y-79690000D03*
X101500000Y-80190000D03*
X101500000Y-80690000D03*
X101500000Y-81190000D03*
X101500000Y-81690000D03*
X105800000Y-81690000D03*
X105800000Y-81190000D03*
X105800000Y-80690000D03*
X105800000Y-80190000D03*
X105800000Y-79690000D03*
%TD*%
D11*
%TO.C,Q10*%
X134325000Y-132695000D03*
X134325000Y-133965000D03*
X134325000Y-135235000D03*
X134325000Y-136505000D03*
X139275000Y-136505000D03*
X139275000Y-135235000D03*
X139275000Y-133965000D03*
X139275000Y-132695000D03*
%TD*%
D18*
%TO.C,R2*%
X131585000Y-105000000D03*
X129935000Y-105000000D03*
%TD*%
D15*
%TO.C,D9*%
X124375000Y-97895000D03*
X127425000Y-97895000D03*
X124375000Y-101245000D03*
X127425000Y-101245000D03*
D16*
X128180000Y-93270000D03*
X123620000Y-93270000D03*
%TD*%
D13*
%TO.C,R33*%
X142275000Y-133900000D03*
X143925000Y-133900000D03*
%TD*%
D30*
%TO.C,C8*%
X99075000Y-74550000D03*
X97525000Y-74550000D03*
%TD*%
D13*
%TO.C,R27*%
X138475000Y-114300000D03*
X140125000Y-114300000D03*
%TD*%
D31*
%TO.C,L3*%
X127611300Y-76409700D03*
X124588700Y-76409700D03*
X124588700Y-86290300D03*
X127611300Y-86290300D03*
%TD*%
D32*
%TO.C,U6*%
X148325000Y-79170000D03*
X147055000Y-79170000D03*
X145785000Y-79170000D03*
X144515000Y-79170000D03*
X143245000Y-79170000D03*
X141975000Y-79170000D03*
X140705000Y-79170000D03*
X139435000Y-79170000D03*
X138165000Y-79170000D03*
X136895000Y-79170000D03*
X136895000Y-88470000D03*
X138165000Y-88470000D03*
X139435000Y-88470000D03*
X140705000Y-88470000D03*
X141975000Y-88470000D03*
X143245000Y-88470000D03*
X144515000Y-88470000D03*
X145785000Y-88470000D03*
X147055000Y-88470000D03*
X148325000Y-88470000D03*
%TD*%
D15*
%TO.C,Q2*%
X158325000Y-105525000D03*
X158325000Y-102175000D03*
X155275000Y-102175000D03*
X155275000Y-105525000D03*
D16*
X159080000Y-97550000D03*
X154520000Y-97550000D03*
%TD*%
D13*
%TO.C,R25*%
X163625000Y-135450000D03*
X165275000Y-135450000D03*
%TD*%
D30*
%TO.C,C7*%
X99085000Y-80910000D03*
X97535000Y-80910000D03*
%TD*%
D14*
%TO.C,R8*%
X110110000Y-78655000D03*
X110110000Y-77005000D03*
%TD*%
D18*
%TO.C,R13*%
X99125000Y-76550000D03*
X97475000Y-76550000D03*
%TD*%
D11*
%TO.C,Q9*%
X154975000Y-134845000D03*
X154975000Y-136115000D03*
X154975000Y-137385000D03*
X154975000Y-138655000D03*
X159925000Y-138655000D03*
X159925000Y-137385000D03*
X159925000Y-136115000D03*
X159925000Y-134845000D03*
%TD*%
D13*
%TO.C,R18*%
X118675000Y-120850000D03*
X120325000Y-120850000D03*
%TD*%
D18*
%TO.C,R31*%
X131325000Y-136500000D03*
X129675000Y-136500000D03*
%TD*%
D13*
%TO.C,R7*%
X106665000Y-76870000D03*
X108315000Y-76870000D03*
%TD*%
D10*
%TO.C,R22*%
X157500000Y-130375000D03*
X157500000Y-132025000D03*
%TD*%
M02*
