M48
; DRILL file {KiCad (6.0.1)} date Tue Mar 29 14:06:03 2022
; FORMAT={-:-/ absolute / metric / decimal}
; #@! TF.CreationDate,2022-03-29T14:06:03-05:00
; #@! TF.GenerationSoftware,Kicad,Pcbnew,(6.0.1)
; #@! TF.FileFunction,Plated,1,2,PTH
FMAT,2
METRIC
; #@! TA.AperFunction,Plated,PTH,ViaDrill
T1C0.400
; #@! TA.AperFunction,Plated,PTH,ComponentDrill
T2C0.800
; #@! TA.AperFunction,Plated,PTH,ComponentDrill
T3C1.000
; #@! TA.AperFunction,Plated,PTH,ComponentDrill
T4C1.600
; #@! TA.AperFunction,Plated,PTH,ComponentDrill
T5C2.000
; #@! TA.AperFunction,Plated,PTH,ComponentDrill
T6C2.200
%
G90
G05
T1
X96.5Y-74.5
X96.5Y-76.5
X96.5Y-80.9
X96.6Y-82.7
X103.1Y-80.1
X103.1Y-81.3
X103.6Y-80.7
X104.1Y-80.1
X104.1Y-81.3
X106.6Y-114.0
X109.2Y-78.7
X109.7Y-82.0
X111.6Y-109.7
X111.6Y-134.5
X112.5Y-114.0
X112.9Y-133.4
X113.4Y-109.7
X114.01Y-124.16
X116.344Y-124.154
X117.79Y-113.41
X117.81Y-119.18
X118.2Y-137.65
X118.4Y-139.149
X119.35Y-119.17
X119.42Y-113.41
X121.2Y-136.3
X123.8Y-73.5
X125.4Y-73.5
X125.5Y-131.859
X125.8Y-130.3
X127.0Y-110.4
X127.0Y-122.7
X127.4Y-127.0
X127.738Y-131.11
X129.4Y-131.15
X129.495Y-119.365
X130.78Y-120.3
X131.2Y-126.7
X131.3Y-125.0
X131.5Y-108.1
X131.7Y-118.0
X133.5Y-126.8
X133.6Y-137.404
X135.0Y-124.784
X135.2Y-115.5
X135.4Y-123.0
X136.7Y-142.6
X136.9Y-77.4
X136.9Y-136.0
X136.95Y-134.0
X137.4Y-122.6
X137.9Y-94.75
X138.489Y-127.711
X138.59Y-129.46
X139.0Y-122.6
X139.3Y-93.35
X140.149Y-127.609
X140.2Y-129.4
X141.1Y-114.2
X143.9Y-135.2
X148.3Y-77.6
X149.6Y-92.5
X151.6Y-133.5
X151.92Y-135.54
X153.0Y-137.6
X156.5Y-97.0
X156.85Y-135.26
X157.2Y-128.7
X159.5Y-130.2
X163.5Y-79.4
X163.8Y-92.0
X164.3Y-136.9
X166.0Y-137.1
T2
X104.1Y-94.055
X104.1Y-96.555
X104.21Y-71.35
X104.355Y-65.35
X106.21Y-71.35
X106.355Y-65.35
X110.81Y-94.05
X110.81Y-96.55
T3
X92.3Y-121.5
X92.3Y-124.04
X92.3Y-128.775
X92.3Y-133.275
X92.3Y-137.275
X122.4Y-144.8
X126.0Y-144.8
X133.225Y-144.8
X135.765Y-144.8
X138.2Y-74.2
X142.135Y-144.8
X144.675Y-144.8
X145.7Y-74.2
X151.525Y-144.8
X154.065Y-144.8
X158.925Y-144.8
X161.465Y-144.8
X165.1Y-105.4
X169.0Y-144.8
X170.7Y-105.4
X172.25Y-76.0
X172.25Y-95.0
X173.8Y-144.8
X179.75Y-76.0
X179.75Y-95.0
X181.3Y-129.0
X181.3Y-135.4
T4
X123.2Y-61.9
X132.3Y-61.9
T5
X151.85Y-113.12
X151.85Y-123.28
T6
X158.5Y-62.9
X167.2Y-62.9
X179.5Y-106.0
X179.5Y-113.5
T0
M30
