%TF.GenerationSoftware,KiCad,Pcbnew,(6.0.1)*%
%TF.CreationDate,2022-03-07T20:17:15-06:00*%
%TF.ProjectId,power_board,706f7765-725f-4626-9f61-72642e6b6963,rev?*%
%TF.SameCoordinates,Original*%
%TF.FileFunction,Paste,Top*%
%TF.FilePolarity,Positive*%
%FSLAX46Y46*%
G04 Gerber Fmt 4.6, Leading zero omitted, Abs format (unit mm)*
G04 Created by KiCad (PCBNEW (6.0.1)) date 2022-03-07 20:17:15*
%MOMM*%
%LPD*%
G01*
G04 APERTURE LIST*
G04 Aperture macros list*
%AMRoundRect*
0 Rectangle with rounded corners*
0 $1 Rounding radius*
0 $2 $3 $4 $5 $6 $7 $8 $9 X,Y pos of 4 corners*
0 Add a 4 corners polygon primitive as box body*
4,1,4,$2,$3,$4,$5,$6,$7,$8,$9,$2,$3,0*
0 Add four circle primitives for the rounded corners*
1,1,$1+$1,$2,$3*
1,1,$1+$1,$4,$5*
1,1,$1+$1,$6,$7*
1,1,$1+$1,$8,$9*
0 Add four rect primitives between the rounded corners*
20,1,$1+$1,$2,$3,$4,$5,0*
20,1,$1+$1,$4,$5,$6,$7,0*
20,1,$1+$1,$6,$7,$8,$9,0*
20,1,$1+$1,$8,$9,$2,$3,0*%
G04 Aperture macros list end*
%ADD10RoundRect,0.250000X-0.450000X0.262500X-0.450000X-0.262500X0.450000X-0.262500X0.450000X0.262500X0*%
%ADD11RoundRect,0.150000X-0.825000X-0.150000X0.825000X-0.150000X0.825000X0.150000X-0.825000X0.150000X0*%
%ADD12RoundRect,0.250000X1.100000X-0.325000X1.100000X0.325000X-1.100000X0.325000X-1.100000X-0.325000X0*%
%ADD13RoundRect,0.250000X-0.262500X-0.450000X0.262500X-0.450000X0.262500X0.450000X-0.262500X0.450000X0*%
%ADD14RoundRect,0.250000X-1.425000X0.362500X-1.425000X-0.362500X1.425000X-0.362500X1.425000X0.362500X0*%
%ADD15RoundRect,0.250000X0.312500X0.625000X-0.312500X0.625000X-0.312500X-0.625000X0.312500X-0.625000X0*%
%ADD16RoundRect,0.200000X0.275000X-0.200000X0.275000X0.200000X-0.275000X0.200000X-0.275000X-0.200000X0*%
%ADD17R,2.750000X3.050000*%
%ADD18R,1.200000X2.200000*%
%ADD19RoundRect,0.250000X-1.100000X0.325000X-1.100000X-0.325000X1.100000X-0.325000X1.100000X0.325000X0*%
%ADD20RoundRect,0.250000X0.625000X-0.312500X0.625000X0.312500X-0.625000X0.312500X-0.625000X-0.312500X0*%
%ADD21R,0.830000X0.300000*%
%ADD22R,0.510000X0.635000*%
%ADD23R,0.750000X0.300000*%
%ADD24RoundRect,0.200000X0.200000X0.275000X-0.200000X0.275000X-0.200000X-0.275000X0.200000X-0.275000X0*%
%ADD25R,1.400000X0.300000*%
%ADD26RoundRect,0.250000X-0.325000X-1.100000X0.325000X-1.100000X0.325000X1.100000X-0.325000X1.100000X0*%
%ADD27R,3.050000X2.750000*%
%ADD28R,2.200000X1.200000*%
%ADD29RoundRect,0.250000X0.325000X1.100000X-0.325000X1.100000X-0.325000X-1.100000X0.325000X-1.100000X0*%
%ADD30RoundRect,0.225000X0.225000X0.250000X-0.225000X0.250000X-0.225000X-0.250000X0.225000X-0.250000X0*%
%ADD31RoundRect,0.250000X-0.312500X-0.625000X0.312500X-0.625000X0.312500X0.625000X-0.312500X0.625000X0*%
%ADD32RoundRect,0.225000X-0.250000X0.225000X-0.250000X-0.225000X0.250000X-0.225000X0.250000X0.225000X0*%
%ADD33RoundRect,0.250000X0.262500X0.450000X-0.262500X0.450000X-0.262500X-0.450000X0.262500X-0.450000X0*%
%ADD34RoundRect,0.250000X-0.250000X-0.475000X0.250000X-0.475000X0.250000X0.475000X-0.250000X0.475000X0*%
%ADD35RoundRect,0.170000X-0.170000X-0.210000X0.170000X-0.210000X0.170000X0.210000X-0.170000X0.210000X0*%
%ADD36RoundRect,0.075000X-0.650000X-0.075000X0.650000X-0.075000X0.650000X0.075000X-0.650000X0.075000X0*%
%ADD37R,2.540000X3.530600*%
%ADD38RoundRect,0.150000X-0.150000X0.875000X-0.150000X-0.875000X0.150000X-0.875000X0.150000X0.875000X0*%
%ADD39RoundRect,0.200000X-0.200000X-0.275000X0.200000X-0.275000X0.200000X0.275000X-0.200000X0.275000X0*%
G04 APERTURE END LIST*
D10*
%TO.C,R23*%
X154000000Y-131187500D03*
X154000000Y-133012500D03*
%TD*%
D11*
%TO.C,Q6*%
X128425000Y-121495000D03*
X128425000Y-122765000D03*
X128425000Y-124035000D03*
X128425000Y-125305000D03*
X133375000Y-125305000D03*
X133375000Y-124035000D03*
X133375000Y-122765000D03*
X133375000Y-121495000D03*
%TD*%
D12*
%TO.C,C22*%
X166100000Y-124800000D03*
X166100000Y-121850000D03*
%TD*%
D13*
%TO.C,R24*%
X163450000Y-138950000D03*
X165275000Y-138950000D03*
%TD*%
D14*
%TO.C,R3*%
X108700000Y-103587500D03*
X108700000Y-109512500D03*
%TD*%
D15*
%TO.C,R28*%
X143562500Y-125400000D03*
X140637500Y-125400000D03*
%TD*%
D13*
%TO.C,R17*%
X118587500Y-111750000D03*
X120412500Y-111750000D03*
%TD*%
D16*
%TO.C,R10*%
X101400000Y-77175000D03*
X101400000Y-75525000D03*
%TD*%
D17*
%TO.C,Q3*%
X146775000Y-102175000D03*
X149825000Y-105525000D03*
X149825000Y-102175000D03*
X146775000Y-105525000D03*
D18*
X150580000Y-97550000D03*
X146020000Y-97550000D03*
%TD*%
D19*
%TO.C,C14*%
X115850000Y-93975000D03*
X115850000Y-96925000D03*
%TD*%
D20*
%TO.C,R29*%
X137400000Y-125562500D03*
X137400000Y-122637500D03*
%TD*%
D13*
%TO.C,R19*%
X118587500Y-115050000D03*
X120412500Y-115050000D03*
%TD*%
D11*
%TO.C,Q7*%
X128425000Y-114245000D03*
X128425000Y-115515000D03*
X128425000Y-116785000D03*
X128425000Y-118055000D03*
X133375000Y-118055000D03*
X133375000Y-116785000D03*
X133375000Y-115515000D03*
X133375000Y-114245000D03*
%TD*%
D21*
%TO.C,Q5*%
X112265000Y-84337500D03*
X112265000Y-85637500D03*
D22*
X114445000Y-84686500D03*
D21*
X112265000Y-84987500D03*
D23*
X115375000Y-84987500D03*
X115375000Y-86287500D03*
D22*
X114445000Y-85938500D03*
D21*
X112265000Y-86287500D03*
D23*
X115375000Y-84337500D03*
X115375000Y-85637500D03*
D22*
X113585000Y-85938500D03*
X113585000Y-84686500D03*
%TD*%
D24*
%TO.C,R15*%
X137625000Y-109750000D03*
X135975000Y-109750000D03*
%TD*%
D25*
%TO.C,IC1*%
X128500000Y-107900000D03*
X128500000Y-108400000D03*
X128500000Y-108900000D03*
X128500000Y-109400000D03*
X128500000Y-109900000D03*
X132900000Y-109900000D03*
X132900000Y-109400000D03*
X132900000Y-108900000D03*
X132900000Y-108400000D03*
X132900000Y-107900000D03*
%TD*%
D12*
%TO.C,C23*%
X161100000Y-124800000D03*
X161100000Y-121850000D03*
%TD*%
D19*
%TO.C,C15*%
X119910000Y-94015000D03*
X119910000Y-96965000D03*
%TD*%
D26*
%TO.C,C11*%
X113935000Y-79980000D03*
X116885000Y-79980000D03*
%TD*%
D27*
%TO.C,Q1*%
X159225000Y-92575000D03*
X159225000Y-89525000D03*
X162575000Y-89525000D03*
X162575000Y-92575000D03*
D28*
X154600000Y-88770000D03*
X154600000Y-93330000D03*
%TD*%
D24*
%TO.C,R14*%
X137625000Y-111750000D03*
X135975000Y-111750000D03*
%TD*%
D29*
%TO.C,C24*%
X100975000Y-66350000D03*
X98025000Y-66350000D03*
%TD*%
D14*
%TO.C,R6*%
X103700000Y-112037500D03*
X103700000Y-117962500D03*
%TD*%
D30*
%TO.C,D1*%
X177475000Y-106000000D03*
X175925000Y-106000000D03*
%TD*%
D13*
%TO.C,R20*%
X118587500Y-117550000D03*
X120412500Y-117550000D03*
%TD*%
D27*
%TO.C,Q4*%
X133825000Y-101175000D03*
X133825000Y-98125000D03*
X137175000Y-98125000D03*
X137175000Y-101175000D03*
D28*
X141800000Y-101930000D03*
X141800000Y-97370000D03*
%TD*%
D14*
%TO.C,R11*%
X108400000Y-84950000D03*
X108400000Y-90875000D03*
%TD*%
D31*
%TO.C,R12*%
X94637500Y-78750000D03*
X97562500Y-78750000D03*
%TD*%
D14*
%TO.C,R4*%
X108700000Y-112037500D03*
X108700000Y-117962500D03*
%TD*%
D24*
%TO.C,R9*%
X99135000Y-82720000D03*
X97485000Y-82720000D03*
%TD*%
D13*
%TO.C,R26*%
X128487500Y-128600000D03*
X130312500Y-128600000D03*
%TD*%
D32*
%TO.C,C18*%
X141980000Y-74555000D03*
X141980000Y-76105000D03*
%TD*%
D33*
%TO.C,R30*%
X130312500Y-133900000D03*
X128487500Y-133900000D03*
%TD*%
D29*
%TO.C,C10*%
X116875000Y-75250000D03*
X113925000Y-75250000D03*
%TD*%
%TO.C,C25*%
X100975000Y-70450000D03*
X98025000Y-70450000D03*
%TD*%
D14*
%TO.C,R1*%
X183000000Y-104037500D03*
X183000000Y-109962500D03*
%TD*%
D24*
%TO.C,R16*%
X137625000Y-107600000D03*
X135975000Y-107600000D03*
%TD*%
D13*
%TO.C,R32*%
X143687500Y-136600000D03*
X145512500Y-136600000D03*
%TD*%
D27*
%TO.C,Q8*%
X138425000Y-118025000D03*
X141775000Y-114975000D03*
X138425000Y-114975000D03*
X141775000Y-118025000D03*
D28*
X146400000Y-118780000D03*
X146400000Y-114220000D03*
%TD*%
D34*
%TO.C,C9*%
X108150000Y-80650000D03*
X110050000Y-80650000D03*
%TD*%
D35*
%TO.C,U5*%
X103230000Y-80220000D03*
X103230000Y-81160000D03*
X104070000Y-80220000D03*
X104070000Y-81160000D03*
D36*
X101500000Y-79690000D03*
X101500000Y-80190000D03*
X101500000Y-80690000D03*
X101500000Y-81190000D03*
X101500000Y-81690000D03*
X105800000Y-81690000D03*
X105800000Y-81190000D03*
X105800000Y-80690000D03*
X105800000Y-80190000D03*
X105800000Y-79690000D03*
%TD*%
D11*
%TO.C,Q10*%
X134325000Y-132695000D03*
X134325000Y-133965000D03*
X134325000Y-135235000D03*
X134325000Y-136505000D03*
X139275000Y-136505000D03*
X139275000Y-135235000D03*
X139275000Y-133965000D03*
X139275000Y-132695000D03*
%TD*%
D24*
%TO.C,R2*%
X131585000Y-105000000D03*
X129935000Y-105000000D03*
%TD*%
D17*
%TO.C,D9*%
X127425000Y-97895000D03*
X124375000Y-97895000D03*
X127425000Y-101245000D03*
X124375000Y-101245000D03*
D18*
X128180000Y-93270000D03*
X123620000Y-93270000D03*
%TD*%
D13*
%TO.C,R33*%
X143687500Y-133900000D03*
X145512500Y-133900000D03*
%TD*%
D30*
%TO.C,C8*%
X99075000Y-74550000D03*
X97525000Y-74550000D03*
%TD*%
D10*
%TO.C,R27*%
X146300000Y-121787500D03*
X146300000Y-123612500D03*
%TD*%
D37*
%TO.C,L3*%
X126511300Y-76409700D03*
X123488700Y-76409700D03*
X123488700Y-86290300D03*
X126511300Y-86290300D03*
%TD*%
D38*
%TO.C,U6*%
X148325000Y-79170000D03*
X147055000Y-79170000D03*
X145785000Y-79170000D03*
X144515000Y-79170000D03*
X143245000Y-79170000D03*
X141975000Y-79170000D03*
X140705000Y-79170000D03*
X139435000Y-79170000D03*
X138165000Y-79170000D03*
X136895000Y-79170000D03*
X136895000Y-88470000D03*
X138165000Y-88470000D03*
X139435000Y-88470000D03*
X140705000Y-88470000D03*
X141975000Y-88470000D03*
X143245000Y-88470000D03*
X144515000Y-88470000D03*
X145785000Y-88470000D03*
X147055000Y-88470000D03*
X148325000Y-88470000D03*
%TD*%
D32*
%TO.C,C19*%
X139370000Y-74565000D03*
X139370000Y-76115000D03*
%TD*%
%TO.C,C16*%
X147000000Y-74575000D03*
X147000000Y-76125000D03*
%TD*%
D17*
%TO.C,Q2*%
X155275000Y-102175000D03*
X158325000Y-105525000D03*
X158325000Y-102175000D03*
X155275000Y-105525000D03*
D18*
X159080000Y-97550000D03*
X154520000Y-97550000D03*
%TD*%
D14*
%TO.C,R5*%
X103700000Y-103637500D03*
X103700000Y-109562500D03*
%TD*%
D13*
%TO.C,R25*%
X163537500Y-135450000D03*
X165362500Y-135450000D03*
%TD*%
D30*
%TO.C,C7*%
X99085000Y-80910000D03*
X97535000Y-80910000D03*
%TD*%
D16*
%TO.C,R8*%
X110110000Y-78655000D03*
X110110000Y-77005000D03*
%TD*%
D24*
%TO.C,R13*%
X99125000Y-76550000D03*
X97475000Y-76550000D03*
%TD*%
D32*
%TO.C,C17*%
X144500000Y-74575000D03*
X144500000Y-76125000D03*
%TD*%
D11*
%TO.C,Q9*%
X154975000Y-134845000D03*
X154975000Y-136115000D03*
X154975000Y-137385000D03*
X154975000Y-138655000D03*
X159925000Y-138655000D03*
X159925000Y-137385000D03*
X159925000Y-136115000D03*
X159925000Y-134845000D03*
%TD*%
D13*
%TO.C,R18*%
X118587500Y-120850000D03*
X120412500Y-120850000D03*
%TD*%
D33*
%TO.C,R31*%
X130312500Y-136500000D03*
X128487500Y-136500000D03*
%TD*%
D39*
%TO.C,R7*%
X106665000Y-76870000D03*
X108315000Y-76870000D03*
%TD*%
D10*
%TO.C,R22*%
X157500000Y-131187500D03*
X157500000Y-133012500D03*
%TD*%
M02*
