%TF.GenerationSoftware,KiCad,Pcbnew,(6.0.1)*%
%TF.CreationDate,2022-03-07T20:17:15-06:00*%
%TF.ProjectId,power_board,706f7765-725f-4626-9f61-72642e6b6963,rev?*%
%TF.SameCoordinates,Original*%
%TF.FileFunction,Soldermask,Bot*%
%TF.FilePolarity,Negative*%
%FSLAX46Y46*%
G04 Gerber Fmt 4.6, Leading zero omitted, Abs format (unit mm)*
G04 Created by KiCad (PCBNEW (6.0.1)) date 2022-03-07 20:17:15*
%MOMM*%
%LPD*%
G01*
G04 APERTURE LIST*
%ADD10R,1.700000X1.700000*%
%ADD11O,1.700000X1.700000*%
%ADD12C,1.524000*%
%ADD13C,2.500000*%
%ADD14C,1.600000*%
%ADD15O,1.600000X1.600000*%
%ADD16C,3.500000*%
%ADD17R,1.600000X1.600000*%
%ADD18C,2.000000*%
G04 APERTURE END LIST*
D10*
%TO.C,J5*%
X181400000Y-81800000D03*
%TD*%
%TO.C,J19*%
X161225000Y-143000000D03*
D11*
X163765000Y-143000000D03*
%TD*%
D12*
%TO.C,J6*%
X143780000Y-56820000D03*
D13*
X138700000Y-63170000D03*
D12*
X133620000Y-66980000D03*
X143780000Y-66980000D03*
X133620000Y-56820000D03*
%TD*%
D14*
%TO.C,R21*%
X152500000Y-114220000D03*
D15*
X152500000Y-124380000D03*
%TD*%
D10*
%TO.C,J22*%
X145200000Y-143000000D03*
D11*
X142660000Y-143000000D03*
%TD*%
D10*
%TO.C,J1*%
X167700000Y-112700000D03*
%TD*%
D16*
%TO.C,H1*%
X182100000Y-56900000D03*
%TD*%
%TO.C,H3*%
X182100000Y-146900000D03*
%TD*%
D10*
%TO.C,J16*%
X174000000Y-143000000D03*
%TD*%
%TO.C,J17*%
X169200000Y-143000000D03*
%TD*%
D17*
%TO.C,C12*%
X104100000Y-96555113D03*
D14*
X104100000Y-94055113D03*
%TD*%
D17*
%TO.C,C5*%
X106355113Y-65350000D03*
D14*
X104355113Y-65350000D03*
%TD*%
D10*
%TO.C,J4*%
X169100000Y-62900000D03*
%TD*%
D16*
%TO.C,H4*%
X94100000Y-56900000D03*
%TD*%
%TO.C,H2*%
X94100000Y-146900000D03*
%TD*%
D10*
%TO.C,J20*%
X94500000Y-137275000D03*
%TD*%
%TO.C,J3*%
X175000000Y-82000000D03*
%TD*%
D18*
%TO.C,C21*%
X173250000Y-120000000D03*
X180750000Y-120000000D03*
%TD*%
D12*
%TO.C,J9*%
X113520000Y-66980000D03*
D13*
X118600000Y-63170000D03*
D12*
X113520000Y-56820000D03*
X123680000Y-66980000D03*
X123680000Y-56820000D03*
%TD*%
D10*
%TO.C,J12*%
X94500000Y-121500000D03*
D11*
X94500000Y-124040000D03*
%TD*%
D10*
%TO.C,J14*%
X94500000Y-133275000D03*
%TD*%
%TO.C,J10*%
X161500000Y-62900000D03*
%TD*%
D17*
%TO.C,C6*%
X106210225Y-71350000D03*
D14*
X104210225Y-71350000D03*
%TD*%
D10*
%TO.C,J18*%
X152225000Y-143000000D03*
D11*
X154765000Y-143000000D03*
%TD*%
D10*
%TO.C,J21*%
X134600000Y-72200000D03*
%TD*%
%TO.C,J15*%
X94500000Y-128775000D03*
%TD*%
D18*
%TO.C,C20*%
X174000000Y-98750000D03*
X174000000Y-91250000D03*
%TD*%
D17*
%TO.C,C13*%
X110810000Y-96550001D03*
D14*
X110810000Y-94050001D03*
%TD*%
D10*
%TO.C,J2*%
X162100000Y-112700000D03*
%TD*%
%TO.C,J11*%
X151400000Y-72200000D03*
%TD*%
%TO.C,J7*%
X133925000Y-143000000D03*
D11*
X136465000Y-143000000D03*
%TD*%
M02*
