M48
; DRILL file {KiCad (6.0.1)} date Mon Mar  7 20:17:26 2022
; FORMAT={-:-/ absolute / metric / decimal}
; #@! TF.CreationDate,2022-03-07T20:17:26-06:00
; #@! TF.GenerationSoftware,Kicad,Pcbnew,(6.0.1)
; #@! TF.FileFunction,Plated,1,2,PTH
FMAT,2
METRIC
; #@! TA.AperFunction,Plated,PTH,ViaDrill
T1C0.400
; #@! TA.AperFunction,Plated,PTH,ComponentDrill
T2C0.800
; #@! TA.AperFunction,Plated,PTH,ComponentDrill
T3C1.000
; #@! TA.AperFunction,Plated,PTH,ComponentDrill
T4C1.300
; #@! TA.AperFunction,Plated,PTH,ComponentDrill
T5C2.200
%
G90
G05
T1
X96.5Y-74.5
X96.5Y-76.5
X96.5Y-80.9
X96.6Y-82.7
X103.1Y-80.1
X103.1Y-81.3
X103.6Y-80.7
X103.6Y-116.75
X104.1Y-80.1
X104.1Y-81.3
X105.5Y-83.35
X107.3Y-82.55
X108.4Y-116.75
X109.2Y-78.7
X109.7Y-82.0
X114.01Y-124.16
X116.344Y-124.154
X117.79Y-113.41
X117.81Y-119.18
X119.35Y-119.17
X119.42Y-113.41
X127.0Y-110.4
X127.0Y-122.7
X127.738Y-131.11
X129.4Y-131.15
X129.495Y-119.365
X130.78Y-120.3
X131.5Y-108.1
X131.7Y-118.0
X135.2Y-115.5
X135.3Y-123.2
X135.3Y-124.8
X136.9Y-77.4
X137.3Y-123.7
X137.9Y-94.75
X138.59Y-129.46
X139.3Y-73.5
X139.3Y-93.35
X140.24Y-129.41
X142.0Y-73.5
X144.5Y-73.6
X145.78Y-137.85
X145.88Y-132.67
X146.35Y-124.71
X147.0Y-73.6
X148.3Y-77.6
X151.92Y-135.54
X156.85Y-135.26
X160.9Y-123.725
X165.53Y-141.02
X165.9Y-123.625
X167.15Y-141.4
X183.0Y-108.6
T2
X104.1Y-94.055
X104.1Y-96.555
X104.21Y-71.35
X104.355Y-65.35
X106.21Y-71.35
X106.355Y-65.35
X110.81Y-94.05
X110.81Y-96.55
X152.5Y-114.22
X152.5Y-124.38
T3
X94.5Y-121.5
X94.5Y-124.04
X94.5Y-128.775
X94.5Y-133.275
X94.5Y-137.275
X133.925Y-143.0
X134.6Y-72.2
X136.465Y-143.0
X142.66Y-143.0
X145.2Y-143.0
X151.4Y-72.2
X152.225Y-143.0
X154.765Y-143.0
X161.225Y-143.0
X161.5Y-62.9
X162.1Y-112.7
X163.765Y-143.0
X167.7Y-112.7
X169.1Y-62.9
X169.2Y-143.0
X173.25Y-120.0
X174.0Y-91.25
X174.0Y-98.75
X174.0Y-143.0
X175.0Y-82.0
X180.75Y-120.0
X181.4Y-81.8
T4
X113.52Y-56.82
X113.52Y-66.98
X123.68Y-56.82
X123.68Y-66.98
X133.62Y-56.82
X133.62Y-66.98
X143.78Y-56.82
X143.78Y-66.98
T5
X118.6Y-63.17
X138.7Y-63.17
T0
M30
