%TF.GenerationSoftware,KiCad,Pcbnew,(6.0.1)*%
%TF.CreationDate,2022-03-29T14:06:02-05:00*%
%TF.ProjectId,power_board,706f7765-725f-4626-9f61-72642e6b6963,rev?*%
%TF.SameCoordinates,Original*%
%TF.FileFunction,Soldermask,Bot*%
%TF.FilePolarity,Negative*%
%FSLAX46Y46*%
G04 Gerber Fmt 4.6, Leading zero omitted, Abs format (unit mm)*
G04 Created by KiCad (PCBNEW (6.0.1)) date 2022-03-29 14:06:02*
%MOMM*%
%LPD*%
G01*
G04 APERTURE LIST*
%ADD10R,1.700000X1.700000*%
%ADD11O,1.700000X1.700000*%
%ADD12C,3.200000*%
%ADD13C,4.400000*%
%ADD14C,2.600000*%
%ADD15C,3.400000*%
%ADD16C,3.500000*%
%ADD17R,1.600000X1.600000*%
%ADD18C,1.600000*%
%ADD19C,2.000000*%
G04 APERTURE END LIST*
D10*
%TO.C,J5*%
X181300000Y-129000000D03*
%TD*%
%TO.C,J19*%
X158925000Y-144800000D03*
D11*
X161465000Y-144800000D03*
%TD*%
D12*
%TO.C,J6*%
X132300000Y-61900000D03*
%TD*%
D10*
%TO.C,J22*%
X144675000Y-144800000D03*
D11*
X142135000Y-144800000D03*
%TD*%
D10*
%TO.C,J1*%
X170700000Y-105400000D03*
%TD*%
D13*
%TO.C,J23*%
X179500000Y-106000000D03*
%TD*%
%TO.C,J24*%
X179500000Y-113500000D03*
%TD*%
D14*
%TO.C,R21*%
X158150000Y-113120000D03*
X158150000Y-123280000D03*
D15*
X151850000Y-113120000D03*
X151850000Y-123280000D03*
%TD*%
D16*
%TO.C,H1*%
X182100000Y-56900000D03*
%TD*%
%TO.C,H3*%
X182100000Y-146900000D03*
%TD*%
D10*
%TO.C,J16*%
X173800000Y-144800000D03*
%TD*%
%TO.C,J17*%
X169000000Y-144800000D03*
%TD*%
D17*
%TO.C,C12*%
X104100000Y-96555113D03*
D18*
X104100000Y-94055113D03*
%TD*%
D17*
%TO.C,C5*%
X106355113Y-65350000D03*
D18*
X104355113Y-65350000D03*
%TD*%
D13*
%TO.C,J4*%
X167200000Y-62900000D03*
%TD*%
D16*
%TO.C,H4*%
X94100000Y-56900000D03*
%TD*%
%TO.C,H2*%
X94100000Y-146900000D03*
%TD*%
D10*
%TO.C,J20*%
X92300000Y-137275000D03*
%TD*%
%TO.C,J3*%
X181300000Y-135400000D03*
%TD*%
D19*
%TO.C,C21*%
X172250000Y-95000000D03*
X179750000Y-95000000D03*
%TD*%
D10*
%TO.C,J13*%
X126000000Y-144800000D03*
%TD*%
D12*
%TO.C,J9*%
X123200000Y-61900000D03*
%TD*%
D10*
%TO.C,J8*%
X122400000Y-144800000D03*
%TD*%
%TO.C,J12*%
X92300000Y-121500000D03*
D11*
X92300000Y-124040000D03*
%TD*%
D10*
%TO.C,J14*%
X92300000Y-133275000D03*
%TD*%
D13*
%TO.C,J10*%
X158500000Y-62900000D03*
%TD*%
D17*
%TO.C,C6*%
X106210225Y-71350000D03*
D18*
X104210225Y-71350000D03*
%TD*%
D10*
%TO.C,J18*%
X151525000Y-144800000D03*
D11*
X154065000Y-144800000D03*
%TD*%
D10*
%TO.C,J21*%
X138200000Y-74200000D03*
%TD*%
%TO.C,J15*%
X92300000Y-128775000D03*
%TD*%
D19*
%TO.C,C20*%
X172250000Y-76000000D03*
X179750000Y-76000000D03*
%TD*%
D17*
%TO.C,C13*%
X110810000Y-96550001D03*
D18*
X110810000Y-94050001D03*
%TD*%
D10*
%TO.C,J2*%
X165100000Y-105400000D03*
%TD*%
%TO.C,J11*%
X145700000Y-74200000D03*
%TD*%
%TO.C,J7*%
X133225000Y-144800000D03*
D11*
X135765000Y-144800000D03*
%TD*%
M02*
